<svg width="37" height="30" viewBox="0 0 37 30" fill="none" xmlns="http://www.w3.org/2000/svg">
<path d="M13.526 26.1542H22.6276C22.4458 27.2296 21.8889 28.2058 21.0559 28.9098C20.2229 29.6138 19.1674 30 18.0768 30C16.9861 30 15.9307 29.6138 15.0977 28.9098C14.2646 28.2058 13.7078 27.2296 13.526 26.1542ZM18.0768 0C21.137 0 24.0719 1.21567 26.2358 3.37958C28.3997 5.54349 29.6154 8.47837 29.6154 11.5386V17.6925L31.797 22.5541C31.8961 22.7765 31.9382 23.0201 31.9193 23.2628C31.9005 23.5056 31.8212 23.7397 31.6889 23.9441C31.5565 24.1484 31.3752 24.3165 31.1614 24.433C30.9476 24.5494 30.7081 24.6107 30.4646 24.6111H5.6951C5.4513 24.611 5.21138 24.55 4.9972 24.4335C4.78301 24.3171 4.60135 24.1489 4.46878 23.9443C4.3362 23.7397 4.25691 23.5052 4.23813 23.2621C4.21934 23.019 4.26167 22.7751 4.36124 22.5526L6.53819 17.691V11.5186L6.54588 11.134C6.65112 8.14602 7.91205 5.31557 10.063 3.23895C12.214 1.16233 15.087 0.000140386 18.0768 0ZM35.0001 9.61089C35.2924 9.61097 35.5738 9.72203 35.7875 9.92162C36.0011 10.1212 36.131 10.3944 36.1509 10.6861C36.1708 10.9778 36.0793 11.2661 35.8948 11.4929C35.7103 11.7197 35.4466 11.868 35.157 11.9078L35.0001 11.9186H31.9231C31.6308 11.9185 31.3493 11.8075 31.1357 11.6079C30.9221 11.4083 30.7922 11.1351 30.7723 10.8434C30.7524 10.5517 30.8439 10.2634 31.0284 10.0366C31.2129 9.8098 31.4766 9.6615 31.7662 9.62165L31.9231 9.61089H35.0001ZM4.23047 9.61089C4.52282 9.61097 4.80423 9.72203 5.01785 9.92162C5.23147 10.1212 5.36137 10.3944 5.38129 10.6861C5.40122 10.9778 5.30969 11.2661 5.1252 11.4929C4.94071 11.7197 4.67701 11.868 4.38739 11.9078L4.23047 11.9186H1.15351C0.861161 11.9185 0.579746 11.8075 0.366127 11.6079C0.152508 11.4083 0.0226116 11.1351 0.00268524 10.8434C-0.0172411 10.5517 0.074288 10.2634 0.258778 10.0366C0.443269 9.8098 0.706964 9.6615 0.996583 9.62165L1.15351 9.61089H4.23047ZM34.3847 0.841549C34.5507 1.06269 34.6317 1.33608 34.6131 1.61195C34.5944 1.88783 34.4774 2.14783 34.2831 2.34464L34.1539 2.45695L31.0769 4.76467C30.844 4.94022 30.5533 5.02105 30.2631 4.99089C29.973 4.96073 29.7051 4.82182 29.5133 4.60211C29.3215 4.3824 29.2199 4.09819 29.2292 3.80666C29.2384 3.51514 29.3577 3.23793 29.5631 3.03081L29.6923 2.9185L32.7693 0.610777C33.0141 0.427163 33.3218 0.348323 33.6248 0.391601C33.9277 0.43488 34.2011 0.59673 34.3847 0.841549ZM3.3843 0.610777L6.46126 2.9185C6.58249 3.00941 6.68461 3.12332 6.76182 3.2537C6.83902 3.38409 6.88978 3.5284 6.91121 3.6784C6.93264 3.82841 6.92431 3.98116 6.88671 4.12795C6.8491 4.27474 6.78295 4.41268 6.69204 4.5339C6.60112 4.65512 6.48722 4.75725 6.35683 4.83445C6.22645 4.91165 6.08213 4.96242 5.93213 4.98385C5.78213 5.00528 5.62937 4.99695 5.48258 4.95935C5.3358 4.92174 5.19785 4.85559 5.07663 4.76467L1.99967 2.45695C1.87845 2.36604 1.77632 2.25213 1.69912 2.12175C1.62192 1.99136 1.57115 1.84705 1.54973 1.69705C1.5283 1.54704 1.53662 1.39428 1.57423 1.2475C1.61183 1.10071 1.67798 0.96277 1.7689 0.841549C1.85982 0.720327 1.97372 0.618199 2.1041 0.540997C2.23449 0.463795 2.3788 0.413031 2.52881 0.391601C2.67881 0.370172 2.83157 0.378498 2.97835 0.416105C3.12514 0.453711 3.26308 0.519861 3.3843 0.610777Z" fill="#FF9400" fill-opacity="0.9"/>
</svg>
