<svg width="68" height="68" viewBox="0 0 68 68" fill="none" xmlns="http://www.w3.org/2000/svg">
<g id="discord icon" filter="url(#filter0_d_472_4832)">
<path id="Vector" d="M49.9375 1H18.0625C10.296 1 4 7.296 4 15.0625V46.9375C4 54.704 10.296 61 18.0625 61H49.9375C57.704 61 64 54.704 64 46.9375V15.0625C64 7.296 57.704 1 49.9375 1Z" fill="#5865F2"/>
<g id="Clip path group">
<mask id="mask0_472_4832" style="mask-type:luminance" maskUnits="userSpaceOnUse" x="10" y="12" width="48" height="38">
<g id="skillIconsDiscord0">
<path id="Vector_2" d="M10.5625 12.9531H57.4375V49.2648H10.5625V12.9531Z" fill="white"/>
</g>
</mask>
<g mask="url(#mask0_472_4832)">
<g id="Group">
<path id="Vector_3" d="M50.2439 16.1875C47.2049 14.7924 43.9978 13.7976 40.7027 13.228C40.6728 13.2225 40.6419 13.2265 40.6144 13.2395C40.5868 13.2526 40.5641 13.274 40.5495 13.3007C40.1374 14.0333 39.6809 14.9896 39.3614 15.741C35.7584 15.2014 32.1741 15.2014 28.6451 15.741C28.3254 14.9727 27.8524 14.0333 27.4385 13.3007C27.4232 13.2745 27.4004 13.2536 27.373 13.2406C27.3456 13.2277 27.3149 13.2233 27.285 13.228C23.9897 13.7965 20.7824 14.7913 17.7438 16.1875C17.7178 16.1985 17.6959 16.2173 17.681 16.2414C11.6042 25.3201 9.93962 34.1757 10.7562 42.9217C10.7585 42.9431 10.765 42.9639 10.7755 42.9827C10.786 43.0016 10.8001 43.0181 10.8171 43.0314C14.8263 45.9758 18.7102 47.7634 22.5218 48.9482C22.5515 48.957 22.5831 48.9566 22.6125 48.9469C22.6419 48.9373 22.6677 48.9189 22.6863 48.8943C23.588 47.6628 24.3917 46.3646 25.081 44.9994C25.0904 44.9807 25.0959 44.9602 25.0969 44.9393C25.0978 44.9183 25.0944 44.8974 25.0867 44.8779C25.079 44.8584 25.0673 44.8407 25.0523 44.8261C25.0373 44.8114 25.0193 44.8001 24.9996 44.7929C23.7246 44.3092 22.5108 43.7197 21.3431 43.0501C21.3219 43.0376 21.304 43.02 21.2911 42.999C21.2783 42.9779 21.2708 42.954 21.2693 42.9294C21.2678 42.9047 21.2725 42.8801 21.2828 42.8577C21.2931 42.8352 21.3087 42.8157 21.3284 42.8007C21.5747 42.6166 21.8168 42.4269 22.0545 42.2317C22.0753 42.2145 22.1005 42.2034 22.1272 42.1998C22.154 42.1961 22.1812 42.2 22.2059 42.2111C29.8774 45.7136 38.1825 45.7136 45.7634 42.2111C45.7881 42.1993 45.8157 42.1949 45.8428 42.1982C45.87 42.2015 45.8957 42.2125 45.9169 42.2298C46.1548 42.4261 46.3975 42.6165 46.6449 42.8007C46.6646 42.8155 46.6804 42.835 46.6908 42.8573C46.7013 42.8797 46.7061 42.9042 46.7048 42.9289C46.7035 42.9535 46.6962 42.9774 46.6835 42.9986C46.6708 43.0197 46.6531 43.0374 46.632 43.0501C45.4636 43.7323 44.2399 44.3147 42.9736 44.7911C42.9539 44.7986 42.9361 44.8101 42.9212 44.825C42.9063 44.8399 42.8948 44.8578 42.8873 44.8775C42.8798 44.8971 42.8765 44.9182 42.8777 44.9392C42.8789 44.9602 42.8845 44.9807 42.8942 44.9994C43.5954 46.3538 44.395 47.655 45.2867 48.8924C45.3048 48.9177 45.3304 48.9367 45.36 48.9467C45.3895 48.9567 45.4214 48.9572 45.4512 48.9482C49.2813 47.7634 53.1652 45.9758 57.1746 43.0314C57.1918 43.0187 57.2061 43.0026 57.2166 42.984C57.2271 42.9654 57.2336 42.9448 57.2356 42.9236C58.2129 32.8124 55.5984 24.0292 50.3049 16.2432C50.2919 16.2179 50.2703 16.1981 50.2439 16.1875ZM26.2266 37.5964C23.9168 37.5964 22.0137 35.476 22.0137 32.8719C22.0137 30.2678 23.88 28.1474 26.2266 28.1474C28.5914 28.1474 30.476 30.2865 30.439 32.8719C30.439 35.476 28.5731 37.5964 26.2266 37.5964ZM41.8022 37.5964C39.4924 37.5964 37.5895 35.476 37.5895 32.8719C37.5895 30.2678 39.4556 28.1474 41.8022 28.1474C44.167 28.1474 46.0517 30.2865 46.0149 32.8719C46.0149 35.476 44.167 37.5964 41.8022 37.5964Z" fill="white"/>
</g>
</g>
</g>
</g>
<defs>
<filter id="filter0_d_472_4832" x="0" y="0" width="68" height="68" filterUnits="userSpaceOnUse" color-interpolation-filters="sRGB">
<feFlood flood-opacity="0" result="BackgroundImageFix"/>
<feColorMatrix in="SourceAlpha" type="matrix" values="0 0 0 0 0 0 0 0 0 0 0 0 0 0 0 0 0 0 127 0" result="hardAlpha"/>
<feOffset dy="3"/>
<feGaussianBlur stdDeviation="2"/>
<feComposite in2="hardAlpha" operator="out"/>
<feColorMatrix type="matrix" values="0 0 0 0 0 0 0 0 0 0 0 0 0 0 0 0 0 0 0.15 0"/>
<feBlend mode="normal" in2="BackgroundImageFix" result="effect1_dropShadow_472_4832"/>
<feBlend mode="normal" in="SourceGraphic" in2="effect1_dropShadow_472_4832" result="shape"/>
</filter>
</defs>
</svg>
