<svg width="68" height="68" viewBox="0 0 68 68" fill="none" xmlns="http://www.w3.org/2000/svg">
<g id="facebook icon" filter="url(#filter0_d_472_4843)">
<path id="Vector" d="M64 31C64 14.4316 50.5684 1 34 1C17.4316 1 4 14.4313 4 31C4 45.9738 14.9706 58.3851 29.3125 60.6355V39.6719H21.6953V31H29.3125V24.3906C29.3125 16.8719 33.7914 12.7188 40.6438 12.7188C43.9263 12.7188 47.3594 13.3047 47.3594 13.3047V20.6875H43.5766C39.8495 20.6875 38.6875 23.0001 38.6875 25.3727V31H47.0078L45.6777 39.6719H38.6875V60.6355C53.0294 58.3851 64 45.974 64 31Z" fill="#1877F2"/>
<path id="Vector_2" d="M45.6777 39.6719L47.0078 31H38.6875V25.3727C38.6875 22.9998 39.8498 20.6875 43.5766 20.6875H47.3594V13.3047C47.3594 13.3047 43.9263 12.7188 40.6438 12.7188C33.7914 12.7188 29.3125 16.8719 29.3125 24.3906V31H21.6953V39.6719H29.3125V60.6355C30.8632 60.8786 32.4304 61.0004 34 61C35.5696 61.0005 37.1368 60.8786 38.6875 60.6355V39.6719H45.6777Z" fill="white"/>
</g>
<defs>
<filter id="filter0_d_472_4843" x="0" y="0" width="68" height="68" filterUnits="userSpaceOnUse" color-interpolation-filters="sRGB">
<feFlood flood-opacity="0" result="BackgroundImageFix"/>
<feColorMatrix in="SourceAlpha" type="matrix" values="0 0 0 0 0 0 0 0 0 0 0 0 0 0 0 0 0 0 127 0" result="hardAlpha"/>
<feOffset dy="3"/>
<feGaussianBlur stdDeviation="2"/>
<feComposite in2="hardAlpha" operator="out"/>
<feColorMatrix type="matrix" values="0 0 0 0 0 0 0 0 0 0 0 0 0 0 0 0 0 0 0.15 0"/>
<feBlend mode="normal" in2="BackgroundImageFix" result="effect1_dropShadow_472_4843"/>
<feBlend mode="normal" in="SourceGraphic" in2="effect1_dropShadow_472_4843" result="shape"/>
</filter>
</defs>
</svg>
