<svg width="68" height="68" viewBox="0 0 68 68" fill="none" xmlns="http://www.w3.org/2000/svg">
<g id="instagram icon" filter="url(#filter0_d_472_4846)">
<path id="Vector" d="M49.9375 1H18.0625C10.296 1 4 7.296 4 15.0625V46.9375C4 54.704 10.296 61 18.0625 61H49.9375C57.704 61 64 54.704 64 46.9375V15.0625C64 7.296 57.704 1 49.9375 1Z" fill="url(#paint0_radial_472_4846)"/>
<path id="Vector_2" d="M49.9375 1H18.0625C10.296 1 4 7.296 4 15.0625V46.9375C4 54.704 10.296 61 18.0625 61H49.9375C57.704 61 64 54.704 64 46.9375V15.0625C64 7.296 57.704 1 49.9375 1Z" fill="url(#paint1_radial_472_4846)"/>
<path id="Vector_3" d="M34.0021 7.5625C27.637 7.5625 26.838 7.59039 24.3381 7.70406C21.843 7.81844 20.1398 8.21336 18.6496 8.79297C17.1079 9.39156 15.8003 10.1924 14.4977 11.4955C13.1938 12.7984 12.393 14.106 11.7925 15.647C11.2113 17.1377 10.8159 18.8416 10.7036 21.3355C10.5918 23.8356 10.5625 24.6348 10.5625 31.0002C10.5625 37.3656 10.5906 38.162 10.7041 40.6619C10.8189 43.157 11.2138 44.8602 11.793 46.3504C12.392 47.8921 13.1929 49.1997 14.496 50.5023C15.7984 51.8062 17.106 52.6089 18.6466 53.2075C20.1379 53.7871 21.8413 54.182 24.336 54.2964C26.8361 54.4101 27.6344 54.438 33.9993 54.438C40.3652 54.438 41.1616 54.4101 43.6614 54.2964C46.1566 54.182 47.8616 53.7871 49.353 53.2075C50.894 52.6089 52.1997 51.8062 53.5019 50.5023C54.8057 49.1997 55.6063 47.8921 56.207 46.3511C56.7831 44.8602 57.1787 43.1566 57.2959 40.6623C57.4082 38.1625 57.4375 37.3656 57.4375 31.0002C57.4375 24.6348 57.4082 23.8361 57.2959 21.336C57.1787 18.8409 56.7831 17.1379 56.207 15.6477C55.6063 14.106 54.8057 12.7984 53.5019 11.4955C52.1983 10.192 50.8945 9.39109 49.3516 8.7932C47.8574 8.21336 46.1533 7.8182 43.6581 7.70406C41.158 7.59039 40.3621 7.5625 33.9948 7.5625H34.0021ZM31.8995 11.7862C32.5237 11.7852 33.22 11.7862 34.0021 11.7862C40.2602 11.7862 41.0017 11.8087 43.473 11.9209C45.7581 12.0255 46.9984 12.4073 47.8246 12.7281C48.9184 13.1528 49.6982 13.6607 50.518 14.4812C51.3384 15.3016 51.846 16.0827 52.2719 17.1766C52.5927 18.0016 52.975 19.2419 53.0791 21.527C53.1913 23.9978 53.2157 24.7398 53.2157 30.9948C53.2157 37.2498 53.1913 37.9921 53.0791 40.4627C52.9745 42.7478 52.5927 43.9881 52.2719 44.8134C51.8472 45.9072 51.3384 46.686 50.518 47.5059C49.6977 48.3262 48.9189 48.8338 47.8246 49.2587C46.9994 49.581 45.7581 49.9619 43.473 50.0664C41.0022 50.1787 40.2602 50.203 34.0021 50.203C27.7438 50.203 27.002 50.1787 24.5315 50.0664C22.2463 49.9609 21.006 49.5791 20.1791 49.2583C19.0855 48.8334 18.3041 48.3257 17.4838 47.5054C16.6635 46.6851 16.1559 45.9058 15.73 44.8115C15.4091 43.9862 15.0269 42.7459 14.9228 40.4608C14.8105 37.99 14.788 37.248 14.788 30.989C14.788 24.7302 14.8105 23.992 14.9228 21.5212C15.0273 19.236 15.4091 17.9957 15.73 17.1695C16.1549 16.0757 16.6635 15.2945 17.4841 14.4742C18.3044 13.6539 19.0855 13.146 20.1794 12.7204C21.0055 12.3981 22.2463 12.0173 24.5315 11.9123C26.6936 11.8145 27.5315 11.7852 31.8995 11.7803V11.7862ZM46.5131 15.6777C44.9603 15.6777 43.7006 16.9363 43.7006 18.4893C43.7006 20.042 44.9603 21.3018 46.5131 21.3018C48.0658 21.3018 49.3256 20.042 49.3256 18.4893C49.3256 16.9366 48.0658 15.6768 46.5131 15.6768V15.6777ZM34.0021 18.9639C27.3552 18.9639 21.966 24.3531 21.966 31.0002C21.966 37.6473 27.3552 43.034 34.0021 43.034C40.6492 43.034 46.0366 37.6473 46.0366 31.0002C46.0366 24.3534 40.6488 18.9639 34.0016 18.9639H34.0021ZM34.0021 23.1876C38.3167 23.1876 41.8148 26.6852 41.8148 31.0002C41.8148 35.3148 38.3167 38.8129 34.0021 38.8129C29.6873 38.8129 26.1897 35.3148 26.1897 31.0002C26.1897 26.6852 29.6873 23.1876 34.0021 23.1876Z" fill="white"/>
</g>
<defs>
<filter id="filter0_d_472_4846" x="0" y="0" width="68" height="68" filterUnits="userSpaceOnUse" color-interpolation-filters="sRGB">
<feFlood flood-opacity="0" result="BackgroundImageFix"/>
<feColorMatrix in="SourceAlpha" type="matrix" values="0 0 0 0 0 0 0 0 0 0 0 0 0 0 0 0 0 0 127 0" result="hardAlpha"/>
<feOffset dy="3"/>
<feGaussianBlur stdDeviation="2"/>
<feComposite in2="hardAlpha" operator="out"/>
<feColorMatrix type="matrix" values="0 0 0 0 0 0 0 0 0 0 0 0 0 0 0 0 0 0 0.15 0"/>
<feBlend mode="normal" in2="BackgroundImageFix" result="effect1_dropShadow_472_4846"/>
<feBlend mode="normal" in="SourceGraphic" in2="effect1_dropShadow_472_4846" result="shape"/>
</filter>
<radialGradient id="paint0_radial_472_4846" cx="0" cy="0" r="1" gradientUnits="userSpaceOnUse" gradientTransform="translate(19.9375 65.6212) rotate(-90) scale(59.4645 55.3066)">
<stop stop-color="#FFDD55"/>
<stop offset="0.1" stop-color="#FFDD55"/>
<stop offset="0.5" stop-color="#FF543E"/>
<stop offset="1" stop-color="#C837AB"/>
</radialGradient>
<radialGradient id="paint1_radial_472_4846" cx="0" cy="0" r="1" gradientUnits="userSpaceOnUse" gradientTransform="translate(-6.05023 5.32211) rotate(78.681) scale(26.5809 109.567)">
<stop stop-color="#3771C8"/>
<stop offset="0.128" stop-color="#3771C8"/>
<stop offset="1" stop-color="#6600FF" stop-opacity="0"/>
</radialGradient>
</defs>
</svg>
