<svg width="13" height="19" viewBox="0 0 13 19" fill="none" xmlns="http://www.w3.org/2000/svg">
<path id="left" fill-rule="evenodd" clip-rule="evenodd" d="M11.871 16.1237L2.92051 9.20446L11.871 2.28526C11.9885 2.19439 12.0895 2.07757 12.1681 1.94147C12.2467 1.80536 12.3014 1.65263 12.3291 1.49201C12.3568 1.33138 12.357 1.166 12.3295 1.00531C12.3021 0.844612 12.2477 0.691753 12.1693 0.555457C12.091 0.41916 11.9902 0.302096 11.8729 0.210946C11.7555 0.119797 11.6238 0.0563487 11.4853 0.0242234C11.3467 -0.00790199 11.2041 -0.0080753 11.0655 0.023714C10.927 0.0555032 10.7951 0.118632 10.6776 0.209497L0.531329 8.0531C0.367884 8.17948 0.233871 8.35069 0.141183 8.55154C0.0484956 8.75239 0 8.97666 0 9.20446C0 9.43226 0.0484956 9.65653 0.141183 9.85738C0.233871 10.0582 0.367884 10.2294 0.531329 10.3558L10.6776 18.1994C10.7951 18.2903 10.927 18.3534 11.0655 18.3852C11.2041 18.417 11.3467 18.4168 11.4853 18.3847C11.6238 18.3526 11.7555 18.2891 11.8729 18.198C11.9902 18.1068 12.091 17.9898 12.1693 17.8535C12.2477 17.7172 12.3021 17.5643 12.3295 17.4036C12.357 17.2429 12.3568 17.0775 12.3291 16.9169C12.3014 16.7563 12.2467 16.6036 12.1681 16.4675C12.0895 16.3313 11.9885 16.2145 11.871 16.1237Z" fill="#FF9400"/>
</svg>
