<svg width="68" height="68" viewBox="0 0 68 68" fill="none" xmlns="http://www.w3.org/2000/svg">
<g id="linkedin icon" filter="url(#filter0_d_472_4850)">
<path id="Vector" d="M59.5733 1.00023H8.4262C7.2657 0.988417 6.14792 1.43746 5.31812 2.24882C4.48831 3.06019 4.01427 4.1676 4 5.32806V56.6818C4.01685 57.8405 4.49203 58.9454 5.32155 59.7547C6.15107 60.5639 7.26738 61.0116 8.4262 60.9998H59.5733C60.7339 61.009 61.8509 60.5584 62.6803 59.7465C63.5097 58.9347 63.984 57.8275 63.9995 56.667V5.31331C63.9788 4.15625 63.5023 3.05411 62.6735 2.24648C61.8447 1.43884 60.7306 0.990971 59.5733 1.00023Z" fill="#0076B2"/>
<path id="Vector_2" d="M12.882 23.4907H21.7885V52.1479H12.882V23.4907ZM17.3377 9.22852C18.3593 9.22852 19.3578 9.5315 20.2071 10.0991C21.0564 10.6668 21.7183 11.4735 22.109 12.4174C22.4997 13.3613 22.6017 14.3998 22.402 15.4016C22.2024 16.4035 21.7101 17.3236 20.9874 18.0456C20.2647 18.7676 19.3442 19.259 18.3421 19.4577C17.3401 19.6564 16.3017 19.5534 15.3582 19.1618C14.4147 18.7702 13.6085 18.1076 13.0417 17.2577C12.4749 16.4079 12.1729 15.409 12.1738 14.3875C12.1751 13.0188 12.7198 11.7066 13.688 10.7392C14.6563 9.77189 15.969 9.22852 17.3377 9.22852ZM27.3754 23.4907H35.913V27.4251H36.031C37.2212 25.1727 40.1228 22.7973 44.4556 22.7973C53.4752 22.7776 55.1473 28.7136 55.1473 36.4103V52.1479H46.2408V38.2053C46.2408 34.8857 46.1818 30.612 41.613 30.612C37.0441 30.612 36.2671 34.2316 36.2671 37.989V52.1479H27.3754V23.4907Z" fill="white"/>
</g>
<defs>
<filter id="filter0_d_472_4850" x="0" y="0" width="67.9995" height="68" filterUnits="userSpaceOnUse" color-interpolation-filters="sRGB">
<feFlood flood-opacity="0" result="BackgroundImageFix"/>
<feColorMatrix in="SourceAlpha" type="matrix" values="0 0 0 0 0 0 0 0 0 0 0 0 0 0 0 0 0 0 127 0" result="hardAlpha"/>
<feOffset dy="3"/>
<feGaussianBlur stdDeviation="2"/>
<feComposite in2="hardAlpha" operator="out"/>
<feColorMatrix type="matrix" values="0 0 0 0 0 0 0 0 0 0 0 0 0 0 0 0 0 0 0.15 0"/>
<feBlend mode="normal" in2="BackgroundImageFix" result="effect1_dropShadow_472_4850"/>
<feBlend mode="normal" in="SourceGraphic" in2="effect1_dropShadow_472_4850" result="shape"/>
</filter>
</defs>
</svg>
