<svg width="76" height="189" viewBox="0 0 76 189" fill="none" xmlns="http://www.w3.org/2000/svg">
<g id="man">
<path id="Vector" d="M36.7764 183.519L32.1284 183.519L29.9176 165.591L36.7773 165.591L36.7764 183.519Z" fill="#FFB6B6"/>
<path id="Vector_2" d="M36.9397 188.368L22.6468 188.367V188.186C22.6469 186.711 23.2331 185.296 24.2764 184.253C25.3196 183.209 26.7346 182.623 28.21 182.623L30.8211 180.643L35.6923 182.624L36.9399 182.624L36.9397 188.368Z" fill="#2F2E41"/>
<path id="Vector_3" d="M34.1613 164.741L37.9396 167.448L50.1792 154.163L44.6029 150.168L34.1613 164.741Z" fill="#FFB6B6"/>
<path id="Vector_4" d="M31.2042 168.587L42.8224 176.912L42.9277 176.765C43.787 175.566 44.1348 174.074 43.8944 172.618C43.6541 171.163 42.8453 169.862 41.6461 169.003L41.6458 169.003L40.6774 165.872L35.564 164.645L34.5498 163.918L31.2042 168.587Z" fill="#2F2E41"/>
<path id="Vector_5" d="M51.5888 81.5337C51.5888 81.5337 80.4049 112.54 75.4207 121.629C70.4365 130.717 46.3953 161.795 46.3953 161.795L39.8043 154.227C45.3437 141.083 51.304 129.596 58.2574 122.016L38.1086 107.131C38.1086 107.131 36.626 131.77 37.8458 135.642C39.0656 139.513 41.1179 137.461 39.0656 139.513C37.0133 141.565 35.978 141.942 37.082 143.22C38.186 144.497 38.9801 173.601 38.9801 173.601H29.4989C29.4989 173.601 20.6512 119.983 21.2094 118.021C21.7676 116.058 21.4474 116.958 21.4609 114.456C21.4744 111.953 17.4284 91.4549 17.4284 91.4549L51.5888 81.5337Z" fill="#2F2E41"/>
<path id="Vector_6" d="M32.0291 23.4897L41.1179 24.0761L47.0819 31.7146L57.0054 39.2766L50.7092 58.4388C50.7092 58.4388 51.0193 68.2318 52.0789 69.4623C53.1385 70.6927 54.8976 69.2268 53.1385 71.8655C52.066 73.5375 51.4588 75.4653 51.3794 77.4502C51.3794 77.4502 61.4032 85.7918 57.8295 87.9907C54.2557 90.1896 47.0373 84.4725 43.3446 87.8441C39.6519 91.2158 15.1214 98.0053 15.0243 93.2681C14.9272 88.5309 21.1494 51.5408 21.1494 51.5408L19.7153 33.7513L27.9245 28.1807L32.0291 23.4897Z" fill="#FF9400"/>
<path id="Vector_7" d="M46.4154 98.233L49.4961 88.959L55.0396 89.9797L51.4335 99.6689C51.6527 100.237 51.7092 100.854 51.5967 101.452C51.4842 102.05 51.2071 102.605 50.7965 103.054C50.3859 103.504 49.8582 103.829 49.2726 103.995C48.6871 104.161 48.0669 104.16 47.4818 103.993C46.8967 103.825 46.3699 103.498 45.9606 103.047C45.5514 102.597 45.2758 102.041 45.165 101.443C45.0542 100.845 45.1126 100.227 45.3334 99.6601C45.5543 99.0931 45.929 98.5988 46.4154 98.233Z" fill="#FFB6B6"/>
<path id="Vector_8" d="M54.6127 37.7842L54.7589 37.8451C56.1181 38.4119 57.3187 39.3014 58.2567 40.4367C59.1947 41.572 59.8419 42.9188 60.1421 44.3606C60.9279 48.1214 61.701 53.561 61.0897 58.6546C60.0103 67.6505 62.2224 71.6086 60.7831 74.4873C59.3437 77.366 58.9839 76.2865 59.3438 78.4455C59.7036 80.6045 61.5028 78.8053 59.7036 81.684C57.9044 84.5627 56.8249 83.843 57.5446 85.2823C58.2642 86.7217 59.3438 86.7217 57.9044 88.5209C56.4651 90.32 56.4651 91.0397 56.1052 91.7594C55.7454 92.479 54.6659 97.8766 54.6659 97.8766C54.6659 97.8766 48.9086 96.0774 45.6701 96.797C45.6701 96.797 48.5487 91.7593 47.8291 90.6799C47.1094 89.6004 46.0299 89.2405 47.1094 88.161C48.1889 87.0815 49.9881 87.4413 48.1889 86.3618C46.3897 85.2823 47.8611 63.3632 47.8611 63.3632L54.6127 37.7842Z" fill="#FF9400"/>
<path id="Vector_9" d="M6.90447 87.4736L9.00732 77.9302L3.72316 75.9683L1.85891 86.1373C1.37989 86.5126 1.01506 87.0142 0.805447 87.5855C0.595835 88.1569 0.549743 88.7753 0.67236 89.3714C0.794979 89.9675 1.08145 90.5176 1.49955 90.9598C1.91765 91.402 2.45081 91.7188 3.0391 91.8746C3.62739 92.0304 4.24747 92.0191 4.82965 91.8418C5.41183 91.6645 5.93302 91.3283 6.33462 90.8711C6.73622 90.4138 7.00231 89.8536 7.10298 89.2534C7.20365 88.6532 7.1349 88.0369 6.90447 87.4736Z" fill="#FFB6B6"/>
<path id="Vector_10" d="M28.2998 29.8522L28.1431 29.8297C26.6854 29.6205 25.1986 29.7698 23.8115 30.2646C22.4245 30.7594 21.1789 31.5848 20.1827 32.6694C17.582 35.4974 14.1324 39.7738 12.0491 44.4618C8.36972 52.7415 6.96097 56.5098 6.72317 59.7195C6.48536 62.9292 7.34721 62.1862 5.93255 63.8564C4.51788 65.5266 3.89381 63.0599 3.96508 66.4538C4.03636 69.8477 5.3321 69.7824 3.9769 70.6502C2.62169 71.5179 1.69448 70.9651 2.00945 73.2476C2.32442 75.53 1.95588 76.1481 1.89643 76.9506C1.83698 77.753 0.000242233 82.9419 0.000242233 82.9419C0.000242233 82.9419 5.86678 84.3447 8.27992 86.6213C8.27992 86.6213 8.387 80.8201 9.55795 80.2614C10.7289 79.7027 11.8404 79.9464 11.466 78.4664C11.0915 76.9864 9.36187 76.3741 11.46 76.3682C13.5582 76.3623 26.1655 49.2899 26.1655 49.2899L28.2998 29.8522Z" fill="#FF9400"/>
<path id="Vector_11" d="M37.0971 22.5475C31.8128 22.5475 27.5291 18.2638 27.5291 12.9796C27.5291 7.69534 31.8128 3.41162 37.0971 3.41162C42.3813 3.41162 46.665 7.69534 46.665 12.9796C46.665 18.2638 42.3813 22.5475 37.0971 22.5475Z" fill="#FFB6B6"/>
<path id="Vector_12" d="M25.9442 9.87073C26.927 10.3188 27.5638 13.5644 28.3362 12.8098C29.1086 12.0553 29.0571 11.0734 30.0985 10.795C30.9395 10.5692 31.8445 10.8272 32.6116 11.2343C32.7486 11.3061 32.8814 11.3842 33.0108 11.4619C33.0962 11.4048 33.1812 11.3511 33.2725 11.3015C33.9587 10.9343 34.7595 10.8443 35.5101 11.0499C34.917 11.2485 34.4013 11.6286 34.0361 12.1363C34.2928 12.3084 34.5528 12.4809 34.8188 12.6337C37.041 13.9161 40.203 11.1276 42.542 10.0801C41.0769 12.8294 41.7984 13.9681 43.0705 16.8115L43.1144 16.9734C43.0421 16.2608 45.2474 15.7297 45.1195 16.7328C44.8961 17.7489 44.5423 18.7318 44.067 19.6572C46.5263 16.8136 48.2068 13.3339 47.8522 9.74425C47.775 8.99018 47.7983 8.19455 47.4093 7.54007C47.02 6.88895 46.2083 6.43204 45.4902 6.68033C45.551 5.53556 45.3005 4.39569 44.7653 3.38192C44.23 2.36815 43.4301 1.51836 42.4505 0.922898C41.4709 0.327437 40.3482 0.00856096 39.2019 0.000169985C38.0555 -0.00822099 36.9283 0.294186 35.9401 0.875244C35.0218 1.41406 34.2552 2.17612 33.4136 2.83346C32.572 3.49079 31.6018 4.06377 30.5346 4.11803C29.8576 4.15068 29.1208 3.9854 28.5392 4.33604C27.8654 4.74291 27.7501 5.59477 27.649 6.41447C28.2499 6.47371 28.8196 6.71078 29.2851 7.09538C28.6633 7.03196 28.0374 7.16622 27.4963 7.47907C27.486 7.48372 27.4762 7.48929 27.467 7.49572C27.1108 8.85041 27.1473 9.15074 25.9442 9.87073Z" fill="#2F2E41"/>
</g>
</svg>
