<svg width="31" height="30" viewBox="0 0 31 30" fill="none" xmlns="http://www.w3.org/2000/svg">
<path id="Vector" d="M25.3441 3.53027L30.0507 21.0928C30.2125 21.6969 30.2538 22.327 30.1721 22.947C30.0904 23.567 29.8874 24.1649 29.5746 24.7065C29.2619 25.2481 28.8455 25.7228 28.3493 26.1034C27.8531 26.4841 27.2867 26.7633 26.6826 26.925L15.8113 29.8377C14.5914 30.1646 13.2917 29.9936 12.198 29.3623C11.1043 28.731 10.3061 27.6911 9.97902 26.4713L5.27063 8.90708C5.10883 8.30287 5.06765 7.67269 5.14944 7.05256C5.23124 6.43242 5.4344 5.83448 5.74734 5.29288C6.06027 4.75128 6.47683 4.27663 6.97324 3.89606C7.46965 3.51548 8.03617 3.23643 8.64044 3.07485L19.5118 0.16219C20.1159 0.00036013 20.746 -0.0408909 21.366 0.0407925C21.9861 0.122476 22.584 0.325494 23.1255 0.638253C23.6671 0.951013 24.1418 1.36739 24.5224 1.8636C24.9031 2.35982 25.1823 2.92616 25.3441 3.53027ZM14.1956 8.75816C14.1377 8.53756 14.0367 8.33057 13.8986 8.14909C13.7604 7.96761 13.5878 7.8152 13.3906 7.70064C13.1933 7.58607 12.9754 7.51159 12.7493 7.48149C12.5232 7.45138 12.2934 7.46623 12.0731 7.52519C11.8528 7.58415 11.6463 7.68606 11.4654 7.82506C11.2846 7.96406 11.133 8.13741 11.0193 8.33517C10.9057 8.53293 10.8322 8.75118 10.8032 8.97741C10.7741 9.20364 10.7901 9.43337 10.85 9.65343C10.9705 10.0952 11.2609 10.4713 11.6579 10.6994C12.0549 10.9275 12.5261 10.9892 12.9684 10.8708C13.4107 10.7524 13.7881 10.4637 14.0181 10.0678C14.2481 9.6719 14.3119 9.20101 14.1956 8.75816ZM5.25504 15.5411L8.30623 26.9181C8.60629 28.0454 9.20586 29.0704 10.0414 29.8844L9.27423 29.8446C8.01312 29.7784 6.82997 29.2139 5.98499 28.2754C5.14001 27.3369 4.70241 26.1012 4.76844 24.8401L5.25504 15.5411ZM3.65325 12.98L3.03851 24.7483C2.97444 25.9588 3.24631 27.1086 3.77274 28.1077L3.05583 27.8307C2.47195 27.6066 1.93792 27.2697 1.48425 26.8392C1.03057 26.4088 0.666138 25.8931 0.41175 25.3218C0.157361 24.7505 0.0180022 24.1346 0.00163179 23.5094C-0.0147386 22.8842 0.0921995 22.2619 0.31634 21.6781L3.65325 12.98Z" fill="#FF9400" fill-opacity="0.9"/>
</svg>
