<svg width="68" height="68" viewBox="0 0 68 68" fill="none" xmlns="http://www.w3.org/2000/svg">
<g id="reddit icon" filter="url(#filter0_d_472_4829)">
<path id="Vector" d="M34 61C50.5685 61 64 47.5685 64 31C64 14.4315 50.5685 1 34 1C17.4315 1 4 14.4315 4 31C4 47.5685 17.4315 61 34 61Z" fill="#FF4500"/>
<path id="Vector_2" d="M53.957 31.2857C53.957 28.8539 51.9904 26.9224 49.5937 26.9224C48.4615 26.9208 47.3725 27.3565 46.5538 28.1386C43.5496 25.9924 39.4363 24.5979 34.8585 24.419L36.861 15.0485L43.3703 16.443C43.4423 18.0883 44.8009 19.4118 46.4823 19.4118C48.1989 19.4118 49.5937 18.0173 49.5937 16.2998C49.5937 14.5832 48.1991 13.1885 46.4823 13.1885C45.2664 13.1885 44.193 13.9038 43.6923 14.9411L36.4323 13.4032C36.2177 13.3671 36.003 13.4032 35.8598 13.5105C35.6809 13.6179 35.5738 13.7964 35.5384 14.0111L33.3203 24.4544C28.671 24.5979 24.4863 25.9924 21.4464 28.1744C20.6276 27.3924 19.5385 26.9568 18.4063 26.9585C15.9742 26.9585 14.043 28.9251 14.043 31.3218C14.043 33.1099 15.1157 34.6118 16.6183 35.2919C16.5453 35.7292 16.5094 36.1719 16.5109 36.6152C16.5109 43.3385 24.3438 48.8111 34.0002 48.8111C43.657 48.8111 51.4898 43.3746 51.4898 36.6152C51.4895 36.1719 51.4536 35.7294 51.3824 35.2919C52.8843 34.6118 53.957 33.0738 53.957 31.2857ZM23.9856 34.3971C23.9856 32.6805 25.3802 31.2857 27.0977 31.2857C28.8142 31.2857 30.209 32.6803 30.209 34.3971C30.209 36.1139 28.8145 37.5091 27.0977 37.5091C25.3804 37.5443 23.9856 36.1139 23.9856 34.3971ZM41.4037 42.659C39.2577 44.8052 35.1803 44.9484 34.0002 44.9484C32.7843 44.9484 28.7071 44.7691 26.5963 42.659C26.275 42.3372 26.275 41.8364 26.5963 41.5146C26.9184 41.1932 27.419 41.1932 27.741 41.5146C29.1004 42.8739 31.9616 43.3385 34.0002 43.3385C36.0391 43.3385 38.9357 42.8737 40.259 41.5146C40.581 41.1932 41.0816 41.1932 41.4037 41.5146C41.6896 41.8364 41.6896 42.3372 41.4037 42.659ZM40.8311 37.5445C39.1143 37.5445 37.7198 36.15 37.7198 34.4332C37.7198 32.7164 39.1143 31.3218 40.8311 31.3218C42.5484 31.3218 43.9429 32.7164 43.9429 34.4332C43.9429 36.1136 42.5484 37.5445 40.8311 37.5445Z" fill="white"/>
</g>
<defs>
<filter id="filter0_d_472_4829" x="0" y="0" width="68" height="68" filterUnits="userSpaceOnUse" color-interpolation-filters="sRGB">
<feFlood flood-opacity="0" result="BackgroundImageFix"/>
<feColorMatrix in="SourceAlpha" type="matrix" values="0 0 0 0 0 0 0 0 0 0 0 0 0 0 0 0 0 0 127 0" result="hardAlpha"/>
<feOffset dy="3"/>
<feGaussianBlur stdDeviation="2"/>
<feComposite in2="hardAlpha" operator="out"/>
<feColorMatrix type="matrix" values="0 0 0 0 0 0 0 0 0 0 0 0 0 0 0 0 0 0 0.15 0"/>
<feBlend mode="normal" in2="BackgroundImageFix" result="effect1_dropShadow_472_4829"/>
<feBlend mode="normal" in="SourceGraphic" in2="effect1_dropShadow_472_4829" result="shape"/>
</filter>
</defs>
</svg>
