<svg width="13" height="19" viewBox="0 0 13 19" fill="none" xmlns="http://www.w3.org/2000/svg">
<path id="right" fill-rule="evenodd" clip-rule="evenodd" d="M1.12901 16.1237L10.0795 9.20446L1.12901 2.28526C1.01148 2.19439 0.910522 2.07757 0.831916 1.94147C0.75331 1.80536 0.698593 1.65263 0.670889 1.49201C0.643185 1.33138 0.643037 1.166 0.670451 1.00531C0.697865 0.844612 0.752306 0.691753 0.830666 0.555457C0.909025 0.41916 1.00977 0.302096 1.12714 0.210946C1.24452 0.119797 1.37623 0.0563487 1.51475 0.0242234C1.65327 -0.00790199 1.79589 -0.0080753 1.93447 0.023714C2.07305 0.0555032 2.20487 0.118632 2.32241 0.209497L12.4687 8.0531C12.6321 8.17948 12.7661 8.35069 12.8588 8.55154C12.9515 8.75239 13 8.97666 13 9.20446C13 9.43226 12.9515 9.65653 12.8588 9.85738C12.7661 10.0582 12.6321 10.2294 12.4687 10.3558L2.32241 18.1994C2.20487 18.2903 2.07305 18.3534 1.93447 18.3852C1.79589 18.417 1.65327 18.4168 1.51475 18.3847C1.37623 18.3526 1.24452 18.2891 1.12714 18.198C1.00977 18.1068 0.909025 17.9898 0.830666 17.8535C0.752306 17.7172 0.697865 17.5643 0.670451 17.4036C0.643037 17.2429 0.643185 17.0775 0.670889 16.9169C0.698593 16.7563 0.75331 16.6036 0.831916 16.4675C0.910522 16.3313 1.01148 16.2145 1.12901 16.1237Z" fill="#F8F4F2"/>
</svg>
