<svg width="68" height="68" viewBox="0 0 68 68" fill="none" xmlns="http://www.w3.org/2000/svg">
<g id="twitter icon" filter="url(#filter0_d_472_4839)">
<path id="Vector" d="M49.9375 1H18.0625C10.296 1 4 7.296 4 15.0625V46.9375C4 54.704 10.296 61 18.0625 61H49.9375C57.704 61 64 54.704 64 46.9375V15.0625C64 7.296 57.704 1 49.9375 1Z" fill="white"/>
<path id="Vector_2" d="M49.9375 1H18.0625C10.296 1 4 7.296 4 15.0625V46.9375C4 54.704 10.296 61 18.0625 61H49.9375C57.704 61 64 54.704 64 46.9375V15.0625C64 7.296 57.704 1 49.9375 1Z" fill="#1D9BF0"/>
<path id="Vector_3" d="M50.7747 22.4244C50.8005 22.7964 50.8005 23.1683 50.8005 23.5438C50.8005 34.9806 42.0939 48.1708 26.1735 48.1708V48.1637C21.4704 48.1705 16.8646 46.8236 12.9062 44.2837C13.5902 44.3659 14.2773 44.4069 14.9664 44.4086C18.8644 44.4116 22.6503 43.1042 25.7158 40.6963C23.9097 40.6622 22.1594 40.0645 20.7096 38.9868C19.2599 37.9092 18.1831 36.4054 17.6298 34.6858C18.9266 34.9358 20.2634 34.8848 21.5373 34.5367C17.4995 33.7208 14.5945 30.1731 14.5945 26.0528V25.9431C15.7982 26.6136 17.1453 26.9851 18.5226 27.0264C14.7196 24.4846 13.5473 19.4251 15.8437 15.4694C18.0166 18.1433 20.7278 20.3303 23.8011 21.8882C26.8743 23.4461 30.2409 24.34 33.6822 24.512C33.3391 23.0351 33.3898 21.4939 33.8292 20.0427C34.2685 18.5915 35.0813 17.2811 36.186 16.2426C39.6721 12.9655 45.1548 13.1336 48.4319 16.6178C50.3702 16.2351 52.2289 15.5245 53.9282 14.5166C53.282 16.5207 51.9299 18.2218 50.1234 19.3035C51.8391 19.1014 53.5147 18.6421 55.0938 17.9411C53.9322 19.6806 52.4696 21.1987 50.7747 22.4244Z" fill="white"/>
</g>
<defs>
<filter id="filter0_d_472_4839" x="0" y="0" width="68" height="68" filterUnits="userSpaceOnUse" color-interpolation-filters="sRGB">
<feFlood flood-opacity="0" result="BackgroundImageFix"/>
<feColorMatrix in="SourceAlpha" type="matrix" values="0 0 0 0 0 0 0 0 0 0 0 0 0 0 0 0 0 0 127 0" result="hardAlpha"/>
<feOffset dy="3"/>
<feGaussianBlur stdDeviation="2"/>
<feComposite in2="hardAlpha" operator="out"/>
<feColorMatrix type="matrix" values="0 0 0 0 0 0 0 0 0 0 0 0 0 0 0 0 0 0 0.15 0"/>
<feBlend mode="normal" in2="BackgroundImageFix" result="effect1_dropShadow_472_4839"/>
<feBlend mode="normal" in="SourceGraphic" in2="effect1_dropShadow_472_4839" result="shape"/>
</filter>
</defs>
</svg>
