<svg width="30" height="30" viewBox="0 0 30 30" fill="none" xmlns="http://www.w3.org/2000/svg">
<path d="M26.5 11.7614L24.6667 10.9091L26.5 10.0568L27.3333 8.18182L28.1667 10.0568L30 10.9091L28.1667 11.7614L27.3333 13.6364L26.5 11.7614ZM22.0667 5.38636L19.3333 4.09091L22.0667 2.79545L23.3333 0L24.6 2.79545L27.3333 4.09091L24.6 5.38636L23.3333 8.18182L22.0667 5.38636ZM10 30C9.26667 30 8.63867 29.7327 8.116 29.1982C7.59333 28.6636 7.33245 28.0218 7.33333 27.2727H12.6667C12.6667 28.0227 12.4053 28.665 11.8827 29.1995C11.36 29.7341 10.7324 30.0009 10 30ZM6 25.9091C5.62222 25.9091 5.30533 25.7782 5.04933 25.5164C4.79333 25.2545 4.66578 24.9309 4.66667 24.5455C4.66667 24.1591 4.79467 23.835 5.05067 23.5732C5.30667 23.3114 5.62311 23.1809 6 23.1818H14C14.3778 23.1818 14.6947 23.3127 14.9507 23.5745C15.2067 23.8364 15.3342 24.16 15.3333 24.5455C15.3333 24.9318 15.2053 25.2559 14.9493 25.5177C14.6933 25.7795 14.3769 25.91 14 25.9091H6ZM5 21.8182C3.46667 20.8864 2.24978 19.6364 1.34933 18.0682C0.44889 16.5 -0.000887574 14.7955 1.31492e-06 12.9545C1.31492e-06 10.1136 0.972446 7.69864 2.91733 5.70954C4.86222 3.72045 7.22311 2.72636 10 2.72727C12.7778 2.72727 15.1391 3.72182 17.084 5.71091C19.0289 7.7 20.0009 10.1145 20 12.9545C20 14.7955 19.5502 16.5 18.6507 18.0682C17.7511 19.6364 16.5342 20.8864 15 21.8182H5Z" fill="#FF9400" fill-opacity="0.9"/>
</svg>
