<svg width="562" height="407" viewBox="0 0 562 407" fill="none" xmlns="http://www.w3.org/2000/svg">
<path d="M76.411 344.324H29.6243C27.1536 344.321 24.7849 343.343 23.0386 341.604C21.2924 339.864 20.3115 337.506 20.3115 335.047C20.3115 332.589 21.2927 330.231 23.0392 328.493C24.7856 326.755 27.1544 325.778 29.6243 325.778H76.411C78.8817 325.778 81.2513 326.755 82.9991 328.492C84.747 330.23 85.73 332.588 85.7323 335.047C85.7323 336.265 85.4912 337.471 85.0228 338.597C84.5543 339.722 83.8677 340.745 83.0022 341.607C82.1366 342.468 81.109 343.151 79.9781 343.618C78.8472 344.084 77.6351 344.324 76.411 344.324Z" stroke="#DDDDDD" stroke-miterlimit="10"/>
<path d="M196.962 142.262H171.502C164.791 142.262 159.351 147.677 159.351 154.356V154.364C159.351 161.043 164.791 166.457 171.502 166.457H196.962C203.673 166.457 209.113 161.043 209.113 154.364V154.356C209.113 147.677 203.673 142.262 196.962 142.262Z" stroke="#DDDDDD" stroke-miterlimit="10"/>
<path d="M292.251 43.954H245.464C242.994 43.954 240.625 42.9775 238.879 41.2394C237.133 39.5012 236.151 37.1438 236.151 34.6856C236.15 33.4678 236.39 32.2616 236.858 31.1362C237.325 30.0107 238.011 28.9879 238.876 28.1264C239.741 27.2648 240.768 26.5813 241.898 26.115C243.029 25.6487 244.24 25.4087 245.464 25.4087H292.251C293.476 25.4076 294.689 25.6467 295.821 26.1124C296.952 26.5781 297.981 27.2613 298.848 28.1228C299.714 28.9844 300.401 30.0074 300.87 31.1335C301.339 32.2596 301.581 33.4667 301.581 34.6856C301.58 35.9039 301.337 37.11 300.868 38.2351C300.398 39.3602 299.711 40.3823 298.845 41.2429C297.978 42.1036 296.95 42.786 295.819 43.2511C294.687 43.7163 293.475 43.9552 292.251 43.954Z" stroke="#DDDDDD" stroke-miterlimit="10"/>
<path d="M437.276 296.557H399.545C398.423 296.557 397.348 296.114 396.555 295.325C395.762 294.536 395.317 293.465 395.317 292.35C395.317 291.234 395.762 290.163 396.555 289.374C397.348 288.585 398.423 288.142 399.545 288.142H437.276C438.397 288.142 439.472 288.585 440.265 289.374C441.058 290.163 441.503 291.234 441.503 292.35C441.503 293.465 441.058 294.536 440.265 295.325C439.472 296.114 438.397 296.557 437.276 296.557Z" stroke="#DDDDDD" stroke-miterlimit="10"/>
<path d="M125.959 78.1093H88.2278C87.1066 78.1093 86.0313 77.666 85.2385 76.877C84.4456 76.0879 84.0002 75.0177 84.0002 73.9018C84.0002 73.3493 84.1096 72.8022 84.3221 72.2917C84.5345 71.7812 84.8459 71.3174 85.2385 70.9267C85.631 70.536 86.0971 70.2261 86.61 70.0146C87.1229 69.8032 87.6727 69.6943 88.2278 69.6943H125.959C126.514 69.6943 127.064 69.8032 127.577 70.0146C128.09 70.2261 128.556 70.536 128.948 70.9267C129.341 71.3174 129.652 71.7812 129.865 72.2917C130.077 72.8022 130.187 73.3493 130.187 73.9018C130.187 75.0177 129.741 76.0879 128.948 76.877C128.156 77.666 127.08 78.1093 125.959 78.1093Z" stroke="#DDDDDD" stroke-miterlimit="10"/>
<path d="M498.675 11.2931C510.131 16.7466 517.686 10.4397 524.324 7.28192C527.116 5.9423 530.289 5.60991 533.3 6.34161C536.311 7.07331 538.973 8.82363 540.831 11.2931L540.316 35.8552C540.316 35.8552 530.944 32.5439 525.61 35.8552C520.276 39.1666 513.896 47.3255 498.658 36.3076L498.675 11.2931Z" fill="#EDEDED" stroke="#DDDDDD" stroke-width="2" stroke-linecap="round" stroke-linejoin="round"/>
<path d="M542.778 113.203C542.144 113.203 541.537 112.953 541.089 112.508C540.64 112.064 540.387 111.46 540.385 110.83V6.88919C540.385 6.5769 540.447 6.26768 540.567 5.97927C540.688 5.69086 540.864 5.42893 541.086 5.2085C541.309 4.98808 541.572 4.8135 541.863 4.69477C542.153 4.57604 542.464 4.51549 542.778 4.51662C543.091 4.51549 543.402 4.57604 543.692 4.69477C543.983 4.8135 544.247 4.98808 544.469 5.2085C544.691 5.42893 544.867 5.69086 544.988 5.97927C545.108 6.26768 545.17 6.5769 545.17 6.88919V110.83C545.168 111.46 544.915 112.064 544.466 112.508C544.018 112.953 543.411 113.203 542.778 113.203Z" fill="#F9F9F9" stroke="#EDEDED" stroke-width="2" stroke-linecap="round" stroke-linejoin="round"/>
<path d="M524.744 113.988H561" stroke="#DDDDDD" stroke-width="2" stroke-linecap="round" stroke-linejoin="round"/>
<path d="M496.583 154.356H482.013V185.182H444.934V220.754" stroke="#DDDDDD" stroke-width="2" stroke-linecap="round" stroke-linejoin="round"/>
<path d="M206.086 354.702H168.998V385.29H113.868V405.354H1" stroke="#DDDDDD" stroke-width="2" stroke-linecap="round" stroke-linejoin="round"/>
<path d="M352.552 250.659V276.117H306.023V303.547H259.605V331.045H213.307V354.702" stroke="#EDEDED" stroke-width="2" stroke-linecap="round" stroke-linejoin="round"/>
<path d="M434.446 221.291H395.626V250.658H366.298" stroke="#DDDDDD" stroke-width="2" stroke-linecap="round" stroke-linejoin="round"/>
<path d="M76.411 344.324H29.6243C27.1536 344.321 24.7849 343.343 23.0386 341.604C21.2924 339.864 20.3115 337.506 20.3115 335.047C20.3115 332.589 21.2927 330.231 23.0392 328.493C24.7856 326.755 27.1544 325.778 29.6243 325.778H76.411C78.8817 325.778 81.2513 326.755 82.9991 328.492C84.747 330.23 85.73 332.588 85.7323 335.047C85.7323 336.265 85.4912 337.471 85.0228 338.597C84.5543 339.722 83.8677 340.745 83.0022 341.607C82.1366 342.468 81.109 343.151 79.9781 343.618C78.8472 344.084 77.6351 344.324 76.411 344.324Z" stroke="#DDDDDD" stroke-width="2" stroke-miterlimit="10"/>
<path d="M196.962 142.262H171.502C164.791 142.262 159.351 147.677 159.351 154.356V154.364C159.351 161.043 164.791 166.457 171.502 166.457H196.962C203.673 166.457 209.113 161.043 209.113 154.364V154.356C209.113 147.677 203.673 142.262 196.962 142.262Z" stroke="#DDDDDD" stroke-width="2" stroke-miterlimit="10"/>
<path d="M292.251 43.954H245.464C242.994 43.954 240.625 42.9775 238.879 41.2394C237.133 39.5012 236.151 37.1438 236.151 34.6856C236.15 33.4678 236.39 32.2616 236.858 31.1362C237.325 30.0107 238.011 28.9879 238.876 28.1264C239.741 27.2648 240.768 26.5813 241.898 26.115C243.029 25.6487 244.24 25.4087 245.464 25.4087H292.251C293.476 25.4076 294.689 25.6467 295.821 26.1124C296.952 26.5781 297.981 27.2613 298.848 28.1228C299.714 28.9844 300.401 30.0074 300.87 31.1335C301.339 32.2596 301.581 33.4667 301.581 34.6856C301.58 35.9039 301.337 37.11 300.868 38.2351C300.398 39.3602 299.711 40.3823 298.845 41.2429C297.978 42.1036 296.95 42.786 295.819 43.2511C294.687 43.7163 293.475 43.9552 292.251 43.954Z" stroke="#DDDDDD" stroke-width="2" stroke-miterlimit="10"/>
<path d="M437.276 296.557H399.545C398.423 296.557 397.348 296.114 396.555 295.325C395.762 294.536 395.317 293.465 395.317 292.35C395.317 291.234 395.762 290.163 396.555 289.374C397.348 288.585 398.423 288.142 399.545 288.142H437.276C438.397 288.142 439.472 288.585 440.265 289.374C441.058 290.163 441.503 291.234 441.503 292.35C441.503 293.465 441.058 294.536 440.265 295.325C439.472 296.114 438.397 296.557 437.276 296.557Z" stroke="#DDDDDD" stroke-miterlimit="10"/>
<path d="M125.959 78.1093H88.2278C87.1066 78.1093 86.0313 77.666 85.2385 76.877C84.4456 76.0879 84.0002 75.0177 84.0002 73.9018C84.0002 73.3493 84.1096 72.8022 84.3221 72.2917C84.5345 71.7812 84.8459 71.3174 85.2385 70.9267C85.631 70.536 86.0971 70.2261 86.61 70.0146C87.1229 69.8032 87.6727 69.6943 88.2278 69.6943H125.959C126.514 69.6943 127.064 69.8032 127.577 70.0146C128.09 70.2261 128.556 70.536 128.948 70.9267C129.341 71.3174 129.652 71.7812 129.865 72.2917C130.077 72.8022 130.187 73.3493 130.187 73.9018C130.187 75.0177 129.741 76.0879 128.948 76.877C128.156 77.666 127.08 78.1093 125.959 78.1093Z" stroke="#DDDDDD" stroke-width="2" stroke-miterlimit="10"/>
<path d="M498.675 11.2931C510.131 16.7466 517.686 10.4397 524.324 7.28192C527.116 5.9423 530.289 5.60991 533.3 6.34161C536.311 7.07331 538.973 8.82363 540.831 11.2931L540.316 35.8552C540.316 35.8552 530.944 32.5439 525.61 35.8552C520.276 39.1666 513.896 47.3255 498.658 36.3076L498.675 11.2931Z" fill="#EDEDED" stroke="#DDDDDD" stroke-width="2" stroke-linecap="round" stroke-linejoin="round"/>
<path d="M542.778 113.203C542.144 113.203 541.537 112.953 541.089 112.508C540.64 112.064 540.387 111.46 540.385 110.83V6.88919C540.385 6.5769 540.447 6.26768 540.567 5.97927C540.688 5.69086 540.864 5.42893 541.086 5.2085C541.309 4.98808 541.572 4.8135 541.863 4.69477C542.153 4.57604 542.464 4.51549 542.778 4.51662C543.091 4.51549 543.402 4.57604 543.692 4.69477C543.983 4.8135 544.247 4.98808 544.469 5.2085C544.691 5.42893 544.867 5.69086 544.988 5.97927C545.108 6.26768 545.17 6.5769 545.17 6.88919V110.83C545.168 111.46 544.915 112.064 544.466 112.508C544.018 112.953 543.411 113.203 542.778 113.203Z" fill="#F9F9F9" stroke="#EDEDED" stroke-width="2" stroke-linecap="round" stroke-linejoin="round"/>
<path d="M524.744 113.988H561" stroke="#DDDDDD" stroke-width="2" stroke-linecap="round" stroke-linejoin="round"/>
<path d="M496.583 154.356H482.013V185.182H444.934V220.754" stroke="#DDDDDD" stroke-width="2" stroke-linecap="round" stroke-linejoin="round"/>
<path d="M206.086 354.702H168.998V385.29H113.868V405.354H1" stroke="#DDDDDD" stroke-width="2" stroke-linecap="round" stroke-linejoin="round"/>
<path d="M352.552 250.659V276.117H306.023V303.547H259.605V331.045H213.307V354.702" stroke="#DDDDDD" stroke-width="2" stroke-linecap="round" stroke-linejoin="round"/>
<path d="M434.446 221.291H395.626V250.658H366.298" stroke="#DDDDDD" stroke-width="2" stroke-linecap="round" stroke-linejoin="round"/>
<path d="M416.172 26.6125C416.172 26.6125 416.001 27.0051 415.692 27.6708C415.383 28.3365 415.083 28.9254 414.637 29.7618C414.337 30.3421 414.002 30.9651 413.625 31.6223C413.402 32.0234 413.162 32.4757 412.905 32.8598L412.656 33.2609C412.09 34.1911 411.464 35.1555 410.778 36.1028C410.298 36.7685 409.792 37.4342 409.26 38.0743C405.093 43.1011 401.594 40.9931 401.594 40.9931C400.617 41.8389 399.806 42.8574 399.202 43.9972C398.355 45.5584 397.742 47.2348 397.384 48.9728C387.548 56.1076 381.305 46.7026 384.229 38.3389C388.208 34.6091 391.757 30.45 394.811 25.9383C391.638 21.7394 396.921 18.0781 399.347 20.4848L404.604 18.061C415.683 15.1422 416.172 26.6125 416.172 26.6125Z" fill="#FEBD9D"/>
<path d="M396.226 21.543C397.615 21.543 398.799 22.1062 398.533 24.2313" stroke="#EF8A66" stroke-width="0.75" stroke-linecap="round" stroke-linejoin="round"/>
<path d="M397.624 25.2384C395.609 23.9923 397.375 22.3537 398.481 23.3864" stroke="#EF8A66" stroke-width="0.75" stroke-linecap="round" stroke-linejoin="round"/>
<path d="M407.485 35.8551C406.036 35.4028 405.41 33.5764 405.77 31.9976C401.911 34.6774 404.793 37.8522 407.485 35.8551Z" fill="white" stroke="#EF8A66" stroke-width="0.75" stroke-linecap="round" stroke-linejoin="round"/>
<path d="M408.48 33.6282C409.783 33.6282 410.924 33.8501 411.233 31.4007C411.309 30.7032 411.554 30.0346 411.947 29.452C412.34 28.8694 412.869 28.3901 413.488 28.0552" stroke="#EF8A66" stroke-width="0.75" stroke-linecap="round" stroke-linejoin="round"/>
<path d="M394.811 25.938C395.284 26.5974 395.948 27.0976 396.715 27.3718" stroke="#EF8A66" stroke-width="0.75" stroke-linecap="round" stroke-linejoin="round"/>
<path d="M408.377 29.079C408.377 29.2478 408.428 29.4128 408.522 29.5532C408.616 29.6935 408.75 29.8029 408.907 29.8675C409.063 29.9321 409.236 29.949 409.402 29.9161C409.568 29.8831 409.721 29.8019 409.841 29.6825C409.961 29.5632 410.043 29.4111 410.076 29.2455C410.109 29.08 410.092 28.9084 410.027 28.7524C409.962 28.5965 409.852 28.4632 409.711 28.3694C409.57 28.2756 409.404 28.2256 409.235 28.2256C409.007 28.2256 408.789 28.3155 408.628 28.4756C408.468 28.6356 408.377 28.8527 408.377 29.079Z" fill="#683F1D"/>
<path d="M413.625 31.639C413.402 32.0401 413.162 32.4924 412.905 32.8764H412.845C412.617 32.8764 412.399 32.7865 412.238 32.6265C412.078 32.4664 411.987 32.2493 411.987 32.023C411.987 31.7967 412.078 31.5796 412.238 31.4195C412.399 31.2595 412.617 31.1696 412.845 31.1696C413.006 31.1668 413.165 31.2094 413.303 31.2925C413.441 31.3755 413.553 31.4956 413.625 31.639Z" fill="#683F1D"/>
<path d="M421.257 25.8015C421.189 27.1926 419.902 28.5837 417.733 28.6178C415.718 28.6178 414.234 26.3562 414.568 24.1287C414.568 24.1287 411.138 24.9224 410.564 20.476C410.564 20.476 407.768 22.7461 406.276 19.0593C404.587 20.5444 403.043 22.1845 401.663 23.958C399.948 26.3477 399.09 26.0148 399.039 24.9992C398.987 23.9836 400.059 22.3023 400.188 22.0975C400.069 21.4872 399.77 20.9259 399.33 20.4845C400.947 18.2146 402.703 16.0456 404.587 13.9898C407.871 10.3627 411.018 10.6272 410.512 13.3753C413.891 11.2929 418.59 13.9813 416.369 18.1546C419.499 17.3012 422.912 21.0563 419.636 23.335C420.129 23.5299 420.549 23.8714 420.839 24.3129C421.129 24.7544 421.275 25.2743 421.257 25.8015Z" fill="#604730"/>
<path d="M408.051 24.8115C407.64 26.049 411.481 27.3719 412.056 26.0917C412.631 24.8115 408.574 23.1985 408.051 24.8115Z" fill="#604730"/>
<path d="M415.692 27.6704C415.435 28.2081 415.083 28.925 414.637 29.7614C413.874 28.9079 413.171 27.7814 413.419 27.3461C413.814 26.6548 414.886 27.1413 415.692 27.6704Z" fill="#604730"/>
<path d="M401.594 41.0269C400.617 41.8726 399.806 42.8912 399.202 44.031C394.228 40.3014 397.392 36.0513 397.392 36.0513C398.26 38.0917 399.724 39.8254 401.594 41.0269Z" fill="#F4A789"/>
<path d="M421.257 25.8018C421.189 27.1929 419.902 28.584 417.733 28.6181C415.718 28.6181 414.234 26.3565 414.568 24.129C414.568 24.129 411.138 24.9227 410.564 20.4763C410.564 20.4763 407.768 22.7464 406.276 19.0595C404.587 20.5447 403.043 22.1848 401.663 23.9583C399.948 26.348 399.09 26.0151 399.039 24.9995C398.987 23.9839 400.059 22.3026 400.188 22.0978C401.301 21.4202 402.231 20.4828 402.898 19.3668C405.076 16.1322 407.314 14.1352 409.243 16.5248C411.173 18.9145 413.402 16.5248 414.251 19.418C415.057 22.1917 416.875 26.4674 421.257 25.8018Z" fill="#473526"/>
<path d="M408.772 12.5137C408.883 15.0143 406.662 18.0184 406.662 18.0184" stroke="#896442" stroke-width="0.75" stroke-linecap="round" stroke-linejoin="round"/>
<path d="M411.259 19.5119C411.715 18.6828 412.348 17.9634 413.114 17.4045C413.88 16.8456 414.76 16.4609 415.692 16.2773" stroke="#896442" stroke-width="0.75" stroke-linecap="round" stroke-linejoin="round"/>
<path d="M414.997 23.3779C416.238 22.6242 417.679 22.264 419.131 22.3452" stroke="#896442" stroke-width="0.75" stroke-linecap="round" stroke-linejoin="round"/>
<path d="M401.44 18.8374C401.902 19.0372 402.307 19.3474 402.619 19.7404C402.932 20.1335 403.142 20.5972 403.232 21.0905" stroke="#896442" stroke-width="0.75" stroke-linecap="round" stroke-linejoin="round"/>
<path d="M405.084 30.4188C403.944 30.7346 402.7 29.7958 402.297 28.3364C401.894 26.877 402.495 25.4347 403.635 25.1275C404.776 24.8203 406.028 25.7505 406.422 27.2099C406.817 28.6693 406.199 30.1116 405.084 30.4188Z" fill="#F4AF90"/>
<path d="M412.656 33.2607C412.09 34.191 411.464 35.1554 410.778 36.1027C410.703 35.9497 410.654 35.7853 410.633 35.6163C410.634 35.0483 410.838 34.4993 411.209 34.0677C411.58 33.6361 412.093 33.35 412.656 33.2607Z" fill="#F4AF90"/>
<path d="M429.001 142.203C427.74 153.716 419.148 148.177 407.151 146.589L400.497 146.325L356.24 144.618L352.544 144.473L365.407 108.372C393.851 116.77 430.596 127.54 429.001 142.203Z" fill="#C3DCF8"/>
<path d="M400.496 146.325L356.24 144.618L357.56 134.992L363.606 119.544C363.606 119.544 373.81 118.93 370.706 127.814C367.602 136.698 368.845 142.997 384.967 138.806C394.708 136.255 398.79 141.657 400.496 146.325Z" fill="#A7CAF0"/>
<path d="M376.623 94.7941C369.085 104.566 365.004 125.74 364.06 138.448C363.383 147.597 362.002 171.16 358.546 190.866C346.618 216.325 330.179 204.3 331.105 186.36V186.266C332.709 173.123 331.963 161.875 330.497 157.172C328.507 150.925 323.594 130.101 322.779 121.558C320.944 102.782 325.189 86.7717 331.354 77.6313L376.623 94.7941Z" fill="#C3DCF8"/>
<path d="M363.606 144.883C363.786 142.323 363.94 140.164 364.06 138.482C364.663 131.132 365.85 123.84 367.611 116.677" stroke="#A7CAF0" stroke-width="0.75" stroke-linecap="round" stroke-linejoin="round"/>
<path d="M335.882 91.2183C328.936 137.714 342.296 155.227 340.264 181.274C339.532 188.453 338.21 195.56 336.311 202.524" stroke="#A7CAF0" stroke-width="0.75" stroke-linecap="round" stroke-linejoin="round"/>
<path d="M333.918 113.203C339.003 107.835 341.956 100.811 342.228 93.4375" stroke="#A7CAF0" stroke-width="0.75" stroke-linecap="round" stroke-linejoin="round"/>
<path d="M364.275 101.818C364.275 101.818 362.097 111.804 361.222 114.62C361.222 114.62 364.275 115.106 365.364 113.195C366.453 111.283 368.494 102.953 368.494 102.953" stroke="#A7CAF0" stroke-width="0.75" stroke-linecap="round" stroke-linejoin="round"/>
<path d="M415.006 82.2227L410.633 100.742C409.432 106.862 409.106 111.837 408.429 115.456C407.494 120.508 405.856 123.069 400.359 122.778L400.136 122.719L399.347 122.505L398.824 122.352L398.138 122.121C397.838 122.01 397.547 121.899 397.281 121.78C396.783 121.581 396.297 121.356 395.823 121.106L395.309 120.824C394.547 120.399 393.826 119.905 393.156 119.348C393.024 119.247 392.898 119.138 392.779 119.023C391.786 118.16 390.933 117.149 390.249 116.028C390.058 115.724 389.884 115.411 389.726 115.089C389.309 114.273 388.981 113.414 388.748 112.528C388.706 112.375 388.671 112.23 388.637 112.085C388.603 111.94 388.56 111.743 388.534 111.581C388.508 111.419 388.483 111.291 388.457 111.146C388.337 110.398 388.306 109.639 388.363 108.884C388.654 105.761 392.539 73.5346 392.539 73.5346L393.962 70.0355L395.866 65.3501L415.006 82.2227Z" fill="#FFB63F"/>
<path d="M408.429 115.455C407.494 120.508 405.856 123.068 400.359 122.778L400.119 122.718L399.33 122.505L398.807 122.351L398.121 122.121C397.821 122.01 397.53 121.899 397.264 121.779C396.766 121.58 396.28 121.355 395.806 121.105L395.291 120.824C394.53 120.399 393.809 119.904 393.139 119.347C393.007 119.246 392.881 119.138 392.762 119.023C391.769 118.159 390.916 117.149 390.232 116.027C390.041 115.724 389.867 115.41 389.709 115.088C389.292 114.272 388.964 113.414 388.731 112.528C388.688 112.375 388.654 112.229 388.62 112.084C388.586 111.939 388.543 111.743 388.517 111.581C388.491 111.419 388.466 111.291 388.44 111.146C388.32 110.398 388.289 109.639 388.345 108.884C388.637 105.76 392.522 73.5343 392.522 73.5343L393.945 70.0352C397.024 75.8983 400.668 85.3971 396.423 91.8577C389.889 101.809 390.849 117.956 403.807 115.857C405.335 115.605 406.88 115.471 408.429 115.455Z" fill="#FF9400"/>
<path d="M402.306 67.5517C401.163 68.4393 400.019 69.3951 398.876 70.4193C387.934 80.3107 377.995 96.0226 375.191 97.7295C371.152 100.136 361.685 98.7536 352.604 96.4578C345.77 94.7672 339.074 92.5676 332.572 89.8778C327.075 87.3175 325.712 85.7386 326.629 83.7074C327.547 81.6762 333.009 68.9855 333.009 68.9855L331.663 67.6626L316.768 53.0517C325.592 46.4289 337.142 39.0296 347.75 34.916C354.945 32.1337 361.693 30.8706 366.864 32.3556L402.306 67.5517Z" fill="#FFB63F"/>
<path d="M402.306 67.5516C401.163 68.4392 400.019 69.3951 398.876 70.4192C387.368 70.607 376.392 78.4074 366.693 70.0266C354.688 59.6573 365.552 51.9763 358.118 41.863C355.497 38.5084 351.877 36.0648 347.776 34.8818C354.971 32.0996 361.719 30.8365 366.89 32.3215L402.306 67.5516Z" fill="#FFCB66"/>
<path d="M352.612 96.4411C345.779 94.7504 339.083 92.5509 332.581 89.8611C327.084 87.3007 325.72 85.7219 326.638 83.6907C327.555 81.6595 333.018 68.9687 333.018 68.9687L331.672 67.6459C335.959 63.1568 341.902 56.9266 342.228 56.5511C342.751 55.9367 355.296 60.1015 355.296 60.1015C355.296 60.1015 354.876 74.0723 343.394 75.4037C331.912 76.7351 333.961 85.8328 344.14 87.0703C350.683 87.8469 352.295 92.8993 352.612 96.4411Z" fill="#FF9400"/>
<path d="M317.591 52.4285C299.403 62.9344 314.83 98.8217 354.919 62.9856C359.147 42.8187 336.371 40.284 317.591 52.4285Z" fill="#FF9400"/>
<path d="M402.306 67.5518C398.978 70.1857 395.885 73.1011 393.062 76.2654" stroke="#FF9400" stroke-width="0.75" stroke-linecap="round" stroke-linejoin="round"/>
<path d="M314.444 257.956C314.444 257.956 306.726 267.984 307.823 276.117H344.577C344.577 276.117 328.233 266.61 327.384 259.645L314.444 257.956Z" fill="#683F1D"/>
<path d="M358.915 188.716C358.795 189.45 358.675 190.175 358.546 190.892C357.209 198.573 355.554 205.623 353.504 211.042C346.172 230.415 333.781 260.721 333.781 260.721L310.156 258.767C311.871 254.184 320.446 234.716 328.67 199.819C329.721 195.367 330.52 190.859 331.063 186.318C331.105 185.993 331.14 185.66 331.174 185.336C332.949 174.762 355.442 164.58 358.915 188.716Z" fill="#C3DCF8"/>
<path d="M340.478 175.104C340.478 177.118 340.435 179.166 340.272 181.274C338.231 207.338 317.548 258.366 317.385 259.373" stroke="#A7CAF0" stroke-width="0.75" stroke-linecap="round" stroke-linejoin="round"/>
<path d="M404.313 203.122C404.313 203.122 400.814 213.159 401.869 221.292H434.455C434.455 221.292 418.119 211.785 417.304 204.812L404.313 203.122Z" fill="#683F1D"/>
<path d="M429.275 149.048C426.591 169.035 421.454 205.955 421.454 205.955H400.111L407.151 146.59C407.245 136.254 414.294 125.254 421.497 130.067C431.419 136.741 429.798 145.147 429.275 149.048Z" fill="#C3DCF8"/>
<path d="M445.868 123.999C445.868 123.999 437.293 124.306 427.234 124.306C418.942 124.306 409.655 124.101 403.421 123.333C402.94 123.273 402.477 123.205 402.023 123.12C401.817 123.12 401.611 123.051 401.414 123.009C401.217 122.966 401.071 122.949 400.899 122.906C400.599 122.847 400.308 122.77 400.042 122.701L399.184 122.454L398.987 122.394L398.258 122.147L398.13 122.104L397.272 121.78C397.241 121.772 397.211 121.758 397.186 121.737C387.462 115.575 387.17 108.807 392.479 104.668C396.209 101.715 402.717 100.06 410.667 100.785L444.385 107.502L445.868 123.999Z" fill="#FFB63F"/>
<path d="M427.234 124.306C418.942 124.306 409.655 124.101 403.421 123.333C402.94 123.273 402.477 123.205 402.023 123.119C401.817 123.119 401.611 123.051 401.414 123.008C401.217 122.966 401.071 122.949 400.899 122.906C400.599 122.846 400.308 122.77 400.042 122.701L399.184 122.454L398.987 122.394L398.258 122.147L398.13 122.104L397.272 121.78C397.241 121.772 397.211 121.758 397.186 121.737C387.462 115.575 387.17 108.807 392.479 104.668C392.393 111.496 395.814 117.188 403.815 115.891C414.774 114.064 424.25 118.4 427.234 124.306Z" fill="#FF9400"/>
<path d="M410.641 100.768C408.369 100.388 406.079 100.123 403.781 99.9741" stroke="#FF9400" stroke-width="0.75" stroke-linecap="round" stroke-linejoin="round"/>
<path d="M496.582 154.356L486.729 150.507L471.826 144.669C471.826 144.669 396.277 70.2403 360.09 34.4895C350.134 24.6493 343.154 17.7449 341.55 16.1234C336.216 10.7125 348.848 -3.50586 355.596 2.41704C356.119 2.88644 363.125 9.64571 373.656 19.8444C409.835 54.8356 487.707 130.417 487.707 130.417L492.921 144.447L496.582 154.356Z" fill="#F9F9F9" stroke="#DDDDDD" stroke-width="2" stroke-linecap="round" stroke-linejoin="round"/>
<path d="M379.873 35.3003L476.996 128.812" stroke="#EDEDED" stroke-linecap="round" stroke-linejoin="round"/>
<path d="M375.731 41.6245L471.997 134.317" stroke="#EDEDED" stroke-linecap="round" stroke-linejoin="round"/>
<path d="M492.895 144.447C490.198 145.696 488.019 147.838 486.729 150.507L471.826 144.669C471.826 144.669 472.237 139.728 477.743 140.487C476.559 137.287 478.935 133.66 482.999 136.271C482.999 136.271 482.142 131.057 487.681 130.417L492.895 144.447Z" fill="#F9F9F9" stroke="#EDEDED" stroke-width="2" stroke-linecap="round" stroke-linejoin="round"/>
<path d="M496.583 154.356L486.729 150.507C488.019 147.838 490.198 145.697 492.895 144.447L496.583 154.356Z" fill="#DDDDDD" stroke="#DDDDDD" stroke-width="2" stroke-linecap="round" stroke-linejoin="round"/>
<path d="M373.656 19.8444C369.137 24.7175 364.18 30.0857 360.09 34.4895C350.134 24.6493 343.154 17.7449 341.55 16.1234C336.216 10.7125 348.848 -3.50586 355.596 2.41704C356.119 2.88644 363.125 9.64572 373.656 19.8444Z" stroke="#EDEDED" stroke-width="2" stroke-linecap="round" stroke-linejoin="round"/>
<path d="M368.699 15.0479L354.816 29.2833" stroke="#EDEDED" stroke-width="2" stroke-linecap="round" stroke-linejoin="round"/>
<path d="M438.176 113.202C445.662 106.955 447.36 107.032 448.055 107.851C448.75 108.671 445.645 112.255 444.625 113.202C444.625 113.202 450.962 108.474 452.797 109.609C454.632 110.745 452.223 113.202 452.223 113.202C452.223 113.202 455.756 113.143 453.483 116.924C453.483 116.924 455.318 116.924 454.246 118.81C453.174 120.696 446.589 125.193 444.187 124.05C441.786 122.906 434.557 116.232 438.176 113.202Z" fill="#FEBD9D"/>
<path d="M441.426 110.609C446.194 106.999 447.429 107.195 448.055 107.852C448.681 108.509 445.645 112.256 444.625 113.203C444.625 113.203 450.962 108.475 452.797 109.61C454.632 110.745 452.223 113.203 452.223 113.203C452.223 113.203 455.756 113.143 453.483 116.924C453.483 116.924 455.318 116.924 454.246 118.81" stroke="#EF8A66" stroke-width="0.75" stroke-linecap="round" stroke-linejoin="round"/>
<path d="M452.231 113.202L445.542 117.504" stroke="#EF8A66" stroke-width="0.75" stroke-linecap="round" stroke-linejoin="round"/>
<path d="M447.317 120.747L453.492 116.923" stroke="#EF8A66" stroke-width="0.75" stroke-linecap="round" stroke-linejoin="round"/>
<path d="M444.634 113.202L442.696 114.781" stroke="#EF8A66" stroke-width="0.75" stroke-linecap="round" stroke-linejoin="round"/>
<path d="M366.17 60.0503C366.98 56.5881 366.886 52.9771 365.895 49.5615L358.341 53.146C358.341 53.146 361.093 60.6563 366.17 60.0503Z" fill="#FF9400"/>
<path d="M358.238 40.0112C360.359 39.7993 362.464 39.4515 364.54 38.97C364.995 38.714 368.254 36.1195 369.686 35.1807C371.118 34.242 376.94 30.4953 377.489 30.8453C378.038 31.1952 378.235 32.8935 377.189 34.1395C377.189 34.1395 383.543 31.4512 386.287 31.1269C388.525 30.8623 388.088 32.9618 386.587 33.9262C388.989 32.8679 391.844 33.9262 388.594 36.2305C390.789 35.855 391.93 37.5363 388.491 40.0112C390.395 38.97 391.69 40.3868 389.94 42.1534C387.093 45.038 381.236 47.2741 379.384 47.9739C377.532 48.6737 365.792 51.2682 361.239 53.8285C361.239 53.8285 357.32 46.8217 358.238 40.0112Z" fill="#FEBD9D"/>
<path d="M369.694 35.1807C371.143 34.242 376.949 30.4953 377.498 30.8453C378.046 31.1952 378.244 32.8935 377.197 34.1395C377.197 34.1395 383.552 31.4512 386.296 31.1269C388.534 30.8623 388.097 32.9618 386.596 33.9262C388.997 32.8679 391.853 33.9262 388.603 36.2305C390.798 35.855 391.938 37.5363 388.5 40.0112C390.403 38.97 391.698 40.3868 389.949 42.1534" stroke="#EF8A66" stroke-width="0.75" stroke-linecap="round" stroke-linejoin="round"/>
<path d="M377.197 34.1396L373.913 35.7441" stroke="#EF8A66" stroke-width="0.75" stroke-linecap="round" stroke-linejoin="round"/>
<path d="M386.596 33.9258L379.873 37.0323" stroke="#EF8A66" stroke-width="0.75" stroke-linecap="round" stroke-linejoin="round"/>
<path d="M388.603 36.23L381.305 40.0107" stroke="#EF8A66" stroke-width="0.75" stroke-linecap="round" stroke-linejoin="round"/>
<path d="M388.5 40.0112L382.78 43.2458" stroke="#EF8A66" stroke-width="0.75" stroke-linecap="round" stroke-linejoin="round"/>
<path d="M361.608 37.6812C349.868 38.8674 328.687 42.3666 312.806 53.8027C306.657 58.2236 306.752 76.8457 323.533 75.301C340.315 73.7562 366.195 60.0499 366.195 60.0499C366.195 60.0499 359.541 58.5905 361.608 37.6812Z" fill="#FFB63F"/>
<path d="M333.918 73.2527C349.259 68.9855 366.17 60.0499 366.17 60.0499C366.17 60.0499 359.541 58.5905 361.582 37.6812C352.603 38.5459 343.735 40.3218 335.119 42.981" stroke="#FF9400" stroke-width="0.75" stroke-linecap="round" stroke-linejoin="round"/>
<path d="M248.997 222.144C248.997 222.144 224.669 276.654 212.603 299.176C192.503 313.275 189.373 298.767 192.571 287.092C193.961 284.207 198.042 271.32 202.313 256.769C205.932 244.428 209.679 230.901 212.037 221.291L239.555 221.923L248.997 222.144Z" fill="#FFB63F"/>
<path d="M240.293 225.371C237.875 242.627 216.694 232.642 214.644 242.627C213.624 247.62 209.739 252.612 202.313 256.803C205.932 244.462 209.679 230.935 212.037 221.325L239.555 221.957C240.237 222.957 240.501 224.18 240.293 225.371Z" fill="#FF9400"/>
<path d="M222.388 234.144C220.15 235.168 221.53 236.423 222.165 238.283C222.799 240.144 219.481 239.691 219.592 242.209C219.704 244.727 220.93 243.319 219.592 247.108C218.297 250.769 203.616 287.553 198.583 295.592" stroke="#683F1D" stroke-width="0.75" stroke-linecap="round" stroke-linejoin="round"/>
<path d="M278.839 222.461C278.839 222.461 248.825 228.606 228.433 230.5C215.973 231.67 207.604 227.599 203.522 221.48C202.229 219.522 201.337 217.331 200.895 215.03C200.454 212.73 200.472 210.365 200.949 208.072C211.085 196.124 222.911 192.59 232.747 192.206C239.719 191.943 246.668 193.15 253.139 195.748C277.853 193.657 291.659 194.698 299.093 197.89C311.871 213.082 296.632 218.672 278.839 222.461Z" fill="#FFB63F"/>
<path d="M215.262 198.957C214.799 207.491 218.297 210.453 236.751 210.188C257.058 209.898 285.382 208.055 286.9 208.319C289.995 208.857 283.975 213.739 286.102 213.815C288.906 213.926 291.933 214.336 290.39 216.248C288.846 218.16 287.183 218.936 288.323 220.122" stroke="#683F1D" stroke-width="0.75" stroke-linecap="round" stroke-linejoin="round"/>
<path d="M210.142 227.462C214.662 229.954 220.776 231.217 228.433 230.509C236.606 229.749 246.313 228.307 255.017 226.848" stroke="#83ADDF" stroke-width="0.75" stroke-linecap="round" stroke-linejoin="round"/>
<path d="M285.656 185.259C285.064 187.614 283.418 189.825 280.159 191.608C279.773 191.728 279.379 191.839 278.984 191.941C278.59 192.044 278.255 192.103 277.886 192.172L277.2 192.266L276.729 192.317H276.497C276.103 192.317 275.708 192.359 275.314 192.359C268.942 192.359 262.065 188.306 256.911 177.279C256.911 177.279 253.67 183.407 252.778 187.341C252.646 187.864 252.569 188.399 252.547 188.937C252.508 191.229 252.721 193.519 253.181 195.765C253.181 195.765 240.481 195.901 232.017 198.376C223.554 200.851 214.061 205.434 200.992 208.088C200.992 208.088 201.635 202.114 203.848 199.025C203.016 198.723 202.31 198.151 201.844 197.402C201.377 196.653 201.177 195.77 201.275 194.894C201.567 192.453 204.002 191.361 207.089 186.624C208.088 185.078 208.976 183.464 209.747 181.794C214.618 171.356 213.512 168.693 212.877 167.686L207.038 173.934C196.55 185.139 175.472 207.628 174.031 209.002C172.093 210.837 169.075 211.562 167.977 210.828C167.308 210.384 162.832 213.935 159.402 216.802C157.164 218.68 155.363 220.267 155.363 220.267L142.569 212.586C142.569 212.586 146.17 209.616 149.892 206.467C153.828 203.147 157.901 199.639 158.03 199.213C158.304 198.359 157.472 196.251 159.308 194.339C160.945 192.633 192.134 157.761 202.921 145.403C204.319 143.798 205.382 142.578 205.983 141.853C211.239 135.546 214.404 132.465 221.967 130.596L258.901 131.389C258.901 131.389 269.526 129.452 271.764 136.075C272.081 137.048 272.415 138.379 272.758 139.958C274.748 149.226 276.815 166.859 276.815 166.859C276.815 166.859 287.714 176.946 285.656 185.259Z" fill="#C3DCF8"/>
<path d="M159.351 216.836C157.113 218.714 155.312 220.301 155.312 220.301L142.518 212.62C142.518 212.62 146.119 209.65 149.841 206.501C153.73 209.215 156.976 212.742 159.351 216.836Z" fill="#B25E47"/>
<path d="M222.225 157.556C222.225 161.917 219.961 168.173 217.32 170.511C214.095 173.345 218.949 183.629 213.555 186.59C212.583 187.199 211.458 187.522 210.309 187.522C209.161 187.522 208.036 187.199 207.064 186.59C208.062 185.044 208.951 183.43 209.722 181.76C214.593 171.322 213.487 168.659 212.852 167.652C216.531 163.872 219.97 160.074 222.225 157.556Z" fill="#A7CAF0"/>
<path d="M285.656 185.259C285.064 187.614 283.418 189.825 280.159 191.608C279.774 191.728 279.379 191.839 278.985 191.941C278.59 192.044 278.256 192.103 277.887 192.172L277.201 192.266L276.729 192.317H276.498C276.103 192.317 275.709 192.359 275.314 192.359C268.943 192.359 262.066 188.306 256.912 177.279C262.614 164.904 262.872 158.742 261.543 152.871C262.92 153.195 264.184 153.883 265.201 154.862C266.218 155.841 266.951 157.076 267.322 158.435C269.56 165.92 258.618 174.966 264.415 180.505C269.56 185.378 278.607 177.791 281.866 183.432C282.204 184.113 282.76 184.662 283.446 184.993C284.133 185.323 284.91 185.417 285.656 185.259Z" fill="#A7CAF0"/>
<path d="M272.682 139.933C269.157 139.651 264.672 140.393 262.186 145.053C257.666 153.588 242.651 164.682 232.129 151.548C223.906 141.307 216.471 140.556 202.87 145.343C204.268 143.739 205.331 142.518 205.932 141.793C211.188 135.486 214.353 132.405 221.916 130.536L258.85 131.33C258.85 131.33 269.475 129.393 271.713 136.015C272.004 137.022 272.339 138.32 272.682 139.933Z" fill="#D0E5F7"/>
<path d="M152.679 208.652L160.448 202.191" stroke="#A7CAF0" stroke-width="0.75" stroke-linecap="round" stroke-linejoin="round"/>
<path d="M155.526 211.502L163.03 205.135" stroke="#A7CAF0" stroke-width="0.75" stroke-linecap="round" stroke-linejoin="round"/>
<path d="M157.773 214.319L164.479 209.3" stroke="#A7CAF0" stroke-width="0.75" stroke-linecap="round" stroke-linejoin="round"/>
<path d="M205.1 207.141L207.064 199.478" stroke="#A7CAF0" stroke-width="0.75" stroke-linecap="round" stroke-linejoin="round"/>
<path d="M208.65 206.211L210.442 198.316" stroke="#A7CAF0" stroke-width="0.75" stroke-linecap="round" stroke-linejoin="round"/>
<path d="M212.037 205.204L213.555 198.316" stroke="#A7CAF0" stroke-width="0.75" stroke-linecap="round" stroke-linejoin="round"/>
<path d="M216.068 203.889L217.311 197.796" stroke="#A7CAF0" stroke-width="0.75" stroke-linecap="round" stroke-linejoin="round"/>
<path d="M220.012 202.507L220.819 197.02" stroke="#A7CAF0" stroke-width="0.75" stroke-linecap="round" stroke-linejoin="round"/>
<path d="M223.605 201.201L223.931 197.54" stroke="#A7CAF0" stroke-width="0.75" stroke-linecap="round" stroke-linejoin="round"/>
<path d="M224.84 154.535C224.84 154.535 223.846 155.687 222.225 157.522C219.97 160.083 216.531 163.838 212.852 167.636" stroke="#A7CAF0" stroke-width="0.75" stroke-linecap="round" stroke-linejoin="round"/>
<path d="M256.895 177.271C262.597 164.896 262.854 158.734 261.525 152.862C260.976 150.362 260.127 147.929 259.304 145.087" stroke="#A7CAF0" stroke-width="0.75" stroke-linecap="round" stroke-linejoin="round"/>
<path d="M219.163 136.92L224.84 133.131" stroke="#A7CAF0" stroke-width="0.75" stroke-linecap="round" stroke-linejoin="round"/>
<path d="M225.329 140.197L228.39 135.17" stroke="#A7CAF0" stroke-width="0.75" stroke-linecap="round" stroke-linejoin="round"/>
<path d="M230.663 141.46L232.129 136.595" stroke="#A7CAF0" stroke-width="0.75" stroke-linecap="round" stroke-linejoin="round"/>
<path d="M234.222 141.964L235.276 137.347" stroke="#A7CAF0" stroke-width="0.75" stroke-linecap="round" stroke-linejoin="round"/>
<path d="M237.72 142.714L238.355 137.807" stroke="#A7CAF0" stroke-width="0.75" stroke-linecap="round" stroke-linejoin="round"/>
<path d="M243.603 142.715V138.149" stroke="#A7CAF0" stroke-width="0.75" stroke-linecap="round" stroke-linejoin="round"/>
<path d="M248.071 138.149L248.748 142.715" stroke="#A7CAF0" stroke-width="0.75" stroke-linecap="round" stroke-linejoin="round"/>
<path d="M251.243 137.585L252.393 142.715" stroke="#A7CAF0" stroke-width="0.75" stroke-linecap="round" stroke-linejoin="round"/>
<path d="M254.108 136.919L255.694 141.084" stroke="#A7CAF0" stroke-width="0.75" stroke-linecap="round" stroke-linejoin="round"/>
<path d="M256.414 135.776L258.49 140.197" stroke="#A7CAF0" stroke-width="0.75" stroke-linecap="round" stroke-linejoin="round"/>
<path d="M258.996 135.776L261.602 137.808" stroke="#A7CAF0" stroke-width="0.75" stroke-linecap="round" stroke-linejoin="round"/>
<path d="M260.299 133.429L263.506 135.025" stroke="#A7CAF0" stroke-width="0.75" stroke-linecap="round" stroke-linejoin="round"/>
<path d="M251.784 127.097C251.149 126.806 250.455 126.508 249.708 126.243C247.901 125.572 245.977 125.264 244.049 125.338C237.429 125.415 221.916 130.613 221.916 130.613C222.25 131.074 226.307 135.554 234.573 137.253C242.84 138.951 251.312 138.106 254.939 136.672C256 136.216 256.92 135.488 257.607 134.563C258.294 133.638 258.722 132.549 258.85 131.406C258.85 131.406 257.126 129.52 251.784 127.097Z" fill="#B25E47"/>
<path d="M291.333 289.217C295.938 285.931 300.217 290.625 289.618 293.356" stroke="#83ADDF" stroke-width="0.75" stroke-linecap="round" stroke-linejoin="round"/>
<path d="M287.002 291.94C289.172 286.716 292.362 282.33 293.863 283.456C295.698 284.847 288.666 292.366 288.666 292.366" stroke="#83ADDF" stroke-width="0.75" stroke-linecap="round" stroke-linejoin="round"/>
<path d="M297.001 303.546H268.051C267.94 299.612 272.399 290.805 272.888 287.937C272.888 287.877 272.888 287.817 272.888 287.741C273.428 284.557 274.946 272.797 274.946 272.797L290.475 273.77L286.299 287.877C287.781 290.032 289.445 292.056 291.273 293.928C294.583 297.402 301.092 297.897 301.701 300.338C302.309 302.778 298.776 303.546 297.001 303.546Z" fill="#C3DCF8"/>
<path d="M290.501 273.77L286.325 287.877C286.325 287.877 277.904 287.809 272.913 287.741C273.454 284.557 274.971 272.797 274.971 272.797L290.501 273.77Z" fill="#B25E47"/>
<path d="M306.769 213.345C305.002 226.625 292.808 276.116 292.808 276.116H272.811L278.813 222.571C278.824 222.534 278.824 222.496 278.813 222.46C278.702 221.768 275.083 199.186 294.626 196.43C296.15 196.794 297.641 197.282 299.085 197.889C306.726 201.149 307.652 206.645 306.769 213.345Z" fill="#FFB63F"/>
<path d="M279.868 208.523C283.855 208.335 286.471 208.241 286.9 208.318C289.995 208.856 283.975 213.737 286.102 213.814C288.906 213.925 291.933 214.335 290.39 216.246C288.675 218.312 287.071 218.986 288.46 220.258C291.093 222.656 286.6 224.934 286.291 227.691C285.982 230.448 280.94 271.934 280.94 271.934" stroke="#683F1D" stroke-width="0.75" stroke-linecap="round" stroke-linejoin="round"/>
<path d="M302.558 136.903C301.289 140.316 299.925 143.329 299.925 143.329L299.788 143.867L297.216 154.27C297.216 154.27 299.239 154.808 299.188 156.575C299.136 158.341 295.398 172.85 291.787 181.034C291.633 181.401 291.444 181.76 291.256 182.127C291.067 182.494 290.973 182.656 290.818 182.912C290.498 183.447 290.155 183.967 289.789 184.474C289.618 184.713 289.446 184.943 289.266 185.165C289.086 185.387 288.872 185.651 288.657 185.882C288.443 186.112 288.254 186.334 288.049 186.556C287.611 187.008 287.191 187.41 286.668 187.853L285.939 188.451C284.724 189.411 283.396 190.222 281.986 190.866H281.926L281.068 191.224C280.777 191.335 280.485 191.446 280.211 191.54C274.285 190.03 272.339 186.164 272.201 181.93C271.97 174.881 276.798 166.807 276.798 166.807C276.794 166.793 276.794 166.779 276.798 166.765C277.081 165.962 281.737 153.041 282.689 151.975C283.641 150.908 285.527 151.608 285.527 151.608L288.863 141.05L289.592 138.738C289.592 138.738 289.326 138.183 288.966 137.372C288.186 135.709 287.61 133.958 287.251 132.158C287.054 130.101 288.966 128.812 290.51 128.573C290.51 128.573 290.655 125.04 291.839 123.606C292.023 123.317 292.285 123.086 292.596 122.94C292.906 122.794 293.252 122.738 293.593 122.779C293.934 122.82 294.256 122.956 294.522 123.172C294.789 123.388 294.988 123.675 295.097 123.999C295.466 122.77 298.167 122.599 298.236 125.023C298.34 124.601 298.601 124.235 298.966 123.998C299.331 123.762 299.773 123.672 300.203 123.748C300.632 123.824 301.016 124.06 301.276 124.408C301.537 124.756 301.655 125.189 301.606 125.62C301.606 125.62 303.587 123.708 304.616 127.327C305.088 129.222 303.879 133.318 302.558 136.903Z" fill="#C3DCF8"/>
<path d="M291.341 142.714C291.341 142.714 288.606 151.744 288.606 151.582" stroke="#A7CAF0" stroke-width="0.75" stroke-linecap="round" stroke-linejoin="round"/>
<path d="M293.477 143.568L291.582 151.403" stroke="#A7CAF0" stroke-width="0.75" stroke-linecap="round" stroke-linejoin="round"/>
<path d="M296.667 144.038L294.978 152.137" stroke="#A7CAF0" stroke-width="0.75" stroke-linecap="round" stroke-linejoin="round"/>
<path d="M276.712 166.833C274.997 171.757 273.848 175.419 274.054 176.665" stroke="#A7CAF0" stroke-width="0.75" stroke-linecap="round" stroke-linejoin="round"/>
<path d="M291.29 182.127C291.153 182.392 291.007 182.656 290.853 182.912C290.532 183.447 290.189 183.968 289.823 184.474C289.652 184.713 289.48 184.943 289.3 185.165C289.12 185.387 288.906 185.652 288.692 185.882C288.477 186.113 288.289 186.334 288.083 186.556C287.645 187.009 287.225 187.41 286.702 187.854L285.973 188.451C284.761 189.416 283.433 190.227 282.02 190.866H281.96L281.102 191.225C280.811 191.336 280.519 191.447 280.245 191.54C274.319 190.03 272.373 186.164 272.236 181.931C276.154 181.316 280.039 180.104 281.943 183.399C284.044 187.222 288.537 184.406 291.29 182.127Z" fill="#A7CAF0"/>
<path d="M299.925 143.329L299.788 143.867C298.045 144.141 296.268 144.121 294.532 143.807C292.428 143.389 290.464 142.449 288.82 141.076L289.549 138.764C289.549 138.764 287.388 134.24 287.191 132.183C286.994 130.127 288.906 128.838 290.45 128.599C290.45 128.599 290.595 125.066 291.779 123.632C291.963 123.343 292.225 123.112 292.536 122.966C292.846 122.819 293.192 122.764 293.533 122.805C293.874 122.846 294.196 122.982 294.462 123.198C294.729 123.414 294.928 123.7 295.037 124.025C295.406 122.796 298.107 122.616 298.176 125.049C298.28 124.627 298.541 124.261 298.906 124.024C299.271 123.787 299.713 123.698 300.143 123.774C300.572 123.85 300.956 124.086 301.216 124.434C301.477 124.781 301.595 125.215 301.546 125.646C301.546 125.646 303.527 123.734 304.556 127.353C305.585 130.972 299.925 143.329 299.925 143.329Z" fill="#B25E47"/>
<path d="M288.606 136.613C287.957 135.189 287.482 133.694 287.191 132.158C286.994 130.092 288.906 128.812 290.45 128.573C290.45 128.573 290.595 125.04 291.779 123.606C291.963 123.317 292.225 123.086 292.536 122.94C292.846 122.794 293.192 122.738 293.533 122.779C293.874 122.82 294.196 122.956 294.462 123.172C294.729 123.388 294.928 123.675 295.037 123.999C295.406 122.77 298.107 122.59 298.176 125.023C298.28 124.601 298.541 124.235 298.906 123.998C299.271 123.762 299.713 123.672 300.143 123.748C300.572 123.824 300.956 124.06 301.216 124.408C301.477 124.756 301.595 125.189 301.546 125.62C301.546 125.62 303.527 123.708 304.556 127.327" stroke="#934735" stroke-width="0.75" stroke-linecap="round" stroke-linejoin="round"/>
<path d="M290.432 128.599C293.134 128.113 295.44 128.369 295.518 129.282C295.595 130.195 292.379 131.492 292.379 131.492C292.379 131.492 296.487 132.038 295.097 136.92" stroke="#934735" stroke-width="0.75" stroke-linecap="round" stroke-linejoin="round"/>
<path d="M294.977 123.854C294.977 123.854 294.394 127.686 294.12 128.437" stroke="#934735" stroke-width="0.75" stroke-linecap="round" stroke-linejoin="round"/>
<path d="M295.672 129.299C296.709 129.58 297.704 128.53 298.244 124.724" stroke="#934735" stroke-width="0.75" stroke-linecap="round" stroke-linejoin="round"/>
<path d="M296.95 128.812C297.042 129.276 297.301 129.69 297.679 129.977C298.056 130.265 298.525 130.406 298.999 130.374" stroke="#934735" stroke-width="0.75" stroke-linecap="round" stroke-linejoin="round"/>
<path d="M301.58 125.646C300.723 126.303 298.493 130.306 299.677 131.296C301.057 132.439 302.164 129.589 302.164 129.589" stroke="#934735" stroke-width="0.75" stroke-linecap="round" stroke-linejoin="round"/>
<path d="M147.509 365.267C151.487 362.75 155.226 362.272 156.084 362.886C157.293 363.825 153.623 366.351 150.63 366.752" stroke="#83ADDF" stroke-width="0.75" stroke-linecap="round" stroke-linejoin="round"/>
<path d="M143.967 367.7C149.918 365.473 155.972 367.7 155.295 369.706C154.532 372.019 145.133 368.682 145.133 368.682" stroke="#83ADDF" stroke-width="0.75" stroke-linecap="round" stroke-linejoin="round"/>
<path d="M146.565 377.284C148.323 379.034 151.71 382.806 151.239 383.898C150.767 384.991 148.975 385.324 148.975 385.324H136.283C136.283 385.324 134.243 384.112 134.165 382.951C134.088 381.79 130.084 358.474 130.735 356.443C131.293 354.736 139.259 351.587 143.024 349.496C143.55 349.214 144.052 348.889 144.524 348.523C146.857 346.569 154.009 339.297 154.009 339.297L162.918 350.196C157.773 353.055 152.011 356.947 149.344 360.437C148.628 361.288 148.128 362.298 147.886 363.382C147.226 367.299 144.816 375.509 146.565 377.284Z" fill="#C3DCF8"/>
<path d="M162.918 350.162C157.773 353.021 152.011 356.913 149.344 360.403L143.024 349.462C143.55 349.181 144.052 348.855 144.524 348.489C146.857 346.535 154.009 339.264 154.009 339.264L162.918 350.162Z" fill="#B25E47"/>
<path d="M212.603 299.177C211.194 301.918 209.634 304.579 207.93 307.148C199.535 318.9 162.395 353.823 162.395 353.823L149.901 337.804L192.58 287.084C199.895 277.713 219 279.941 212.603 299.177Z" fill="#FFB63F"/>
<path d="M195.933 299.066C186.449 310.383 154.969 344.299 154.969 344.299" stroke="#683F1D" stroke-width="0.75" stroke-linecap="round" stroke-linejoin="round"/>
<path d="M205.323 281.827C203.347 286.536 201.108 291.132 198.617 295.593" stroke="#683F1D" stroke-width="0.75" stroke-linecap="round" stroke-linejoin="round"/>
<path d="M263.326 124.4C260.359 123.547 260.299 125.851 261.697 126.79C263.095 127.728 262.383 130.656 258.901 131.057C258.584 131.1 257.761 131.219 256.766 131.321C254.905 131.509 252.478 131.663 251.758 131.262C251.038 130.861 250.995 129.743 251.252 128.565C251.295 128.326 251.372 128.087 251.441 127.831C251.841 126.586 252.355 125.381 252.976 124.229C254.628 124.194 256.24 123.722 257.649 122.864C260.831 120.756 260.917 116.531 259.63 112.127C259.308 111.027 258.918 109.947 258.464 108.893C258.112 108.039 257.718 107.186 257.298 106.392C253.422 98.8735 247.925 98.882 247.925 98.882C250.36 103.03 248.045 105.846 246.622 106.563C245.198 107.28 243.646 107.766 243.723 110.617C243.8 113.467 242.514 113.894 241.656 113.749C238.955 113.254 237.034 115.294 238.226 117.53C239.418 119.766 242.763 119.066 243.757 118.008C243.757 118.008 245.738 119.331 245.85 120.909C245.961 122.488 242.9 124.383 244.349 126.841C244.624 127.273 244.775 127.772 244.783 128.284C244.792 128.796 244.658 129.3 244.398 129.741C244.137 130.182 243.759 130.543 243.306 130.784C242.853 131.025 242.341 131.137 241.828 131.108C240.573 130.959 239.301 131.154 238.149 131.671C237.872 131.806 237.608 131.966 237.36 132.149C237.185 132.28 237.018 132.422 236.863 132.576C235.559 133.89 234.59 135.503 231.486 134.795C228.382 134.087 227.833 129.785 227.833 129.785C223.434 129.982 220.493 130.511 220.21 126.943C219.978 124.11 223.168 123.094 224.858 122.787C225.189 122.743 225.5 122.603 225.752 122.385C226.005 122.167 226.188 121.881 226.279 121.561C226.37 121.241 226.365 120.901 226.265 120.584C226.165 120.266 225.974 119.985 225.715 119.774C224.077 118.528 225.303 116.6 227.696 115.78C230.088 114.961 229.197 109.67 229.411 107.092C229.745 102.484 234.033 98.4724 239.787 98.1993C239.787 98.1993 242.763 91.7899 249.966 92.8908C257.169 93.9918 260.436 100.922 260.102 104.114C259.767 107.306 259.725 110.702 263.198 110.864C266.671 111.027 268.626 113.152 267.374 115.277C266.122 117.402 265.23 118.998 267.863 120.747C270.495 122.497 266.293 125.228 263.326 124.4Z" fill="#604730"/>
<path d="M247.916 98.8395C250.352 102.987 248.036 105.804 246.613 106.52C245.189 107.237 243.637 107.724 243.714 110.574C243.792 113.425 242.505 113.852 241.648 113.706C238.947 113.211 237.026 115.251 238.218 117.487C239.41 119.723 242.754 119.023 243.749 117.965C243.749 117.965 245.73 119.288 245.841 120.867C245.953 122.446 242.891 124.34 244.341 126.798C244.616 127.23 244.766 127.73 244.775 128.241C244.783 128.753 244.65 129.257 244.389 129.698C244.129 130.139 243.751 130.5 243.297 130.741C242.844 130.983 242.333 131.095 241.819 131.066C240.564 130.916 239.292 131.111 238.141 131.629C237.863 131.763 237.599 131.923 237.352 132.107C232.875 130.144 229.471 127.054 231.28 124.648C233.647 121.507 235.285 123.231 233.93 118.221C232.575 113.211 233.887 110.002 237.189 109.687C240.49 109.371 243.612 107.126 241.965 103.824C240.319 100.521 245.567 93.4286 252.255 96.3986C255.771 97.9604 257.058 102.065 257.349 106.316C253.413 98.8309 247.916 98.8395 247.916 98.8395Z" fill="#473526"/>
<path d="M257.649 122.838C257.315 125.348 255.754 127.797 251.252 128.548C251.295 128.309 251.372 128.07 251.441 127.814C251.841 126.569 252.355 125.364 252.976 124.212C254.628 124.174 256.241 123.7 257.649 122.838Z" fill="#473526"/>
<path d="M251.441 127.814C251.004 129.256 250.875 130.698 251.758 131.228C252.444 131.629 254.905 131.475 256.766 131.287C249.829 136.971 244.058 136.101 238.115 131.663C239.267 131.145 240.539 130.95 241.794 131.1C242.307 131.129 242.818 131.017 243.272 130.775C243.725 130.534 244.103 130.173 244.364 129.732C244.624 129.291 244.757 128.787 244.749 128.275C244.74 127.764 244.59 127.265 244.315 126.832C242.866 124.374 245.927 122.488 245.816 120.901C245.704 119.314 243.723 117.999 243.723 117.999C242.728 119.057 239.358 119.757 238.192 117.521C237.026 115.285 238.947 113.254 241.622 113.741C242.48 113.886 243.775 113.459 243.689 110.608C243.603 107.758 245.164 107.323 246.587 106.555C248.011 105.786 250.326 102.987 247.891 98.8735C247.891 98.8735 253.396 98.8735 257.272 106.401C257.692 107.212 258.087 108.048 258.438 108.902C258.893 109.955 259.282 111.035 259.605 112.136C261.32 118.11 260.565 123.751 252.95 124.238C252.329 125.389 251.815 126.595 251.415 127.839L251.441 127.814Z" fill="#B25E47"/>
<path d="M259.63 112.102C259.305 112.22 258.952 112.242 258.614 112.165C258.276 112.088 257.968 111.915 257.727 111.667C257.161 110.941 257.486 109.712 258.464 108.859C258.917 109.916 259.306 110.999 259.63 112.102Z" fill="#A0503D"/>
<path d="M251.055 109.746C251.055 109.862 251.078 109.977 251.124 110.083C251.17 110.19 251.237 110.286 251.321 110.365C251.405 110.445 251.505 110.507 251.614 110.548C251.723 110.588 251.839 110.606 251.955 110.6C252.123 110.592 252.284 110.534 252.42 110.436C252.555 110.337 252.658 110.201 252.716 110.045C252.775 109.888 252.786 109.718 252.748 109.555C252.71 109.393 252.625 109.245 252.504 109.129C252.382 109.014 252.23 108.937 252.065 108.908C251.9 108.878 251.729 108.897 251.575 108.963C251.421 109.028 251.289 109.138 251.197 109.277C251.105 109.416 251.055 109.579 251.055 109.746Z" fill="#683F1D"/>
<path d="M254.888 107.894C254.888 108.121 254.978 108.338 255.139 108.498C255.3 108.658 255.518 108.748 255.746 108.748C255.862 108.748 255.977 108.724 256.084 108.679C256.191 108.633 256.287 108.567 256.368 108.483C256.448 108.399 256.51 108.3 256.551 108.191C256.591 108.083 256.609 107.967 256.603 107.851C256.603 107.625 256.513 107.408 256.352 107.248C256.191 107.088 255.973 106.998 255.746 106.998C255.629 106.998 255.514 107.021 255.407 107.067C255.3 107.112 255.204 107.179 255.124 107.263C255.043 107.347 254.981 107.446 254.941 107.554C254.9 107.663 254.882 107.779 254.888 107.894Z" fill="#683F1D"/>
<path d="M252.976 124.204C252.355 125.355 251.841 126.561 251.441 127.805C250.525 127.495 249.744 126.88 249.231 126.064C248.717 125.248 248.501 124.28 248.62 123.325C250.019 123.833 251.488 124.129 252.976 124.204Z" fill="#914839"/>
<path d="M239.787 116.583C240.379 115.063 242.36 115.345 243.217 116.233" stroke="#934735" stroke-width="0.75" stroke-linecap="round" stroke-linejoin="round"/>
<path d="M241.228 117.351C241.172 117.16 241.161 116.96 241.197 116.765C241.232 116.569 241.313 116.385 241.433 116.227C241.553 116.068 241.709 115.94 241.888 115.852C242.066 115.764 242.263 115.719 242.463 115.721" stroke="#934735" stroke-width="0.75" stroke-linecap="round" stroke-linejoin="round"/>
<path d="M243.732 117.999C244.029 117.634 244.242 117.209 244.358 116.753" stroke="#934735" stroke-width="0.75" stroke-linecap="round" stroke-linejoin="round"/>
<path d="M251.844 114.065C252.473 114.594 253.245 114.926 254.063 115.018C254.881 115.111 255.708 114.96 256.44 114.586" stroke="#934735" stroke-width="0.75" stroke-linecap="round" stroke-linejoin="round"/>
<path d="M257.289 111.99C257.684 110.727 257.427 109.823 255.96 109.584C255.254 109.423 254.628 109.019 254.193 108.442C253.758 107.866 253.542 107.154 253.585 106.435" stroke="#934735" stroke-width="0.75" stroke-linecap="round" stroke-linejoin="round"/>
<path d="M247.874 106.742C247.874 107.758 251.681 107.289 251.998 106.162C252.256 105.274 247.848 104.831 247.874 106.742Z" fill="#604730"/>
<path d="M255.334 102.099C254.408 101.664 253.139 105.325 254.288 105.607C254.854 105.752 257.504 103.132 255.334 102.099Z" fill="#604730"/>
<path d="M239.736 98.2075C241.172 98.3109 242.575 98.6875 243.869 99.317" stroke="#896442" stroke-width="0.75" stroke-linecap="round" stroke-linejoin="round"/>
<path d="M242.154 104.805C239.307 105.854 235.885 107.63 235.783 111.035C235.68 114.44 237.146 117.53 232.618 119.749C228.091 121.967 232.378 127.651 232.378 127.651" stroke="#896442" stroke-width="0.75" stroke-linecap="round" stroke-linejoin="round"/>
<path d="M237.42 128.582C240.182 126.337 237.18 123.512 240.182 121.404" stroke="#896442" stroke-width="0.75" stroke-linecap="round" stroke-linejoin="round"/>
<path d="M245.138 102.339C240.507 100.521 235.156 102.808 233.99 104.754" stroke="#896442" stroke-width="0.75" stroke-linecap="round" stroke-linejoin="round"/>
<path d="M251.038 112.716C250.849 113.672 249.58 114.218 248.225 113.937C246.87 113.655 245.918 112.665 246.107 111.718C246.296 110.77 247.565 110.216 248.928 110.497C250.292 110.779 251.235 111.786 251.038 112.716Z" fill="#A0503D"/>
<path d="M31.5365 379.101C25.3365 385.724 23.8187 390.998 22.824 394.463L36.7502 405.336H57.0565C57.0565 405.336 56.6963 400.454 52.7689 399.652C48.8414 398.85 46.4832 398.491 46.4832 398.491L42.6071 390.162L31.5365 379.101Z" fill="#A7CAF0"/>
<path d="M90.8946 287.561C91.452 325.881 93.8874 333.826 86.0067 347.089C78.126 360.351 42.6072 390.162 42.6072 390.162L27.6262 378.99C27.6262 378.99 45.6343 359.105 54.0466 348.505C62.459 337.906 63.7024 333.596 63.4795 327.075C63.2565 320.555 57.0394 270.961 57.0394 270.961L90.8946 287.561Z" fill="#683F1D"/>
<path d="M189.356 340.381C189.356 340.381 202.673 348.446 205.314 349.82C207.956 351.194 208.324 354.702 208.324 354.702H176.167C176.167 354.702 174.641 346.688 175.455 341.9L189.356 340.381Z" fill="#A7CAF0"/>
<path d="M189.356 340.381L173.106 343.581L152.371 288.176C147.543 275.323 142.346 263.878 152.988 259.841C164.916 260.251 170.602 264.032 175.473 277.61C180.583 291.939 189.356 340.381 189.356 340.381Z" fill="#683F1D"/>
<path d="M152.371 288.176C152.371 288.176 104.786 292.486 90.1142 293.032C75.4419 293.578 61.1469 291.939 54.6125 269.007L92.0436 256.043L96.8372 259.799C118.233 260.14 137.656 259.73 150.982 259.799C151.676 259.799 152.345 259.799 152.997 259.841C172.445 263.067 165.088 284.301 152.371 288.176Z" fill="#683F1D"/>
<path d="M87.6445 293.091C76.9082 293.279 66.6179 291.7 59.6548 280.844" stroke="#91613D" stroke-width="0.75" stroke-linecap="round" stroke-linejoin="round"/>
<path d="M119.253 231.472L108.44 240.681L99.3497 259.926C99.3497 259.926 85.6893 259.448 77.5685 265.269C69.4478 271.089 57.6653 273.598 53.1118 273.521C52.784 264.177 53.4364 254.824 55.0584 245.614C57.7425 230.9 64.3283 208.472 64.3283 208.472C64.2511 207.772 64.2168 207.072 64.1911 206.39C63.8224 194.68 70.0309 185.412 80.1668 186.018C90.8945 186.675 101.862 190.626 101.862 190.626C101.862 190.626 113.73 192.495 119.982 195.969C122.82 197.548 124.758 200.236 125.196 204.87C125.727 210.435 124.072 218.816 119.253 231.472Z" fill="#FFB63F"/>
<path d="M95.3707 242.593L91.769 237.643C94.4788 236.474 96.7341 235.416 97.626 234.989C96.4426 229.561 95.3449 224.79 94.273 220.736C96.2196 221.095 98.9551 222.887 99.7097 229.706C100.276 234.903 107.899 226.608 110.695 233.376C113.49 240.144 95.3707 242.593 95.3707 242.593Z" fill="#FF9400"/>
<path d="M118.224 211.501C116.74 213.046 114.622 221.427 111.569 231.361L118.224 211.501Z" fill="#FF9400"/>
<path d="M118.224 211.501C116.74 213.046 114.622 221.427 111.569 231.361" stroke="#FF9400" stroke-width="0.75" stroke-linecap="round" stroke-linejoin="round"/>
<path d="M160.131 219.191C160.003 222.178 154.677 221.427 154.677 221.427C156.032 223.8 152.105 225.345 150.167 225.455C148.866 225.491 147.57 225.276 146.351 224.824C146.351 224.824 127.288 241.697 120.162 248.046C113.036 254.396 99.8299 264.262 90.9031 263.05C81.9762 261.838 79.4979 252.808 75.5276 242.567C77.641 242.399 79.7322 242.021 81.7704 241.44C87.0442 239.981 95.6709 235.936 97.6261 235.006C97.8748 236.166 98.1406 237.37 98.3979 238.599C114.382 229.62 132.167 218.116 133.659 216.691C135.151 215.265 141.471 210.35 143.341 208.335C145.21 206.321 148.743 208.19 147.32 209.308C145.896 210.426 145.21 211.536 150.939 215.052C158.15 219.473 160.277 215.607 160.131 219.191Z" fill="#FEBD9D"/>
<path d="M125.196 204.888C122.229 203.028 118.593 202.259 114.905 205.229C106.158 212.245 97.7547 211.912 85.9123 198.334C74.3957 185.139 64.7485 205.246 64.1996 206.407C63.8309 194.698 70.0394 185.429 80.1754 186.035C90.9031 186.693 101.871 190.644 101.871 190.644C101.871 190.644 113.739 192.513 119.99 195.987C122.82 197.548 124.758 200.237 125.196 204.888Z" fill="#FFCB66"/>
<path d="M99.2898 204.495C99.2898 204.851 99.3959 205.199 99.5947 205.496C99.7935 205.792 100.076 206.023 100.407 206.159C100.737 206.295 101.101 206.331 101.452 206.261C101.803 206.192 102.126 206.02 102.379 205.768C102.632 205.517 102.804 205.196 102.874 204.846C102.944 204.497 102.908 204.135 102.771 203.806C102.634 203.477 102.402 203.196 102.104 202.998C101.807 202.8 101.457 202.694 101.099 202.694C100.619 202.694 100.159 202.884 99.8197 203.222C99.4804 203.559 99.2898 204.018 99.2898 204.495Z" fill="white"/>
<path d="M64.1653 208.301C64.1653 208.301 70.5967 237.498 72.7406 242.439C73.6584 242.565 74.5879 242.586 75.5104 242.499C77.6237 242.331 79.715 241.953 81.7532 241.372C85.1627 240.323 88.5022 239.06 91.7519 237.592C94.4617 236.422 96.717 235.364 97.6089 234.937C96.4255 229.51 95.3278 224.739 94.2559 220.685C91.8034 211.408 89.4709 205.937 86.4439 205.084" stroke="#FF9400" stroke-width="0.75" stroke-linecap="round" stroke-linejoin="round"/>
<path d="M98.398 238.582C93.7502 241.526 93.0127 243.933 93.0127 243.933" stroke="#EF8A66" stroke-width="0.75" stroke-linecap="round" stroke-linejoin="round"/>
<path d="M154.669 221.428C151.239 221.129 149.644 220.881 149.644 220.881" stroke="#EF8A66" stroke-width="0.75" stroke-linecap="round" stroke-linejoin="round"/>
<path d="M146.368 224.816C147.589 225.272 148.888 225.49 150.193 225.456C152.148 225.345 156.058 223.809 154.695 221.427C154.695 221.427 160.028 222.17 160.157 219.191C160.303 215.607 158.168 219.473 150.964 215.035C145.236 211.519 145.922 210.427 147.346 209.3C148.769 208.173 145.245 206.304 143.367 208.318C142.406 209.351 140.288 211.152 138.221 212.842" stroke="#EF8A66" stroke-width="0.75" stroke-linecap="round" stroke-linejoin="round"/>
<path d="M136.635 210.486C138.71 207.601 141.557 209.633 141.617 212.048C141.677 214.463 136.824 217.595 135.443 216.315C134.062 215.035 135.469 212.099 136.635 210.486Z" fill="#B25E47"/>
<path d="M142.08 227.461C139.877 226.369 138.316 228.025 140.151 230.022C141.986 232.019 145.348 231.114 145.982 229.126L142.08 227.461Z" fill="#B25E47"/>
<path d="M142.08 227.461C139.877 226.369 138.316 228.025 140.151 230.022C141.986 232.019 145.348 231.114 145.982 229.126L142.08 227.461Z" stroke="#934735" stroke-width="0.75" stroke-linecap="round" stroke-linejoin="round"/>
<path d="M144.901 225.37C142.595 224.944 140.665 225.703 141.394 227.529C142.123 229.356 147.397 231.413 149.644 227.529L144.901 225.37Z" fill="#B25E47"/>
<path d="M144.901 225.37C142.595 224.944 140.665 225.703 141.394 227.529C142.123 229.356 147.397 231.413 149.644 227.529L144.901 225.37Z" stroke="#934735" stroke-width="0.75" stroke-linecap="round" stroke-linejoin="round"/>
<path d="M136.635 210.486C138.71 207.601 141.557 209.633 141.617 212.048C141.677 214.463 136.824 217.595 135.443 216.315C134.062 215.035 135.469 212.099 136.635 210.486Z" stroke="#934735" stroke-width="0.75" stroke-linecap="round" stroke-linejoin="round"/>
<path d="M144.799 226.224C143.255 224.688 144.164 222.469 146.256 222.998C148.349 223.527 148.778 224.764 152.379 224.978C154.772 225.08 148.94 230.354 144.799 226.224Z" fill="#B25E47"/>
<path d="M144.799 226.224C143.255 224.688 144.164 222.469 146.256 222.998C148.349 223.527 148.778 224.764 152.379 224.978C154.772 225.08 148.94 230.354 144.799 226.224Z" stroke="#934735" stroke-width="0.75" stroke-linecap="round" stroke-linejoin="round"/>
<path d="M108.911 173.046L105.944 174.164L101.399 175.828C99.9194 174.348 98.6107 172.708 97.4976 170.938C95.7225 168.062 94.8307 165.006 97.7548 164.11C94.3676 164.11 93.9731 161.26 96.7429 160.696C92.9098 160.602 94.359 156.839 98.3208 157.283C98.3208 157.283 95.8683 153.98 102.343 153.297C106.913 152.819 110.472 153.954 112.633 155.516L112.804 155.652C113.685 156.262 114.377 157.105 114.802 158.085C115.746 160.56 108.911 173.046 108.911 173.046Z" fill="#D39933"/>
<path d="M108.911 173.046L105.944 174.164L101.399 175.828C99.9194 174.348 98.6107 172.708 97.4976 170.938C99.1354 169.188 101.785 169.513 102.197 168.292C102.797 166.585 98.235 158.435 105.738 158.623C109.966 158.725 111.921 157.087 112.813 155.636C113.694 156.246 114.385 157.088 114.811 158.068C115.746 160.56 108.911 173.046 108.911 173.046Z" fill="#C4892A"/>
<path d="M98.3464 157.24C98.3464 157.24 104.452 157.504 106.347 157.812C108.92 158.23 109.28 159.228 109.28 159.228" stroke="#EDB65F" stroke-width="0.75" stroke-linecap="round" stroke-linejoin="round"/>
<path d="M104.332 162.566L101.939 162.318" stroke="#EDB65F" stroke-width="0.75" stroke-linecap="round" stroke-linejoin="round"/>
<path d="M96.7429 160.611C98.5266 160.756 100.104 161.038 100.104 161.038" stroke="#EDB65F" stroke-width="0.75" stroke-linecap="round" stroke-linejoin="round"/>
<path d="M97.7549 164.067C98.7068 164.056 99.6583 164.113 100.602 164.238" stroke="#EDB65F" stroke-width="0.75" stroke-linecap="round" stroke-linejoin="round"/>
<path d="M105.816 168.266C102.934 168.164 99.2126 168.172 98.8782 167.601" stroke="#EDB65F" stroke-width="0.75" stroke-linecap="round" stroke-linejoin="round"/>
<path d="M112.067 184.286C111.501 185.967 111.023 187.676 110.635 189.406C110.566 189.708 110.498 190.015 110.429 190.328C109.126 194.186 107.531 198.769 102.231 198.111C98.8696 197.702 94.9936 195.432 93.0642 189.867C92.3181 187.708 94.4105 185.643 94.6763 185.25C96.7344 182.28 98.6553 179.199 99.307 176.895C99.307 176.895 97.7034 174.889 98.8096 172.79C98.9758 172.483 99.1773 172.197 99.4099 171.936C101.168 169.99 104.435 170.887 105.524 172.389C105.792 172.198 106.036 171.978 106.253 171.731C106.456 171.558 106.622 171.345 106.741 171.107C106.859 170.868 106.929 170.608 106.945 170.342C106.961 170.076 106.923 169.81 106.834 169.559C106.744 169.308 106.605 169.077 106.424 168.881C106.224 168.653 106.027 168.44 105.833 168.241L105.756 168.164C104.401 166.739 103.252 165.604 103.835 163.649C103.945 163.254 104.119 162.88 104.349 162.54C105.25 161.277 106.922 161.115 109.426 161.447C112.573 161.857 114.151 160.961 114.828 158.034C114.914 158.162 115.6 159.263 116.543 161.012C116.818 161.516 117.109 162.07 117.401 162.676C118.104 164.059 118.876 165.698 119.596 167.473C119.882 168.15 120.148 168.841 120.394 169.547C120.663 170.278 120.889 171.025 121.071 171.783C122.615 178.013 121.637 185.574 112.067 184.286Z" fill="#FEBD9D"/>
<path d="M111.055 171.279C110.669 172.388 108.963 172.806 107.222 172.218C106.876 172.102 106.545 171.948 106.236 171.757C106.439 171.583 106.604 171.371 106.723 171.132C106.842 170.893 106.912 170.633 106.928 170.368C106.944 170.102 106.906 169.835 106.816 169.584C106.727 169.333 106.588 169.103 106.407 168.906C106.184 168.65 105.961 168.411 105.738 168.189C106.66 167.838 107.68 167.838 108.602 168.189C110.352 168.795 111.441 170.169 111.055 171.279Z" fill="#F4AF90"/>
<path d="M110.532 167.601C110.532 167.77 110.582 167.935 110.676 168.075C110.771 168.216 110.905 168.325 111.061 168.389C111.218 168.454 111.39 168.471 111.557 168.438C111.723 168.405 111.876 168.324 111.996 168.204C112.116 168.085 112.197 167.933 112.231 167.768C112.264 167.602 112.247 167.43 112.182 167.274C112.117 167.118 112.007 166.985 111.866 166.891C111.725 166.798 111.559 166.748 111.39 166.748C111.162 166.748 110.944 166.837 110.783 166.998C110.622 167.158 110.532 167.375 110.532 167.601Z" fill="#683F1D"/>
<path d="M116.818 166.79C117.301 166.79 117.692 166.4 117.692 165.919C117.692 165.439 117.301 165.049 116.818 165.049C116.335 165.049 115.943 165.439 115.943 165.919C115.943 166.4 116.335 166.79 116.818 166.79Z" fill="#683F1D"/>
<path d="M112.067 184.286C111.501 185.967 111.023 187.676 110.635 189.407C103.449 187.93 106.442 181.068 106.442 181.068C106.442 181.068 109.966 183.731 112.067 184.286Z" fill="#F4A789"/>
<path d="M99.2898 176.903C100.602 178.738 103.972 178.687 105.112 177.757" stroke="#EF8A66" stroke-width="0.75" stroke-linecap="round" stroke-linejoin="round"/>
<path d="M100.602 174.539C102 172.9 103.912 173.685 104.975 175.623" stroke="#EF8A66" stroke-width="0.75" stroke-linecap="round" stroke-linejoin="round"/>
<path d="M103.749 176.553C101.468 176.494 102.197 173.797 104.332 174.693" stroke="#EF8A66" stroke-width="0.75" stroke-linecap="round" stroke-linejoin="round"/>
<path d="M112.264 171.792C113.165 173.328 114.151 174.104 116.337 173.643" stroke="#EF8A66" stroke-width="0.75" stroke-linecap="round" stroke-linejoin="round"/>
<path d="M114.468 163.692C114.168 165.587 113.971 167.234 115.995 168.164C118.018 169.095 117.624 170.938 115.729 171.501" stroke="#EF8A66" stroke-width="0.75" stroke-linecap="round" stroke-linejoin="round"/>
<path d="M107.342 164.776C108.105 165.8 112.024 163.982 111.321 162.608C110.884 161.746 105.996 162.941 107.342 164.776Z" fill="#D39933"/>
<path d="M117.401 162.702C116.372 163.129 114.288 162.821 114.288 162.198C114.288 161.575 115.506 161.072 116.535 161.038C116.809 161.541 117.101 162.096 117.401 162.702Z" fill="#D39933"/>
<path d="M121.071 171.808C120.749 172.022 120.372 172.14 119.984 172.147C119.597 172.155 119.215 172.052 118.884 171.851C117.958 171.143 118.096 169.393 119.21 167.934C119.339 167.78 119.468 167.627 119.596 167.499C119.882 168.176 120.148 168.867 120.394 169.572C120.663 170.304 120.889 171.051 121.071 171.808Z" fill="#F4AF90"/>
<path d="M94.6592 185.259C92.5068 184.79 89.7198 185.805 89.4026 187.145C89.0853 188.485 88.7251 199.648 91.2291 199.682C93.7331 199.716 97.9092 194.638 100.087 198.641C102.789 203.599 103.638 197.062 107.11 200.416C108.337 201.602 109.812 204.001 111.33 202.123C112.847 200.245 113.979 193.589 113.508 192.496C113.036 191.404 111.87 190.064 110.395 190.337C109.4 190.516 107.822 197.335 102.497 197.617C101.399 197.677 93.9903 189.936 93.5444 188.357C93.0985 186.778 94.6592 185.259 94.6592 185.259Z" fill="white"/>
</svg>
