<svg width="562" height="322" viewBox="0 0 562 322" fill="none" xmlns="http://www.w3.org/2000/svg">
<path d="M1 294.081H561" stroke="#DDDDDD" stroke-width="2" stroke-linecap="round" stroke-linejoin="round"/>
<path d="M548.684 321.153H13.3162" stroke="#DDDDDD" stroke-linecap="round" stroke-linejoin="round"/>
<path d="M188.447 10.145H182.364V187.279H188.447V10.145Z" fill="#EDEDED" stroke="#DDDDDD" stroke-linecap="round" stroke-linejoin="round"/>
<path d="M443.378 10.145H437.295V187.279H443.378V10.145Z" fill="#EDEDED" stroke="#DDDDDD" stroke-linecap="round" stroke-linejoin="round"/>
<path d="M449.461 187.279H176.281V193.619H449.461V187.279Z" fill="#EDEDED" stroke="#DDDDDD" stroke-linecap="round" stroke-linejoin="round"/>
<path d="M447.149 2.70215H177.512V14.7678H447.149V2.70215Z" fill="#F9F9F9" stroke="#DDDDDD" stroke-linecap="round" stroke-linejoin="round"/>
<path d="M446.219 8.55609V8.735C446.219 12.5708 447.042 15.7196 448.101 16.1275C446.384 16.471 443.807 16.4925 442.834 14.6963C441.202 11.6691 441.474 3.74702 442.834 2.0438C443.757 0.88447 446.505 0.798596 448.223 1.26376L448.115 1.29954C448.08 1.30946 448.047 1.32389 448.015 1.34248C447.028 1.90783 446.219 4.92066 446.219 8.55609Z" fill="#F9F9F9" stroke="#DDDDDD" stroke-linecap="round" stroke-linejoin="round"/>
<path d="M450.441 8.7351C450.441 12.8429 449.497 16.1706 448.33 16.1706C447.164 16.1706 446.183 12.8429 446.183 8.7351C446.183 4.62735 447.128 1.29248 448.33 1.29248C449.533 1.29248 450.441 4.62735 450.441 8.7351Z" fill="#EDEDED" stroke="#DDDDDD" stroke-miterlimit="10"/>
<path d="M185.72 14.3886C185.935 14.6891 184.868 15.3404 183.351 15.8198C181.004 16.5355 177.576 16.9291 176.138 15.047C173.769 11.9482 174.163 3.83293 176.138 2.09393C177.512 0.87735 181.684 0.812943 184.16 1.3783C185.248 1.60014 186.006 1.94365 186.064 2.35156C186.178 3.0672 183.974 3.86871 183.917 8.79229C183.871 10.8075 184.507 12.7791 185.72 14.3886Z" fill="#EDEDED" stroke="#DDDDDD" stroke-miterlimit="10"/>
<path d="M185.72 14.3887C185.935 14.6893 184.869 15.3405 183.351 15.82C183.014 15.6178 182.715 15.3559 182.471 15.0471C180.11 11.9484 180.489 3.83305 182.471 2.09405C182.972 1.72883 183.55 1.48394 184.16 1.37842C185.248 1.60027 186.006 1.94377 186.064 2.35168C186.178 3.06732 183.974 3.86883 183.917 8.79241C183.871 10.8076 184.507 12.7792 185.72 14.3887Z" fill="#F9F9F9" stroke="#DDDDDD" stroke-linecap="round" stroke-linejoin="round"/>
<path d="M439.664 295.583C439.664 295.583 444.086 308.093 441.811 308.601C440.644 308.858 431.835 309.123 423.512 309.059C415.583 309.009 408.09 308.658 408.061 307.72C407.961 304.858 410.287 303.427 415.046 301.573L416.534 301.015C418.076 300.433 419.523 299.625 420.828 298.618C422.869 297.054 424.602 295.125 425.938 292.928L421.436 225.809C421.472 204.547 443.936 206.086 443.936 225.809C443.578 238.576 439.664 295.583 439.664 295.583Z" fill="#FEBD9D"/>
<path d="M441.811 308.601C440.644 308.858 431.835 309.123 423.512 309.059C415.583 309.009 408.09 308.658 408.061 307.72C407.961 304.858 410.287 303.427 415.046 301.573C417.469 301.805 419.908 301.805 422.331 301.573C428.513 301.051 434.468 299.002 439.664 295.612C439.664 295.612 444.086 308.093 441.811 308.601Z" fill="#83ADDF"/>
<path d="M509.896 278.458C509.896 278.458 519.622 287.482 517.84 288.992C516.058 290.502 488.499 305.559 487.54 303.885C486.108 301.373 487.54 299.026 490.875 295.197L491.934 294.009C496.356 289.121 496.528 282.466 496.528 282.466L461.376 225.115C452.073 207.81 470.436 195.323 481.299 214.666C486.896 226.116 509.896 278.458 509.896 278.458Z" fill="#FEBD9D"/>
<path d="M517.876 288.957C516.101 290.459 488.534 305.524 487.575 303.849C486.144 301.337 487.575 298.99 490.91 295.161C496.864 292.735 505.223 287.175 509.932 278.422C509.896 278.458 519.622 287.447 517.876 288.957Z" fill="#83ADDF"/>
<path d="M450.899 127.123C454.012 123.917 474.651 126.858 476.19 127.488C477.728 128.117 487.475 147.626 487.747 149.522C488.019 151.418 485.6 153.315 485.221 153.315C484.842 153.315 485.851 163.334 484.591 164.336C483.332 165.338 477.27 168.307 476.097 167.95C474.923 167.592 458.578 166.411 457.039 162.804C455.501 159.197 448.101 130.014 450.899 127.123Z" fill="#EDEDED" stroke="#DDDDDD" stroke-width="0.75" stroke-linecap="round" stroke-linejoin="round"/>
<path d="M469.964 132.275C471.853 129.835 475.832 131.917 478.086 136.311C480.054 140.147 483.232 149.615 483.232 149.615" stroke="#DDDDDD" stroke-linecap="round" stroke-linejoin="round"/>
<path d="M486.345 218.052C452.853 234.089 420.606 228.565 420.606 228.565L418.581 186.013L417.758 168.702L436.365 148.757L469.942 154.854L476.068 178.47L486.345 218.052Z" fill="#FFB63F"/>
<path d="M476.09 178.484C468.575 187.587 456.875 193.176 447.342 187.029C434.461 178.699 426.847 177.618 418.581 186.013L417.758 168.702L436.365 148.757L469.942 154.854L476.09 178.484Z" fill="#FFCB66"/>
<path d="M454.07 75.3319C454.082 77.148 453.841 78.9568 453.354 80.7064C451.658 86.6748 447.199 90.94 441.968 90.94C438.19 90.94 434.812 88.7072 432.586 85.2149C431.397 83.322 430.583 81.2179 430.189 79.0175C429.957 77.8028 429.842 76.5686 429.845 75.3319C429.845 67.6174 434.196 61.2124 439.907 59.9601C440.583 59.8046 441.275 59.7278 441.968 59.7311C447.378 59.7311 451.987 64.2897 453.519 70.5801C453.881 72.0244 454.071 73.5066 454.084 74.9956C454.07 75.1029 454.07 75.2174 454.07 75.3319Z" fill="#A7CAF0"/>
<path d="M474.873 159.706C474.873 159.706 459.673 168.572 441.238 171.872L436.272 158.568L435.427 173.031C435.427 173.031 418.116 173.875 413.958 173.031C413.958 173.031 413.887 170.276 413.765 166.454C413.536 158.904 413.121 147.196 412.699 144.32C412.534 143.196 412.255 141.622 411.897 139.825C411.883 139.714 411.861 139.604 411.833 139.496C410.809 134.437 409.113 127.817 407.21 124.682C406.419 123.341 405.721 121.947 405.12 120.51C404.404 118.95 403.76 117.197 403.138 115.372C401.843 111.71 400.885 107.937 400.275 104.101C397.277 107.679 394.6 111.078 392.181 114.198C387.315 120.475 383.465 125.649 380.015 128.797C374.841 133.549 365.195 132.812 362.418 125.577C360.378 120.26 374.348 97.6672 384.087 84.0701C387.587 79.1751 390.528 75.4395 392.01 74.0941C397.541 69.0202 411.031 65.9144 417.272 66.7803C417.701 67.0165 427.834 59.5237 438.39 59.7313C438.91 59.7463 439.427 59.8231 439.929 59.9603C442.075 60.5328 444.015 62.2002 445.782 64.5117C447.234 66.4774 448.483 68.585 449.511 70.8022C451.02 74.0131 452.311 77.322 453.375 80.7066C453.805 82.0234 454.198 83.3401 454.556 84.6068C455.809 88.9794 456.653 92.8724 457.075 95.2054C458.549 103.328 460.453 115.472 465.835 130.357C471.216 145.243 474.873 159.706 474.873 159.706Z" fill="#C3DCF8"/>
<path d="M411.833 139.467C410.809 134.408 409.113 127.795 407.21 124.654C406.419 123.312 405.72 121.918 405.12 120.482C406.892 120.143 408.515 119.26 409.762 117.955C411.009 116.651 411.818 114.99 412.076 113.204C412.834 108.674 416.935 98.6762 424.056 100.508C446.054 106.155 425.215 135.567 411.833 139.467Z" fill="#A7CAF0"/>
<path d="M453.468 70.5799H452.824C451.691 70.5595 450.559 70.6386 449.439 70.816C441.303 72.0684 435.52 78.3445 432.565 85.2361C432.235 86.0161 431.935 86.8033 431.67 87.5905C430.888 89.8515 429.631 91.9187 427.983 93.653C426.335 95.3874 424.334 96.7486 422.116 97.6452C415.583 100.429 407.675 99.4343 403.71 93.8309C399.574 87.9841 392.861 83.5114 384.044 84.0911C387.544 79.1961 390.485 75.4605 391.967 74.1151C397.498 69.0413 410.988 65.9354 417.229 66.8013C417.658 67.0375 427.791 59.5447 438.347 59.7523C438.867 59.7673 439.384 59.8442 439.886 59.9813C440.561 59.8259 441.253 59.749 441.947 59.7523C447.357 59.7308 451.944 64.2894 453.468 70.5799Z" fill="#D0E5F7"/>
<path d="M400.239 104.072C397.241 107.65 394.564 111.05 392.145 114.17C389.92 105.661 398.45 105.532 395.008 100.286C393.577 98.1038 392.532 92.2642 397.77 92.4145C398.364 94.9264 399.574 100.057 400.239 104.072Z" fill="#A7CAF0"/>
<path d="M397.42 90.9614C397.42 90.9614 397.563 91.5196 397.785 92.45C398.379 94.9404 399.574 100.071 400.24 104.086" stroke="#83ADDF" stroke-width="0.75" stroke-linecap="round" stroke-linejoin="round"/>
<path d="M401.391 67.8318C400.382 72.5049 404.254 79.9977 407.832 80.47C411.41 80.9423 413.836 71.4887 413.836 71.4887C413.836 71.4887 419.776 78.1227 424.07 76.8632C428.364 75.6037 426.797 61.6917 425.644 61.5629C421.88 61.1406 421.222 63.1802 414.91 64.4898C408.949 65.7207 401.943 65.2412 401.391 67.8318Z" fill="white"/>
<path d="M414.559 79.1534C414.559 79.4166 414.637 79.674 414.784 79.8929C414.93 80.1118 415.138 80.2824 415.381 80.3831C415.624 80.4839 415.892 80.5102 416.15 80.4589C416.408 80.4075 416.645 80.2807 416.832 80.0946C417.018 79.9084 417.145 79.6712 417.196 79.413C417.247 79.1548 417.221 78.8872 417.12 78.644C417.019 78.4007 416.849 78.1929 416.63 78.0466C416.411 77.9003 416.154 77.8223 415.89 77.8223C415.537 77.8223 415.199 77.9625 414.949 78.2121C414.7 78.4618 414.559 78.8003 414.559 79.1534Z" fill="white"/>
<path d="M413.156 79.8188C414.881 93.1655 421.029 125.162 424.256 132.239C427.484 139.317 431.548 141.593 433.058 144.162C435.856 148.935 432.729 150.602 434.948 154.853" stroke="#83ADDF" stroke-width="0.75" stroke-linecap="round" stroke-linejoin="round"/>
<path d="M462.771 168.408C464.432 170.784 468.497 172.638 469.892 173.21" stroke="#F7AD2B" stroke-width="0.75" stroke-linecap="round" stroke-linejoin="round"/>
<path d="M467.91 166.819C470.772 174.205 480.612 217.114 480.612 217.114" stroke="#F7AD2B" stroke-width="0.75" stroke-linecap="round" stroke-linejoin="round"/>
<path d="M423.906 64.2327C423.863 65.1487 421.88 68.734 415.955 72.1047C410.029 75.4753 406.401 70.9596 406.122 68.9845C406.025 68.2104 406.013 67.4282 406.086 66.6515C406.208 64.9912 406.559 62.3577 407.095 56.7686C407.285 54.6141 407.822 52.5045 408.684 50.5211C411.418 44.3594 416.671 42.2555 418.481 49.7267C420.814 59.3377 423.949 63.3095 423.906 64.2327Z" fill="#FEBD9D"/>
<path d="M406.086 66.6299C406.208 64.9696 406.559 62.3361 407.095 56.7469C407.285 54.5925 407.822 52.4829 408.684 50.4994C411.074 50.0343 413.479 50.936 414.516 55.5089C416.534 64.483 410.28 67.5745 406.086 66.6299Z" fill="#F4A789"/>
<path d="M395.022 70.7445C395.022 68.6477 400.569 68.3758 400.748 69.0628C400.926 69.7498 401.592 80.3412 416.298 95.4912C431.005 110.641 448.502 122.421 455.572 125.97C462.643 129.52 472.648 133.205 473.084 133.642C473.521 134.078 470.343 136.576 467.881 136.29C459.344 135.281 438.598 123.623 422.188 109.811C405.149 95.4984 395.008 75.2817 395.022 70.7445Z" fill="#F9F9F9" stroke="#DDDDDD" stroke-linecap="round" stroke-linejoin="round"/>
<path d="M453.876 89.4157C453.54 91.1189 453.096 93.0798 452.545 95.2267C449.354 107.736 442.834 126.335 435.713 134.114C435.449 134.408 435.17 134.687 434.905 134.937C434.401 135.438 433.858 135.898 433.28 136.311C428.593 139.632 422.503 139.525 418.388 136.354C414.91 133.692 412.842 128.84 414.216 122.042C414.446 120.904 414.749 119.783 415.125 118.685C417.2 112.567 419.461 105.088 422.116 97.6384C422.61 96.2071 423.125 94.8403 423.648 93.4591C423.884 92.8436 424.12 92.2353 424.363 91.627C424.55 91.1547 424.728 90.6752 424.929 90.1958C424.95 90.1349 424.973 90.0752 425 90.0169C425.165 89.6018 425.337 89.1867 425.516 88.7788C425.866 87.92 426.231 87.0756 426.603 86.2383C426.761 85.8876 426.918 85.5227 427.083 85.172C427.326 84.6353 427.577 84.0985 427.799 83.5761C427.985 83.1754 428.178 82.7889 428.378 82.3953C432.107 74.8454 436.529 68.605 441.94 65.6781C447.35 62.7511 450.871 65.5278 452.824 70.5659C454.778 75.6039 455.143 83.0251 453.876 89.4157Z" fill="#C3DCF8"/>
<path d="M452.545 95.255C449.354 107.764 442.834 126.364 435.714 134.143C435.449 134.436 435.17 134.715 434.905 134.966C434.401 135.466 433.858 135.926 433.28 136.34C428.593 139.66 422.503 139.553 418.388 136.383C420.034 135.209 422.274 134.558 425.186 134.143C429.427 133.655 433.344 131.64 436.207 128.475C439.506 124.661 440.716 119.386 439.07 113.783C436.372 104.487 445.239 90.7179 452.545 95.255Z" fill="#A7CAF0"/>
<path d="M452.853 70.5731C451.72 70.5564 450.588 70.6354 449.468 70.8093C441.303 72.0831 435.52 78.3592 432.565 85.2365C432.236 86.0166 431.935 86.8038 431.67 87.591C430.887 89.8512 429.629 91.9178 427.981 93.652C426.333 95.3861 424.334 96.7478 422.116 97.6456C426.976 83.9841 433.173 70.4515 441.968 65.6925C447.293 62.8085 450.899 65.535 452.853 70.5731Z" fill="#D0E5F7"/>
<path d="M428.55 82.0942C428.5 82.2016 428.45 82.3018 428.407 82.402C428.207 82.7956 428.013 83.182 427.827 83.5828C427.577 84.1052 427.326 84.6419 427.112 85.1786C426.947 85.5364 426.79 85.8943 426.632 86.2449C426.26 87.0822 425.916 87.9267 425.544 88.7854C425.365 89.1934 425.194 89.6084 425.029 90.0235C425.002 90.0819 424.978 90.1416 424.958 90.2024C424.757 90.6747 424.578 91.1542 424.392 91.6337C424.149 92.242 423.913 92.8503 423.677 93.4657C423.154 94.8469 422.639 96.2495 422.145 97.645C419.49 105.088 417.229 112.573 415.153 118.692C414.778 119.79 414.475 120.911 414.244 122.048C412.87 128.84 414.96 133.692 418.417 136.361C422.532 139.531 428.622 139.639 433.309 136.318C433.886 135.904 434.43 135.445 434.934 134.944C435.198 134.694 435.477 134.414 435.742 134.121C442.863 126.342 449.382 107.743 452.574 95.2333C453.125 93.0864 453.569 91.1256 453.905 89.4224" stroke="#83ADDF" stroke-width="0.75" stroke-linecap="round" stroke-linejoin="round"/>
<path d="M401.32 54.5139C398.042 55.5659 397.863 60.8616 398.343 63.6455C398.822 66.4293 400.139 66.4651 399.366 67.7174C398.593 68.9698 397.992 70.9879 398.565 72.1401C399.137 73.2922 398.794 73.4568 398.228 73.9649C397.663 74.473 394.851 78.6738 398.565 80.4057C398.565 80.4057 398.758 83.2682 401.098 82.617C403.438 81.9658 401.578 76.3981 401.32 75.7898C401.062 75.1815 400.969 73.965 401.578 73.4211C402.186 72.8772 403.596 70.3796 403.145 68.7766C402.694 67.1736 402.894 67.1736 403.71 66.3363C404.526 65.499 407.503 52.5316 401.32 54.5139Z" fill="#704725"/>
<path d="M398.15 60.9048C399.581 64.3542 402.279 66.6299 402.443 72.0759" stroke="#A56A3A" stroke-width="0.75" stroke-linecap="round" stroke-linejoin="round"/>
<path d="M398.407 70.2437C399.882 72.3906 400.282 73.2923 399.552 77.1567C399.18 79.1605 402.157 80.9782 402.157 80.9782" stroke="#A56A3A" stroke-width="0.75" stroke-linecap="round" stroke-linejoin="round"/>
<path d="M408.784 33.1163C408.058 33.6528 407.449 34.3323 406.995 35.1129C403.946 39.6 399.552 49.7047 399.552 49.7047C398.526 47.9638 397.771 46.0768 397.312 44.1085C396.657 41.4574 396.909 38.6632 398.028 36.1721C399.717 32.508 403.682 30.1965 408.462 29.5596C408.448 29.5596 411.396 31.6993 408.784 33.1163Z" fill="#7F542D"/>
<path d="M406.995 35.1416C403.946 39.6286 399.552 49.7334 399.552 49.7334C398.526 47.9925 397.771 46.1054 397.312 44.1371C398.744 36.8662 402.415 32.0572 406.995 35.1416Z" fill="#704725"/>
<path d="M406.279 34.8124C403.116 33.0877 400.898 35.1416 399.366 37.9612" stroke="#A56A3A" stroke-width="0.75" stroke-linecap="round" stroke-linejoin="round"/>
<path d="M418.402 51.4938C413.3 61.9564 404.805 62.8939 401.227 59.008C397.649 55.1221 399.409 42.5483 402 37.6391C404.59 32.7298 409.514 29.8673 414.631 32.8443C419.747 35.8213 420.985 46.1838 418.402 51.4938Z" fill="#FEBD9D"/>
<path d="M429.43 80.9426C427.713 80.3701 427.112 78.2948 427.112 78.2948C425.287 77.8654 425.365 75.9761 425.68 74.5162C425.995 73.0563 426.79 71.5535 425.68 71.2243C423.469 70.5659 423.483 67.8966 423.333 65.9786C423.183 64.0607 423.569 64.5474 420.549 61.1266C417.529 57.7059 418.56 51.1435 418.56 51.1435L415.769 51.8591C415.533 53.0757 415.883 53.8987 416.356 57.5055C416.828 61.1123 414.581 61.649 414.581 61.649C414.581 61.649 415.726 57.9349 413.579 54.7575C411.432 51.58 414.044 46.8855 414.516 43.8225C414.989 40.7596 412.913 39.2425 409.772 37.3818C406.63 35.5211 405.607 32.3723 406.365 29.0804C406.509 28.6007 406.83 28.194 407.264 27.9439C407.698 27.6937 408.211 27.619 408.698 27.735C409.254 27.8913 409.752 28.2073 410.13 28.6439C411.804 30.433 414.051 27.9282 418.817 31.9644C423.584 36.0006 427.827 43.1713 428.536 49.1397C428.954 52.3161 428.821 55.5409 428.142 58.672C427.999 59.3876 427.863 59.9244 427.784 60.4182C427.469 62.3718 427.827 63.0517 429.037 65.6566C430.246 68.2615 428.436 69.4781 428.464 70.4371C428.493 71.396 429.609 71.8683 431.033 74.7309C432.457 77.5934 431.148 81.4937 429.43 80.9426Z" fill="#7F542D"/>
<path d="M429.43 80.9426C427.713 80.3701 427.112 78.2948 427.112 78.2948C425.287 77.8654 425.365 75.9761 425.68 74.5162C425.995 73.0563 426.79 71.5535 425.68 71.2243C423.469 70.5659 423.483 67.8966 423.333 65.9786C423.183 64.0607 423.569 64.5474 420.549 61.1266C417.529 57.7059 418.56 51.1435 418.56 51.1435L415.769 51.8591C415.533 53.0757 415.883 53.8987 416.356 57.5055C416.828 61.1123 414.581 61.649 414.581 61.649C414.581 61.649 415.726 57.9349 413.579 54.7575C411.432 51.58 414.044 46.8855 414.516 43.8225C414.989 40.7596 412.913 39.2425 409.772 37.3818C406.63 35.5211 405.607 32.3723 406.365 29.0804C406.509 28.6007 406.83 28.194 407.264 27.9439C407.698 27.6937 408.211 27.619 408.698 27.735C408.357 29.5107 408.603 31.349 409.398 32.9729C410.193 34.5967 411.495 35.9181 413.107 36.7377C417.493 39.0421 422.718 42.198 421.988 49.4403C421.408 55.1654 424.242 61.692 428.178 58.6935C428.035 59.4091 427.899 59.9458 427.82 60.4396C427.505 62.3933 427.863 63.0732 429.072 65.6781C430.282 68.283 428.471 69.4996 428.5 70.4585C428.529 71.4175 429.645 71.8898 431.069 74.7524C432.493 77.6149 431.148 81.4937 429.43 80.9426Z" fill="#704725"/>
<path d="M411.246 33.4814C412.427 35.9575 414.452 40.0152 414.531 42.2051" stroke="#A56A3A" stroke-width="0.75" stroke-linecap="round" stroke-linejoin="round"/>
<path d="M416.513 36.6089C421.88 37.2458 426.997 46.6278 425.315 52.9612C423.634 59.2946 428.178 58.629 428.178 58.629" stroke="#A56A3A" stroke-width="0.75" stroke-linecap="round" stroke-linejoin="round"/>
<path d="M410.165 28.5791C410.616 32.1072 414.974 32.5795 414.974 32.5795" stroke="#A56A3A" stroke-width="0.75" stroke-linecap="round" stroke-linejoin="round"/>
<path d="M420.549 61.1123C423.233 62.5794 426.167 61.327 426.339 65.6351C426.432 67.9538 427.584 69.929 429.108 68.8984" stroke="#A56A3A" stroke-width="0.75" stroke-linecap="round" stroke-linejoin="round"/>
<path d="M423.906 69.3706C424.626 69.4608 425.321 69.6974 425.947 70.0659C426.574 70.4344 427.118 70.9269 427.547 71.5133C427.976 72.0997 428.28 72.7676 428.442 73.4759C428.603 74.1842 428.618 74.9181 428.486 75.6324C428.374 76.6554 427.884 77.5997 427.112 78.2803" stroke="#A56A3A" stroke-width="0.75" stroke-linecap="round" stroke-linejoin="round"/>
<path d="M406.129 43.2784C406.128 43.4316 406.172 43.5817 406.256 43.7098C406.34 43.8378 406.46 43.938 406.601 43.9976C406.742 44.0572 406.898 44.0735 407.048 44.0445C407.199 44.0155 407.337 43.9424 407.446 43.8346C407.555 43.7268 407.629 43.5891 407.659 43.439C407.69 43.2889 407.675 43.1331 407.617 42.9915C407.558 42.8498 407.459 42.7287 407.332 42.6435C407.205 42.5582 407.055 42.5127 406.902 42.5127C406.698 42.5127 406.503 42.5931 406.358 42.7365C406.213 42.8799 406.131 43.0747 406.129 43.2784Z" fill="#683F1D"/>
<path d="M401.706 43.0141C401.706 43.167 401.752 43.3164 401.837 43.4435C401.921 43.5706 402.042 43.6697 402.183 43.7282C402.325 43.7867 402.48 43.802 402.63 43.7721C402.78 43.7423 402.918 43.6687 403.026 43.5606C403.134 43.4525 403.207 43.3148 403.237 43.1649C403.267 43.015 403.252 42.8596 403.193 42.7183C403.135 42.5771 403.036 42.4564 402.909 42.3715C402.782 42.2865 402.632 42.2412 402.479 42.2412C402.378 42.2412 402.277 42.2612 402.183 42.3C402.09 42.3389 402.004 42.3958 401.933 42.4676C401.861 42.5394 401.804 42.6246 401.765 42.7183C401.726 42.8121 401.706 42.9126 401.706 43.0141Z" fill="#683F1D"/>
<path d="M415.697 52.8112C417.701 53.5268 422.467 51.8808 422.36 47.1791C422.252 42.4774 417.737 43.2216 416.069 46.213C414.824 48.503 415.697 52.8112 415.697 52.8112Z" fill="#FEBD9D"/>
<path d="M415.697 52.8108C416.759 53.0753 417.88 52.9692 418.874 52.5103" stroke="#EF8A66" stroke-width="0.75" stroke-linecap="round" stroke-linejoin="round"/>
<path d="M416.513 49.0678C417.085 46.8279 418.882 45.232 420.442 45.8904" stroke="#EF8A66" stroke-width="0.75" stroke-linecap="round" stroke-linejoin="round"/>
<path d="M418.209 49.376C420.885 48.4671 418.767 45.5974 417.229 47.4008" stroke="#EF8A66" stroke-width="0.75" stroke-linecap="round" stroke-linejoin="round"/>
<path d="M403.71 50.3493C405.592 51.1007 406.895 49.8412 407.754 48.0449" stroke="#EF8A66" stroke-width="0.75" stroke-linecap="round" stroke-linejoin="round"/>
<path d="M402.079 48.7392C401.749 47.4654 401.814 46.0055 402.658 45.3686C403.503 44.7316 405.521 43.5437 405.041 41.5972" stroke="#EF8A66" stroke-width="0.75" stroke-linecap="round" stroke-linejoin="round"/>
<path d="M406.079 39.6287C405.685 40.6592 409.657 42.3624 410.101 41.3391C410.43 40.5948 406.837 37.6392 406.079 39.6287Z" fill="#7F542D"/>
<path d="M400.726 40.9168C400.726 41.6325 404.304 40.6664 404.304 39.4283C404.297 37.7537 400.762 40.008 400.726 40.9168Z" fill="#7F542D"/>
<path d="M378.877 152.091C376.537 152.22 374.977 148.57 374.805 147.232C374.634 145.894 381.905 143.918 381.905 143.918C381.905 143.918 381.468 151.526 378.877 152.091Z" fill="#83ADDF"/>
<path d="M378.119 136.891C371.829 137.399 369.302 137.564 365.86 137.063C362.418 136.562 361.144 137.435 360.729 138.43C360.729 138.43 355.39 137.435 354.188 138.766C352.986 140.097 354.023 142.158 354.904 142.344C355.784 142.53 356.192 143.01 355.813 144.126C355.649 144.578 355.597 145.064 355.663 145.54C355.73 146.016 355.911 146.47 356.192 146.86C356.686 147.647 354.947 148.47 355.526 149.801C356.106 151.132 356.6 151.869 356.242 153.15C355.884 154.431 358.976 154.639 365.545 153.401C372.115 152.163 380.473 149.901 380.473 149.901C380.473 149.901 386.528 140.069 378.119 136.891Z" fill="#FEBD9D"/>
<path d="M365.86 137.062C362.425 136.569 361.144 137.435 360.729 138.429C360.729 138.429 355.39 137.435 354.188 138.766C352.986 140.097 354.023 142.158 354.904 142.344C355.784 142.53 356.192 143.009 355.813 144.126C355.649 144.578 355.597 145.063 355.663 145.54C355.73 146.016 355.911 146.469 356.192 146.859C356.686 147.647 354.947 148.47 355.526 149.801C356.106 151.132 356.6 151.869 356.242 153.15C356.013 154.03 357.387 154.402 360.393 154.152" stroke="#EF8A66" stroke-width="0.75" stroke-linecap="round" stroke-linejoin="round"/>
<path d="M360.729 138.43C360.729 138.43 364.014 138.723 365.123 138.766" stroke="#EF8A66" stroke-width="0.75" stroke-linecap="round" stroke-linejoin="round"/>
<path d="M434.905 134.937C434.838 135.051 434.763 135.161 434.683 135.266C433.238 137.183 431.366 138.736 429.215 139.803C426.102 141.471 420.828 143.16 414.831 144.734C399.273 148.806 378.87 152.084 378.87 152.084C378.87 152.084 381.246 147.525 375.679 136.848L376.122 136.626L376.323 136.526C378.169 135.603 383.816 132.862 390.915 129.906L391.823 129.527C392.539 129.241 393.212 128.954 393.92 128.675L394.743 128.346C395.996 127.852 397.277 127.358 398.572 126.872L399.538 126.521C401.191 125.913 402.866 125.333 404.548 124.782L405.456 124.489C406.973 123.995 408.491 123.537 409.993 123.122L410.888 122.871L412.677 122.449C413.2 122.32 413.708 122.192 414.223 122.084L414.438 122.041C415.346 121.834 416.248 121.648 417.121 121.49L417.837 121.361L418.667 121.225C423.319 120.51 427.412 120.51 430.339 121.648C431.797 122.228 433.092 123.154 434.113 124.346C435.134 125.538 435.85 126.959 436.2 128.489C436.424 129.596 436.425 130.737 436.202 131.844C435.98 132.951 435.539 134.003 434.905 134.937Z" fill="#C3DCF8"/>
<path d="M434.905 134.937C434.838 135.051 434.764 135.161 434.683 135.266C433.238 137.183 431.366 138.737 429.216 139.803C426.103 141.471 420.828 143.16 414.831 144.734C414.996 140.519 416.119 137.957 418.409 136.354C420.055 135.18 422.295 134.529 425.208 134.114C429.448 133.626 433.366 131.612 436.229 128.446C436.455 129.562 436.454 130.711 436.226 131.826C435.999 132.941 435.549 133.999 434.905 134.937Z" fill="#A7CAF0"/>
<path d="M414.824 144.734C420.821 143.159 426.095 141.471 429.208 139.803C431.227 138.545 433.067 137.018 434.676 135.266C435.098 134.822 435.449 134.429 435.706 134.114" stroke="#83ADDF" stroke-width="0.75" stroke-linecap="round" stroke-linejoin="round"/>
<path d="M407.017 123.995C410.829 122.784 414.722 121.844 418.667 121.183" stroke="#83ADDF" stroke-width="0.75" stroke-linecap="round" stroke-linejoin="round"/>
<path d="M381.633 136.891C382.899 139.582 384.803 145.336 384.696 147.232" stroke="#83ADDF" stroke-width="0.75" stroke-linecap="round" stroke-linejoin="round"/>
<path d="M310.048 135.067C308.616 162.347 306.155 247.543 305.21 280.477C304.981 288.7 304.845 293.666 304.845 293.666C304.845 293.666 293.438 296.636 284.413 293.666L284.349 280.82L284.127 235.363L283.862 183.2L283.769 162.569L283.619 132.004C284.621 113.619 310.048 112.259 310.048 135.067Z" fill="#93BEE5"/>
<path d="M284.127 235.363L283.863 183.2L283.77 162.568C285.437 162.139 287.477 162.518 289.953 163.907C297.059 167.864 296.823 186.843 291.906 193.613C287.29 200.003 299.671 222.589 284.127 235.363Z" fill="#83ADDF"/>
<path d="M286.095 291.877L285.38 308.666H319.73C319.73 308.666 320.346 305.431 315.265 303.277C310.184 301.123 299.32 292.027 299.091 291.877C298.862 291.727 286.095 291.877 286.095 291.877Z" fill="#683F1D"/>
<path d="M305.21 280.477C304.981 288.699 304.845 293.666 304.845 293.666C304.845 293.666 293.438 296.636 284.414 293.666L284.349 280.82C291.275 281.847 298.322 281.731 305.21 280.477Z" fill="#C3DCF8"/>
<path d="M290.919 157.151C290.919 158.131 290.861 159.105 290.833 160.078C290.833 160.185 290.833 160.293 290.833 160.4C290.833 160.679 290.833 160.944 290.833 161.223C290.833 161.845 290.776 162.454 290.754 163.069C290.697 164.429 290.625 165.781 290.546 167.141C290.546 167.635 290.489 168.129 290.461 168.615C290.418 169.252 290.382 169.896 290.339 170.533C290.282 171.414 290.217 172.279 290.153 173.167C290.11 173.675 290.074 174.19 290.031 174.705C289.945 175.786 289.859 176.852 289.759 177.94C289.688 178.699 289.616 179.464 289.552 180.237C289.502 180.745 289.444 181.246 289.394 181.754C289.33 182.391 289.266 183.035 289.194 183.687C289.151 184.123 289.108 184.56 289.058 184.996C289.015 185.318 288.986 185.648 288.951 185.977L288.757 187.623C288.686 188.238 288.607 188.861 288.528 189.49C288.471 189.963 288.414 190.449 288.349 190.922C288.285 191.394 288.228 191.881 288.163 192.353C288.049 193.24 287.934 194.135 287.806 195.044C287.491 197.391 287.14 199.803 286.761 202.293C286.646 203.009 286.532 203.782 286.41 204.54C283.226 224.836 270.451 264.389 263.324 285.872C261.363 291.784 259.824 296.321 259.03 298.754C259.03 298.754 244.803 299.026 237.747 293.329C237.747 293.329 239.407 287.669 241.719 279.575C246.885 261.484 255.351 231.248 255.917 225.186C256.189 222.159 256.632 211.69 257.055 199.245C257.892 175.507 258.772 144.613 258.772 144.613C258.915 133.928 264.862 127.702 271.654 125.713C280.077 123.23 289.781 127.273 291.169 137.364C291.155 144.391 291.112 150.86 290.919 157.151Z" fill="#93BEE5"/>
<path d="M290.833 160.078C290.269 174.984 288.778 189.841 286.367 204.562" stroke="white" stroke-width="0.75" stroke-linecap="round" stroke-linejoin="round"/>
<path d="M269.936 158.84C263.417 160.987 260.375 166.877 264.14 174.813C267.317 181.49 265.821 192.396 257.019 199.216C257.856 175.479 258.737 144.585 258.737 144.585C258.88 133.9 264.827 127.674 271.618 125.685C274.931 127.288 277.78 131.224 278.832 138.337C280.091 146.975 277.422 156.407 269.936 158.84Z" fill="#83ADDF"/>
<path d="M289.967 157.766C291.878 156.471 292.636 156.292 292.829 155.619C293.023 154.947 293.187 146.674 293.187 146.674" stroke="white" stroke-width="0.75" stroke-linecap="round" stroke-linejoin="round"/>
<path d="M294.511 158.847C292.271 159.277 290.84 159.849 290.819 160.4" stroke="white" stroke-width="0.75" stroke-linecap="round" stroke-linejoin="round"/>
<path d="M288.657 149.086C288.757 152.049 288.657 155.527 288.657 155.527" stroke="white" stroke-width="0.75" stroke-linecap="round" stroke-linejoin="round"/>
<path d="M261.613 144.384C261.334 149.873 261.613 157.731 261.613 157.731C261.613 157.731 267.789 153.487 266.666 144.384" stroke="white" stroke-width="0.75" stroke-linecap="round" stroke-linejoin="round"/>
<path d="M242.041 290.66L235.85 306.283L268.29 317.611C268.29 317.611 269.936 314.749 265.85 311.049C261.764 307.349 254.521 295.176 254.335 294.954C254.149 294.732 242.041 290.66 242.041 290.66Z" fill="#683F1D"/>
<path d="M263.281 285.894C261.32 291.805 259.781 296.343 258.987 298.776C258.987 298.776 244.76 299.048 237.704 293.351C237.704 293.351 239.364 287.691 241.676 279.597C247.666 282.452 257.105 284.835 263.281 285.894Z" fill="#C3DCF8"/>
<path d="M335.195 110.398L334.48 109.854C327.602 104.33 305.983 86.0595 305.983 86.0595C306.19 87.7555 306.971 94.3394 307.915 102.369C309.819 118.435 312.395 140.298 312.395 140.298C298.734 143.454 288.342 145.057 280.528 145.751C263.56 147.282 258.701 144.606 258.701 144.606C258.701 144.606 256.897 137.786 254.514 128.425C254.25 127.366 253.963 126.278 253.684 125.148C251.773 117.612 249.598 108.867 247.701 100.816C245.92 93.2588 244.388 86.3314 243.551 81.6154C243.168 79.7824 242.945 77.9194 242.885 76.0477C243.104 73.3596 244.353 70.86 246.37 69.0703C248.199 67.3715 250.314 66.0099 252.618 65.0484C245.605 60.4325 250.557 46.9141 262.873 49.698C264.87 50.1488 267.002 50.0057 270.115 49.469C272.047 49.1255 274.366 48.6388 277.272 48.0377L279.419 47.594C281.923 47.0787 284.006 46.7066 285.73 46.4633C294.01 45.2968 294.175 46.9643 293.932 49.2471C293.932 49.2471 303.442 46.4848 309.561 53.362C311.536 55.5805 313.447 57.8133 315.343 60.089C323.444 69.8217 331.245 80.2414 342.788 93.2803C357.072 109.346 341.164 115.15 335.195 110.398Z" fill="#FFB63F"/>
<path d="M296.644 136.891C294.554 138.509 287.906 142.395 280.564 145.73C263.596 147.261 258.737 144.585 258.737 144.585C258.737 144.585 256.933 137.764 254.55 128.404C254.285 127.345 253.999 126.257 253.72 125.126C251.809 117.591 249.634 108.846 247.737 100.795C249.083 95.957 251.616 92.2071 255.803 90.4108C271.332 83.8198 277.365 93.2734 276.227 100.652C275.089 108.03 276.606 114.921 288.657 116.553C300.709 118.185 301.374 133.242 296.644 136.891Z" fill="#FF9400"/>
<path d="M334.515 109.855C327.638 104.33 306.019 86.0596 306.019 86.0596C306.019 86.0596 305.031 77.4219 304.358 70.9883C309.819 72.2693 313.891 75.8188 312.696 81.0072C311.264 87.2189 317.898 93.173 323.938 92.5576C329.527 91.9707 336.948 104.802 334.515 109.855Z" fill="#FF9400"/>
<path d="M315.393 60.075C308.86 60.2253 303.142 64.0826 300.022 72.5557C297.731 78.7961 294.497 82.5747 290.597 84.1992C284.936 86.5536 277.873 84.3781 270.201 78.6029C268.478 77.2672 266.508 76.2845 264.404 75.711C262.301 75.1376 260.105 74.9846 257.942 75.2608C253.112 75.8119 248.202 78.195 243.586 81.6085C243.203 79.7755 242.98 77.9126 242.921 76.0409C243.14 73.3528 244.388 70.8531 246.406 69.0634C248.235 67.3647 250.35 66.0031 252.654 65.0416C245.64 60.4257 250.593 46.9073 262.909 49.6912C264.905 50.142 267.038 49.9989 270.151 49.4621C272.083 49.1186 274.402 48.632 277.307 48.0309L279.454 47.5872C281.959 47.0719 284.041 46.6998 285.766 46.4565C294.046 45.29 294.211 46.9574 293.967 49.2403C293.967 49.2403 303.478 46.4779 309.597 53.3552C311.586 55.5665 313.497 57.7993 315.393 60.075Z" fill="#FFCB66"/>
<path d="M306.047 86.0596C306.047 86.0596 305.06 77.4219 304.387 70.9883C304.251 69.6787 304.129 68.4621 304.029 67.4102" stroke="#F7AD2B" stroke-width="0.75" stroke-linecap="round" stroke-linejoin="round"/>
<path d="M287.197 67.4248C290.625 73.9299 293.237 111.293 293.459 116.088C293.681 120.883 296.529 120.182 296.644 124.948C296.658 126.377 296.371 127.794 295.803 129.105C295.235 130.417 294.397 131.595 293.345 132.562" stroke="#F7AD2B" stroke-width="0.75" stroke-linecap="round" stroke-linejoin="round"/>
<path d="M285.465 61.1054C281.037 58.4511 276.201 56.5458 271.153 55.4662C271.153 55.4662 269.328 44.7317 268.247 37.6397C266.265 24.6223 279.468 25.8031 282.288 36.0582C282.431 36.602 282.639 37.2747 282.882 38.0405C284.041 41.6616 286.067 47.2936 287.176 50.3494C287.655 51.6662 287.97 52.4963 287.97 52.4963C284.578 55.8026 285.465 61.1054 285.465 61.1054Z" fill="#FEBD9D"/>
<path d="M287.198 50.3495C280.607 52.754 275.697 49.047 275.697 42.2127L280.814 38.4127L282.882 38.0405C284.042 41.6616 286.067 47.308 287.198 50.3495Z" fill="#F4A789"/>
<path d="M262.909 54.2926C267.718 54.3928 275.189 55.5164 285.466 61.1055C285.466 61.1055 283.863 54.171 290.876 50.1777" stroke="#F7AD2B" stroke-width="0.75" stroke-linecap="round" stroke-linejoin="round"/>
<path d="M266.952 107.586C264.787 115.53 260.488 122.73 254.521 128.404C249.755 109.733 242.656 80.9573 242.892 76.0408C243.243 68.6626 252.625 65.0415 252.625 65.0415C267.224 68.8773 271.489 91.3197 266.952 107.586Z" fill="#F9F9F9" stroke="#DDDDDD" stroke-linecap="round" stroke-linejoin="round"/>
<path d="M225.953 103.7C224.522 95.928 224.078 93.5736 225.574 90.6252C227.07 87.6767 231.299 84.5995 233.775 86.0952C236.251 87.5909 238.52 96.1141 238.52 96.1141L235.572 97.8245C235.572 97.8245 234.14 86.9611 231.17 88.0417C228.201 89.1223 226.039 92.8293 227.664 100.208L225.953 103.7Z" fill="#EDEDED" stroke="#DDDDDD" stroke-width="0.75" stroke-linecap="round" stroke-linejoin="round"/>
<path d="M261.492 139.575C258.665 147.254 252.06 163.298 246.885 164.042C243.319 164.532 239.699 164.472 236.151 163.864C234.469 163.527 233.145 163.012 232.537 162.318C229.712 158.923 227.395 155.136 225.66 151.075C223.935 146.667 219.491 127.173 220.106 120.51C220.722 113.848 224.794 94.5398 238.491 86.6678C245.089 82.8678 248.853 93.953 254.164 106.534C258.243 116.216 262.036 126.006 262.307 133.506C262.429 135.563 262.152 137.623 261.492 139.575Z" fill="#F9F9F9" stroke="#DDDDDD" stroke-linecap="round" stroke-linejoin="round"/>
<path d="M261.492 139.575C258.665 147.254 252.06 163.298 246.886 164.043C243.319 164.532 239.699 164.472 236.151 163.864C232.723 157.337 231.786 155.448 232.509 151.054C233.231 146.66 239.185 135.99 241.511 134.394C243.658 132.963 255.144 130.064 262.265 133.514C262.4 135.565 262.137 137.623 261.492 139.575Z" fill="#EDEDED" stroke="#DDDDDD" stroke-width="0.75" stroke-linecap="round" stroke-linejoin="round"/>
<path d="M230.083 100.702C231.85 107.98 233.897 116.31 234.763 118.199C235.629 120.088 238.928 128.404 238.928 128.404" fill="#F9F9F9"/>
<path d="M230.083 100.702C231.85 107.98 233.897 116.31 234.763 118.199C235.629 120.088 238.928 128.404 238.928 128.404" stroke="#DDDDDD" stroke-width="0.75" stroke-linecap="round" stroke-linejoin="round"/>
<path d="M236.674 117.333C241.125 114.886 249.927 114.041 252.568 114.149Z" fill="#F9F9F9"/>
<path d="M236.674 117.333C241.125 114.886 249.927 114.041 252.568 114.149" stroke="#DDDDDD" stroke-width="0.75" stroke-linecap="round" stroke-linejoin="round"/>
<path d="M218.382 127.459C219.133 128.762 221.402 126.7 223.191 123.881C224.98 121.061 229.918 111.1 229.782 108.495C229.646 105.89 227.857 102.999 228.751 99.2844C229.646 95.5703 238.577 86.9683 241.733 86.0523C241.074 85.7156 240.344 85.54 239.604 85.54C238.864 85.54 238.134 85.7156 237.475 86.0523C235.142 87.1973 223.735 97.9104 220.579 109.039C217.423 120.167 217.616 126.142 218.382 127.459Z" fill="#EDEDED" stroke="#DDDDDD" stroke-width="0.75" stroke-linecap="round" stroke-linejoin="round"/>
<path d="M225.245 112.531L227.141 109.991L230.083 118.8L228.122 121.305L225.245 112.531Z" fill="#DDDDDD" stroke="#DDDDDD" stroke-linecap="round" stroke-linejoin="round"/>
<path d="M218.79 124.732L220.264 122.75L222.561 129.62L221.03 131.574L218.79 124.732Z" fill="#DDDDDD" stroke="#DDDDDD" stroke-linecap="round" stroke-linejoin="round"/>
<path d="M377.16 24.2571H348.227L349.579 18.1885H378.513L377.16 24.2571Z" fill="#DDDDDD"/>
<path d="M387.723 91.9277L415.124 239.098C415.058 239.615 414.84 240.099 414.497 240.492C414.155 240.884 413.705 241.166 413.202 241.302C412.7 241.438 412.169 241.423 411.675 241.257C411.182 241.092 410.748 240.784 410.43 240.372L410.337 240.258L383.98 100.265L387.723 91.9277Z" fill="#F9F9F9" stroke="#DDDDDD" stroke-linecap="round" stroke-linejoin="round"/>
<path d="M368.644 91.9277L341.235 239.098C341.302 239.615 341.52 240.099 341.862 240.492C342.204 240.884 342.655 241.166 343.157 241.302C343.66 241.438 344.191 241.423 344.684 241.257C345.178 241.092 345.611 240.784 345.93 240.372L346.023 240.258L372.38 100.265L368.644 91.9277Z" fill="#F9F9F9" stroke="#DDDDDD" stroke-linecap="round" stroke-linejoin="round"/>
<path d="M329.985 91.9277L302.576 239.098C302.645 239.614 302.865 240.099 303.207 240.49C303.55 240.882 304.001 241.163 304.504 241.299C305.006 241.435 305.537 241.42 306.031 241.255C306.525 241.09 306.959 240.783 307.278 240.372L307.364 240.258L333.721 100.265L329.985 91.9277Z" fill="#F9F9F9" stroke="#DDDDDD" stroke-linecap="round" stroke-linejoin="round"/>
<path d="M306.691 137.922L310.048 140.82H381.168L382.721 137.922H306.691Z" fill="#EDEDED" stroke="#DDDDDD" stroke-width="0.75" stroke-linecap="round" stroke-linejoin="round"/>
<path d="M327.452 21.7168H399.552L382.721 137.922H306.691L327.452 21.7168Z" fill="#F9F9F9" stroke="#DDDDDD" stroke-linecap="round" stroke-linejoin="round"/>
<path d="M257.234 130.88C255.967 129.032 254.794 127.121 253.72 125.155C248.26 115.258 242.907 101.239 241.468 92.8014C240.962 89.9221 240.644 87.0128 240.516 84.0921C240.244 77.0001 241.576 70.8814 246.406 69.0637C249.319 67.9974 253.434 69.1782 257.928 75.2683C261.656 80.3207 265.657 88.758 269.464 102.083C281.272 143.29 265.542 142.86 257.234 130.88Z" fill="#FFB63F"/>
<path d="M257.942 75.2608C253.112 75.8118 248.202 78.1949 243.587 81.6085C242.549 82.3814 241.518 83.1972 240.516 84.0631C240.244 76.9712 241.576 70.8525 246.406 69.0348C249.333 67.9899 253.448 69.1707 257.942 75.2608Z" fill="#FFCB66"/>
<path d="M303.671 158.568C304.759 159.119 307.071 157.136 308.466 153.05C308.466 153.05 302.533 150.13 302.405 150.13C302.276 150.13 300.837 156.528 303.671 158.568Z" fill="#F7AD2B"/>
<path d="M306.591 139.818C311.923 141.893 313.247 142.402 314.463 142.509C315.68 142.616 320.188 142.037 321.269 142.509C322.35 142.981 323.223 144.656 323.223 144.656C323.223 144.656 327.724 144.141 328.833 144.878C329.942 145.615 329.821 147.74 328.926 148.298C328.032 148.857 327.13 149.3 327.395 150.832C327.66 152.363 327.445 153.108 326.922 153.58C326.4 154.052 327.867 154.897 326.765 156.693C325.663 158.489 326.708 159.756 325.069 160.393C323.43 161.03 301.417 155.219 300.365 154.16C299.313 153.1 300.494 137.478 306.591 139.818Z" fill="#FEBD9D"/>
<path d="M317.698 142.38C319.193 142.301 320.718 142.258 321.276 142.509C322.335 142.988 323.23 144.656 323.23 144.656C323.23 144.656 327.731 144.141 328.84 144.878C329.949 145.615 329.828 147.74 328.933 148.298C328.039 148.857 327.137 149.3 327.402 150.832C327.667 152.363 327.452 153.107 326.929 153.58C326.407 154.052 327.874 154.897 326.772 156.693C325.67 158.489 326.715 159.756 325.076 160.393C324.668 160.55 322.993 160.307 320.696 159.834" stroke="#EF8A66" stroke-width="0.75" stroke-linecap="round" stroke-linejoin="round"/>
<path d="M323.223 144.635C321.528 144.671 319.833 144.592 318.149 144.398" stroke="#EF8A66" stroke-width="0.75" stroke-linecap="round" stroke-linejoin="round"/>
<path d="M259.259 117.769C264.648 110.828 272.141 114.592 285.494 122.872C294.088 128.274 302.293 134.271 310.048 140.82C310.048 140.82 302.784 149.773 303.671 158.568C303.671 158.568 267.403 141.257 262.057 135.918C257.842 131.71 255.158 123.051 259.259 117.769Z" fill="#FFB63F"/>
<path d="M264.104 114.378C269.063 113.161 275.69 116.811 285.494 122.872C294.088 128.274 302.293 134.271 310.048 140.82" stroke="#F7AD2B" stroke-width="0.75" stroke-linecap="round" stroke-linejoin="round"/>
<path d="M284.242 45.877C279.275 47.5588 272.556 46.0845 268.162 38.8924C265.456 34.6586 264.296 29.6204 264.877 24.6298C265.156 21.9747 267.324 15.8918 274.309 17.9242C280.564 19.7276 283.512 23.6493 285.416 28.8735C285.645 29.4889 285.859 30.1258 286.06 30.7842C286.367 31.8076 286.668 32.8596 286.918 33.9116C288.192 39.1643 288.378 44.4457 284.242 45.877Z" fill="#FEBD9D"/>
<path d="M276.205 32.8521C275.719 34.3335 273.414 34.8988 271.074 34.1188C268.734 33.3387 267.231 31.5067 267.725 30.0253C268.219 28.544 270.516 27.9786 272.863 28.7587C275.211 29.5387 276.706 31.3707 276.205 32.8521Z" fill="#F4AF90"/>
<path d="M286.918 33.8755C286.553 33.9588 286.173 33.9542 285.81 33.8622C285.447 33.7701 285.11 33.5932 284.829 33.3459C283.863 32.3726 284.113 30.4834 285.416 28.8374C285.645 29.4528 285.859 30.0898 286.06 30.7482C286.367 31.7715 286.668 32.8235 286.918 33.8755Z" fill="#F4AF90"/>
<path d="M281.379 27.5638C281.378 27.7442 281.43 27.9209 281.53 28.0714C281.629 28.222 281.771 28.3396 281.937 28.4093C282.104 28.4789 282.287 28.4975 282.464 28.4627C282.641 28.4279 282.803 28.3412 282.931 28.2136C283.058 28.0861 283.145 27.9235 283.18 27.7465C283.215 27.5696 283.196 27.3862 283.127 27.2199C283.057 27.0535 282.939 26.9116 282.789 26.8123C282.638 26.713 282.461 26.6607 282.281 26.6621C282.042 26.6621 281.813 26.7571 281.644 26.9262C281.474 27.0953 281.379 27.3247 281.379 27.5638Z" fill="#683F1D"/>
<path d="M276.742 28.5653C276.741 28.7453 276.793 28.9217 276.892 29.0721C276.991 29.2225 277.132 29.3401 277.298 29.41C277.464 29.4799 277.647 29.4989 277.824 29.4647C278 29.4304 278.163 29.3444 278.291 29.2176C278.419 29.0908 278.506 28.9289 278.542 28.7524C278.577 28.5759 278.56 28.3928 278.491 28.2263C278.423 28.0598 278.306 27.9174 278.157 27.8173C278.007 27.7171 277.831 27.6636 277.651 27.6636C277.411 27.6636 277.181 27.7583 277.011 27.9272C276.84 28.0961 276.744 28.3255 276.742 28.5653Z" fill="#683F1D"/>
<path d="M283.934 20.1926C282.904 21.2517 281.544 20.1926 281.544 20.1926C281.709 21.7455 278.216 23.0551 275.704 23.3199C273.193 23.5847 274.273 21.2589 272.334 20.393C270.394 19.527 267.725 21.631 267.725 21.631C267.725 21.631 271.797 24.3862 272.019 28.0717C272.173 30.2142 271.533 32.3385 270.223 34.0401L265.771 34.9848C264.169 34.2279 262.698 33.2206 261.413 32.0006C259.03 29.7034 257.67 26.8265 258.322 24.0069C259.309 19.7131 263.596 18.9975 263.596 18.9975C263.681 17.6786 264.109 16.4047 264.837 15.3015C265.564 14.1984 266.567 13.3041 267.747 12.707C271.117 10.8535 274.66 11.2757 275.962 12.2919C277.264 13.3081 277.651 13.5586 280.063 14.0381H280.17C280.492 14.0679 280.805 14.1627 281.089 14.3168C281.373 14.4709 281.623 14.6811 281.824 14.9347C282.025 15.1882 282.172 15.4799 282.257 15.792C282.341 16.1041 282.362 16.4301 282.317 16.7504C282.317 16.7504 284.965 19.1191 283.934 20.1926Z" fill="#BF8228"/>
<path d="M283.934 20.1924C282.904 21.2516 281.544 20.1924 281.544 20.1924C281.709 21.7454 278.216 23.055 275.704 23.3198C273.192 23.5846 274.273 21.2587 272.334 20.3928C270.394 19.5269 267.725 21.6309 267.725 21.6309C267.725 21.6309 271.797 24.3861 272.019 28.0716C272.173 30.2141 271.533 32.3384 270.223 34.04L265.771 34.9847C264.169 34.2278 262.698 33.2204 261.413 32.0004C265.979 30.24 264.369 26.1895 264.047 23.2196C263.596 19.026 265.965 15.5551 271.203 17.4945C274.223 18.5894 277.644 16.3996 280.091 14.0952H280.199C280.521 14.125 280.833 14.2198 281.117 14.3739C281.402 14.528 281.652 14.7382 281.853 14.9918C282.053 15.2454 282.2 15.537 282.285 15.8491C282.37 16.1612 282.39 16.4872 282.345 16.8075C282.345 16.8075 284.965 19.119 283.934 20.1924Z" fill="#B57724"/>
<path d="M281.544 20.1854C281.029 18.6039 280.749 18.6254 279.003 18.4393C277.257 18.2532 275.096 18.0028 274.523 16.8506" stroke="#9B621F" stroke-width="0.75" stroke-linecap="round" stroke-linejoin="round"/>
<path d="M282.288 16.8217C280.864 16.2114 279.303 15.9916 277.765 16.1847" stroke="#9B621F" stroke-width="0.75" stroke-linecap="round" stroke-linejoin="round"/>
<path d="M273.615 26.8693C273.386 27.7495 278.531 26.5472 277.701 24.7224C276.871 22.8975 274.03 25.302 273.615 26.8693Z" fill="#BF8228"/>
<path d="M279.476 24.0999C279.318 25.2234 283.283 25.3379 283.29 24.4076C283.297 23.4773 279.705 22.4324 279.476 24.0999Z" fill="#BF8228"/>
<path d="M279.032 26.4399C279.805 28.9661 281.479 29.3955 282.488 30.0611C283.498 30.7266 283.29 32.7948 283.29 32.7948" stroke="#EF8A66" stroke-width="0.75" stroke-linecap="round" stroke-linejoin="round"/>
<path d="M277.543 33.353C278.574 35.0562 280.091 36.0438 281.766 35.4999" stroke="#EF8A66" stroke-width="0.75" stroke-linecap="round" stroke-linejoin="round"/>
<path d="M270.201 34.0544C269.335 30.605 263.76 28.773 262.987 33.6465C262.322 37.8616 266.287 38.2122 268.369 38.0691L270.201 34.0544Z" fill="#FEBD9D"/>
<path d="M264.734 33.4462C267.009 32.3441 268.598 34.2835 268.877 35.314" stroke="#EF8A66" stroke-width="0.75" stroke-linecap="round" stroke-linejoin="round"/>
<path d="M268.584 34.6552C266.702 31.8857 264.29 36.1222 267.518 36.4514" stroke="#EF8A66" stroke-width="0.75" stroke-linecap="round" stroke-linejoin="round"/>
<path d="M267.711 38.0903C268.3 38.1033 268.888 38.0187 269.45 37.8398" stroke="#EF8A66" stroke-width="0.75" stroke-linecap="round" stroke-linejoin="round"/>
<path d="M200.548 299.734C202.201 296.299 207.504 292.105 209.408 294.517C211.834 297.587 201.872 299.734 201.872 299.734" stroke="#F7AD2B" stroke-width="0.75" stroke-linecap="round" stroke-linejoin="round"/>
<path d="M201.364 299.348C204.227 297.301 209.78 289.501 207.325 288.663C204.577 287.74 201.364 298.367 201.364 298.367" stroke="#F7AD2B" stroke-width="0.75" stroke-linecap="round" stroke-linejoin="round"/>
<path d="M210.939 308.665H184.511L184.947 294.081L186.164 253.661L205.944 252.695C205.944 252.695 198.666 294.045 198.938 295.562C202.852 299.556 207.099 303.209 211.633 306.483C211.841 306.63 211.997 306.84 212.078 307.082C212.159 307.323 212.16 307.584 212.083 307.827C212.006 308.07 211.854 308.282 211.648 308.433C211.442 308.584 211.194 308.665 210.939 308.665Z" fill="#B25E47"/>
<path d="M210.939 308.666H184.511L184.761 300.329L184.947 294.081C187.896 294.697 187.874 295.727 189.635 296.393C191.14 297.002 192.769 297.244 194.386 297.1C196.004 296.956 197.564 296.429 198.938 295.562C202.852 299.556 207.099 303.21 211.633 306.483C211.841 306.631 211.997 306.84 212.078 307.082C212.159 307.324 212.16 307.585 212.083 307.828C212.006 308.071 211.854 308.283 211.648 308.433C211.442 308.584 211.194 308.665 210.939 308.666Z" fill="#FFB63F"/>
<path d="M198.251 308.665H184.511L184.761 300.328C185.856 299.932 187.011 299.731 188.175 299.734C190.655 299.735 193.05 300.644 194.906 302.289C196.762 303.935 197.952 306.203 198.251 308.665Z" fill="#FF9400"/>
<path d="M145.58 96.5364C145.33 97.5813 145.065 98.6834 144.764 99.7854C144.049 102.498 142.918 106.763 141.494 111.601C137.5 125.076 131.124 142.874 124.419 143.089C115.33 143.353 114.221 135.424 115.981 130.1C117.506 125.462 122.801 104.165 126.172 91.7059C126.68 89.8238 127.145 88.1277 127.546 86.7537C129.886 78.6241 133.722 73.9152 137.758 72.8274C138.966 72.4911 140.243 72.4911 141.451 72.8274C147.569 74.502 149.001 82.0877 145.58 96.5364Z" fill="#B25E47"/>
<path d="M224.329 253.891C223.892 255.322 214.238 260.618 208.685 260.761C203.131 260.904 191.137 259.444 187.216 258.571C184.639 257.998 178.535 259.601 173.783 260.718C171.236 261.333 169.074 261.813 168.058 261.755C165.131 261.612 153.287 263.516 151.384 261.755C149.48 259.995 154.454 148.098 154.454 148.098C154.454 148.098 158.991 140.82 175.079 137.306C191.166 133.792 207.69 137.049 207.69 137.049C207.69 137.049 219.097 166.848 221.43 179.572C221.602 180.502 221.774 181.719 221.924 183.093C223.885 200.826 224.737 252.531 224.329 253.891Z" fill="#A7CAF0"/>
<path d="M224.329 253.891C223.892 255.322 214.238 260.618 208.685 260.761C203.131 260.904 191.137 259.444 187.216 258.571C184.639 257.998 178.535 259.601 173.783 260.718C177.505 249.64 187.38 244.809 199.646 250.456C213.845 256.968 220.45 244.867 214.002 225.795C208.764 210.301 214.059 190.485 221.924 183.093C223.885 200.826 224.737 252.531 224.329 253.891Z" fill="#93BEE5"/>
<path d="M152.937 129.778C152.937 129.778 152.529 143.096 153.695 144.384C154.862 145.672 185.14 145.45 207.661 137.077L198.544 111.25L152.937 129.778Z" fill="#83ADDF"/>
<path d="M203.711 112.023C203.711 112.023 202.545 113.239 200.469 115.078C197.691 117.529 194.756 119.796 191.681 121.863C190 122.993 188.182 124.117 186.243 125.183C184.486 126.168 182.681 127.061 180.832 127.86C167.55 133.585 154.297 130.457 152.923 129.777C151.549 129.098 150.926 124.532 146.582 119.394C144.461 117.097 142.736 114.463 141.479 111.6C140.105 108.33 139.089 103.964 138.238 96.9083L138.001 94.8115C137.218 87.4986 137.131 80.1277 137.744 72.7985C137.744 72.6196 137.744 72.5265 137.744 72.5265C140.499 71.3386 143.247 70.2365 145.473 69.3706C148.335 68.2613 150.339 67.5457 150.339 67.5457C150.339 67.5457 150.246 65.7781 150.024 62.6508C149.852 60.2462 149.602 57.0259 149.309 53.1829C149.122 51.2361 149.122 49.2758 149.309 47.329C150.568 35.3564 160.158 36.8449 161.553 41.4178C163.142 46.642 168.516 62.7509 168.516 62.7509C171.634 61.9582 174.799 61.363 177.991 60.969C178.12 60.969 178.242 60.9332 178.371 60.9261C180.194 60.704 182.03 60.6083 183.867 60.6398C185.159 60.6522 186.445 60.8082 187.702 61.105C188.624 61.3402 189.491 61.7508 190.257 62.3144C191.783 63.4694 193.062 64.917 194.022 66.5724C202.28 79.8976 203.711 112.023 203.711 112.023Z" fill="#A7CAF0"/>
<path d="M194.029 66.5729C189.37 68.3549 186.615 71.5108 184.224 75.1606C178.642 83.6194 175.021 94.6545 153.738 96.7442C151.021 97.0054 148.282 96.9429 145.58 96.5581C143.019 96.1745 140.49 95.5979 138.016 94.8334C137.232 87.5206 137.145 80.1497 137.758 72.8205C137.758 72.6415 137.758 72.5485 137.758 72.5485C140.513 71.3606 143.261 70.2585 145.487 69.3926C148.349 68.2833 150.353 67.5677 150.353 67.5677C150.353 67.5677 150.26 65.8001 150.038 62.6727C149.867 60.2682 149.616 57.0478 149.323 53.2049C149.136 51.258 149.136 49.2978 149.323 47.3509C150.582 35.3783 160.172 36.8669 161.567 41.4398C163.156 46.6639 168.53 62.7729 168.53 62.7729C171.648 61.9801 174.813 61.385 178.005 60.991C178.134 60.991 178.256 60.9552 178.385 60.948C180.208 60.7259 182.044 60.6303 183.881 60.6618C185.173 60.6742 186.459 60.8302 187.717 61.127C188.638 61.3622 189.505 61.7728 190.271 62.3364C191.792 63.4858 193.069 64.9259 194.029 66.5729Z" fill="#C3DCF8"/>
<path d="M178.378 60.9051C174.585 64.2471 164.637 72.6773 158.297 74.1372C153.287 75.2822 148.672 74.7312 145.516 69.3496C148.378 68.2404 150.382 67.5247 150.382 67.5247C150.382 67.5247 150.289 65.7571 150.067 62.6298C149.895 60.2252 149.645 57.0048 149.351 53.1619C149.164 51.2151 149.164 49.2548 149.351 47.308C150.611 35.3354 160.2 36.8239 161.596 41.3968C163.185 46.621 168.559 62.7299 168.559 62.7299C171.789 61.9092 175.069 61.2996 178.378 60.9051Z" fill="#B25E47"/>
<path d="M150.039 62.6511C149.867 60.2465 149.616 57.0262 149.323 53.1832C149.136 51.2364 149.136 49.2761 149.323 47.3293C152.822 46.5063 157.195 46.492 158.004 51.1651C159.227 58.4574 156.708 61.9426 150.039 62.6511Z" fill="#914839"/>
<path d="M205.622 163.842C203.661 158.203 205.579 154.403 208.263 153.479C210.946 152.556 214.102 156.163 215.025 159.841L217.308 158.589C217.308 158.589 214.546 148.878 207.669 150.524C200.791 152.17 202.065 161.258 203.267 164.565L205.622 163.842Z" fill="#EDEDED" stroke="#DDDDDD" stroke-width="0.75" stroke-linecap="round" stroke-linejoin="round"/>
<path d="M205.415 117.941C216.994 145.765 222.59 161.43 222.59 161.43C222.59 161.43 227.356 162.232 227.127 161.43C226.898 160.629 210.868 116.009 210.868 116.009L205.415 117.941Z" fill="#F9F9F9" stroke="#DDDDDD" stroke-width="0.75" stroke-linecap="round" stroke-linejoin="round"/>
<path d="M202.645 171.385H196.92C196.963 171.134 191.402 149.565 186.185 125.183C180.818 99.9501 175.859 71.7039 177.941 60.9693C178.07 60.9693 178.192 60.9335 178.321 60.9264C180.144 60.7043 181.98 60.6086 183.817 60.6401C181.842 68.963 186.479 96.422 191.624 121.863C196.898 147.626 202.645 171.385 202.645 171.385Z" fill="#F9F9F9" stroke="#DDDDDD" stroke-width="0.75" stroke-linecap="round" stroke-linejoin="round"/>
<path d="M225.331 195.18C221.617 196.683 210.195 203.317 203.74 203.768L196.841 164.944C198.791 163.827 200.797 162.812 202.853 161.903C204.37 161.187 205.901 160.6 207.418 160.042C209.687 159.198 211.905 158.489 213.974 157.895C215.806 157.401 217.552 157.022 219.019 156.772C220.628 156.438 222.278 156.348 223.914 156.507C226.776 156.986 235.615 168.573 238.606 180.481C241.597 192.389 229.045 193.67 225.331 195.18Z" fill="#F9F9F9" stroke="#DDDDDD" stroke-linecap="round" stroke-linejoin="round"/>
<path d="M215.462 174.963C215.462 174.963 212.664 176.809 212.664 176.645C212.664 176.48 208.513 165.91 202.853 161.881C204.37 161.166 205.901 160.579 207.418 160.021C209.987 162.525 214.682 168.064 215.462 174.963Z" fill="#EDEDED" stroke="#DDDDDD" stroke-width="0.75" stroke-linecap="round" stroke-linejoin="round"/>
<path d="M225.71 170.311C224.811 170.929 223.874 171.491 222.905 171.993C222.905 171.85 219.183 162.339 213.974 157.902C215.806 157.408 217.552 157.029 219.019 156.778C221.602 159.662 225.052 164.5 225.71 170.311Z" fill="#EDEDED" stroke="#DDDDDD" stroke-width="0.75" stroke-linecap="round" stroke-linejoin="round"/>
<path d="M196.841 164.915C201.55 163.806 206.66 172.072 209.494 182.434C212.328 192.797 209.844 205.335 201.879 203.581C193.914 201.828 194.272 187.215 193.564 182.792C192.855 178.369 190.472 166.425 196.841 164.915Z" fill="#EDEDED" stroke="#DDDDDD" stroke-linecap="round" stroke-linejoin="round"/>
<path d="M211.197 124.253C206.438 123.974 203.747 121.226 200.462 115.078C198.358 111.128 196.018 105.775 192.741 98.7904C188.175 89.0434 185.262 81.0283 184.217 75.1386C183.33 70.215 183.759 66.7799 185.649 65.0409C186.911 63.7157 188.52 62.7711 190.293 62.3144C192.69 61.8277 195.023 62.9012 197.593 65.5777C199.341 67.4858 200.91 69.5507 202.28 71.7465C208.721 81.701 217.065 104.286 218.811 110.784C220.557 117.282 219.004 124.704 211.197 124.253Z" fill="#B25E47"/>
<path d="M154.705 108.631L179.58 102.949L184.747 104.051L184.425 105.389L154.705 113.147C154.705 113.147 151.176 110.492 154.705 108.631Z" fill="#F9F9F9" stroke="#EDEDED" stroke-linecap="round" stroke-linejoin="round"/>
<path d="M154.704 108.631C152.88 109.389 152.164 110.334 152.865 113.297C153.567 116.259 162.519 150.846 162.519 150.846L192.354 139.782C192.354 139.782 185.262 103.786 185.005 104C184.747 104.215 157.81 110.441 156.107 110.871C154.404 111.3 152.686 109.769 154.704 108.631Z" fill="#F9F9F9" stroke="#DDDDDD" stroke-linecap="round" stroke-linejoin="round"/>
<path d="M156.107 118.478L159.127 114.721L181.605 106.706L192.555 140.398L191.417 144.384" fill="#F9F9F9"/>
<path d="M156.107 118.478L159.127 114.721L181.605 106.706L192.555 140.398L191.417 144.384" stroke="#DDDDDD" stroke-linecap="round" stroke-linejoin="round"/>
<path d="M180.267 109.389L181.605 106.706" stroke="#DDDDDD" stroke-linecap="round" stroke-linejoin="round"/>
<path d="M156.107 118.478L169.568 154.36L191.417 144.384L180.267 109.389L156.107 118.478Z" fill="#F9F9F9" stroke="#EDEDED" stroke-linecap="round" stroke-linejoin="round"/>
<path d="M163.593 121.655L164.859 124.267L177.955 119.143L176.882 116.288L163.593 121.655Z" fill="#EDEDED"/>
<path d="M153.474 138.58C162.34 137.263 169.597 138.086 171.157 137.335C172.717 136.583 187.266 127.187 192.819 122.027C198.373 116.867 203.368 107.478 211.462 109.733C222.103 112.695 220.443 123.28 211.798 130.608C204.642 136.655 167.257 152.528 163.092 153.658C158.927 154.789 150.532 151.926 149.752 150.538C148.972 149.15 147.061 139.532 153.474 138.58Z" fill="#B25E47"/>
<path d="M198.702 115.644C202.323 111.672 206.252 108.28 211.476 109.733" stroke="#934735" stroke-width="0.75" stroke-linecap="round" stroke-linejoin="round"/>
<path d="M162.92 45.5687C159.342 57.1334 147.999 59.0513 144.156 54.7861C142.531 52.9827 142.188 49.2042 142.596 44.8889C142.788 42.965 143.089 41.0536 143.497 39.1638C144.293 35.2932 145.514 31.5226 147.14 27.9211C147.14 27.9211 154.518 23.7704 162.412 31.8786C164.415 33.9396 164.709 39.722 162.92 45.5687Z" fill="#B25E47"/>
<path d="M165.689 37.153C165.526 37.6994 165.3 38.2252 165.017 38.7202C165.017 38.7202 161.746 41.9263 159.95 40.9959C159.717 40.9158 159.507 40.7813 159.337 40.6036C159.167 40.4259 159.042 40.2101 158.972 39.9742C158.902 39.7384 158.889 39.4892 158.935 39.2474C158.98 39.0057 159.083 38.7783 159.234 38.5843C158.44 37.7899 158.919 36.8954 159.95 36.7594C158.261 36.2083 157.989 34.6125 159.95 33.7895C158.018 33.9255 157.195 32.623 158.519 31.3134C156.207 32.072 155.005 30.9341 155.449 29.2953C154.912 30.9269 152.708 30.2686 152.794 29.2953C151.928 30.1612 150.647 30.3687 149.588 28.6154C149.588 28.6154 146.968 29.9895 146.21 27.7781C145.451 25.5668 148.893 25.302 149.452 25.8531C149.459 25.6983 149.483 25.5448 149.523 25.3951C150.031 23.2482 153.187 23.5845 153.724 24.6794C154.239 23.2482 157.066 23.2482 157.345 25.2663C158.69 24.4003 159.857 24.9227 160.136 26.5759C161.796 26.0177 162.855 26.7906 162.648 28.093C164.079 27.7853 165.553 29.3883 164.079 30.5763C164.079 30.5763 165.89 31.1631 166.061 33.9111C166.138 35.0055 166.012 36.1045 165.689 37.153Z" fill="#473526"/>
<path d="M165.689 37.1528C163.979 36.0579 161.982 34.3475 162.29 32.4368C162.813 29.1735 157.996 26.59 156.114 27.184C154.905 27.5633 151.735 27.1411 149.545 25.4092C150.053 23.2623 153.209 23.5987 153.745 24.6936C154.261 23.2623 157.087 23.2623 157.367 25.2804C158.712 24.4145 159.878 24.9369 160.158 26.59C161.818 26.0318 162.877 26.8047 162.669 28.1072C164.101 27.7994 165.575 29.4025 164.101 30.5904C164.101 30.5904 165.911 31.1773 166.083 33.9253C166.151 35.0162 166.018 36.1103 165.689 37.1528Z" fill="#604730"/>
<path d="M151.47 38.3835C151.47 38.5632 151.523 38.7389 151.623 38.8884C151.723 39.0379 151.865 39.1544 152.031 39.2231C152.197 39.2919 152.38 39.3099 152.556 39.2749C152.732 39.2398 152.894 39.1532 153.021 39.0261C153.148 38.899 153.235 38.7371 153.27 38.5608C153.305 38.3845 153.287 38.2017 153.218 38.0357C153.149 37.8696 153.033 37.7276 152.884 37.6278C152.734 37.5279 152.558 37.4746 152.379 37.4746C152.138 37.4746 151.906 37.5704 151.736 37.7408C151.565 37.9112 151.47 38.1424 151.47 38.3835Z" fill="#683F1D"/>
<path d="M145.509 37.2889C145.509 37.4673 145.561 37.6416 145.661 37.7899C145.76 37.9382 145.9 38.0538 146.065 38.122C146.23 38.1903 146.411 38.2081 146.586 38.1733C146.761 38.1385 146.922 38.0526 147.048 37.9265C147.174 37.8004 147.26 37.6398 147.295 37.4649C147.329 37.2899 147.312 37.1086 147.243 36.9439C147.175 36.7791 147.06 36.6383 146.911 36.5392C146.763 36.4401 146.589 36.3872 146.41 36.3872C146.292 36.3863 146.174 36.409 146.064 36.4539C145.954 36.4989 145.854 36.5653 145.771 36.6492C145.687 36.7331 145.62 36.8329 145.575 36.9428C145.53 37.0526 145.508 37.1703 145.509 37.2889Z" fill="#683F1D"/>
<path d="M159.342 40.5879C160.687 38.3265 164.945 37.4677 166.319 40.5879C167.693 43.7081 163.607 47.4079 160.372 45.261L159.342 40.5879Z" fill="#B25E47"/>
<path d="M144.485 32.4366C144.328 33.1522 149.101 33.8178 149.287 32.7228C149.595 30.898 144.764 31.0554 144.485 32.4366Z" fill="#604730"/>
<path d="M156.715 35.3206C156.558 36.0362 151.928 34.7624 152.193 33.6818C152.629 31.8784 157.002 33.9394 156.715 35.3206Z" fill="#604730"/>
<path d="M165.188 41.1673C163.879 39.5357 161.353 40.6163 161.138 42.4769" stroke="#934735" stroke-width="0.75" stroke-linecap="round" stroke-linejoin="round"/>
<path d="M161.31 41.8543C161.983 40.9526 164.172 41.2889 163.993 42.8347C163.815 44.3805 161.625 44.0441 161.625 44.0441" stroke="#934735" stroke-width="0.75" stroke-linecap="round" stroke-linejoin="round"/>
<path d="M146.124 42.7204C145.709 40.4304 145.816 39.5788 147.469 39.1065C148.292 38.843 149.014 38.3317 149.535 37.6426C150.057 36.9534 150.352 36.12 150.382 35.2563" stroke="#934735" stroke-width="0.75" stroke-linecap="round" stroke-linejoin="round"/>
<path d="M148.865 45.4331C150.897 44.8606 151.641 43.8444 151.677 42.8926" stroke="#934735" stroke-width="0.75" stroke-linecap="round" stroke-linejoin="round"/>
<path d="M155.756 45.3253C157.468 45.3253 158.855 43.938 158.855 42.2266C158.855 40.5153 157.468 39.1279 155.756 39.1279C154.045 39.1279 152.658 40.5153 152.658 42.2266C152.658 43.938 154.045 45.3253 155.756 45.3253Z" fill="#A0503D"/>
<path d="M145.079 41.8549C145.079 42.5728 144.829 43.2682 144.372 43.8219C143.915 44.3755 143.279 44.7529 142.574 44.8892C142.767 42.9653 143.068 41.0539 143.476 39.1641C143.958 39.4303 144.36 39.8198 144.641 40.2926C144.923 40.7654 145.074 41.3045 145.079 41.8549Z" fill="#A0503D"/>
<path d="M164.573 45.2822C163.954 45.6918 163.229 45.9103 162.487 45.9103C161.745 45.9103 161.019 45.6918 160.401 45.2822" stroke="#934735" stroke-width="0.75" stroke-linecap="round" stroke-linejoin="round"/>
<path d="M160.938 44.3018C159.776 44.4361 158.697 44.9655 157.88 45.8013C157.063 46.6371 156.558 47.7285 156.45 48.8923C156.342 50.0562 156.637 51.2219 157.286 52.1938C157.936 53.1658 158.899 53.8849 160.016 54.2307C161.132 54.5764 162.334 54.5278 163.419 54.0928C164.504 53.6579 165.406 52.8632 165.975 51.8419C166.544 50.8206 166.744 49.6349 166.542 48.4836C166.34 47.3323 165.749 46.2853 164.866 45.5183" stroke="#FFB63F" stroke-linecap="round" stroke-linejoin="round"/>
<path d="M89.6029 101.539C107.258 118.971 115.867 123.244 120.211 125.341C124.555 127.437 134.051 137.449 126.029 142.688C116.59 148.856 107.329 139.825 101.611 134.243C95.8934 128.661 84.9155 114.706 84.9155 114.706L89.6029 101.539Z" fill="#B25E47"/>
<path d="M117.685 124.074C118.658 124.589 119.495 124.997 120.211 125.341C122.007 126.314 123.624 127.587 124.991 129.105" stroke="#934735" stroke-width="0.75" stroke-linecap="round" stroke-linejoin="round"/>
<path d="M96.6878 100.479C96.5566 100.179 96.4884 99.8553 96.4874 99.5277C96.4874 98.2038 97.3819 96.751 97.3819 94.2105C97.3819 91.0545 93.5247 87.6553 93.5247 87.6553H87.8711C87.8711 87.6553 84.0138 91.0545 84.0138 94.2105C84.0138 96.751 84.9155 98.2038 84.9012 99.5277C84.9028 99.8548 84.8371 100.179 84.708 100.479C84.2643 101.503 83.4485 101.653 83.4485 105.346C83.4485 106.24 83.4485 107.664 83.4485 109.339C83.52 114.513 83.656 121.97 83.656 122.857C83.656 123.96 87.4131 124.124 90.3902 124.146H90.9341C93.9039 124.146 97.661 123.96 97.661 122.857C97.661 121.97 97.8042 114.513 97.8757 109.339C97.8757 107.672 97.9115 106.24 97.9115 105.346C97.9473 101.653 97.1386 101.503 96.6878 100.479Z" fill="#F9F9F9" stroke="#DDDDDD" stroke-linecap="round" stroke-linejoin="round"/>
<path d="M94.1472 84.3774H87.2556V87.5262H94.1472V84.3774Z" fill="#DDDDDD" stroke="#DDDDDD" stroke-miterlimit="10"/>
<path d="M97.9474 105.346C97.9474 106.241 97.9474 107.672 97.9116 109.339H83.4844C83.4844 107.665 83.4844 106.241 83.4844 105.346C83.4844 101.653 84.3002 101.503 84.7439 100.48C84.8627 100.184 84.9211 99.8678 84.9156 99.5493H96.5018C96.5029 99.8769 96.5711 100.201 96.7022 100.501C97.1387 101.503 97.9474 101.653 97.9474 105.346Z" fill="#EDEDED" stroke="#DDDDDD" stroke-linecap="round" stroke-linejoin="round"/>
<path d="M81.4878 113.146C83.1266 111.715 86.2611 115.787 84.6724 117.44C83.0836 119.093 79.3552 115.093 81.4878 113.146Z" fill="#B25E47" stroke="#934735" stroke-width="0.75" stroke-miterlimit="10"/>
<path d="M81.0726 110.427C82.0959 108.488 86.4685 111.228 85.5596 113.354C84.6508 115.479 79.7415 112.96 81.0726 110.427Z" fill="#B25E47" stroke="#934735" stroke-width="0.75" stroke-miterlimit="10"/>
<path d="M80.3069 106.204C81.4019 104.015 86.0964 107.12 85.1232 109.525C84.1499 111.93 78.8685 109.081 80.3069 106.204Z" fill="#B25E47" stroke="#934735" stroke-width="0.75" stroke-miterlimit="10"/>
<path d="M79.5913 103.034C79.5913 104.959 85.4452 106.541 85.6814 103.034C85.8674 100.221 79.5913 99.6705 79.5913 103.034Z" fill="#B25E47" stroke="#934735" stroke-width="0.75" stroke-miterlimit="10"/>
<path d="M159.635 158.031H128.104V314.834H159.635V158.031Z" fill="#DDDDDD"/>
<path d="M128.104 158.031H83.4414V314.834H128.104V158.031Z" fill="#F9F9F9" stroke="#DDDDDD" stroke-linecap="round" stroke-linejoin="round"/>
<path d="M133.872 88.0559L131.36 89.6876C130.98 89.9327 130.534 90.0582 130.081 90.048C129.629 90.0378 129.189 89.8923 128.82 89.6303L121.163 94.2819V130.5C121.864 130.705 122.481 131.132 122.921 131.716C123.361 132.3 123.6 133.011 123.603 133.742V137.141C123.599 138.041 123.24 138.903 122.603 139.538C121.966 140.174 121.103 140.532 120.204 140.534C119.303 140.534 118.44 140.176 117.803 139.54C117.165 138.905 116.806 138.042 116.804 137.141V133.742C116.806 133.011 117.045 132.299 117.485 131.715C117.925 131.131 118.542 130.704 119.245 130.5V93.7452C119.244 93.5813 119.286 93.4201 119.367 93.2771C119.447 93.1342 119.563 93.0144 119.703 92.9294L127.854 87.9557C127.823 87.5537 127.902 87.1509 128.08 86.7895C128.259 86.4282 128.532 86.1215 128.87 85.9018L131.375 84.2702C131.623 84.0947 131.904 83.971 132.201 83.9067C132.499 83.8423 132.806 83.8386 133.105 83.8957C133.403 83.9527 133.687 84.0695 133.94 84.2388C134.192 84.4082 134.408 84.6268 134.574 84.8815C134.74 85.1362 134.853 85.4218 134.907 85.7212C134.96 86.0206 134.952 86.3277 134.884 86.624C134.816 86.9204 134.688 87.1999 134.51 87.4459C134.331 87.692 134.104 87.8994 133.844 88.0559H133.872Z" fill="#F9F9F9" stroke="#DDDDDD" stroke-linecap="round" stroke-linejoin="round"/>
<path d="M133.872 88.0559L131.36 89.6876C130.98 89.9327 130.534 90.0582 130.081 90.048C129.629 90.0378 129.189 89.8923 128.82 89.6303L127.854 87.9557C127.823 87.5537 127.902 87.1509 128.08 86.7895C128.259 86.4282 128.532 86.1215 128.87 85.9018L131.375 84.2702C131.623 84.0947 131.904 83.971 132.201 83.9067C132.499 83.8423 132.806 83.8386 133.104 83.8957C133.403 83.9527 133.687 84.0695 133.94 84.2388C134.192 84.4082 134.408 84.6268 134.574 84.8815C134.74 85.1362 134.853 85.4218 134.907 85.7212C134.96 86.0206 134.952 86.3277 134.884 86.624C134.816 86.9204 134.688 87.1999 134.51 87.4459C134.331 87.692 134.104 87.8994 133.844 88.0559H133.872Z" fill="#DDDDDD" stroke="#EDEDED" stroke-linecap="round" stroke-linejoin="round"/>
<path d="M170.534 135.617H128.104V158.031H170.534V135.617Z" fill="#EDEDED"/>
<path d="M128.104 135.617H72.1914V158.031H128.104V135.617Z" fill="#F9F9F9" stroke="#DDDDDD" stroke-linecap="round" stroke-linejoin="round"/>
</svg>
