<svg width="562" height="351" viewBox="0 0 562 351" fill="none" xmlns="http://www.w3.org/2000/svg">
<path d="M1 295.228C139.514 255.861 373.448 250.842 459.175 265.569C544.901 280.295 561 295.228 561 295.228" stroke="#DDDDDD" stroke-width="1.88" stroke-linecap="round" stroke-linejoin="round"/>
<path d="M87.2841 311.217L73.7974 319.963L74.7366 321.915L93.6679 313.998L87.2841 311.217Z" fill="#EDEDED"/>
<path d="M111.014 311.217L124.508 319.963L123.569 321.915L104.638 313.998L111.014 311.217Z" fill="#EDEDED"/>
<path d="M117.406 273.706C110.185 267.572 110.457 265.378 115.102 255.281C121.133 242.183 112.834 232.021 99.1494 232.021C85.4646 232.021 77.1729 242.183 83.1972 255.281C87.8493 265.378 88.1135 267.572 80.9005 273.706C72.5355 280.809 69.2629 300.797 82.1112 311.128C88.6785 316.426 99.1494 315.957 99.1494 315.957C99.1494 315.957 109.628 316.426 116.195 311.128C129.036 300.797 125.771 280.809 117.406 273.706Z" fill="#F9F9F9" stroke="#DDDDDD" stroke-width="0.94" stroke-linecap="round" stroke-linejoin="round"/>
<path d="M99.1494 263.375C103.619 263.375 107.243 259.751 107.243 255.281C107.243 250.812 103.619 247.188 99.1494 247.188C94.6795 247.188 91.0559 250.812 91.0559 255.281C91.0559 259.751 94.6795 263.375 99.1494 263.375Z" fill="#DDDDDD"/>
<path d="M102.737 173.011H95.5684V288.022H102.737V173.011Z" fill="#F9F9F9" stroke="#EDEDED" stroke-width="0.94" stroke-linecap="round" stroke-linejoin="round"/>
<path d="M97.8506 288.015V176.019" stroke="#DDDDDD" stroke-width="0.94" stroke-linecap="round" stroke-linejoin="round"/>
<path d="M100.448 288.015V176.019" stroke="#DDDDDD" stroke-width="0.94" stroke-linecap="round" stroke-linejoin="round"/>
<path d="M104.381 155.019H93.9175V176.019H104.381V155.019Z" fill="#F9F9F9" stroke="#DDDDDD" stroke-width="0.94" stroke-linecap="round" stroke-linejoin="round"/>
<path d="M102.26 158.578H96.0454V172.468H102.26V158.578Z" fill="#EDEDED"/>
<path d="M93.9176 168.975C91.9805 166.935 90.036 167.948 90.6303 169.614C91.2247 171.279 93.9176 171.338 93.9176 171.243V168.975Z" fill="#F9F9F9" stroke="#DDDDDD" stroke-width="0.94" stroke-linecap="round" stroke-linejoin="round"/>
<path d="M93.9176 171.764V173.965C93.9176 173.965 92.7216 174.567 92.0612 173.965C91.4008 173.363 92.252 171.683 93.9176 171.764Z" fill="#F9F9F9" stroke="#DDDDDD" stroke-width="0.94" stroke-linecap="round" stroke-linejoin="round"/>
<path d="M104.381 168.975C106.318 166.935 108.27 167.948 107.668 169.614C107.067 171.279 104.381 171.338 104.381 171.243V168.975Z" fill="#F9F9F9" stroke="#DDDDDD" stroke-width="0.94" stroke-linecap="round" stroke-linejoin="round"/>
<path d="M104.381 171.764V173.965C104.381 173.965 105.584 174.567 106.238 173.965C106.891 173.363 106.047 171.683 104.381 171.764Z" fill="#F9F9F9" stroke="#DDDDDD" stroke-width="0.94" stroke-linecap="round" stroke-linejoin="round"/>
<path d="M104.381 163.23C106.825 160.654 109.283 161.939 108.527 164.037C107.771 166.136 104.381 166.202 104.381 166.084V163.23Z" fill="#F9F9F9" stroke="#DDDDDD" stroke-width="0.94" stroke-linecap="round" stroke-linejoin="round"/>
<path d="M109.628 286.364H88.6785V290.517H109.628V286.364Z" fill="#EDEDED"/>
<path d="M134.774 29.7783C138.003 25.5151 150.403 29.8517 153.698 34.0489C156.993 38.246 146.133 50.9256 142.126 48.4601C138.12 45.9947 131.215 34.4744 134.774 29.7783Z" fill="#F9F9F9" stroke="#EDEDED" stroke-width="0.94" stroke-linecap="round" stroke-linejoin="round"/>
<path d="M143.234 37.1895C138.942 42.1719 137.518 47.998 140.072 50.1993C142.625 52.4006 148.143 50.1406 152.473 45.1583C156.802 40.176 158.189 34.3498 155.635 32.1559C153.082 29.9619 147.534 32.2072 143.234 37.1895Z" fill="#F9F9F9" stroke="#EDEDED" stroke-width="0.94" stroke-linecap="round" stroke-linejoin="round"/>
<path d="M112.959 29.7783C116.18 25.5151 128.581 29.8517 131.876 34.0489C135.17 38.246 124.318 50.9256 120.304 48.4601C116.29 45.9947 109.4 34.4744 112.959 29.7783Z" fill="#F9F9F9" stroke="#EDEDED" stroke-width="0.94" stroke-linecap="round" stroke-linejoin="round"/>
<path d="M121.419 37.1895C117.119 42.1719 115.703 47.998 118.257 50.1993C120.81 52.4006 126.328 50.1406 130.65 45.1583C134.972 40.176 136.366 34.3498 133.82 32.1559C131.274 29.9619 125.719 32.2072 121.419 37.1895Z" fill="#F9F9F9" stroke="#EDEDED" stroke-width="0.94" stroke-linecap="round" stroke-linejoin="round"/>
<path d="M123.269 39.0238C119.6 43.2724 118.037 47.9318 119.768 49.4214C121.5 50.9109 125.873 48.6876 129.542 44.4317C133.211 40.1758 134.774 35.5237 133.042 34.0268C131.311 32.5299 126.937 34.7679 123.269 39.0238Z" fill="#EDEDED"/>
<path d="M151.355 44.4143C155.021 40.1642 156.589 35.5086 154.859 34.0158C153.128 32.5229 148.753 34.7581 145.087 39.0082C141.421 43.2582 139.852 47.9138 141.583 49.4067C143.314 50.8995 147.689 48.6644 151.355 44.4143Z" fill="#F9F9F9" stroke="#DDDDDD" stroke-width="0.94" stroke-linecap="round" stroke-linejoin="round"/>
<path d="M95.231 26.1537V9.73193" stroke="#DDDDDD" stroke-width="1.88" stroke-linecap="round" stroke-linejoin="round"/>
<path d="M116.408 28.0177C116.452 28.0837 116.408 8.05908 116.408 8.05908" stroke="#DDDDDD" stroke-width="1.88" stroke-linecap="round" stroke-linejoin="round"/>
<path d="M137.196 28.289V1" stroke="#DDDDDD" stroke-width="1.88" stroke-linecap="round" stroke-linejoin="round"/>
<path d="M151.651 59.9951L171.727 87.6436" stroke="#DDDDDD" stroke-width="0.94" stroke-linecap="round" stroke-linejoin="round"/>
<path d="M126.409 55.7759L141.899 82.111" stroke="#DDDDDD" stroke-width="0.94" stroke-linecap="round" stroke-linejoin="round"/>
<path d="M101.578 53.7437L117.457 83.4247" stroke="#DDDDDD" stroke-width="0.94" stroke-linecap="round" stroke-linejoin="round"/>
<path d="M94.497 26.5282C98.8997 23.5051 109.297 31.5399 111.102 36.5589C112.907 41.5779 98.5915 50.1704 95.5684 46.5749C92.5452 42.9794 89.6395 29.8669 94.497 26.5282Z" fill="#F9F9F9" stroke="#EDEDED" stroke-width="0.94" stroke-linecap="round" stroke-linejoin="round"/>
<path d="M106.429 46.7236C112.082 43.3547 115.268 38.2784 113.544 35.3854C111.82 32.4925 105.84 32.8783 100.186 36.2472C94.5324 39.6161 91.3467 44.6924 93.0706 47.5853C94.7944 50.4783 100.775 50.0925 106.429 46.7236Z" fill="#F9F9F9" stroke="#EDEDED" stroke-width="0.94" stroke-linecap="round" stroke-linejoin="round"/>
<path d="M105.596 45.6752C110.417 42.802 113.377 38.8812 112.207 36.9178C111.037 34.9543 106.18 35.6917 101.359 38.5649C96.5371 41.438 93.5769 45.3588 94.7469 47.3222C95.9169 49.2857 100.774 48.5483 105.596 45.6752Z" fill="#DDDDDD" stroke="#DDDDDD" stroke-width="0.94" stroke-miterlimit="10"/>
<path d="M222.482 326.964L165.482 272.129L218.666 220.963H211.204L161.747 268.533L112.291 220.963H104.829L158.013 272.129L101.013 326.964H108.483L161.747 275.717L215.012 326.964H222.482Z" fill="#F9F9F9" stroke="#EDEDED" stroke-width="0.94" stroke-linecap="round" stroke-linejoin="round"/>
<path d="M104.381 209.391H65.0876V223.949H104.381V209.391Z" fill="#F9F9F9" stroke="#DDDDDD" stroke-width="0.94" stroke-linecap="round" stroke-linejoin="round"/>
<path d="M258.407 209.391H104.381V223.949H258.407V209.391Z" fill="#F9F9F9" stroke="#DDDDDD" stroke-width="0.94" stroke-linecap="round" stroke-linejoin="round"/>
<path d="M489.751 319.567L489.091 316.706L468.677 321.402L468.868 320.675L457.421 317.674L455.807 320.286L468.119 323.508L468.369 322.576L468.787 324.396L489.751 319.567Z" fill="#EDEDED"/>
<path d="M499.128 332.973H495.019L474.584 298.273H478.693L499.128 332.973Z" fill="#F9F9F9" stroke="#DDDDDD" stroke-width="0.94" stroke-linecap="round" stroke-linejoin="round"/>
<path d="M446.898 332.973H451.008L471.443 298.273H467.334L446.898 332.973Z" fill="#F9F9F9" stroke="#DDDDDD" stroke-width="0.94" stroke-linecap="round" stroke-linejoin="round"/>
<path d="M463.504 332.973H467.613L475.281 298.273H471.172L463.504 332.973Z" fill="#F9F9F9" stroke="#DDDDDD" stroke-width="0.94" stroke-linecap="round" stroke-linejoin="round"/>
<path d="M475.281 213.588H470.746V291.126H475.281V213.588Z" fill="#F9F9F9" stroke="#DDDDDD" stroke-width="0.94" stroke-linecap="round" stroke-linejoin="round"/>
<path d="M494.249 135.06H451.785C447.789 135.06 444.55 138.299 444.55 142.295V209.054C444.55 213.049 447.789 216.289 451.785 216.289H494.249C498.244 216.289 501.484 213.049 501.484 209.054V142.295C501.484 138.299 498.244 135.06 494.249 135.06Z" fill="#F9F9F9" stroke="#DDDDDD" stroke-width="1.88" stroke-linecap="round" stroke-linejoin="round"/>
<path d="M488.261 152.326H457.766V158.908H488.261V152.326Z" fill="#EDEDED"/>
<path d="M473.013 203.66C482.03 203.66 489.34 196.351 489.34 187.334C489.34 178.317 482.03 171.007 473.013 171.007C463.997 171.007 456.687 178.317 456.687 187.334C456.687 196.351 463.997 203.66 473.013 203.66Z" stroke="#DDDDDD" stroke-width="0.94" stroke-linecap="round" stroke-linejoin="round"/>
<path d="M477.423 291.126H468.604C466.91 291.126 465.536 292.499 465.536 294.193V296.937C465.536 298.631 466.91 300.005 468.604 300.005H477.423C479.117 300.005 480.491 298.631 480.491 296.937V294.193C480.491 292.499 479.117 291.126 477.423 291.126Z" fill="#EDEDED"/>
<path d="M439.847 29.7783C436.618 25.5151 424.217 29.8517 420.923 34.0489C417.628 38.246 428.488 50.9256 432.494 48.4601C436.501 45.9947 443.406 34.4744 439.847 29.7783Z" fill="#F9F9F9" stroke="#EDEDED" stroke-width="0.94" stroke-linecap="round" stroke-linejoin="round"/>
<path d="M431.416 37.1895C435.708 42.1719 437.132 47.998 434.578 50.1993C432.025 52.4006 426.507 50.1406 422.178 45.1583C417.848 40.176 416.462 34.3498 419.015 32.1559C421.569 29.9619 427.087 32.2072 431.416 37.1895Z" fill="#F9F9F9" stroke="#EDEDED" stroke-width="0.94" stroke-linecap="round" stroke-linejoin="round"/>
<path d="M461.662 29.7783C458.433 25.5151 446.04 29.8517 442.745 34.0489C439.451 38.246 450.303 50.9256 454.317 48.4601C458.331 45.9947 465.221 34.4744 461.662 29.7783Z" fill="#F9F9F9" stroke="#EDEDED" stroke-width="0.94" stroke-linecap="round" stroke-linejoin="round"/>
<path d="M453.202 37.1895C457.502 42.1719 458.918 47.998 456.364 50.1993C453.811 52.4006 448.293 50.1406 443.971 45.1583C439.649 40.176 438.255 34.3498 440.801 32.1559C443.347 29.9619 448.902 32.2072 453.202 37.1895Z" fill="#F9F9F9" stroke="#EDEDED" stroke-width="0.94" stroke-linecap="round" stroke-linejoin="round"/>
<path d="M454.866 49.453C456.597 47.9601 455.028 43.3045 451.362 39.0544C447.696 34.8044 443.321 32.5692 441.59 34.0621C439.86 35.5549 441.428 40.2105 445.094 44.4606C448.76 48.7107 453.135 50.9458 454.866 49.453Z" fill="#EDEDED"/>
<path d="M433.05 49.4447C434.78 47.9518 433.211 43.2963 429.545 39.0462C425.879 34.7961 421.505 32.5609 419.774 34.0538C418.043 35.5467 419.612 40.2022 423.278 44.4523C426.944 48.7024 431.319 50.9376 433.05 49.4447Z" fill="#F9F9F9" stroke="#DDDDDD" stroke-width="0.94" stroke-linecap="round" stroke-linejoin="round"/>
<path d="M479.39 26.1537V9.73193" stroke="#DDDDDD" stroke-width="1.88" stroke-linecap="round" stroke-linejoin="round"/>
<path d="M458.213 28.0177C458.169 28.0837 458.213 8.05908 458.213 8.05908" stroke="#DDDDDD" stroke-width="1.88" stroke-linecap="round" stroke-linejoin="round"/>
<path d="M437.426 28.289V1" stroke="#DDDDDD" stroke-width="1.88" stroke-linecap="round" stroke-linejoin="round"/>
<path d="M422.97 59.9951L402.894 87.6436" stroke="#DDDDDD" stroke-width="0.94" stroke-linecap="round" stroke-linejoin="round"/>
<path d="M448.212 55.7759L432.722 82.111" stroke="#DDDDDD" stroke-width="0.94" stroke-linecap="round" stroke-linejoin="round"/>
<path d="M473.043 53.7437L457.164 83.4247" stroke="#DDDDDD" stroke-width="0.94" stroke-linecap="round" stroke-linejoin="round"/>
<path d="M480.124 26.5282C475.721 23.5051 465.316 31.5399 463.518 36.5589C461.721 41.5779 475.992 50.1704 479.052 46.5749C482.112 42.9794 484.981 29.8669 480.124 26.5282Z" fill="#F9F9F9" stroke="#EDEDED" stroke-width="0.94" stroke-linecap="round" stroke-linejoin="round"/>
<path d="M480.745 46.9123C482.463 44.0161 479.267 38.9474 473.607 35.5909C467.947 32.2345 461.966 31.8613 460.249 34.7575C458.531 37.6537 461.727 42.7224 467.387 46.0789C473.047 49.4353 479.028 49.8084 480.745 46.9123Z" fill="#F9F9F9" stroke="#EDEDED" stroke-width="0.939859" stroke-linecap="round" stroke-linejoin="round"/>
<path d="M479.871 47.3195C481.041 45.3561 478.081 41.4352 473.259 38.5621C468.438 35.689 463.58 34.9516 462.41 36.9151C461.24 38.8785 464.201 42.7993 469.022 45.6725C473.844 48.5456 478.701 49.283 479.871 47.3195Z" fill="#DDDDDD" stroke="#DDDDDD" stroke-width="0.94" stroke-miterlimit="10"/>
<path d="M376.625 177.172C382.092 173.613 383.339 172.387 389.708 174.699C396.077 177.01 399.878 184.128 398.227 187.767C396.576 191.407 371.555 209.105 367.071 207.785C362.588 206.464 363.872 193.638 368.81 186.447C373.749 179.256 374.915 178.294 376.625 177.172Z" fill="#C3DCF8"/>
<path d="M378.1 182.91L372.964 191.275L371.577 190.541C370.373 189.917 368.326 188.883 365.332 187.386C364.947 187.195 364.579 186.971 364.232 186.718C359.227 183.13 364.041 176.577 369.199 178.69C372.247 179.92 375.219 181.329 378.1 182.91Z" fill="#B25E47"/>
<path d="M371.555 190.563C370.351 189.939 368.304 188.905 365.31 187.408C364.925 187.217 364.557 186.994 364.21 186.74L365.208 184.986L368.414 183.284L371.628 182.271L372.663 182.91L372.721 185.148C372.721 185.148 374.343 187.833 371.555 190.563Z" fill="#914839"/>
<path d="M370.102 196.521C372.942 191.275 379.215 180.642 382.76 177.171C382.874 177.068 382.966 176.941 383.029 176.799C383.092 176.658 383.124 176.505 383.124 176.35C383.124 176.195 383.092 176.042 383.029 175.9C382.966 175.759 382.874 175.632 382.76 175.528" stroke="#83ADDF" stroke-width="0.71" stroke-linecap="round" stroke-linejoin="round"/>
<path d="M466.05 325.489C466.05 325.489 477.056 338.286 478.223 339.43C478.584 339.738 479.035 339.92 479.509 339.951C479.982 339.981 480.452 339.858 480.85 339.599L477.328 314.864L464.795 316.647L466.05 325.489Z" fill="#C3DCF8"/>
<path d="M467.371 315.627V329.04C467.371 329.04 429.53 337.912 419.133 337.772C408.735 337.633 404.714 330.288 404.993 322.106C405.272 313.925 409.711 265.973 409.711 265.973L412.499 265.386L438.717 259.875L428.774 309.148L426.999 317.953L467.371 315.627Z" fill="#93BEE5"/>
<path d="M438.688 259.875L428.774 309.148C425.957 306.587 422.009 301.458 425.105 296.769C429.508 290.055 429.317 280.156 425.641 281.749C421.965 283.341 412.477 281.184 410.657 273.897L412.47 265.386L438.688 259.875Z" fill="#83ADDF"/>
<path d="M427.013 317.953C426.074 321.813 425.208 322.965 425.208 322.965" stroke="#C3DCF8" stroke-width="0.71" stroke-linecap="round" stroke-linejoin="round"/>
<path d="M438.636 238.728L402.19 251.143C402.19 251.143 401.074 246.44 400.399 246.44C399.724 246.44 398.051 247.115 396.606 244.327C396.268 243.681 395.292 242.125 393.942 240.027C391.007 235.397 386.186 228.169 382.51 222.475C380.58 219.481 378.951 216.913 378.056 215.372C377.792 214.917 377.528 214.44 377.271 213.941C375.29 210.148 373.506 205.202 373.418 200.403C373.321 197.808 373.869 195.229 375.011 192.897C377.214 188.863 380.868 185.818 385.232 184.377C391.176 182.33 398.91 182.859 407.245 188.538C411.42 191.479 415.211 194.93 418.531 198.811C429.317 211.109 435.914 226.107 436.758 227.809C437.88 230.047 436.075 231.038 435.466 231.742C434.857 232.447 438.636 238.728 438.636 238.728Z" fill="#FFB63F"/>
<path d="M418.509 198.774C412.242 202.442 403.283 205.422 397.787 199.779C396.527 198.463 394.998 197.434 393.304 196.763C387.507 194.474 380.257 196.587 373.418 200.395C373.321 197.8 373.869 195.221 375.011 192.889C377.214 188.855 380.868 185.81 385.232 184.37C391.176 182.322 398.91 182.851 407.245 188.53C411.411 191.463 415.194 194.904 418.509 198.774Z" fill="#FFCB66"/>
<path d="M393.942 240.027C391.007 235.397 386.186 228.169 382.51 222.475C380.58 219.481 378.951 216.913 378.056 215.372C377.792 214.917 377.528 214.44 377.271 213.941C381.277 204.402 389.642 200.887 391.073 207.865C393.729 220.831 386.318 216.296 388.872 225.997C389.378 227.817 397.42 233.716 393.942 240.027Z" fill="#FF9400"/>
<path d="M403.877 245.295L432.12 232.71" stroke="#F7AD2B" stroke-width="0.71" stroke-linecap="round" stroke-linejoin="round"/>
<path d="M384.66 215.775L382.657 233.951L375.767 221.572" stroke="#683F1D" stroke-width="0.94" stroke-miterlimit="10"/>
<path d="M385.753 233.32H380.213V242.969H385.753V233.32Z" fill="white" stroke="#683F1D" stroke-width="0.94" stroke-linecap="round" stroke-linejoin="round"/>
<path d="M399.57 275.108C405.499 276.128 410.966 276.987 414.385 277.309C419.442 277.751 424.531 276.958 429.214 274.998" stroke="#83ADDF" stroke-width="0.71" stroke-linecap="round" stroke-linejoin="round"/>
<path d="M361.854 325.57C361.854 325.57 346.144 335.593 344.721 336.716C344.323 337.058 344.049 337.522 343.942 338.035C343.834 338.548 343.899 339.083 344.126 339.556H371.723V325.57H361.854Z" fill="#C3DCF8"/>
<path d="M412.565 247.621C412.565 247.621 374.02 248.061 366.91 247.687C359.8 247.313 351.317 250.38 350.532 264.292C349.747 278.204 355.265 326.956 355.265 326.956H372.538L370.762 269.722C370.762 269.722 403.327 276.231 414.385 277.317C425.443 278.403 441.402 272.598 442.21 257.879C442.907 245.295 437.88 238.999 437.88 238.999L412.565 247.621Z" fill="#93BEE5"/>
<path d="M425.546 242.969C426.111 248.347 424.496 252.963 421.98 252.354C419.463 251.745 417.848 251.187 417.687 253.454C417.525 255.722 416.476 256.61 414.128 255.399C411.78 254.188 410.562 254.988 409.183 255.56C407.803 256.133 366.095 258.635 364.312 258.877C362.529 259.119 362.287 260.66 362.449 261.812C362.61 262.964 359.205 262.296 359.205 263.28C359.205 264.263 361.473 265.385 361.15 265.877C360.827 266.369 359.917 267.572 360.497 268.812C361.076 270.052 360.988 270.03 361.311 276.832C361.634 283.634 364.393 327.015 364.393 327.015" stroke="#C3DCF8" stroke-width="0.71" stroke-linecap="round" stroke-linejoin="round"/>
<path d="M420.409 246.241C420.236 247.731 420.533 249.237 421.261 250.548" stroke="#C3DCF8" stroke-width="0.71" stroke-linecap="round" stroke-linejoin="round"/>
<path d="M370.762 269.722C367.468 268.754 366.631 267.778 366.631 267.778" stroke="#C3DCF8" stroke-width="0.71" stroke-linecap="round" stroke-linejoin="round"/>
<path d="M321.805 332.562C314.225 332.562 307.988 336.437 307.812 337.772C307.636 339.108 321.805 339.115 321.805 339.115C321.805 339.115 335.967 339.115 335.798 337.772C335.629 336.429 329.378 332.562 321.805 332.562Z" fill="#DDDDDD"/>
<path d="M319.993 171.36H323.61V333.744C323.61 333.971 323.566 334.197 323.479 334.407C323.392 334.617 323.264 334.808 323.103 334.969C322.942 335.129 322.752 335.257 322.541 335.344C322.331 335.431 322.106 335.476 321.879 335.476H321.725C321.265 335.476 320.825 335.293 320.5 334.969C320.175 334.644 319.993 334.203 319.993 333.744V171.36Z" fill="#F9F9F9" stroke="#DDDDDD" stroke-width="0.94" stroke-linecap="round" stroke-linejoin="round"/>
<path d="M343.283 126.974C336.07 133.637 339.137 147.52 345 155.833C350.862 164.147 351.369 177.017 340.597 187.334C329.825 197.651 313 204.783 312.141 226.224C311.283 247.665 333.648 260.484 334.338 276.59C335.072 293.687 327.257 309.236 323.617 315.48" stroke="#EDEDED" stroke-width="1.88" stroke-linecap="round" stroke-linejoin="round"/>
<path d="M365.685 208.29C361.825 209.024 358.347 209.641 355.184 210.103C346.159 211.438 340.025 211.512 336.561 209.369C335.659 208.792 334.897 208.019 334.332 207.109C333.767 206.198 333.413 205.173 333.296 204.108C333.08 202.999 333.202 201.851 333.648 200.813C334.697 198.414 337.75 196.235 344.046 194.143C346.21 193.41 348.757 192.72 351.736 192.015C367.196 188.383 372.707 187.018 376.104 190.717C379.502 194.415 382.671 205.091 365.685 208.29Z" fill="#FFB63F"/>
<path d="M355.184 210.103C346.159 211.438 340.025 211.512 336.561 209.369C335.659 208.792 334.897 208.019 334.332 207.109C333.767 206.199 333.413 205.173 333.296 204.108C333.08 202.999 333.202 201.851 333.648 200.813C335.717 201.547 337.39 203.154 337.633 204.915C338.242 209.318 341.411 209.112 344.038 208.048C344.422 207.9 344.796 207.731 345.161 207.542C347.678 206.251 353.423 207.212 355.184 210.103Z" fill="#FF9400"/>
<path d="M393.348 196.763C392.96 198.484 392.453 200.176 391.829 201.826C391.183 203.595 390.457 205.341 389.811 206.963C387.709 212.266 385.285 217.437 382.554 222.445C382.202 223.083 381.82 223.729 381.461 224.36C378.474 229.497 374.989 234.215 371.437 236.534C368.664 238.346 365.846 238.683 363.175 236.534C362.848 236.275 362.555 235.977 362.302 235.646C360.225 233.019 360.049 228.169 361.135 222.438C362.483 216.044 364.663 209.854 367.622 204.027C372.692 193.806 379.582 185.037 385.276 184.289C386.292 184.141 387.329 184.288 388.263 184.715C393.773 187.319 394.404 191.854 393.348 196.763Z" fill="#FFB63F"/>
<path d="M391.829 201.826C391.183 203.595 390.457 205.341 389.811 206.963C387.709 212.266 385.285 217.437 382.554 222.445C382.202 223.084 381.82 223.729 381.461 224.36C378.474 229.497 374.989 234.215 371.437 236.534" stroke="#F7AD2B" stroke-width="0.71" stroke-linecap="round" stroke-linejoin="round"/>
<path d="M393.348 196.763C387.551 194.474 380.301 196.587 373.463 200.395C371.439 201.523 369.479 202.763 367.593 204.108C372.663 193.887 379.553 185.118 385.247 184.37C386.263 184.221 387.3 184.369 388.234 184.795C393.774 187.319 394.405 191.854 393.348 196.763Z" fill="#FFCB66"/>
<path d="M381.461 224.39C378.474 229.526 374.989 234.244 371.437 236.563C368.664 238.375 365.846 238.713 363.175 236.563C362.848 236.304 362.555 236.006 362.302 235.675C366.741 237.7 369.485 234.817 371.547 229.981L371.767 229.438C375.275 220.78 381.475 224.368 381.461 224.39Z" fill="#FF9400"/>
<path d="M331.872 210.184C329.814 208.448 327.87 206.58 326.054 204.593C324.293 202.832 322.671 202.164 320.616 204.886C320.616 204.886 317.681 204.079 316.353 204.593C315.025 205.106 315.392 207.359 316.06 207.851C316.727 208.342 315.451 209.318 315.458 210.184C315.465 211.05 316.192 212.238 315.986 212.752C315.781 213.266 314.658 215.254 316.426 216.502C318.195 217.749 326.384 219.092 326.384 219.092L331.872 210.184Z" fill="#B25E47"/>
<path d="M326.054 204.593C324.293 202.832 322.671 202.164 320.616 204.886C320.616 204.886 317.681 204.079 316.353 204.593C315.025 205.106 315.392 207.359 316.06 207.851C316.727 208.342 315.451 209.318 315.458 210.184C315.465 211.05 316.192 212.238 315.986 212.752C315.781 213.266 314.658 215.254 316.426 216.502" stroke="#934735" stroke-width="0.71" stroke-linecap="round" stroke-linejoin="round"/>
<path d="M320.616 204.886L324.234 206.126" stroke="#934735" stroke-width="0.71" stroke-linecap="round" stroke-linejoin="round"/>
<path d="M371.438 236.563C368.73 239.234 362.449 240.43 355.001 238.031C351.507 236.93 348.107 235.553 344.831 233.914C339.939 231.428 335.403 228.296 331.344 224.603C330.893 224.257 330.545 223.795 330.337 223.266C330.129 222.737 330.068 222.162 330.163 221.602L326.384 219.092L331.873 210.213L336.906 213.222C337.329 212.915 337.833 212.739 338.355 212.717C338.877 212.695 339.394 212.827 339.841 213.097C341.602 213.992 355.067 219.929 358.384 221.279C359.074 221.565 360.035 222.012 361.128 222.526L361.781 222.856L362.361 223.157L362.647 223.304L363.872 223.979C364.826 224.522 365.817 225.124 366.764 225.762L367.497 226.254L367.571 226.305C369.082 227.336 370.432 228.584 371.577 230.011C372.058 230.627 372.432 231.318 372.685 232.058C372.938 232.849 372.954 233.696 372.733 234.496C372.511 235.296 372.061 236.015 371.438 236.563Z" fill="#FFB63F"/>
<path d="M358.391 221.293C359.081 221.579 360.042 222.027 361.135 222.54C363.368 223.626 365.511 224.89 367.541 226.319" stroke="#F7AD2B" stroke-width="0.71" stroke-linecap="round" stroke-linejoin="round"/>
<path d="M331.293 220.009C332.424 217.988 333.764 216.092 335.292 214.352" stroke="#F7AD2B" stroke-width="0.71" stroke-linecap="round" stroke-linejoin="round"/>
<path d="M371.437 236.563C368.73 239.234 362.449 240.43 355.001 238.03C351.507 236.93 348.107 235.553 344.831 233.914C348.015 232.153 355.104 230.7 359.961 234.288C360.689 234.836 361.471 235.308 362.295 235.697C366.734 237.722 369.478 234.838 371.54 230.003C372.021 230.619 372.395 231.311 372.648 232.05C372.906 232.839 372.93 233.685 372.715 234.487C372.5 235.288 372.056 236.01 371.437 236.563Z" fill="#FF9400"/>
<path d="M378.496 183.548C378.225 184.035 377.859 184.463 377.421 184.807C376.983 185.151 376.48 185.405 375.943 185.554C375.406 185.703 374.845 185.743 374.292 185.674C373.739 185.604 373.205 185.425 372.722 185.148C370.153 189.286 362.816 191.862 359.69 188.604C358.156 187.004 358.083 182.976 359.015 178.683C359.261 177.539 359.57 176.41 359.939 175.3C361.033 171.976 362.654 168.828 364.577 166.855L364.834 166.605C371.592 160.155 383.802 167.933 377.425 179.321C377.425 179.321 380.052 180.936 378.496 183.548Z" fill="#B25E47"/>
<path d="M377.425 179.321C376.821 178.972 376.104 178.87 375.427 179.039C374.749 179.207 374.163 179.632 373.793 180.224C373.059 181.273 371.79 180.143 372.509 178.94C373.228 177.736 375.444 174.875 375.488 172.703C375.532 170.531 374.519 169.085 372.589 168.762C370.66 168.44 366.059 169.327 364.833 166.605C371.592 160.155 383.801 167.933 377.425 179.321Z" fill="#D39933"/>
<path d="M365.552 175.418C365.552 175.563 365.596 175.705 365.676 175.826C365.757 175.946 365.871 176.04 366.005 176.096C366.14 176.151 366.287 176.166 366.429 176.138C366.572 176.109 366.702 176.039 366.805 175.937C366.908 175.834 366.978 175.703 367.006 175.561C367.034 175.419 367.02 175.271 366.964 175.137C366.909 175.003 366.815 174.888 366.694 174.808C366.573 174.727 366.431 174.684 366.286 174.684C366.092 174.684 365.905 174.761 365.767 174.899C365.63 175.037 365.552 175.223 365.552 175.418Z" fill="#683F1D"/>
<path d="M361.656 173.899C361.656 174.1 361.737 174.293 361.879 174.436C362.021 174.578 362.215 174.658 362.416 174.658C362.617 174.658 362.811 174.578 362.953 174.436C363.095 174.293 363.175 174.1 363.175 173.899C363.175 173.697 363.095 173.504 362.953 173.362C362.811 173.219 362.617 173.139 362.416 173.139C362.215 173.139 362.021 173.219 361.879 173.362C361.737 173.504 361.656 173.697 361.656 173.899Z" fill="#683F1D"/>
<path d="M361.011 178.184C360.937 176.518 361.304 175.873 362.42 175.66C363.535 175.447 364.819 174.735 364.269 172.879" stroke="#934735" stroke-width="0.71" stroke-linecap="round" stroke-linejoin="round"/>
<path d="M373.793 182.792C374.526 180.709 376.992 180.709 377.462 181.817" stroke="#934735" stroke-width="0.71" stroke-linecap="round" stroke-linejoin="round"/>
<path d="M374.006 182.33C375.928 180.642 377.44 183.966 374.284 183.966" stroke="#934735" stroke-width="0.71" stroke-linecap="round" stroke-linejoin="round"/>
<path d="M361.172 169.929C361.011 170.494 363.946 171.844 364.511 170.663C365.076 169.481 361.502 168.799 361.172 169.929Z" fill="#D39933"/>
<path d="M366.514 171.756C366.118 173.026 369.852 174.86 370.41 173.958C370.711 173.452 367.255 169.364 366.514 171.756Z" fill="#D39933"/>
<path d="M361.37 181.207C361.605 180.356 364.305 181.853 364.012 183.145C363.718 184.436 360.974 182.587 361.37 181.207Z" fill="white" stroke="#934735" stroke-width="0.71" stroke-linecap="round" stroke-linejoin="round"/>
<path d="M371.518 178.999C371.695 180.048 370.447 181.127 368.737 181.413C367.028 181.699 365.487 181.075 365.311 180.026C365.135 178.977 366.389 177.898 368.099 177.612C369.809 177.326 371.35 177.95 371.518 178.999Z" fill="#A0503D"/>
<path d="M359.925 178.441C359.659 178.626 359.337 178.711 359.015 178.683C359.261 177.54 359.57 176.411 359.939 175.301C360.651 176.534 360.673 177.884 359.925 178.441Z" fill="#A0503D"/>
<path d="M372.714 185.148C372.204 184.969 371.758 184.645 371.43 184.216" stroke="#934735" stroke-width="0.71" stroke-linecap="round" stroke-linejoin="round"/>
<path d="M333.92 171.962L327.602 174.383C325.782 172.864 323.559 168.785 323.632 168.645C323.706 168.506 325.944 165.358 327.851 162.68L329.803 159.935L330.434 159.047C330.434 159.047 332.379 160.375 332.636 161.095C332.652 161.119 332.665 161.146 332.672 161.175C333.183 163.722 333.516 166.302 333.67 168.895C333.773 169.819 333.824 170.839 333.92 171.962Z" fill="#B25E47"/>
<path d="M344.038 208.019C343.105 209.022 341.87 209.694 340.521 209.932C339.172 210.17 337.782 209.963 336.561 209.34C335.114 208.491 333.971 207.207 333.296 205.671C332.467 203.954 331.667 202.171 330.919 200.388C326.729 190.299 324.256 179.975 327.653 179.109L326.78 174.706L334.646 171.698L336.407 177.179C336.407 177.179 337.955 175.888 338.755 177.722C339.32 178.999 342.065 187.65 344.046 194.122C344.046 194.225 344.112 194.32 344.141 194.423V194.459C344.229 194.768 344.317 195.061 344.413 195.362C345.11 197.651 345.675 199.559 345.946 200.586C346.329 201.882 346.353 203.257 346.017 204.566C345.682 205.875 344.998 207.068 344.038 208.019Z" fill="#FFB63F"/>
<path d="M343.283 200.586C343.834 199.667 344.194 198.646 344.342 197.584C344.489 196.523 344.421 195.442 344.141 194.408" stroke="#F7AD2B" stroke-width="0.71" stroke-linecap="round" stroke-linejoin="round"/>
<path d="M329.576 178.668L334.499 177.45" stroke="#F7AD2B" stroke-width="0.71" stroke-linecap="round" stroke-linejoin="round"/>
<path d="M344.039 208.019C343.105 209.022 341.87 209.694 340.521 209.932C339.172 210.17 337.782 209.962 336.561 209.34C335.114 208.491 333.972 207.207 333.296 205.671C332.467 203.954 331.667 202.171 330.919 200.388C331.847 200.343 332.775 200.483 333.648 200.799C335.718 201.533 337.391 203.14 337.633 204.901C338.227 209.318 341.412 209.083 344.039 208.019Z" fill="#FF9400"/>
<path d="M351.435 131.839L324.058 171.896L319.809 178.111L317.329 181.736L307.335 196.345L304.107 201.078C303.825 201.449 303.412 201.698 302.952 201.773C302.492 201.847 302.021 201.742 301.637 201.478C301.253 201.215 300.985 200.814 300.888 200.358C300.792 199.902 300.875 199.427 301.12 199.031L304.517 194.056L314.636 179.255L317.278 175.389L321.644 168.997L348.404 129.829L351.435 131.839Z" fill="#F9F9F9" stroke="#DDDDDD" stroke-width="0.94" stroke-linecap="round" stroke-linejoin="round"/>
<path d="M324.021 171.896L319.773 178.111L317.292 181.735C316.218 181.122 315.307 180.259 314.636 179.219L317.278 175.352L321.644 168.96C322.111 170.163 322.942 171.189 324.021 171.896Z" fill="#F9F9F9" stroke="#DDDDDD" stroke-width="0.94" stroke-linecap="round" stroke-linejoin="round"/>
<path d="M346.196 130.966L351.156 133.666L355.485 129.161L347.333 128.354L346.196 130.966Z" fill="#F9F9F9" stroke="#DDDDDD" stroke-width="0.94" stroke-linecap="round" stroke-linejoin="round"/>
<path d="M349.365 128.053H343.517L342.894 125.154H349.365V128.053Z" fill="#F9F9F9" stroke="#DDDDDD" stroke-width="0.94" stroke-linecap="round" stroke-linejoin="round"/>
<path d="M364.98 124.391H356.527V128.808H364.98V124.391Z" fill="#F9F9F9" stroke="#DDDDDD" stroke-width="0.94" stroke-linecap="round" stroke-linejoin="round"/>
<path d="M362.706 126.637C362.704 127.431 362.938 128.208 363.378 128.869C363.819 129.53 364.445 130.045 365.178 130.35C365.912 130.655 366.719 130.736 367.498 130.582C368.277 130.428 368.993 130.046 369.555 129.485C370.117 128.924 370.5 128.209 370.655 127.43C370.811 126.651 370.732 125.844 370.428 125.11C370.125 124.376 369.61 123.749 368.95 123.307C368.29 122.866 367.513 122.63 366.719 122.63C365.656 122.63 364.636 123.052 363.884 123.803C363.131 124.555 362.708 125.574 362.706 126.637Z" fill="#DDDDDD" stroke="#DDDDDD" stroke-width="0.94" stroke-miterlimit="10"/>
<path d="M346.086 129.014L360.137 129.916L361.121 123.291L346.034 124.501L346.086 129.014Z" fill="#DDDDDD" stroke="#DDDDDD" stroke-width="0.94" stroke-miterlimit="10"/>
<path d="M319.773 178.111L307.298 196.308C306.107 195.923 305.102 195.106 304.481 194.019L317.241 175.352C317.438 175.967 317.766 176.533 318.203 177.009C318.64 177.486 319.176 177.862 319.773 178.111Z" fill="#F9F9F9" stroke="#EDEDED" stroke-width="0.94" stroke-linecap="round" stroke-linejoin="round"/>
<path d="M321.783 161.527C322.942 160.287 327.081 164.551 326.222 165.776C325.107 167.383 319.883 163.611 321.783 161.527Z" fill="#B25E47" stroke="#934735" stroke-width="0.71" stroke-linecap="round" stroke-linejoin="round"/>
<path d="M323.089 159.165C324.483 158.196 328.38 162.181 327.529 163.406C326.406 165.02 321.159 160.5 323.089 159.165Z" fill="#B25E47" stroke="#934735" stroke-width="0.71" stroke-linecap="round" stroke-linejoin="round"/>
<path d="M324.212 157.316C325.679 156.508 329.099 160.133 328.651 161.557C328.203 162.98 321.739 158.651 324.212 157.316Z" fill="#B25E47" stroke="#934735" stroke-width="0.71" stroke-linecap="round" stroke-linejoin="round"/>
<path d="M326.076 155.988C327.14 155.085 331.212 158.387 330.735 159.818C330.258 161.249 323.94 157.822 326.076 155.988Z" fill="#B25E47" stroke="#934735" stroke-width="0.71" stroke-linecap="round" stroke-linejoin="round"/>
<path d="M333.7 168.894C332.555 170.222 330.955 171.441 329.789 169.775C327.778 166.899 329.789 163.252 329.789 163.252C329.129 163.113 328.481 162.921 327.851 162.679L327.294 162.474C325.305 161.74 324.417 159.854 325.54 159.539C326.142 159.355 328.094 159.539 329.803 159.957C331.183 160.273 332.401 160.691 332.665 161.116C332.682 161.141 332.694 161.168 332.702 161.197C333.211 163.737 333.545 166.309 333.7 168.894Z" fill="#B25E47"/>
<path d="M328.901 167.045C328.885 165.728 329.19 164.426 329.789 163.252C329.129 163.113 328.481 162.921 327.851 162.679L327.294 162.474C325.305 161.74 324.417 159.854 325.54 159.539C326.142 159.355 328.094 159.539 329.803 159.957C331.183 160.273 332.401 160.691 332.665 161.116C332.682 161.141 332.694 161.168 332.702 161.197C332.883 161.984 333.023 162.78 333.12 163.582" stroke="#934735" stroke-width="0.71" stroke-linecap="round" stroke-linejoin="round"/>
<path d="M322.671 154.028C315.521 150.457 308.585 146.473 301.898 142.097C300.328 141.114 298.963 140.248 297.745 139.543C293.541 137.817 289.739 135.241 286.577 131.978C277.507 122.234 281.998 110.794 295.323 113.428H295.455C295.742 113.568 296.028 113.714 296.321 113.876C297.701 114.61 299.256 115.637 301.003 116.811C303.542 118.557 306.374 120.671 309.258 122.945C318.224 130.004 327.749 138.501 330.757 141.495C337.324 148.026 334.492 159.744 322.671 154.028Z" fill="#A7CAF0"/>
<path d="M301.898 142.097C300.328 141.114 298.963 140.248 297.745 139.544C296.257 138.896 294.809 138.161 293.408 137.342" stroke="#83ADDF" stroke-width="0.71" stroke-linecap="round" stroke-linejoin="round"/>
<path d="M301.01 116.826C300.496 116.921 299.975 117.024 299.462 117.171C297.15 117.721 295.018 118.856 293.27 120.465C291.521 122.075 290.215 124.106 289.475 126.365C288.762 128.356 287.787 130.244 286.577 131.978C277.507 122.234 281.998 110.794 295.323 113.428H295.455C295.742 113.568 296.028 113.714 296.321 113.876C297.708 114.661 299.293 115.63 301.01 116.826Z" fill="#C3DCF8"/>
<path d="M322.671 154.028C315.521 150.457 308.585 146.473 301.898 142.097C302.206 133.343 303.674 125.954 309.236 122.96C318.202 130.019 327.727 138.516 330.735 141.51C337.324 148.026 334.492 159.744 322.671 154.028Z" fill="#B25E47"/>
<path d="M299.403 142.244C301.039 143.711 304.356 145.472 305.229 145.105C305.229 145.105 302.918 140.703 306.139 133.028C309.36 125.352 312.119 123.87 312.119 123.87C312.119 123.87 310.41 121.25 308.025 120.715C308.025 120.715 298.339 125.506 299.403 142.244Z" fill="#83ADDF"/>
<path d="M325.159 155.026C330.097 159.429 337.104 157.514 346.042 140.644C354.979 123.775 356.175 120.715 356.175 120.715C356.175 120.715 363.513 121.199 364.166 120.231C364.819 119.262 362.375 118.99 360.754 118.33C359.132 117.67 358.707 117.053 359.558 116.672C360.409 116.29 366.411 116.239 367.725 116.283C369.038 116.327 369.926 115.197 369.735 114.536C369.735 114.536 371.841 114.815 372.252 113.069C372.523 111.895 369.853 112.401 369.853 112.401C369.853 112.401 370.476 111.587 369.779 111.279C369.082 110.97 358.53 111.117 355.632 111.389C352.734 111.66 351.501 112.401 348.25 115.923C345 119.445 329.517 137.203 327.228 140.351C324.938 143.498 319.883 150.286 325.159 155.026Z" fill="#B25E47"/>
<path d="M332.716 133.666C330.082 136.763 327.969 139.301 327.228 140.321" stroke="#934735" stroke-width="0.71" stroke-linecap="round" stroke-linejoin="round"/>
<path d="M358.941 120.825C361.106 120.869 363.799 120.825 364.166 120.23C364.782 119.262 362.375 118.99 360.754 118.33C359.132 117.67 358.707 117.053 359.558 116.672C360.409 116.29 366.411 116.239 367.725 116.283C369.038 116.327 369.926 115.197 369.735 114.536C369.735 114.536 371.841 114.815 372.252 113.069C372.524 111.895 369.853 112.401 369.853 112.401C369.853 112.401 370.476 111.587 369.779 111.278C368.187 111.096 366.582 111.037 364.98 111.102" stroke="#934735" stroke-width="0.71" stroke-linecap="round" stroke-linejoin="round"/>
<path d="M356.175 120.715L356.659 119.218" stroke="#934735" stroke-width="0.71" stroke-linecap="round" stroke-linejoin="round"/>
<path d="M369.735 114.537L361.502 114.72" stroke="#934735" stroke-width="0.71" stroke-linecap="round" stroke-linejoin="round"/>
<path d="M369.852 112.372L361.319 113.018" stroke="#934735" stroke-width="0.71" stroke-linecap="round" stroke-linejoin="round"/>
<path d="M305.941 320.55C305.941 320.55 322.502 330.97 321.791 332.562C321.079 334.154 296.109 332.562 294.34 332.562C291.405 332.562 292.968 318.43 292.968 318.43L305.941 320.55Z" fill="#A7CAF0"/>
<path d="M251.304 320.353C251.304 320.353 236.181 329.892 236.834 331.359C237.487 332.827 260.315 331.359 261.9 331.359C264.564 331.359 263.155 318.452 263.155 318.452L251.304 320.353Z" fill="#A7CAF0"/>
<path d="M305.941 320.558H291.926L267.418 200.579C267.418 200.579 262.333 236.607 262.223 244.172C262.113 251.092 263.052 309.221 263.214 319.127C263.214 320.051 263.214 320.558 263.214 320.558H251.048C250.916 319.376 245.053 267.726 244.047 253.44C243.189 241.178 242 228.594 241.523 219.121C241.435 217.426 241.369 215.841 241.34 214.374C241.112 204.659 242.58 184.575 247.21 170.722L280.428 169.907L288.11 169.724C287.208 175.278 288.11 181.721 288.903 186.6C289.695 191.48 305.941 320.558 305.941 320.558Z" fill="#FFB63F"/>
<path d="M259.31 180.716C250.365 176.812 247.569 185.595 250.108 195.354C252.31 204.042 248.751 209.883 241.516 219.099C241.428 217.404 241.362 215.819 241.332 214.352C241.105 204.637 242.572 184.553 247.202 170.7L280.42 169.885C280.645 170.362 280.841 170.852 281.007 171.353C282.849 176.959 268.254 184.605 259.31 180.716Z" fill="#FF9400"/>
<path d="M282.754 175.065C283.529 176.866 284.609 178.519 285.946 179.952" stroke="#F7AD2B" stroke-width="0.71" stroke-linecap="round" stroke-linejoin="round"/>
<path d="M244.561 180.716C246.359 180.305 249.198 175.968 249.235 175.462" stroke="#F7AD2B" stroke-width="0.71" stroke-linecap="round" stroke-linejoin="round"/>
<path d="M265.76 175.352C265.472 178.721 265.374 182.104 265.466 185.485" stroke="#F7AD2B" stroke-width="0.71" stroke-linecap="round" stroke-linejoin="round"/>
<path d="M265.76 187.708C268.071 186.659 269.157 186.806 269.274 185.83C269.392 184.854 269.832 175.352 269.832 175.352" stroke="#F7AD2B" stroke-width="0.71" stroke-linecap="round" stroke-linejoin="round"/>
<path d="M260.77 196.345C266.427 195.707 269.832 198.246 269.832 198.246" stroke="#F7AD2B" stroke-width="0.71" stroke-linecap="round" stroke-linejoin="round"/>
<path d="M276.407 115.843C278.439 124.516 271.013 129.124 268.519 129.124C266.024 129.124 256.397 122.564 258.745 117.332C260.726 112.93 265.466 106.465 265.701 101.314C265.936 96.1629 270.786 90.0433 275.702 95.0476C276.762 96.1004 277.426 97.4873 277.581 98.9733C278.05 102.965 275.607 107.845 276.04 113.421C276.099 114.237 276.222 115.046 276.407 115.843Z" fill="#B25E47"/>
<path d="M276.04 113.429C269.084 113.062 268.57 106.876 271.05 101.513C272.481 98.4233 275.042 97.9904 277.581 98.981C278.058 102.965 275.607 107.845 276.04 113.429Z" fill="#914839"/>
<path d="M297.745 139.543C295.61 144.161 293.875 148.953 292.557 153.867C290.033 162.841 289.093 170.545 288.697 171.69C288.301 172.835 287.963 173.062 282.827 172.989C277.691 172.915 245.456 172.989 245.456 172.989C245.456 172.989 247.122 151.482 247.114 142.244C247.142 141.08 247.088 139.915 246.953 138.758C246.359 135.185 243.768 126.365 244.018 121.353C244.106 119.644 244.524 118.382 245.485 117.912C249.506 115.923 254.724 115.131 258.414 114.977C258.84 114.977 259.251 114.977 259.633 114.977C259.713 115.069 259.782 115.17 259.838 115.278C260.109 115.733 260.359 116.393 260.792 117.009C261.753 118.374 264.784 120.194 266.801 120.091C268.819 119.988 268.511 124.736 269.737 125.096C270.962 125.455 271.028 123.628 271.388 121.045C271.747 118.462 276.399 115.63 276.399 115.63C276.399 115.63 276.399 115.542 276.355 115.402C276.311 115.263 276.318 115.219 276.304 115.109C277.038 114.691 277.771 114.294 278.542 113.928C283.069 111.726 287.985 110.457 293.812 112.731L294.355 112.959C294.707 113.113 295.037 113.282 295.353 113.451C297.029 114.325 298.452 115.616 299.484 117.2C303.952 124.12 299.608 135.178 297.745 139.543Z" fill="#A7CAF0"/>
<path d="M299.462 117.171C297.15 117.722 295.018 118.856 293.27 120.466C291.521 122.075 290.215 124.106 289.475 126.365C288.762 128.356 287.787 130.244 286.577 131.978C280.061 141.341 267.866 144.504 261.467 135.368C259.847 133.042 258.033 130.858 256.044 128.838C252.508 125.279 248.487 122.564 243.967 121.361C244.055 119.651 244.473 118.389 245.434 117.919C249.455 115.931 254.672 115.138 258.363 114.984C258.789 114.984 259.2 114.984 259.581 114.984C259.661 115.076 259.73 115.177 259.787 115.285C260.058 115.74 260.308 116.4 260.741 117.017C261.702 118.381 264.732 120.201 266.75 120.099C268.768 119.996 268.46 124.743 269.685 125.103C270.911 125.462 270.977 123.635 271.336 121.052C271.696 118.47 276.348 115.637 276.348 115.637C276.348 115.637 276.348 115.549 276.304 115.41C276.26 115.27 276.267 115.226 276.253 115.116C276.986 114.698 277.72 114.302 278.491 113.935C283.018 111.734 287.934 110.464 293.76 112.739L294.303 112.966C294.656 113.12 294.986 113.289 295.301 113.458C296.984 114.318 298.417 115.597 299.462 117.171Z" fill="#C3DCF8"/>
<path d="M261.467 121.361C261.467 121.361 267.631 138.362 271.065 142.596C271.065 142.596 275.328 126.387 275.666 118.778" stroke="#683F1D" stroke-width="0.94" stroke-miterlimit="10"/>
<path d="M278.153 123.841C275.717 123.35 275.673 120.099 273.479 120.767C271.285 121.434 273.002 126.365 269.693 126.365C266.383 126.365 267.799 121.963 266.09 121.823C264.38 121.684 262.604 124.193 259.926 125.492C257.248 126.791 255.281 117.12 258.356 114.955C258.943 114.559 259.28 114.625 259.552 114.955C259.823 115.285 260.168 116.21 260.711 116.988C261.672 118.353 264.703 120.172 266.721 120.07C268.739 119.967 268.43 124.714 269.656 125.074C270.881 125.433 270.947 123.606 271.307 121.024C271.666 118.441 276.318 115.608 276.318 115.608C276.318 115.608 276.274 115.388 276.223 115.087C276.142 114.61 276.032 113.913 276.003 113.436C276.852 113.28 277.729 113.448 278.461 113.906C278.873 114.249 279.136 114.738 279.195 115.271C279.672 117.626 280.589 124.325 278.153 123.841Z" fill="white"/>
<path d="M275.673 142.244H267.279V155.276H275.673V142.244Z" fill="white" stroke="#683F1D" stroke-width="0.94" stroke-linecap="round" stroke-linejoin="round"/>
<path d="M247.085 142.244C245.088 146.8 242.834 151.239 240.334 155.54C237.15 160.969 233.202 166.546 229.328 169.122C226.583 170.934 223.861 171.25 221.44 168.96C221.084 168.625 220.786 168.234 220.559 167.801C217.925 162.855 223.017 152.01 228.088 143.095C231.713 136.726 235.308 131.354 236.079 129.792L247.085 142.244Z" fill="#B25E47"/>
<path d="M256.14 127.619C256.144 128.028 256.112 128.435 256.045 128.838C255.142 134.832 247.071 142.251 247.071 142.251L236.064 129.777C237.488 126.564 239.34 123.558 241.567 120.839C242.6 119.56 243.93 118.553 245.442 117.904C250.908 115.96 255.979 121.5 256.14 127.619Z" fill="#A7CAF0"/>
<path d="M256.14 127.62C256.144 128.028 256.112 128.435 256.045 128.838C252.508 125.279 248.487 122.564 243.967 121.361C243.169 121.139 242.358 120.972 241.538 120.862C242.571 119.582 243.901 118.575 245.412 117.927C250.908 115.96 255.978 121.5 256.14 127.62Z" fill="#C3DCF8"/>
<path d="M236.849 126.365C236.849 126.365 251.048 141.987 250.996 142.244C250.945 142.501 247.54 145.81 247.54 145.81C247.54 145.81 234.633 131.714 234.633 130.995C234.633 130.276 236.13 126.85 236.849 126.365Z" fill="#83ADDF"/>
<path d="M272.305 174.383H241.281L234.244 133.285H265.261L272.305 174.383Z" fill="#F9F9F9" stroke="#DDDDDD" stroke-width="0.94" stroke-linecap="round" stroke-linejoin="round"/>
<path d="M255.208 135.368H245.016L245.574 131.398H253.285L255.208 135.368Z" fill="#DDDDDD"/>
<path d="M251.463 133.117C252.345 132.155 252.136 130.528 250.995 129.481C249.855 128.434 248.215 128.364 247.333 129.326C246.45 130.287 246.659 131.915 247.8 132.962C248.94 134.009 250.58 134.078 251.463 133.117Z" fill="#DDDDDD"/>
<path d="M250.549 132.278C251.043 131.741 250.927 130.832 250.291 130.248C249.655 129.664 248.74 129.627 248.246 130.164C247.753 130.702 247.869 131.61 248.505 132.194C249.141 132.778 250.056 132.815 250.549 132.278Z" fill="#F9F9F9" stroke="#DDDDDD" stroke-width="0.94" stroke-linecap="round" stroke-linejoin="round"/>
<path d="M271.835 159.436C271.586 160.236 272.004 160.331 272.166 160.948C272.321 161.472 272.294 162.035 272.087 162.542C271.88 163.049 271.507 163.47 271.028 163.736C270.228 164.279 263.199 164.191 261.489 164.602C260.352 164.873 253.014 167.001 246.645 169.004C243.38 170.024 240.379 171.015 238.573 171.697C233.261 173.723 222.474 174.324 220.552 167.808C219.51 164.242 223.179 160.727 228.014 158.379C231.51 156.642 235.34 155.681 239.241 155.562C239.564 155.562 239.975 155.562 240.356 155.562C245.874 155.437 258.605 154.373 259.559 154.322C260.513 154.27 263.368 152.473 265.62 151.731C265.908 151.624 266.215 151.576 266.523 151.59C266.83 151.604 267.131 151.679 267.408 151.812C267.686 151.945 267.934 152.132 268.137 152.363C268.34 152.594 268.495 152.863 268.592 153.155C268.592 153.155 271.967 151.394 272.723 152.59C273.626 154.006 271.703 155.092 272.166 156.068C272.863 157.572 272.092 158.629 271.835 159.436Z" fill="#B25E47"/>
<path d="M265.583 151.709C265.872 151.602 266.179 151.554 266.486 151.568C266.793 151.582 267.094 151.657 267.372 151.79C267.649 151.923 267.897 152.11 268.1 152.341C268.304 152.572 268.458 152.841 268.555 153.133C268.555 153.133 271.931 151.372 272.686 152.568C273.589 153.984 271.666 155.07 272.129 156.046C272.863 157.572 272.077 158.629 271.821 159.436C271.564 160.243 271.989 160.331 272.151 160.948C272.307 161.472 272.279 162.035 272.072 162.542C271.865 163.049 271.492 163.47 271.013 163.736" stroke="#934735" stroke-width="0.71" stroke-linecap="round" stroke-linejoin="round"/>
<path d="M227.992 158.372C231.488 156.635 235.318 155.674 239.219 155.554" stroke="#934735" stroke-width="0.71" stroke-linecap="round" stroke-linejoin="round"/>
<path d="M268.57 153.133L265.209 154.3" stroke="#934735" stroke-width="0.71" stroke-linecap="round" stroke-linejoin="round"/>
<path d="M281.492 108.468C284.073 108.468 286.166 106.376 286.166 103.794C286.166 101.213 284.073 99.1201 281.492 99.1201C278.91 99.1201 276.818 101.213 276.818 103.794C276.818 106.376 278.91 108.468 281.492 108.468Z" stroke="#FFB63F" stroke-width="0.94" stroke-linecap="round" stroke-linejoin="round"/>
<path d="M277.639 108.659C273.457 109.569 269.428 105.042 267.557 102.195C262.186 94.0058 267.036 84.8997 271.674 84.5108C276.311 84.1219 279.217 87.5412 281.433 94.6075C281.565 95.0331 281.682 95.4513 281.785 95.8696C282.092 97.0716 282.284 98.3001 282.358 99.5384C282.614 104.337 280.802 107.969 277.639 108.659Z" fill="#B25E47"/>
<path d="M268.423 85.4721L261.386 88.7741C260.139 90.2416 257.857 90.7406 257.527 88.7741C257.527 88.7741 255.135 90.5205 253.645 88.3265C252.42 86.5361 254.32 85.1419 254.32 85.1419C254.067 85.1486 253.816 85.0958 253.586 84.9878C252.398 84.3788 252.794 82.2729 254.452 82.6911C253.645 82.4747 252.953 81.9543 252.52 81.239C252.088 80.5236 251.95 79.6688 252.134 78.8535C252.189 78.4496 252.326 78.0611 252.536 77.7116C252.746 77.3621 253.025 77.0589 253.356 76.8202C253.686 76.5815 254.062 76.4124 254.46 76.3229C254.858 76.2335 255.269 76.2257 255.67 76.3C254.65 74.8764 255.67 72.9099 257.189 73.8125C256.844 70.8774 261.973 69.4979 263.221 72.7412C264.241 71.369 266.479 71.6405 266.449 74.2601C267.073 72.2128 270.067 72.5871 269.671 75.5001C269.671 75.5001 270.837 73.7097 272.606 76.6155C274.374 79.5212 268.423 85.4721 268.423 85.4721Z" fill="#604730"/>
<path d="M268.423 85.4721L261.386 88.7741C260.139 90.2417 257.857 90.7406 257.527 88.7741C257.527 88.7741 255.135 90.5205 253.645 88.3265C252.42 86.5361 254.32 85.142 254.32 85.142C255.443 85.9931 255.502 87.7689 257.38 86.8516C259.258 85.9344 256.206 82.2876 257.938 81.7152C259.669 81.1429 259.405 84.1881 260.77 83.9899C262.135 83.7918 255.854 78.6701 259.449 76.9531C263.045 75.236 265.063 78.8755 266.743 79.2791C268.423 79.6827 268.511 75.1407 266.413 74.2454C267.036 72.1982 270.03 72.5724 269.634 75.4855C269.634 75.4855 270.801 73.6951 272.569 76.6009C274.337 79.5066 268.423 85.4721 268.423 85.4721Z" fill="#473526"/>
<path d="M278.586 93.2937C278.586 93.4747 278.658 93.6483 278.786 93.7763C278.914 93.9042 279.088 93.9761 279.269 93.9761C279.45 93.9761 279.623 93.9042 279.751 93.7763C279.879 93.6483 279.951 93.4747 279.951 93.2937C279.951 93.1127 279.879 92.9392 279.751 92.8112C279.623 92.6832 279.45 92.6113 279.269 92.6113C279.088 92.6113 278.914 92.6832 278.786 92.8112C278.658 92.9392 278.586 93.1127 278.586 93.2937Z" fill="#683F1D"/>
<path d="M275.666 95.0259C276.042 95.0259 276.348 94.7204 276.348 94.3435C276.348 93.9667 276.042 93.6611 275.666 93.6611C275.289 93.6611 274.983 93.9667 274.983 94.3435C274.983 94.7204 275.289 95.0259 275.666 95.0259Z" fill="#683F1D"/>
<path d="M276.722 88.9721C276.722 89.8086 279.87 90.0214 280.076 89.5371C280.281 89.0529 276.722 86.9396 276.722 88.9721Z" fill="#604730"/>
<path d="M271.065 91.3126C271.065 91.9363 274.976 90.9677 274.734 89.4929C274.491 88.018 271.006 90.2193 271.065 91.3126Z" fill="#604730"/>
<path d="M277.126 91.6357C277.045 93.8371 278.204 94.358 279.437 94.8717C279.755 95.076 279.984 95.3925 280.08 95.7582C280.175 96.124 280.129 96.5121 279.951 96.8455" stroke="#934735" stroke-width="0.71" stroke-linecap="round" stroke-linejoin="round"/>
<path d="M275.504 99.9126C276.81 99.9933 279.951 99.1201 279.951 99.1201C279.951 99.1201 279.951 100.764 278.586 101.116C277.221 101.468 275.71 100.632 275.504 99.9126Z" fill="white" stroke="#934735" stroke-width="0.71" stroke-linecap="round" stroke-linejoin="round"/>
<path d="M268.291 101.476C266.706 103.119 263.478 103.64 262.472 100.588C261.24 96.8454 266.053 94.7688 268.012 98.2469L268.291 101.476Z" fill="#B25E47"/>
<path d="M267.264 102.261C266.73 102.563 266.136 102.743 265.525 102.789" stroke="#934735" stroke-width="0.71" stroke-linecap="round" stroke-linejoin="round"/>
<path d="M263.69 99.8835C264.006 98.0711 266.149 97.8436 266.743 99.4579" stroke="#934735" stroke-width="0.71" stroke-linecap="round" stroke-linejoin="round"/>
<path d="M266.449 98.9293C264.527 98.3863 264.182 101.321 266.604 100.551" stroke="#934735" stroke-width="0.71" stroke-linecap="round" stroke-linejoin="round"/>
<path d="M277.419 87.145C277.216 87.1781 277.007 87.1691 276.807 87.1185C276.607 87.068 276.419 86.9771 276.256 86.8513C276.092 86.7254 275.956 86.5675 275.856 86.387C275.756 86.2066 275.693 86.0076 275.673 85.8022C275.482 87.9228 273.09 87.9595 272.378 86.0737C272.298 88.1429 270.338 88.3631 269.553 86.8075C270.522 88.9648 268.416 89.8013 267.132 89.3757C268.489 90.1681 268.291 91.5183 266.904 91.6504C267.297 91.7324 267.659 91.9199 267.953 92.1927C268.246 92.4656 268.46 92.8134 268.57 93.1986C268.856 94.4827 267.491 95.5687 267.491 95.5687C267.491 95.5687 267.88 95.4807 268.629 96.4859C269.377 97.4912 267.829 98.4231 267.286 98.0635C266.743 97.704 266.89 96.596 265.752 96.5373C265.325 96.4995 264.894 96.5292 264.476 96.6253C263.994 96.7279 263.549 96.9566 263.186 97.288C262.822 97.6194 262.553 98.0415 262.406 98.5111C260.769 96.1974 260.113 93.3304 260.58 90.5348C261.047 87.7393 262.6 85.2416 264.901 83.5862C266.331 82.6376 268.044 82.21 269.751 82.3755C271.031 82.4683 272.289 82.7604 273.479 83.2413C273.875 83.3954 274.095 83.5055 274.095 83.5055C274.095 83.5055 273.971 81.3042 276.172 81.5096C278.623 81.7371 277.419 84.0338 277.419 84.0338C278.99 84.2466 278.946 86.9175 277.419 87.145Z" fill="#604730"/>
<path d="M269.546 96.5518C269.084 97.491 269.803 98.7898 271.16 99.4869C272.518 100.184 273.993 99.9492 274.455 99.0173C274.917 98.0854 274.198 96.7719 272.841 96.0822C271.483 95.3924 269.986 95.6272 269.546 96.5518Z" fill="#A0503D"/>
<path d="M282.358 99.5385C282.087 99.5771 281.811 99.5476 281.555 99.4528C281.299 99.358 281.07 99.2008 280.89 98.9955C280.252 98.1957 280.655 96.7942 281.793 95.8696C282.097 97.0719 282.286 98.3004 282.358 99.5385Z" fill="#A0503D"/>
<path d="M264.476 96.6107C263.994 96.7133 263.549 96.942 263.186 97.2734C262.822 97.6048 262.553 98.0269 262.406 98.4965C260.719 86.9983 266.435 83.4468 269.744 82.3535C271.024 82.4463 272.282 82.7385 273.472 83.2194C265.488 83.5716 264.167 91.012 264.476 96.6107Z" fill="#FFB63F"/>
<path d="M270.118 82.8892C269.788 80.4972 270.038 76.2853 272.899 74.084C272.899 74.084 275.666 80.7907 270.97 82.8892H270.118Z" fill="#FFB63F"/>
<path d="M260.447 78.8461C263.852 78.5966 267.983 81.517 269.084 83.3588C269.076 83.3441 264.035 86.4479 260.447 78.8461Z" fill="#FFB63F"/>
<path d="M270.595 82.4485C271.326 81.3653 271.812 80.1358 272.019 78.8457" stroke="#F7AD2B" stroke-width="0.71" stroke-linecap="round" stroke-linejoin="round"/>
<path d="M264.615 81.4805C265.385 81.7079 269.076 83.3589 269.076 83.3589" stroke="#F7AD2B" stroke-width="0.71" stroke-linecap="round" stroke-linejoin="round"/>
<path d="M268.812 82.3459C270.192 81.436 271.483 82.1698 271.535 83.0797C271.586 83.9895 269.297 84.6499 268.761 84.1583C268.617 84.053 268.501 83.9143 268.422 83.7541C268.344 83.5938 268.305 83.4169 268.31 83.2386C268.315 83.0602 268.364 82.8858 268.451 82.7303C268.539 82.5748 268.662 82.4429 268.812 82.3459Z" fill="#FFB63F"/>
<path d="M268.812 82.3459C270.192 81.436 271.483 82.1698 271.535 83.0797C271.586 83.9895 269.297 84.6499 268.761 84.1583C268.617 84.053 268.501 83.9143 268.422 83.7541C268.344 83.5938 268.305 83.4169 268.31 83.2386C268.315 83.0602 268.364 82.8858 268.451 82.7303C268.539 82.5748 268.662 82.4429 268.812 82.3459Z" stroke="#F7AD2B" stroke-width="0.71" stroke-linecap="round" stroke-linejoin="round"/>
<path d="M262.839 101.733C261.623 102.124 260.588 102.939 259.922 104.03C259.256 105.12 259.003 106.414 259.21 107.675C259.417 108.936 260.07 110.081 261.05 110.901C262.03 111.721 263.272 112.162 264.549 112.144C265.827 112.126 267.056 111.65 268.012 110.803C268.969 109.955 269.589 108.793 269.76 107.526C269.932 106.26 269.643 104.974 268.947 103.903C268.25 102.831 267.192 102.046 265.965 101.688" stroke="#FFB63F" stroke-width="0.94" stroke-linecap="round" stroke-linejoin="round"/>
<path d="M200.821 328.872C200.821 328.872 201.745 343.701 202.024 345.822C202.215 347.209 200.733 348.133 199.713 348.324C198.693 348.515 171.008 348.324 168.601 348.324C166.194 348.324 168.968 343.782 173.004 342.674C177.039 341.566 185.602 335.446 186.622 330.266C187.642 325.085 198.289 326.465 200.821 328.872Z" fill="#FFB63F"/>
<path d="M270.764 322.686C270.764 322.686 277.052 334.323 278.102 335.93C278.777 336.979 277.926 338.285 277.17 338.814C276.414 339.342 253.939 349.549 251.994 350.437C250.05 351.325 250.593 346.629 253.462 344.207C256.331 341.786 260.939 333.663 259.823 329.091C258.708 324.52 267.822 321.68 270.764 322.686Z" fill="#FFB63F"/>
<path d="M176.063 188.501L224.037 173.092C224.037 173.092 240.973 247.283 242.455 249.58C243.937 251.877 273.897 324.726 273.64 325.232C273.384 325.738 257.578 332.57 257.578 332.57C257.578 332.57 227.86 283.128 221.975 273.971C217.206 266.552 204.071 223.957 204.071 223.957L203.338 332.555L183.856 333.289C183.856 333.289 175.74 187.54 176.063 188.501Z" fill="#683F1D"/>
<path d="M198.524 214.095C200.564 214.095 201.312 215.276 201.848 216.67C202.384 218.064 204.049 223.949 204.049 223.949" stroke="#91613D" stroke-width="0.71" stroke-linecap="round" stroke-linejoin="round"/>
<path d="M190.739 185.896C190.739 186.131 195.692 205.568 196.558 205.803C197.657 205.925 198.767 205.925 199.867 205.803" stroke="#91613D" stroke-width="0.71" stroke-linecap="round" stroke-linejoin="round"/>
<path d="M195.604 184.025C196.499 188.993 199.426 201.863 199.426 201.863" stroke="#91613D" stroke-width="0.71" stroke-linecap="round" stroke-linejoin="round"/>
<path d="M161.432 166.994C161.146 168.286 156.405 168.043 155.921 167.86L157.924 162.76C157.924 162.76 161.718 163.92 161.432 166.994Z" fill="#83ADDF"/>
<path d="M160.874 161.271C156.692 174.119 156.552 185.845 141.62 180.701C126.688 175.557 142.633 145.018 142.633 145.018L160.874 161.271Z" fill="#FEBD9D"/>
<path d="M225.483 170.567C225.622 176.342 216.964 180.106 209.046 182.792C206.845 183.526 204.739 184.194 202.868 184.781C194.224 187.525 178.654 191.201 176.041 190.233C173.994 189.462 167.39 171.69 164.668 164.147C163.934 162.1 163.472 160.808 163.472 160.808L161.432 166.972C159.818 165.387 156.611 163.567 153.008 161.836C145.553 158.247 136.432 155.026 136.432 155.026C136.432 155.026 139.067 141.319 141.62 132.279C142.156 130.371 142.691 128.669 143.198 127.348C146.133 119.732 149.611 117.164 152.869 117.164C156.127 117.164 157.411 116.393 163.472 113.568C163.472 113.568 167.265 110.185 174.596 109.547C181.926 108.909 192.515 105.687 201.012 104.146C201.422 104.069 201.836 104.015 202.252 103.985C207.601 103.581 210.074 107.463 211.791 111.822C212.128 112.68 212.429 113.553 212.723 114.427L213.537 116.907C214.08 118.492 215.144 122.417 216.428 127.48C219.994 141.76 225.351 165.13 225.483 170.567Z" fill="#C3DCF8"/>
<path d="M211.739 111.8C205.392 110.281 197.856 111.301 193.226 115.674C191.946 116.864 190.918 118.299 190.203 119.893C183.944 133.725 174.618 139.705 165.519 132.558C158.269 126.849 149.948 125.36 141.62 132.257C142.156 130.349 142.691 128.647 143.197 127.326C146.133 119.71 149.611 117.142 152.869 117.142C156.127 117.142 157.411 116.371 163.472 113.546C163.472 113.546 167.265 110.163 174.596 109.525C181.926 108.887 192.514 105.665 201.011 104.124C201.421 104.047 201.835 103.993 202.251 103.963C207.615 103.559 210.051 107.441 211.739 111.8Z" fill="#D0E5F7"/>
<path d="M158.453 115.85C158.453 115.85 166.025 144.512 175.44 150.683C176.027 150.389 181.31 133.285 179.798 108.777" stroke="#683F1D" stroke-width="0.94" stroke-miterlimit="10"/>
<path d="M179.134 147.892L170.853 149.266L172.986 162.122L181.267 160.748L179.134 147.892Z" fill="white" stroke="#683F1D" stroke-width="0.94" stroke-linecap="round" stroke-linejoin="round"/>
<path d="M163.472 160.808L161.432 166.972C159.817 165.387 156.611 163.567 153.008 161.836C157.411 161.968 160.977 158.901 157.895 156.054C154.813 153.206 154.299 147.483 156.508 143.146L163.472 160.808Z" fill="#A7CAF0"/>
<path d="M163.472 160.808L156.508 143.139L154.461 137.951" stroke="#83ADDF" stroke-width="0.71" stroke-linecap="round" stroke-linejoin="round"/>
<path d="M225.483 170.568C225.622 176.342 216.964 180.107 209.046 182.792C208.166 175.719 215.914 176.24 218.666 168.755C223.619 155.276 213.398 158.981 207.659 143.139L209.391 123.327L212.656 114.39L213.471 116.87C214.014 118.455 215.078 122.381 216.362 127.444C219.994 141.76 225.351 165.13 225.483 170.568Z" fill="#A7CAF0"/>
<path d="M178.345 109.525C177.988 111.665 177.062 113.67 175.664 115.328C174.266 116.987 172.447 118.24 170.399 118.954C163.222 121.544 159.964 118.264 159.715 115.102C159.715 114.881 159.678 114.654 159.663 114.427C159.421 110.904 159.429 106.942 158.805 99.9786C158.72 98.7823 158.799 97.58 159.04 96.4051C160.39 89.1334 166.715 80.9152 171.242 92.5675C177.568 108.894 178.345 109.525 178.345 109.525Z" fill="#FEBD9D"/>
<path d="M159.663 114.427C159.421 110.905 159.429 106.942 158.805 99.9787C158.72 98.7824 158.799 97.5802 159.04 96.4053C162.973 96.6181 168.014 98.2177 168.417 101.916C169.019 107.449 167.911 113.759 159.663 114.427Z" fill="#F4A789"/>
<path d="M209.391 166.715C209.281 168.865 203.051 168.755 203.051 168.755L204.996 157.991C206.47 158.89 207.663 160.183 208.44 161.725C209.217 163.267 209.546 164.996 209.391 166.715Z" fill="#A7CAF0"/>
<path d="M184.869 153.83C181.809 167.823 176.893 176.768 182.968 184.025C189.044 191.282 198.818 186.49 202.046 178.089C205.275 169.687 207.66 157.11 207.66 157.11L184.869 153.83Z" fill="#FEBD9D"/>
<path d="M216.377 127.458C215.027 141.767 209.384 166.715 209.384 166.715C209.384 166.715 205.201 160.845 182.968 158.578C182.968 158.578 186.71 131.744 193.241 115.674C195.809 109.305 198.81 104.631 202.186 103.978H202.244C210.661 102.363 214.095 106.502 215.606 113.121C216.142 115.627 216.483 118.171 216.626 120.73C216.71 122.976 216.627 125.225 216.377 127.458Z" fill="#C3DCF8"/>
<path d="M215.591 113.106C214.352 112.549 213.062 112.112 211.739 111.8C205.392 110.281 197.856 111.301 193.226 115.674C195.794 109.305 198.795 104.631 202.171 103.977H202.229C210.646 102.349 214.08 106.487 215.591 113.106Z" fill="#D0E5F7"/>
<path d="M215.951 131.23C214.124 145.744 209.384 166.715 209.384 166.715" stroke="#83ADDF" stroke-width="0.71" stroke-linecap="round" stroke-linejoin="round"/>
<path d="M182.99 158.578C182.99 158.578 191.061 126.292 193.498 125.154" stroke="#83ADDF" stroke-width="0.71" stroke-linecap="round" stroke-linejoin="round"/>
<path d="M173.194 92.377C172.973 94.3571 172.61 96.3188 172.108 98.2471C169.261 109.496 158.042 112.541 153.669 106.399C152.318 104.499 151.944 100.837 152.407 96.8236C152.564 95.4761 152.809 94.1402 153.14 92.8246C153.84 89.6882 155.103 86.7047 156.868 84.0193C158.438 81.7666 160.375 80.1743 162.613 79.7854C167.5 78.9343 171.103 80.4018 172.607 84.5403C173.076 85.9439 173.324 87.4119 173.341 88.8915C173.37 90.0553 173.321 91.2198 173.194 92.377Z" fill="#FEBD9D"/>
<path d="M173.348 88.9277C173.348 88.9277 181.596 90.6888 184.949 93.6752C188.303 96.6617 186.762 98.8703 182.939 98.6209C179.116 98.3714 170.523 96.148 170.523 96.148L173.348 88.9277Z" fill="#83ADDF"/>
<path d="M173.194 92.3769C172.081 93.0095 170.921 93.5541 169.723 94.0059C168.461 94.4021 167.449 94.1453 167.522 93.206C167.596 92.2668 168.036 88.4439 165.071 86.5067C162.107 84.5696 170.09 83.9238 170.09 83.9238L172.563 84.5769C173.032 85.9805 173.279 87.4485 173.297 88.9282C173.339 90.0787 173.305 91.2309 173.194 92.3769Z" fill="#DD6819"/>
<path d="M161.006 91.753C161.383 91.753 161.689 91.4475 161.689 91.0706C161.689 90.6937 161.383 90.3882 161.006 90.3882C160.629 90.3882 160.324 90.6937 160.324 91.0706C160.324 91.4475 160.629 91.753 161.006 91.753Z" fill="#683F1D"/>
<path d="M155.672 90.7625C155.672 90.9435 155.744 91.117 155.872 91.245C156 91.373 156.173 91.4449 156.354 91.4449C156.535 91.4449 156.709 91.373 156.837 91.245C156.965 91.117 157.037 90.9435 157.037 90.7625C157.037 90.5815 156.965 90.4079 156.837 90.28C156.709 90.152 156.535 90.0801 156.354 90.0801C156.173 90.0801 156 90.152 155.872 90.28C155.744 90.4079 155.672 90.5815 155.672 90.7625Z" fill="#683F1D"/>
<path d="M173.348 88.9281C168.946 87.6514 160.962 85.2593 156.853 84.0559C158.423 81.8032 160.36 80.2109 162.598 79.822C168.924 78.7214 173.128 81.517 173.348 88.9281Z" fill="#A7CAF0"/>
<path d="M169.723 94.0057C170.083 91.6209 173.833 89.6397 175.858 91.5035C178.404 93.8516 176.481 98.467 171.727 98.9439C171.514 98.9439 169.723 94.0057 169.723 94.0057Z" fill="#FEBD9D"/>
<path d="M173.568 98.5112C172.486 99.0101 171.271 99.1465 170.105 98.9001" stroke="#EF8A66" stroke-width="0.71" stroke-linecap="round" stroke-linejoin="round"/>
<path d="M170.399 95.8181C170.714 94.2845 172.96 92.4721 174.596 93.2059" stroke="#EF8A66" stroke-width="0.71" stroke-linecap="round" stroke-linejoin="round"/>
<path d="M170.971 94.6513C172.864 92.8536 175.183 96.1555 172.438 96.8526" stroke="#EF8A66" stroke-width="0.71" stroke-linecap="round" stroke-linejoin="round"/>
<path d="M155.855 96.3755C155.481 94.3429 155.855 93.2496 157.037 92.6112C158.218 91.9728 159.436 91.0263 159.172 89.2212" stroke="#EF8A66" stroke-width="0.71" stroke-linecap="round" stroke-linejoin="round"/>
<path d="M160.163 87.3796C159.972 88.539 163.751 89.4269 163.919 88.561C164.088 87.6952 160.471 85.4425 160.163 87.3796Z" fill="#DD6819"/>
<path d="M154.982 88.04C154.982 88.5023 158.585 88.6784 158.482 87.1228C158.379 85.5672 154.872 86.8953 154.982 88.04Z" fill="#DD6819"/>
<path d="M157.462 98.3348C159.319 98.7164 161.461 98.0707 161.96 95.4951" stroke="#EF8A66" stroke-width="0.71" stroke-linecap="round" stroke-linejoin="round"/>
<path d="M169.049 93.4262C169.474 94.4388 168.513 95.7963 166.913 96.4713C165.314 97.1464 163.67 96.8676 163.244 95.855C162.819 94.8424 163.78 93.4775 165.38 92.8098C166.979 92.1421 168.623 92.4136 169.049 93.4262Z" fill="#F4AF90"/>
<path d="M154.454 96.3835C154.192 96.6474 153.859 96.83 153.496 96.9094C153.133 96.9888 152.755 96.9616 152.406 96.8311C152.564 95.4835 152.809 94.1477 153.14 92.832C153.165 92.8449 153.188 92.8623 153.206 92.8834C154.564 93.9474 155.129 95.5103 154.454 96.3835Z" fill="#F4AF90"/>
<path d="M155.4 174.383C156.09 189.689 126.05 175.851 119.152 171.763C112.255 167.676 92.2227 153.338 92.2227 153.338L100.199 141.114C98.7019 142.317 154.784 160.331 155.4 174.383Z" fill="#FEBD9D"/>
<path d="M100.199 141.114C99.076 142.016 130.335 152.377 146.302 163.428" stroke="#EF8A66" stroke-width="0.71" stroke-linecap="round" stroke-linejoin="round"/>
<path d="M128.689 67.6568L79.5962 75.5909C75.6404 76.2303 72.9519 79.9554 73.5912 83.9112L85.8986 160.063C86.5379 164.019 90.263 166.708 94.2188 166.068L143.311 158.134C147.267 157.495 149.956 153.77 149.316 149.814L137.009 73.6618C136.37 69.706 132.644 67.0175 128.689 67.6568Z" fill="#F9F9F9" stroke="#DDDDDD" stroke-width="1.88535" stroke-linecap="round" stroke-linejoin="round"/>
<path d="M88.8105 143.454C89.0307 145.935 82.0158 144.394 82.0672 142.178C82.1185 139.962 88.5611 140.578 88.8105 143.454Z" fill="#FEBD9D" stroke="#EF8A66" stroke-width="0.71" stroke-linecap="round" stroke-linejoin="round"/>
<path d="M87.651 139.983C87.3942 142.83 79.5796 139.705 80.0638 137.21C80.5481 134.715 87.9446 136.696 87.651 139.983Z" fill="#FEBD9D" stroke="#EF8A66" stroke-width="0.71" stroke-linecap="round" stroke-linejoin="round"/>
<path d="M87.6511 135.808C87.3576 138.648 78.4202 135.522 78.9999 133.027C79.5796 130.533 88.0106 132.506 87.6511 135.808Z" fill="#FEBD9D" stroke="#EF8A66" stroke-width="0.71" stroke-linecap="round" stroke-linejoin="round"/>
<path d="M86.9834 132.741C86.4844 135.676 78.2662 131.765 79.022 129.219C79.7778 126.673 87.5704 129.344 86.9834 132.741Z" fill="#FEBD9D" stroke="#EF8A66" stroke-width="0.71" stroke-linecap="round" stroke-linejoin="round"/>
<path d="M124.277 87.0752L90.4287 92.6909L91.6405 99.9948L125.489 94.3791L124.277 87.0752Z" fill="#EDEDED"/>
<path d="M127.842 142.295C134.943 134.992 134.778 123.315 127.475 116.215C120.172 109.115 108.495 109.279 101.395 116.582C94.2946 123.886 94.459 135.562 101.762 142.663C109.066 149.763 120.742 149.599 127.842 142.295Z" stroke="#DDDDDD" stroke-width="0.94394" stroke-linecap="round" stroke-linejoin="round"/>
<path d="M133.82 286.078L157.653 275.226L156.435 272.555L155.231 273.105L155.026 271.461L118.719 276.04L119.086 278.953L151.313 274.888L133.167 283.15L119.093 279.46L117.941 282.189L133.094 286.166L133.189 286.364L133.438 286.254L133.747 286.335L133.82 286.078Z" fill="#EDEDED"/>
<path d="M169.584 285.608L165.02 286.364L135.955 251.613L140.519 250.857L169.584 285.608Z" fill="#F9F9F9" stroke="#DDDDDD" stroke-width="0.94" stroke-linecap="round" stroke-linejoin="round"/>
<path d="M111.609 295.221L116.173 294.472L132.462 252.192L127.906 252.948L111.609 295.221Z" fill="#F9F9F9" stroke="#DDDDDD" stroke-width="0.94" stroke-linecap="round" stroke-linejoin="round"/>
<path d="M130.041 292.168L134.605 291.412L136.726 251.48L132.169 252.236L130.041 292.168Z" fill="#F9F9F9" stroke="#DDDDDD" stroke-width="0.94" stroke-linecap="round" stroke-linejoin="round"/>
<path d="M135.405 243.548L130.379 244.385L123.048 200.204L120.348 183.915L116.606 161.307L121.632 160.485L125.11 181.42L125.47 183.599L128.038 199.089L135.405 243.548Z" fill="#F9F9F9" stroke="#DDDDDD" stroke-width="0.94" stroke-linecap="round" stroke-linejoin="round"/>
<path d="M199.155 182.954C196.286 191.392 175.447 191.304 167.067 192.28C158.996 193.212 138.245 195.215 138.245 195.215C138.245 195.215 128.948 199.39 123.819 200.131C118.69 200.872 118.682 199.199 118.587 197.534C118.492 195.868 117.501 195.332 117.941 194.019C118.382 192.705 116.474 191.407 116.826 189.653C117.178 187.899 114.507 189.741 114.419 186.681C114.331 183.621 122.703 183.9 125.47 183.621L125.11 181.42C125.11 181.42 127.957 180.518 129.249 180.686C130.54 180.855 134.26 182.469 135.853 181.912C137.445 181.354 168.52 169.438 174.603 167.346C182.99 164.507 205.451 164.426 199.155 182.954Z" fill="#FEBD9D"/>
<path d="M174.596 167.375C179.394 165.921 184.463 165.588 189.411 166.399" stroke="#EF8A66" stroke-width="0.71" stroke-linecap="round" stroke-linejoin="round"/>
<path d="M123.819 200.109C118.682 200.843 118.682 199.177 118.587 197.511C118.492 195.846 117.501 195.31 117.941 193.997C118.382 192.683 116.474 191.385 116.826 189.631C117.178 187.877 114.507 189.719 114.419 186.659C114.331 183.599 122.703 183.878 125.47 183.599L125.11 181.398C125.11 181.398 127.957 180.495 129.249 180.664" stroke="#EF8A66" stroke-width="0.71" stroke-linecap="round" stroke-linejoin="round"/>
<path d="M125.47 183.599C126.989 183.65 129.792 183.599 129.792 183.599" stroke="#EF8A66" stroke-width="0.71" stroke-linecap="round" stroke-linejoin="round"/>
<path d="M139.808 180.437L158.966 173.165" stroke="#EF8A66" stroke-width="0.71" stroke-linecap="round" stroke-linejoin="round"/>
<path d="M138.178 243.074L127.631 244.824C125.96 245.101 124.83 246.68 125.107 248.352L125.738 252.152C126.015 253.823 127.595 254.953 129.266 254.676L139.813 252.926C141.484 252.649 142.614 251.069 142.336 249.398L141.706 245.598C141.429 243.927 139.849 242.797 138.178 243.074Z" fill="#EDEDED"/>
</svg>
