<svg width="562" height="332" viewBox="0 0 562 332" fill="none" xmlns="http://www.w3.org/2000/svg">
<path d="M437.185 1H135.493C129.934 1 125.429 5.50573 125.429 11.0638V193.915C125.429 199.473 129.934 203.978 135.493 203.978H437.185C442.743 203.978 447.249 199.473 447.249 193.915V11.0638C447.249 5.50573 442.743 1 437.185 1Z" stroke="#EDEDED" stroke-width="1.81" stroke-linecap="round" stroke-linejoin="round"/>
<path d="M427.647 10.4644H145.038C139.48 10.4644 134.975 14.9701 134.975 20.5282V184.435C134.975 189.993 139.48 194.499 145.038 194.499H427.647C433.205 194.499 437.711 189.993 437.711 184.435V20.5282C437.711 14.9701 433.205 10.4644 427.647 10.4644Z" stroke="#DDDDDD" stroke-width="1.81" stroke-linecap="round" stroke-linejoin="round"/>
<path d="M135.352 144.099C124.718 145.379 123.409 138.401 119.538 128.478C115.668 118.554 116.349 109.238 113.722 93.9794C110.651 76.2197 132.222 75.8201 136.662 100.721C136.847 101.727 137.047 102.896 137.261 104.176C137.89 107.78 138.682 112.316 139.821 116.815C140.11 117.948 140.421 119.08 140.746 120.197C142.892 127.368 146.008 142.811 135.352 144.099Z" fill="#B25E47"/>
<path d="M139.851 116.816C125.54 121.256 123.416 109.549 123.571 104.761L137.276 104.177C137.92 107.758 138.711 112.294 139.851 116.816Z" fill="#914839"/>
<path d="M191.317 190.859C190.762 191.388 190.174 191.883 189.556 192.339C189.09 192.709 188.528 193.131 187.876 193.567L187.321 193.945L186.685 194.352C185.79 194.914 184.776 195.506 183.636 196.083C183.103 196.357 182.541 196.638 181.949 196.897C181.646 197.038 181.335 197.178 181.009 197.312L180.04 197.711C179.737 197.83 179.433 197.948 179.115 198.059C178.797 198.17 178.375 198.34 177.946 198.473C177.517 198.606 177.206 198.718 176.836 198.828C176.466 198.939 176.096 199.058 175.689 199.161L174.653 199.435L174.372 199.502L173.306 199.739C172.455 199.931 171.582 200.086 170.672 200.22C170.302 200.286 169.932 200.338 169.54 200.382C169.399 200.382 169.258 200.419 169.11 200.427C168.718 200.479 168.326 200.516 167.926 200.553V200.627C168.134 202.669 170.383 241.326 170.96 251.486L171.012 252.389C171.012 252.596 171.012 252.781 171.012 252.944C142.582 252.204 114.255 251.93 86.9644 252.004C86.402 241.837 85.3882 223.048 84.404 203.905C83.035 177.08 81.7327 149.597 81.8807 144.254V144.173C82.1915 133.887 80.7485 126.184 89.5321 122.787C92.5957 121.603 96.932 120.937 102.97 120.878H104.132H105.412H106.759C107.218 120.878 107.647 120.878 108.061 120.834H108.972L109.837 120.789H110.577L111.776 120.723L112.62 120.664C113.064 120.664 113.463 120.604 113.833 120.575H114.063L114.484 120.538L115.084 120.471H115.291C115.698 120.419 116.031 120.368 116.275 120.323C116.519 120.279 116.63 120.257 116.764 120.227C116.907 120.2 117.046 120.155 117.178 120.094C119.117 125.451 124.519 135.249 133.576 134.013C142.634 132.777 141.871 122.684 140.073 118.266L140.243 118.414L140.502 118.621L141.072 119.036C141.154 119.095 141.242 119.161 141.339 119.221L141.642 119.42L141.938 119.605L142.345 119.85C142.693 120.042 143.085 120.227 143.448 120.39L143.832 120.545C144.091 120.634 144.35 120.701 144.572 120.76C144.848 120.815 145.128 120.842 145.409 120.841C145.497 120.849 145.586 120.849 145.675 120.841C145.771 120.841 145.86 120.841 145.949 120.797C147.362 120.442 151.336 119.746 156.775 121.877C160.245 123.246 164.315 125.77 168.703 130.283C171.545 133.397 173.95 136.882 175.852 140.643C183.673 155.036 189.482 176.954 191.317 190.859Z" fill="#C3DCF8"/>
<path d="M175.903 140.517C171.147 139.84 166.299 140.756 162.117 143.122C158.832 145.117 156.246 148.083 154.718 151.609C147.081 168.452 127.072 174.778 113.7 156.138C111.842 153.498 109.689 151.077 107.284 148.923C100.099 142.619 91.7447 140.88 81.8289 144.328V144.247C82.1397 133.961 80.6967 126.257 89.4803 122.861C92.5439 121.677 96.8802 121.011 102.918 120.952C115.72 120.819 117.148 119.997 117.148 119.997C119.087 125.355 124.489 135.152 133.547 133.916C142.604 132.681 141.842 122.587 140.044 118.169C140.243 118.34 143.744 121.248 145.964 120.693C147.377 120.338 151.351 119.642 156.79 121.773C160.26 123.142 164.33 125.665 168.718 130.179C171.571 133.284 173.988 136.761 175.903 140.517Z" fill="#D0E5F7"/>
<path d="M188.883 253.536C182.919 253.343 176.957 253.17 170.997 253.018V252.463L170.946 251.56L167.912 200.7V200.626L188.883 186.345C189.164 188.209 189.401 190.237 189.623 192.383C191.517 214.316 189.208 248.8 188.883 253.536Z" fill="#B25E47"/>
<path d="M191.317 190.859C191.317 190.859 182.948 199.302 167.882 200.612C167.053 176.318 164.722 157.086 162.132 143.122C160.349 133.465 158.432 126.317 156.841 121.773C160.312 123.142 164.382 125.666 168.77 130.18C171.611 133.293 174.016 136.778 175.918 140.539C183.673 155.036 189.482 176.954 191.317 190.859Z" fill="#FFB63F"/>
<path d="M175.903 140.517C171.146 139.84 166.299 140.756 162.117 143.122C160.334 133.465 158.417 126.317 156.826 121.773C160.297 123.142 164.367 125.666 168.755 130.18C171.595 133.286 173.999 136.764 175.903 140.517Z" fill="#FFCB66"/>
<path d="M167.867 200.612C167.038 176.318 164.707 157.086 162.117 143.122" stroke="#F7AD2B" stroke-width="0.68" stroke-linecap="round" stroke-linejoin="round"/>
<path d="M116.719 117.334C112.279 119.08 112.279 121.034 112.279 123.157C112.279 125.281 116.26 136.869 124.045 145.098C125.562 146.704 127.819 136.795 130.046 136.218C132.273 135.641 134.271 136.662 135.307 136.514C136.343 136.366 139.089 133.643 140.872 134.879C142.656 136.115 146.429 142.279 147.169 142.442C147.909 142.604 147.983 127.842 146.281 122.654C145.835 121.188 144.998 119.872 143.86 118.846C142.722 117.82 141.326 117.123 139.821 116.831C139.821 116.831 141.05 127.546 137.461 130.728C130.002 137.358 122.328 129.003 116.719 117.334Z" fill="white"/>
<path d="M114.61 87.9783C112.013 87.0163 108.032 89.4583 108.572 93.506C109.112 97.5538 115.099 98.8783 118.059 96.5326C116.576 93.827 115.419 90.9556 114.61 87.9783Z" fill="#B25E47"/>
<path d="M110.614 93.772C110.392 92.033 112.494 89.2877 115.794 91.8924" stroke="#934735" stroke-width="0.68" stroke-linecap="round" stroke-linejoin="round"/>
<path d="M114.462 94.9117C111.021 94.8229 112.035 91.1156 115.143 91.4411" stroke="#934735" stroke-width="0.68" stroke-linecap="round" stroke-linejoin="round"/>
<path d="M141.509 92.1221L139.644 92.6623L121.374 97.9458C121.374 97.9458 120.885 97.4722 120.145 96.6508C117.732 93.9943 115.81 90.9299 114.47 87.6007C114.067 86.5255 113.787 85.4085 113.634 84.2708C112.731 77.1891 120.094 63.9211 132.348 70.0482C136.307 73.8222 138.556 80.5265 139.134 82.4948L139.326 83.1608C140.029 85.7878 141.509 92.1221 141.509 92.1221Z" fill="#B25E47"/>
<path d="M128.418 89.6133C128.418 91.5033 127.668 93.3158 126.331 94.6522C124.995 95.9886 123.182 96.7394 121.292 96.7394C120.898 96.7401 120.505 96.7104 120.116 96.6506C117.702 93.9941 115.781 90.9298 114.44 87.6006C114.923 85.9535 115.984 84.5359 117.428 83.608C118.872 82.68 120.603 82.3038 122.302 82.5484C124 82.7931 125.554 83.6421 126.678 84.9398C127.801 86.2375 128.419 87.8968 128.418 89.6133Z" fill="#A0503D"/>
<path d="M141.509 92.122L139.644 92.6622C138.871 92.1459 138.231 91.4527 137.779 90.6401C137.327 89.8275 137.075 88.9189 137.044 87.9894C137.012 87.06 137.203 86.1365 137.6 85.2955C137.997 84.4545 138.589 83.7201 139.326 83.1533C140.029 85.7877 141.509 92.122 141.509 92.122Z" fill="#A0503D"/>
<path d="M128.122 82.4725C128.121 82.6605 128.175 82.8446 128.279 83.0015C128.382 83.1584 128.53 83.281 128.704 83.3536C128.877 83.4262 129.068 83.4456 129.252 83.4092C129.437 83.3729 129.606 83.2826 129.739 83.1497C129.872 83.0167 129.963 82.8473 129.999 82.6629C130.035 82.4785 130.016 82.2874 129.943 82.114C129.871 81.9407 129.748 81.7928 129.591 81.6893C129.434 81.5858 129.25 81.5313 129.062 81.5327C128.939 81.5327 128.816 81.5571 128.702 81.6043C128.588 81.6515 128.485 81.7207 128.398 81.808C128.31 81.8953 128.241 81.9989 128.194 82.1129C128.147 82.2269 128.122 82.3491 128.122 82.4725Z" fill="#683F1D"/>
<path d="M134.945 81.5327C134.945 81.7203 135.001 81.9037 135.105 82.0596C135.21 82.2156 135.358 82.337 135.532 82.4084C135.705 82.4799 135.896 82.4982 136.08 82.4611C136.264 82.4239 136.432 82.333 136.565 82.1998C136.697 82.0666 136.786 81.8971 136.822 81.7129C136.858 81.5286 136.838 81.338 136.765 81.165C136.692 80.9921 136.57 80.8447 136.413 80.7415C136.256 80.6383 136.073 80.584 135.885 80.5855C135.761 80.5855 135.638 80.61 135.524 80.6577C135.409 80.7054 135.305 80.7753 135.218 80.8633C135.13 80.9514 135.061 81.0559 135.014 81.1708C134.968 81.2856 134.944 81.4086 134.945 81.5327Z" fill="#683F1D"/>
<path d="M143.055 103.562C139.067 113.789 129.136 110.821 124.704 107.95C120.271 105.079 118.044 97.7089 114.906 92.6696C110.799 86.1059 110.933 79.6606 113.116 74.9099C114.483 71.6947 117.054 69.1422 120.279 67.7986C127.22 65.2604 132.355 70.0186 132.355 70.0186C132.215 74.4585 123.727 73.2745 122.121 72.7935C118.162 71.6317 116.556 75.8645 116.09 79.2092C115.543 83.0941 116.135 87.1345 118.258 90.1018C120.382 93.0692 121.958 93.8017 123.113 92.3218C124.267 90.8418 126.465 89.162 132.074 88.2592C137.683 87.3565 140.258 90.0352 140.258 90.0352C140.258 89.0288 139.193 82.8869 139.133 82.5095C141.168 86.1081 142.643 89.9957 143.507 94.0385C144.121 97.2131 144.202 100.595 143.055 103.562Z" fill="#FFEACC"/>
<path d="M143.055 103.562C139.067 113.789 129.136 110.821 124.704 107.95C120.271 105.079 118.044 97.7087 114.906 92.6694C110.799 86.1057 110.933 79.6604 113.116 74.9097C112.968 87.556 121.766 101.549 127.175 104.124C132.252 106.552 141.398 105.745 143.492 94.0457C144.121 97.2129 144.202 100.595 143.055 103.562Z" fill="#EDD6B7"/>
<path d="M129.062 91.2119C131.334 91.3496 133.613 91.3496 135.885 91.2119C135.885 91.2119 134.975 94.2237 132.185 93.9647C131.43 93.9249 130.711 93.6314 130.145 93.1318C129.578 92.6321 129.196 91.9556 129.062 91.2119Z" fill="white" stroke="#934735" stroke-width="0.68" stroke-linecap="round" stroke-linejoin="round"/>
<path d="M128.115 75.6056C128.574 77.4186 124.008 80.6228 122.868 79.3056C121.729 77.9884 127.419 72.8825 128.115 75.6056Z" fill="#FFEACC"/>
<path d="M132.215 74.8137C132.074 76.116 137.565 77.2112 137.639 76.227C137.713 75.2429 132.474 72.4605 132.215 74.8137Z" fill="#FFEACC"/>
<path d="M131.289 76.9595C130.757 78.8316 130.416 81.2662 132.214 82.1394C134.013 83.0126 136.447 82.6722 136.691 86.2389" stroke="#934735" stroke-width="0.68" stroke-linecap="round" stroke-linejoin="round"/>
<path d="M65.5194 199.006C64.4908 210.705 64.4612 235.191 76.6192 241.407C96.6507 251.641 100.891 225.179 100.01 199.006H65.5194Z" fill="#B25E47"/>
<path d="M107.484 158.077C107.107 173.55 100.432 203.298 100.432 203.298C94.2236 203.808 88.9179 204.038 84.3817 204.038C65.2753 204.038 59.9622 200.279 59.9622 200.279C59.9622 200.279 63.8323 170.457 69.3008 150.907C69.8484 148.931 70.4182 147.059 70.9954 145.335C76.0347 130.394 82.3986 124.193 89.495 122.92C91.364 122.598 93.2725 122.576 95.1485 122.854C103.007 123.919 106.463 136.174 107.299 148.983C107.506 151.98 107.558 155.073 107.484 158.077Z" fill="#FFB63F"/>
<path d="M107.314 148.924C100.129 142.619 91.7742 140.88 81.8583 144.328C77.3995 145.945 73.1706 148.137 69.2786 150.848C69.8262 148.872 70.3959 147 70.9731 145.275C76.0124 130.335 82.3763 124.134 89.4728 122.861C91.3418 122.539 93.2502 122.516 95.1263 122.795C103.022 123.86 106.478 136.1 107.314 148.924Z" fill="#FFCB66"/>
<path d="M107.484 158.077C107.107 173.55 100.432 203.298 100.432 203.298" stroke="#F7AD2B" stroke-width="0.68" stroke-linecap="round" stroke-linejoin="round"/>
<path d="M178.545 173.617C178.545 173.617 180.765 175.245 178.404 179.7C178.404 179.7 180.868 181.971 177.568 185.782C178.017 186.662 178.138 187.674 177.907 188.634C177.676 189.595 177.11 190.441 176.31 191.021C172.976 193.938 169.435 196.609 165.714 199.013C163.982 200.079 161.599 201.64 157.84 204.304C156.36 205.355 154.643 206.583 152.66 208.004C148.22 211.238 142.434 215.537 134.812 221.324C103.917 244.752 85.4694 247.963 74.7395 240.245C66.2149 234.118 76.9595 206.487 109.867 195.432C126.805 189.734 137.202 186.752 143.566 184.961C146.148 184.221 148.072 183.703 149.486 183.274C151.365 182.697 152.379 182.297 152.934 181.831C154.917 180.129 155.835 178.131 156.797 175.733C157.759 173.336 160.023 164.352 160.585 161.895C161.148 159.439 165.403 158.018 164.692 171.908C164.692 171.908 176.865 167.941 179.07 167.371C181.275 166.802 182.149 171.634 178.545 173.617Z" fill="#B25E47"/>
<path d="M157.84 204.304C156.36 205.355 154.643 206.583 152.66 208.004C149.878 204.696 143.958 196.357 143.581 184.968C146.163 184.228 148.087 183.71 149.5 183.281C149.878 189.031 153.252 199.124 157.84 204.304Z" fill="#683F1D"/>
<path d="M148.612 200.612C151.706 200.612 154.214 198.104 154.214 195.01C154.214 191.916 151.706 189.408 148.612 189.408C145.519 189.408 143.011 191.916 143.011 195.01C143.011 198.104 145.519 200.612 148.612 200.612Z" fill="white" stroke="#683F1D" stroke-width="0.9" stroke-linecap="round" stroke-linejoin="round"/>
<path d="M156.826 175.741C157.781 173.336 160.053 164.36 160.615 161.903C161.178 159.446 165.432 158.025 164.722 171.915C164.722 171.915 176.895 167.949 179.1 167.379C181.305 166.809 182.149 171.634 178.545 173.617C178.545 173.617 180.765 175.245 178.404 179.699C178.404 179.699 180.869 181.971 177.568 185.782C178.018 186.662 178.138 187.673 177.907 188.634C177.676 189.595 177.11 190.441 176.31 191.021" stroke="#934735" stroke-width="0.68" stroke-linecap="round" stroke-linejoin="round"/>
<path d="M178.545 173.617C176.325 174.638 171.811 176.495 171.811 176.495" stroke="#934735" stroke-width="0.68" stroke-linecap="round" stroke-linejoin="round"/>
<path d="M178.404 179.7C177.058 180.58 173.913 182.156 173.913 182.156" stroke="#934735" stroke-width="0.68" stroke-linecap="round" stroke-linejoin="round"/>
<path d="M177.568 185.782C176.924 186.156 176.251 186.477 175.555 186.744" stroke="#934735" stroke-width="0.68" stroke-linecap="round" stroke-linejoin="round"/>
<path d="M164.722 171.915C162.658 172.522 161.022 173.136 161.022 173.136" stroke="#934735" stroke-width="0.68" stroke-linecap="round" stroke-linejoin="round"/>
<path d="M309.759 145.356C309.674 146.888 309.509 148.415 309.264 149.93C307.347 162.398 300.458 180.313 292.814 191.258C291.284 193.513 289.517 195.6 287.545 197.481C281.536 203.009 271.968 204.052 265.286 200.182C263.269 199.019 261.55 197.403 260.266 195.461C258.982 193.519 258.167 191.305 257.886 188.993C257.595 186.99 257.573 184.957 257.82 182.948C259.1 171.619 266.818 152.201 276.134 138.193C277.193 136.58 278.288 135.034 279.39 133.591C284.652 126.694 290.224 121.884 295.315 121.366C296.367 121.243 297.432 121.326 298.452 121.61C306.888 124.037 310.522 130.638 309.759 145.356Z" fill="#FFB63F"/>
<path d="M294.323 152.157C291.766 160.952 290.74 170.121 291.29 179.263C291.584 183.298 292.093 187.314 292.814 191.295C291.284 193.551 289.517 195.637 287.545 197.519C281.536 203.046 271.968 204.09 265.286 200.22C263.269 199.057 261.55 197.44 260.266 195.499C258.982 193.557 258.167 191.342 257.886 189.031C263.806 195.38 270.022 196.749 274.906 195.143C281.995 192.864 286.443 184.436 283.712 175.815C278.91 160.66 289.743 151.995 294.915 149.471C294.782 150.315 294.575 151.21 294.323 152.157Z" fill="#FF9400"/>
<path d="M309.76 145.356C309.675 146.888 309.509 148.415 309.264 149.93C308.378 148.615 307.648 147.202 307.088 145.719C304.469 138.726 299.748 134.789 294.508 133.08C289.558 131.544 284.234 131.724 279.398 133.591C284.659 126.694 290.231 121.884 295.322 121.366C296.374 121.243 297.44 121.326 298.46 121.61C306.888 124.037 310.522 130.638 309.76 145.356Z" fill="#FFCB66"/>
<path d="M368.87 268.706C349.127 265.368 329.421 262.697 310.551 260.899C304.987 260.376 299.365 259.882 293.687 259.419C294.753 246.565 297.15 225.468 301.56 220.34C301.794 220.015 302.094 219.745 302.442 219.547C302.789 219.349 303.175 219.228 303.573 219.193C306.074 219.149 312.335 218.941 319.779 218.668C336.303 218.046 358.658 217.121 358.658 217.121C358.976 218.364 359.294 219.6 359.605 220.821C359.605 220.873 359.605 220.932 359.657 220.991C363.571 236.722 366.646 252.649 368.87 268.706Z" fill="#83ADDF"/>
<path d="M350.733 223.478C353.049 228.657 359.243 234.733 361.337 236.117" stroke="white" stroke-width="0.9" stroke-miterlimit="10"/>
<path d="M329.858 133.339C320.327 134.501 318.269 126.864 318.21 115.95C318.21 113.382 318.299 110.629 318.44 107.758C318.516 106.074 318.697 104.396 318.98 102.733C322.228 84.1376 337.62 86.3871 338.412 97.3463C338.715 101.505 341.646 131.904 329.858 133.339Z" fill="#B25E47"/>
<path d="M329.636 104.487C329.125 111.828 323.849 115.587 318.218 115.95C318.218 113.382 318.306 110.629 318.447 107.758C318.524 106.074 318.704 104.396 318.987 102.734C322.088 101.409 330.035 98.5674 329.636 104.487Z" fill="#914839"/>
<path d="M366.554 176.799C366.05 178.477 365.653 180.185 365.362 181.912C365.281 182.386 365.207 182.859 365.133 183.326C362.21 201.537 361.847 218.431 361.647 220.184C361.448 221.938 345.138 221.331 333.003 220.739C328.274 220.502 322.162 220.569 316.397 220.613C307.369 220.68 299.193 220.702 298.504 219.422C298.068 218.593 296.899 213.746 295.626 207.523C295.426 206.554 295.226 205.562 295.019 204.563C294.915 204.06 294.819 203.542 294.723 203.024C294.627 202.506 294.494 201.833 294.383 201.241C294.272 200.649 294.138 199.968 294.02 199.324C293.761 197.903 293.502 196.468 293.28 195.04C293.058 193.611 292.806 192.213 292.592 190.836C291.908 186.849 291.439 182.827 291.186 178.789C290.734 169.64 291.857 160.482 294.508 151.713C294.575 151.484 294.642 151.262 294.693 151.04C294.797 150.655 294.893 150.3 294.982 149.893L295.115 149.294C295.16 149.094 295.197 148.894 295.234 148.694C295.271 148.494 295.315 148.295 295.345 148.102C295.374 147.91 295.411 147.703 295.441 147.503C295.507 147.118 295.559 146.726 295.611 146.348C295.715 145.401 295.796 144.469 295.833 143.559C295.833 143.433 295.833 143.307 295.833 143.189C295.833 142.545 295.833 141.908 295.833 141.279C295.765 138.39 295.441 135.513 294.864 132.681C293.931 127.849 292.681 124.215 292.991 122.543C293.139 121.722 293.99 121.226 295.485 121.011C295.589 121.011 295.7 121.011 295.796 120.974C299.496 120.545 306.555 121.588 316.19 123.579C316.385 121.417 316.729 119.271 317.219 117.156C317.314 116.826 317.516 116.537 317.793 116.335C318.071 116.133 318.407 116.028 318.75 116.039C319.801 115.942 321.222 116.327 322.584 116.453C324.9 116.668 332.781 115.232 336.836 113.093C337.65 112.617 338.55 112.306 339.485 112.176C341.431 111.991 342.104 113.523 342.356 115.617C342.356 115.706 342.356 115.802 342.356 115.891C342.356 115.979 342.356 116.083 342.356 116.187C342.356 116.29 342.356 116.571 342.4 116.771C342.445 116.971 342.4 117.067 342.437 117.222C342.474 117.378 342.437 117.629 342.474 117.837C342.511 118.044 342.474 118.332 342.474 118.577C342.474 118.821 342.474 119.05 342.474 119.317C342.474 119.435 342.474 119.561 342.474 119.687C342.474 119.812 342.474 119.894 342.474 119.997C342.474 120.101 342.474 120.279 342.474 120.419C342.474 120.56 342.474 120.774 342.474 120.945C342.474 121.115 342.474 121.292 342.474 121.463V121.796C342.474 123.276 342.474 124.46 342.474 124.46C349.8 121.685 360.841 118.85 369.21 123.993H369.255C371.978 125.719 374.231 128.094 375.811 130.905C376.225 131.605 376.617 132.345 376.987 133.125C384.047 147.976 371.319 160.608 366.554 176.799Z" fill="#FFB63F"/>
<path d="M375.981 130.876C368.914 131.741 361.004 136.329 353.581 145.15C352.427 146.521 351.288 148.001 350.163 149.59C338.227 166.291 317.441 161.866 309.463 149.686C308.59 148.366 307.875 146.948 307.332 145.461C304.779 138.438 300.103 134.45 294.886 132.689C293.953 127.857 292.703 124.223 293.014 122.551C293.162 121.729 294.013 121.234 295.507 121.019C295.611 121.019 295.722 121.019 295.818 120.982C299.518 120.553 306.577 121.596 316.212 123.587C316.407 121.425 316.751 119.279 317.241 117.164C317.336 116.834 317.538 116.545 317.815 116.343C318.093 116.14 318.429 116.036 318.772 116.046C319.823 115.95 321.244 116.335 322.606 116.461C324.922 116.675 332.803 115.24 336.858 113.101C337.672 112.625 338.572 112.313 339.507 112.184C341.453 111.999 342.126 113.53 342.378 115.625C342.378 115.713 342.378 115.81 342.378 115.898C342.378 115.987 342.378 116.091 342.378 116.194C342.378 116.298 342.378 116.579 342.422 116.779C342.467 116.979 342.422 117.075 342.459 117.23C342.496 117.386 342.459 117.637 342.496 117.845C342.533 118.052 342.496 118.34 342.496 118.584C342.496 118.829 342.496 119.058 342.496 119.324C342.496 119.443 342.496 119.569 342.496 119.694C342.496 119.82 342.496 119.902 342.496 120.005C342.496 120.109 342.496 120.286 342.496 120.427C342.496 120.568 342.496 120.782 342.496 120.952C342.496 121.123 342.496 121.3 342.496 121.47V121.803C342.496 123.283 342.496 124.467 342.496 124.467C349.822 121.692 360.863 118.858 369.232 124.001H369.277C372.05 125.697 374.355 128.061 375.981 130.876Z" fill="#FFCB66"/>
<path d="M295.581 143.189C295.558 145.285 295.35 147.375 294.96 149.434C294.782 150.315 294.575 151.21 294.323 152.121C291.766 160.915 290.74 170.084 291.289 179.226C291.584 183.261 292.093 187.278 292.814 191.259C293.043 192.627 293.295 194.033 293.554 195.454C294.338 199.717 295.219 204.09 296.055 207.938C297.394 214.139 298.615 218.978 299.059 219.778" stroke="#F7AD2B" stroke-width="0.68" stroke-linecap="round" stroke-linejoin="round"/>
<path d="M365.303 183.008C362.572 201.256 362.387 218.142 362.202 219.896C362.017 221.65 345.708 221.228 333.572 220.754C328.844 220.569 322.731 220.702 316.967 220.806C321.703 216.862 331.5 210.38 340.898 214.479C353.944 220.17 360.093 202.218 352.131 200.612C344.169 199.006 343.754 189.949 342.2 182.623L348.712 179.981L365.303 183.008Z" fill="#FF9400"/>
<path d="M315.739 123.756C315.658 125.169 315.658 126.584 315.739 127.996" stroke="#F7AD2B" stroke-width="0.68" stroke-linecap="round" stroke-linejoin="round"/>
<path d="M342.2 124.075C342.097 126.857 341.971 128.67 341.971 128.67" stroke="#F7AD2B" stroke-width="0.68" stroke-linecap="round" stroke-linejoin="round"/>
<path d="M322.058 128.367C325.64 129.395 331.145 129.454 334.297 128.367" stroke="#F7AD2B" stroke-width="0.68" stroke-linecap="round" stroke-linejoin="round"/>
<path d="M399.527 193.737C395.827 198.436 385.771 199.339 377.587 192.805C375.304 190.961 373.35 188.744 371.807 186.248C370.904 184.813 369.743 182.637 368.448 180.077C367.878 178.937 367.271 177.724 366.657 176.466C363.216 169.421 359.257 160.882 356.756 155.998C355.501 153.53 354.561 150.915 353.959 148.213C353.707 147.14 353.507 146.052 353.352 144.957C351.465 131.808 356.186 117.999 368.936 123.586H368.973C371.511 124.704 374.212 127.123 376.928 130.298C383.514 138.023 390.129 150.278 394.347 159.491C395.309 161.585 396.138 163.523 396.819 165.218C401.747 177.472 404.137 187.832 399.527 193.737Z" fill="#FFB63F"/>
<path d="M380.176 172.959C379.888 177.554 374.493 179.448 368.448 180.077C367.878 178.938 367.271 177.724 366.657 176.466C363.216 169.421 359.257 160.882 356.756 155.998C355.501 153.531 354.561 150.915 353.959 148.213C359.139 148.324 364.785 150.219 365.303 159.106C365.658 165.174 380.828 162.443 380.176 172.959Z" fill="#FF9400"/>
<path d="M376.928 130.32C376.484 130.32 376.04 130.394 375.603 130.453C368.544 131.386 360.685 136.063 353.352 144.957C351.465 131.808 356.186 117.999 368.936 123.586H368.973C371.511 124.726 374.212 127.146 376.928 130.32Z" fill="#FFCB66"/>
<path d="M371.807 186.248C370.905 184.813 369.743 182.637 368.448 180.077C367.878 178.937 367.271 177.724 366.657 176.466C363.216 169.421 359.257 160.882 356.756 155.998C355.501 153.53 354.561 150.915 353.959 148.213C353.707 147.14 353.507 146.052 353.352 144.957" stroke="#F7AD2B" stroke-width="0.68" stroke-linecap="round" stroke-linejoin="round"/>
<path d="M399.527 193.738C395.827 198.436 385.771 199.339 377.587 192.805C379.604 192.157 381.742 191.978 383.84 192.28C392.172 193.493 400.393 190.06 393.985 180.359C388.805 172.493 392.505 162.599 394.347 159.513C395.309 161.607 396.138 163.546 396.819 165.241C401.747 177.473 404.137 187.832 399.527 193.738Z" fill="#FF9400"/>
<path d="M346.011 69.3824C344.45 70.4924 343.488 70.67 343.525 72.3424C343.562 74.0148 342.837 74.5032 342.104 74.7769C341.372 75.0507 342.193 76.2939 341.964 77.4927C341.734 78.6915 338.656 79.8311 338.656 79.8311L318.21 70.2112C316.508 68.1393 317.248 66.9923 317.796 65.8823C317.849 65.7781 317.877 65.6627 317.877 65.5456C317.877 65.4286 317.849 65.3132 317.796 65.2089C317.507 64.4689 316.264 63.766 316.582 62.9002C316.989 61.7976 318.062 61.6126 319.379 61.5682C320.697 61.5238 320.408 57.8683 319.801 56.8767C319.194 55.8851 319.661 53.4801 321.725 53.6207C323.79 53.7613 324.574 53.3469 324.759 52.3776C324.884 52.0401 325.076 51.7318 325.325 51.4721C325.574 51.2123 325.874 51.0066 326.206 50.8678C326.537 50.7289 326.894 50.6599 327.254 50.6651C327.614 50.6702 327.968 50.7493 328.296 50.8976C329.902 51.7338 331.256 50.8088 332.248 49.8912C332.304 49.8337 332.366 49.7816 332.433 49.7358C333.491 48.9144 335.711 48.463 336.614 49.8912C337.516 51.3194 338.73 52.0076 340.661 52.1112C342.593 52.2148 343.14 53.8575 342.726 55.4633C342.312 57.0691 342.911 57.6241 344.154 58.364C344.806 58.878 345.285 59.5779 345.53 60.3709C345.774 61.1638 345.772 62.0124 345.523 62.804C345.273 63.272 345.183 63.809 345.267 64.3329C345.352 64.8568 345.605 65.3386 345.989 65.7047C346.603 66.4003 347.573 68.2799 346.011 69.3824Z" fill="#473526"/>
<path d="M338.22 95.6664C336.605 96.3589 334.854 96.6752 333.099 96.5914C326.076 96.2658 308.931 102.615 308.931 102.615C306.052 102.97 304.299 103.962 305.601 105.397C306.903 106.833 308.124 110.977 304.794 111.317C304.14 111.379 303.481 111.379 302.826 111.317C300.872 111.147 300.007 110.326 300.251 109.556C300.562 108.572 302.678 108.816 303.078 108.387C303.477 107.958 303.573 107.084 302.271 105.863C300.969 104.642 300.051 102.763 301.376 100.846C302.7 98.9297 305.379 97.1833 303.758 95.8292C302.138 94.475 300.798 93.2614 301.538 91.6408C302.278 90.0203 306.037 87.7263 304.284 85.7209C302.53 83.7156 300.954 81.1774 304.373 78.0695C307.791 74.9615 311.254 75.5535 310.759 72.8896C310.263 70.2256 310.677 67.6653 314.362 68.2942C318.047 68.9232 318.595 68.6568 320.216 67.7541C321.836 66.8513 323.99 67.3471 326.069 69.1526C328.148 70.9582 330.117 68.9232 332.633 69.419C335.149 69.9148 332.633 72.342 335.829 72.8896C339.026 73.4372 340.106 73.563 340.469 76.5895C340.832 79.6161 342.948 79.6826 343.385 80.6446C344.295 82.576 342.852 83.9302 342.445 85.0846C342.038 86.2389 342.933 86.9197 343.644 88.1037C344.776 90.1091 342.363 93.9052 338.22 95.6664Z" fill="#604730"/>
<path d="M339.315 90.2575C339.08 92.0863 338.706 93.8946 338.197 95.6668C336.583 96.3593 334.832 96.6756 333.077 96.5918C326.054 96.2662 308.909 102.615 308.909 102.615C306.03 102.97 304.276 103.962 305.579 105.398C306.881 106.833 308.102 110.977 304.772 111.318C304.117 111.379 303.458 111.379 302.804 111.318C305.297 110.911 305.963 109.135 304.676 106.781C302.907 103.548 303.544 101.601 305.32 99.7737C307.096 97.9459 304.187 93.5356 305.32 91.2269C306.452 88.9181 308.376 88.1041 307.606 84.6188C306.837 81.1334 307.214 79.4389 309.989 77.5223C312.764 75.6057 315.058 75.2135 316.53 72.9048C318.003 70.596 321.844 69.1308 323.153 71.8984C324.463 74.6659 324.885 76.5381 328.563 75.4133C332.24 74.2886 334.705 75.6723 333.395 78.8321C332.085 81.9918 332.707 84.9888 335.015 85.3736C337.324 85.7584 339.773 85.8768 339.315 90.2575Z" fill="#473526"/>
<path d="M336.695 100.832C322.879 110.881 316.923 114.189 310.314 108.631C307.236 106.049 306.703 100.773 307.31 95.3855C307.536 93.464 307.882 91.5585 308.346 89.6802C309.037 86.625 310.098 83.6654 311.506 80.867C314.466 75.5095 321.288 75.2431 321.977 75.5095C322.665 75.7759 322.879 76.1754 322.213 77.7294C321.547 79.2834 322.28 80.4452 324.197 80.5044C326.113 80.5636 328.304 81.8955 328.096 83.8121C327.971 84.7452 328.124 85.6944 328.536 86.5409C328.948 87.3874 329.601 88.0933 330.413 88.5702C332.196 89.695 331.892 91.4192 332.129 92.47C332.366 93.5207 334.579 94.6899 335.178 93.2617C335.777 91.8336 339.204 88.7034 341.986 91.5524C344.768 94.4013 342.311 101.032 336.695 100.832Z" fill="#B25E47"/>
<path d="M320.134 93.6466C320.8 95.0304 323.198 95.2524 325.477 94.1498C327.756 93.0472 329.081 91.0345 328.437 89.6507C327.793 88.2669 325.381 88.0375 323.094 89.1475C320.808 90.2575 319.468 92.2629 320.134 93.6466Z" fill="#A0503D"/>
<path d="M310.818 94.8527C310.189 95.7333 308.798 95.8961 307.31 95.3855C307.536 93.464 307.882 91.5585 308.346 89.6802C308.472 89.7522 308.593 89.8312 308.709 89.917C310.773 91.3969 311.713 93.6095 310.818 94.8527Z" fill="#A0503D"/>
<path d="M310.551 88.1707C310.55 88.3584 310.604 88.5422 310.707 88.699C310.811 88.8557 310.958 88.9783 311.131 89.0511C311.304 89.1239 311.494 89.1437 311.679 89.108C311.863 89.0723 312.032 88.9827 312.166 88.8505C312.299 88.7184 312.39 88.5496 312.427 88.3657C312.464 88.1817 312.446 87.9909 312.374 87.8174C312.303 87.6439 312.181 87.4955 312.025 87.3911C311.87 87.2867 311.686 87.231 311.498 87.231C311.249 87.2309 311.009 87.3297 310.831 87.5058C310.654 87.6818 310.553 87.9208 310.551 88.1707Z" fill="#683F1D"/>
<path d="M316.323 88.6738C316.323 88.8611 316.379 89.0442 316.483 89.2C316.587 89.3557 316.735 89.4771 316.908 89.5488C317.081 89.6205 317.271 89.6393 317.455 89.6027C317.639 89.5662 317.808 89.476 317.94 89.3435C318.073 89.211 318.163 89.0423 318.199 88.8585C318.236 88.6748 318.217 88.4844 318.146 88.3113C318.074 88.1382 317.952 87.9903 317.797 87.8862C317.641 87.7821 317.458 87.7266 317.27 87.7266C317.019 87.7266 316.778 87.8264 316.601 88.004C316.423 88.1816 316.323 88.4225 316.323 88.6738Z" fill="#683F1D"/>
<path d="M336.185 96.599C336.37 94.564 338.693 91.7594 341.202 93.8314" stroke="#934735" stroke-width="0.68" stroke-linecap="round" stroke-linejoin="round"/>
<path d="M336.273 96.0959C338.012 93.1359 341.513 97.1985 337.435 98.0125" stroke="#934735" stroke-width="0.68" stroke-linecap="round" stroke-linejoin="round"/>
<path d="M313.252 94.2312C312.216 93.7502 311.809 92.8104 311.898 92.581C311.987 92.3516 315.228 89.9614 314.606 86.2837" stroke="#934735" stroke-width="0.68" stroke-linecap="round" stroke-linejoin="round"/>
<path d="M317.27 81.6881C316.974 83.6047 321.629 85.4768 322.347 84.2707C322.961 83.2347 317.7 78.8984 317.27 81.6881Z" fill="#604730"/>
<path d="M309.456 82.9536C309.501 83.5012 314.495 83.3902 314.429 81.4736C314.362 79.557 309.33 81.3404 309.456 82.9536Z" fill="#604730"/>
<path d="M313.741 96.1697C315.472 95.7142 317.163 95.1152 318.795 94.3789C318.795 94.3789 319.313 97.5757 317.27 98.1602C316.908 98.2646 316.528 98.2958 316.154 98.2519C315.779 98.208 315.417 98.09 315.088 97.9047C314.76 97.7194 314.471 97.4706 314.24 97.1727C314.009 96.8748 313.839 96.5339 313.741 96.1697Z" fill="white" stroke="#934735" stroke-width="0.68" stroke-linecap="round" stroke-linejoin="round"/>
<path d="M340.055 61.62C339.315 64.0027 336.51 61.5386 336.288 64.9425C336.066 68.3465 329.273 67.3919 327.194 64.0841C325.492 61.361 320.667 62.3822 317.833 65.2607C317.544 64.5207 316.301 63.8177 316.619 62.952C317.026 61.8494 318.099 61.6644 319.416 61.62C320.734 61.5756 320.445 57.9201 319.838 56.9285C319.231 55.9369 319.698 53.5319 321.762 53.6725C323.827 53.8131 324.611 53.3987 324.796 52.4293C324.921 52.0919 325.113 51.7836 325.362 51.5239C325.611 51.2641 325.911 51.0584 326.243 50.9196C326.575 50.7807 326.931 50.7117 327.291 50.7168C327.651 50.722 328.006 50.8011 328.333 50.9494C329.939 51.7856 331.293 50.8606 332.285 49.943C332.341 49.8855 332.403 49.8334 332.47 49.7876C333.262 52.0076 333.839 55.1007 336.91 55.3745C341.194 55.7667 340.795 59.2298 340.055 61.62Z" fill="#604730"/>
<path d="M251.589 127.079C251.974 124.637 258.834 122.817 262.822 122.055L264.346 131.911C264.346 131.911 253.38 130.343 251.589 127.079Z" fill="#FF9400"/>
<path d="M257.968 132.318C257.176 121.647 257.176 112.671 256.954 109.238C256.732 105.804 256.902 102.215 260.906 100.565C260.906 100.565 260.906 97.4203 265.471 96.8653C265.471 96.8653 264.894 94.0459 268.712 94.1199C268.704 93.8559 268.758 93.5936 268.868 93.3537C268.979 93.1138 269.143 92.9027 269.349 92.7371C269.555 92.5715 269.796 92.4558 270.054 92.3992C270.312 92.3425 270.58 92.3464 270.836 92.4106C273.337 92.8471 274.144 94.3789 274.144 94.3789C277.459 93.6389 279.324 97.1095 279.146 99.9436C278.969 102.778 278.769 105.864 277.4 108.72C276.031 111.576 274.292 116.305 274.292 116.305L274.403 122.299C274.403 122.299 271.857 141.575 257.968 132.318Z" fill="#B25E47"/>
<path d="M256.954 109.238C256.725 105.841 256.902 102.215 260.906 100.565C260.906 100.565 260.906 97.4203 265.471 96.8653C265.471 96.8653 264.894 94.0459 268.712 94.1199C268.705 93.8559 268.758 93.5936 268.868 93.3537C268.979 93.1138 269.144 92.9027 269.349 92.7371C269.555 92.5715 269.796 92.4558 270.054 92.3992C270.312 92.3425 270.58 92.3464 270.836 92.4106C273.337 92.8471 274.144 94.3789 274.144 94.3789C277.459 93.6389 279.324 97.1095 279.146 99.9436" stroke="#934735" stroke-width="0.68" stroke-linecap="round" stroke-linejoin="round"/>
<path d="M274.144 94.3789C270.733 96.0587 268.224 99.211 269.253 100.758C270.281 102.304 274.151 100.365 274.677 99.8696" stroke="#934735" stroke-width="0.68" stroke-linecap="round" stroke-linejoin="round"/>
<path d="M268.424 94.1274C269.711 94.2976 272.25 95.7258 272.25 95.7258" stroke="#934735" stroke-width="0.68" stroke-linecap="round" stroke-linejoin="round"/>
<path d="M265.471 96.8657C266.967 96.9268 268.432 97.3052 269.771 97.9757" stroke="#934735" stroke-width="0.68" stroke-linecap="round" stroke-linejoin="round"/>
<path d="M269.186 105.146C270.326 104.28 271.31 102.756 271.014 101.342" stroke="#934735" stroke-width="0.68" stroke-linecap="round" stroke-linejoin="round"/>
<path d="M260.876 100.595C263.599 99.4774 266.367 98.212 267.188 100.069C268.009 101.927 268.461 107.647 267.188 108.424C265.915 109.201 263.784 108.557 263.422 107.062C263.059 105.567 262.785 103.518 262.785 103.518" stroke="#934735" stroke-width="0.68" stroke-linecap="round" stroke-linejoin="round"/>
<path d="M265.96 108.75C267.107 110.163 266.7 115.165 265.471 116.838" stroke="#934735" stroke-width="0.68" stroke-linecap="round" stroke-linejoin="round"/>
<path d="M274.936 195.076C272.716 199.287 269.534 201.581 265.271 200.153C257.243 197.43 254.046 189.726 252.877 182.201C251.648 174.349 252.61 166.661 252.573 165.063C252.492 161.873 251.619 127.064 251.619 127.064C253.01 127.619 255.119 127.634 257.672 127.153C259.616 126.767 261.525 126.218 263.377 125.51C267.258 124.023 270.951 122.086 274.381 119.738L274.529 119.635C274.529 119.635 275.224 128.263 276.164 138.179C276.956 146.674 277.933 156.109 278.806 161.858C280.182 171.227 279.376 186.848 274.936 195.076Z" fill="#FFB63F"/>
<path d="M274.936 195.076C272.716 199.287 269.534 201.581 265.271 200.153C257.243 197.43 254.046 189.726 252.877 182.201C254.307 184.631 255.994 186.901 257.909 188.972C263.836 195.343 270.03 196.712 274.936 195.076Z" fill="#FF9400"/>
<path d="M274.507 119.657C274.507 119.657 276.904 149.39 278.784 161.903C279.808 169.861 279.558 177.932 278.044 185.812" stroke="#F7AD2B" stroke-width="0.68" stroke-linecap="round" stroke-linejoin="round"/>
<path d="M359.398 155.429L330.849 143.505C328.598 142.565 326.011 143.627 325.07 145.879L308.117 186.465C307.177 188.717 308.24 191.304 310.491 192.244L339.04 204.169C341.291 205.109 343.878 204.046 344.819 201.795L361.772 161.209C362.712 158.957 361.649 156.37 359.398 155.429Z" fill="#EDEDED"/>
<path d="M356.186 154.082L330.847 143.498C328.596 142.557 326.008 143.62 325.068 145.871L308.115 186.458C307.175 188.709 308.237 191.297 310.489 192.237L335.828 202.821C338.079 203.761 340.667 202.699 341.607 200.447L358.56 159.861C359.5 157.609 358.438 155.022 356.186 154.082Z" fill="#F9F9F9" stroke="#DDDDDD" stroke-width="0.9" stroke-linecap="round" stroke-linejoin="round"/>
<path d="M332.529 150.256C332.529 150.636 332.416 151.008 332.205 151.324C331.993 151.641 331.693 151.887 331.341 152.033C330.99 152.179 330.603 152.217 330.23 152.143C329.857 152.068 329.514 151.885 329.245 151.616C328.976 151.347 328.792 151.004 328.718 150.631C328.644 150.258 328.682 149.871 328.828 149.519C328.973 149.168 329.22 148.867 329.536 148.656C329.853 148.444 330.225 148.332 330.605 148.332C330.858 148.331 331.109 148.38 331.343 148.476C331.576 148.572 331.789 148.714 331.968 148.893C332.147 149.072 332.288 149.284 332.385 149.518C332.481 149.752 332.53 150.003 332.529 150.256Z" fill="#EDEDED"/>
<path d="M335.703 152.158C335.705 152.349 335.65 152.536 335.544 152.695C335.439 152.854 335.289 152.979 335.113 153.052C334.937 153.126 334.743 153.146 334.556 153.109C334.368 153.072 334.196 152.98 334.061 152.845C333.926 152.71 333.835 152.538 333.798 152.351C333.761 152.164 333.78 151.97 333.854 151.794C333.928 151.617 334.052 151.467 334.212 151.362C334.371 151.257 334.558 151.202 334.749 151.203C335.001 151.205 335.243 151.306 335.422 151.485C335.6 151.663 335.702 151.905 335.703 152.158Z" fill="#EDEDED"/>
<path d="M334.297 184.073C332.411 183.414 331.434 179.766 331.182 176.621L338.582 177.494C338.582 177.494 338.634 184.546 334.297 184.073Z" fill="#FF9400"/>
<path d="M336.784 182.216C334.684 180.717 332.511 179.324 330.272 178.042C329.428 177.583 324.641 177.043 321.311 175.208C319.067 173.94 316.905 172.534 314.836 170.997L313.519 173.447C313.519 173.447 310.929 170.65 310.559 168.126C310.189 165.603 311.21 165.521 311.817 164.981C312.423 164.441 312.046 163.642 312.009 162.34C311.972 161.037 313.082 160.771 313.43 160.312C313.778 159.853 313.467 158.662 313.393 157.056C313.319 155.45 315.228 155.369 315.531 154.451C315.835 153.534 316.109 150.581 318.713 151.351C321.318 152.12 332.655 160.541 333.395 160.926C334.497 161.32 335.624 161.639 336.769 161.881C336.769 161.881 346.048 176.392 336.784 182.216Z" fill="#B25E47"/>
<path d="M314.836 170.997L313.519 173.447C313.519 173.447 310.929 170.65 310.559 168.126C310.189 165.603 311.21 165.521 311.817 164.981C312.423 164.441 312.046 163.642 312.009 162.34C311.972 161.037 313.082 160.771 313.43 160.312C313.778 159.853 313.467 158.662 313.393 157.056C313.319 155.45 315.228 155.369 315.531 154.451C315.835 153.534 316.109 150.581 318.713 151.351" stroke="#934735" stroke-width="0.68" stroke-linecap="round" stroke-linejoin="round"/>
<path d="M314.836 170.998C313.541 169.91 313.274 169.732 313.274 169.732" stroke="#934735" stroke-width="0.68" stroke-linecap="round" stroke-linejoin="round"/>
<path d="M400.978 191.784C398.602 199.08 389.745 205.548 369.55 197.911L368.448 197.482C347.454 189.157 334.29 184.066 334.29 184.066C336.104 176.389 336.104 168.396 334.29 160.719C346.344 164.094 378.223 170.635 389.545 173.958C390.285 174.18 391.025 174.409 391.683 174.698C401.185 178.205 403.272 184.717 400.978 191.784Z" fill="#FFB63F"/>
<path d="M368.448 197.482C347.455 189.157 334.298 184.073 334.298 184.073" stroke="#F7AD2B" stroke-width="0.68" stroke-linecap="round" stroke-linejoin="round"/>
<path d="M334.298 160.719C345.235 163.783 372.511 169.451 385.919 172.959" stroke="#F7AD2B" stroke-width="0.68" stroke-linecap="round" stroke-linejoin="round"/>
<path d="M400.978 191.784C398.602 199.08 389.745 205.548 369.551 197.911C369.551 197.911 375.47 191.066 383.84 192.28C392.209 193.493 400.393 190.06 393.985 180.358C392.85 178.632 392.068 176.698 391.684 174.668C401.185 178.205 403.272 184.717 400.978 191.784Z" fill="#FF9400"/>
<path d="M476.456 127.967C475.676 129.218 474.54 130.207 473.193 130.808C463.803 135.248 442.572 126.798 442.572 126.539C442.572 126.28 438.473 91.478 444.334 78.9649C445.436 76.6191 446.886 75.0651 448.773 74.6877C458.475 74.3917 466.8 77.6847 468.22 84.685C469.641 91.6852 465.416 99.7511 466.652 104.731C467.887 109.711 472.912 109.815 475.021 110.881C478.839 112.797 482.413 118.073 476.456 127.967Z" fill="#DD6819"/>
<path d="M473.193 130.808C463.803 135.248 442.572 126.798 442.572 126.539C442.572 126.28 438.473 91.478 444.334 78.9648C460.199 79.542 462.833 85.3953 461.642 93.5056C460.376 102.126 454.605 113.944 467.17 122.454C470.958 125.029 472.66 127.959 473.193 130.808Z" fill="#CC5E0D"/>
<path d="M453.065 95.9551C455.382 98.5524 455.722 101.823 454.767 105.508C453.813 109.193 452.333 114.581 454.168 119.901" stroke="#FF79A0" stroke-width="0.68" stroke-linecap="round" stroke-linejoin="round"/>
<path d="M463.706 92.6772C463.588 97.613 462.101 101.01 461.679 105.657C461.257 110.304 464.128 112.982 467.762 114.411C469.269 115.039 470.466 116.239 471.092 117.748C471.717 119.256 471.72 120.951 471.099 122.462" stroke="#FF79A0" stroke-width="0.68" stroke-linecap="round" stroke-linejoin="round"/>
<path d="M461.154 121.884C457.661 117.829 456.98 114.862 459.067 114.551C461.154 114.24 465.261 116.031 464.846 117.829C464.432 119.627 461.775 118.865 461.886 117.985" stroke="#FF79A0" stroke-width="0.68" stroke-linecap="round" stroke-linejoin="round"/>
<path d="M444.807 145.616C434.891 150.796 427.676 145.845 426.744 140.354C426.137 136.758 426.492 128.47 426.7 119.857C426.803 115.35 426.877 110.74 426.744 106.685C426.744 106.048 426.744 105.434 426.744 104.827C426.744 79.1944 446.324 85.1364 447.915 95.0597C448.921 101.357 450.468 113.9 451.223 120.515C451.978 127.131 454.752 140.436 444.807 145.616Z" fill="#FEBD9D"/>
<path d="M426.699 119.857C426.803 115.35 426.877 110.74 426.744 106.685C426.744 106.049 426.744 105.434 426.744 104.828C431.613 104.591 439.324 104.354 439.324 104.354C440.744 114.351 435.047 120.804 426.699 119.857Z" fill="#F4A789"/>
<path d="M391.654 233.881C392.549 235.25 399.054 230.181 400.918 227.221L394.31 218.104C394.31 218.104 389.086 229.907 391.654 233.881Z" fill="#A7CAF0"/>
<path d="M407.704 209.424C415.844 221.849 419.618 225.771 420.203 230.943C420.787 236.116 418.619 248.955 412.869 251.123C407.12 253.291 393.852 244.196 393.349 242.117C392.845 240.038 399.143 240.948 402.088 242.361C402.088 242.361 396.464 234.813 396.464 226.355C396.464 224.187 388.679 219.932 388.679 219.932C388.679 219.932 395.124 200.582 407.704 209.424Z" fill="#FEBD9D"/>
<path d="M505.76 302.922C480.549 293.953 449.521 285.288 416.725 278.036V263.34C416.725 259.366 417.183 252.647 417.775 245.373C418.256 239.364 418.826 232.978 419.255 227.465C419.648 222.833 419.951 218.808 420.084 216.136L430.081 216.033L448.736 215.855L486.824 215.478L493.002 215.418C493.705 232.964 499.855 253.779 504.184 269.578C507.292 280.841 506.485 295.359 505.76 302.922Z" fill="#683F1D"/>
<path d="M484.352 244.707C481.843 252.736 484.515 260.72 489.369 263.34" stroke="#91613D" stroke-width="0.68" stroke-linecap="round" stroke-linejoin="round"/>
<path d="M391.654 179.98L396.16 187.854L409.569 211.282" stroke="#83ADDF" stroke-width="0.68" stroke-linecap="round" stroke-linejoin="round"/>
<path d="M485.388 217.143C483.464 217.535 472.734 217.883 460.517 218.031C442.017 218.223 420.114 217.846 420.114 216.136C420.114 213.457 421.283 210.956 417.938 205.088C414.594 199.22 409.058 194.64 408.563 183.962C408.067 173.284 410.568 161.399 410.568 161.399L405.321 166.579L391.654 179.98L396.16 187.854L409.569 211.282C409.569 211.282 391.491 218.312 391.654 233.881C391.654 233.881 366.887 203.083 359.524 192.538C352.161 181.993 360.523 169.939 372.407 157.551C378.327 151.365 384.831 143.033 391.328 136.018C397.825 129.003 404.374 123.32 410.405 122.454C413.817 121.965 418.545 121.544 423.636 121.203C424.628 121.129 425.627 121.063 426.641 121.003C426.367 131.459 429.386 133.391 429.386 133.391C430.866 134.264 431.021 133.857 431.154 135.611C431.288 137.365 432.102 142.337 433.53 142.337C435.506 142.337 436.778 139.096 438.451 134.405C439.553 128.796 446.48 126.605 448.714 123.556C449.489 122.459 450.03 121.215 450.305 119.901H451.127C452.422 120.219 453.983 120.582 455.692 120.929C460.132 121.832 465.586 122.661 470.011 122.454C475.879 122.187 493.062 122.535 498.175 136.099C498.175 136.099 498.175 136.136 498.175 136.158C498.39 136.736 498.582 137.342 498.76 137.971C498.893 138.467 499.011 139.015 499.115 139.607C502.149 157.337 490.087 216.166 485.388 217.143Z" fill="#C3DCF8"/>
<path d="M468.812 170.768C458.748 174.297 456.055 188.194 458.334 193.789C460.613 199.383 452.836 202.121 445.414 202.121C436.867 202.121 426.707 211.112 431.058 223.973L474.717 203.993L468.812 170.768Z" fill="#A7CAF0"/>
<path d="M499.463 139.74C499.359 139.689 499.241 139.652 499.137 139.607C490.006 135.996 479.313 138.275 472.357 144.047C470.591 145.489 469.063 147.2 467.828 149.116C459.503 162.206 432.731 169.355 423.94 152.194C416.821 138.283 406.18 133.924 391.328 136.026C397.84 129.011 404.374 123.327 410.405 122.462C413.817 121.973 418.545 121.551 423.636 121.211C424.628 121.137 425.627 121.07 426.641 121.011C426.367 131.467 429.386 133.399 429.386 133.399C430.866 134.272 431.021 133.865 431.154 135.619C431.288 137.372 432.102 142.345 433.53 142.345C435.506 142.345 436.778 139.104 438.451 134.412C439.553 128.803 446.48 126.613 448.714 123.564C449.489 122.467 450.03 121.223 450.305 119.909H451.127C452.422 120.227 453.983 120.589 455.692 120.937C460.132 121.84 465.586 122.669 470.011 122.462C475.879 122.195 493.062 122.543 498.175 136.107C498.175 136.107 498.175 136.144 498.175 136.166C498.685 137.327 499.115 138.521 499.463 139.74Z" fill="#D0E5F7"/>
<path d="M435.957 147.273C436.811 147.273 437.504 146.58 437.504 145.726C437.504 144.872 436.811 144.18 435.957 144.18C435.103 144.18 434.41 144.872 434.41 145.726C434.41 146.58 435.103 147.273 435.957 147.273Z" fill="#83ADDF"/>
<path d="M432.679 145.001C433.137 149.16 431.85 156.5 430.866 163.922C429.881 171.345 427.536 181.556 430.866 192.042C434.196 202.528 434.943 205.747 435.032 207.027C435.18 209.298 433.448 211.896 437.755 213.687" stroke="#83ADDF" stroke-width="0.68" stroke-linecap="round" stroke-linejoin="round"/>
<path d="M429.386 133.391C425.271 132.414 422.341 137.431 420.772 141.671C420.617 129.417 422.097 123.786 423.636 121.203C425.175 118.621 426.722 119.109 426.722 119.109C426.677 119.775 426.655 120.404 426.64 121.003C426.367 131.437 429.386 133.391 429.386 133.391Z" fill="#83ADDF"/>
<path d="M455.737 125.754C454.642 132.732 450.268 142.352 450.268 142.352C450.268 142.352 446.79 138.415 444.348 135.441C441.906 132.466 440.493 132.954 438.428 134.419C439.531 128.81 446.457 126.62 448.692 123.571C449.467 122.474 450.008 121.23 450.283 119.916C450.573 118.675 450.703 117.401 450.668 116.127C451.893 116.32 453.029 116.883 453.924 117.742C454.818 118.601 455.428 119.713 455.67 120.929C455.999 122.519 456.022 124.156 455.737 125.754Z" fill="#83ADDF"/>
<path d="M388.331 223.477C389.145 219.081 394.747 211.4 403.634 207.36" stroke="#83ADDF" stroke-width="0.68" stroke-linecap="round" stroke-linejoin="round"/>
<path d="M380.177 170.042C381.482 170.119 382.745 170.534 383.84 171.249C386.06 172.544 388.775 175.111 391.654 179.98" stroke="#83ADDF" stroke-width="0.68" stroke-linecap="round" stroke-linejoin="round"/>
<path d="M410.568 161.399L411.893 155.731" stroke="#83ADDF" stroke-width="0.68" stroke-linecap="round" stroke-linejoin="round"/>
<path d="M405.321 166.557L391.654 179.98C388.775 175.111 386.03 172.544 383.84 171.249C387.384 169.658 389.131 171.108 390.847 172.373C395.095 175.526 399.098 163.049 405.321 166.557Z" fill="#A7CAF0"/>
<path d="M500.099 186.714C498.508 199.945 495.985 212.68 493.38 221.427C488.355 238.269 475.739 239.231 467.591 233.859C462.87 230.736 459.644 225.49 460.28 219.962C460.339 219.414 460.421 218.771 460.517 218.031C461.997 206.694 466.948 173.424 469.93 154.51C470.455 150.953 471.267 147.444 472.357 144.017C476.234 132.177 482.717 128.514 490.694 129.336C493.994 129.676 496.436 132.133 498.175 136.077C498.175 136.077 498.175 136.114 498.175 136.136C498.677 137.3 499.1 138.497 499.44 139.718C502.652 150.847 502.193 169.177 500.099 186.714Z" fill="#C3DCF8"/>
<path d="M500.099 186.714C498.508 199.945 495.985 212.68 493.38 221.427C488.356 238.269 475.739 239.231 467.592 233.859C469.119 232.388 471.029 231.378 473.104 230.943C482.303 229.212 487.786 222.16 486.424 207.36C485.359 196.127 495.252 189.341 500.099 186.714Z" fill="#A7CAF0"/>
<path d="M499.463 139.74C499.359 139.688 499.241 139.651 499.137 139.607C490.006 135.996 479.313 138.275 472.357 144.047C476.234 132.207 482.717 128.544 490.694 129.366C493.994 129.706 496.436 132.163 498.175 136.107C498.175 136.107 498.175 136.144 498.175 136.166C498.685 137.327 499.115 138.521 499.463 139.74Z" fill="#D0E5F7"/>
<path d="M462.737 202.121C464.883 187.321 467.917 167.526 469.93 154.51C470.456 150.953 471.267 147.444 472.357 144.017C473.169 141.42 474.303 138.934 475.731 136.617" stroke="#83ADDF" stroke-width="0.68" stroke-linecap="round" stroke-linejoin="round"/>
<path d="M400.082 263.333C396.19 264.073 392.246 258.264 390.943 254.69C389.641 251.116 400.038 249.51 400.038 249.51C400.038 249.51 403.42 260.558 400.082 263.333Z" fill="#A7CAF0"/>
<path d="M390.455 237.403C382.848 239.941 365.014 248.807 364.06 249.546C363.105 250.286 360.264 256.769 360.16 257.746C360.056 258.722 358.895 268.845 360.789 269.497C362.683 270.148 363.638 265.945 364.06 263.34C364.462 261.404 365.1 259.525 365.961 257.746C365.961 257.746 364.807 261.838 366.494 263.34C367.471 264.213 369.654 263.34 369.654 263.34C369.654 263.34 370.187 266.011 373.672 264.746C373.672 264.746 373.465 267.58 375.759 268.135C378.053 268.69 380.199 266.13 381.109 264.62C381.435 264.109 380.613 262.615 379.548 262.615C379.548 262.615 380.495 262 383.344 262C386.193 262 389.589 262.163 391.765 258.87C393.94 255.577 396.397 254.009 398.425 253.483L390.455 237.403Z" fill="#FEBD9D"/>
<path d="M360.16 257.746C360.049 258.73 358.895 268.846 360.789 269.497C362.683 270.148 363.638 265.945 364.06 263.34C364.462 261.405 365.1 259.526 365.961 257.746C365.961 257.746 364.807 261.838 366.494 263.34C367.471 264.214 369.654 263.34 369.654 263.34C369.654 263.34 370.187 266.012 373.672 264.746C373.672 264.746 373.465 267.581 375.759 268.136C378.053 268.691 380.199 266.13 381.109 264.621C381.435 264.11 380.613 262.615 379.548 262.615" stroke="#EF8A66" stroke-width="0.68" stroke-linecap="round" stroke-linejoin="round"/>
<path d="M379.969 262.689C379.39 262.604 378.8 262.644 378.238 262.807" stroke="#EF8A66" stroke-width="0.68" stroke-linecap="round" stroke-linejoin="round"/>
<path d="M378.778 260.935C378.208 262.415 377.498 264.679 377.779 265.331" stroke="#EF8A66" stroke-width="0.68" stroke-linecap="round" stroke-linejoin="round"/>
<path d="M373.679 265.301C373.628 262.289 374.395 259.32 375.899 256.709" stroke="#EF8A66" stroke-width="0.68" stroke-linecap="round" stroke-linejoin="round"/>
<path d="M369.654 263.34C369.099 261.12 370.808 255.474 372.177 253.832" stroke="#EF8A66" stroke-width="0.68" stroke-linecap="round" stroke-linejoin="round"/>
<path d="M365.954 257.746C366.169 256.266 366.472 252.218 368.685 250.346" stroke="#EF8A66" stroke-width="0.68" stroke-linecap="round" stroke-linejoin="round"/>
<path d="M482.184 235.776C478.891 237.507 470.995 240.482 461.331 243.856C436.564 252.492 400.178 263.732 400.082 263.333C399.949 262.778 396.752 248.2 385.786 238.484C385.786 238.484 436.667 214.168 452.969 206.554C462.759 201.981 477.736 194.211 485.802 201.603C486.098 201.87 486.379 202.151 486.646 202.439C495.341 211.593 493.543 229.789 482.184 235.776Z" fill="#C3DCF8"/>
<path d="M482.184 235.775C478.891 237.507 470.995 240.482 461.331 243.856C463.04 239.416 466.763 232.135 473.104 230.943C482.302 229.212 487.786 222.16 486.424 207.36C486.267 205.716 486.349 204.059 486.668 202.439C495.341 211.593 493.543 229.789 482.184 235.775Z" fill="#A7CAF0"/>
<path d="M385.786 238.484C385.786 238.484 436.667 214.168 452.969 206.553C457.646 204.37 463.507 201.455 469.249 199.812" stroke="#83ADDF" stroke-width="0.68" stroke-linecap="round" stroke-linejoin="round"/>
<path d="M396.464 236.767C402.613 244.308 407.704 257.746 407.704 257.746" stroke="#83ADDF" stroke-width="0.68" stroke-linecap="round" stroke-linejoin="round"/>
<path d="M451.874 74.769C456.484 76.989 460.295 86.6902 452.133 92.6767C443.971 98.6632 447.693 84.3667 447.893 84.0929C448.093 83.8191 448.352 75.102 451.874 74.769Z" fill="#FFB63F"/>
<path d="M452.163 87.1046C451.814 87.7716 451.336 88.3627 450.757 88.8435C450.757 88.8435 441.981 94.8744 436.512 91.6555C431.044 88.4366 424.347 80.7999 424.347 80.7999C421.883 78.9647 420.536 77.5291 420.047 75.9234C419.81 75.0959 419.767 74.2247 419.922 73.3778C420.373 70.5215 423.407 64.128 433.064 66.4959C433.064 66.4959 434.758 64.35 438.244 65.6449C441.729 66.9399 444.763 70.7435 444.763 70.7435C444.763 70.7435 448.159 69.5373 451.867 74.769C454.79 78.8981 453.806 84.2186 452.163 87.1046Z" fill="#DD6819"/>
<path d="M452.163 87.1045C451.814 87.7716 451.336 88.3627 450.757 88.8435C450.757 88.8435 441.981 94.8744 436.512 91.6554C431.044 88.4365 424.347 80.7998 424.347 80.7998C421.883 78.9647 420.536 77.5291 420.047 75.9233C420.491 71.2688 422.637 67.9389 427.159 69.33C433.567 71.3058 436.66 74.8503 443.039 73.141C443.039 73.141 444.652 85.7355 452.163 87.1045Z" fill="#CC5E0D"/>
<path d="M423.222 71.8537C424.376 70.5957 426.737 70.6475 430.244 74.2956" stroke="#FF79A0" stroke-width="0.68" stroke-linecap="round" stroke-linejoin="round"/>
<path d="M430.992 66.104C433.63 66.6549 436.124 67.7541 438.31 69.3303" stroke="#FF79A0" stroke-width="0.68" stroke-linecap="round" stroke-linejoin="round"/>
<path d="M444.77 70.7588C445.363 71.4923 445.86 72.2979 446.25 73.1564" stroke="#FF79A0" stroke-width="0.68" stroke-linecap="round" stroke-linejoin="round"/>
<path d="M446.613 97.9084C438.821 108.875 428.757 114.854 422.681 109.748C418.197 105.996 418.168 98.53 419.226 92.5139C419.531 90.7636 419.944 89.0338 420.462 87.334C420.506 87.186 420.558 87.0454 420.602 86.9048C422.504 80.9849 425.316 72.1051 429.845 73.9476C429.845 73.9476 433.382 77.1148 440.086 75.7532C440.086 75.7532 436.645 88.333 444.437 89.813C444.437 89.813 447.878 85.373 451.837 87.7336C455.796 90.0942 455.84 97.8122 446.613 97.9084Z" fill="#FEBD9D"/>
<path d="M430.422 84.8997C430.42 85.0874 430.475 85.2712 430.578 85.428C430.681 85.5847 430.829 85.7073 431.001 85.7801C431.174 85.8529 431.365 85.8727 431.549 85.837C431.734 85.8013 431.903 85.7117 432.036 85.5795C432.169 85.4474 432.26 85.2786 432.297 85.0947C432.335 84.9107 432.316 84.7199 432.245 84.5464C432.173 84.3729 432.052 84.2245 431.896 84.1201C431.74 84.0157 431.557 83.96 431.369 83.96C431.119 83.96 430.879 84.0587 430.702 84.2348C430.525 84.4108 430.424 84.6498 430.422 84.8997Z" fill="#683F1D"/>
<path d="M423.939 84.8997C423.938 85.0874 423.992 85.2712 424.096 85.428C424.199 85.5847 424.346 85.7073 424.519 85.7801C424.692 85.8529 424.883 85.8727 425.067 85.837C425.251 85.8013 425.421 85.7117 425.554 85.5795C425.687 85.4474 425.778 85.2786 425.815 85.0947C425.852 84.9107 425.834 84.7199 425.762 84.5464C425.691 84.3729 425.57 84.2245 425.414 84.1201C425.258 84.0157 425.074 83.96 424.887 83.96C424.637 83.96 424.397 84.0587 424.22 84.2348C424.042 84.4108 423.941 84.6498 423.939 84.8997Z" fill="#683F1D"/>
<path d="M444.393 89.8423C443.681 90.6436 443.2 91.6232 443.002 92.6764" stroke="#EF8A66" stroke-width="0.68" stroke-linecap="round" stroke-linejoin="round"/>
<path d="M445.429 93.0766C447.072 89.3766 450.609 89.1546 452.644 90.8048" stroke="#EF8A66" stroke-width="0.68" stroke-linecap="round" stroke-linejoin="round"/>
<path d="M446.265 91.6554C449.41 89.5613 451.252 95.0594 447.138 95.0594" stroke="#EF8A66" stroke-width="0.68" stroke-linecap="round" stroke-linejoin="round"/>
<path d="M421.993 80.7703C422.237 81.5547 427.292 81.1033 427.173 79.3347C426.981 76.9594 421.534 79.2829 421.993 80.7703Z" fill="#DD6819"/>
<path d="M430.962 79.209C430.799 80.8 435.683 82.169 436.142 81.3328C436.601 80.4966 431.265 76.1899 430.962 79.209Z" fill="#DD6819"/>
<path d="M424.702 90.139C424.554 88.659 425.338 86.994 426.404 86.6166C427.469 86.2392 429.119 85.2106 428.75 81.3701" stroke="#EF8A66" stroke-width="0.68" stroke-linecap="round" stroke-linejoin="round"/>
<path d="M425.834 93.0763C427.728 93.0763 430.681 91.6407 431.154 91.0562C431.154 91.0562 431.376 95.6071 428.801 95.9327C426.633 96.2139 425.834 93.0763 425.834 93.0763Z" fill="white" stroke="#EF8A66" stroke-width="0.68" stroke-linecap="round" stroke-linejoin="round"/>
<path d="M447.257 100.432C448.887 100.432 450.209 99.1101 450.209 97.4794C450.209 95.8488 448.887 94.5269 447.257 94.5269C445.626 94.5269 444.304 95.8488 444.304 97.4794C444.304 99.1101 445.626 100.432 447.257 100.432Z" fill="white"/>
<path d="M440.878 88.5774C441.418 89.9093 440.19 91.6705 438.118 92.5141C436.046 93.3577 433.937 92.9655 433.389 91.6335C432.841 90.3015 434.077 88.533 436.149 87.6894C438.221 86.8458 440.33 87.2454 440.878 88.5774Z" fill="#F4AF90"/>
<path d="M422.985 91.8335C422.393 92.8547 420.832 93.1137 419.211 92.5735C419.517 90.8232 419.929 89.0933 420.447 87.3936L420.787 87.5786C422.726 88.6737 423.71 90.5903 422.985 91.8335Z" fill="#F4AF90"/>
<path d="M324.7 284.171L362.055 275.587L394.969 286.85L362.846 297.824L324.7 284.171Z" stroke="#DDDDDD" stroke-width="0.9" stroke-linecap="round" stroke-linejoin="round"/>
<path d="M346.33 277.163V284.171C346.33 286.502 352.323 288.389 359.723 288.389C367.123 288.389 373.125 286.502 373.125 284.171V277.163H346.33Z" fill="#DDDDDD" stroke="#DDDDDD" stroke-width="0.9" stroke-miterlimit="10"/>
<path d="M359.723 281.048C351.909 281.048 346.663 279.043 346.663 277.163C346.663 275.284 351.909 273.278 359.723 273.278C367.538 273.278 372.784 275.291 372.784 277.163C372.784 279.035 367.538 281.048 359.723 281.048Z" fill="#F9F9F9"/>
<path d="M359.723 273.611C367.612 273.611 372.451 275.683 372.451 277.163C372.451 278.643 367.612 280.715 359.723 280.715C351.835 280.715 346.996 278.643 346.996 277.163C346.996 275.683 351.835 273.611 359.723 273.611ZM359.723 272.945C352.323 272.945 346.33 274.832 346.33 277.163C346.33 279.494 352.323 281.381 359.723 281.381C367.123 281.381 373.125 279.494 373.125 277.163C373.125 274.832 367.123 272.945 359.723 272.945Z" fill="#DDDDDD"/>
<path d="M335.119 284.378C335.119 284.836 335.911 285.214 336.887 285.214C337.864 285.214 338.656 284.836 338.656 284.378C338.656 283.919 337.864 283.542 336.887 283.542C335.911 283.542 335.119 283.919 335.119 284.378Z" fill="#DDDDDD"/>
<path d="M361.411 294.028C361.411 294.486 362.202 294.864 363.179 294.864C364.156 294.864 364.94 294.486 364.94 294.028C364.94 293.569 364.149 293.191 363.179 293.191C362.21 293.191 361.411 293.569 361.411 294.028Z" fill="#DDDDDD"/>
<path d="M383.455 286.701C383.455 287.16 384.247 287.538 385.223 287.538C386.2 287.538 386.992 287.16 386.992 286.701C386.992 286.243 386.2 285.865 385.223 285.865C384.247 285.865 383.455 286.243 383.455 286.701Z" fill="#DDDDDD"/>
<path d="M1 253.484C27.5729 252.655 56.6396 252.144 86.9791 252.055C114.27 251.981 142.597 252.263 171.027 252.995C176.981 253.143 182.943 253.316 188.912 253.513C224.528 254.675 260.055 256.569 293.717 259.396C299.395 259.86 305.016 260.353 310.581 260.876C329.451 262.674 349.156 265.316 368.899 268.683C384.972 271.391 401.067 274.536 416.754 278.014C449.573 285.266 480.578 293.931 505.79 302.9C531.867 312.187 551.743 321.814 561 330.59" stroke="#EDEDED" stroke-width="1.81" stroke-linecap="round" stroke-linejoin="round"/>
<path d="M326.883 292.755C314.932 298.941 244.789 317.174 244.789 317.174L238.366 310.818L197.37 270.274C197.37 270.274 236.493 262.415 243.79 263.296C249.887 264.036 304.595 278.621 322.073 287.345C325.492 289.092 327.763 292.303 326.883 292.755Z" stroke="#EDEDED" stroke-width="0.9" stroke-linecap="round" stroke-linejoin="round"/>
<path d="M199.146 276.571C228.28 271.643 239.757 268.431 243.871 269.556C247.985 270.681 303.581 286.457 302.648 286.701C276.549 293.539 230.026 304.424 230.026 304.424L199.146 276.571Z" stroke="#DDDDDD" stroke-width="0.9" stroke-linecap="round" stroke-linejoin="round"/>
<path d="M326.883 292.755C314.932 298.941 244.789 317.174 244.789 317.174L238.366 310.818L322.073 287.39C325.492 289.092 327.764 292.303 326.883 292.755Z" fill="#EDEDED"/>
<path d="M156.826 249.525C149.56 236.027 153.926 213.872 166.165 212.215C178.404 210.557 194.632 226.393 200.944 218.534C207.797 209.972 202.225 168.659 202.276 161.192L232.978 158.077C232.978 158.077 227.125 214.205 235.147 220.739C239.845 224.565 245.344 224.032 248.637 217.121C251.596 210.846 255.777 205.792 263.273 211.608C263.273 211.608 267.477 201.833 283.756 205.688C300.036 209.543 290.623 228.317 286.835 230.847C286.835 230.847 294.235 237.382 291.889 245.647C289.543 253.913 277.607 257.709 277.607 257.709C277.607 257.709 282.558 268.994 272.657 272.59C262.755 276.186 256.332 274.921 249.828 272.59C243.323 270.259 232.068 264.45 225.734 273.367C219.4 282.284 175.422 284.09 156.826 249.525Z" fill="#F9F9F9" stroke="#EDEDED" stroke-width="1.81" stroke-linecap="round" stroke-linejoin="round"/>
<path d="M199.146 176.495C193.123 178.204 190.067 184.635 188.468 191.006C186.87 197.377 187.506 198.443 185.73 196.882C183.829 195.209 179.707 183.318 181.919 165.173C183.562 151.698 189.623 145.475 193.115 142.974C194.115 154.11 196.119 165.134 199.102 175.91C199.128 176.104 199.143 176.299 199.146 176.495Z" fill="#EDEDED" stroke="#EDEDED" stroke-width="1.81" stroke-linecap="round" stroke-linejoin="round"/>
<path d="M248.895 196.882C247.119 198.444 247.734 197.363 246.15 191.007C244.567 184.65 241.503 178.205 235.479 176.496C235.482 176.303 235.494 176.11 235.517 175.918C238.51 165.137 240.516 154.105 241.51 142.959C245.003 145.483 251.064 151.706 252.706 165.159C254.912 183.318 250.805 195.21 248.895 196.882Z" fill="#EDEDED" stroke="#EDEDED" stroke-width="1.81" stroke-linecap="round" stroke-linejoin="round"/>
<path d="M241.511 142.952C240.517 154.097 238.51 165.129 235.517 175.911C235.236 176.873 234.962 177.82 234.673 178.738H199.946C199.657 177.813 199.376 176.858 199.102 175.889C196.119 165.113 194.115 154.089 193.116 142.952C191.517 125.932 191.858 106.915 195.572 88.6739C196.053 86.3282 196.571 84.0786 197.126 81.94C204.334 53.9981 217.313 42.5283 217.313 42.5283C217.313 42.5283 230.3 53.9981 237.5 81.94C238.055 84.0786 238.58 86.3282 239.054 88.6739C242.769 106.915 243.116 125.903 241.511 142.952Z" fill="#F9F9F9" stroke="#DDDDDD" stroke-width="1.81" stroke-linecap="round" stroke-linejoin="round"/>
<path d="M237.5 81.94H197.126C204.334 53.9981 217.313 42.5283 217.313 42.5283C217.313 42.5283 230.3 53.9981 237.5 81.94Z" fill="#DDDDDD" stroke="#DDDDDD" stroke-width="0.9" stroke-miterlimit="10"/>
<path d="M226.962 115.661C225.697 116.932 224.193 117.94 222.538 118.628C220.882 119.316 219.106 119.671 217.313 119.671C215.52 119.671 213.744 119.316 212.088 118.628C210.432 117.94 208.929 116.932 207.663 115.661C205.115 113.097 203.685 109.63 203.685 106.015C203.685 102.401 205.115 98.933 207.663 96.3695C208.929 95.0987 210.432 94.0903 212.088 93.4022C213.744 92.7141 215.52 92.3599 217.313 92.3599C219.106 92.3599 220.882 92.7141 222.538 93.4022C224.193 94.0903 225.697 95.0987 226.962 96.3695C227.789 97.1936 228.505 98.1214 229.093 99.1297C230.612 101.734 231.227 104.768 230.842 107.758C230.456 110.748 229.092 113.527 226.962 115.661Z" fill="#EDEDED" stroke="#F9F9F9" stroke-width="1.81" stroke-linecap="round" stroke-linejoin="round"/>
<path d="M229.094 99.1297L210.424 117.8C209.417 117.207 208.489 116.488 207.664 115.661C206.839 114.834 206.125 113.904 205.54 112.893L224.202 94.231C225.209 94.8236 226.137 95.5423 226.962 96.3695C227.789 97.1936 228.505 98.1214 229.094 99.1297Z" fill="#F9F9F9"/>
<path d="M217.313 140.051C211.482 147.792 208.433 186.944 217.313 197.519C226.208 186.937 223.137 147.792 217.313 140.051Z" fill="#DDDDDD" stroke="#DDDDDD" stroke-width="0.9" stroke-miterlimit="10"/>
<path d="M226.962 115.661C225.697 116.932 224.193 117.94 222.538 118.628C220.882 119.316 219.106 119.671 217.313 119.671C215.52 119.671 213.744 119.316 212.088 118.628C210.432 117.94 208.929 116.932 207.663 115.661C205.115 113.097 203.685 109.63 203.685 106.015C203.685 102.401 205.115 98.933 207.663 96.3695C208.929 95.0987 210.432 94.0903 212.088 93.4022C213.744 92.7141 215.52 92.3599 217.313 92.3599C219.106 92.3599 220.882 92.7141 222.538 93.4022C224.193 94.0903 225.697 95.0987 226.962 96.3695C227.789 97.1936 228.505 98.1214 229.093 99.1297C230.612 101.734 231.227 104.768 230.842 107.758C230.456 110.748 229.092 113.527 226.962 115.661Z" stroke="#DDDDDD" stroke-width="1.81" stroke-linecap="round" stroke-linejoin="round"/>
<path d="M286.835 230.855C285.351 231.961 283.799 232.972 282.188 233.882" stroke="#EDEDED" stroke-width="1.81" stroke-linecap="round" stroke-linejoin="round"/>
<path d="M274.247 236.116C270.385 232.187 260.98 233.94 259.492 242.991C258.005 252.041 265.945 259.944 277.607 257.746" stroke="#EDEDED" stroke-width="1.81" stroke-linecap="round" stroke-linejoin="round"/>
<path d="M212.518 199.842C213.998 210.32 213.406 228.516 213.317 229.671" stroke="#EDEDED" stroke-width="1.81" stroke-linecap="round" stroke-linejoin="round"/>
<path d="M232.017 244.759C226.245 238.721 223.492 234.814 223.492 209.166" stroke="#EDEDED" stroke-width="1.81" stroke-linecap="round" stroke-linejoin="round"/>
<path d="M126.642 203.076L209.306 235.458L249.332 315.273L160.364 276.038L122.099 205.022L126.642 203.076Z" fill="#EDEDED"/>
<path d="M122.099 205.022L204.763 237.404L244.789 317.219L155.827 277.985L122.099 205.022Z" fill="#F9F9F9" stroke="#DDDDDD" stroke-width="0.9" stroke-linecap="round" stroke-linejoin="round"/>
</svg>
