<svg width="561" height="437" viewBox="0 0 561 437" fill="none" xmlns="http://www.w3.org/2000/svg">
<path d="M191.954 46.4146C193.68 45.1202 195.417 43.8474 197.186 42.6069" stroke="#DDDDDD" stroke-width="3" stroke-linecap="round" stroke-linejoin="round"/>
<path d="M207.649 35.7464C236.451 17.8943 269.655 8.41487 303.541 8.37013C317.728 8.36386 331.867 10.033 345.662 13.3427" stroke="#DDDDDD" stroke-width="3" stroke-linecap="round" stroke-linejoin="round" stroke-dasharray="11.57 11.57"/>
<path d="M351.649 14.9067C353.727 15.482 355.798 16.0933 357.862 16.7405" stroke="#DDDDDD" stroke-width="3" stroke-linecap="round" stroke-linejoin="round"/>
<path d="M208.501 425.453C206.657 424.374 204.823 423.188 203.021 422.012" stroke="#DDDDDD" stroke-width="3" stroke-linecap="round" stroke-linejoin="round"/>
<path d="M192.548 414.656C154.611 386.233 125.93 343.659 112.598 293.717" stroke="#DDDDDD" stroke-width="3" stroke-linecap="round" stroke-linejoin="round" stroke-dasharray="11.9 11.9"/>
<path d="M110.98 287.483C110.484 285.39 110.012 283.287 109.567 281.173" stroke="#DDDDDD" stroke-width="3" stroke-linecap="round" stroke-linejoin="round"/>
<path d="M500.784 261.174C500.518 263.332 500.223 265.467 499.899 267.582" stroke="#DDDDDD" stroke-width="3" stroke-linecap="round" stroke-linejoin="round"/>
<path d="M497.559 280.59C494.428 295.689 489.833 310.447 483.838 324.653" stroke="#DDDDDD" stroke-width="3" stroke-linecap="round" stroke-linejoin="round" stroke-dasharray="12.25 12.25"/>
<path d="M481.185 330.748C480.286 332.711 479.366 334.656 478.424 336.583" stroke="#DDDDDD" stroke-width="3" stroke-linecap="round" stroke-linejoin="round"/>
<path d="M156.542 340.358L97.281 349.117C96.2221 349.268 95.1447 349.021 94.2578 348.423C93.3708 347.825 92.7376 346.919 92.481 345.881L85.6207 313.866C85.5085 313.366 85.5024 312.847 85.6027 312.343C85.703 311.84 85.9075 311.363 86.2031 310.944C86.4988 310.524 86.879 310.171 87.3193 309.907C87.7596 309.643 88.2502 309.474 88.7596 309.412L148.021 300.664C149.08 300.512 150.157 300.759 151.044 301.357C151.931 301.955 152.564 302.861 152.821 303.9L159.681 335.839C159.804 336.344 159.818 336.869 159.722 337.381C159.627 337.892 159.424 338.377 159.128 338.804C158.831 339.231 158.447 339.59 158.002 339.858C157.556 340.126 157.059 340.297 156.542 340.358Z" fill="#F9F9F9" stroke="#EDEDED" stroke-width="2" stroke-linecap="round" stroke-linejoin="round"/>
<path d="M94.3899 314.632C95.0263 314.514 129.716 325.861 129.716 325.861L145.896 305.453" stroke="#EDEDED" stroke-width="2" stroke-linecap="round" stroke-linejoin="round"/>
<path d="M103.343 337.931L122.651 323.563" stroke="#EDEDED" stroke-width="2" stroke-linecap="round" stroke-linejoin="round"/>
<path d="M138.992 323.563L153.684 328.212" stroke="#EDEDED" stroke-width="2" stroke-linecap="round" stroke-linejoin="round"/>
<path d="M181.448 390.062L166.023 392.964C165.816 393.002 165.622 393.096 165.463 393.234L155.755 401.712C155.588 401.854 155.386 401.947 155.17 401.981C154.954 402.015 154.733 401.989 154.531 401.905C154.329 401.821 154.154 401.683 154.025 401.507C153.897 401.33 153.82 401.121 153.802 400.903L152.152 375.35C152.136 375.134 152.181 374.919 152.282 374.728C152.383 374.537 152.536 374.378 152.724 374.271C152.888 374.176 153.074 374.126 153.263 374.126C153.452 374.126 153.638 374.176 153.802 374.271L181.761 387.862C181.985 387.969 182.168 388.144 182.285 388.363C182.403 388.581 182.447 388.832 182.412 389.077C182.377 389.322 182.265 389.55 182.091 389.728C181.918 389.905 181.693 390.022 181.448 390.062Z" fill="white" stroke="#EDEDED" stroke-width="2" stroke-linecap="round" stroke-linejoin="round"/>
<path d="M181.448 390.062L166.023 392.964C165.816 393.002 165.622 393.096 165.463 393.234L152.724 374.271C152.888 374.176 153.074 374.126 153.263 374.126C153.452 374.126 153.638 374.176 153.802 374.271L181.761 387.862C181.985 387.969 182.168 388.144 182.285 388.363C182.403 388.581 182.447 388.832 182.412 389.077C182.377 389.322 182.265 389.55 182.091 389.728C181.918 389.905 181.693 390.022 181.448 390.062Z" fill="#EDEDED" stroke="#EDEDED" stroke-width="2" stroke-linecap="round" stroke-linejoin="round"/>
<mask id="mask0_89_2903" style="mask-type:luminance" maskUnits="userSpaceOnUse" x="1" y="64" width="230" height="179">
<path d="M230.602 81.0824V242.104H1V81.0824C0.998586 78.9497 1.41744 76.8375 2.23263 74.8667C3.04782 72.8959 4.24336 71.105 5.75095 69.5965C7.25853 68.0879 9.04859 66.8911 11.0189 66.0746C12.9891 65.2581 15.101 64.8379 17.2338 64.8379H214.369C216.501 64.8379 218.613 65.2581 220.583 66.0746C222.554 66.8911 224.344 68.0879 225.851 69.5965C227.359 71.105 228.555 72.8959 229.37 74.8667C230.185 76.8375 230.604 78.9497 230.602 81.0824Z" fill="white"/>
</mask>
<g mask="url(#mask0_89_2903)">
<path d="M182.581 238.026C187.521 240.507 193.917 235.869 201.026 229.591L193.324 222.688C193.324 222.688 181.243 233.949 182.581 238.026Z" fill="#A7CAF0"/>
<path d="M248.432 208.331L230.602 244.671H193.097L186.852 227.218L208.08 208.331H248.432Z" fill="#FEBD9D"/>
<path d="M219.374 208.331L201.813 235.772" stroke="#EF8A66" stroke-width="0.75" stroke-linecap="round" stroke-linejoin="round"/>
<path d="M212.686 211.168C199.969 218.427 182.581 238.026 182.581 238.026L177.91 247.302L175.192 252.696H82.924C80.7666 244.919 78.9114 234.79 77.5307 226.581C76.452 220.228 75.7617 215.029 75.4813 212.99L75.3626 212.074C73.0111 214.155 71.8678 214.231 71.8678 214.231L67.5531 225.632L67.154 226.711C51.8371 216.464 23.8137 214.652 23.8137 214.652L27.5782 201.934C26.4472 199.32 26.1314 196.425 26.6721 193.629C27.287 190.447 35.7221 175.691 44.2219 163.308C47.5732 158.27 51.2902 153.486 55.3428 148.994C55.6772 148.649 56.0223 148.314 56.3675 148.002C66.6255 138.563 83.6251 139.933 94.7999 140.947C96.4611 141.098 98.0359 141.206 99.5029 141.271C102.805 141.444 106.114 141.444 109.416 141.271C112.123 141.131 113.612 140.926 113.612 140.926C113.957 139.351 114.28 137.69 114.604 135.867C116.621 124.077 117.754 108.339 115.952 97.9951L144.343 110.669C144.828 115.825 146.726 127.14 148.032 134.583C148.765 138.747 149.294 141.702 149.294 141.702C151.58 141.282 153.738 140.904 155.765 140.559C184.587 135.673 192.008 137.506 199.99 151.561C200.206 151.928 200.411 152.316 200.627 152.726C205.545 162.434 208.9 181.85 210.766 195.57C212.093 204.588 212.686 211.168 212.686 211.168Z" fill="#C3DCF8"/>
<path d="M212.686 211.167C200.217 218.297 183.228 237.303 182.592 238.004C182.818 237.53 186.529 229.85 186.906 227.218C187.284 224.586 185.968 216.798 183.929 209.474L210.895 195.613C212.093 204.588 212.686 211.167 212.686 211.167Z" fill="#C3DCF8"/>
<path d="M116.664 215.364C116.459 225.698 92.2541 227.154 77.5629 226.582C76.4842 220.229 75.7939 215.03 75.5134 212.991L75.3948 212.074C80.7336 206.658 85.1465 200.401 88.4573 193.554C97.0865 199.443 86.0195 205.494 85.5989 208.331C84.4555 216.108 116.955 200.608 116.664 215.364Z" fill="#A7CAF0"/>
<path d="M200.735 152.77C192.321 149.847 182.872 149.944 176.325 160.396C161.579 183.932 133.901 202.291 106.212 174.505C102.426 170.604 98.2839 167.065 93.84 163.934C77.4768 152.737 63.6377 155.003 44.2866 163.297C47.638 158.26 51.3549 153.476 55.4075 148.984C55.7419 148.638 56.0871 148.304 56.4323 147.991C66.6903 138.553 83.6899 139.923 94.8647 140.937C96.5258 141.088 98.1007 141.196 99.5676 141.26C102.87 141.434 106.178 141.434 109.48 141.26C112.188 141.12 113.676 140.915 113.676 140.915C114.022 139.34 114.345 137.679 114.669 135.856C116.686 124.067 117.818 108.329 116.017 97.9849L144.407 110.659C144.893 115.815 146.791 127.13 148.096 134.573C148.83 138.736 149.358 141.692 149.358 141.692C151.645 141.271 153.802 140.894 155.83 140.549C184.652 135.662 192.073 137.496 200.055 151.551C200.314 151.972 200.519 152.36 200.735 152.77Z" fill="#D0E5F7"/>
<path d="M155.873 140.603C155.787 147.894 155 161.183 151.828 170.578C147.729 182.767 142.897 177.816 137.59 173.005C132.79 168.626 115.294 154.053 99.5784 141.293C102.88 141.467 106.189 141.467 109.491 141.293C112.199 141.153 113.687 140.948 113.687 140.948C114.032 139.373 114.356 137.712 114.68 135.889C126.081 135.145 139.758 134.411 148.118 134.605C148.851 138.769 149.38 141.724 149.38 141.724C151.645 141.282 153.802 140.948 155.873 140.603Z" fill="#83ADDF"/>
<path d="M144.698 168.475C144.698 168.475 120.407 151.95 109.491 141.282C112.199 141.142 113.687 140.937 113.687 140.937C116.287 128.996 118.099 109.925 116.028 98.0063L134.484 106.236L144.418 110.681C144.774 114.488 145.917 121.715 147.007 128.209C148.215 135.393 149.369 141.713 149.369 141.713C150.254 162.661 144.698 168.475 144.698 168.475Z" fill="#FEBD9D"/>
<path d="M182.581 238.026C182.807 237.552 186.518 229.872 186.895 227.24C187.273 224.608 185.957 216.82 183.918 209.496C183.81 209.118 183.703 208.73 183.584 208.353" stroke="#83ADDF" stroke-width="0.75" stroke-linecap="round" stroke-linejoin="round"/>
<path d="M146.996 128.241C127.828 129.417 129.985 108.815 130.147 108.297L134.462 106.269L144.396 110.713C144.763 114.521 145.906 121.748 146.996 128.241Z" fill="#F4A789"/>
<path d="M23.8783 214.631C23.339 216.216 23.339 217.942 35.366 221.329L37.2213 213.444C37.2213 213.444 26.2837 210.489 23.8783 214.631Z" fill="#A7CAF0"/>
<path d="M30.469 210.478C27.6429 219.69 17.784 250.539 17.784 250.539C15.1089 261.854 48.6659 269.243 60.6066 250.021L67.1756 219.075C56.3195 212.01 43.333 208.969 30.469 210.478Z" fill="#FEBD9D"/>
<path d="M85.6421 198.764C85.6003 198.825 85.5642 198.89 85.5343 198.958C84.1104 201.234 82.5248 203.553 80.799 205.948L80.6803 206.109C79.0622 208.22 77.2959 210.214 75.3949 212.074C73.0434 214.156 71.9001 214.232 71.9001 214.232L67.2187 226.69C66.7441 226.377 66.2587 226.064 65.7517 225.762C57.2088 220.585 45.4515 217.737 36.6281 216.227C33.7265 215.731 31.1377 215.386 29.0775 215.148C25.9063 214.771 23.9431 214.642 23.9431 214.642L27.7076 201.924C26.5766 199.31 26.2608 196.415 26.8015 193.619C27.4164 190.437 35.8515 175.681 44.3512 163.298C47.7026 158.26 51.4196 153.476 55.4722 148.984C55.8066 148.639 56.1517 148.304 56.4969 147.991C71.0371 141.185 89.9352 142.857 93.6565 162.478C93.7536 162.963 93.8399 163.449 93.9046 163.934C95.9756 176.996 92.7505 187.362 85.6421 198.764Z" fill="#C3DCF8"/>
<path d="M93.84 163.934C77.4768 152.738 63.6377 155.003 44.2866 163.298C47.638 158.26 51.3549 153.476 55.4075 148.984C55.7419 148.639 56.0871 148.304 56.4323 147.991C70.9725 141.185 89.8705 142.857 93.5919 162.478C93.689 162.996 93.7753 163.481 93.84 163.934Z" fill="#D0E5F7"/>
<path d="M33.6184 204.621C43.747 204.621 53.649 208.763 55.3209 209.55" stroke="#83ADDF" stroke-width="0.75" stroke-linecap="round" stroke-linejoin="round"/>
<path d="M75.3948 212.074C77.2958 210.213 79.062 208.22 80.6802 206.109L80.7988 205.947C82.5038 203.706 84.0846 201.372 85.5341 198.957C85.564 198.89 85.6001 198.825 85.642 198.763C86.7854 196.833 87.7346 195.053 88.4573 193.553C89.0505 192.388 89.482 191.396 89.784 190.663" stroke="#83ADDF" stroke-width="0.75" stroke-linecap="round" stroke-linejoin="round"/>
<path d="M163.079 203.067C163.467 208.169 160.468 209.475 160.468 209.475C160.878 221.879 157.232 227.812 151.17 229.387C145.108 230.961 129.446 234.284 129.446 234.284C127.823 234.944 126.257 235.738 124.765 236.657C123.017 237.649 120.849 238.922 118.293 240.432C110.505 244.984 98.2407 249.234 83.6681 256.914C57.8451 270.526 39.4433 263.148 38.2136 248.705C35.9916 222.267 69.5701 220.542 81.8344 218.503C90.7225 217.014 104.486 213.487 113.018 211.513C116.254 210.78 118.681 210.262 119.825 210.154C123.923 209.787 132.423 205.3 147.341 200.608C162.259 195.916 174.307 193.198 174.307 196.488C174.307 199.777 163.079 203.067 163.079 203.067Z" fill="#FEBD9D"/>
<path d="M147.363 200.608C162.27 195.894 174.329 193.197 174.329 196.487C174.329 199.777 163.035 203.1 163.035 203.1C163.424 208.202 160.425 209.507 160.425 209.507C160.835 221.911 157.189 227.844 151.127 229.419" stroke="#EF8A66" stroke-width="0.75" stroke-linecap="round" stroke-linejoin="round"/>
<path d="M44.4697 230.81C50.9417 224.543 61.3075 221.836 70.0662 220.304" stroke="#EF8A66" stroke-width="0.75" stroke-linecap="round" stroke-linejoin="round"/>
<path d="M124.765 236.656C123.017 237.649 120.849 238.922 118.293 240.432C112.285 233.733 109.168 223.357 113.018 211.481C116.254 210.747 118.681 210.229 119.825 210.122C117.042 217.726 116.524 230.131 124.765 236.656Z" fill="#683F1D"/>
<path d="M163.078 203.067L153.856 206.055" stroke="#EF8A66" stroke-width="0.75" stroke-linecap="round" stroke-linejoin="round"/>
<path d="M160.468 209.474L154.795 211.534" stroke="#EF8A66" stroke-width="0.75" stroke-linecap="round" stroke-linejoin="round"/>
<path d="M155.409 217.489L160.242 216.173" stroke="#EF8A66" stroke-width="0.75" stroke-linecap="round" stroke-linejoin="round"/>
<path d="M122.586 225.417C122.586 226.96 122.128 228.468 121.272 229.75C120.415 231.033 119.197 232.032 117.772 232.622C116.347 233.213 114.779 233.367 113.266 233.066C111.753 232.765 110.363 232.023 109.273 230.932C108.182 229.841 107.439 228.452 107.138 226.939C106.837 225.426 106.992 223.858 107.582 222.433C108.172 221.008 109.172 219.79 110.454 218.933C111.737 218.076 113.245 217.619 114.787 217.619C116.856 217.619 118.839 218.44 120.302 219.903C121.764 221.365 122.586 223.349 122.586 225.417Z" fill="white" stroke="#683F1D" stroke-linecap="round" stroke-linejoin="round"/>
</g>
<path d="M230.602 81.0824V242.104H1V81.0824C0.998586 78.9497 1.41744 76.8375 2.23263 74.8667C3.04782 72.8959 4.24336 71.105 5.75095 69.5965C7.25853 68.0879 9.04859 66.8911 11.0189 66.0746C12.9891 65.2581 15.101 64.8379 17.2338 64.8379H214.369C216.501 64.8379 218.613 65.2581 220.583 66.0746C222.554 66.8911 224.344 68.0879 225.851 69.5965C227.359 71.105 228.555 72.8959 229.37 74.8667C230.185 76.8375 230.604 78.9497 230.602 81.0824Z" stroke="#DDDDDD" stroke-width="2" stroke-linecap="round" stroke-linejoin="round"/>
<path d="M230.602 81.0824V81.8051H1V81.0824C0.998586 78.9497 1.41744 76.8375 2.23263 74.8667C3.04782 72.8959 4.24336 71.105 5.75095 69.5965C7.25853 68.0879 9.04859 66.8911 11.0189 66.0746C12.9891 65.2581 15.101 64.8379 17.2338 64.8379H214.369C216.501 64.8379 218.613 65.2581 220.583 66.0746C222.554 66.8911 224.344 68.0879 225.851 69.5965C227.359 71.105 228.555 72.8959 229.37 74.8667C230.185 76.8375 230.604 78.9497 230.602 81.0824Z" stroke="#DDDDDD" stroke-width="2" stroke-linecap="round" stroke-linejoin="round"/>
<path d="M199.526 73.3266C199.526 73.9112 199.353 74.4826 199.028 74.9686C198.703 75.4546 198.242 75.8335 197.702 76.0572C197.162 76.2808 196.567 76.3394 195.994 76.2253C195.421 76.1113 194.894 75.8298 194.481 75.4165C194.068 75.0031 193.786 74.4765 193.672 73.9032C193.558 73.3299 193.617 72.7356 193.84 72.1956C194.064 71.6555 194.443 71.1939 194.929 70.8692C195.415 70.5444 195.986 70.3711 196.571 70.3711C196.959 70.3711 197.343 70.4475 197.702 70.5961C198.06 70.7446 198.386 70.9623 198.661 71.2368C198.935 71.5112 199.153 71.837 199.301 72.1956C199.45 72.5542 199.526 72.9385 199.526 73.3266Z" fill="#DDDDDD"/>
<path d="M206.203 76.2821C207.835 76.2821 209.159 74.9589 209.159 73.3266C209.159 71.6943 207.835 70.3711 206.203 70.3711C204.571 70.3711 203.248 71.6943 203.248 73.3266C203.248 74.9589 204.571 76.2821 206.203 76.2821Z" fill="#EDEDED"/>
<path d="M218.791 73.3266C218.791 73.9116 218.617 74.4835 218.292 74.9697C217.967 75.456 217.505 75.8348 216.964 76.0582C216.423 76.2816 215.828 76.3395 215.255 76.2245C214.681 76.1096 214.155 75.8271 213.742 75.4127C213.329 74.9982 213.048 74.4706 212.935 73.8966C212.823 73.3226 212.883 72.728 213.108 72.1881C213.333 71.6483 213.714 71.1874 214.201 70.864C214.689 70.5405 215.261 70.369 215.846 70.3711C216.234 70.3711 216.618 70.4476 216.976 70.5963C217.334 70.745 217.659 70.9628 217.932 71.2374C218.206 71.512 218.423 71.8379 218.57 72.1964C218.717 72.5549 218.792 72.939 218.791 73.3266Z" fill="#DDDDDD"/>
<path d="M174.89 214.523C178.579 210.607 184.738 210.122 184.738 210.122L191.868 217.489C191.868 217.489 193.896 195.733 184.738 165.886C183.001 180.459 177.64 203.909 174.89 214.523Z" fill="#DDDDDD" stroke="#DDDDDD" stroke-linecap="round" stroke-linejoin="round"/>
<path d="M245.24 161.463C255.541 194.147 255.045 217.489 255.045 217.489H191.868C191.868 217.489 183.357 185.054 184.738 165.886C184.738 165.886 183.541 161.366 187.499 160.967C191.458 160.568 245.24 161.463 245.24 161.463Z" fill="#F9F9F9" stroke="#DDDDDD" stroke-linecap="round" stroke-linejoin="round"/>
<path d="M194.618 161.14C194.613 161.051 194.613 160.961 194.618 160.871C194.71 159.998 195.053 159.17 195.605 158.488C196.157 157.806 196.896 157.298 197.73 157.027C198.565 156.755 199.461 156.732 200.309 156.959C201.157 157.186 201.921 157.653 202.508 158.305C203.096 158.958 203.482 159.766 203.619 160.633C203.757 161.5 203.641 162.388 203.284 163.19C202.928 163.992 202.346 164.674 201.61 165.152C200.874 165.631 200.016 165.886 199.138 165.886" stroke="#EDEDED" stroke-linecap="round" stroke-linejoin="round"/>
<path d="M226.719 161.14C226.835 160.276 227.198 159.463 227.763 158.799C228.329 158.136 229.073 157.649 229.908 157.397C230.743 157.145 231.633 157.139 232.471 157.379C233.309 157.619 234.061 158.096 234.635 158.751C235.21 159.407 235.584 160.215 235.712 161.077C235.84 161.94 235.717 162.821 235.358 163.616C234.998 164.41 234.418 165.084 233.685 165.558C232.953 166.031 232.1 166.284 231.228 166.285C230.47 166.284 229.726 166.083 229.071 165.703" stroke="#EDEDED" stroke-linecap="round" stroke-linejoin="round"/>
<path d="M207.508 160.946C207.558 159.763 208.048 158.641 208.882 157.801C209.716 156.961 210.835 156.463 212.017 156.405C213.262 156.534 214.415 157.12 215.253 158.049C216.091 158.978 216.554 160.185 216.554 161.437C216.554 162.688 216.091 163.895 215.253 164.824C214.415 165.754 213.262 166.34 212.017 166.469C211 166.452 210.023 166.069 209.267 165.39" stroke="#EDEDED" stroke-linecap="round" stroke-linejoin="round"/>
<path d="M217.13 161.054C217.244 160.191 217.604 159.379 218.167 158.715C218.731 158.052 219.473 157.565 220.306 157.312C221.139 157.059 222.027 157.052 222.864 157.29C223.701 157.529 224.451 158.004 225.026 158.658C225.6 159.312 225.974 160.118 226.102 160.979C226.23 161.84 226.108 162.719 225.75 163.513C225.391 164.306 224.812 164.979 224.081 165.452C223.35 165.924 222.498 166.176 221.628 166.177" stroke="#EDEDED" stroke-linecap="round" stroke-linejoin="round"/>
<path d="M241.853 171.97H197.585V177.029H241.853V171.97Z" stroke="#DDDDDD" stroke-linecap="round" stroke-linejoin="round"/>
<path d="M208.555 211.977L207.994 207.716L205.146 185.787L204.671 182.185" stroke="#EDEDED" stroke-linecap="round" stroke-linejoin="round"/>
<path d="M222.922 211.977L222.329 207.414L219.546 186.068L219.039 182.185" stroke="#EDEDED" stroke-linecap="round" stroke-linejoin="round"/>
<path d="M233.417 182.174L237.29 211.988" stroke="#EDEDED" stroke-linecap="round" stroke-linejoin="round"/>
<path d="M242.327 188.139H219.816H205.448H199.149" stroke="#EDEDED" stroke-linecap="round" stroke-linejoin="round"/>
<path d="M244.517 201.159H221.509H207.142H201.328" stroke="#EDEDED" stroke-linecap="round" stroke-linejoin="round"/>
<path d="M209.547 183.209C202.406 186.855 198.965 202.054 211.079 203.067C228.93 204.556 229.782 182.573 214.142 184.644" fill="#F9F9F9"/>
<path d="M209.547 183.209C202.406 186.855 198.965 202.054 211.079 203.067C228.93 204.556 229.782 182.573 214.142 184.644" stroke="#DDDDDD" stroke-width="2" stroke-linecap="round" stroke-linejoin="round"/>
<path d="M221.509 201.158H207.142L205.448 188.139H219.816L221.509 201.158Z" fill="#EDEDED"/>
<path d="M247.321 199.195C247.623 204.146 257.029 198.698 256.382 194.362C255.735 190.026 246.965 193.456 247.321 199.195Z" fill="#FEBD9D" stroke="#EF8A66" stroke-width="0.75" stroke-linecap="round" stroke-linejoin="round"/>
<path d="M245.725 192.529C246.07 197.491 256.663 192.044 255.972 187.697C255.282 183.35 245.326 186.802 245.725 192.529Z" fill="#FEBD9D" stroke="#EF8A66" stroke-width="0.75" stroke-linecap="round" stroke-linejoin="round"/>
<path d="M244.981 187.556C245.347 192.507 256.706 187.06 255.961 182.724C255.217 178.388 244.56 181.818 244.981 187.556Z" fill="#FEBD9D" stroke="#EF8A66" stroke-width="0.75" stroke-linecap="round" stroke-linejoin="round"/>
<path d="M243.384 181.419C243.762 185.917 255.476 180.976 254.71 177.039C253.944 173.102 242.942 176.219 243.384 181.419Z" fill="#FEBD9D" stroke="#EF8A66" stroke-width="0.75" stroke-linecap="round" stroke-linejoin="round"/>
<path d="M209.547 183.209C202.406 186.855 198.965 202.054 211.079 203.067C228.93 204.556 229.782 182.573 214.142 184.644" stroke="#DDDDDD" stroke-width="2" stroke-linecap="round" stroke-linejoin="round"/>
<path d="M166.919 67.7824C165.98 75.581 155.55 80.1545 155.55 80.1545L126.609 105.417C123.643 110.152 115.564 112.536 110.645 108.577C107.765 106.269 105.975 101.792 106.946 94.3388C106.14 94.3391 105.353 94.1028 104.68 93.6593C101.347 91.599 99.2871 85.03 104.292 77.2314C103.936 77.5765 97.27 84.0593 90.4098 82.0961C89.23 81.7809 88.1306 81.2189 87.1841 80.4473C86.2376 79.6756 85.4658 78.7118 84.9194 77.6197C82.7621 73.208 83.5172 65.8516 89.6763 55.7662C94.0557 48.5715 100.15 47.2771 105.371 48.6255C111.282 50.1356 116.071 54.9895 116.071 58.5167C117.375 56.9162 118.888 55.4977 120.569 54.2992C122.877 52.692 125.736 51.6025 128.292 53.1558C128.292 53.1558 137.288 48.3126 142.401 51.3437C148.765 55.0974 147.363 57.7077 153.554 58.1176C158.16 58.4196 165.419 59.5846 166.746 64.8053C166.999 65.7767 167.057 66.7883 166.919 67.7824Z" fill="#DD6819"/>
<path d="M116.071 58.5169L104.313 77.21C103.474 77.9956 102.576 78.7168 101.628 79.3673C98.985 81.201 94.7566 83.2936 90.442 82.0639C89.2622 81.7487 88.1628 81.1867 87.2163 80.415C86.2699 79.6434 85.498 78.6796 84.9517 77.5875C98.3485 77.307 103.062 73.5641 100.312 66.1969C97.7553 59.3366 95.1018 50.7182 105.403 48.5933C109.433 49.5968 112.935 52.0856 115.208 55.5614C115.744 56.4562 116.041 57.474 116.071 58.5169Z" fill="#CC5E0D"/>
<path d="M166.919 67.7821C165.98 75.5808 155.55 80.1543 155.55 80.1543L126.609 105.416C123.643 110.152 115.564 112.535 110.645 108.577C108.944 104.498 108.527 99.9974 109.448 95.6751C110.369 91.3528 112.585 87.4137 115.801 84.3826C121.734 78.9893 117.387 74.9659 117.959 67.8684C118.53 60.7708 131.517 49.8441 140.815 59.649C148.107 67.3399 161.827 58.0419 166.8 64.805C167.035 65.78 167.075 66.7916 166.919 67.7821Z" fill="#CC5E0D"/>
<path d="M149.175 119.396C136.166 118.059 122.963 104.565 122.963 104.565C118.002 110.217 108.218 101.771 113.061 94.7383C116.233 90.1109 121.194 92.8615 122.403 95.3855C124.415 94.086 125.891 92.1036 126.559 89.8028C127.227 87.5021 127.042 85.0375 126.038 82.8623C124.973 80.1917 124.512 77.3185 124.689 74.4488C129.09 67.7612 140.761 66.2295 140.761 66.2295C142.486 68.0483 144.585 69.4721 146.912 70.4031C149.24 71.3341 151.741 71.7502 154.244 71.6228C154.244 71.6228 158.246 79.443 161.504 87.3927C161.568 87.5653 161.655 87.7594 161.72 87.932C162.636 90.1972 163.488 92.4624 164.157 94.5334C164.222 94.7383 164.276 94.9217 164.341 95.1159C164.876 96.7515 165.273 98.4294 165.527 100.132C166.573 108.685 162.173 120.788 149.175 119.396Z" fill="#FEBD9D"/>
<path d="M154.579 83.8217C154.579 84.099 154.661 84.3701 154.815 84.6007C154.969 84.8313 155.188 85.0111 155.444 85.1172C155.701 85.2233 155.983 85.2511 156.255 85.197C156.527 85.1429 156.777 85.0093 156.973 84.8132C157.169 84.6171 157.302 84.3673 157.356 84.0953C157.411 83.8232 157.383 83.5413 157.277 83.2851C157.171 83.0288 156.991 82.8098 156.76 82.6558C156.53 82.5017 156.258 82.4194 155.981 82.4194C155.61 82.4223 155.255 82.5709 154.993 82.8333C154.73 83.0956 154.582 83.4507 154.579 83.8217Z" fill="#683F1D"/>
<path d="M147.363 86.637C148.137 86.637 148.765 86.0092 148.765 85.2348C148.765 84.4603 148.137 83.8325 147.363 83.8325C146.588 83.8325 145.96 84.4603 145.96 85.2348C145.96 86.0092 146.588 86.637 147.363 86.637Z" fill="#683F1D"/>
<path d="M145.712 94.7271C148.523 96.1365 151.641 96.8224 154.784 96.7226C154.784 96.7226 154.18 101.976 149.671 100.573C145.734 99.3545 145.712 94.7271 145.712 94.7271Z" fill="white" stroke="#EF8A66" stroke-width="0.75" stroke-linecap="round" stroke-linejoin="round"/>
<path d="M141.268 81.1147C141.786 82.8405 148.269 81.1146 147.557 78.3101C146.845 75.5056 140.524 78.72 141.268 81.1147Z" fill="#DD6819"/>
<path d="M152.281 77.6414C152.184 79.5182 158.818 79.6477 158.818 78.0297C158.818 76.5627 152.454 74.6103 152.281 77.6414Z" fill="#DD6819"/>
<path d="M106.945 94.3387C107.749 89.0302 110.317 84.1473 114.237 80.478" stroke="#FF79A0" stroke-width="0.75" stroke-linecap="round" stroke-linejoin="round"/>
<path d="M128.292 53.1455C126.253 54.7743 123.201 60.0705 122.014 62.4543" stroke="#FF79A0" stroke-width="0.75" stroke-linecap="round" stroke-linejoin="round"/>
<path d="M126.48 67.7932C128.885 61.386 133.513 58.4952 135.681 60.9546C137.849 63.4139 140.761 66.2184 140.761 66.2184" stroke="#FF79A0" stroke-width="0.75" stroke-linecap="round" stroke-linejoin="round"/>
<path d="M154.244 71.6765C156.941 71.5687 159.508 68.8181 160.285 67.2217" stroke="#FF79A0" stroke-width="0.75" stroke-linecap="round" stroke-linejoin="round"/>
<path d="M100.279 76.0556C90.3342 77.6089 85.4263 62.8853 93.5054 51.2466" stroke="#FF79A0" stroke-width="0.75" stroke-linecap="round" stroke-linejoin="round"/>
<path d="M110.246 62.4537C112.328 57.0604 105.381 48.3557 101.617 54.3314C97.3022 61.1701 103.602 70.2416 110.246 69.4326" stroke="#FF79A0" stroke-width="0.75" stroke-linecap="round" stroke-linejoin="round"/>
<path d="M104.313 77.2102C106.695 70.1348 110.725 63.7274 116.071 58.5171C116.071 58.5171 113.051 64.6438 115.262 69.0016C111.424 71.4767 107.765 74.2197 104.313 77.2102Z" fill="#FFB63F"/>
<path d="M114.237 99.3548C116.243 95.806 119.727 96.0001 121.561 98.988" stroke="#EF8A66" stroke-width="0.75" stroke-linecap="round" stroke-linejoin="round"/>
<path d="M120.828 98.0387C116.696 96.96 116.686 102.504 121.076 101.717" stroke="#EF8A66" stroke-width="0.75" stroke-linecap="round" stroke-linejoin="round"/>
<path d="M150.836 82.8081C150.771 86.0441 153.36 87.8994 155.064 88.7946C156.769 89.6899 156.208 92.0306 156.089 92.3758" stroke="#EF8A66" stroke-width="0.75" stroke-linecap="round" stroke-linejoin="round"/>
<path d="M122.974 104.608C123.636 103.753 124.187 102.818 124.614 101.825" stroke="#EF8A66" stroke-width="0.75" stroke-linecap="round" stroke-linejoin="round"/>
<path d="M141.657 93.6703C140.578 95.7197 137.266 96.0973 134.106 94.5332C130.945 92.9692 129.295 90.0244 130.331 87.975C131.366 85.9256 134.721 85.548 137.881 87.1229C141.042 88.6977 142.692 91.664 141.657 93.6703Z" fill="#F4AF90"/>
<path d="M164.341 95.1587C163.664 95.4716 162.913 95.5859 162.174 95.4886C161.435 95.3912 160.739 95.086 160.166 94.6086C158.602 93.0445 159.195 89.8733 161.504 87.4355C161.568 87.6081 161.655 87.8023 161.72 87.9749C162.636 90.24 163.488 92.5052 164.157 94.5762C164.222 94.7812 164.276 94.9646 164.341 95.1587Z" fill="#F4AF90"/>
<path d="M548.504 43.5995V204.621H318.944V43.5995C318.944 39.2912 320.656 35.1593 323.702 32.1129C326.749 29.0665 330.881 27.355 335.189 27.355H532.324C536.622 27.3693 540.739 29.0874 543.772 32.1326C546.805 35.1778 548.506 39.3015 548.504 43.5995Z" stroke="#EDEDED" stroke-width="2" stroke-linecap="round" stroke-linejoin="round"/>
<path d="M548.504 43.5995V44.3222H318.944V43.5995C318.944 39.2912 320.656 35.1593 323.702 32.1129C326.749 29.0665 330.881 27.355 335.189 27.355H532.324C536.622 27.3693 540.739 29.0874 543.772 32.1326C546.805 35.1778 548.506 39.3015 548.504 43.5995Z" stroke="#DDDDDD" stroke-width="2" stroke-linecap="round" stroke-linejoin="round"/>
<path d="M517.471 35.8437C517.471 36.4287 517.297 37.0006 516.972 37.4868C516.647 37.9731 516.185 38.3519 515.644 38.5753C515.103 38.7987 514.508 38.8565 513.935 38.7416C513.361 38.6267 512.835 38.3442 512.422 37.9297C512.009 37.5153 511.728 36.9877 511.615 36.4137C511.502 35.8397 511.563 35.2451 511.788 34.7052C512.013 34.1653 512.394 33.7045 512.881 33.3811C513.369 33.0576 513.941 32.8861 514.526 32.8882C514.914 32.8882 515.298 32.9647 515.656 33.1134C516.013 33.2621 516.339 33.4799 516.612 33.7545C516.886 34.0291 517.102 34.355 517.25 34.7135C517.397 35.072 517.472 35.4561 517.471 35.8437Z" fill="#EDEDED"/>
<path d="M527.114 35.8437C527.114 36.4282 526.941 36.9997 526.616 37.4857C526.291 37.9717 525.829 38.3505 525.289 38.5742C524.749 38.7979 524.155 38.8565 523.582 38.7424C523.008 38.6284 522.482 38.3469 522.069 37.9336C521.655 37.5202 521.374 36.9936 521.26 36.4203C521.146 35.847 521.204 35.2527 521.428 34.7127C521.652 34.1726 522.03 33.711 522.516 33.3863C523.002 33.0615 523.574 32.8882 524.158 32.8882C524.942 32.8882 525.694 33.1996 526.248 33.7538C526.803 34.3081 527.114 35.0599 527.114 35.8437Z" fill="#DDDDDD"/>
<path d="M536.746 35.8437C536.746 36.4282 536.573 36.9997 536.248 37.4857C535.923 37.9717 535.462 38.3505 534.922 38.5742C534.382 38.7979 533.787 38.8565 533.214 38.7424C532.641 38.6284 532.114 38.3469 531.701 37.9336C531.288 37.5202 531.006 36.9936 530.892 36.4203C530.778 35.847 530.836 35.2527 531.06 34.7127C531.284 34.1726 531.663 33.711 532.149 33.3863C532.635 33.0615 533.206 32.8882 533.791 32.8882C534.575 32.8882 535.326 33.1996 535.881 33.7538C536.435 34.3081 536.746 35.0599 536.746 35.8437Z" fill="#EDEDED"/>
<path d="M323.842 113.604C323.248 106.874 352.965 94.1131 357.873 103.961L348.165 113.604C348.165 113.604 328.113 121.554 323.842 113.604Z" fill="#93BEE5"/>
<path d="M338.382 65.4637C334.067 52.0452 333.744 50.3625 336.634 49.3594C339.525 48.3562 346.849 63.5976 347.68 65.4637C350.582 71.3372 352.817 77.5167 354.346 83.8871C355.629 89.8413 357.312 103.551 357.582 106.852C358.725 120.788 335.75 125.027 334.747 114.187C333.744 103.346 333.668 99.8404 333.668 99.8404C333.668 99.8404 321.803 100.919 320.142 92.0957C318.481 83.2723 318.944 71.1698 318.944 71.1698C318.944 71.1698 300.909 68.1819 301.535 63.425C302.161 58.6682 337.454 68.279 337.454 68.279L338.382 65.4637Z" fill="#B25E47"/>
<path d="M318.944 71.1696C318.944 71.1696 300.909 68.1818 301.535 63.4249C302.161 58.668 337.454 68.2789 337.454 68.2789L338.382 65.4959C334.067 52.0775 333.744 50.3948 336.634 49.3916C339.525 48.3885 346.849 63.6299 347.68 65.4959" stroke="#934735" stroke-width="0.75" stroke-linecap="round" stroke-linejoin="round"/>
<path d="M337.454 68.2466C335.905 74.193 336.152 80.4652 338.166 86.2709" stroke="#934735" stroke-width="0.75" stroke-linecap="round" stroke-linejoin="round"/>
<path d="M329.008 57.9562C331.834 59.4232 334.067 59.736 334.909 55.7018C335.75 51.6677 331.77 51.5706 330.486 51.7863C328.512 52.1099 327.79 57.3198 329.008 57.9562Z" fill="#683F1D"/>
<path d="M329.537 56.9204C329.094 58.4932 328.733 60.0882 328.458 61.6989C328.922 61.9362 331.694 62.8746 332.061 61.9362C332.484 60.289 332.783 58.6124 332.956 56.9204H329.537Z" fill="#683F1D"/>
<path d="M327.013 63.0366C325.535 69.6487 317.898 105.892 317.639 107.078C317.38 108.265 317.726 113.744 318.189 113.949C318.653 114.154 321.317 110.239 322.288 108.254C323.259 106.269 331.845 66.4991 332.374 64.6438C333.69 60.1242 327.984 58.7112 327.013 63.0366Z" fill="#683F1D"/>
<path d="M320.293 83.6068C316.593 84.459 315.547 87.9862 318.276 90.3269C321.209 92.8509 328.436 91.7291 328.771 88.5039C329.105 85.2788 323.378 82.9057 320.293 83.6068Z" fill="#B25E47" stroke="#934735" stroke-width="0.75" stroke-linecap="round" stroke-linejoin="round"/>
<path d="M319.958 77.8252C316.161 77.2643 315.234 81.0611 317.941 83.9735C320.649 86.8859 329.591 87.5438 330.098 84.0814C330.605 80.6189 322.288 78.1703 319.958 77.8252Z" fill="#B25E47" stroke="#934735" stroke-width="0.75" stroke-linecap="round" stroke-linejoin="round"/>
<path d="M316.593 71.3423C321.36 70.2637 331.694 77.221 331.273 79.3891C330.766 82.1181 325.88 82.528 318.998 79.6048C312.537 76.865 314.263 71.8924 316.593 71.3423Z" fill="#B25E47" stroke="#934735" stroke-width="0.75" stroke-linecap="round" stroke-linejoin="round"/>
<mask id="mask1_89_2903" style="mask-type:luminance" maskUnits="userSpaceOnUse" x="318" y="27" width="231" height="178">
<path d="M548.504 43.5995V204.621H318.944V43.5995C318.944 39.2912 320.656 35.1593 323.702 32.1129C326.749 29.0665 330.881 27.355 335.189 27.355H532.324C536.622 27.3693 540.739 29.0874 543.772 32.1326C546.805 35.1778 548.506 39.3015 548.504 43.5995Z" fill="white"/>
</mask>
<g mask="url(#mask1_89_2903)">
<path d="M546.098 123.905C531.299 123.183 519.046 136.525 515.249 151.864C515.141 152.295 515.044 152.759 514.958 153.266C514.554 155.627 514.269 158.007 514.105 160.396C512.531 180.642 514.019 220.909 514.17 221.879C514.224 222.214 503.696 221.879 489.091 221.189C483.698 220.941 477.787 220.671 471.617 220.358C440.25 218.816 402.993 216.734 402.993 216.734L400.728 191.537C400.728 191.537 396.036 199.476 379.986 214.976C363.935 230.476 338.274 221.836 341.035 202.345C342.761 190.102 349.988 181.149 358.747 166.156C361.454 161.518 364.313 156.308 367.182 150.235C371.022 142.167 374.733 134.465 378.314 127.508C379.878 124.445 381.42 121.521 382.92 118.782C388.55 108.394 393.598 100.531 397.665 96.8526C409.886 85.7856 436.076 92.1604 443.054 94.404C453.451 97.7882 464.24 99.8219 475.155 100.455C490.634 101.534 514.138 108.211 526.585 112.547C533.765 114.957 540.373 118.816 546.001 123.884L546.098 123.905Z" fill="#A7CAF0"/>
<path d="M556.518 146.87C542.97 133.279 522.4 127.346 501.755 145.791C477.744 167.181 459.321 170.902 432.311 139.665C412.777 117.013 406.003 111.307 382.919 118.825C388.55 108.438 393.598 100.574 397.665 96.896C409.886 85.829 436.076 92.2039 443.054 94.4475C453.453 97.817 464.242 99.8362 475.155 100.456C490.634 101.534 514.138 108.211 526.585 112.547C533.765 114.958 540.373 118.816 546.001 123.884C551.416 128.155 554.576 136.698 556.518 146.87Z" fill="#C3DCF8"/>
<path d="M377.925 185.745C369.296 195.108 361.54 174.807 358.747 166.156C361.454 161.518 364.312 156.308 367.182 150.236C371.022 142.167 374.732 134.466 378.313 127.508C384.677 137.216 376.081 146.147 375.477 150.548C373.902 162.316 390.297 172.305 377.925 185.745Z" fill="#93BEE5"/>
<path d="M323.842 113.604C337.174 116.419 357.873 103.961 357.873 103.961C357.873 103.961 369.274 154.884 372.252 166.178C375.229 177.471 394.278 221.707 357.15 223.519C333.323 224.684 331.727 179.391 330.313 164.484C328.9 149.577 323.842 113.604 323.842 113.604Z" fill="#A7CAF0"/>
<path d="M332.676 119.429C342.934 120.152 354.356 113.249 354.356 113.249" stroke="#83ADDF" stroke-width="0.75" stroke-linecap="round" stroke-linejoin="round"/>
<path d="M357.873 103.961C357.873 103.961 369.274 154.884 372.252 166.178C373.88 172.337 380.287 188.301 379.748 201.838" stroke="#83ADDF" stroke-width="0.75" stroke-linecap="round" stroke-linejoin="round"/>
<path d="M432.311 102.656C438.956 114.985 456.581 126.84 477.852 110.476C477.852 110.476 480.139 103.681 479.901 103.681C479.664 103.681 435.32 98.2876 435.32 98.2876L432.311 102.656Z" fill="white"/>
<path d="M449.818 87.4256C444.338 86.1851 436.399 87.5766 430.92 95.9901C425.44 104.404 424.739 111.339 425.052 111.264C425.364 111.188 433.681 105.935 437.402 106.324C441.124 106.712 449.462 109.171 449.462 109.171L449.818 87.4256Z" fill="#FFB63F"/>
<path d="M474.508 89.8955C474.508 89.8955 486.621 89.971 488.239 98.46C489.857 106.949 485.391 117.132 479.912 121.834C474.432 126.537 477.442 115.039 457.767 109.646L474.508 89.8955Z" fill="#FFB63F"/>
<path d="M480.419 99.8192C480.419 99.8192 473.688 110.045 458.695 110.271C443.702 110.498 440.822 101.567 440.822 101.567C442.45 97.5109 444.403 88.8601 445.654 82.798C446.452 78.9688 446.97 76.1643 446.97 76.1643C446.97 76.1643 449.451 52.1535 475.188 53.5989L475.63 57.5359L480.419 99.8192Z" fill="#B25E47"/>
<path d="M445.654 83.0355C446.452 79.2171 446.97 76.4018 446.97 76.4018L461.618 69.5308C461.618 69.5308 463.937 86.2715 445.654 83.0355Z" fill="#914839"/>
<path d="M400.728 191.537C398.657 167.893 398.657 148.747 398.657 148.747" stroke="#83ADDF" stroke-width="0.75" stroke-linecap="round" stroke-linejoin="round"/>
</g>
<path d="M498.529 249.04C497.272 248.582 496.074 247.977 494.959 247.239C487.408 242.288 486.815 232.645 489.091 221.146C490.86 212.344 494.333 202.464 497.72 192.777C501.593 181.732 505.379 170.956 506.447 162.327C506.598 161.119 506.684 159.965 506.727 158.865C506.933 152.248 508.144 145.701 510.319 139.449C516.51 122.039 530.004 111.08 546.055 123.905C551.372 128.155 554.533 136.698 556.475 146.87C557.165 150.505 557.704 154.356 558.146 158.282C559.613 171.614 559.829 185.95 560.487 196.628C563.734 248.328 551.34 268.974 498.529 249.04Z" fill="#A7CAF0"/>
<path d="M556.518 146.87C544.858 135.177 527.977 129.148 510.341 139.427C516.532 122.018 530.026 111.059 546.077 123.884C551.416 128.155 554.576 136.698 556.518 146.87Z" fill="#C3DCF8"/>
<path d="M514.17 221.836C514.224 222.171 503.696 221.836 489.091 221.146C483.698 220.898 477.787 220.628 471.617 220.316C461.067 215.569 454.509 208.698 460.129 198.85C475.424 172.089 503.523 209.162 504.99 182.671C505.983 164.506 510.384 160.558 514.105 160.439C512.53 180.643 513.986 220.909 514.17 221.836Z" fill="#93BEE5"/>
<path d="M517.762 143.968C515.666 149.212 514.431 154.759 514.105 160.396C512.703 180.653 514.019 220.909 514.17 221.879" stroke="#83ADDF" stroke-width="0.75" stroke-linecap="round" stroke-linejoin="round"/>
<path d="M498.529 249.04C497.272 248.582 496.074 247.977 494.959 247.239C507.061 249.838 525.161 252.179 533.132 245.373C545.699 234.672 537.717 220.952 544.663 213.401C551.61 205.851 561.63 203.413 558.189 158.314C559.656 171.647 559.872 185.982 560.53 196.661C563.734 248.328 551.34 268.974 498.529 249.04Z" fill="#93BEE5"/>
<path d="M468.262 158.282C470.182 149.652 459.331 150.03 459.331 150.03C460.291 142.069 449.742 139.858 447.304 147.635C438.729 145.046 436.021 147.635 434.77 152.144L468.262 158.282Z" fill="#DDDDDD"/>
<path d="M453.636 150.861C455.048 150.861 456.192 149.716 456.192 148.304C456.192 146.893 455.048 145.748 453.636 145.748C452.224 145.748 451.08 146.893 451.08 148.304C451.08 149.716 452.224 150.861 453.636 150.861Z" fill="#F9F9F9" stroke="#DDDDDD" stroke-linecap="round" stroke-linejoin="round"/>
<path d="M418.483 145.737L402.475 232.536L466.03 245.372L483.105 158.454L418.483 145.737Z" fill="#F9F9F9" stroke="#DDDDDD" stroke-linecap="round" stroke-linejoin="round"/>
<path d="M438.06 203.25C434.824 211.696 434.63 220.574 436.119 223.54C436.119 223.54 442.181 224.673 448.243 208.223L438.06 203.25Z" fill="#93BEE5"/>
<path d="M446.29 186.92C431.75 181.926 424.804 178.905 422.182 178.194C419.561 177.482 410.091 176.683 408.581 178.194C407.071 179.704 406.963 181.624 407.502 183.587C408.041 185.55 406.423 187.071 406.197 189.099C405.97 191.127 408.408 191.741 407.912 193.759C407.416 195.776 405.755 197.987 406.898 200.23C408.041 202.474 405.819 204.761 407.912 207.479C410.004 210.197 431.448 211.513 436.151 210.51L445.384 214.641C445.384 214.641 461.629 197.955 446.29 186.92Z" fill="#B25E47"/>
<path d="M422.182 178.193C419.561 177.492 410.091 176.683 408.581 178.193C407.071 179.703 406.963 181.623 407.502 183.587C408.041 185.55 406.423 187.071 406.197 189.098C405.97 191.126 408.408 191.741 407.912 193.758C407.416 195.775 405.755 197.987 406.898 200.23C408.041 202.474 405.819 204.76 407.912 207.479" stroke="#934735" stroke-width="0.75" stroke-linecap="round" stroke-linejoin="round"/>
<path d="M533.144 245.361C529.357 252.2 519.887 255.49 501.863 250.064C497.009 248.597 492.327 247.077 487.84 245.534C480.419 242.988 473.57 240.389 467.432 237.897C456.738 233.646 446.269 228.851 436.065 223.53C438.775 220.541 440.963 217.117 442.537 213.401C443.518 211.202 444.325 208.93 444.953 206.605C446.628 200.182 447.078 193.5 446.28 186.909C448.728 187.643 451.36 188.398 454.132 189.153C460.831 190.987 468.338 192.885 475.943 194.88C498.734 200.889 522.443 207.77 528.214 216.324C528.743 217.112 529.293 217.899 529.724 218.719C529.908 219.042 530.102 219.366 530.274 219.7C530.327 219.783 530.374 219.869 530.415 219.959C530.63 220.347 530.835 220.747 531.029 221.135C531.396 221.836 531.72 222.537 532.033 223.238C535.43 231.026 536.39 239.504 533.144 245.361Z" fill="#A7CAF0"/>
<path d="M446.29 186.92C472.394 194.783 519.725 203.747 528.268 216.335C529.75 218.518 531.028 220.832 532.086 223.249" stroke="#83ADDF" stroke-width="0.75" stroke-linecap="round" stroke-linejoin="round"/>
<path d="M454.132 189.153C455.75 205.516 447.304 221.221 447.304 221.221" stroke="#83ADDF" stroke-width="0.75" stroke-linecap="round" stroke-linejoin="round"/>
<path d="M533.133 245.372C529.347 252.211 519.876 255.501 501.852 250.075C496.998 248.608 492.316 247.087 487.829 245.545C498.411 248.328 523.338 253.71 533.133 245.372Z" fill="#93BEE5"/>
<path d="M475.155 53.8034L475.597 57.7297C466.483 71.9463 454.024 76.4228 446.937 76.358C435.223 73.4349 431.221 62.8856 430.542 51.549C430.375 48.8621 430.375 46.1675 430.542 43.4807C431.065 35.8019 432.359 28.1951 434.403 20.775C434.403 20.775 469.589 4.40102 472.027 37.2676C472.027 37.2676 479.578 35.8869 480.969 44.2789C482.155 51.247 475.155 53.8034 475.155 53.8034Z" fill="#B25E47"/>
<path d="M436.194 43.5237C436.968 43.5237 437.596 42.8959 437.596 42.1215C437.596 41.3471 436.968 40.7192 436.194 40.7192C435.42 40.7192 434.792 41.3471 434.792 42.1215C434.792 42.8959 435.42 43.5237 436.194 43.5237Z" fill="#683F1D"/>
<path d="M445.988 41.7337C446.763 41.7337 447.39 41.1059 447.39 40.3315C447.39 39.557 446.763 38.9292 445.988 38.9292C445.214 38.9292 444.586 39.557 444.586 40.3315C444.586 41.1059 445.214 41.7337 445.988 41.7337Z" fill="#683F1D"/>
<path d="M443.874 32.7697C444.025 34.6897 450.583 35.434 450.961 34.3445C451.489 32.705 443.497 28.2717 443.874 32.7697Z" fill="#604730"/>
<path d="M431.351 35.6389C431.351 36.7175 438.481 37.1598 438.222 33.4816C438.049 30.8173 431.502 32.7481 431.351 35.6389Z" fill="#604730"/>
<path d="M470.204 47.6872C473.138 43.3726 477.755 43.8257 478.262 44.6454" stroke="#934735" stroke-width="0.75" stroke-linecap="round" stroke-linejoin="round"/>
<path d="M471.455 46.2097C475.77 43.6641 478.143 49.3702 472.663 49.3702" stroke="#934735" stroke-width="0.75" stroke-linecap="round" stroke-linejoin="round"/>
<path d="M439.98 38.0439C441.166 40.3415 441.059 41.733 440.282 43.2107C439.505 44.6885 437.122 48.0539 438.362 51.0417" stroke="#934735" stroke-width="0.75" stroke-linecap="round" stroke-linejoin="round"/>
<path d="M447.66 51.5488C446.582 55.1192 442.332 57.352 440.358 56.9421C440.358 56.9421 442.396 62.4756 445.988 61.0626C450.12 59.3907 447.66 51.5488 447.66 51.5488Z" fill="white" stroke="#934735" stroke-width="0.75" stroke-linecap="round" stroke-linejoin="round"/>
<path d="M469.557 52.7676C470.365 53.3371 471.285 53.7278 472.256 53.9138C473.227 54.0998 474.226 54.0768 475.187 53.8462" stroke="#934735" stroke-width="0.75" stroke-linecap="round" stroke-linejoin="round"/>
<path d="M482.35 33.913C486.384 39.4573 480.311 41.8627 480.311 41.8627C479.698 40.9549 478.887 40.1986 477.938 39.6515C477.342 39.2997 476.676 39.0842 475.987 39.0202C475.298 38.9563 474.603 39.0456 473.952 39.2817C473.302 39.5177 472.712 39.8948 472.224 40.3857C471.736 40.8767 471.363 41.4695 471.132 42.1216C462.858 42.2942 466.429 35.833 466.429 35.833C459.008 38.7993 458.77 31.1948 461.963 27.7647C456.171 34.2366 448.814 27.7647 450.012 21.9076C447.962 28.304 440.66 28.5521 441.63 23.2451C441.004 24.3355 440.243 25.3429 439.365 26.2438C434.35 31.2919 429.841 25.8986 431.739 21.9292C424.189 29.113 420.953 21.077 428.126 16.7624C422.441 12.1026 429.204 5.45813 433.745 8.90982C432.667 0.636545 441.21 0.280591 444.953 5.10217C446.42 -3.98009 457.767 0.981714 458.22 5.28554C466.58 -0.560762 473.052 3.74307 472.243 13.246C475.619 8.72646 482.857 11.3799 480.074 22.9539C487.02 22.4577 488.196 31.0762 482.35 33.913Z" fill="#604730"/>
<path d="M477.938 39.6512C477.342 39.2995 476.676 39.0839 475.987 39.02C475.298 38.9561 474.603 39.0453 473.952 39.2814C473.302 39.5175 472.712 39.8945 472.224 40.3855C471.736 40.8765 471.363 41.4693 471.132 42.1213C462.858 42.2939 466.429 35.8328 466.429 35.8328C459.008 38.7991 458.77 31.1946 461.963 27.7645C456.171 34.2364 448.814 27.7645 450.012 21.9074C447.962 28.3038 440.66 28.5519 441.63 23.2449C441.004 24.3352 440.243 25.3427 439.365 26.2435C437.337 20.106 441.879 12.0053 448.814 15.6727C449.731 10.7325 461.068 7.5289 461.003 19.9874C465.199 14.1303 474.702 16.1366 470.204 27.3114C473.742 24.6687 481.875 29.2422 477.938 39.6512Z" fill="#473526"/>
<path d="M462.697 41.8194C463.7 43.8257 461.812 46.792 458.49 48.4639C455.168 50.1359 451.651 49.8554 450.648 47.8491C449.645 45.8428 451.522 42.8765 454.855 41.2046C458.188 39.5327 461.693 39.8131 462.697 41.8194Z" fill="#A0503D"/>
<path d="M434.943 49.4457C434.425 50.8587 432.688 51.603 430.553 51.603C430.385 48.9162 430.385 46.2215 430.553 43.5347C433.724 44.883 435.676 47.4394 434.943 49.4457Z" fill="#A0503D"/>
<path d="M465.015 274.733V435.755H235.413V274.733C235.406 272.599 235.821 270.485 236.634 268.513C237.448 266.54 238.643 264.747 240.152 263.238C241.661 261.73 243.453 260.534 245.426 259.721C247.399 258.907 249.513 258.492 251.647 258.5H448.782C450.916 258.492 453.03 258.907 455.003 259.721C456.975 260.534 458.768 261.73 460.277 263.238C461.785 264.747 462.981 266.54 463.794 268.513C464.608 270.485 465.023 272.599 465.015 274.733Z" stroke="#EDEDED" stroke-width="2" stroke-linecap="round" stroke-linejoin="round"/>
<path d="M465.015 274.733V275.467H235.413V274.733C235.406 272.599 235.821 270.485 236.634 268.513C237.448 266.54 238.643 264.747 240.152 263.238C241.661 261.73 243.453 260.534 245.426 259.721C247.399 258.907 249.513 258.492 251.647 258.5H448.782C450.916 258.492 453.03 258.907 455.003 259.721C456.975 260.534 458.768 261.73 460.277 263.238C461.785 264.747 462.981 266.54 463.794 268.513C464.608 270.485 465.023 272.599 465.015 274.733Z" stroke="#DDDDDD" stroke-width="2" stroke-linecap="round" stroke-linejoin="round"/>
<path d="M433.94 266.977C433.94 267.562 433.766 268.133 433.442 268.619C433.117 269.106 432.655 269.484 432.115 269.708C431.575 269.932 430.981 269.99 430.407 269.876C429.834 269.762 429.308 269.481 428.894 269.067C428.481 268.654 428.199 268.127 428.085 267.554C427.971 266.981 428.03 266.386 428.254 265.846C428.477 265.306 428.856 264.845 429.342 264.52C429.828 264.195 430.4 264.022 430.984 264.022C431.768 264.022 432.52 264.333 433.074 264.888C433.628 265.442 433.94 266.194 433.94 266.977Z" fill="#EDEDED"/>
<path d="M440.616 269.933C442.249 269.933 443.572 268.61 443.572 266.977C443.572 265.345 442.249 264.022 440.616 264.022C438.984 264.022 437.661 265.345 437.661 266.977C437.661 268.61 438.984 269.933 440.616 269.933Z" fill="#DDDDDD"/>
<path d="M450.26 269.933C451.892 269.933 453.215 268.61 453.215 266.977C453.215 265.345 451.892 264.022 450.26 264.022C448.627 264.022 447.304 265.345 447.304 266.977C447.304 268.61 448.627 269.933 450.26 269.933Z" fill="#EDEDED"/>
<path d="M248.951 352.526C242.392 333.11 240.85 322.626 242.64 321.126C243.719 320.177 245.52 319.476 245.661 317.556C245.801 315.636 243.6 309.186 251.281 307.675C251.281 307.675 253.88 292.456 256.35 285.326C256.35 285.326 270.071 339.938 271.031 344.037C271.991 348.136 253.405 365.772 248.951 352.526Z" fill="#FEBD9D"/>
<path d="M251.281 307.675C250.779 310.119 250.418 312.59 250.202 315.075" stroke="#EF8A66" stroke-width="0.75" stroke-linecap="round" stroke-linejoin="round"/>
<path d="M242.166 326.865C241.767 323.629 241.961 321.709 242.651 321.126C243.73 320.177 245.531 319.476 245.672 317.556C245.812 315.636 243.611 309.186 251.291 307.675C251.291 307.675 253.891 292.456 256.361 285.326" stroke="#EF8A66" stroke-width="0.75" stroke-linecap="round" stroke-linejoin="round"/>
<path d="M315.659 252.66L255.55 269.612C252.041 270.602 249.999 274.249 250.988 277.758L262.656 319.128C263.646 322.637 267.293 324.68 270.801 323.69L330.911 306.737C334.42 305.748 336.462 302.101 335.472 298.592L323.805 257.221C322.815 253.713 319.168 251.67 315.659 252.66Z" fill="#F9F9F9" stroke="#DDDDDD" stroke-linecap="round" stroke-linejoin="round"/>
<path d="M312.689 258.7L261.259 273.205C258.937 273.86 257.585 276.274 258.24 278.596L268.403 314.63C269.058 316.952 271.471 318.304 273.793 317.649L325.223 303.144C327.545 302.489 328.897 300.076 328.242 297.754L318.079 261.719C317.424 259.397 315.011 258.046 312.689 258.7Z" stroke="#EDEDED" stroke-linecap="round" stroke-linejoin="round"/>
<path d="M297.781 293.566C297.798 293.872 297.798 294.178 297.781 294.483C297.614 296.804 296.803 299.032 295.441 300.918C294.078 302.804 292.217 304.272 290.066 305.16C287.915 306.047 285.559 306.317 283.263 305.941C280.967 305.564 278.822 304.555 277.067 303.027C275.312 301.499 274.018 299.513 273.329 297.291C272.64 295.068 272.584 292.698 273.167 290.445C273.749 288.193 274.948 286.147 276.629 284.538C278.309 282.929 280.405 281.819 282.68 281.334C283.529 281.142 284.398 281.048 285.269 281.054C286.913 281.053 288.542 281.375 290.062 282.003C291.582 282.631 292.963 283.552 294.127 284.714C295.291 285.876 296.215 287.256 296.845 288.775C297.476 290.294 297.801 291.922 297.803 293.566H297.781Z" stroke="#EDEDED" stroke-linecap="round" stroke-linejoin="round"/>
<path d="M297.738 294.451C297.588 296.527 296.923 298.533 295.802 300.287C294.682 302.042 293.142 303.489 291.322 304.499C289.502 305.509 287.459 306.049 285.377 306.07C283.296 306.092 281.242 305.594 279.401 304.623C281.828 299.715 285.215 292.757 285.215 292.757L297.738 294.451Z" stroke="#EDEDED" stroke-linecap="round" stroke-linejoin="round"/>
<path d="M297.781 293.566C297.798 293.871 297.798 294.177 297.781 294.483L285.291 292.822L294.74 285.347C296.716 287.627 297.797 290.548 297.781 293.566Z" stroke="#EDEDED" stroke-linecap="round" stroke-linejoin="round"/>
<path d="M294.696 285.347L285.247 292.822C285.247 292.822 283.629 285.886 282.658 281.334C283.508 281.142 284.376 281.048 285.247 281.054C287.038 281.052 288.808 281.434 290.438 282.175C292.068 282.915 293.52 283.997 294.696 285.347Z" fill="#DDDDDD" stroke="#DDDDDD" stroke-linecap="round" stroke-linejoin="round"/>
<path d="M312.009 288.971C314.371 288.141 312.192 286.933 313.756 286.264C316.043 285.293 316.787 271.163 306.626 274.064C298.925 276.222 304.534 288.788 308.309 287.634C309.334 287.321 309.301 289.931 312.009 288.971Z" fill="#F9F9F9" stroke="#DDDDDD" stroke-linecap="round" stroke-linejoin="round"/>
<path d="M309.237 278.616C308.233 280.418 309.032 281.68 310.671 282.284C313.422 283.308 309.334 286.534 308.438 284.765C307.457 282.823 312.829 284.117 311.674 288.475" stroke="#DDDDDD" stroke-linecap="round" stroke-linejoin="round"/>
<path d="M310.801 291.862C311.491 293.512 312.343 293.804 313.648 293.426C314.953 293.049 315.007 292.143 314.662 290.827L310.801 291.862Z" fill="#F9F9F9" stroke="#EDEDED" stroke-linecap="round" stroke-linejoin="round"/>
<path d="M309.69 290.816C310.315 289.738 314.004 289.08 314.522 289.198C315.04 289.317 315.504 290.816 314.824 291.205C313.399 291.84 311.88 292.238 310.326 292.38C310.17 292.335 310.027 292.254 309.906 292.146C309.786 292.037 309.692 291.902 309.631 291.752C309.569 291.601 309.543 291.439 309.553 291.277C309.563 291.115 309.61 290.958 309.69 290.816Z" fill="#F9F9F9" stroke="#EDEDED" stroke-linecap="round" stroke-linejoin="round"/>
<path d="M308.978 288.81C309.647 287.731 313.616 287.062 314.123 287.192C314.792 287.354 315.202 288.81 314.457 289.187C312.928 289.826 311.309 290.223 309.657 290.363C309.499 290.322 309.353 290.246 309.229 290.14C309.104 290.034 309.006 289.901 308.941 289.751C308.875 289.602 308.844 289.439 308.851 289.276C308.857 289.113 308.901 288.954 308.978 288.81Z" fill="#F9F9F9" stroke="#EDEDED" stroke-linecap="round" stroke-linejoin="round"/>
<path d="M296.325 277.667L299.604 277.883" stroke="#EDEDED" stroke-linecap="round" stroke-linejoin="round"/>
<path d="M302.775 267.679L304.21 270.839" stroke="#EDEDED" stroke-linecap="round" stroke-linejoin="round"/>
<path d="M313.983 268.509L312.829 270.839" stroke="#EDEDED" stroke-linecap="round" stroke-linejoin="round"/>
<path d="M258.799 316.143C254.236 324.308 257.849 334.092 263.361 336.756C268.873 339.42 271.149 322.507 271.807 318.235C272.465 313.964 272.476 307.503 272.951 304.267C273.425 301.031 270.383 298.475 268.388 303.415C266.392 308.355 265.443 311.375 265.443 311.375L258.799 316.143Z" fill="#FEBD9D"/>
<path d="M271.807 318.235C272.476 313.921 272.476 307.503 272.951 304.267C273.425 301.031 270.384 298.475 268.388 303.415C266.393 308.355 265.443 311.375 265.443 311.375L258.799 316.143" stroke="#EF8A66" stroke-width="0.75" stroke-linecap="round" stroke-linejoin="round"/>
<mask id="mask2_89_2903" style="mask-type:luminance" maskUnits="userSpaceOnUse" x="235" y="258" width="231" height="178">
<path d="M465.015 274.733V435.755H235.413V274.733C235.406 272.599 235.821 270.485 236.634 268.513C237.448 266.54 238.643 264.747 240.152 263.238C241.661 261.73 243.453 260.534 245.426 259.721C247.399 258.907 249.513 258.492 251.647 258.5H448.782C450.916 258.492 453.03 258.907 455.003 259.721C456.975 260.534 458.768 261.73 460.277 263.238C461.785 264.747 462.981 266.54 463.794 268.513C464.608 270.485 465.023 272.599 465.015 274.733Z" fill="white"/>
</mask>
<g mask="url(#mask2_89_2903)">
<path d="M406.121 284.376L402.454 330.759L362.285 334.545C365.726 323.618 368.496 312.49 370.58 301.225C371.486 296.36 372.305 291.194 372.931 285.919L387.73 285.239L406.121 284.376Z" fill="#FEBD9D"/>
<path d="M391.02 289.608C389.381 295.972 380.395 300.481 370.644 301.203C371.55 296.339 372.37 291.172 372.996 285.897L387.795 285.218C390.114 286.242 391.473 287.666 391.02 289.608Z" fill="#F4A789"/>
<path d="M468.511 334.523V442.442H460.14C460.14 442.442 455.2 422.865 433.929 381.833C433.929 381.833 433.519 383.656 432.688 386.816C431.545 391.195 429.593 398.12 426.821 406.351C422.146 420.505 416.129 434.18 408.85 447.188C393.503 453.763 377.315 458.17 360.753 460.283C360.3 460.283 359.836 460.402 359.372 460.445C342.869 462.484 323.712 462.494 304.275 457.49C292.204 454.432 280.686 449.508 270.135 442.895C270.718 441.946 296.961 390.57 305.138 374.045C305.774 372.761 306.41 371.51 307.058 370.27C314.738 355.589 323.949 344.177 348.823 334.523C354.594 332.301 359.664 330.327 364.108 328.601C380.492 322.248 388.658 319.109 393.663 317.62C397.201 316.571 400.563 315.589 403.748 314.676C434.403 305.874 449.613 303.814 462.502 323.478C464.767 327.011 466.774 330.702 468.511 334.523Z" fill="#FFB63F"/>
<path d="M462.502 323.478C451.889 322.83 438.535 325.753 430.984 342.376C417.037 373.052 389.51 385.899 369.328 366.235C353.472 350.8 326.452 352.806 307.058 370.27C314.738 355.589 323.949 344.177 348.823 334.523C354.594 332.301 359.664 330.327 364.108 328.601C380.492 322.248 388.658 319.109 393.663 317.62C397.201 316.571 400.563 315.589 403.748 314.676C434.404 305.874 449.613 303.814 462.502 323.478Z" fill="#FFCB66"/>
<path d="M468.511 413.276V442.399H460.14C460.14 442.399 455.2 422.822 433.929 381.79C435.148 377.054 436.086 372.492 436.841 368.447C450.583 374.466 451.759 387.205 450.26 394.399C448.868 401.098 455.933 417.515 468.511 413.276Z" fill="#FF9400"/>
<path d="M354.076 389.2C351.919 400.483 342.524 420.265 325.751 448.526C323.173 452.625 320.246 456.494 317.003 460.089C312.719 459.444 308.47 458.58 304.275 457.5L309.582 442.453C312.591 430.814 318.211 425.626 330.313 423.296C341.057 421.214 332.061 388.359 354.076 389.2Z" fill="#FF9400"/>
<path d="M300.036 477.456C300.036 477.456 309.129 469.129 317.003 460.079C320.246 456.484 323.173 452.615 325.751 448.516C342.524 420.266 351.908 400.483 354.076 389.19C354.752 385.695 354.734 383.016 354.022 381.154" stroke="#FF9400" stroke-width="0.75" stroke-linecap="round" stroke-linejoin="round"/>
<path d="M438.977 353.68C438.977 353.68 438.405 359.882 436.82 368.49C436.086 372.535 435.126 377.119 433.907 381.833" stroke="#FF9400" stroke-width="0.75" stroke-linecap="round" stroke-linejoin="round"/>
<path d="M309.571 418.227C309.97 444.168 280.361 470.326 264.127 438.225C257.343 424.817 240.397 362.245 241.583 353.68C242.662 346.054 264.969 329.076 274.126 332.398C274.126 332.398 277.956 342.473 283.219 355.331C289.918 371.694 298.935 392.598 305.278 402.975C308.049 407.583 309.531 412.85 309.571 418.227Z" fill="#FFB63F"/>
<path d="M297.781 388.715C294.265 395.672 290.231 403.686 286.283 411.366C283.597 406.458 283.112 399.231 288.828 392.49C296.099 383.936 273.339 369.008 283.219 355.309C287.556 365.923 292.863 378.403 297.781 388.715Z" fill="#FF9400"/>
<path d="M297.921 388.445C297.921 388.532 297.824 388.618 297.781 388.715C294.265 395.672 290.231 403.687 286.283 411.367L282.583 418.626" stroke="#FF9400" stroke-width="0.75" stroke-linecap="round" stroke-linejoin="round"/>
</g>
<path d="M362.781 262.178C357.387 281.648 352.587 292.305 385.799 294.484C385.799 294.484 406.876 270.753 404.007 236.301C404.007 236.301 385.227 221.2 368.961 250.615C368.961 250.615 362.996 252.901 362.317 253.71C361.637 254.519 362.09 259.546 362.781 262.178Z" fill="#FEBD9D"/>
<path d="M368.961 250.614C368.961 250.614 362.996 252.901 362.317 253.71C361.637 254.519 362.09 259.546 362.781 262.177" stroke="#EF8A66" stroke-width="0.75" stroke-linecap="round" stroke-linejoin="round"/>
<path d="M373.503 254.789C374.277 254.789 374.905 254.161 374.905 253.387C374.905 252.612 374.277 251.984 373.503 251.984C372.728 251.984 372.1 252.612 372.1 253.387C372.1 254.161 372.728 254.789 373.503 254.789Z" fill="#5C1A55"/>
<path d="M374.722 242.039C377.504 240.108 382.391 251.348 378.853 251.305C377.429 251.305 371.335 244.39 374.722 242.039Z" fill="#BF8228"/>
<path d="M433.929 337.112C432.289 353.119 424.458 359.494 425.979 364.898C427.5 370.302 431.243 369.126 431.243 369.126C431.243 369.126 428.266 377.756 416.843 374.315C416.843 374.315 406.854 389.567 397.427 378.629C388.906 390.268 370.946 392.652 370.396 376.688C370.396 376.688 377.332 378.424 380.87 373.926C384.408 369.428 385.184 361.932 381.344 357.984C377.504 354.036 371.928 350.088 371.572 343.498C371.216 336.907 376.08 325.344 383.146 316.747C383.146 316.747 354.95 308.797 352.868 332.927L347.237 335.084C347.237 335.084 341.229 332.182 341.369 322.485C341.51 312.788 350.365 305.669 360.009 305.842C369.652 306.014 392.918 301.829 381.582 272.457C381.582 272.457 390.836 275.844 393.253 268.434C395.669 261.024 387.288 257.076 382.466 261.218C382.466 261.218 378.518 255.123 390.222 241.705C388.916 237.455 384.397 236.312 386.338 231.997C387.913 228.524 397.794 228.524 405.215 230.023C406.808 230.34 408.377 230.772 409.907 231.317C414.158 232.828 417.862 235.574 420.543 239.202C422.15 241.349 423.209 243.856 423.628 246.505C424.694 246.067 425.841 245.861 426.993 245.901C429.323 245.987 432.171 247.292 433.184 252.74C434.662 260.625 429.258 264.605 425.634 266.428C424.626 266.929 423.571 267.33 422.484 267.625C423.277 270.094 423.642 272.681 423.563 275.273C423.517 276.964 423.289 278.646 422.883 280.288C421.341 286.447 417.997 297.169 419.475 304.623C419.637 305.526 419.898 306.408 420.251 307.255C423.282 314.654 435.568 321.105 433.929 337.112Z" fill="#BF8228"/>
<path d="M425.591 266.482C424.582 266.983 423.528 267.384 422.441 267.679C422.441 267.679 417.382 268.909 415.376 260.064C413.769 252.977 417.749 248.199 423.628 246.559C424.694 246.121 425.841 245.915 426.993 245.955C416.357 255.221 421.524 262.75 425.591 266.482Z" fill="#B57724"/>
<path d="M433.929 337.112C432.289 353.119 424.458 359.494 425.979 364.898C427.5 370.302 431.243 369.126 431.243 369.126C431.243 369.126 428.266 377.756 416.843 374.315C416.843 374.315 406.854 389.567 397.427 378.629C388.906 390.268 370.946 392.652 370.396 376.688C370.396 376.688 377.332 378.424 380.87 373.926C384.408 369.428 385.184 361.932 381.344 357.984C377.504 354.036 371.928 350.088 371.572 343.498C371.216 336.907 376.08 325.344 383.146 316.747C383.146 316.747 354.95 308.797 352.868 332.927L347.237 335.084C347.237 335.084 341.229 332.182 341.369 322.485C341.51 312.788 350.365 305.669 360.009 305.842C369.652 306.014 392.918 301.829 381.582 272.457C381.582 272.457 390.836 275.844 393.253 268.434C395.669 261.024 387.288 257.076 382.466 261.218C382.466 261.218 378.518 255.123 390.222 241.705C388.916 237.455 384.397 236.312 386.338 231.997C387.913 228.524 397.794 228.524 405.215 230.023C400.253 233.065 396.931 237.843 399.692 245.318C406.477 263.656 404.568 272.479 398.689 280.31C392.81 288.141 386.166 304.04 391.818 316.747C397.47 329.453 389.165 323.607 391.656 348.751C394.148 373.894 425.957 358.577 424.965 338.093C424.07 319.584 412.841 313.36 419.388 304.655C419.551 305.558 419.811 306.441 420.165 307.287C423.282 314.654 435.568 321.105 433.929 337.112Z" fill="#B57724"/>
<path d="M382.304 265.651C385.389 263.731 388.312 263.903 390.006 265.122" stroke="#EF8A66" stroke-width="0.75" stroke-linecap="round" stroke-linejoin="round"/>
<path d="M382.574 268.66C387.115 270.613 387.967 264.766 384.257 264.691" stroke="#EF8A66" stroke-width="0.75" stroke-linecap="round" stroke-linejoin="round"/>
<path d="M406.002 239.493C410.975 241.046 418.418 248.867 418.418 248.867" stroke="#9B621F" stroke-width="0.75" stroke-linecap="round" stroke-linejoin="round"/>
<path d="M423.628 246.559C417.749 248.188 413.769 252.977 415.376 260.064C417.382 268.909 422.441 267.679 422.441 267.679" stroke="#9B621F" stroke-width="0.75" stroke-linecap="round" stroke-linejoin="round"/>
<path d="M417.156 250.625C421.707 248.802 427.144 248.026 429.215 253.786C431.286 259.546 428.255 264.011 423.627 267.301" stroke="#9B621F" stroke-width="0.75" stroke-linecap="round" stroke-linejoin="round"/>
<path d="M394.256 254.142C403.532 256.925 415.279 256.191 415.279 256.191" stroke="#9B621F" stroke-width="0.75" stroke-linecap="round" stroke-linejoin="round"/>
<path d="M396.812 270.235C404.913 272.231 415.149 266.352 416.767 264.022" stroke="#9B621F" stroke-width="0.75" stroke-linecap="round" stroke-linejoin="round"/>
<path d="M415.106 258.499C416.422 254.875 420.143 252.491 422.905 256.072C425.666 259.654 421.524 263.45 418.17 259.492" stroke="#9B621F" stroke-width="0.75" stroke-linecap="round" stroke-linejoin="round"/>
<path d="M383.156 316.801C391.009 307.535 397.632 300.136 394.267 286.76" stroke="#9B621F" stroke-width="0.75" stroke-linecap="round" stroke-linejoin="round"/>
<path d="M397.492 378.683C402.249 371.413 394.903 360.734 393.781 353.691C392.659 346.647 392.411 337.813 401.256 328.224" stroke="#9B621F" stroke-width="0.75" stroke-linecap="round" stroke-linejoin="round"/>
<path d="M409.433 296.5C416.034 313.295 417.069 316.003 413.488 328.58C409.907 341.157 407.75 347.391 413.488 356.366C419.863 366.311 417.868 369.914 416.832 374.315" stroke="#9B621F" stroke-width="0.75" stroke-linecap="round" stroke-linejoin="round"/>
<path d="M380.158 260.743C380.578 263.03 378.389 265.349 375.282 265.91C372.176 266.471 369.317 265.079 368.896 262.782C368.476 260.484 370.666 258.176 373.772 257.615C376.879 257.054 379.737 258.445 380.158 260.743Z" fill="#F4AF90"/>
<path d="M465.015 301.786V435.755H235.413" stroke="#EDEDED" stroke-width="2" stroke-linecap="round" stroke-linejoin="round"/>
</svg>
