<svg width="562" height="407" viewBox="0 0 562 407" fill="none" xmlns="http://www.w3.org/2000/svg">
<path d="M355.282 52.4776L355.484 58.8149C355.493 59.0343 355.555 59.2483 355.663 59.439C355.772 59.6297 355.925 59.7916 356.109 59.9112L361.446 63.3731C361.659 63.5098 361.828 63.703 361.937 63.931C362.045 64.1589 362.088 64.4126 362.06 64.6635C362.032 64.9143 361.934 65.1524 361.778 65.3509C361.622 65.5493 361.414 65.7003 361.177 65.7869L355.215 67.941C355.004 68.0186 354.816 68.1469 354.666 68.3146C354.517 68.4824 354.412 68.6843 354.359 68.9026L352.791 74.9707C352.727 75.214 352.595 75.4345 352.412 75.6074C352.229 75.7803 352.002 75.8989 351.755 75.9498C351.509 76.0007 351.253 75.982 351.016 75.8957C350.78 75.8093 350.572 75.6589 350.416 75.4611L346.521 70.4509C346.385 70.2777 346.209 70.14 346.008 70.0495C345.807 69.9591 345.587 69.9187 345.367 69.9316L339.04 70.3067C338.787 70.3217 338.535 70.2656 338.312 70.1448C338.09 70.024 337.905 69.8432 337.78 69.623C337.655 69.4027 337.594 69.1519 337.604 68.8988C337.615 68.6457 337.695 68.4005 337.838 68.191L341.396 62.9404C341.518 62.7568 341.594 62.5468 341.619 62.3279C341.645 62.1089 341.617 61.8871 341.54 61.6806L339.232 55.7761C339.14 55.5408 339.115 55.2844 339.161 55.0358C339.207 54.7873 339.321 54.5565 339.491 54.3695C339.661 54.1825 339.88 54.0467 340.123 53.9775C340.366 53.9083 340.624 53.9084 340.867 53.9778L346.964 55.7376C347.174 55.7983 347.396 55.8073 347.61 55.7637C347.824 55.7202 348.025 55.6254 348.195 55.4876L353.099 51.4679C353.296 51.3198 353.53 51.2279 353.775 51.2019C354.021 51.176 354.268 51.2169 354.492 51.3205C354.716 51.4241 354.908 51.5863 355.047 51.79C355.186 51.9938 355.267 52.2314 355.282 52.4776Z" fill="#DDDDDD" stroke="#DDDDDD" stroke-miterlimit="10"/>
<path d="M494.155 113.379L498.809 117.687C498.972 117.834 499.168 117.941 499.38 117.998C499.593 118.055 499.816 118.06 500.031 118.014L506.214 116.619C506.465 116.557 506.73 116.568 506.975 116.651C507.221 116.734 507.437 116.886 507.599 117.088C507.761 117.291 507.861 117.535 507.889 117.793C507.916 118.051 507.869 118.311 507.753 118.543L505.098 124.313C505.005 124.512 504.962 124.73 504.972 124.95C504.982 125.169 505.045 125.383 505.156 125.572L508.397 131.025C508.526 131.243 508.592 131.492 508.587 131.745C508.582 131.998 508.506 132.245 508.367 132.457C508.229 132.669 508.035 132.839 507.805 132.946C507.576 133.053 507.321 133.094 507.07 133.064L500.781 132.323C500.562 132.296 500.339 132.323 500.133 132.401C499.926 132.48 499.743 132.609 499.598 132.775L495.415 137.535C495.25 137.728 495.033 137.871 494.791 137.946C494.549 138.022 494.29 138.027 494.045 137.962C493.799 137.896 493.577 137.763 493.405 137.577C493.232 137.391 493.115 137.16 493.068 136.91L491.828 130.688C491.781 130.476 491.685 130.277 491.546 130.11C491.407 129.943 491.23 129.811 491.029 129.727L485.26 127.217C485.025 127.12 484.823 126.959 484.676 126.752C484.529 126.545 484.444 126.301 484.43 126.047C484.416 125.794 484.474 125.542 484.597 125.32C484.72 125.098 484.903 124.916 485.125 124.793L490.664 121.697C490.856 121.587 491.018 121.433 491.137 121.247C491.256 121.061 491.328 120.849 491.347 120.629L491.933 114.321C491.952 114.072 492.038 113.833 492.183 113.63C492.328 113.427 492.527 113.269 492.756 113.171C492.986 113.074 493.238 113.042 493.485 113.078C493.731 113.115 493.963 113.219 494.155 113.379Z" fill="#DDDDDD" stroke="#DDDDDD" stroke-miterlimit="10"/>
<path d="M36.2247 71.8453H12.4911C9.41368 71.7575 6.49175 70.4734 4.34605 68.2656C2.20036 66.0578 1 63.1005 1 60.0218C1 56.9431 2.20036 53.9857 4.34605 51.778C6.49175 49.5702 9.41368 48.286 12.4911 48.1982H36.2247" stroke="#DDDDDD" stroke-miterlimit="10"/>
<path d="M35.9457 279.437H30.772C26.6836 279.437 22.7627 277.813 19.8717 274.922C16.9808 272.031 15.3567 268.11 15.3567 264.022C15.3567 259.933 16.9808 256.012 19.8717 253.121C22.7627 250.231 26.6836 248.606 30.772 248.606H36.2246" stroke="#DDDDDD" stroke-miterlimit="10"/>
<path d="M397.489 348.244H364.659C356.288 348.244 349.503 355.029 349.503 363.399V363.928C349.503 372.298 356.288 379.084 364.659 379.084H397.489C405.86 379.084 412.645 372.298 412.645 363.928V363.399C412.645 355.029 405.86 348.244 397.489 348.244Z" stroke="#DDDDDD" stroke-miterlimit="10"/>
<path d="M544.392 367.862H496.376C493.466 367.862 491.106 370.221 491.106 373.132V373.314C491.106 376.225 493.466 378.584 496.376 378.584H544.392C547.302 378.584 549.662 376.225 549.662 373.314V373.132C549.662 370.221 547.302 367.862 544.392 367.862Z" stroke="#DDDDDD" stroke-miterlimit="10"/>
<path d="M542.18 45.0341H548.834C550.415 44.989 551.989 45.2615 553.463 45.8354C554.937 46.4093 556.281 47.273 557.415 48.3754C558.55 49.4777 559.451 50.7964 560.067 52.2533C560.683 53.7103 561 55.2759 561 56.8577C561 58.4394 560.683 60.005 560.067 61.4619C559.451 62.9189 558.55 64.2376 557.415 65.3399C556.281 66.4423 554.937 67.306 553.463 67.8799C551.989 68.4538 550.415 68.7263 548.834 68.6812H542.18" stroke="#DDDDDD" stroke-miterlimit="10"/>
<path d="M511.83 334.713H66.5842C58.538 334.703 50.8243 331.502 45.1349 325.813C39.4454 320.123 36.2446 312.41 36.2344 304.363V31.3498C36.242 23.3029 39.442 15.5877 45.1321 9.89768C50.8221 4.20765 58.5372 1.00764 66.5842 1H511.83C519.877 1.00764 527.592 4.20765 533.282 9.89768C538.972 15.5877 542.172 23.3029 542.18 31.3498V304.363C542.172 312.41 538.972 320.125 533.282 325.815C527.592 331.506 519.877 334.706 511.83 334.713Z" stroke="#DDDDDD" stroke-width="2" stroke-linecap="round" stroke-linejoin="round"/>
<path d="M511.84 22.5317H66.5745C61.7042 22.5317 57.7561 26.4799 57.7561 31.3501V304.364C57.7561 309.234 61.7042 313.182 66.5745 313.182H511.84C516.71 313.182 520.658 309.234 520.658 304.364V31.3501C520.658 26.4799 516.71 22.5317 511.84 22.5317Z" stroke="#DDDDDD" stroke-width="2" stroke-miterlimit="10"/>
<path d="M495.27 218.718V250.857H413.934V136.276" stroke="#DDDDDD" stroke-linecap="round" stroke-linejoin="round"/>
<path d="M495.27 137.641V155.595" stroke="#DDDDDD" stroke-linecap="round" stroke-linejoin="round"/>
<path d="M428.253 121.562H490.645" stroke="#DDDDDD" stroke-linecap="round" stroke-linejoin="round"/>
<path d="M458.497 136.892H475.316" stroke="#DDDDDD" stroke-linecap="round" stroke-linejoin="round"/>
<path d="M458.497 144.767H472.104" stroke="#DDDDDD" stroke-linecap="round" stroke-linejoin="round"/>
<path d="M427.897 183.839H440.302" stroke="#DDDDDD" stroke-linecap="round" stroke-linejoin="round"/>
<path d="M427.897 194.667H434.58" stroke="#DDDDDD" stroke-linecap="round" stroke-linejoin="round"/>
<path d="M510.003 155.595H468.681V218.718H510.003V155.595Z" stroke="#DDDDDD" stroke-linecap="round" stroke-linejoin="round"/>
<path d="M483.827 166.443H495.27" stroke="#DDDDDD" stroke-linecap="round" stroke-linejoin="round"/>
<path d="M488.712 174.905H495.27" stroke="#DDDDDD" stroke-linecap="round" stroke-linejoin="round"/>
<path d="M264.156 205.265C266.599 210.968 251.933 221.613 243.634 216.67C238.893 223.7 224.622 218.873 228.027 214.747C219.131 215.526 209.111 210.901 213.159 203.255C202.129 198.976 207.39 189.186 218.343 188.956C208.88 175.492 216.419 165.328 231.902 166.328C231.739 149.98 251.885 150.682 253.472 167.578C265.281 163.385 275.08 175.541 267.204 185.109C278.004 190.312 273.503 201.774 264.156 205.265Z" stroke="#DDDDDD" stroke-linecap="round" stroke-linejoin="round"/>
<path d="M229.209 175.146H256.434C256.434 175.146 260.569 190.321 254.511 206.005L225.978 205.563C225.978 205.563 233.671 188.84 229.209 175.146Z" stroke="#DDDDDD" stroke-linecap="round" stroke-linejoin="round"/>
<path d="M235.345 182.839H249.202" stroke="#DDDDDD" stroke-linecap="round" stroke-linejoin="round"/>
<path d="M236.229 188.849H246.702" stroke="#DDDDDD" stroke-linecap="round" stroke-linejoin="round"/>
<path d="M235.547 194.591H250.077" stroke="#DDDDDD" stroke-linecap="round" stroke-linejoin="round"/>
<path d="M420.348 130.391C417.29 137.296 406.134 139.815 399.778 135.42C396.826 142.748 383.343 144.354 376.487 140.844C378.525 131.574 373.015 125.967 366.024 125.833C363.976 119.861 365.543 113.273 370.736 111.081C366.255 101.734 373.871 96.6561 381.805 100.945C381.564 91.6844 393.104 81.712 405.355 91.9151C414.539 84.9432 427.175 95.0598 421.521 108.956C432.282 111.629 429.531 131.805 420.348 130.391Z" fill="#DDDDDD" stroke="#DDDDDD" stroke-miterlimit="10"/>
<path d="M137.487 47.2363H180.588C178.665 60.4879 181.55 82.2117 190.157 99.281H142.68C142.68 99.281 128.669 87.9335 137.487 47.2363Z" stroke="#DDDDDD" stroke-width="2" stroke-linecap="round" stroke-linejoin="round"/>
<path d="M296.91 80.8267L332.837 80.9036C332.837 80.9036 338.059 98.5884 326.587 117.696L287.707 116.119C287.707 116.119 299.564 98.9538 296.91 80.8267Z" stroke="#DDDDDD" stroke-linecap="round" stroke-linejoin="round"/>
<path d="M303.468 89.4336H326.933" stroke="#DDDDDD" stroke-linecap="round" stroke-linejoin="round"/>
<path d="M303.805 97.3003H322.528" stroke="#DDDDDD" stroke-linecap="round" stroke-linejoin="round"/>
<path d="M303.468 107.6H312.315" stroke="#DDDDDD" stroke-linecap="round" stroke-linejoin="round"/>
<path d="M314.316 107.6H320.201" stroke="#DDDDDD" stroke-linecap="round" stroke-linejoin="round"/>
<path d="M201.12 34.9751L272.407 35.9368C272.407 35.9368 277.696 65.3249 266.781 103.531H193.696C193.696 103.531 205.87 70.4313 201.12 34.9751Z" stroke="#DDDDDD" stroke-linecap="round" stroke-linejoin="round"/>
<path d="M240.663 61.9302L261.3 62.5649" stroke="#DDDDDD" stroke-linecap="round" stroke-linejoin="round"/>
<path d="M249.5 56.4683L262.146 56.8625" stroke="#DDDDDD" stroke-linecap="round" stroke-linejoin="round"/>
<path d="M259.088 51.3521L263.098 51.4771" stroke="#DDDDDD" stroke-linecap="round" stroke-linejoin="round"/>
<path d="M256.011 44.8418L263.098 45.063" stroke="#DDDDDD" stroke-linecap="round" stroke-linejoin="round"/>
<path d="M259.098 74.0664H239.086V92.6552H259.098V74.0664Z" fill="#DDDDDD" stroke="#DDDDDD" stroke-miterlimit="10"/>
<path d="M347.252 138.19H364.937" stroke="#DDDDDD" stroke-linecap="round" stroke-linejoin="round"/>
<path d="M343.444 145.979H361.129" stroke="#DDDDDD" stroke-linecap="round" stroke-linejoin="round"/>
<path d="M340.79 154.355H358.475" stroke="#DDDDDD" stroke-linecap="round" stroke-linejoin="round"/>
<path d="M373.304 157.98C376.535 168.241 360.956 175.078 353.734 164.635C346.32 177.357 317.191 169.376 330.164 154.47C320.999 153.624 322.538 135.852 333.049 137.353C327.548 121.312 349.782 115.437 355.859 129.486C358.743 127.146 362.339 125.857 366.053 125.832C373.044 125.967 378.554 131.602 376.516 140.843C376.381 141.478 376.208 142.122 375.996 142.767C385.084 146.392 379.949 157.413 373.304 157.98Z" stroke="#DDDDDD" stroke-linecap="round" stroke-linejoin="round"/>
<path d="M387.796 104.897H406.779" stroke="#F9F9F9" stroke-linecap="round" stroke-linejoin="round"/>
<path d="M387.324 112.783H402.932" stroke="#F9F9F9" stroke-linecap="round" stroke-linejoin="round"/>
<path d="M386.786 123.351H398.278" stroke="#F9F9F9" stroke-linecap="round" stroke-linejoin="round"/>
<path d="M449.39 139.574H426.099V171.607H449.39V139.574Z" fill="#EDEDED" stroke="#DDDDDD" stroke-linecap="round" stroke-linejoin="round"/>
<path d="M324.702 78.3169L338.184 92.6552L342.713 86.8949L329.789 74.0664L324.702 78.3169Z" fill="#DDDDDD" stroke="#DDDDDD" stroke-miterlimit="10"/>
<path d="M289.938 85.5869L303.468 71.1621L308.681 75.9896L295.391 91.703L289.938 85.5869Z" fill="#DDDDDD" stroke="#DDDDDD" stroke-miterlimit="10"/>
<path d="M461.151 159.914L466.392 164.424C466.392 164.424 479.201 150.797 478.961 150.797C478.72 150.797 473.133 146.624 473.133 146.624L461.151 159.914Z" fill="#DDDDDD" stroke="#DDDDDD" stroke-miterlimit="10"/>
<path d="M498.588 152.191L504.339 147.268L518.052 161.798L511.724 167.222L498.588 152.191Z" fill="#DDDDDD" stroke="#DDDDDD" stroke-miterlimit="10"/>
<path d="M500.665 81.1251C497.818 88.7595 492.414 95.1723 485.374 99.2735C478.333 103.375 470.089 104.911 462.044 103.621C453.998 102.332 446.648 98.296 441.241 92.1998C435.835 86.1037 432.706 78.3234 432.388 70.1815C434.227 74.0551 436.99 77.4177 440.433 79.9738C443.876 82.53 447.894 84.2015 452.134 84.8414C456.374 85.4814 460.706 85.0703 464.751 83.6442C468.795 82.2181 472.427 79.8207 475.327 76.6625C478.228 73.5044 480.309 69.6822 481.387 65.5318C482.465 61.3813 482.507 57.0297 481.51 52.8591C480.513 48.6885 478.506 44.8267 475.667 41.6128C472.829 38.399 469.244 35.9315 465.228 34.4272C464.555 34.1772 463.891 33.956 463.218 33.7733C469.241 33.0165 475.357 33.8267 480.974 36.1254C486.592 38.4241 491.522 42.1336 495.286 46.895C499.051 51.6565 501.523 57.3088 502.463 63.3054C503.404 69.3019 502.781 75.4397 500.656 81.1251H500.665Z" fill="#EDEDED" stroke="#DDDDDD" stroke-linecap="round" stroke-linejoin="round"/>
<path d="M134.631 35.4849L139.439 39.6296C139.604 39.7724 139.802 39.8724 140.015 39.921C140.228 39.9696 140.449 39.9653 140.66 39.9085L146.796 38.3122C147.041 38.2474 147.299 38.2526 147.541 38.3271C147.783 38.4016 147.999 38.5424 148.166 38.7336C148.332 38.9248 148.441 39.1588 148.481 39.4089C148.521 39.6591 148.49 39.9154 148.392 40.1489L145.93 45.9958C145.846 46.1979 145.813 46.4173 145.833 46.6351C145.853 46.853 145.926 47.0626 146.046 47.2459L149.459 52.5927C149.594 52.8053 149.667 53.0511 149.67 53.3027C149.673 53.5543 149.605 53.8017 149.476 54.0172C149.346 54.2328 149.159 54.408 148.935 54.5232C148.711 54.6385 148.46 54.6893 148.209 54.6699L141.891 54.141C141.672 54.1205 141.451 54.1546 141.248 54.2402C141.045 54.3257 140.866 54.4601 140.728 54.6314L136.708 59.5263C136.546 59.7204 136.334 59.8658 136.094 59.9464C135.855 60.027 135.598 60.0396 135.352 59.9828C135.106 59.926 134.88 59.802 134.7 59.6247C134.52 59.4473 134.393 59.2235 134.333 58.9781L132.89 52.8043C132.84 52.5891 132.739 52.3891 132.595 52.2216C132.451 52.0541 132.269 51.9241 132.063 51.8426L126.159 49.5347C125.923 49.443 125.717 49.287 125.565 49.0845C125.413 48.882 125.321 48.641 125.299 48.3888C125.277 48.1366 125.326 47.8833 125.441 47.6575C125.555 47.4317 125.731 47.2425 125.947 47.1113L131.371 43.8321C131.56 43.718 131.719 43.5593 131.833 43.3699C131.947 43.1805 132.013 42.9661 132.025 42.7454L132.39 36.4177C132.407 36.1662 132.494 35.9244 132.641 35.7196C132.788 35.5147 132.989 35.3548 133.222 35.258C133.455 35.1611 133.71 35.131 133.959 35.1711C134.207 35.2112 134.44 35.3198 134.631 35.4849Z" fill="#DDDDDD" stroke="#DDDDDD" stroke-miterlimit="10"/>
<path d="M74.5466 392.451L80.6435 368.083H139.66L133.534 392.451M145.699 392.451L210.13 135.535C210.32 134.785 210.359 134.004 210.247 133.238C210.135 132.472 209.873 131.735 209.476 131.07C209.079 130.405 208.555 129.825 207.934 129.363C207.313 128.901 206.606 128.565 205.856 128.376C205.105 128.186 204.324 128.147 203.558 128.259C202.792 128.371 202.055 128.633 201.391 129.03C200.726 129.427 200.146 129.951 199.683 130.572C199.221 131.194 198.886 131.9 198.696 132.65L192.417 157.711H133.39L138.949 135.497C139.138 134.746 139.178 133.965 139.065 133.199C138.953 132.433 138.691 131.697 138.294 131.032C137.897 130.367 137.373 129.787 136.752 129.325C136.131 128.862 135.425 128.527 134.674 128.337C133.923 128.148 133.143 128.108 132.376 128.221C131.61 128.333 130.874 128.595 130.209 128.992C129.544 129.389 128.964 129.913 128.502 130.534C128.039 131.155 127.704 131.861 127.515 132.612L62.3721 392.451M190.176 166.558L180.28 205.986H121.283L131.178 166.558H190.176ZM178.069 214.833L159.893 287.438H100.838L119.11 214.833H178.069ZM141.891 359.255H82.8745L98.6649 296.257H157.682L141.891 359.255Z" fill="#EDEDED"/>
<path d="M74.5466 392.451L80.6435 368.083H139.66L133.534 392.451M145.699 392.451L210.13 135.535C210.32 134.785 210.359 134.004 210.247 133.238C210.135 132.472 209.873 131.735 209.476 131.07C209.079 130.405 208.555 129.825 207.934 129.363C207.313 128.901 206.606 128.565 205.856 128.376C205.105 128.186 204.324 128.147 203.558 128.259C202.792 128.371 202.055 128.633 201.391 129.03C200.726 129.427 200.146 129.951 199.683 130.572C199.221 131.194 198.886 131.9 198.696 132.65L192.417 157.711H133.39L138.949 135.497C139.138 134.746 139.178 133.965 139.065 133.199C138.953 132.433 138.691 131.697 138.294 131.032C137.897 130.367 137.373 129.787 136.752 129.325C136.131 128.862 135.425 128.527 134.674 128.337C133.923 128.148 133.143 128.108 132.376 128.221C131.61 128.333 130.874 128.595 130.209 128.992C129.544 129.389 128.964 129.913 128.502 130.534C128.039 131.155 127.704 131.861 127.515 132.612L62.3721 392.451M190.176 166.558L180.28 205.986H121.283L131.178 166.558H190.176ZM178.069 214.833L159.893 287.438H100.838L119.11 214.833H178.069ZM141.891 359.255H82.8745L98.6649 296.257H157.682L141.891 359.255Z" stroke="#DDDDDD" stroke-width="2" stroke-linecap="round" stroke-linejoin="round"/>
<path d="M547.652 308.46C548.45 313.566 542.728 318.711 538.516 320.817C538.516 320.817 533.602 309.826 533.958 309.826C534.313 309.826 542.632 305.104 547.652 308.46Z" fill="#FF9400"/>
<path d="M516.84 397.5C495.78 412.549 468.94 402.308 468.94 402.308V394.451C447.438 394.788 424.704 387.931 424.704 387.931C423.271 371.583 425.973 351.581 427.637 341.397C428.31 337.29 428.82 334.79 428.82 334.79C441.639 330.617 515.638 332.097 515.638 332.097C515.917 334.521 516.128 337.367 516.311 340.502C517.6 362.245 516.84 397.5 516.84 397.5Z" fill="#A7CAF0"/>
<mask id="mask0_89_2902" style="mask-type:luminance" maskUnits="userSpaceOnUse" x="424" y="331" width="94" height="75">
<path d="M516.84 397.5C495.78 412.549 468.94 402.308 468.94 402.308V394.451C447.438 394.788 424.704 387.931 424.704 387.931C423.271 371.583 425.973 351.581 427.637 341.397C428.31 337.29 428.82 334.79 428.82 334.79C441.639 330.617 515.638 332.097 515.638 332.097C515.917 334.521 516.128 337.367 516.311 340.502C517.6 362.245 516.84 397.5 516.84 397.5Z" fill="white"/>
</mask>
<g mask="url(#mask0_89_2902)">
<path d="M517.706 354.398H512.753V359.35H517.706V354.398Z" stroke="white" stroke-width="0.75" stroke-linecap="round" stroke-linejoin="round"/>
<path d="M493.578 354.398H488.625V359.35H493.578V354.398Z" stroke="white" stroke-width="0.75" stroke-linecap="round" stroke-linejoin="round"/>
<path d="M469.459 354.398H464.507V359.35H469.459V354.398Z" stroke="white" stroke-width="0.75" stroke-linecap="round" stroke-linejoin="round"/>
<path d="M445.341 354.398H440.389V359.35H445.341V354.398Z" stroke="white" stroke-width="0.75" stroke-linecap="round" stroke-linejoin="round"/>
<path d="M517.706 384.998H512.753V389.951H517.706V384.998Z" stroke="white" stroke-width="0.75" stroke-linecap="round" stroke-linejoin="round"/>
<path d="M493.578 384.998H488.625V389.951H493.578V384.998Z" stroke="white" stroke-width="0.75" stroke-linecap="round" stroke-linejoin="round"/>
<path d="M469.459 384.998H464.507V389.951H469.459V384.998Z" stroke="white" stroke-width="0.75" stroke-linecap="round" stroke-linejoin="round"/>
<path d="M445.341 384.998H440.389V389.951H445.341V384.998Z" stroke="white" stroke-width="0.75" stroke-linecap="round" stroke-linejoin="round"/>
<path d="M434.263 336.617H424.367V346.513H434.263V336.617Z" stroke="white" stroke-width="0.75" stroke-linecap="round" stroke-linejoin="round"/>
<path d="M458.977 336.617H449.082V346.513H458.977V336.617Z" stroke="white" stroke-width="0.75" stroke-linecap="round" stroke-linejoin="round"/>
<path d="M483.692 336.617H473.797V346.513H483.692V336.617Z" stroke="white" stroke-width="0.75" stroke-linecap="round" stroke-linejoin="round"/>
<path d="M508.406 336.617H498.511V346.513H508.406V336.617Z" stroke="white" stroke-width="0.75" stroke-linecap="round" stroke-linejoin="round"/>
<path d="M434.263 367.227H424.367V377.122H434.263V367.227Z" stroke="white" stroke-width="0.75" stroke-linecap="round" stroke-linejoin="round"/>
<path d="M458.977 367.227H449.082V377.122H458.977V367.227Z" stroke="white" stroke-width="0.75" stroke-linecap="round" stroke-linejoin="round"/>
<path d="M483.692 367.227H473.797V377.122H483.692V367.227Z" stroke="white" stroke-width="0.75" stroke-linecap="round" stroke-linejoin="round"/>
<path d="M508.406 367.227H498.511V377.122H508.406V367.227Z" stroke="white" stroke-width="0.75" stroke-linecap="round" stroke-linejoin="round"/>
<path d="M434.263 397.827H424.367V407.722H434.263V397.827Z" stroke="white" stroke-width="0.75" stroke-linecap="round" stroke-linejoin="round"/>
<path d="M458.977 397.827H449.082V407.722H458.977V397.827Z" stroke="white" stroke-width="0.75" stroke-linecap="round" stroke-linejoin="round"/>
<path d="M483.692 397.827H473.797V407.722H483.692V397.827Z" stroke="white" stroke-width="0.75" stroke-linecap="round" stroke-linejoin="round"/>
<path d="M508.406 397.827H498.511V407.722H508.406V397.827Z" stroke="white" stroke-width="0.75" stroke-linecap="round" stroke-linejoin="round"/>
</g>
<path d="M516.34 340.541C503.988 343.114 491.443 344.661 478.836 345.166C472.354 345.484 465.767 345.57 459.372 345.397C447.543 345.07 436.369 343.849 427.637 341.435C428.31 337.329 428.82 334.828 428.82 334.828C433.359 333.357 445.534 332.578 459.381 332.203C465.709 332.03 472.383 331.944 478.845 331.905C498.242 331.78 515.638 332.136 515.638 332.136C515.946 334.559 516.157 337.444 516.34 340.541Z" fill="#683F1D"/>
<path d="M478.874 331.905V345.138C472.392 345.455 465.805 345.542 459.41 345.368V332.203C465.738 332.03 472.412 331.944 478.874 331.905Z" fill="white"/>
<path d="M468.94 394.489L469.142 373.227" stroke="#4BBAC2" stroke-width="0.75" stroke-linecap="round" stroke-linejoin="round"/>
<path d="M547.651 308.46C547.651 308.46 544.766 308.999 540.487 310.268C533.486 312.289 526.742 315.113 520.389 318.683C519.215 319.356 514.099 324.789 508.993 329.434C505.214 332.877 501.425 335.887 499.261 336.165C488.298 337.796 477.225 338.564 466.142 338.464C464.09 338.464 462.109 338.409 460.199 338.3C449.671 337.98 439.187 336.806 428.849 334.79C429.445 334.79 428.541 326.366 427.685 318.173C427.474 316.076 427.262 313.99 427.07 312.066C426.772 312.268 408.577 299.565 407.01 298.421L406.904 298.344C406.904 298.344 406.99 297.872 407.183 297.016C408.25 292.208 412.472 275.197 420.886 262.118C422.7 259.246 424.804 256.568 427.166 254.127C439.485 241.625 453.996 237.586 468.68 236.452C483.365 235.317 485.106 234.961 485.106 234.961C498.28 239.529 512.993 242.26 523.572 254.954C525.895 257.904 527.921 261.077 529.62 264.426C538.708 281.351 547.651 308.46 547.651 308.46Z" fill="#FFB63F"/>
<path d="M434.724 273.302C432.561 282.284 428.503 297.411 428.666 313.259C428.666 312.865 408.577 299.555 407.01 298.459L407.183 297.055C413.453 294.103 417.434 296.093 420.886 297.546C428.666 300.729 424.839 275.033 434.59 273.321L434.724 273.302Z" fill="#FF9400"/>
<path d="M508.993 329.434C505.214 332.877 501.425 335.887 499.261 336.165C488.298 337.795 477.225 338.564 466.142 338.464C464.09 338.464 462.109 338.409 460.199 338.3C463.891 332.713 471.739 323.529 482.961 325.674C498.8 328.722 501.733 302.7 498.8 291.631C495.866 280.563 503.29 276.062 503.29 276.062C503.537 282.855 504.383 289.613 505.82 296.257C505.82 296.449 505.906 296.651 505.954 296.853C507.714 305.277 508.58 320.135 508.993 329.434Z" fill="#FF9400"/>
<path d="M529.64 264.465C516.34 261.224 503.281 262.291 497.559 267.869C485.904 279.274 463.267 294.689 450.198 278.139C441.735 267.417 432.455 260.685 420.886 262.157C422.7 259.285 424.804 256.607 427.166 254.165C439.485 241.664 453.996 237.625 468.681 236.49C483.365 235.355 485.106 235 485.106 235C498.28 239.567 512.994 242.298 523.572 254.992C525.902 257.942 527.935 261.115 529.64 264.465Z" fill="#FFCB66"/>
<path d="M506.589 299.67C506.358 298.708 506.156 297.814 505.954 296.891C505.954 296.689 505.858 296.487 505.82 296.295C504.383 289.651 503.537 282.893 503.29 276.1C503.204 273.355 503.255 270.608 503.444 267.868" stroke="#F7AD2B" stroke-width="0.75" stroke-linecap="round" stroke-linejoin="round"/>
<path d="M509.291 249.116C507.338 251.553 505.937 254.385 505.185 257.415" stroke="#F7AD2B" stroke-width="0.75" stroke-linecap="round" stroke-linejoin="round"/>
<path d="M469.748 254.742C468.315 261.473 468.931 270.792 468.931 270.792" stroke="#F7AD2B" stroke-width="0.75" stroke-linecap="round" stroke-linejoin="round"/>
<path d="M428.666 311.259C428.666 292.929 436.359 266.772 436.359 266.772" stroke="#F7AD2B" stroke-width="0.75" stroke-linecap="round" stroke-linejoin="round"/>
<path d="M460.054 236.471C455.044 236.471 453.861 249.982 456.035 256.598C457.833 262.08 465.651 252.463 471.556 246.712L460.054 236.471Z" fill="white"/>
<path d="M468.277 246.193C474.325 252.174 480.124 258.993 482.548 258.021C484.971 257.05 491.077 239.519 489.337 235.422C488.782 234.187 487.978 233.08 486.975 232.17C485.972 231.26 484.792 230.566 483.509 230.133L468.277 246.193Z" fill="white"/>
<path d="M469.748 246.51C480.326 244.318 483.509 230.162 483.509 230.162C468.738 230.162 460.055 236.519 460.055 236.519C460.055 236.519 458.314 248.886 469.748 246.51Z" fill="white"/>
<path d="M428.666 311.259C425.848 301.171 419.521 298.324 414.424 297.796C411.933 297.545 409.417 297.77 407.01 298.459C400.48 323.404 397.855 331.848 406.557 334.454C415.26 337.06 424.204 331.829 428.676 327.915C429.118 319.221 428.666 311.259 428.666 311.259Z" fill="#FEBD9D"/>
<path d="M541.439 336.146C535.188 348.003 527.678 348.484 518.523 346.503C508.512 343.416 514.917 326.395 520.389 318.683C526.742 315.113 533.486 312.289 540.487 310.268C542.949 317.952 546.372 326.809 541.439 336.146Z" fill="#FEBD9D"/>
<path d="M483.125 268.744C479.022 266.309 474.249 265.249 469.501 265.72C464.754 266.19 460.281 268.166 456.737 271.359L458.285 264.782L450.592 262.733C442.956 286.15 448.899 306.623 470.334 305.854L491.943 293.122C491.943 293.122 496.953 276.389 483.125 268.744ZM475.075 295.007H474.979C472.967 294.992 471.009 294.347 469.383 293.162C467.756 291.977 466.542 290.311 465.913 288.399C465.283 286.488 465.269 284.427 465.872 282.507C466.476 280.587 467.667 278.904 469.277 277.697H469.382C471.394 277.713 473.35 278.359 474.975 279.545C476.6 280.732 477.813 282.397 478.441 284.309C479.07 286.22 479.083 288.28 478.479 290.199C477.875 292.118 476.685 293.799 475.075 295.007Z" fill="#F4F4F4" stroke="#DDDDDD" stroke-linecap="round" stroke-linejoin="round"/>
<path d="M475.075 295.007C473.856 295.921 472.438 296.532 470.936 296.791C469.434 297.049 467.893 296.947 466.438 296.492C464.984 296.038 463.658 295.245 462.57 294.177C461.483 293.11 460.664 291.8 460.182 290.354C459.701 288.909 459.569 287.369 459.799 285.863C460.029 284.357 460.613 282.927 461.504 281.69C462.395 280.454 463.567 279.448 464.923 278.753C466.28 278.059 467.782 277.697 469.305 277.697C467.695 278.904 466.505 280.587 465.901 282.507C465.298 284.427 465.312 286.488 465.941 288.399C466.571 290.311 467.785 291.977 469.411 293.162C471.038 294.347 472.996 294.993 475.008 295.007H475.075Z" fill="#DDDDDD" stroke="#DDDDDD" stroke-linecap="round" stroke-linejoin="round"/>
<path d="M456.737 271.359C451.323 277.129 447.264 285.948 450.967 296.295" stroke="#DDDDDD" stroke-linecap="round" stroke-linejoin="round"/>
<path d="M485.856 288.4C486.538 275.177 474.393 263.397 458.929 269.667" stroke="#DDDDDD" stroke-linecap="round" stroke-linejoin="round"/>
<path d="M522.264 347.166C520.206 347.166 516.206 345.926 515.004 345.522L514.744 345.435C511.276 344.209 507.974 342.555 504.916 340.512C502.933 339.209 501.044 337.769 499.261 336.203C492.095 329.792 486.523 321.797 482.99 312.855C480.158 312.619 477.425 311.701 475.023 310.181C472.622 308.661 470.624 306.582 469.2 304.123C468.238 301.969 470.239 297.103 470.239 297.103C467.681 293.977 471.258 290.429 473.499 291.381C470.469 286.707 468.142 283.351 471.575 281.514C474.104 280.158 489.847 290.169 493.693 294.977C497.54 299.786 520.437 318.711 520.437 318.711C529.275 325.683 539.055 347.118 522.264 347.166Z" fill="#FEBD9D"/>
<path d="M520.379 318.692C527.111 324.866 528.217 330.116 528.217 330.116" stroke="#EF8A66" stroke-width="0.75" stroke-linecap="round" stroke-linejoin="round"/>
<path d="M469.2 304.123C468.238 301.969 470.239 297.103 470.239 297.103C467.681 293.977 471.258 290.429 473.499 291.381C470.469 286.707 468.142 283.351 471.575 281.514C472.662 280.928 476.21 282.476 480.23 284.755" stroke="#EF8A66" stroke-width="0.75" stroke-linecap="round" stroke-linejoin="round"/>
<path d="M490.068 195.12C490.068 195.12 489.26 205.044 489.895 207.294C489.895 207.294 482.028 212.727 478.932 211.429C478.81 211.379 478.697 211.311 478.595 211.227C475.71 209.035 474.123 194.879 474.123 194.879C474.123 194.879 463.064 193.389 460.949 188.59C460.949 188.59 452.005 189.927 454.217 182.743C453.408 183.093 452.54 183.285 451.659 183.31C451.126 183.36 450.594 183.204 450.174 182.872C449.753 182.541 449.476 182.061 449.399 181.531C448.784 178.435 457.419 177.685 457.419 177.685C455.39 173.232 461.324 170.27 467.171 175.925C465.055 172.78 467.815 170.424 473.46 172.473C479.653 174.723 485.317 180.829 483.923 184.974C483.923 184.974 489.375 184.791 492.328 188.388C495.78 192.59 492.145 194.706 490.068 195.12Z" fill="#7F542D"/>
<path d="M478.595 211.256C475.71 209.064 474.124 194.908 474.124 194.908C474.124 194.908 463.065 193.418 460.949 188.619C460.949 188.619 452.006 189.956 454.217 182.772C453.408 183.122 452.54 183.314 451.659 183.339C453.061 182.462 454.638 181.902 456.279 181.698C457.92 181.494 459.586 181.65 461.161 182.157C468.7 184.868 472.614 185.907 474.835 184.022C477.057 182.137 482.528 184.551 480.422 190.196C478.316 195.841 484.375 190.869 485.49 197.735C486.269 202.621 481.413 208.381 478.595 211.256Z" fill="#704725"/>
<path d="M481.095 190.013C484.154 189.966 487.112 191.107 489.346 193.196" stroke="#A56F42" stroke-width="0.75" stroke-linecap="round" stroke-linejoin="round"/>
<path d="M481.5 192.821C484.49 195.042 485.606 199.283 485.567 202.033" stroke="#A56F42" stroke-width="0.75" stroke-linecap="round" stroke-linejoin="round"/>
<path d="M486.269 219.286C486.269 219.286 485.308 228.133 486.269 231.585C486.269 231.585 483.009 248.241 470.758 249.087C464.497 249.51 461.43 245.606 459.949 241.673C459.067 239.267 458.583 236.733 458.516 234.172C458.516 234.172 451.198 234.845 446.582 226.229C445.159 223.555 444.476 219.747 444.572 215.141C444.634 212.732 444.872 210.331 445.284 207.957C446.924 199.138 449.935 190.63 454.208 182.743C454.352 186.31 458.131 187.657 462.863 185.522C462.863 185.522 462.228 191.571 470.556 189.224C470.556 189.224 470.229 192.936 475.547 191.292C481.817 189.368 476.162 200.408 481.519 207.64C481.519 207.64 486.904 201.774 491.578 205.438C497.453 210.025 491.328 218.074 486.269 219.286Z" fill="#FEBD9D"/>
<path d="M483.211 211.314C485.134 208.621 489.597 206.717 491.741 210.564" stroke="#EF8A66" stroke-width="0.75" stroke-linecap="round" stroke-linejoin="round"/>
<path d="M482.548 213.632C487.01 216.266 488.385 209.852 484.173 210.247" stroke="#EF8A66" stroke-width="0.75" stroke-linecap="round" stroke-linejoin="round"/>
<path d="M452.698 217.151C454.359 217.627 456.138 217.476 457.696 216.728C459.254 215.98 460.483 214.687 461.151 213.093" stroke="#EF8A66" stroke-width="0.75" stroke-linecap="round" stroke-linejoin="round"/>
<path d="M486.269 219.286C484.362 219.579 482.411 219.212 480.74 218.247" stroke="#EF8A66" stroke-width="0.75" stroke-linecap="round" stroke-linejoin="round"/>
<path d="M471.44 218.666C474.503 217.548 476.436 215.133 475.757 213.272C475.078 211.411 472.044 210.808 468.98 211.926C465.917 213.044 463.984 215.459 464.663 217.32C465.343 219.181 468.376 219.784 471.44 218.666Z" fill="#F4AF90"/>
<path d="M449.601 213.391C449.053 214.9 446.966 215.574 444.572 215.189C444.634 212.78 444.872 210.379 445.283 208.005C448.351 209.073 450.274 211.467 449.601 213.391Z" fill="#F4AF90"/>
<path d="M450.198 208.669C449.405 208.905 448.582 209.025 447.755 209.025C446.093 209.03 444.465 208.557 443.065 207.661C441.665 206.766 440.552 205.487 439.86 203.976" stroke="#683F1D" stroke-linecap="round" stroke-linejoin="round"/>
<path d="M456.266 198.687C456.366 199.236 456.417 199.793 456.42 200.351C456.424 200.913 456.369 201.473 456.256 202.024" stroke="#683F1D" stroke-linecap="round" stroke-linejoin="round"/>
<path d="M450.573 202.448C451.332 202.448 451.948 201.832 451.948 201.072C451.948 200.313 451.332 199.697 450.573 199.697C449.813 199.697 449.198 200.313 449.198 201.072C449.198 201.832 449.813 202.448 450.573 202.448Z" fill="#683F1D"/>
<path d="M460.256 204.294C460.254 204.568 460.334 204.837 460.485 205.066C460.636 205.295 460.852 205.474 461.105 205.58C461.357 205.686 461.636 205.715 461.905 205.663C462.175 205.61 462.422 205.479 462.617 205.286C462.812 205.093 462.944 204.846 462.999 204.577C463.053 204.308 463.026 204.029 462.921 203.776C462.817 203.522 462.639 203.305 462.411 203.153C462.184 203 461.915 202.918 461.641 202.918C461.46 202.917 461.28 202.952 461.112 203.02C460.944 203.089 460.791 203.19 460.663 203.318C460.534 203.446 460.432 203.598 460.362 203.765C460.292 203.933 460.256 204.112 460.256 204.294Z" fill="#683F1D"/>
<path d="M460.256 199.697C458.622 200.832 457.246 201.823 456.102 202.698C452.602 205.361 451.207 206.996 450.938 208.41C450.736 209.497 451.207 210.468 451.9 211.66" stroke="#EF8A66" stroke-width="0.75" stroke-linecap="round" stroke-linejoin="round"/>
<path d="M462.574 192.543C463.267 191.187 467.2 193.677 468.142 195.591C469.085 197.505 461.401 194.822 462.574 192.543Z" fill="#7F542D"/>
<path d="M451.275 190.542C450.313 191.551 456.468 192.879 457.208 191.311C457.948 189.744 452.9 188.897 451.275 190.542Z" fill="#7F542D"/>
<path d="M461.151 208.938C461.151 209.084 461.093 209.223 460.99 209.326C460.887 209.429 460.748 209.487 460.603 209.487C460.458 209.484 460.32 209.426 460.218 209.323C460.115 209.221 460.057 209.083 460.054 208.938C460.054 208.866 460.069 208.795 460.096 208.729C460.124 208.662 460.164 208.602 460.215 208.551C460.266 208.5 460.326 208.46 460.393 208.432C460.459 208.404 460.531 208.39 460.603 208.39C460.675 208.389 460.747 208.402 460.814 208.429C460.881 208.456 460.942 208.497 460.993 208.548C461.044 208.599 461.085 208.66 461.112 208.727C461.139 208.794 461.152 208.866 461.151 208.938Z" fill="#F4AF90"/>
<path d="M448.351 207.448C448.351 207.556 448.319 207.663 448.258 207.753C448.197 207.843 448.111 207.914 448.011 207.955C447.91 207.996 447.799 208.006 447.693 207.984C447.586 207.962 447.488 207.909 447.412 207.832C447.336 207.754 447.284 207.656 447.264 207.549C447.244 207.442 447.256 207.331 447.299 207.231C447.342 207.131 447.414 207.046 447.506 206.987C447.597 206.928 447.704 206.898 447.813 206.899C447.884 206.899 447.955 206.914 448.021 206.941C448.087 206.969 448.147 207.01 448.197 207.061C448.247 207.112 448.286 207.172 448.313 207.239C448.339 207.305 448.352 207.376 448.351 207.448Z" fill="#F4AF90"/>
<path d="M450.284 205.13C450.284 205.276 450.226 205.415 450.124 205.518C450.021 205.621 449.881 205.678 449.736 205.678C449.591 205.678 449.451 205.621 449.348 205.518C449.245 205.415 449.188 205.276 449.188 205.13C449.188 204.985 449.245 204.845 449.348 204.743C449.451 204.64 449.591 204.582 449.736 204.582C449.881 204.582 450.021 204.64 450.124 204.743C450.226 204.845 450.284 204.985 450.284 205.13Z" fill="#F4AF90"/>
<path d="M463.68 208.938C463.983 208.938 464.228 208.693 464.228 208.39C464.228 208.087 463.983 207.842 463.68 207.842C463.377 207.842 463.132 208.087 463.132 208.39C463.132 208.693 463.377 208.938 463.68 208.938Z" fill="#F4AF90"/>
<path d="M469.315 210.227C469.313 210.372 469.254 210.51 469.152 210.612C469.05 210.714 468.912 210.773 468.767 210.775C468.622 210.775 468.482 210.717 468.38 210.615C468.277 210.512 468.219 210.372 468.219 210.227C468.218 210.155 468.231 210.083 468.258 210.016C468.285 209.949 468.326 209.888 468.377 209.836C468.428 209.785 468.489 209.745 468.556 209.718C468.623 209.691 468.695 209.677 468.767 209.679C468.913 209.679 469.052 209.737 469.155 209.839C469.258 209.942 469.315 210.082 469.315 210.227Z" fill="#F4AF90"/>
<path d="M466.728 210.727C466.728 210.798 466.714 210.869 466.686 210.935C466.659 211.001 466.618 211.061 466.567 211.111C466.516 211.161 466.456 211.201 466.389 211.227C466.323 211.254 466.252 211.267 466.18 211.265C466.071 211.265 465.965 211.233 465.875 211.172C465.784 211.111 465.714 211.025 465.673 210.925C465.632 210.824 465.621 210.713 465.643 210.607C465.665 210.5 465.718 210.402 465.796 210.326C465.874 210.25 465.972 210.198 466.079 210.178C466.186 210.158 466.297 210.171 466.397 210.213C466.497 210.256 466.582 210.328 466.641 210.42C466.7 210.511 466.73 210.618 466.728 210.727Z" fill="#F4AF90"/>
<path d="M463.68 211.66C463.69 211.737 463.684 211.816 463.661 211.891C463.639 211.965 463.601 212.034 463.549 212.093C463.498 212.152 463.434 212.199 463.363 212.231C463.292 212.264 463.215 212.28 463.137 212.28C463.059 212.28 462.981 212.264 462.91 212.231C462.839 212.199 462.776 212.152 462.724 212.093C462.673 212.034 462.635 211.965 462.612 211.891C462.589 211.816 462.583 211.737 462.593 211.66C462.583 211.582 462.589 211.504 462.612 211.429C462.635 211.354 462.673 211.285 462.724 211.226C462.776 211.167 462.839 211.12 462.91 211.088C462.981 211.056 463.059 211.039 463.137 211.039C463.215 211.039 463.292 211.056 463.363 211.088C463.434 211.12 463.498 211.167 463.549 211.226C463.601 211.285 463.639 211.354 463.661 211.429C463.684 211.504 463.69 211.582 463.68 211.66Z" fill="#F4AF90"/>
<path d="M439.071 200.351C439.054 198.63 439.55 196.942 440.496 195.504C441.442 194.066 442.795 192.943 444.383 192.279C445.971 191.614 447.721 191.437 449.409 191.772C451.097 192.107 452.648 192.938 453.862 194.158" stroke="#683F1D" stroke-linecap="round" stroke-linejoin="round"/>
<path d="M465.094 215.574C469.884 215.574 473.768 211.69 473.768 206.9C473.768 202.109 469.884 198.226 465.094 198.226C460.303 198.226 456.419 202.109 456.419 206.9C456.419 211.69 460.303 215.574 465.094 215.574Z" stroke="#683F1D" stroke-linecap="round" stroke-linejoin="round"/>
<path d="M473.768 206.899L481.5 207.601" stroke="#683F1D" stroke-linecap="round" stroke-linejoin="round"/>
<path d="M469.767 229.835C469.767 229.835 469.517 239.451 459.949 241.673C459.067 239.267 458.583 236.734 458.516 234.172C461.66 234.028 468.007 231.806 469.767 229.835Z" fill="#F4A789"/>
<path d="M470.056 178.002C474.97 179.06 479.874 182.743 479.874 186.08" stroke="#A56F42" stroke-width="0.75" stroke-linecap="round" stroke-linejoin="round"/>
<path d="M461.151 179.964C467.469 180.791 475.633 183.964 478.46 187.974" stroke="#A56F42" stroke-width="0.75" stroke-linecap="round" stroke-linejoin="round"/>
<path d="M420.867 321.097C420.29 331.982 404.827 348.263 388.709 314.278C380.324 296.603 379.372 273.322 376.4 254.733C375.289 249.242 373.377 243.945 370.726 239.01C367.591 233.576 359.629 221.758 362.158 220.911C364.687 220.065 372.054 228.605 372.054 228.605C372.054 228.605 363.485 211.054 366.745 210.285C370.005 209.516 377.727 225.172 377.727 225.172C374.592 211.42 373.736 204.554 376.564 204.304C378.958 204.092 382.612 218.075 384.815 224.046C385.622 226.239 386.844 225.374 386.738 223.556C386.632 221.738 383.651 204.217 388.661 208.448C392.123 211.391 394.931 232.99 394.931 232.99C394.931 232.99 397.028 231.47 398.778 226.537C400.23 222.498 404.452 223.239 403.586 230.941C402.721 238.644 396.71 249.213 396.71 249.213C396.47 254.521 401.894 270.369 404.182 275.033C406.471 279.697 415.299 299.671 415.299 299.671C415.299 299.671 421.463 309.749 420.867 321.097Z" fill="#FEBD9D"/>
<path d="M367.486 233.586C364.101 228.008 360.302 221.478 362.158 220.853C364.697 220.007 372.053 228.547 372.053 228.547C372.053 228.547 363.485 210.996 366.745 210.227C370.005 209.458 377.727 225.113 377.727 225.113C374.592 211.362 373.736 204.496 376.564 204.246C378.958 204.034 382.612 218.016 384.815 223.988C385.622 226.181 386.844 225.315 386.738 223.498C386.632 221.68 383.651 204.159 388.661 208.39C392.123 211.333 394.931 232.932 394.931 232.932C394.931 232.932 397.028 231.412 398.778 226.479C400.23 222.44 404.452 223.181 403.586 230.883C403.153 234.855 401.326 239.586 399.672 243.241" stroke="#EF8A66" stroke-width="0.75" stroke-linecap="round" stroke-linejoin="round"/>
<path d="M374.91 228.412C378.083 226.123 383.805 225.873 383.805 225.873" stroke="#EF8A66" stroke-width="0.75" stroke-linecap="round" stroke-linejoin="round"/>
<path d="M394.854 232.932C394.854 232.932 388.306 231.97 386.344 238.471" stroke="#EF8A66" stroke-width="0.75" stroke-linecap="round" stroke-linejoin="round"/>
<path d="M421.194 316.288C419.801 310.562 417.825 304.994 415.299 299.67" stroke="#EF8A66" stroke-width="0.75" stroke-linecap="round" stroke-linejoin="round"/>
<path d="M395.893 227.143C395.893 227.143 402.413 230.99 402.413 230.74C402.413 230.49 411.337 214.266 411.337 214.266L402.577 210.228L395.893 227.143Z" stroke="#DDDDDD" stroke-linecap="round" stroke-linejoin="round"/>
<path d="M383.824 214.901L394.854 212.189L390.594 188.792L378.853 191.34L383.824 214.901Z" stroke="#DDDDDD" stroke-linecap="round" stroke-linejoin="round"/>
<path d="M363.976 189.792L376.169 187.397L381.074 209.352L371.073 211.045L363.976 189.792Z" stroke="#DDDDDD" stroke-linecap="round" stroke-linejoin="round"/>
<path d="M345.541 212.179L355.734 204.246L367.111 222.18L358.937 228.547L345.541 212.179Z" stroke="#DDDDDD" stroke-linecap="round" stroke-linejoin="round"/>
<path d="M263.781 352.225C257.895 363.332 252.414 388.556 250.193 399.923C250.193 399.923 269.426 407.501 299.968 406.453C330.51 405.405 336.684 400.048 336.684 400.048C336.684 400.048 340.348 363.861 330.673 348.571L263.781 352.225Z" fill="#FFB63F"/>
<mask id="mask1_89_2902" style="mask-type:luminance" maskUnits="userSpaceOnUse" x="250" y="348" width="88" height="59">
<path d="M263.781 352.225C257.895 363.332 252.414 388.556 250.193 399.923C250.193 399.923 269.426 407.501 299.968 406.453C330.51 405.405 336.684 400.048 336.684 400.048C336.684 400.048 340.348 363.861 330.673 348.571L263.781 352.225Z" fill="white"/>
</mask>
<g mask="url(#mask1_89_2902)">
<path d="M337.463 356.879H332.51V361.832H337.463V356.879Z" stroke="white" stroke-width="0.75" stroke-linecap="round" stroke-linejoin="round"/>
<path d="M313.344 356.879H308.392V361.832H313.344V356.879Z" stroke="white" stroke-width="0.75" stroke-linecap="round" stroke-linejoin="round"/>
<path d="M289.226 356.879H284.273V361.832H289.226V356.879Z" stroke="white" stroke-width="0.75" stroke-linecap="round" stroke-linejoin="round"/>
<path d="M265.098 356.879H260.146V361.832H265.098V356.879Z" stroke="white" stroke-width="0.75" stroke-linecap="round" stroke-linejoin="round"/>
<path d="M337.463 387.489H332.51V392.442H337.463V387.489Z" stroke="white" stroke-width="0.75" stroke-linecap="round" stroke-linejoin="round"/>
<path d="M313.344 387.489H308.392V392.442H313.344V387.489Z" stroke="white" stroke-width="0.75" stroke-linecap="round" stroke-linejoin="round"/>
<path d="M289.226 387.489H284.273V392.442H289.226V387.489Z" stroke="white" stroke-width="0.75" stroke-linecap="round" stroke-linejoin="round"/>
<path d="M265.098 387.489H260.146V392.442H265.098V387.489Z" stroke="white" stroke-width="0.75" stroke-linecap="round" stroke-linejoin="round"/>
<path d="M254.029 339.099H244.134V348.994H254.029V339.099Z" stroke="white" stroke-width="0.75" stroke-linecap="round" stroke-linejoin="round"/>
<path d="M278.744 339.099H268.849V348.994H278.744V339.099Z" stroke="white" stroke-width="0.75" stroke-linecap="round" stroke-linejoin="round"/>
<path d="M303.459 339.099H293.563V348.994H303.459V339.099Z" stroke="white" stroke-width="0.75" stroke-linecap="round" stroke-linejoin="round"/>
<path d="M328.173 339.099H318.278V348.994H328.173V339.099Z" stroke="white" stroke-width="0.75" stroke-linecap="round" stroke-linejoin="round"/>
<path d="M254.029 369.708H244.134V379.603H254.029V369.708Z" stroke="white" stroke-width="0.75" stroke-linecap="round" stroke-linejoin="round"/>
<path d="M278.744 369.708H268.849V379.603H278.744V369.708Z" stroke="white" stroke-width="0.75" stroke-linecap="round" stroke-linejoin="round"/>
<path d="M303.459 369.708H293.563V379.603H303.459V369.708Z" stroke="white" stroke-width="0.75" stroke-linecap="round" stroke-linejoin="round"/>
<path d="M328.173 369.708H318.278V379.603H328.173V369.708Z" stroke="white" stroke-width="0.75" stroke-linecap="round" stroke-linejoin="round"/>
<path d="M254.029 400.317H244.134V410.213H254.029V400.317Z" stroke="white" stroke-width="0.75" stroke-linecap="round" stroke-linejoin="round"/>
<path d="M278.744 400.317H268.849V410.213H278.744V400.317Z" stroke="white" stroke-width="0.75" stroke-linecap="round" stroke-linejoin="round"/>
<path d="M303.459 400.317H293.563V410.213H303.459V400.317Z" stroke="white" stroke-width="0.75" stroke-linecap="round" stroke-linejoin="round"/>
<path d="M328.173 400.317H318.278V410.213H328.173V400.317Z" stroke="white" stroke-width="0.75" stroke-linecap="round" stroke-linejoin="round"/>
</g>
<path d="M271.811 344.176C271.811 344.176 259.703 354.235 259.069 355.398C251.135 368.063 227.632 378.19 216.487 364.794C202.274 347.696 232.758 333.598 232.758 333.598C232.758 333.598 235.643 327.76 235.739 327.366L267.397 333.598L271.811 344.176Z" fill="#FEBD9D"/>
<path d="M343.54 292.025C342.704 298.286 337.386 336.386 334.741 345.089C332.097 353.792 326.144 356.447 322.749 356.447C320.701 356.447 312.585 356.716 302.939 357.072C296.612 357.293 289.62 357.572 283.273 357.822C267.243 358.456 259.069 355.389 259.069 355.389L259.434 354.706L266.396 341.897C261.416 342.914 256.291 343.002 251.279 342.156C249.981 341.931 248.697 341.632 247.433 341.262C241.73 339.608 237.431 334.79 234.835 331.03C233.743 329.465 232.779 327.815 231.95 326.097C236.218 315.85 241.093 305.866 246.548 296.199C250.904 288.592 254.328 283.755 255.934 282.149C259.117 278.976 268.772 276.11 277.186 274.379L292.438 270.263C292.438 270.263 302.526 245.116 302.526 244.799C302.526 244.481 334.039 236.211 334.039 236.211C339.934 248.218 343.42 261.263 344.3 274.61C344.636 280.426 344.382 286.261 343.54 292.025Z" fill="#C3DCF8"/>
<path d="M302.939 357.071C296.612 357.293 289.621 357.571 283.274 357.822C267.243 358.456 259.069 355.389 259.069 355.389L259.434 354.706L266.397 341.897C271.23 332.263 275.485 322.35 279.139 312.21C279.215 311.979 279.312 311.758 279.389 311.537C280.741 314.082 281.404 316.937 281.312 319.817C281.11 327.318 267.002 347.051 277.735 351.475C288.111 355.715 296.141 348.503 302.939 357.071Z" fill="#A7CAF0"/>
<path d="M344.252 274.61C339.271 278.86 333.568 285.034 332.289 291.852C329.895 304.527 312.623 316.644 294.862 302.007C280.062 289.813 268.493 286.515 246.5 296.237C250.856 288.631 254.28 283.793 255.886 282.187C259.069 279.014 268.724 276.148 277.138 274.417L292.39 270.301C292.39 270.301 295.477 216.757 295.477 216.449C295.477 216.141 330.164 223.969 330.164 223.969C337.405 238.99 343.656 264.56 344.252 274.61Z" fill="#D0E5F7"/>
<path d="M316.431 270.263C318.839 270.039 321.21 269.519 323.49 268.715" stroke="#83ADDF" stroke-width="0.75" stroke-linecap="round" stroke-linejoin="round"/>
<path d="M266.396 341.897C271.23 332.263 275.484 322.35 279.138 312.211C279.215 311.98 279.312 311.759 279.388 311.537C280.03 309.723 280.671 307.87 281.312 305.979" stroke="#83ADDF" stroke-width="0.75" stroke-linecap="round" stroke-linejoin="round"/>
<path d="M216.506 364.813C205.976 353.802 202.149 334.895 199.812 325.856C196.927 314.826 191.513 283.822 190.859 279.148C190.205 274.475 193.465 259.819 193.465 259.819C196.609 258.656 202.331 260.887 207.89 263.829L206.572 269.484C206.338 273.048 205.492 276.544 204.072 279.822C205.738 281.093 207.128 282.689 208.159 284.514L218.997 281.629C216.737 287.563 214.188 294.785 214.246 297.016C214.371 301.074 218.006 310.354 222.026 316.316C226.046 322.279 232.758 333.597 232.758 333.597C253.251 355.831 238.913 382.94 216.506 364.813Z" fill="#FEBD9D"/>
<path d="M193.436 259.79C193.436 259.79 190.195 274.455 190.839 279.119" stroke="#EF8A66" stroke-width="0.75" stroke-linecap="round" stroke-linejoin="round"/>
<path d="M196.427 238.961C196.427 238.961 200.485 265.224 201.879 274.475C190.532 275.792 185.839 258.829 194.465 252.895C186.666 247.847 186.454 232.768 196.254 230.883C193.917 223.122 205.87 213.333 214.352 218.872C217.102 208.832 232.258 208.4 237.576 216.766L199.533 226.854L200.283 237.749C198.927 238.163 197.609 238.567 196.427 238.961Z" fill="#DDDDDD"/>
<path d="M203.024 277.514L203.581 285.678L246.51 274.379C246.51 274.379 248.779 255.376 241.509 218.661C241.336 217.699 241.153 216.824 240.951 215.881L237.576 216.766L234.556 217.574L199.533 226.854L200.283 237.749" fill="#EDEDED"/>
<path d="M203.024 277.514L203.581 285.678L246.51 274.379C246.51 274.379 248.779 255.376 241.509 218.661C241.336 217.699 241.153 216.824 240.951 215.881L237.576 216.766L234.556 217.574L199.533 226.854L200.283 237.749" stroke="#DDDDDD" stroke-linecap="round" stroke-linejoin="round"/>
<path d="M233.912 267.031C233.912 267.031 202.331 278.138 202.331 277.61C202.331 277.523 202.148 276.35 201.879 274.455C200.485 265.204 196.427 238.941 196.427 238.941C197.609 238.547 198.898 238.143 200.273 237.72C211.476 234.325 227.825 230.219 227.825 230.219L233.912 267.031Z" fill="#DDDDDD"/>
<path d="M204.024 246.106L220.91 241.942" stroke="white" stroke-linecap="round" stroke-linejoin="round"/>
<path d="M205.206 252.809L224.622 248.414" stroke="white" stroke-linecap="round" stroke-linejoin="round"/>
<path d="M208.918 259.473L220.91 256.588" stroke="white" stroke-linecap="round" stroke-linejoin="round"/>
<path d="M192.772 279.639C195.907 272.907 202.985 265.464 205.658 267.33C208.332 269.195 204.024 279.831 204.024 279.831C207.472 282.53 209.726 286.472 210.303 290.813C210.303 290.813 195.436 296.939 192.772 279.639Z" fill="#FEBD9D"/>
<path d="M192.772 279.639C195.907 272.907 202.985 265.464 205.658 267.33C208.332 269.195 204.024 279.831 204.024 279.831C207.472 282.53 209.726 286.472 210.303 290.813" stroke="#EF8A66" stroke-width="0.75" stroke-linecap="round" stroke-linejoin="round"/>
<path d="M275.542 148.229C272.32 137.872 270.33 130.737 268.426 125.919C265.781 119.187 268.964 115.273 273.686 125.409C275.773 129.9 278.273 135.41 278.273 135.41C278.273 135.41 286.178 134.064 289.813 137.036C293.448 140.007 296.141 146.95 297.237 158.596C297.237 158.596 305.286 175.002 308.017 181.012C310.748 187.022 323.798 213.439 330.135 223.988C335.992 240.663 300.593 253.944 295.448 216.41C295.448 216.41 289.274 197.504 287.87 190.446C286.466 183.387 280.677 163.808 280.677 163.808C280.677 163.808 270.916 153.807 269.743 152.268C268.57 150.729 263.973 138.911 265.897 138.122C267.82 137.334 270.897 139.69 273.244 147.037L275.542 148.229Z" fill="#FEBD9D"/>
<path d="M269.772 152.268C268.608 150.701 264.002 138.911 265.925 138.122C267.849 137.334 270.926 139.69 273.272 147.037L275.523 148.229C272.301 137.872 270.311 130.737 268.406 125.919C265.762 119.187 268.945 115.273 273.667 125.409C275.754 129.9 278.254 135.41 278.254 135.41C278.254 135.41 283.928 134.449 287.87 135.949" stroke="#EF8A66" stroke-width="0.75" stroke-linecap="round" stroke-linejoin="round"/>
<path d="M278.273 135.41L280.264 139.997" stroke="#EF8A66" stroke-width="0.75" stroke-linecap="round" stroke-linejoin="round"/>
<path d="M283.148 135.131L285.158 139.574" stroke="#EF8A66" stroke-width="0.75" stroke-linecap="round" stroke-linejoin="round"/>
<path d="M287.707 135.853L289.717 140.305" stroke="#EF8A66" stroke-width="0.75" stroke-linecap="round" stroke-linejoin="round"/>
<path d="M322.913 222.401C329.356 220.382 334.453 221.305 336.27 228.979C338.088 236.653 329.625 243.404 320.99 241.663L322.913 222.401Z" fill="#B57724"/>
<path d="M327.51 230.239C327.384 232.507 326.944 234.746 326.202 236.893C324.244 242.226 320.87 246.924 316.441 250.481L312.594 256.905C312.594 256.905 283.889 262.781 284.303 217.824C281.591 214.516 282.456 207.245 290.361 201.476C302.151 192.936 321.682 202.976 318.682 216.622C318.653 216.622 328.202 216.381 327.51 230.239Z" fill="#BF8228"/>
<path d="M286.745 215.795C285.062 210.025 290.409 203.486 292.265 202.553" stroke="#9B621F" stroke-width="0.75" stroke-linecap="round" stroke-linejoin="round"/>
<path d="M326.202 236.893C324.244 242.226 320.87 246.924 316.441 250.481L312.594 256.905C312.594 256.905 283.889 262.781 284.303 217.824L293.919 204.591C293.688 205.149 289.832 223.449 296.804 239.672C302.632 253.309 321.201 244.288 326.202 236.893Z" fill="#B57724"/>
<path d="M316.431 250.501C314.685 255.836 313.812 261.418 313.845 267.031C304.747 271.657 295.525 272.724 286.12 268.734C286.12 268.734 286.63 265.935 286.976 262.887C287.226 261.003 287.326 259.103 287.274 257.203C279.369 257.309 274.042 251.164 273.859 242.134C273.823 239.143 274.254 236.164 275.138 233.306C275.575 231.849 276.102 230.42 276.715 229.027C276.715 229.027 274.859 226.815 275.119 225.132C275.378 223.449 280.696 220.872 280.696 220.872C285.389 211.736 293.91 204.524 293.91 204.524C293.91 204.524 287.486 212.371 289.197 225.026C289.197 225.026 295.996 220.43 297.429 228.45C298.641 235.23 293.275 238.643 291.332 239.634C291.126 239.744 290.914 239.844 290.698 239.932C290.698 239.932 292.39 251.972 303.584 253.626C305.825 254.028 308.125 253.958 310.338 253.42C312.55 252.882 314.626 251.888 316.431 250.501Z" fill="#FEBD9D"/>
<path d="M284.831 221.622C285.591 221.622 286.207 221.007 286.207 220.247C286.207 219.488 285.591 218.872 284.831 218.872C284.072 218.872 283.456 219.488 283.456 220.247C283.456 221.007 284.072 221.622 284.831 221.622Z" fill="#683F1D"/>
<path d="M307.844 216.987C316.893 214.102 319.384 230.883 315.912 237.182C312.95 242.538 300.016 241.557 298.881 231.989C297.746 222.421 305.767 217.651 307.844 216.987Z" fill="#B57724"/>
<path d="M306.709 221.238C308.431 218.353 311.191 219.199 312.633 221.344C314.076 223.488 315.431 229.672 310.652 230.191C304.786 230.826 304.767 224.488 306.709 221.238Z" fill="#BF8228"/>
<path d="M287.014 230.883C289.409 227.748 292.909 227.575 294.179 229.316" stroke="#EF8A66" stroke-width="0.75" stroke-linecap="round" stroke-linejoin="round"/>
<path d="M287.447 230.364C292.611 229.095 291.919 237.682 285.995 234.662" stroke="#EF8A66" stroke-width="0.75" stroke-linecap="round" stroke-linejoin="round"/>
<path d="M291.342 239.672C289.486 240.319 287.485 240.426 285.572 239.98" stroke="#EF8A66" stroke-width="0.75" stroke-linecap="round" stroke-linejoin="round"/>
<path d="M306.219 217.756C306.219 217.756 297.852 228.133 304.228 233.297C310.604 238.461 315.114 231.71 315.114 231.71" stroke="#9B621F" stroke-width="0.75" stroke-linecap="round" stroke-linejoin="round"/>
<path d="M301.295 218.872C298.759 215.174 297.153 210.918 296.612 206.467" stroke="#9B621F" stroke-width="0.75" stroke-linecap="round" stroke-linejoin="round"/>
<path d="M287.082 213.025C288.274 211.41 291.669 214.689 291.669 217.43C291.669 218.814 285.226 215.545 287.082 213.025Z" fill="#BF8228"/>
<path d="M293.919 204.563C293.919 204.563 308.854 196.379 316.874 217.757" stroke="#9B621F" stroke-width="0.75" stroke-linecap="round" stroke-linejoin="round"/>
<path d="M299.285 206.005C302.603 208.101 307.603 214.66 307.603 214.66" stroke="#9B621F" stroke-width="0.75" stroke-linecap="round" stroke-linejoin="round"/>
<path d="M307.882 219.92C307.401 222.209 305.084 228.825 313.248 228.209" stroke="#9B621F" stroke-width="0.75" stroke-linecap="round" stroke-linejoin="round"/>
<path d="M326.529 235.874C326.529 235.874 335.251 231.806 333.058 225.123" stroke="#9B621F" stroke-width="0.75" stroke-linecap="round" stroke-linejoin="round"/>
<path d="M327.481 227.132C328.933 226.68 330.52 223.699 330.52 223.699" stroke="#9B621F" stroke-width="0.75" stroke-linecap="round" stroke-linejoin="round"/>
<path d="M295.14 236.768C297.41 238.691 302.295 248.683 319.893 242.644" stroke="#9B621F" stroke-width="0.75" stroke-linecap="round" stroke-linejoin="round"/>
<path d="M315.46 220.767C324.971 222.805 323.365 232.778 320.99 236.769" stroke="#9B621F" stroke-width="0.75" stroke-linecap="round" stroke-linejoin="round"/>
<path d="M278.1 232.807C278.494 234.432 280.533 235.336 282.658 234.817C284.783 234.297 286.168 232.566 285.774 230.97C285.38 229.374 283.331 228.441 281.216 228.96C279.1 229.479 277.706 231.181 278.1 232.807Z" fill="#F4AF90"/>
<path d="M298.141 247.923C303.911 251.482 314.162 250.876 320.576 246.481" stroke="#9B621F" stroke-width="0.75" stroke-linecap="round" stroke-linejoin="round"/>
<path d="M294.179 207.024C293.217 212.458 294.487 220.718 295.862 222.815" stroke="#9B621F" stroke-width="0.75" stroke-linecap="round" stroke-linejoin="round"/>
<path d="M296.612 234.624C300.016 238.105 308.305 241.807 315.575 237.72" stroke="#9B621F" stroke-width="0.75" stroke-linecap="round" stroke-linejoin="round"/>
<path d="M279.985 235.605C279.357 236.615 278.475 237.444 277.427 238.007C276.379 238.571 275.202 238.85 274.013 238.817C274.15 237.521 274.371 236.236 274.676 234.97C274.763 234.624 274.859 234.258 274.965 233.893C276.38 235.045 278.161 235.652 279.985 235.605Z" fill="white" stroke="#EF8A66" stroke-width="0.75" stroke-linecap="round" stroke-linejoin="round"/>
<path d="M276.725 229.027C276.725 229.027 274.696 226.44 275.128 225.132C275.561 223.824 278.908 221.555 280.706 220.872" stroke="#EF8A66" stroke-width="0.75" stroke-linecap="round" stroke-linejoin="round"/>
<path d="M294.131 255.001C294.098 256.966 293.349 258.851 292.024 260.303C290.7 261.755 288.891 262.674 286.938 262.887C287.188 261.003 287.287 259.103 287.236 257.203C290.592 257.703 294.131 255.001 294.131 255.001Z" fill="#F4A789"/>
<path d="M123.139 76.5666C122.594 76.5326 122.051 76.4652 121.514 76.3647L100.742 104.253L100.136 104.108L85.644 100.512C81.1243 102.435 79.1817 98.0308 80.5858 94.7996C80.0472 95.3574 76.5276 95.0112 78.1143 91.3569C74.7774 92.2224 71.8732 84.7984 76.5083 82.5385C72.5271 83.0001 74.0946 74.1625 78.3259 75.8069C74.9697 73.6144 79.8741 64.0459 85.644 67.2194C83.4996 65.0268 86.7307 60.0262 90.4523 61.6129C87.952 57.5259 97.1839 50.4577 102.329 56.8623C102.713 53.9774 106.473 52.9677 108.099 56.1026C107.974 52.458 114.773 51.5733 114.263 57.4874C116.504 54.6025 122.033 59.3242 119.215 63.1419C122.408 59.478 129.669 64.6518 125.726 68.9984C130.178 70.6044 129.784 76.9225 123.139 76.5666Z" fill="#604730"/>
<path d="M123.139 76.5663C122.593 76.5323 122.051 76.4649 121.514 76.3644L100.742 104.252L100.136 104.108L96.8183 98.5594C87.4422 99.271 84.8553 92.8664 88.5577 87.9235C85.6727 86.5387 86.7209 76.7779 92.6928 77.3453C91.0676 74.1237 95.1065 65.113 103.752 69.2578C104.713 65.5362 110.483 63.9879 114.07 69.2578C115.561 66.0074 124.61 65.8535 123.139 76.5663Z" fill="#473526"/>
<path d="M114.946 121.274C113.609 134.737 93.3757 131.948 94.2508 122.947C94.2678 118.56 93.8977 114.18 93.1449 109.859C88.3366 109.618 85.5286 107.637 85.6921 102.56C85.8555 97.4822 92.039 93.4433 98.7032 97.9631C99.3504 96.3017 99.5586 94.5015 99.3076 92.7362C99.0566 90.971 98.355 89.3001 97.2704 87.8849C93.5295 82.6055 99.0014 75.8739 104.079 75.8739C109.156 75.8739 119.465 76.1143 119.312 70.479C123.165 76.9432 126.147 83.8889 128.178 91.1353C128.264 91.4334 128.341 91.7316 128.418 92.0297C128.861 93.7414 129.245 95.5109 129.543 97.2995C129.601 97.6265 129.649 97.9631 129.707 98.2612C129.765 98.5593 129.784 98.7324 129.813 98.9728C131.957 113.494 129.159 122.418 114.946 121.274Z" fill="#B25E47"/>
<path d="M111.32 89.3371C111.318 89.6118 111.398 89.8808 111.55 90.11C111.701 90.3392 111.917 90.5182 112.171 90.6242C112.424 90.7302 112.703 90.7584 112.973 90.7053C113.242 90.6522 113.49 90.5201 113.684 90.3259C113.879 90.1316 114.011 89.884 114.064 89.6145C114.117 89.345 114.089 89.0658 113.983 88.8123C113.877 88.5589 113.698 88.3427 113.468 88.1913C113.239 88.0399 112.97 87.96 112.696 87.9619C112.332 87.9645 111.983 88.1101 111.726 88.3675C111.469 88.6248 111.323 88.9732 111.32 89.3371Z" fill="#683F1D"/>
<path d="M120.6 86.5483C120.584 86.7392 120.608 86.9313 120.67 87.1126C120.732 87.2938 120.831 87.4602 120.961 87.6011C121.091 87.7421 121.248 87.8547 121.424 87.9316C121.599 88.0086 121.789 88.0484 121.98 88.0484C122.172 88.0484 122.361 88.0086 122.537 87.9316C122.712 87.8547 122.87 87.7421 122.999 87.6011C123.129 87.4602 123.228 87.2938 123.29 87.1126C123.352 86.9313 123.376 86.7392 123.36 86.5483C123.331 86.2022 123.173 85.8796 122.918 85.6445C122.662 85.4093 122.328 85.2788 121.98 85.2788C121.633 85.2788 121.298 85.4093 121.043 85.6445C120.787 85.8796 120.629 86.2022 120.6 86.5483Z" fill="#683F1D"/>
<path d="M96.8184 105.685C92.8756 107.772 90.7888 102.531 95.5201 101.743C94.9644 101.361 94.3345 101.1 93.6713 100.977C93.0082 100.854 92.3266 100.872 91.6709 101.03C91.0152 101.188 90.4 101.482 89.8653 101.893C89.3306 102.304 88.8884 102.823 88.5674 103.416" stroke="#934735" stroke-width="0.75" stroke-linecap="round" stroke-linejoin="round"/>
<path d="M117.359 79.23C116.975 82.4515 116.898 86.0481 117.359 86.5482C117.821 87.0482 123.572 90.9814 124.302 91.4718C125.033 91.9623 123.533 94.0971 121.216 94.9146" stroke="#934735" stroke-width="0.75" stroke-linecap="round" stroke-linejoin="round"/>
<path d="M116.148 109.311C118.869 110.955 125.197 104.33 122.745 101.733C118.552 97.2999 114.119 108.08 116.148 109.311Z" fill="white" stroke="#934735" stroke-width="0.75" stroke-linecap="round" stroke-linejoin="round"/>
<path d="M104.088 81.8269C107.118 76.9513 112.012 75.7781 112.618 77.5956C113.772 81.0479 101.607 85.8177 104.088 81.8269Z" fill="#604730"/>
<path d="M119.465 81.0766C119.465 79.211 124.274 81.3939 124.793 82.7691C125.312 84.1443 119.427 83.6731 119.465 81.0766Z" fill="#604730"/>
<path d="M115.311 99.031C114.83 101.06 112.013 102.137 109.022 101.435C106.031 100.733 103.983 98.5501 104.454 96.4826C104.925 94.415 107.752 93.3764 110.743 94.0784C113.734 94.7804 115.782 97.0307 115.311 99.031Z" fill="#A0503D"/>
<path d="M129.688 98.2517C129.076 98.3749 128.443 98.333 127.853 98.1302C127.263 97.9273 126.738 97.571 126.331 97.0977C125.149 95.511 125.995 92.9049 128.159 91.0874C128.245 91.3855 128.322 91.6836 128.399 91.9817C128.841 93.6935 129.226 95.4629 129.524 97.2516C129.601 97.5786 129.688 97.9151 129.688 98.2517Z" fill="#A0503D"/>
<path d="M147.296 357.898H147.344C147.344 357.898 151.354 349.407 145.084 345.089C140.382 341.848 129.986 342.483 128.294 339.482C127.851 338.704 131.919 331.501 137.381 322.528C144.632 310.671 154.345 295.727 159.365 288.524C168.154 275.898 173.039 262.185 157.874 246.087C149.104 238.653 136.17 247.77 128.37 268.685C125.562 276.234 115.35 303.093 111.003 314.46C107.156 324.529 104.502 331.097 103.358 333.011C103.175 333.328 102.954 333.713 102.733 334.126C100.059 339.155 95.0395 351.167 97.4821 356.359" fill="#B25E47"/>
<path d="M147.344 357.889C147.344 357.889 101.021 361.803 97.4821 356.379C94.0875 351.176 100.954 337.146 103.358 333.03C104.502 331.107 107.128 324.548 111.003 314.48C119.35 313.133 129.544 313.826 137.381 322.519C131.919 331.491 127.851 338.694 128.294 339.473C129.986 342.473 140.382 341.839 145.084 345.079C151.354 349.397 147.344 357.889 147.344 357.889Z" fill="#683F1D"/>
<path d="M129.072 340.329C125.514 338.859 122.066 337.136 118.754 335.175C114.436 332.549 108.31 332.366 102.761 334.117C102.973 333.713 103.185 333.367 103.358 333.068C104.502 331.145 107.127 324.587 111.003 314.518C119.35 313.172 129.544 313.864 137.381 322.558C131.919 331.53 127.851 338.733 128.293 339.512C128.488 339.84 128.754 340.119 129.072 340.329Z" fill="white"/>
<path d="M130.938 343.867C136.025 336.799 143.93 333.289 144.036 337.501C144.142 341.713 132.246 345.858 132.246 345.858" stroke="#683F1D" stroke-width="0.75" stroke-linecap="round" stroke-linejoin="round"/>
<path d="M130.938 341.887C130.525 335.973 137.362 327 140.353 328.02C144.449 329.424 135.333 339.56 129.649 344.166" stroke="#683F1D" stroke-width="0.75" stroke-linecap="round" stroke-linejoin="round"/>
<path d="M212.13 55.6216C214.611 46.9667 215.294 37.254 217.9 36.8886C220.506 36.5231 219.564 43.9375 219.564 43.9375L222.055 46.8898L213.294 57.6026L212.13 55.6216Z" fill="#B25E47"/>
<path d="M213.64 49.4384C215.044 42.8895 215.919 37.1677 217.929 36.9369C220.574 36.5715 219.593 43.9858 219.593 43.9858" stroke="#934735" stroke-width="0.75" stroke-linecap="round" stroke-linejoin="round"/>
<path d="M246.192 51.506C244.363 52.8902 242.435 54.1373 240.422 55.2372C240.422 55.2372 234.998 66.9405 228.161 69.1427C228.161 69.1427 222.583 85.7889 215.66 101.993C208.736 118.197 190.435 133.92 190.435 133.92C165.327 149.21 144.718 119.149 174.76 100.877C177.858 98.8486 180.756 96.5303 183.415 93.9534C200.09 77.461 226.401 32.7249 229.027 28.6859C231.652 24.647 234.114 25.5317 232.008 31.6671C229.979 37.6197 228.43 42.2453 228.344 42.5434C228.757 42.1202 239.499 31.3401 241.807 29.3879C243.961 27.5993 247.25 29.2148 243.384 35.004C247.231 30.0034 250.914 30.5612 247.231 37.6389C244.952 42.0145 239.643 48.7941 239.316 49.1788C239.826 48.9191 248.414 44.4282 250.856 44.9379C253.299 45.4476 250 48.7557 246.192 51.506Z" fill="#B25E47"/>
<path d="M217.794 46.7841C223.699 37.4368 228.026 30.1763 229.017 28.6569C231.652 24.6276 234.104 25.5027 231.998 31.638C229.969 37.5907 228.421 42.2162 228.334 42.5143C228.748 42.0912 239.489 31.3111 241.797 29.3589C243.951 27.5702 247.24 29.1858 243.374 34.975C247.221 29.9744 250.904 30.5321 247.221 37.6099C244.942 41.9854 239.634 48.7651 239.307 49.1497C239.816 48.8901 248.404 44.3992 250.846 44.9088C253.289 45.4185 249.885 48.7555 246.096 51.4577C244.267 52.8419 242.339 54.089 240.326 55.1889" stroke="#934735" stroke-width="0.75" stroke-linecap="round" stroke-linejoin="round"/>
<path d="M243.403 34.9746C239.278 40.7445 233.315 47.5819 233.315 47.5819" stroke="#934735" stroke-width="0.75" stroke-linecap="round" stroke-linejoin="round"/>
<path d="M32.7147 300.401C32.0704 303.651 35.9843 309.623 46.0721 312.277L48.6493 294.073C42.8695 294.728 37.3688 296.912 32.7147 300.401Z" fill="#83ADDF"/>
<path d="M42.8602 294.073C42.5044 313.537 41.4177 321.298 41.4177 322.557C41.4177 322.557 28.4354 355.927 24.6465 382.805C24.6465 382.805 32.2243 396.153 54.5924 390.566C54.5924 390.566 71.0078 344.406 74.4313 332.299C77.8548 320.192 78.4029 303.17 78.4029 303.17L42.8602 294.073Z" fill="#B25E47"/>
<path d="M24.6079 174.367C25.1171 175.889 25.928 177.292 26.9921 178.493C28.0562 179.695 29.3517 180.669 30.801 181.358L35.9554 173.53C32.1788 172.611 28.2089 172.904 24.6079 174.367Z" fill="#F7AD2B"/>
<path d="M32.6088 170.924C23.7809 183.608 14.4432 198.427 18.3956 210.4C22.348 222.372 43.8698 224.901 57.0541 210.4L61.8624 177.184L32.6088 170.924Z" fill="#B25E47"/>
<path d="M54.5634 201.188C49.0435 214.651 39.6481 251.54 32.7146 300.401C32.7146 300.401 63.8433 298.478 79.1048 309.902C79.5375 309.181 87.1731 264.705 88.0386 263.099C88.904 261.493 94.2316 261.233 95.5298 262.089C96.8281 262.945 125.966 280.793 129.188 281.822C147.084 287.438 167.192 257.271 157.883 246.087C153.912 241.279 142.901 230.826 126.485 202.745L54.5634 201.188Z" fill="#A7CAF0"/>
<mask id="mask2_89_2902" style="mask-type:luminance" maskUnits="userSpaceOnUse" x="32" y="201" width="129" height="109">
<path d="M54.5634 201.188C49.0435 214.651 39.6481 251.54 32.7146 300.401C32.7146 300.401 63.8433 298.478 79.1048 309.902C79.5375 309.181 87.1731 264.705 88.0386 263.099C88.904 261.493 94.2316 261.233 95.5298 262.089C96.8281 262.945 125.966 280.793 129.188 281.822C147.084 287.438 167.192 257.271 157.883 246.087C153.912 241.279 142.901 230.826 126.485 202.745L54.5634 201.188Z" fill="white"/>
</mask>
<g mask="url(#mask2_89_2902)">
<path d="M158.942 221.921H153.989V226.873H158.942V221.921Z" stroke="white" stroke-width="0.75" stroke-linecap="round" stroke-linejoin="round"/>
<path d="M134.813 221.921H129.861V226.873H134.813V221.921Z" stroke="white" stroke-width="0.75" stroke-linecap="round" stroke-linejoin="round"/>
<path d="M110.695 221.921H105.743V226.873H110.695V221.921Z" stroke="white" stroke-width="0.75" stroke-linecap="round" stroke-linejoin="round"/>
<path d="M86.577 221.921H81.6245V226.873H86.577V221.921Z" stroke="white" stroke-width="0.75" stroke-linecap="round" stroke-linejoin="round"/>
<path d="M62.4491 221.921H57.4966V226.873H62.4491V221.921Z" stroke="white" stroke-width="0.75" stroke-linecap="round" stroke-linejoin="round"/>
<path d="M38.3309 221.921H33.3784V226.873H38.3309V221.921Z" stroke="white" stroke-width="0.75" stroke-linecap="round" stroke-linejoin="round"/>
<path d="M158.942 252.521H153.989V257.474H158.942V252.521Z" stroke="white" stroke-width="0.75" stroke-linecap="round" stroke-linejoin="round"/>
<path d="M134.813 252.521H129.861V257.474H134.813V252.521Z" stroke="white" stroke-width="0.75" stroke-linecap="round" stroke-linejoin="round"/>
<path d="M110.695 252.521H105.743V257.474H110.695V252.521Z" stroke="white" stroke-width="0.75" stroke-linecap="round" stroke-linejoin="round"/>
<path d="M86.577 252.521H81.6245V257.474H86.577V252.521Z" stroke="white" stroke-width="0.75" stroke-linecap="round" stroke-linejoin="round"/>
<path d="M62.4491 252.521H57.4966V257.474H62.4491V252.521Z" stroke="white" stroke-width="0.75" stroke-linecap="round" stroke-linejoin="round"/>
<path d="M38.3309 252.521H33.3784V257.474H38.3309V252.521Z" stroke="white" stroke-width="0.75" stroke-linecap="round" stroke-linejoin="round"/>
<path d="M158.942 283.13H153.989V288.083H158.942V283.13Z" stroke="white" stroke-width="0.75" stroke-linecap="round" stroke-linejoin="round"/>
<path d="M134.813 283.13H129.861V288.083H134.813V283.13Z" stroke="white" stroke-width="0.75" stroke-linecap="round" stroke-linejoin="round"/>
<path d="M110.695 283.13H105.743V288.083H110.695V283.13Z" stroke="white" stroke-width="0.75" stroke-linecap="round" stroke-linejoin="round"/>
<path d="M86.577 283.13H81.6245V288.083H86.577V283.13Z" stroke="white" stroke-width="0.75" stroke-linecap="round" stroke-linejoin="round"/>
<path d="M62.4491 283.13H57.4966V288.083H62.4491V283.13Z" stroke="white" stroke-width="0.75" stroke-linecap="round" stroke-linejoin="round"/>
<path d="M38.3309 283.13H33.3784V288.083H38.3309V283.13Z" stroke="white" stroke-width="0.75" stroke-linecap="round" stroke-linejoin="round"/>
<path d="M51.9669 204.14H42.0715V214.036H51.9669V204.14Z" stroke="white" stroke-width="0.75" stroke-linecap="round" stroke-linejoin="round"/>
<path d="M76.6816 204.14H66.7861V214.036H76.6816V204.14Z" stroke="white" stroke-width="0.75" stroke-linecap="round" stroke-linejoin="round"/>
<path d="M101.396 204.14H91.5007V214.036H101.396V204.14Z" stroke="white" stroke-width="0.75" stroke-linecap="round" stroke-linejoin="round"/>
<path d="M126.111 204.14H116.215V214.036H126.111V204.14Z" stroke="white" stroke-width="0.75" stroke-linecap="round" stroke-linejoin="round"/>
<path d="M150.825 204.14H140.93V214.036H150.825V204.14Z" stroke="white" stroke-width="0.75" stroke-linecap="round" stroke-linejoin="round"/>
<path d="M51.9669 234.75H42.0715V244.645H51.9669V234.75Z" stroke="white" stroke-width="0.75" stroke-linecap="round" stroke-linejoin="round"/>
<path d="M76.6816 234.75H66.7861V244.645H76.6816V234.75Z" stroke="white" stroke-width="0.75" stroke-linecap="round" stroke-linejoin="round"/>
<path d="M101.396 234.75H91.5007V244.645H101.396V234.75Z" stroke="white" stroke-width="0.75" stroke-linecap="round" stroke-linejoin="round"/>
<path d="M126.111 234.75H116.215V244.645H126.111V234.75Z" stroke="white" stroke-width="0.75" stroke-linecap="round" stroke-linejoin="round"/>
<path d="M150.825 234.75H140.93V244.645H150.825V234.75Z" stroke="white" stroke-width="0.75" stroke-linecap="round" stroke-linejoin="round"/>
<path d="M51.9669 265.349H42.0715V275.245H51.9669V265.349Z" stroke="white" stroke-width="0.75" stroke-linecap="round" stroke-linejoin="round"/>
<path d="M76.6816 265.349H66.7861V275.245H76.6816V265.349Z" stroke="white" stroke-width="0.75" stroke-linecap="round" stroke-linejoin="round"/>
<path d="M101.396 265.349H91.5007V275.245H101.396V265.349Z" stroke="white" stroke-width="0.75" stroke-linecap="round" stroke-linejoin="round"/>
<path d="M126.111 265.349H116.215V275.245H126.111V265.349Z" stroke="white" stroke-width="0.75" stroke-linecap="round" stroke-linejoin="round"/>
<path d="M150.825 265.349H140.93V275.245H150.825V265.349Z" stroke="white" stroke-width="0.75" stroke-linecap="round" stroke-linejoin="round"/>
<path d="M51.9669 295.958H42.0715V305.854H51.9669V295.958Z" stroke="white" stroke-width="0.75" stroke-linecap="round" stroke-linejoin="round"/>
<path d="M76.6816 295.958H66.7861V305.854H76.6816V295.958Z" stroke="white" stroke-width="0.75" stroke-linecap="round" stroke-linejoin="round"/>
<path d="M101.396 295.958H91.5007V305.854H101.396V295.958Z" stroke="white" stroke-width="0.75" stroke-linecap="round" stroke-linejoin="round"/>
<path d="M126.111 295.958H116.215V305.854H126.111V295.958Z" stroke="white" stroke-width="0.75" stroke-linecap="round" stroke-linejoin="round"/>
<path d="M150.825 295.958H140.93V305.854H150.825V295.958Z" stroke="white" stroke-width="0.75" stroke-linecap="round" stroke-linejoin="round"/>
</g>
<path d="M85.6731 129.044C93.1644 119.206 103.579 113.965 120.6 122.966C120.6 122.995 97.6842 133.785 85.6731 129.044Z" fill="white"/>
<path d="M191.089 141.622C191.089 141.622 151.479 156.047 149.084 158.932C146.69 161.817 140.141 183.743 136.929 195.071C133.717 206.399 130.803 209.14 130.803 209.14C130.803 209.14 103.108 205.082 83.2591 206.649C63.4105 208.217 53.6401 207.726 51.3322 206.736C49.0242 205.745 48.6011 202.024 49.9281 197.975C50.0532 197.59 50.1974 197.148 50.3513 196.648C51.9284 191.84 55.1595 182.089 55.1595 182.089C47.7602 179.431 40.1991 177.246 32.5222 175.549C29.8978 174.983 27.2422 174.572 24.5693 174.318C31.1315 165.422 38.1414 156.865 45.5719 148.681C48.2741 145.796 51.1398 142.988 54.0152 140.43C62.6701 132.737 71.325 126.967 75.6716 126.005C81.4416 124.678 89.3944 126.111 101.04 124.88C123.774 122.476 155.537 113.58 174.722 100.781C177.159 104.3 179.406 107.946 181.454 111.705C185.291 118.703 188.296 126.126 190.407 133.823C190.407 133.823 191.416 138.805 191.089 141.622Z" fill="#FFB63F"/>
<path d="M66.0648 146.883L55.1308 182.137C47.7314 179.479 40.1703 177.295 32.4934 175.598C35.4361 171.107 40.2636 168.164 45.9566 169.991C55.1692 173.001 56.3136 147.575 66.0648 146.883Z" fill="#FF9400"/>
<path d="M181.396 111.773C164.731 112.667 137.266 126.669 125.101 143.652C110.83 163.577 90.2986 160.961 80.7879 146.883C73.7101 136.449 66.0649 137.776 53.9866 140.478C62.6415 132.785 71.2963 127.015 75.643 126.053C81.4129 124.726 89.3658 126.159 101.011 124.928C123.745 122.524 155.508 113.629 174.693 100.829C177.121 104.355 179.358 108.008 181.396 111.773Z" fill="#FFCB66"/>
<path d="M67.5266 142.151L66.0649 146.883L55.1309 182.137" stroke="#F7AD2B" stroke-width="0.75" stroke-linecap="round" stroke-linejoin="round"/>
<path d="M99.8767 230.239C107.429 231.097 115.066 230.863 122.553 229.546" stroke="#83ADDF" stroke-width="0.75" stroke-linecap="round" stroke-linejoin="round"/>
</svg>
