<svg width="560" height="317" viewBox="0 0 560 317" fill="none" xmlns="http://www.w3.org/2000/svg">
<path d="M474.954 14.334H96.4194V292.466H474.954V14.334Z" stroke="#DDDDDD" stroke-linecap="round" stroke-linejoin="round"/>
<path d="M486.748 292.467H84.6255V305.801H486.748V292.467Z" stroke="#DDDDDD" stroke-width="2" stroke-miterlimit="10"/>
<path d="M386.038 162.109H360.151V223.962H386.038V162.109Z" fill="#EDEDED"/>
<path d="M454.028 94.6328H428.142V223.955H454.028V94.6328Z" fill="#EDEDED"/>
<path d="M465.238 223.955H329.446V50.2061" stroke="#DDDDDD" stroke-width="2" stroke-miterlimit="10"/>
<path d="M420.037 145.647H394.15V223.955H420.037V145.647Z" stroke="#DDDDDD" stroke-linecap="round" stroke-linejoin="round"/>
<path d="M186.252 80.4136C186.173 79.0786 186.047 77.7515 185.873 76.4639M158.967 76.4639C158.802 77.7673 158.675 79.0944 158.596 80.4136" stroke="#DDDDDD" stroke-width="2" stroke-linecap="round" stroke-linejoin="round"/>
<path d="M206.585 73.5405C199.763 75.0197 192.839 75.9914 185.873 76.4475C184.293 63.9427 178.811 53.1836 172.444 53.1836C166.077 53.1836 160.595 63.9427 159.015 76.4475C152.051 75.9908 145.131 75.0191 138.31 73.5405L137.268 162.931C145.167 165.245 151.992 167.947 163.336 168.942V169.077C166.654 169.266 169.655 169.345 172.483 169.337C175.311 169.329 178.313 169.266 181.639 169.077V168.942C192.967 167.947 199.808 165.245 207.707 162.931L206.585 73.5405ZM172.42 58.2235C176.868 58.2235 180.596 66.4863 181.11 75.3732H163.715C164.244 66.4863 167.981 58.2235 172.42 58.2235Z" stroke="#DDDDDD" stroke-width="2" stroke-linecap="round" stroke-linejoin="round"/>
<path d="M486.748 1H84.6255V14.3343H486.748V1Z" stroke="#DDDDDD" stroke-width="2" stroke-miterlimit="10"/>
<path d="M355.317 148.317L374.655 126.372L391.172 123.134L405.099 98.0528L425.883 89.8769L446.927 70.1914" stroke="#DDDDDD" stroke-linecap="round" stroke-linejoin="round"/>
<path d="M453.144 65.1357L437.305 69.5594L447.069 80.4133L453.144 65.1357Z" fill="#EDEDED"/>
<path d="M247.047 87.0806L239.819 77.1273C239.673 76.9219 239.479 76.7544 239.255 76.6388C239.031 76.5232 238.783 76.4629 238.531 76.4629C238.279 76.4629 238.031 76.5232 237.807 76.6388C237.583 76.7544 237.389 76.9219 237.243 77.1273L230.015 87.0806C229.838 87.317 229.731 87.5983 229.705 87.8926C229.68 88.187 229.737 88.4826 229.871 88.7458C230.005 89.0091 230.211 89.2295 230.464 89.382C230.717 89.5344 231.008 89.6129 231.303 89.6084H232.883C233.302 89.6084 233.704 89.7749 234 90.0712C234.296 90.3675 234.463 90.7693 234.463 91.1883V100.115C234.463 100.534 234.629 100.936 234.925 101.232C235.222 101.528 235.624 101.695 236.043 101.695H240.94C241.359 101.695 241.761 101.528 242.057 101.232C242.354 100.936 242.52 100.534 242.52 100.115V91.2041C242.52 90.7851 242.687 90.3833 242.983 90.087C243.279 89.7907 243.681 89.6243 244.1 89.6243H245.68C245.985 89.6471 246.29 89.5811 246.558 89.4342C246.826 89.2872 247.045 89.0657 247.19 88.7965C247.334 88.5273 247.398 88.2219 247.373 87.9173C247.347 87.6128 247.234 87.3221 247.047 87.0806Z" fill="#DDDDDD" stroke="#DDDDDD" stroke-miterlimit="10"/>
<path d="M257.181 141.2L245.482 129.524C245.052 129.094 244.713 128.582 244.486 128.018C244.259 127.454 244.149 126.849 244.161 126.241C244.174 125.633 244.309 125.034 244.559 124.48C244.809 123.925 245.169 123.427 245.617 123.015L267.735 102.714C268.546 101.973 269.599 101.552 270.697 101.529L280.738 101.323C281.344 101.31 281.947 101.42 282.51 101.646C283.073 101.872 283.585 102.21 284.014 102.638C284.444 103.067 284.782 103.578 285.009 104.141C285.236 104.703 285.347 105.306 285.335 105.913L285.145 115.961C285.122 117.061 284.691 118.114 283.937 118.915L263.675 141.034C263.265 141.481 262.77 141.841 262.218 142.092C261.666 142.344 261.069 142.481 260.463 142.497C259.857 142.512 259.254 142.405 258.69 142.183C258.126 141.96 257.613 141.625 257.181 141.2Z" stroke="#DDDDDD" stroke-width="2" stroke-linecap="round" stroke-linejoin="round"/>
<path d="M267.19 126.459C266.583 127.126 265.786 127.589 264.907 127.787C264.029 127.903 263.137 127.717 262.379 127.257L260.452 129.185C260.425 129.212 260.393 129.234 260.358 129.249C260.323 129.264 260.285 129.272 260.247 129.272C260.209 129.272 260.173 129.264 260.139 129.249C260.105 129.234 260.074 129.212 260.049 129.185L257.49 126.625C257.462 126.6 257.441 126.57 257.426 126.536C257.411 126.502 257.403 126.465 257.403 126.428C257.403 126.391 257.411 126.354 257.426 126.32C257.441 126.286 257.462 126.256 257.49 126.23L259.212 124.5C258.754 124.003 258.351 123.537 258.011 123.102C257.972 123.041 257.955 122.969 257.964 122.897C257.97 122.822 258.004 122.751 258.058 122.699L260.318 120.835C260.348 120.808 260.385 120.788 260.425 120.777C260.465 120.766 260.506 120.764 260.547 120.772C260.63 120.788 260.704 120.836 260.752 120.906C260.871 121.104 260.997 121.293 261.131 121.483C261.266 121.672 261.455 121.925 261.692 122.217C261.901 122.498 262.131 122.762 262.379 123.007C262.58 123.233 262.825 123.416 263.098 123.545C263.287 123.645 263.503 123.683 263.714 123.655C263.862 123.633 264.005 123.591 264.141 123.529C264.233 123.483 264.318 123.424 264.394 123.355C264.473 123.275 264.537 123.181 264.583 123.078C264.655 122.925 264.708 122.763 264.741 122.597C264.783 122.332 264.764 122.062 264.686 121.807C264.591 121.445 264.439 121.101 264.236 120.788C263.979 120.373 263.79 119.919 263.675 119.445C263.553 118.943 263.5 118.428 263.517 117.912C263.535 117.338 263.669 116.774 263.912 116.253C264.177 115.663 264.55 115.128 265.01 114.673C265.602 114.043 266.384 113.624 267.238 113.481C268.105 113.376 268.983 113.535 269.757 113.939L271.74 111.948C271.767 111.921 271.799 111.899 271.834 111.884C271.869 111.869 271.907 111.861 271.946 111.861C271.984 111.858 272.022 111.864 272.057 111.877C272.093 111.891 272.125 111.912 272.151 111.94L274.71 114.492C274.766 114.549 274.796 114.626 274.796 114.705C274.796 114.785 274.766 114.861 274.71 114.918L272.996 116.64C273.431 117.122 273.849 117.604 274.244 118.102C274.285 118.162 274.304 118.235 274.3 118.307C274.298 118.344 274.287 118.381 274.27 118.413C274.252 118.446 274.227 118.475 274.197 118.497L271.938 120.361C271.906 120.386 271.869 120.404 271.829 120.414C271.79 120.423 271.749 120.424 271.709 120.416C271.67 120.414 271.632 120.403 271.598 120.382C271.565 120.361 271.538 120.332 271.519 120.298C271.029 119.518 270.459 118.79 269.821 118.125C269.624 117.903 269.385 117.723 269.118 117.596C268.923 117.496 268.703 117.457 268.486 117.486C268.339 117.507 268.196 117.547 268.059 117.604C267.963 117.65 267.874 117.711 267.798 117.786C267.723 117.864 267.661 117.955 267.617 118.054C267.545 118.207 267.494 118.369 267.467 118.536C267.429 118.801 267.451 119.071 267.53 119.326C267.625 119.688 267.777 120.031 267.98 120.345C268.222 120.766 268.406 121.218 268.525 121.688C268.654 122.191 268.71 122.71 268.691 123.229C268.667 123.8 268.53 124.361 268.288 124.88C268.019 125.467 267.647 126.003 267.19 126.459Z" fill="#EDEDED"/>
<path d="M296.181 151.2V157.37C296.181 158.665 299.91 159.74 304.515 159.74C309.12 159.74 312.857 158.689 312.857 157.37V151.2H296.181Z" fill="#F9F9F9" stroke="#DDDDDD" stroke-linecap="round" stroke-linejoin="round"/>
<path d="M296.181 145.189V151.359C296.181 152.654 299.91 153.729 304.515 153.729C309.12 153.729 312.857 152.678 312.857 151.359V145.189H296.181Z" fill="#F9F9F9" stroke="#DDDDDD" stroke-linecap="round" stroke-linejoin="round"/>
<path d="M296.181 139.178V145.347C296.181 146.643 299.91 147.717 304.515 147.717C309.12 147.717 312.857 146.666 312.857 145.347V139.178H296.181Z" fill="#F9F9F9" stroke="#DDDDDD" stroke-linecap="round" stroke-linejoin="round"/>
<path d="M296.181 133.134V139.303C296.181 140.599 299.91 141.673 304.515 141.673C309.12 141.673 312.857 140.622 312.857 139.303V133.134H296.181Z" fill="#F9F9F9" stroke="#DDDDDD" stroke-linecap="round" stroke-linejoin="round"/>
<path d="M296.181 127.162V133.332C296.181 134.627 299.91 135.701 304.515 135.701C309.12 135.701 312.857 134.651 312.857 133.332V127.162H296.181Z" fill="#F9F9F9" stroke="#DDDDDD" stroke-linecap="round" stroke-linejoin="round"/>
<path d="M296.181 121.15V127.32C296.181 128.615 299.91 129.69 304.515 129.69C309.12 129.69 312.857 128.639 312.857 127.32V121.15H296.181Z" fill="#F9F9F9" stroke="#DDDDDD" stroke-linecap="round" stroke-linejoin="round"/>
<path d="M312.857 121.151C312.857 122.447 309.12 123.521 304.515 123.521C299.91 123.521 296.181 122.47 296.181 121.151C296.181 119.832 299.91 118.781 304.515 118.781C309.12 118.781 312.857 119.856 312.857 121.151Z" fill="#F9F9F9" stroke="#DDDDDD" stroke-linecap="round" stroke-linejoin="round"/>
<path d="M279.26 154.542V160.711C279.26 162.007 282.997 163.081 287.594 163.081C292.192 163.081 295.936 162.031 295.936 160.711V154.542H279.26Z" fill="#F9F9F9" stroke="#DDDDDD" stroke-linecap="round" stroke-linejoin="round"/>
<path d="M279.26 148.53V154.7C279.26 155.995 282.997 157.07 287.594 157.07C292.192 157.07 295.936 156.019 295.936 154.7V148.53H279.26Z" fill="#F9F9F9" stroke="#DDDDDD" stroke-linecap="round" stroke-linejoin="round"/>
<path d="M279.26 142.52V148.689C279.26 149.985 282.997 151.059 287.594 151.059C292.192 151.059 295.936 150.008 295.936 148.689V142.52H279.26Z" fill="#F9F9F9" stroke="#DDDDDD" stroke-linecap="round" stroke-linejoin="round"/>
<path d="M279.26 136.508V142.677C279.26 143.973 282.997 145.047 287.594 145.047C292.192 145.047 295.936 143.997 295.936 142.677V136.508H279.26Z" fill="#F9F9F9" stroke="#DDDDDD" stroke-linecap="round" stroke-linejoin="round"/>
<path d="M295.936 136.508C295.936 137.811 292.2 138.877 287.594 138.877C282.989 138.877 279.26 137.827 279.26 136.508C279.26 135.188 282.997 134.138 287.594 134.138C292.192 134.138 295.936 135.212 295.936 136.508Z" fill="#F9F9F9" stroke="#DDDDDD" stroke-linecap="round" stroke-linejoin="round"/>
<path d="M102.454 194.291C102.454 199.101 97.7147 206.329 89.9969 205.168C82.2792 204.007 72.9341 198.146 74.0795 184.448C74.4113 180.451 78.9772 155.457 79.7118 149.927C80.8573 141.388 102.281 134.231 101.341 156.136C101.341 156.8 101.285 157.448 101.262 158.095C101.104 162.772 101.096 167.061 101.183 170.948C101.459 182.465 102.454 190.436 102.454 194.291Z" fill="#B25E47"/>
<path d="M101.183 170.948C94.4996 170.901 89.3334 166.335 90.0522 158.759L101.262 158.096C101.104 162.772 101.096 167.101 101.183 170.948Z" fill="#914839"/>
<path d="M143.848 259.177L147.671 315.824H111.547L118.095 252.194L109.406 228.985L93.9072 199.181C95.0006 195.713 95.8636 192.177 96.4904 188.595L103.387 176.296C104.515 175.772 105.67 175.308 106.847 174.906L106.997 174.858H107.139C111.333 173.436 118.49 171.698 125.718 173.002C131.761 174.1 136.778 176.422 140.814 182.797C145.341 189.962 148.603 202.246 150.625 223.661C152.758 245.882 147.142 255.757 143.848 259.177Z" fill="#C3DCF8"/>
<path d="M140.838 182.726C134.921 185.309 129.613 190.372 126.967 199.725C125.604 204.572 123.726 209.26 121.366 213.707C118.373 219.512 114.319 224.705 109.414 229.016L93.9153 199.212C95.0087 195.744 95.8716 192.208 96.4984 188.627C96.7828 188.002 101.333 178.018 102.439 176.043C104.493 175.553 106.041 175.166 106.855 174.945L107.005 174.897H107.147C111.342 173.475 118.498 171.737 125.726 173.041C131.785 174.028 136.809 176.351 140.838 182.726Z" fill="#D0E5F7"/>
<path d="M129.005 315.823H69.9797V295.229H127.756L129.005 315.823Z" fill="#683F1D"/>
<path d="M124.265 295.23H72.4127C72.4127 295.23 62.3646 245.542 64.2131 211.148C64.7344 201.352 66.2195 192.797 69.1818 186.983C70.0111 185.284 71.1012 183.725 72.4127 182.362C73.6608 182.141 75.0353 181.888 76.4968 181.572C78.8666 184.25 83.4799 187.979 89.9969 191.763C89.9969 191.763 92.3194 198.335 93.9467 199.149C95.574 199.962 96.5298 188.563 96.5298 188.563C96.8142 187.939 101.364 177.954 102.47 175.979C104.658 175.458 106.278 175.055 107.036 174.834H107.178C107.178 174.834 107.968 177.543 109.256 181.509C111.31 187.829 114.604 197.347 117.945 204.157C119.405 207.216 120.551 210.416 121.366 213.707C123.736 222.989 123.957 234.175 121.745 248.773C121.587 249.824 121.453 250.89 121.342 251.933C119.296 271.421 124.265 295.23 124.265 295.23Z" fill="white"/>
<path d="M121.366 213.707C118.373 219.512 114.319 224.704 109.414 229.016C99.4132 237.469 87.4929 238.574 78.1083 226.133C75.7385 222.973 73.4713 220.192 71.2358 217.751C69.0966 215.355 66.7463 213.155 64.2131 211.179C64.7345 201.384 66.2196 192.829 69.1819 187.015C70.0111 185.315 71.1013 183.756 72.4128 182.393C73.6609 182.172 75.0354 181.919 76.4968 181.603C78.8666 184.281 83.4799 188.01 89.997 191.794C89.997 191.794 92.3194 198.366 93.9467 199.18C95.0402 195.712 95.9031 192.176 96.5299 188.595C96.8142 187.97 101.364 177.986 102.47 176.011C104.658 175.489 106.278 175.086 107.036 174.865H107.178C107.178 174.865 107.968 177.575 109.256 181.54C111.31 187.86 114.604 197.379 117.945 204.188C119.403 207.238 120.549 210.427 121.366 213.707Z" fill="#F9F9F9"/>
<path d="M113.932 194.812C115.196 198.098 116.547 201.329 117.882 204.109C119.367 207.182 120.534 210.398 121.366 213.707C122.898 220.043 123.531 226.564 123.246 233.077" stroke="#83ADDF" stroke-width="0.75" stroke-linecap="round" stroke-linejoin="round"/>
<path d="M80.1937 315.824H41.2335C41.1071 301.692 40.8464 290.862 40.0644 281.595C39.3016 270.92 37.1942 260.383 33.7922 250.235C27.915 232.595 28.3416 216.907 31.8331 205.531C33.8317 198.991 36.8493 193.88 40.2697 190.625C41.0453 189.923 41.9114 189.328 42.845 188.856C51.7003 184.195 72.3969 182.362 72.3969 182.362C69.8375 187.71 70.0981 202.111 71.2199 217.72C72.4759 235.099 74.7904 254.058 75.4382 263.608C75.9042 270.528 77.0181 282.749 78.1793 295.206C78.8744 302.324 79.5696 309.496 80.1937 315.824Z" fill="#C3DCF8"/>
<path d="M71.2357 217.72C69.0966 215.323 66.7462 213.124 64.2131 211.148C63.6601 210.721 63.0993 210.311 62.5384 209.939C54.3862 204.354 45.365 203.067 31.8332 205.531C30.3086 205.8 28.7287 206.132 27.0935 206.503C32.552 196.953 38.0896 189.914 42.8924 188.856C51.7477 184.195 72.4444 182.362 72.4444 182.362C69.8612 187.71 70.114 202.103 71.2357 217.72Z" fill="#D0E5F7"/>
<path d="M89.9969 191.794C81.9316 189.535 75.5883 200.768 75.5883 200.768C72.3721 196.757 70.1741 192.028 69.1818 186.983C68.8597 185.594 68.7611 184.162 68.8895 182.741C69.3951 179.416 73.6292 176.817 74.8141 179.274C75.2684 180.122 75.8343 180.906 76.4967 181.604C78.8903 184.282 83.4799 188.01 89.9969 191.794Z" fill="#FFB63F"/>
<path d="M109.24 181.461C109.106 186.383 108.663 191.912 108.663 191.912C102.715 187.275 99.4132 187.173 96.4983 188.595L101.341 175.79C103.181 172.511 108.893 172.227 109.193 176.113C109.295 177.472 109.295 179.415 109.24 181.461Z" fill="#FFB63F"/>
<path d="M89.9968 191.794C89.9968 191.794 92.3193 198.366 93.9466 199.18C94.4679 197.442 96.5297 188.595 96.5297 188.595" stroke="#DDDDDD" stroke-linecap="round" stroke-linejoin="round"/>
<path d="M93.9153 199.181C93.9153 199.181 100.417 214.782 103.395 225.154C106.373 235.526 108.419 245.361 107.763 258.679C107.107 271.998 105.685 284.124 106.017 285.538C106.349 286.952 110.82 290.712 104.271 295.222" stroke="#DDDDDD" stroke-linecap="round" stroke-linejoin="round"/>
<path d="M135.427 265.356C128.997 265.032 122.259 257.496 116.753 249.193C112.216 242.179 108.241 234.818 104.864 227.177L114.019 214.159C126.098 221.632 144.472 233.489 149.48 241.397C149.846 241.957 150.156 242.552 150.404 243.174C154.054 252.669 152.016 266.185 135.427 265.356Z" fill="#C3DCF8"/>
<path d="M135.427 265.355C128.997 265.031 122.259 257.495 116.753 249.193C121.88 248.047 128.665 250.97 130.016 255.583C132.465 263.949 151.882 259.991 149.48 241.364C149.847 241.925 150.156 242.52 150.405 243.142C154.054 252.668 152.016 266.184 135.427 265.355Z" fill="#A7CAF0"/>
<path d="M150.381 243.174C150.132 242.552 149.823 241.957 149.457 241.397C144.448 233.497 126.074 221.648 113.996 214.159L104.84 227.177C108.217 234.818 112.192 242.179 116.729 249.193C122.259 257.496 128.973 265.032 135.403 265.356" stroke="#83ADDF" stroke-width="0.75" stroke-linecap="round" stroke-linejoin="round"/>
<path d="M96.23 218.97L92.77 224.768L96.8225 224.405C96.8225 224.405 126.493 199.047 126.951 198.178C127.409 197.309 124.921 194.568 124.099 194.869C123.278 195.169 96.23 218.97 96.23 218.97Z" fill="#683F1D"/>
<path d="M96.2297 218.97C96.7985 215.66 96.7353 214.515 97.2488 213.819C97.7622 213.124 103.031 209.174 104.303 208.732C105.575 208.29 108.821 209.878 108.821 209.878C108.821 209.878 111.302 210.194 112.827 210.446C114.351 210.699 114.241 214.309 115.236 214.925C116.231 215.541 117.471 215.21 118.238 216.805C119.004 218.401 117.661 219.475 118.238 220.494C118.814 221.513 120.268 222.145 119.818 223.931C119.367 225.716 118.483 225.708 118.735 226.727C118.988 227.746 120.007 230.543 116.634 231.625C113.261 232.707 110.796 233.489 108.94 232.77C107.084 232.051 104.88 230.795 104.564 229.61C104.564 229.61 100.614 229.026 98.9551 225.842C98.9551 225.842 94.6972 224.571 97.8096 222.414C97.8096 222.414 96.285 220.881 97.2409 219.61L96.2297 218.97Z" fill="#B25E47"/>
<path d="M108.948 232.77C107.091 232.043 104.888 230.795 104.572 229.61C104.572 229.61 100.622 229.026 98.9629 225.842C98.9629 225.842 94.7051 224.57 97.8175 222.414C97.8175 222.414 96.2929 220.881 97.2488 219.61L96.2297 218.978C96.7985 215.668 96.7353 214.522 97.2488 213.827" stroke="#934735" stroke-width="0.75" stroke-linecap="round" stroke-linejoin="round"/>
<path d="M97.2488 219.602C101.499 215.731 109.098 210.122 111.863 210.296" stroke="#934735" stroke-width="0.75" stroke-linecap="round" stroke-linejoin="round"/>
<path d="M97.8176 222.399C104.24 222.106 109.619 219.31 113.364 216.624" stroke="#934735" stroke-width="0.75" stroke-linecap="round" stroke-linejoin="round"/>
<path d="M98.9631 225.835C101.902 227.059 112.937 223.907 115.663 221.237" stroke="#934735" stroke-width="0.75" stroke-linecap="round" stroke-linejoin="round"/>
<path d="M104.572 229.603C106.073 229.895 111.91 229.389 114.912 227.375" stroke="#934735" stroke-width="0.75" stroke-linecap="round" stroke-linejoin="round"/>
<path d="M62.5387 209.94C62.3564 213.946 61.7339 217.92 60.6823 221.789L59.9319 224.641C59.8134 225.107 59.687 225.581 59.5527 226.071C59.1999 227.398 58.826 228.786 58.431 230.234L58.194 231.095C57.72 232.809 57.2145 234.61 56.6852 236.459C56.5114 237.083 56.3297 237.707 56.148 238.331C54.8683 242.739 53.4385 247.431 51.8744 252.186C51.6533 252.866 51.4242 253.553 51.1951 254.232C50.0892 257.503 48.9279 260.797 47.7035 264.044C47.4428 264.739 47.1821 265.426 46.9136 266.105L46.1236 268.143C45.9103 268.681 45.697 269.21 45.4759 269.723C43.7775 273.878 41.9685 277.876 40.0805 281.572L39.883 281.952C33.6188 293.99 26.3829 302.435 18.5545 301.55C12.0216 300.824 7.66111 298.24 4.8094 294.765C0.559491 289.543 -0.277854 282.315 0.132918 276.311C0.263287 274.289 0.545834 272.28 0.978161 270.3C2.43956 263.688 14.5968 228.433 27.157 206.512C32.6155 196.961 38.1531 189.923 42.9559 188.864C54.1574 186.36 63.1075 193.959 62.5387 209.94Z" fill="#C3DCF8"/>
<path d="M62.5387 209.94C54.3864 204.355 45.3652 203.067 31.8334 205.532C30.3088 205.8 28.7289 206.132 27.0938 206.503C32.5523 196.953 38.0898 189.914 42.8927 188.856C54.1573 186.36 63.1074 193.959 62.5387 209.94Z" fill="#D0E5F7"/>
<path d="M62.5387 209.939C62.3564 213.945 61.7338 217.919 60.6823 221.789C56.8985 236.26 49.6231 263.032 40.0647 281.556" stroke="#83ADDF" stroke-width="0.75" stroke-linecap="round" stroke-linejoin="round"/>
<path d="M39.8435 281.975C33.5792 294.014 26.3433 302.459 18.5149 301.574C11.9821 300.847 7.62156 298.264 4.76985 294.788C0.519938 289.567 -0.317405 282.339 0.0933678 276.335C1.08742 276.524 2.04484 276.87 2.92928 277.362C7.0449 279.629 9.74652 284.685 12.9142 288.366C20.0948 296.652 29.1476 282.828 39.8435 281.975Z" fill="#A7CAF0"/>
<path d="M80.8577 118.298L70.304 129.823C57.499 128.172 53.8652 119.554 55.9744 112.192C56.0534 111.931 56.1403 111.663 56.243 111.402C59.229 104.245 74.001 100.019 79.2383 112.018C80.0864 114.02 80.6322 116.136 80.8577 118.298Z" fill="#7F542D"/>
<path d="M80.8577 118.299L70.304 129.824C57.499 128.173 53.8652 119.555 55.9744 112.192C56.0534 111.932 56.1403 111.663 56.243 111.402C58.3837 120.131 64.1424 123.718 67.0731 118.014C69.7116 112.919 75.0753 110.968 79.2383 112.019C80.0864 114.02 80.6322 116.137 80.8577 118.299Z" fill="#704725"/>
<path d="M99.8798 120.281C99.8798 120.281 85.5344 148.877 75.2572 144.769C72.9938 143.877 71.0431 142.339 69.6486 140.345C65.4539 134.373 66.631 125.147 71.4338 120.771C75.4284 117.158 80.3534 114.734 85.6529 113.772C90.2109 107.918 99.4928 105.975 103.032 109.925C103.111 110.004 103.182 110.091 103.253 110.177C106.571 114.427 103.395 118.211 99.8798 120.281Z" fill="#7F542D"/>
<path d="M99.8797 120.281C99.8797 120.281 85.5343 148.877 75.2571 144.769C72.9937 143.878 71.043 142.339 69.6484 140.346C74.3881 140.614 77.5479 139.461 78.1167 135.653C78.9066 130.345 80.0678 119.199 80.0678 119.199C80.0678 119.199 97.2808 119.736 102.976 109.925C103.055 110.004 103.126 110.091 103.197 110.178C106.571 114.428 103.395 118.211 99.8797 120.281Z" fill="#704725"/>
<path d="M103.04 162.496C95.4639 164.423 86.5928 159.604 80.8815 154.335C77.7217 155.915 72.042 152.455 72.4528 147.842C72.9109 142.834 76.6316 141.996 79.27 143.734C80.0757 143.16 80.7603 142.433 81.2844 141.594C82.2925 139.928 82.8883 138.046 83.0223 136.103C83.7648 128.552 80.0837 119.167 80.0837 119.167C82.9834 121.103 86.3486 122.227 89.8298 122.423C93.311 122.619 96.7811 121.879 99.8797 120.281C100.054 120.281 105.409 128.804 108.308 137.66C108.64 138.679 108.94 139.698 109.193 140.717C109.532 142.084 109.795 143.468 109.983 144.864C111.208 153.206 109.533 160.837 103.04 162.496Z" fill="#B25E47"/>
<path d="M93.9233 135.622C93.9233 135.842 93.9887 136.057 94.1111 136.24C94.2334 136.424 94.4074 136.566 94.6109 136.651C94.8144 136.735 95.0384 136.757 95.2545 136.714C95.4705 136.671 95.669 136.565 95.8248 136.409C95.9805 136.253 96.0866 136.055 96.1296 135.839C96.1726 135.623 96.1505 135.399 96.0662 135.195C95.9819 134.992 95.8391 134.818 95.656 134.696C95.4728 134.573 95.2574 134.508 95.0372 134.508C94.7418 134.508 94.4585 134.625 94.2496 134.834C94.0407 135.043 93.9233 135.326 93.9233 135.622Z" fill="#683F1D"/>
<path d="M101.341 133.536C101.341 133.756 101.406 133.971 101.529 134.155C101.651 134.338 101.825 134.48 102.029 134.565C102.232 134.649 102.456 134.671 102.672 134.628C102.888 134.585 103.087 134.479 103.242 134.323C103.398 134.168 103.504 133.969 103.547 133.753C103.59 133.537 103.568 133.313 103.484 133.109C103.4 132.906 103.257 132.732 103.074 132.61C102.891 132.487 102.675 132.422 102.455 132.422C102.159 132.422 101.876 132.539 101.667 132.748C101.458 132.957 101.341 133.24 101.341 133.536Z" fill="#683F1D"/>
<path d="M81.9319 156.145C83.4894 156.145 84.752 154.883 84.752 153.325C84.752 151.767 83.4894 150.505 81.9319 150.505C80.3744 150.505 79.1118 151.767 79.1118 153.325C79.1118 154.883 80.3744 156.145 81.9319 156.145Z" fill="#FFB63F"/>
<path d="M85.9845 131.025C86.6086 132.383 93.2994 129.571 91.7353 126.988C90.4635 124.902 85.0524 129.034 85.9845 131.025Z" fill="#7F542D"/>
<path d="M97.0831 125.865C96.8461 127.745 102.162 127.406 102.123 126.055C102.083 124.704 97.3912 123.401 97.0831 125.865Z" fill="#7F542D"/>
<path d="M81.2607 148.205C78.3537 145.772 76.1023 147.092 75.4546 149.145" stroke="#934735" stroke-width="0.75" stroke-linecap="round" stroke-linejoin="round"/>
<path d="M79.3411 151.302C77.0977 150.322 78.1325 147.028 80.8657 147.865" stroke="#934735" stroke-width="0.75" stroke-linecap="round" stroke-linejoin="round"/>
<path d="M93.6074 144.122C94.528 144.975 95.6447 145.588 96.8586 145.906C98.0725 146.224 99.3462 146.238 100.567 145.947" stroke="#934735" stroke-width="0.75" stroke-linecap="round" stroke-linejoin="round"/>
<path d="M98.75 132.422C98.75 136.056 101.041 137.683 103.024 138.109C103.32 138.193 103.594 138.339 103.828 138.539C104.061 138.739 104.248 138.988 104.376 139.268C104.504 139.547 104.569 139.851 104.568 140.159C104.566 140.466 104.497 140.77 104.367 141.048" stroke="#934735" stroke-width="0.75" stroke-linecap="round" stroke-linejoin="round"/>
<path d="M91.5064 142.613C90.7164 144.58 87.5171 145.133 84.3968 143.845C83.1849 143.358 82.1031 142.596 81.2371 141.618C82.2451 139.952 82.841 138.07 82.975 136.128C84.4663 135.914 85.9878 136.122 87.3671 136.728C90.4794 137.992 92.32 140.622 91.5064 142.613Z" fill="#A0503D"/>
<path d="M109.999 144.856C108.38 145.124 106.95 144.737 106.231 143.694C105.141 142.115 106.065 139.531 108.301 137.651C108.632 138.67 108.933 139.689 109.185 140.708C109.532 142.075 109.803 143.46 109.999 144.856Z" fill="#A0503D"/>
<path d="M98.0942 288.335H48.0669L34.6536 216.632H84.6888L98.0942 288.335Z" fill="#F9F9F9" stroke="#DDDDDD" stroke-linecap="round" stroke-linejoin="round"/>
<path d="M68.9136 213.029H63.542C63.5374 212.801 63.5136 212.574 63.4709 212.35C63.2043 211.086 62.5233 209.947 61.5358 209.114C60.5484 208.281 59.3111 207.802 58.0202 207.752C57.4465 207.732 56.8758 207.845 56.3531 208.083C55.8304 208.32 55.3699 208.676 55.0078 209.121C54.6457 209.567 54.3919 210.09 54.2662 210.65C54.1406 211.211 54.1466 211.792 54.2838 212.35C54.3312 212.58 54.3946 212.807 54.4734 213.029H49.0859L50.5473 220.85H70.375L68.9136 213.029Z" fill="#DDDDDD"/>
<path d="M60.9639 214.254C61.8364 213.296 61.6078 211.667 60.4531 210.615C59.2984 209.563 57.6551 209.487 56.7825 210.445C55.91 211.403 56.1387 213.032 57.2933 214.084C58.448 215.136 60.0913 215.212 60.9639 214.254Z" fill="#F9F9F9" stroke="#DDDDDD" stroke-linecap="round" stroke-linejoin="round"/>
<path d="M61.0693 248C65.809 245.591 68.6607 244.982 69.348 243.948C70.0352 242.913 79.0959 236.001 81.5132 235.013C83.9304 234.026 88.0855 236.483 88.0855 236.483C88.0855 236.483 92.0352 234.492 93.9153 235.013C95.7954 235.535 97.2489 239.287 94.1286 242.478C91.98 244.682 96.3247 245.551 94.6263 248.008C93.8363 249.13 95.748 249.651 95.4873 252.155C95.2266 254.659 93.9785 254.912 94.1286 255.947C94.2787 256.982 94.9185 259.66 92.3828 260.687C89.8471 261.714 77.8873 264.052 75.9914 264.305C74.0956 264.557 64.7742 271.122 64.7742 271.122L61.0693 248Z" fill="#B25E47"/>
<path d="M88.0855 236.482L81.1655 239.777" stroke="#934735" stroke-width="0.75" stroke-linecap="round" stroke-linejoin="round"/>
<path d="M81.5129 235.038C83.9302 234.05 88.0853 236.507 88.0853 236.507C88.0853 236.507 92.035 234.516 93.9151 235.038C95.7952 235.559 97.2487 239.311 94.1284 242.503C91.9797 244.707 96.3244 245.576 94.6261 248.032C93.8361 249.154 95.7478 249.675 95.4871 252.18C95.2264 254.684 93.9783 254.936 94.1284 255.971C94.2785 257.006 94.9183 259.684 92.3826 260.711" stroke="#934735" stroke-width="0.75" stroke-linecap="round" stroke-linejoin="round"/>
<path d="M71.8442 273.69C64.3318 279.488 57.6251 284.259 51.6926 288.122C22.7964 306.923 11.0499 304.332 4.76188 294.789C4.74339 294.767 4.72749 294.744 4.71448 294.718C0.417168 288.122 0.267077 282.403 2.9213 277.339C9.38306 265.04 32.5048 256.753 52.7827 249.525C56.6772 248.135 60.461 246.784 64.0079 245.457L71.8442 273.69Z" fill="#C3DCF8"/>
<path d="M51.6926 288.122C22.7964 306.922 11.0499 304.331 4.76188 294.789C4.74339 294.767 4.72749 294.743 4.71448 294.718C0.417168 288.122 0.267077 282.402 2.9213 277.339C7.03692 279.606 9.73854 284.662 12.9062 288.343C20.0947 296.653 29.1475 282.829 39.8434 281.976C43.0032 281.715 46.2973 282.584 49.7256 285.475C50.601 286.171 51.2791 287.083 51.6926 288.122Z" fill="#A7CAF0"/>
<path d="M32.2759 298.754C39.0549 295.801 45.5536 292.242 51.6928 288.121C57.649 284.258 64.3319 279.487 71.8443 273.689L63.9843 245.448" stroke="#83ADDF" stroke-width="0.75" stroke-linecap="round" stroke-linejoin="round"/>
<path d="M63.984 245.448C46.5183 252.013 23.1438 259.012 10.394 268.941" stroke="#83ADDF" stroke-width="0.75" stroke-linecap="round" stroke-linejoin="round"/>
<path d="M560 193.999C560.021 198.792 558.805 203.51 556.469 207.696C554.05 211.995 550.498 215.547 546.199 217.966C542.344 220.147 537.99 221.293 533.56 221.291C528.073 221.243 522.737 219.494 518.285 216.285C513.834 213.076 510.488 208.566 508.709 203.375C508.04 201.487 507.576 199.533 507.326 197.545C507.18 196.369 507.107 195.184 507.105 193.999C507.105 178.934 518.954 166.714 533.56 166.714C539.019 166.766 544.328 168.5 548.766 171.679C553.203 174.858 556.552 179.328 558.357 184.48C559.45 187.534 560.006 190.755 560 193.999Z" fill="#A7CAF0"/>
<path d="M558.357 184.48C557.651 184.101 556.925 183.758 556.184 183.453C554.359 182.678 552.451 182.116 550.497 181.778C543.514 180.538 536.325 182.173 528.789 185.452C521.948 188.422 514.823 192.751 507.31 197.514C507.165 196.338 507.091 195.153 507.089 193.967C507.089 178.903 518.938 166.683 533.544 166.683C539.009 166.734 544.325 168.471 548.766 171.656C553.207 174.841 556.556 179.32 558.357 184.48Z" fill="#C3DCF8"/>
<path d="M550.836 190.799C550.418 195.136 548.625 205.2 546.144 217.965C545.741 220.059 545.354 222.223 544.872 224.443C538.758 255.346 529.666 297.695 525.763 315.792H419.018L426.965 270.023C426.965 270.023 400.336 264.035 394.94 253.955C387.981 240.953 391.781 230.992 399.838 217.357C405.684 207.435 417.359 184.882 426.451 170.655C429.864 165.307 432.913 161.176 435.141 159.256C446.919 149.343 459.076 153.205 470.238 156.097C470.238 156.097 470.238 158.467 470.364 162.314C470.436 165.434 470.538 169.534 470.68 174.163C470.925 182.307 471.297 192.11 471.826 201.147C471.921 202.727 472.015 204.307 472.118 205.887C472.908 217.318 473.919 226.694 475.325 228.543C475.681 229.009 476.218 228.882 476.905 228.266C478.904 226.434 482.166 220.319 485.8 212.507C486.898 210.137 488.02 207.664 489.157 205.089C495.335 191.06 501.796 174.589 504.775 166.966C505.715 164.549 506.299 163.017 506.402 162.74C506.4 162.724 506.4 162.708 506.402 162.693L508.566 162.985L513.227 163.625C517.279 164.178 522.825 164.952 529.026 165.86C530.606 166.089 532.083 166.358 533.552 166.706C540.543 168.333 546.515 171.445 549.312 177.954C549.842 179.192 550.241 180.481 550.505 181.802C551.065 184.767 551.177 187.8 550.836 190.799Z" fill="#A7CAF0"/>
<path d="M550.497 181.81C543.514 180.57 536.325 182.205 528.789 185.483C521.948 188.453 514.823 192.782 507.31 197.546L504.941 199.055C499.229 202.696 493.952 204.545 489.142 205.098C497.278 186.629 505.912 163.941 506.394 162.749C506.393 162.733 506.393 162.717 506.394 162.701L513.219 163.633C517.272 164.186 522.817 164.96 529.018 165.869C530.598 166.098 532.075 166.367 533.544 166.714C540.536 168.341 546.508 171.454 549.304 177.963C549.834 179.2 550.234 180.49 550.497 181.81Z" fill="#C3DCF8"/>
<path d="M426.965 270.055C437.447 272.851 458.966 277.915 458.966 277.915" stroke="#83ADDF" stroke-width="0.75" stroke-linecap="round" stroke-linejoin="round"/>
<path d="M439.296 196.685L434.027 232.667C426.57 229.08 423.268 228.077 420.029 228.527C419.516 221.457 435.417 227.974 432.202 213.708C430.243 205.018 434.177 198.699 439.296 196.685Z" fill="#93BEE5"/>
<path d="M434.027 232.667L439.296 196.685L440.157 190.792" stroke="#83ADDF" stroke-width="0.75" stroke-linecap="round" stroke-linejoin="round"/>
<path d="M416.127 229.602C423.307 226.979 425.1 228.022 449.478 240.464" stroke="#83ADDF" stroke-width="0.75" stroke-linecap="round" stroke-linejoin="round"/>
<path d="M470.238 156.129C470.238 156.129 470.625 180.617 471.818 201.156C463.531 196.156 458.065 187.727 455.79 182.521C452.425 174.851 446.042 165.411 426.436 170.672C429.848 165.324 432.897 161.193 435.125 159.273C446.919 149.375 459.076 153.238 470.238 156.129Z" fill="#C3DCF8"/>
<path d="M512.729 186.376C512.082 187.276 498.076 195.626 498.336 196.787C498.597 197.948 500.904 202.696 500.904 203.596C500.904 204.165 492.293 214.885 485.326 222.05C481.305 226.205 477.829 229.159 476.897 228.274C474.757 226.236 493.747 177.173 499.861 161.571L506.41 162.701L513.235 163.633C512.65 174.898 513.298 185.586 512.729 186.376Z" fill="#83ADDF"/>
<path d="M506.41 162.702C506.408 162.718 506.408 162.734 506.41 162.749C506.007 164.329 496.054 203.092 485.342 222.051C481.993 227.991 478.572 231.988 475.341 232.32C461.588 233.623 470.254 156.161 470.254 156.161C475.357 157.307 490.919 160.048 499.877 161.604L506.41 162.702Z" fill="white"/>
<path d="M503.827 159.289C502.318 163.783 488.667 173.602 480.294 168.871C475.467 166.137 474.583 161.113 475.847 152.811C476.455 148.743 477.592 143.885 479.006 138.126C479.725 135.243 480.523 132.138 481.376 128.797C483.406 120.755 488.138 115.731 496.749 117.224C505.359 118.717 504.893 127.114 504.648 136.183C504.403 145.251 505.335 154.802 503.827 159.289Z" fill="#B25E47"/>
<path d="M492.838 136.688C492.191 145.117 488.478 154.281 475.847 152.811C476.455 148.743 477.592 143.885 479.006 138.126L492.838 136.688Z" fill="#914839"/>
<path d="M476.897 167.179C477.253 175.395 477.34 177.962 478.138 178.397C478.936 178.831 482.553 179.811 483.525 179.187C484.497 178.563 490.05 169.407 490.05 169.407C490.05 169.407 483.438 164.881 476.897 167.179Z" fill="#683F1D"/>
<path d="M483.004 175.292C484.149 189.551 486.566 223.479 486.914 226.118C487.261 228.756 476.447 239.918 475.357 238.536C474.267 237.153 468.745 226.971 468.745 223.953C468.745 220.936 478.746 174.716 478.746 174.716L483.004 175.292Z" fill="#683F1D"/>
<path d="M482.806 165.56C488.857 164.936 502.752 156.271 504.561 155.101C506.37 153.932 508.78 161.942 508.574 163.522C508.369 165.102 490.753 176.762 490.753 176.762C490.753 176.762 486.377 167.906 482.498 167.804C478.619 167.701 472.813 176.762 472.813 176.762C465.451 170.134 470.349 158.727 475.389 156.895C475.389 156.895 480.357 165.813 482.806 165.56Z" fill="#FFB63F"/>
<path d="M467.473 284.859L462.07 315.825" stroke="#83ADDF" stroke-width="0.75" stroke-linecap="round" stroke-linejoin="round"/>
<path d="M512.026 104.578C511.044 106.044 509.707 107.238 508.139 108.047C506.571 108.857 504.824 109.256 503.06 109.207C496.741 109.104 490.674 104.096 490.674 104.096C490.674 104.096 485.144 98.4876 485.745 93.5109C485.929 92.0835 486.635 90.7749 487.727 89.8376C492.467 85.5719 499.861 89.5454 502.586 94.1113C505.312 98.6772 506.133 98.6456 509.261 98.685C511.979 98.7166 513.172 101.813 512.026 104.578Z" fill="#604730"/>
<path d="M503.06 109.207C496.741 109.105 490.674 104.096 490.674 104.096C490.674 104.096 485.144 98.4877 485.745 93.5111C491.946 92.0418 499.49 93.7797 504.237 98.6141C508.021 102.469 505.628 106.537 503.06 109.207Z" fill="#473526"/>
<path d="M494.236 100.264C490.46 95.4061 491.124 89.8606 495.129 88.415" stroke="#896442" stroke-width="0.75" stroke-linecap="round" stroke-linejoin="round"/>
<path d="M499.269 103.117C495.493 98.2665 496.156 92.7132 500.161 91.2676" stroke="#896442" stroke-width="0.75" stroke-linecap="round" stroke-linejoin="round"/>
<path d="M507.855 114.911C506.876 117.081 505.768 119.192 504.538 121.23C502.865 124.081 500.946 126.78 498.803 129.296C494.853 133.861 489.702 137.866 483.707 138.38C469.314 139.612 469.985 129.446 470.443 126.365C470.443 126.294 470.443 126.231 470.443 126.167C470.443 126.104 473.564 119.745 477.032 113.418C478.769 110.156 480.684 106.991 482.767 103.938C487.388 97.4923 493.763 96.1652 500.066 98.8273C506.37 101.489 507.081 105.313 507.855 114.911Z" fill="#B25E47"/>
<path d="M504.537 121.286C502.862 124.118 500.943 126.798 498.802 129.296H498.392C497.197 129.298 496.026 128.966 495.01 128.336C493.995 127.707 493.176 126.806 492.646 125.735C492.117 124.665 491.897 123.467 492.013 122.278C492.128 121.089 492.575 119.956 493.301 119.008C494.027 118.059 495.004 117.333 496.122 116.911C497.24 116.489 498.453 116.389 499.625 116.621C500.797 116.853 501.88 117.409 502.752 118.225C503.625 119.041 504.251 120.085 504.561 121.239L504.537 121.286Z" fill="#A0503D"/>
<path d="M479.259 118.805C479.259 120.834 478.454 122.78 477.02 124.215C475.586 125.651 473.641 126.458 471.613 126.46C471.213 126.46 470.814 126.429 470.42 126.365C470.42 126.294 470.42 126.231 470.42 126.168C470.42 126.105 473.54 119.745 477.008 113.418C478.443 114.844 479.253 116.782 479.259 118.805Z" fill="#A0503D"/>
<path d="M509.728 121.673L507.571 123.656C504.048 126.973 503.29 127.795 503.29 127.795C501.323 122.866 500.864 114.587 504.585 108.481C508.306 102.374 512.729 102.161 515.06 104.049C515.29 104.235 515.477 104.469 515.605 104.736C517.287 107.857 515.004 116.775 509.728 121.673Z" fill="#604730"/>
<path d="M515.605 104.76C511.26 105.96 507.595 113.078 507.571 123.679C504.048 126.997 503.29 127.818 503.29 127.818C501.323 122.889 500.864 114.61 504.585 108.504C508.306 102.398 512.729 102.185 515.06 104.072C515.29 104.258 515.477 104.493 515.605 104.76Z" fill="#473526"/>
<path d="M500.501 129.975C503.108 133.601 511.426 131.555 511.963 126.238C512.5 120.922 507.784 118.046 503.605 120.44C499.427 122.834 499.719 128.892 500.501 129.975Z" fill="#B25E47"/>
<path d="M508.977 103.906C509.767 108.164 513.219 111.6 515.391 112.185" stroke="#896442" stroke-width="0.75" stroke-linecap="round" stroke-linejoin="round"/>
<path d="M505.335 107.374C506.125 111.166 508.859 116.182 514.143 115.826" stroke="#896442" stroke-width="0.75" stroke-linecap="round" stroke-linejoin="round"/>
<path d="M482.925 109.745C482.925 109.965 482.99 110.18 483.112 110.363C483.235 110.547 483.409 110.689 483.612 110.774C483.816 110.858 484.04 110.88 484.256 110.837C484.472 110.794 484.67 110.688 484.826 110.532C484.982 110.377 485.088 110.178 485.131 109.962C485.174 109.746 485.152 109.522 485.067 109.318C484.983 109.115 484.84 108.941 484.657 108.819C484.474 108.696 484.259 108.631 484.038 108.631C483.743 108.631 483.46 108.748 483.251 108.957C483.042 109.166 482.925 109.449 482.925 109.745Z" fill="#683F1D"/>
<path d="M491.448 113.836C492.063 113.836 492.562 113.337 492.562 112.722C492.562 112.107 492.063 111.608 491.448 111.608C490.833 111.608 490.334 112.107 490.334 112.722C490.334 113.337 490.833 113.836 491.448 113.836Z" fill="#683F1D"/>
<path d="M504.237 122.352C504.316 123.568 500.912 128.008 500.619 129.39C499.6 134.272 499.545 136.705 494.11 140.315C488.154 144.265 476.731 147.812 470.965 143.246C468.729 141.484 467.489 138.088 467.489 134.114C467.549 131.034 468.222 127.997 469.468 125.18C470.715 122.363 472.51 119.823 474.749 117.707C474.043 120.294 473.178 122.835 472.158 125.314C473.309 123.759 474.551 122.274 475.878 120.867C477.446 120.132 479.174 119.803 480.902 119.911C481.89 120.18 487.68 122.581 487.909 123.679C488.138 124.777 487.222 128.553 488.438 128.822C489.655 129.09 494.987 128.513 496.338 127.645C497.689 126.776 501.33 121.056 501.67 120.18C501.883 119.635 502.784 120.132 503.455 120.883C503.862 121.279 504.135 121.793 504.237 122.352Z" fill="#604730"/>
<path d="M508.7 125.702C507.35 122.542 503.89 122.637 502.002 125.164" stroke="#934735" stroke-width="0.75" stroke-linecap="round" stroke-linejoin="round"/>
<path d="M502.91 124.225C506.639 123.3 508.282 128.814 503.305 128.806" stroke="#934735" stroke-width="0.75" stroke-linecap="round" stroke-linejoin="round"/>
<path d="M481.913 103.717C481.637 105.297 488.928 106.647 489.023 104.285C489.118 101.924 482.214 102.034 481.913 103.717Z" fill="#604730"/>
<path d="M499.877 106.988C499.822 108.568 492.412 108.441 492.767 106.103C493.123 103.765 499.94 105.289 499.877 106.988Z" fill="#604730"/>
<path d="M481.763 124.122C486.282 124.848 488.28 124.122 489.458 122.21" stroke="#934735" stroke-width="0.75" stroke-linecap="round" stroke-linejoin="round"/>
<path d="M480.713 117.233C482.214 114.176 484.204 113.07 486.171 112.849C487.103 112.719 487.969 112.298 488.646 111.645C489.323 110.992 489.776 110.141 489.939 109.215" stroke="#934735" stroke-width="0.75" stroke-linecap="round" stroke-linejoin="round"/>
<path d="M504.237 122.352C504.316 123.569 500.912 128.008 500.619 129.391C499.6 134.272 499.545 136.705 494.11 140.315C488.154 144.265 476.731 147.812 470.965 143.246C468.729 141.485 467.489 138.088 467.489 134.114C473.809 139.533 483.075 140.11 488.762 138.483C496.788 136.176 501.694 125.504 503.471 120.883C503.872 121.282 504.14 121.795 504.237 122.352Z" fill="#473526"/>
<path d="M468.484 127.818C476.834 134.928 488.336 129.303 489.023 128.806" stroke="#896442" stroke-width="0.75" stroke-linecap="round" stroke-linejoin="round"/>
<path d="M467.536 135.378C474.488 139.028 485.476 140.039 493.699 128.45" stroke="#896442" stroke-width="0.75" stroke-linecap="round" stroke-linejoin="round"/>
<path d="M476.178 145.277C477.893 142.812 482.395 141.738 487.119 140.426C496.314 137.859 497.728 134.051 498.621 125.038" stroke="#896442" stroke-width="0.75" stroke-linecap="round" stroke-linejoin="round"/>
<path d="M503.993 271.667C503.99 273.355 503.618 275.021 502.903 276.549C501.994 278.466 500.694 280.172 499.087 281.557C494.837 285.333 488.217 287.758 480.776 287.758C476.598 287.791 472.456 286.985 468.595 285.389C464.96 283.954 461.828 281.482 459.59 278.279C458.279 276.325 457.57 274.028 457.552 271.675C457.551 270.999 457.615 270.325 457.741 269.661C458.697 264.313 463.445 259.779 470.072 257.393C473.509 256.176 477.13 255.561 480.776 255.576C485.539 255.541 490.244 256.623 494.513 258.736C496.349 259.649 498.041 260.826 499.537 262.227C502.342 264.85 503.993 268.12 503.993 271.667Z" fill="#A7CAF0"/>
<path d="M502.903 276.55C501.994 278.467 500.694 280.173 499.087 281.558C494.837 285.334 488.218 287.759 480.776 287.759C476.598 287.792 472.456 286.986 468.595 285.389C464.961 283.955 461.828 281.482 459.59 278.28C476.163 282.601 494.063 278.959 502.903 276.55Z" fill="#93BEE5"/>
<path d="M555.394 209.531C551.824 215.376 539.714 231.586 527.794 247.061C517.738 260.103 507.816 272.616 503.266 277.932C502.055 279.335 500.647 280.557 499.087 281.558C496.283 283.334 493.151 284.529 489.877 285.071C486.603 285.614 483.253 285.494 480.026 284.718C475.412 283.557 471.415 280.91 469.235 276.716C468.29 274.876 467.716 272.868 467.544 270.807C467.197 267.047 468.137 262.473 470.072 257.378C473.73 247.788 480.91 236.405 489.545 225.266C490.603 223.9 491.693 222.533 492.791 221.174C494.482 219.068 496.214 217.003 497.989 214.981C498.605 214.262 499.221 213.559 499.853 212.848C500.343 212.295 500.833 211.742 501.331 211.197L503.029 209.325L503.124 209.223L504.854 207.366C506.031 206.11 507.224 204.87 508.401 203.661L509.98 202.081C510.557 201.497 511.142 200.912 511.726 200.343C511.751 200.315 511.777 200.289 511.805 200.265C513.038 199.048 514.267 197.868 515.494 196.726L515.66 196.575C519.817 192.652 524.187 188.96 528.75 185.516C533.568 181.946 537.921 179.363 541.444 178.122C547.384 176.037 552.819 178.565 556.145 183.518C560.419 189.766 561.248 199.956 555.394 209.531Z" fill="#A7CAF0"/>
<path d="M540.923 229.8C536.831 235.258 532.304 241.215 527.794 247.06C517.738 260.102 507.816 272.615 503.266 277.931C502.055 279.335 500.647 280.556 499.087 281.557" stroke="#83ADDF" stroke-width="0.75" stroke-linecap="round" stroke-linejoin="round"/>
<path d="M470.073 257.385C473.73 247.795 480.911 236.412 489.545 225.274C497.458 215.091 506.147 205.536 515.534 196.693" stroke="#83ADDF" stroke-width="0.75" stroke-linecap="round" stroke-linejoin="round"/>
<path d="M527.399 194.008C523.244 191.638 519.152 192.523 511.734 200.328" stroke="#83ADDF" stroke-width="0.75" stroke-linecap="round" stroke-linejoin="round"/>
<path d="M556.185 183.485C554.36 182.71 552.451 182.148 550.497 181.811C543.514 180.571 536.325 182.206 528.789 185.484C533.608 181.913 537.961 179.33 541.484 178.09C547.424 176.005 552.859 178.532 556.185 183.485Z" fill="#C3DCF8"/>
<path d="M527.794 247.06C517.738 260.103 507.816 272.615 503.266 277.932C502.055 279.335 500.647 280.556 499.087 281.557C496.283 283.333 493.151 284.528 489.877 285.071C486.603 285.614 483.253 285.493 480.026 284.717C475.412 283.556 471.415 280.91 469.235 276.715C476.645 279.598 484.007 279.606 489.268 276.952C492.198 275.533 494.501 273.083 495.738 270.072C496.835 267.36 498.104 264.722 499.537 262.172C508.1 247.1 519.808 241.602 527.794 247.06Z" fill="#93BEE5"/>
<path d="M443.159 182.379C442.779 180.254 449.913 177.986 455.458 177.354L456.501 186.731C456.501 186.731 444.47 189.757 443.159 182.379Z" fill="#93BEE5"/>
<path d="M454.305 176.763C451.421 165.996 451.35 148.569 452.338 146.105C453.325 143.64 455.316 144.564 456.501 144.636C457.686 144.707 458.239 141.539 462.244 141.539C462.244 141.539 462.465 137.542 465.238 137.084C465.238 137.084 464.179 131.262 468.848 132.194C469.906 132.407 468.848 138.869 471.533 147.993C471.683 148.506 477.34 144.454 478.643 143.53C480.736 142.021 484.789 141.523 482.15 145.955C480.57 148.648 477.94 152.906 476.107 155.576C472.466 161.033 470.578 167.471 470.696 174.029L454.305 176.763Z" fill="#B25E47"/>
<path d="M451.793 151.397C451.753 149.617 451.936 147.839 452.338 146.105C453.317 143.648 455.316 144.564 456.501 144.636C457.686 144.707 458.239 141.539 462.244 141.539C462.244 141.539 462.465 137.542 465.238 137.084C465.238 137.084 464.179 131.262 468.848 132.194C469.906 132.407 468.848 138.869 471.533 147.993C471.683 148.506 477.339 144.454 478.643 143.53C480.736 142.021 484.789 141.523 482.15 145.955C481.36 147.298 480.294 149.036 479.212 150.773" stroke="#934735" stroke-width="0.75" stroke-linecap="round" stroke-linejoin="round"/>
<path d="M462.244 141.539C462.227 142.281 462.272 143.024 462.378 143.759" stroke="#934735" stroke-width="0.75" stroke-linecap="round" stroke-linejoin="round"/>
<path d="M465.238 137.084C465.577 139.035 466.075 140.844 466.075 140.844" stroke="#934735" stroke-width="0.75" stroke-linecap="round" stroke-linejoin="round"/>
<path d="M449.233 172.315L450.489 190.01C450.489 190.01 473.501 186.061 473.153 185.547C472.805 185.034 472.205 170.538 472.205 170.538L449.233 172.315Z" fill="white"/>
<path d="M494.387 258.735C494.387 259.194 494.363 259.652 494.316 260.11C494.316 260.458 494.268 260.805 494.237 261.153C494.24 261.221 494.24 261.29 494.237 261.358C494.237 261.753 494.158 262.148 494.11 262.527C494.008 263.412 493.873 264.289 493.707 265.15C492.989 269.361 491.442 273.389 489.157 276.999C486.979 280.503 483.742 283.223 479.915 284.764C476.292 286.093 472.361 286.335 468.603 285.459H468.484C460.917 283.824 456.398 275.395 453.618 265.758C451.082 256.95 449.992 247.131 449.368 240.551C448.041 226.727 443.048 182.458 443.048 182.458C446.579 184.228 478.177 176.85 478.177 176.85C478.177 176.85 484.67 202.602 489.442 225.36C492.001 237.565 494.071 248.916 494.371 254.967C494.41 256.16 494.426 257.432 494.387 258.735Z" fill="#A7CAF0"/>
<path d="M453.602 265.671C451.066 256.863 449.976 247.044 449.352 240.464C448.025 226.64 443.032 182.371 443.032 182.371" stroke="#83ADDF" stroke-width="0.75" stroke-linecap="round" stroke-linejoin="round"/>
<path d="M478.153 176.763C478.153 176.763 484.647 202.515 489.418 225.273C491.977 237.478 494.047 248.83 494.347 254.881C494.41 256.16 494.426 257.432 494.347 258.696C494.271 261.004 494.007 263.303 493.557 265.569" stroke="#83ADDF" stroke-width="0.75" stroke-linecap="round" stroke-linejoin="round"/>
<path d="M489.141 276.904C486.963 280.408 483.726 283.128 479.899 284.669C476.276 285.998 472.345 286.24 468.587 285.364H468.468C460.901 283.729 456.382 275.3 453.602 265.663C454.848 267.069 456.189 268.389 457.614 269.613C461.011 272.606 464.9 274.99 469.108 276.659C476.518 279.582 483.88 279.59 489.141 276.904Z" fill="#93BEE5"/>
<path d="M268.486 278.397C265.224 276.463 262.257 274.068 259.678 271.288C251.067 262.401 242.797 248.672 236.682 237.059C232.48 229.081 229.304 222.098 227.732 218.361C227.645 218.164 227.559 217.95 227.472 217.729C227.251 217.184 227.006 216.576 226.761 215.92C221.492 202.159 210.638 164.661 233.554 158.76C242.757 156.39 247.584 160.34 257.513 175.799C259.449 178.809 261.582 182.253 263.975 186.171C278.692 210.272 297.832 250.014 299.625 260.9C301.419 271.785 283.21 286.589 268.486 278.397Z" fill="#FFB63F"/>
<path d="M257.521 175.791C253.319 175.696 248.382 177.49 243.966 182.332C240.261 186.4 236.927 192.601 234.708 201.654C233.487 207.073 230.727 212.024 226.761 215.913C221.492 202.152 210.638 164.653 233.554 158.752C242.765 156.398 247.6 160.372 257.521 175.791Z" fill="#FFCB66"/>
<path d="M259.678 271.295C251.067 262.408 242.797 248.679 236.682 237.067C232.48 229.088 229.304 222.105 227.732 218.369C227.645 218.171 227.559 217.958 227.472 217.737L239.7 207.128C246.92 207.349 253.24 227.888 247.26 233.046C242.149 237.446 242.52 246.388 252.189 248.055C259.307 249.256 259.725 265.979 259.678 271.295Z" fill="#FF9400"/>
<path d="M202.146 179.669C187.927 178.539 186.173 165.655 187.074 161.634C187.974 157.613 190.557 139.231 191.434 130.613C193.575 109.498 215.646 116.979 215.504 136.34C215.504 137.651 215.409 140.701 215.346 144.39C215.283 148.079 215.251 152.589 215.385 156.468C215.385 156.665 215.385 156.863 215.385 157.06C215.686 164.826 216.389 180.798 202.146 179.669Z" fill="#FEBD9D"/>
<path d="M215.385 156.468C201.482 156.8 201.253 147.4 202.106 140.717L215.346 144.39C215.283 148.142 215.251 152.59 215.385 156.468Z" fill="#F4A789"/>
<path d="M243.966 182.347C243.286 187.719 242.338 193.217 241.462 197.893C240.672 202.23 239.929 205.856 239.574 208.044C239.526 208.344 239.479 208.621 239.447 208.834C239.115 211.204 238.041 222.342 236.682 237.035C234.423 261.523 231.366 295.783 229.573 315.793H137.844C138.634 309.702 139.582 302.498 140.522 295.199C142.892 276.667 145.309 257.582 145.404 255.03C145.594 250.038 143.224 218.495 140.862 201.661C140.791 201.164 140.72 200.674 140.649 200.2C138.421 185.136 143.319 178.01 150.531 175.34C151.171 175.1 151.826 174.897 152.49 174.732C159.331 173.01 170.406 169.51 182.934 165.758C185.51 164.968 188.148 164.178 190.834 163.388C191.885 163.088 193.054 162.788 194.333 162.496C194.839 162.859 195.376 163.222 195.913 163.586L196.814 164.139C196.988 164.249 197.161 164.352 197.335 164.447C198.362 165.055 199.468 165.64 200.637 166.185C201.064 166.39 201.506 166.588 201.956 166.777C202.391 166.967 202.833 167.149 203.291 167.322H203.331C203.694 167.465 204.073 167.599 204.453 167.733H204.516L205.069 167.923L206.214 168.294C207.115 168.578 208.039 168.831 208.995 169.084C209.998 167.954 210.843 166.896 211.562 165.924L212.194 165.031L212.589 164.439C212.826 164.068 213.047 163.72 213.245 163.38C213.442 163.041 213.679 162.591 213.861 162.259C214.221 161.568 214.538 160.856 214.809 160.126L214.983 159.612C216.412 159.494 217.882 159.383 219.39 159.289C221.271 159.162 223.206 159.059 225.197 158.965C227.872 158.838 230.642 158.749 233.507 158.696C235.582 158.649 237.704 158.625 239.874 158.625C245.577 158.68 245.49 170.198 243.966 182.347Z" fill="#FFB63F"/>
<path d="M241.469 197.908C240.553 202.837 239.732 206.858 239.447 208.873C239.115 211.243 238.041 222.381 236.682 237.074" stroke="#F7AD2B" stroke-width="0.75" stroke-linecap="round" stroke-linejoin="round"/>
<path d="M243.966 182.346C240.261 186.415 236.927 192.616 234.707 201.669C233.883 205.103 232.481 208.373 230.56 211.338C229.471 212.997 228.196 214.526 226.761 215.896C223.645 218.866 219.759 220.902 215.543 221.773C213.669 222.163 211.754 222.33 209.84 222.27C204.516 222.112 198.781 220.296 192.935 216.543C189.918 214.572 187.11 212.298 184.554 209.758C179.861 205.129 175.438 201.7 171.125 199.449C161.408 194.401 152.063 195.231 140.893 201.684C140.822 201.187 140.751 200.697 140.68 200.223C138.452 185.159 143.35 178.033 150.562 175.363C151.203 175.123 151.857 174.92 152.521 174.755C159.362 173.033 170.437 169.534 182.966 165.781C185.541 164.991 188.18 164.201 190.865 163.411C191.916 163.111 193.085 162.811 194.365 162.519C194.878 162.882 195.408 163.246 195.945 163.609C199.152 165.651 202.623 167.245 206.261 168.349C207.162 168.633 208.086 168.886 209.042 169.139C210.045 168.009 210.891 166.95 211.609 165.979C212.961 164.21 214.054 162.257 214.856 160.181C214.919 159.999 214.982 159.825 215.03 159.667C216.46 159.549 217.929 159.438 219.438 159.343C221.318 159.217 223.261 159.114 225.252 159.019C227.927 158.893 230.697 158.803 233.562 158.751C235.637 158.703 237.759 158.68 239.929 158.68C245.577 158.68 245.49 170.197 243.966 182.346Z" fill="#FFCB66"/>
<path d="M161.156 218.755C161.156 218.755 178.7 222.31 171.915 236.481C166.219 248.37 172.578 253.702 178.866 249.674C185.731 245.274 198.899 250.527 198.899 260.551C198.899 279.51 157.119 291.936 151.937 266.942C146.755 241.948 143.445 216.077 161.156 218.755Z" fill="#FF9400"/>
<path d="M230.56 211.338L231.406 212.301L216.965 236.039L216.326 243.022L192.303 218.787L192.975 216.575L194.886 210.255L177.034 192.482C177.176 190.902 181.197 173.681 183.108 165.963L186.987 165.252L195.969 163.617C199.176 165.659 202.647 167.253 206.285 168.357C207.186 168.641 208.11 168.894 209.066 169.147C210.069 168.017 210.914 166.958 211.633 165.987C212.985 164.218 214.078 162.265 214.88 160.189L219.462 159.351C221.342 159.225 223.285 159.122 225.276 159.027L234.755 191.644L225.995 206.148L230.56 211.338Z" fill="#FF9400"/>
<path d="M221.808 164.392C221.31 173.176 219.951 186.036 218.522 198.13C217.463 207.104 216.357 215.651 215.543 221.829C214.754 227.548 214.28 231.198 214.28 231.198C212.628 228.33 211.146 225.367 209.84 222.326C208.26 218.716 206.38 214.332 204.31 209.245C200.061 198.976 194.776 185.776 188.282 170.301L186.979 165.316L195.961 163.681C199.168 165.723 202.639 167.317 206.277 168.42C207.178 168.705 208.102 168.958 209.058 169.21C210.061 168.081 210.906 167.022 211.625 166.051C212.977 164.281 214.07 162.329 214.872 160.252L219.454 159.415L221.808 164.392Z" fill="white"/>
<path d="M216.002 169.913C216.002 169.913 215.725 171.382 215.259 173.215C214.469 176.28 213.158 180.372 211.657 180.372C210.156 180.372 207.494 178.073 205.48 176.201C204.089 174.905 203.054 173.831 203.054 173.831L206.262 168.42C207.162 168.704 208.086 168.957 209.042 169.21C210.045 168.08 210.891 167.021 211.61 166.05L216.002 169.913Z" fill="#A7CAF0"/>
<path d="M218.522 198.13C216.476 215.437 214.28 231.173 214.28 231.173C211.91 227.279 208.631 219.758 204.279 209.22C205.448 203.312 207.834 189.329 209.508 177.488L213.087 176.698C214.619 181.628 217.036 191.755 218.522 198.13Z" fill="#A7CAF0"/>
<path d="M209.026 169.163L205.464 176.201L203.362 180.372C203.362 180.372 190.723 174.361 183.077 165.995C183.024 165.932 182.979 165.863 182.942 165.79C182.01 163.681 185.668 152.969 187.998 156.468C189.741 158.844 191.879 160.904 194.318 162.559C197.951 165.136 201.976 167.11 206.238 168.404C207.146 168.681 208.102 168.942 209.026 169.163Z" fill="#683F1D"/>
<path d="M217.629 174.764L215.259 173.184L209.042 169.131C210.045 168.002 210.89 166.943 211.609 165.971C213.081 164.062 214.236 161.928 215.03 159.652C215.272 158.982 215.408 158.278 215.433 157.566C216.95 157.603 218.392 158.236 219.446 159.328C220.154 160.141 220.624 161.133 220.804 162.196C221.705 166.919 217.629 174.764 217.629 174.764Z" fill="#683F1D"/>
<path d="M209.619 315.824L216.326 243.054L216.965 236.071L214.28 231.173" stroke="#F7AD2B" stroke-width="0.75" stroke-linecap="round" stroke-linejoin="round"/>
<path d="M347.306 156.714C344.936 153.554 342.756 152.322 340.766 152.156C340.955 151.729 341.137 151.287 341.319 150.829C342.898 146.832 341.398 145.299 340.039 145.702C338.68 146.105 331.855 153.673 331.073 155.181C328.98 159.257 323.173 175.467 322.652 176.976C323.837 186.605 336.547 189.694 336.547 189.694C337.882 185.681 340.458 183.209 343.293 181.25C346.129 179.291 347.464 176.107 350.403 169.866C352.512 165.474 352.243 163.405 347.306 156.714Z" fill="#FEBD9D"/>
<path d="M347.307 156.714C344.937 153.554 342.757 152.322 340.766 152.156C340.955 151.729 341.137 151.287 341.319 150.829C342.899 146.832 341.398 145.299 340.039 145.702C338.68 146.105 331.855 153.673 331.073 155.181" stroke="#EF8A66" stroke-width="0.75" stroke-linecap="round" stroke-linejoin="round"/>
<path d="M343.744 197.538C345.182 194.236 337.961 190.657 337.961 190.657L334.012 197.941C334.012 197.941 340.71 202.214 343.744 197.538Z" fill="#FF9400"/>
<path d="M318.205 182.228C321.009 177.955 323.26 174.455 323.26 174.455C328.095 180.958 333.982 186.608 340.679 191.17L337.1 197.909C332.808 197.3 328.769 195.511 325.433 192.743C322.097 189.975 319.595 186.334 318.205 182.228Z" fill="#683F1D"/>
<path d="M268.493 278.397C276.393 286.297 294.98 287.964 312.249 254.699C329.517 221.434 343.72 197.681 343.72 197.681C343.72 197.681 335.094 199.663 319.619 178.619C319.619 178.619 303.693 199.948 287.61 219.459C269.078 241.933 254.401 264.265 268.493 278.397Z" fill="#FFB63F"/>
<path d="M319.619 178.61C319.619 178.61 303.694 199.939 287.61 219.451C281.973 226.126 276.755 233.143 271.985 240.463" stroke="#F7AD2B" stroke-width="0.75" stroke-linecap="round" stroke-linejoin="round"/>
<path d="M338.04 172.054C338.04 172.054 341.508 164.004 336.879 158.135C336.879 158.135 340.205 153.49 340.766 152.155" stroke="#EF8A66" stroke-width="0.75" stroke-linecap="round" stroke-linejoin="round"/>
<path d="M338.04 158.577L374.654 74.4561" stroke="#DDDDDD" stroke-width="3" stroke-linecap="round" stroke-linejoin="round"/>
<path d="M354.4 161.926C357.465 163.506 352.093 171.406 349.321 170.853C345.774 170.094 351.145 160.283 354.4 161.926Z" fill="#FEBD9D" stroke="#EF8A66" stroke-width="0.75" stroke-linecap="round" stroke-linejoin="round"/>
<path d="M351.873 155.938C355.664 157.921 348.934 168.301 345.506 167.527C342.077 166.753 347.844 153.829 351.873 155.938Z" fill="#FEBD9D" stroke="#EF8A66" stroke-width="0.75" stroke-linecap="round" stroke-linejoin="round"/>
<path d="M349.502 152.258C353.104 154.667 345.379 165.687 342.022 164.597C338.664 163.507 345.663 149.722 349.502 152.258Z" fill="#FEBD9D" stroke="#EF8A66" stroke-width="0.75" stroke-linecap="round" stroke-linejoin="round"/>
<path d="M347.133 144.319C351.138 145.97 345.734 158.269 342.235 157.898C338.735 157.527 342.851 142.557 347.133 144.319Z" fill="#FEBD9D" stroke="#EF8A66" stroke-width="0.75" stroke-linecap="round" stroke-linejoin="round"/>
<path d="M170.817 209.672C170.73 210.406 170.627 211.157 170.501 211.907C170.43 212.318 170.367 212.697 170.288 213.155C170.209 213.613 170.13 214.001 170.035 214.427C169.893 215.154 169.735 215.889 169.553 216.623C169.276 217.769 168.992 218.993 168.708 220.217C168.605 220.636 168.51 221.063 168.415 221.489C168.12 222.769 167.82 224.086 167.515 225.439C167.412 225.889 167.309 226.355 167.207 226.821C167.144 227.09 167.088 227.366 167.025 227.611C166.883 228.22 166.749 228.828 166.614 229.452C165.753 233.338 164.837 237.454 163.865 241.657C163.628 242.691 163.383 243.734 163.139 244.777C163.067 245.093 162.988 245.417 162.909 245.733L162.388 247.921C162.388 248.087 162.309 248.261 162.262 248.434C162.072 249.224 161.882 250.014 161.685 250.804C161.535 251.428 161.377 252.044 161.219 252.668C161.061 253.292 160.958 253.711 160.816 254.248C160.429 255.741 160.026 257.242 159.631 258.719L159.157 260.449C158.083 264.281 156.961 268.001 155.768 271.509C155.61 271.975 155.444 272.441 155.286 272.891C154.884 274.036 154.496 275.158 154.054 276.248C153.888 276.683 153.722 277.117 153.549 277.544C152.938 279.076 152.314 280.538 151.676 281.928C151.337 282.655 150.997 283.366 150.649 284.045C150.563 284.227 150.468 284.408 150.373 284.582C150.041 285.214 149.709 285.822 149.37 286.407C149.03 286.992 148.722 287.513 148.398 288.034V288.09C148.051 288.619 147.711 289.132 147.355 289.622C146.645 290.612 145.853 291.539 144.986 292.395C144.867 292.521 144.741 292.64 144.614 292.75C143.9 293.434 143.104 294.025 142.244 294.512L141.786 294.741H141.731C141.541 294.831 141.352 294.91 141.162 294.978C140.965 295.057 140.767 295.12 140.562 295.183C125.979 299.417 117.724 291.163 116.374 278.839C116.259 277.703 116.206 276.561 116.216 275.419C116.216 266.105 118.965 249.785 122.369 234.926C124.305 226.482 126.453 218.511 128.428 212.563L129.376 209.687C134.906 192.862 139.559 177.063 150.57 175.333C161.322 173.65 169.948 183.904 171.109 199.418C171.353 202.837 171.255 206.272 170.817 209.672Z" fill="#FFB63F"/>
<path d="M140.522 295.231C140.726 295.174 140.926 295.105 141.123 295.026C141.312 294.958 141.502 294.879 141.691 294.789H141.747C141.904 294.722 142.057 294.646 142.205 294.56C143.065 294.073 143.861 293.482 144.575 292.798C144.701 292.688 144.82 292.569 144.946 292.443C145.813 291.587 146.606 290.66 147.316 289.67C147.671 289.188 148.019 288.675 148.358 288.138V288.082C148.69 287.561 149.014 287.024 149.33 286.455C149.672 285.87 150.004 285.262 150.325 284.63C150.42 284.456 150.515 284.275 150.602 284.093C150.95 283.414 151.289 282.703 151.629 281.976C152.271 280.586 152.895 279.124 153.501 277.592C153.675 277.165 153.841 276.731 154.007 276.296C154.425 275.206 154.797 274.084 155.239 272.939C155.397 272.481 155.563 272.023 155.721 271.557C156.914 268.049 158.035 264.329 159.11 260.497C159.268 259.929 159.426 259.352 159.584 258.767C159.987 257.29 160.374 255.789 160.769 254.296C160.911 253.767 161.037 253.246 161.171 252.716C161.306 252.187 161.487 251.476 161.637 250.852C161.835 250.062 162.025 249.272 162.214 248.482C162.262 248.308 162.301 248.135 162.341 247.969C162.514 247.234 162.696 246.507 162.862 245.781C162.941 245.465 163.02 245.141 163.091 244.825C163.336 243.782 163.581 242.739 163.818 241.705C164.789 237.502 165.706 233.386 166.567 229.5C166.709 228.884 166.843 228.268 166.978 227.659C167.041 227.383 167.096 227.106 167.159 226.869L167.467 225.487C167.773 224.118 168.073 222.801 168.368 221.537C168.463 221.111 168.557 220.684 168.66 220.265C168.945 219.017 169.229 217.817 169.505 216.671C169.687 215.936 169.845 215.202 169.987 214.475C170.082 214.049 170.169 213.622 170.24 213.203C170.311 212.785 170.39 212.366 170.453 211.955C170.58 211.165 170.682 210.454 170.769 209.72C170.769 209.546 170.817 209.372 170.832 209.198" stroke="#F7AD2B" stroke-width="0.75" stroke-linecap="round" stroke-linejoin="round"/>
<path d="M171.093 199.489C161.377 194.441 152.032 195.271 140.862 201.724C136.823 204.108 132.971 206.794 129.337 209.758C134.866 192.932 139.519 177.133 150.531 175.403C161.282 173.689 169.908 183.943 171.093 199.489Z" fill="#FFCB66"/>
<path d="M149.37 286.423C149.054 286.992 148.73 287.529 148.398 288.05V288.106C148.058 288.643 147.711 289.156 147.355 289.638C146.645 290.628 145.853 291.556 144.986 292.411C144.867 292.537 144.741 292.656 144.614 292.766C143.9 293.45 143.104 294.041 142.244 294.528L141.786 294.757H141.731C141.541 294.847 141.352 294.926 141.162 294.994C140.965 295.073 140.767 295.136 140.562 295.2C125.979 299.434 117.724 291.179 116.374 278.856C116.259 277.719 116.206 276.577 116.216 275.435C116.216 266.122 118.965 249.801 122.369 234.942C130.372 239.635 132.56 249.809 128.57 260.884C127.685 263.323 126.575 265.674 125.253 267.907C116.468 282.868 134.495 293.62 149.37 286.423Z" fill="#FF9400"/>
<path d="M210.353 105.241C213.9 103.061 218.379 102.721 218.205 117.999L210.353 105.241Z" fill="#BF8228"/>
<path d="M213.829 104.112C212.78 106.457 211.405 108.643 209.745 110.605L210.709 128.087L191.75 128.719L188.796 128.821C187.066 122.699 186.805 118.552 185.209 117.501C184.808 117.167 184.528 116.709 184.414 116.199C184.299 115.689 184.357 115.155 184.577 114.681C185.17 113.006 183.211 113.947 181.947 111.845C181.244 110.676 181.038 105.818 186.323 106.41C184.593 103.029 187.271 100.32 193.52 100.557C192.09 99.8696 191.695 97.5156 195.163 97.3497C199.356 97.1009 203.561 97.1009 207.754 97.3497C209.385 97.4851 210.948 98.0643 212.273 99.0244C213.085 99.5575 213.685 100.358 213.97 101.287C214.254 102.216 214.204 103.215 213.829 104.112Z" fill="#BF8228"/>
<path d="M213.829 104.112C212.779 106.458 211.404 108.643 209.745 110.605L210.709 128.087L191.75 128.719C192.366 118.639 190.96 115.25 190.289 112.13C189.617 109.01 190.881 104.894 194.854 105.81C198.828 106.727 205.384 104.396 204.286 102.224C203.496 100.644 206.791 97.2079 212.273 99.0089C213.089 99.5427 213.691 100.346 213.976 101.278C214.26 102.211 214.208 103.214 213.829 104.112Z" fill="#B57724"/>
<path d="M193.512 100.564L200.882 100.959" stroke="#9B621F" stroke-width="0.75" stroke-linecap="round" stroke-linejoin="round"/>
<path d="M186.315 106.41L194.302 107.2" stroke="#9B621F" stroke-width="0.75" stroke-linecap="round" stroke-linejoin="round"/>
<path d="M214.959 147.512C202.896 149.882 192.903 132.74 192.903 132.74C187.287 133.877 185.209 128.474 186.876 124.84C187.054 124.448 187.271 124.075 187.524 123.726C187.981 123.025 188.637 122.476 189.409 122.151C190.18 121.826 191.032 121.739 191.853 121.902C193.424 122.302 194.827 123.193 195.858 124.445C196.995 125.693 198.315 124.279 197.382 122.075C196.45 119.871 195.51 112.28 196.656 110.724C197.801 109.168 208.213 107.027 211.333 106.869C211.535 106.856 211.739 106.856 211.941 106.869C212.085 106.892 212.223 106.946 212.344 107.027C213 107.52 213.564 108.124 214.011 108.812C214.39 109.318 214.801 109.918 215.188 110.582C216.297 112.407 217.304 114.293 218.205 116.23C218.529 116.917 218.853 117.62 219.161 118.331C219.469 119.042 219.722 119.634 219.951 120.29C220.401 121.388 220.804 122.478 221.16 123.545C221.444 124.39 221.697 125.219 221.91 126.009C221.91 126.057 221.91 126.104 221.95 126.152C224.027 133.925 225.173 145.489 214.959 147.512Z" fill="#FEBD9D"/>
<path d="M207.628 127.281C210.108 127.715 213.845 127.455 215.362 125.978C215.362 125.978 215.93 131.333 212.723 131.776C209.01 132.289 207.628 127.281 207.628 127.281Z" fill="white" stroke="#EF8A66" stroke-width="0.75" stroke-linecap="round" stroke-linejoin="round"/>
<path d="M217.976 141.033C218.381 142.323 218.259 143.72 217.636 144.92" stroke="#EF8A66" stroke-width="0.75" stroke-linecap="round" stroke-linejoin="round"/>
<path d="M192.911 132.739C193.923 132.468 194.871 131.998 195.7 131.356" stroke="#EF8A66" stroke-width="0.75" stroke-linecap="round" stroke-linejoin="round"/>
<path d="M189.143 126.727C190.936 124.358 194.381 125.851 195.329 128.26" stroke="#EF8A66" stroke-width="0.75" stroke-linecap="round" stroke-linejoin="round"/>
<path d="M194.847 127.344C191.126 124.548 189.823 130.859 194.167 129.959" stroke="#EF8A66" stroke-width="0.75" stroke-linecap="round" stroke-linejoin="round"/>
<path d="M209.926 113.859C209.816 115.51 212.083 118.18 214.169 118.82C216.254 119.46 216.902 120.037 216.357 121.751" stroke="#EF8A66" stroke-width="0.75" stroke-linecap="round" stroke-linejoin="round"/>
<path d="M199.871 113.93C200.187 115.242 207.328 113.709 206.364 111.268C205.4 108.827 199.341 111.805 199.871 113.93Z" fill="#BF8228"/>
<path d="M209.492 109.704C209.397 111.284 215.678 111.237 215.654 110.06C215.63 108.883 209.682 106.837 209.492 109.704Z" fill="#BF8228"/>
<path d="M205.661 117.485C205.661 117.705 205.726 117.921 205.849 118.104C205.971 118.287 206.145 118.43 206.348 118.514C206.552 118.598 206.776 118.62 206.992 118.577C207.208 118.534 207.407 118.428 207.562 118.273C207.718 118.117 207.824 117.918 207.867 117.702C207.91 117.486 207.888 117.262 207.804 117.059C207.719 116.855 207.577 116.681 207.394 116.559C207.21 116.436 206.995 116.371 206.775 116.371C206.479 116.371 206.196 116.488 205.987 116.697C205.778 116.906 205.661 117.19 205.661 117.485Z" fill="#683F1D"/>
<path d="M214.279 116.98C214.895 116.98 215.393 116.481 215.393 115.866C215.393 115.251 214.895 114.752 214.279 114.752C213.664 114.752 213.166 115.251 213.166 115.866C213.166 116.481 213.664 116.98 214.279 116.98Z" fill="#683F1D"/>
<path d="M206.127 126.127C205.44 127.667 203.212 128.181 201.142 127.264C199.073 126.348 197.983 124.349 198.63 122.809C199.278 121.269 201.545 120.763 203.615 121.679C205.685 122.596 206.806 124.586 206.127 126.127Z" fill="#F4AF90"/>
<path d="M221.973 126.119C220.299 126.862 218.513 126.609 217.708 125.408C216.768 124.01 217.526 121.854 219.406 120.59C219.589 120.467 219.778 120.357 219.975 120.258C220.425 121.356 220.828 122.446 221.183 123.512C221.468 124.358 221.721 125.187 221.934 125.977C221.95 126.024 221.958 126.072 221.973 126.119Z" fill="#F4AF90"/>
<path d="M243.942 253.11C252.402 252.02 255.349 250.108 258.627 248.852C261.905 247.596 264.362 247.762 264.741 249.642C264.741 249.642 268.012 248.181 269.11 248.766C270.745 249.642 269.718 252.715 264.749 254.848C259.78 256.981 245.087 263.016 242.362 262.195C239.637 261.373 237.567 256.128 243.942 253.11Z" fill="#FEBD9D" stroke="#EF8A66" stroke-width="0.75" stroke-linecap="round" stroke-linejoin="round"/>
<path d="M222.4 278.823C222.4 278.823 241.801 270.039 246.565 267.369C251.328 264.699 266.021 257.945 267.443 255.575C268.865 253.205 266.55 252.976 263.706 253.995C260.863 255.014 249.645 258.782 248.571 258.735C247.497 258.687 241.462 258.735 241.462 258.735C241.951 253.995 249.803 250.748 250.941 248.465C252.205 246.008 248.626 246.095 246.367 246.767C244.108 247.438 234.968 250.622 232.709 251.878C230.45 253.134 228.435 256.009 223.727 256.712L222.4 278.823Z" fill="#FEBD9D"/>
<path d="M259.939 260.464C263.683 258.474 266.819 256.61 267.443 255.583C268.865 253.213 266.55 252.984 263.707 254.003C260.863 255.022 249.646 258.79 248.571 258.742C247.497 258.695 241.462 258.742 241.462 258.742C241.952 254.003 249.804 250.756 250.941 248.473C252.205 246.016 248.627 246.103 246.367 246.775C245.048 247.17 241.359 248.418 238.081 249.642" stroke="#EF8A66" stroke-width="0.75" stroke-linecap="round" stroke-linejoin="round"/>
<path d="M249.401 255.575C254.535 253.924 263.201 250.424 264.741 249.666" stroke="#EF8A66" stroke-width="0.75" stroke-linecap="round" stroke-linejoin="round"/>
<path d="M241.462 258.735C241.357 259.328 241.357 259.935 241.462 260.529" stroke="#EF8A66" stroke-width="0.75" stroke-linecap="round" stroke-linejoin="round"/>
<path d="M215.062 256.744H223.759V281.675L215.962 283.176L215.062 256.744Z" fill="#683F1D"/>
<path d="M218.522 285.119C218.735 285.324 203.141 289.013 184.894 292.671C164.9 296.676 141.723 300.649 132.67 299.962C120.031 299.006 114.17 286.083 116.176 275.474C116.817 271.608 118.73 268.066 121.611 265.41C123.69 263.59 126.021 262.079 128.531 260.923C131.311 259.642 134.225 258.678 137.22 258.047H137.299L138.295 257.842L139.614 257.597C140.167 257.502 140.72 257.415 141.281 257.336L141.636 257.289C141.976 257.234 142.308 257.194 142.647 257.155L143.737 257.028H143.785L144.835 256.926C145.199 256.886 145.57 256.855 145.933 256.831L147.024 256.752C147.758 256.697 148.485 256.657 149.212 256.633H150.002H150.46L152.545 256.586H153.517C154.354 256.586 155.184 256.586 155.997 256.586H157.427H157.506L160.224 256.649C161.803 256.649 163.336 256.728 164.774 256.768H166.354H169.608C181.686 256.625 216.942 255.606 216.942 255.606C216.942 255.606 218.079 284.684 218.522 285.119Z" fill="#FFB63F"/>
<path d="M216.965 255.575C216.965 255.575 181.71 256.594 169.632 256.744C161.59 256.839 148.761 255.504 137.244 258.032" stroke="#F7AD2B" stroke-width="0.75" stroke-linecap="round" stroke-linejoin="round"/>
<path d="M184.894 292.702C164.9 296.707 141.723 300.681 132.67 299.993C120.031 299.037 114.17 286.114 116.176 275.505C116.817 271.639 118.73 268.097 121.611 265.441C123.69 263.621 126.021 262.11 128.531 260.954C127.646 263.393 126.535 265.744 125.213 267.977C116.453 282.915 134.495 293.666 149.37 286.469C149.967 286.191 150.549 285.882 151.115 285.545C163.391 278.23 179.301 288.507 184.894 292.702Z" fill="#FF9400"/>
<path d="M217.447 285.482C213.624 286.517 200.195 289.606 184.894 292.671C164.9 296.676 141.723 300.649 132.67 299.962" stroke="#F7AD2B" stroke-width="0.75" stroke-linecap="round" stroke-linejoin="round"/>
</svg>
