<svg width="560" height="380" viewBox="0 0 560 380" fill="none" xmlns="http://www.w3.org/2000/svg">
<path d="M248.49 64.4726C248.491 64.9601 248.348 65.4372 248.079 65.8434C247.809 66.2496 247.425 66.5666 246.975 66.7543C246.525 66.9421 246.03 66.9921 245.551 66.898C245.073 66.804 244.633 66.5701 244.288 66.2259C243.943 65.8818 243.707 65.4429 243.611 64.9649C243.516 64.4869 243.564 63.9912 243.75 63.5406C243.936 63.09 244.252 62.7048 244.657 62.4338C245.063 62.1628 245.539 62.0181 246.027 62.0181C246.678 62.0181 247.304 62.2764 247.765 62.7365C248.227 63.1965 248.487 63.8208 248.49 64.4726Z" fill="#DDDDDD"/>
<path d="M259.901 64.4731H307.717" stroke="#EDEDED" stroke-width="2" stroke-linecap="round" stroke-linejoin="round"/>
<path d="M248.49 75.8674C248.49 76.3546 248.345 76.8308 248.075 77.2359C247.804 77.6409 247.419 77.9566 246.969 78.1431C246.519 78.3295 246.024 78.3783 245.546 78.2832C245.068 78.1882 244.629 77.9536 244.285 77.6091C243.94 77.2647 243.706 76.8258 243.611 76.348C243.516 75.8702 243.565 75.3749 243.751 74.9248C243.937 74.4748 244.253 74.0901 244.658 73.8194C245.063 73.5488 245.539 73.4043 246.027 73.4043C246.35 73.4032 246.671 73.4661 246.971 73.5895C247.27 73.7129 247.542 73.8943 247.771 74.1232C248 74.3522 248.181 74.6241 248.305 74.9235C248.428 75.2228 248.491 75.5437 248.49 75.8674Z" fill="#DDDDDD"/>
<path d="M259.901 75.8667H278.331" stroke="#EDEDED" stroke-width="2" stroke-linecap="round" stroke-linejoin="round"/>
<path d="M107.144 64.4726C107.146 64.9601 107.003 65.4372 106.733 65.8434C106.464 66.2496 106.08 66.5666 105.63 66.7543C105.18 66.9421 104.684 66.9921 104.206 66.898C103.728 66.804 103.288 66.5701 102.943 66.2259C102.597 65.8818 102.362 65.4429 102.266 64.9649C102.17 64.4869 102.219 63.9912 102.405 63.5406C102.591 63.09 102.907 62.7048 103.312 62.4338C103.717 62.1628 104.194 62.0181 104.681 62.0181C105.333 62.0181 105.958 62.2764 106.42 62.7365C106.881 63.1965 107.142 63.8208 107.144 64.4726Z" fill="#DDDDDD"/>
<path d="M118.564 64.4731H182.27" stroke="#EDEDED" stroke-width="2" stroke-linecap="round" stroke-linejoin="round"/>
<path d="M104.681 78.3305C106.041 78.3305 107.144 77.2278 107.144 75.8674C107.144 74.5071 106.041 73.4043 104.681 73.4043C103.321 73.4043 102.218 74.5071 102.218 75.8674C102.218 77.2278 103.321 78.3305 104.681 78.3305Z" fill="#DDDDDD"/>
<path d="M118.564 75.8667H149.405" stroke="#EDEDED" stroke-width="2" stroke-linecap="round" stroke-linejoin="round"/>
<path d="M107.144 87.4677C107.146 87.9552 107.003 88.4323 106.733 88.8385C106.464 89.2447 106.08 89.5617 105.63 89.7495C105.18 89.9372 104.684 89.9872 104.206 89.8932C103.728 89.7991 103.288 89.5652 102.943 89.221C102.597 88.8769 102.362 88.4381 102.266 87.96C102.17 87.482 102.219 86.9863 102.405 86.5357C102.591 86.0851 102.907 85.6999 103.312 85.4289C103.717 85.1579 104.194 85.0132 104.681 85.0132C105.333 85.0132 105.958 85.2715 106.42 85.7316C106.881 86.1916 107.142 86.8159 107.144 87.4677Z" fill="#DDDDDD"/>
<path d="M118.564 87.4683H158.715" stroke="#EDEDED" stroke-width="2" stroke-linecap="round" stroke-linejoin="round"/>
<path d="M344.689 37.6367H239.154V50.5466H344.689V37.6367Z" stroke="#DDDDDD" stroke-linecap="round" stroke-linejoin="round"/>
<path d="M206.048 37.6367H100.512V50.5466H206.048V37.6367Z" stroke="#DDDDDD" stroke-linecap="round" stroke-linejoin="round"/>
<path d="M484.244 12.937H56.0645V285.948H484.244V12.937Z" stroke="#EDEDED" stroke-width="2" stroke-linecap="round" stroke-linejoin="round"/>
<path d="M491.366 286.292H48.9333V298.229H491.366V286.292Z" stroke="#DDDDDD" stroke-width="2" stroke-linecap="round" stroke-linejoin="round"/>
<path d="M491.366 1H48.9333V12.9367H491.366V1Z" stroke="#DDDDDD" stroke-width="2" stroke-linecap="round" stroke-linejoin="round"/>
<path d="M422.424 52.2607C402.418 44.079 392.496 67.0136 400.032 81.422C401.806 84.7981 401.548 87.5454 399.869 91.6449C398.189 95.7443 398.146 98.6725 402.685 100.516C407.223 102.359 409.23 100.257 410.91 96.1577C412.589 92.0583 414.354 89.9224 417.954 88.7511C433.439 83.756 442.439 60.4424 422.424 52.2607Z" fill="#F9F9F9" stroke="#DDDDDD" stroke-linecap="round" stroke-linejoin="round"/>
<path d="M404.933 96.0975C403.77 91.2143 404.158 87.8211 407.654 86.9943C411.151 86.1675 413.958 84.1867 412.425 81.6288C410.892 79.071 404.536 78.4767 406.276 81.5772C408.016 84.6776 417.171 83.5666 415.026 80.5351C412.882 77.5035 407.766 74.9887 409.859 74.5064C411.952 74.0241 418.351 76.9179 416.284 74.6615C412.133 70.14 416.981 69.184 418.316 64.3267" stroke="#DDDDDD" stroke-linecap="round" stroke-linejoin="round"/>
<path d="M413.476 94.6677C412.769 95.863 412.159 97.1129 411.65 98.4054C411.267 99.3851 410.806 100.333 410.272 101.239C408.361 104.451 405.803 105.735 401.281 103.891C396.76 102.048 395.855 99.3356 396.742 95.7098C396.992 94.6849 397.326 93.6824 397.741 92.7127C398.277 91.435 398.717 90.1195 399.059 88.7769C403.462 91.6101 408.349 93.6071 413.476 94.6677Z" fill="#F9F9F9" stroke="#EDEDED" stroke-linecap="round" stroke-linejoin="round"/>
<path d="M413.476 94.668C412.841 95.737 412.291 96.8543 411.831 98.0096C411.762 98.1388 411.711 98.2766 411.65 98.4057C411.267 99.3854 410.806 100.333 410.272 101.239C408.421 101.653 406.044 101.308 402.874 100.008C399.705 98.7072 397.767 97.2947 396.742 95.7015C396.992 94.6765 397.326 93.6741 397.741 92.7044L397.896 92.2996C398.367 91.1515 398.755 89.9716 399.059 88.7686C403.461 91.6048 408.349 93.6048 413.476 94.668Z" fill="#F9F9F9" stroke="#EDEDED" stroke-linecap="round" stroke-linejoin="round"/>
<path d="M413.476 94.6677C412.841 95.7367 412.291 96.854 411.831 98.0093C406.848 97.0718 402.107 95.1322 397.896 92.3079C398.367 91.1598 398.755 89.9799 399.059 88.7769C403.462 91.6101 408.349 93.6071 413.476 94.6677Z" fill="#F9F9F9" stroke="#EDEDED" stroke-linecap="round" stroke-linejoin="round"/>
<path d="M425.826 46.895L429.607 37.6367" stroke="#DDDDDD" stroke-width="2" stroke-linecap="round" stroke-linejoin="round"/>
<path d="M440.519 61.105L449.622 59.7959" stroke="#DDDDDD" stroke-width="2" stroke-linecap="round" stroke-linejoin="round"/>
<path d="M400.006 48.488L391.868 39.7637" stroke="#DDDDDD" stroke-width="2" stroke-linecap="round" stroke-linejoin="round"/>
<path d="M413.02 44.8279V38.6787" stroke="#EDEDED" stroke-linecap="round" stroke-linejoin="round"/>
<path d="M391.842 63.1553L385.012 64.1371" stroke="#EDEDED" stroke-linecap="round" stroke-linejoin="round"/>
<path d="M437.005 80.1821L439.52 84.4969" stroke="#EDEDED" stroke-linecap="round" stroke-linejoin="round"/>
<path d="M435.231 53.9145L440.148 51.5806" stroke="#EDEDED" stroke-linecap="round" stroke-linejoin="round"/>
<path d="M91.0305 94.9258H70.8604C69.1221 102.526 69.6186 110.467 72.2901 117.792L93.4334 117.456C93.4334 117.456 87.732 105.071 91.0305 94.9258Z" fill="#DDDDDD" stroke="#DDDDDD" stroke-miterlimit="10"/>
<path d="M86.4832 100.627H76.2173" stroke="#F9F9F9" stroke-linecap="round" stroke-linejoin="round"/>
<path d="M85.8288 105.08H78.0691" stroke="#F9F9F9" stroke-linecap="round" stroke-linejoin="round"/>
<path d="M86.3281 109.326H75.5713" stroke="#F9F9F9" stroke-linecap="round" stroke-linejoin="round"/>
<path d="M75.7005 61.2349H95.1127C96.6286 68.0472 95.4167 75.1823 91.7367 81.1121L70.7312 80.2509C70.7312 80.2509 77.1388 71.0529 75.7005 61.2349Z" stroke="#DDDDDD" stroke-linecap="round" stroke-linejoin="round"/>
<path d="M79.2488 65.877H91.9261" stroke="#DDDDDD" stroke-linecap="round" stroke-linejoin="round"/>
<path d="M79.4297 70.1309H89.5492" stroke="#DDDDDD" stroke-linecap="round" stroke-linejoin="round"/>
<path d="M79.2488 75.6953H84.0286" stroke="#DDDDDD" stroke-linecap="round" stroke-linejoin="round"/>
<path d="M85.1138 75.6953H88.2917" stroke="#DDDDDD" stroke-linecap="round" stroke-linejoin="round"/>
<path d="M123.525 124.932L142.946 124.975C144.469 131.78 143.27 138.911 139.604 144.843L118.607 143.982C118.607 143.982 124.963 134.732 123.525 124.932Z" stroke="#EDEDED" stroke-linecap="round" stroke-linejoin="round"/>
<path d="M127.073 129.582H139.75" stroke="#EDEDED" stroke-linecap="round" stroke-linejoin="round"/>
<path d="M127.254 133.828H137.373" stroke="#EDEDED" stroke-linecap="round" stroke-linejoin="round"/>
<path d="M127.073 139.392H131.853" stroke="#EDEDED" stroke-linecap="round" stroke-linejoin="round"/>
<path d="M132.938 139.392H136.116" stroke="#EDEDED" stroke-linecap="round" stroke-linejoin="round"/>
<path d="M285.152 134.887H304.565C306.078 141.697 304.866 148.828 301.189 154.756L280.183 153.895C280.183 153.895 286.582 144.688 285.152 134.887Z" stroke="#EDEDED" stroke-linecap="round" stroke-linejoin="round"/>
<path d="M288.692 139.538H301.369" stroke="#EDEDED" stroke-linecap="round" stroke-linejoin="round"/>
<path d="M288.873 143.784H298.993" stroke="#EDEDED" stroke-linecap="round" stroke-linejoin="round"/>
<path d="M288.692 149.347H293.472" stroke="#EDEDED" stroke-linecap="round" stroke-linejoin="round"/>
<path d="M294.557 149.347H297.735" stroke="#EDEDED" stroke-linecap="round" stroke-linejoin="round"/>
<path d="M350.606 59.3999L331.194 59.443C329.68 66.2526 330.892 73.3841 334.57 79.3116L355.575 78.4504C355.575 78.4504 349.185 69.2007 350.606 59.3999Z" stroke="#DDDDDD" stroke-linecap="round" stroke-linejoin="round"/>
<path d="M347.075 64.0508H334.397" stroke="#DDDDDD" stroke-linecap="round" stroke-linejoin="round"/>
<path d="M346.894 68.2964H336.783" stroke="#DDDDDD" stroke-linecap="round" stroke-linejoin="round"/>
<path d="M347.075 73.8599H342.295" stroke="#DDDDDD" stroke-linecap="round" stroke-linejoin="round"/>
<path d="M341.21 73.8599H338.032" stroke="#DDDDDD" stroke-linecap="round" stroke-linejoin="round"/>
<path d="M223.135 35.2603V238.52" stroke="#EDEDED" stroke-linecap="round" stroke-linejoin="round"/>
<path d="M324.502 86.4694C319.791 72.5174 317.716 67.5223 315.028 64.4993C312.341 61.4764 304.737 58.264 304.737 58.264C304.737 58.264 301.567 45.9828 297.511 46.379C293.455 46.7752 300.181 63.1128 300.181 63.1128L296.615 79.1489C297.771 81.0309 298.672 83.0582 299.294 85.1775C302.067 94.2894 309.672 95.1506 311.764 102.798C311.635 102.359 324.459 94.6769 324.502 86.4694Z" fill="#FEBD9D"/>
<path d="M324.502 86.4694C319.791 72.5174 317.716 67.5223 315.028 64.4993C312.341 61.4764 304.737 58.264 304.737 58.264C304.737 58.264 301.567 45.9828 297.511 46.379C293.455 46.7752 300.181 63.1128 300.181 63.1128L296.615 79.1489C297.771 81.0309 298.672 83.0582 299.294 85.1775C302.067 94.2894 309.672 95.1506 311.764 102.798C311.635 102.359 324.459 94.6769 324.502 86.4694Z" fill="#FEBD9D"/>
<path d="M315.037 64.4993C312.367 61.4247 304.746 58.264 304.746 58.264C304.746 58.264 301.576 45.9828 297.52 46.379C293.463 46.7752 300.19 63.1128 300.19 63.1128L296.624 79.1489" stroke="#EF8A66" stroke-width="0.75" stroke-linecap="round" stroke-linejoin="round"/>
<path d="M292.594 72.8704C295.944 70.2178 301.688 79.9325 298.217 82.5851C295.728 84.4884 289.407 75.3593 292.594 72.8704Z" fill="#FEBD9D" stroke="#EF8A66" stroke-miterlimit="10"/>
<path d="M304.745 58.2637C302.076 57.213 301.74 61.7086 304.074 63.4311C306.408 65.1535 307.898 65.5153 308.233 66.6004C308.569 67.6856 309.232 71.0874 309.232 71.0874C308.484 73.2368 308.198 75.52 308.392 77.7877C308.586 80.0553 309.257 82.2564 310.361 84.2471" stroke="#EF8A66" stroke-width="0.75" stroke-linecap="round" stroke-linejoin="round"/>
<path d="M295.1 67.3154C298.45 64.6628 305.546 76.7889 302.076 79.4243C299.595 81.319 291.913 69.8302 295.1 67.3154Z" fill="#FEBD9D" stroke="#EF8A66" stroke-miterlimit="10"/>
<path d="M298.011 63.3881C301.361 60.7355 308.466 72.8617 304.995 75.4971C302.515 77.3918 294.833 65.8857 298.011 63.3881Z" fill="#FEBD9D" stroke="#EF8A66" stroke-miterlimit="10"/>
<path d="M312.238 111.635L307.717 102.807C307.717 102.807 318.775 95.237 324.502 86.4438L328.3 92.8084C328.3 92.8084 323.762 112.763 312.238 111.635Z" fill="white"/>
<path d="M378.338 154.18C362.913 131.951 343.157 110.076 340.349 107.018C338.862 105.263 336.774 104.127 334.493 103.832L327.603 91.5938C327.603 91.5938 320.084 102.79 307.717 108.818L313.969 120.807C313.969 120.807 312.057 122.262 316.26 131.09C320.463 139.918 336.732 173.635 344.956 180.327C364.627 196.328 398.611 183.401 378.338 154.18Z" fill="#A7CAF0"/>
<path d="M323.985 113.969L317.027 102.807" stroke="#83ADDF" stroke-width="0.75" stroke-linecap="round" stroke-linejoin="round"/>
<path d="M319.834 116.741L312.996 105.778" stroke="#83ADDF" stroke-width="0.75" stroke-linecap="round" stroke-linejoin="round"/>
<path d="M324.502 95.5464L331.84 107.319" stroke="#83ADDF" stroke-width="0.75" stroke-linecap="round" stroke-linejoin="round"/>
<path d="M320.825 99.2588L328.171 111.032" stroke="#83ADDF" stroke-width="0.75" stroke-linecap="round" stroke-linejoin="round"/>
<path d="M378.338 154.18C362.913 131.951 343.156 110.076 340.349 107.018C338.862 105.263 336.774 104.127 334.492 103.832L327.603 91.5938" stroke="#83ADDF" stroke-width="0.75" stroke-linecap="round" stroke-linejoin="round"/>
<path d="M522.155 364.802H436.996V297.704L513.155 296.645C519.02 321.388 522.155 364.802 522.155 364.802Z" fill="#683F1D"/>
<path d="M478.456 364.803C478.456 364.803 475.666 337.777 475.382 335.202C475.298 334.521 474.994 333.885 474.515 333.394C474.035 332.902 473.408 332.581 472.729 332.481C471.095 332.144 469.41 332.144 467.777 332.481" stroke="#91613D" stroke-width="0.75" stroke-linecap="round" stroke-linejoin="round"/>
<path d="M528.287 201.814C526.926 224.284 522.258 259.215 519.029 281.47C517.212 294 515.877 302.518 515.877 302.518C515.877 302.518 461.386 304.637 446.582 304.241C431.777 303.844 430.158 302.751 430.158 296.782C430.158 290.814 430.408 216.283 430.408 216.283C430.408 216.283 357.306 190.446 346.782 181.67C336.258 172.894 348.858 144.051 375.918 149.968C382.721 151.458 389.482 152.974 396.389 154.498C416.921 159.054 438.702 163.636 466.011 167.511C495.672 171.748 514.24 171.99 526.918 180.326C528.795 181.558 529.01 189.955 528.287 201.814Z" fill="#A7CAF0"/>
<path d="M508.608 224.404C497.093 231.708 497.067 241.982 501.571 249.94C511.958 268.258 481.763 256.356 480.463 279.075L524.179 268.689L508.608 224.404Z" fill="#93BEE5"/>
<path d="M544.271 208.85C539.278 205.817 533.902 203.462 528.287 201.848C518.994 199.265 510.029 199.807 504.078 205.939C503.014 207.032 502.085 208.25 501.313 209.565C486.405 234.541 444.722 229.985 436.996 203.648C430.425 181.256 420.288 167.339 396.389 154.558C416.921 159.054 438.702 163.636 466.011 167.511C495.672 171.748 514.24 171.989 526.918 180.326C532.791 182.807 538.915 194.158 544.271 208.85Z" fill="#C3DCF8"/>
<path d="M468.793 165.884C459.078 165.884 451.198 172.093 451.198 179.741C451.198 184.047 453.696 187.906 457.623 190.446C459.523 191.67 461.625 192.545 463.832 193.03C465.459 193.407 467.123 193.595 468.793 193.59C469.163 193.59 469.525 193.59 469.887 193.59C472.228 193.488 474.537 192.996 476.716 192.134C478.78 191.349 480.676 190.18 482.306 188.689C483.567 187.57 484.582 186.202 485.288 184.671C485.994 183.139 486.374 181.478 486.405 179.793C486.405 172.093 478.525 165.884 468.793 165.884ZM474.624 186.459C472.904 186.99 471.118 187.28 469.318 187.32H468.793C467.384 187.325 465.978 187.181 464.599 186.889C462.826 186.543 461.125 185.897 459.569 184.977C457.072 183.47 455.521 181.352 455.521 179.009C455.521 174.41 461.464 170.689 468.793 170.689C476.122 170.689 482.073 174.41 482.073 179.009C482.073 181.033 480.919 182.885 478.99 184.331C477.67 185.29 476.192 186.01 474.624 186.459Z" stroke="#83ADDF" stroke-width="0.75" stroke-linecap="round" stroke-linejoin="round"/>
<path d="M460.043 162.344C456.753 162.972 453.093 164.066 451.258 167.218C449.424 170.37 449.338 183.504 451.017 184.942C452.697 186.381 454.936 179.508 464.952 176.158L460.043 162.344Z" fill="white"/>
<path d="M473.375 176.778L483.598 160.621C483.598 160.621 489.023 163.498 489.902 168.691C490.78 173.884 488.403 190.911 484.097 186.596C481.04 183.582 481.729 181.093 473.375 176.778Z" fill="white"/>
<path d="M457.623 190.446L459.569 184.951" stroke="#83ADDF" stroke-width="0.75" stroke-linecap="round" stroke-linejoin="round"/>
<path d="M463.832 193.038L464.599 186.863" stroke="#83ADDF" stroke-width="0.75" stroke-linecap="round" stroke-linejoin="round"/>
<path d="M469.887 193.572L469.318 187.285" stroke="#83ADDF" stroke-width="0.75" stroke-linecap="round" stroke-linejoin="round"/>
<path d="M476.716 192.117L474.624 186.441" stroke="#83ADDF" stroke-width="0.75" stroke-linecap="round" stroke-linejoin="round"/>
<path d="M482.306 188.637L478.99 184.305" stroke="#83ADDF" stroke-width="0.75" stroke-linecap="round" stroke-linejoin="round"/>
<path d="M485.148 162.809C485.225 164.824 481.117 178.07 469.715 179.172C458.312 180.275 456.641 167.856 456.71 164.592C456.71 163.274 456.856 160.949 457.02 158.038C457.244 154.042 457.545 148.952 457.769 143.905L457.821 142.802C459.078 113.521 484.218 119.368 482.65 134.888C481.694 144.456 485.053 160.802 485.148 162.809Z" fill="#FEBD9D"/>
<path d="M457.02 158.037C457.244 154.041 457.545 148.951 457.769 143.905L471.695 141.751C472.204 150.631 467.915 158.27 457.02 158.037Z" fill="#F4A789"/>
<path d="M513.379 266.346C513.379 266.174 513.284 266.002 513.241 265.821C509.34 250.138 506.102 233.731 504.741 219.409" stroke="#83ADDF" stroke-width="0.75" stroke-linecap="round" stroke-linejoin="round"/>
<path d="M449.648 246.658C448.39 241.198 451.68 239.596 454.548 238.614C454.281 237.073 454.85 234.575 458.269 234.041C461.507 233.533 462.67 236.72 462.67 236.72C462.67 236.72 469.482 234.412 471.204 241.344L449.648 246.658Z" fill="#DDDDDD"/>
<path d="M433.104 248.183L484.562 236.289L504.078 318.976L452.171 329.423L433.104 248.183Z" fill="#F9F9F9" stroke="#DDDDDD" stroke-linecap="round" stroke-linejoin="round"/>
<path d="M456.538 238.236C456.536 238.694 456.67 239.143 456.924 239.525C457.177 239.907 457.539 240.206 457.962 240.382C458.385 240.559 458.851 240.606 459.301 240.518C459.751 240.429 460.165 240.209 460.489 239.886C460.814 239.562 461.036 239.149 461.126 238.7C461.216 238.25 461.171 237.784 460.996 237.36C460.82 236.936 460.524 236.574 460.142 236.319C459.761 236.064 459.313 235.928 458.854 235.928C458.241 235.928 457.653 236.171 457.219 236.603C456.785 237.036 456.54 237.623 456.538 238.236Z" fill="#F9F9F9" stroke="#DDDDDD" stroke-linecap="round" stroke-linejoin="round"/>
<path d="M559.886 283.2C559.902 284.839 559.827 286.478 559.662 288.109V288.35C559.608 288.682 559.533 289.01 559.438 289.332C557.337 296.222 544.039 302.724 531.689 295.576C530.606 294.948 529.57 294.243 528.589 293.466C524.588 290.163 521.328 286.055 519.02 281.409C516.561 276.624 514.668 271.569 513.379 266.346C513.379 266.173 513.285 266.001 513.241 265.82C508.074 244.91 504.009 222.707 504.043 205.904C504.043 185.648 510.012 173.229 526.918 180.343C532.757 182.806 538.88 194.123 544.237 208.815C548.771 221.547 552.428 234.573 555.183 247.803C558.163 261.557 559.886 274.458 559.886 283.2Z" fill="#A7CAF0"/>
<path d="M559.696 288.135V288.376C559.642 288.708 559.567 289.036 559.472 289.358C557.371 296.248 544.074 302.75 531.723 295.602C530.641 294.974 529.604 294.269 528.623 293.492C532.39 291.547 536.628 290.703 540.853 291.055C563.58 293.105 539.466 268 555.244 247.804C558.146 261.583 559.92 274.459 559.946 283.2C560.054 284.849 559.971 286.506 559.696 288.135Z" fill="#93BEE5"/>
<path d="M544.272 208.85C539.278 205.817 533.902 203.462 528.287 201.848C518.994 199.264 510.029 199.807 504.078 205.939C504.078 185.683 510.046 173.264 526.952 180.378C532.791 182.806 538.915 194.157 544.272 208.85Z" fill="#C3DCF8"/>
<path d="M458.32 283.571C456.917 282.71 448.606 277.904 446.194 277.749C443.783 277.594 438.641 281.151 438.641 281.151C438.641 281.151 428.436 281.754 427.307 283.571C426.179 285.388 428.47 287.946 430.227 288.859C431.984 289.772 430.33 291.649 430.554 293.165C430.778 294.681 432.673 295.749 432.897 296.791C433.121 297.833 432.139 300.675 434.482 301.373C436.824 302.07 435.343 303.509 436.523 305.55C437.703 307.591 444.911 307.212 463.221 303.586L458.32 283.571Z" fill="#FEBD9D"/>
<path d="M446.203 277.75C443.783 277.603 438.65 281.151 438.65 281.151C438.65 281.151 428.444 281.754 427.316 283.571C426.188 285.389 428.479 287.947 430.236 288.859C431.993 289.772 430.339 291.65 430.563 293.166C430.787 294.681 432.681 295.749 432.905 296.791C433.129 297.833 432.148 300.676 434.49 301.373C436.833 302.071 435.351 303.509 436.531 305.55C437.005 306.351 438.409 306.782 441.044 306.782" stroke="#EF8A66" stroke-width="0.75" stroke-linecap="round" stroke-linejoin="round"/>
<path d="M457.037 281.917L460.715 305.446L468.474 304.3L466.063 281.34L457.037 281.917Z" fill="white"/>
<path d="M559.67 288.377C559.601 288.704 559.533 289.04 559.446 289.359C557.397 297.428 548.75 302.647 525.049 304.301C522.982 304.45 520.935 304.582 518.908 304.697C490.798 306.368 466.485 305.886 466.485 305.886L462.825 280.746C475.571 276.965 496.749 269.8 513.414 266.346C520.303 264.925 526.375 264.124 530.81 264.452C535.863 264.726 540.87 265.549 545.744 266.906C547.041 267.28 548.313 267.738 549.551 268.276C555.252 270.859 559.085 274.924 559.808 281.556C559.868 282.107 559.912 282.658 559.955 283.184C560.067 284.92 559.971 286.663 559.67 288.377Z" fill="#A7CAF0"/>
<path d="M530.81 264.452C526.375 264.124 520.278 264.925 513.414 266.346C496.749 269.791 475.571 276.965 462.825 280.746L466.485 305.886" stroke="#83ADDF" stroke-width="0.75" stroke-linecap="round" stroke-linejoin="round"/>
<path d="M463.264 283.725L478.18 281.34" stroke="#83ADDF" stroke-width="0.75" stroke-linecap="round" stroke-linejoin="round"/>
<path d="M463.97 288.558L478.465 286.749" stroke="#83ADDF" stroke-width="0.75" stroke-linecap="round" stroke-linejoin="round"/>
<path d="M464.504 292.27L478.818 291.056" stroke="#83ADDF" stroke-width="0.75" stroke-linecap="round" stroke-linejoin="round"/>
<path d="M465.296 297.712L479.111 296.645" stroke="#83ADDF" stroke-width="0.75" stroke-linecap="round" stroke-linejoin="round"/>
<path d="M466.063 302.148L479.61 300.787" stroke="#83ADDF" stroke-width="0.75" stroke-linecap="round" stroke-linejoin="round"/>
<path d="M438.641 281.194C442.336 280.815 445.66 280.66 445.66 280.66" stroke="#EF8A66" stroke-width="0.75" stroke-linecap="round" stroke-linejoin="round"/>
<path d="M559.67 288.377C559.616 288.709 559.541 289.036 559.446 289.359C557.397 297.428 548.75 302.648 525.049 304.301C522.982 304.45 520.935 304.582 518.908 304.697C524.179 291.658 535.883 290.608 540.827 291.055C556.045 292.433 550.3 281.642 549.516 268.293C555.218 270.877 559.05 274.942 559.774 281.573C559.834 282.124 559.877 282.676 559.92 283.201C560.042 284.93 559.958 286.668 559.67 288.377Z" fill="#93BEE5"/>
<path d="M481.005 115.458C480.44 119.635 479.433 123.74 478 127.704C475.769 133.509 472.16 138.582 466.278 138.539C465.657 138.531 465.038 138.473 464.427 138.366L448.787 131.95C448.787 131.95 448.856 131.649 449.011 131.089C450.11 127.287 451.717 123.652 453.79 120.281C453.971 119.996 454.169 119.712 454.359 119.419C458.079 113.778 461.8 109.265 461.8 109.265C461.8 109.265 462.015 103.865 466.425 103.073C470.834 102.281 482.228 107.224 481.005 115.458Z" fill="#FEBD9D"/>
<path d="M478 127.704C475.769 133.509 472.161 138.582 466.278 138.539C465.215 137.859 464.321 136.945 463.666 135.867C463.011 134.788 462.613 133.574 462.501 132.317C462.389 131.06 462.566 129.795 463.02 128.617C463.474 127.44 464.192 126.382 465.118 125.526C466.045 124.669 467.156 124.037 468.365 123.677C469.574 123.317 470.85 123.239 472.094 123.449C473.339 123.66 474.518 124.153 475.542 124.89C476.565 125.628 477.406 126.591 478 127.704Z" fill="#F4AF90"/>
<path d="M454.936 124.13C454.936 125.804 454.343 127.425 453.264 128.704C452.184 129.984 450.687 130.841 449.037 131.123C450.136 127.322 451.744 123.686 453.817 120.315C454.549 121.452 454.938 122.777 454.936 124.13Z" fill="#F4AF90"/>
<path d="M491.116 116.569C490.41 118.584 488.007 124.794 486.681 128.213C486.138 129.599 485.768 130.529 485.768 130.529L481.961 129.143L479.231 128.152L478.267 127.808C478.267 127.808 478.267 128.213 478.163 128.919C477.888 131.542 477.384 134.135 476.656 136.67C475.794 139.824 474.387 142.803 472.497 145.472C467.329 152.362 453.911 151.655 447.719 146.333C443.413 142.595 444.274 135.757 448.02 128.643C449.796 125.358 451.931 122.279 454.385 119.463C454.385 119.463 451.362 126.55 450.871 128.075C450.277 129.978 452.507 129.797 453.369 128.178C454.23 126.559 455.892 125.439 460.715 126.731C465.538 128.023 467.501 130.521 466.606 134.009C466.08 136.067 469.904 136.782 472.72 134.069C472.962 133.838 473.186 133.591 473.392 133.328C473.779 132.85 474.111 132.33 474.383 131.778C476.966 126.516 478.473 118.464 478.62 115.294C475.735 115.475 473.246 113.279 474.882 110.549C471.497 111.97 468.983 109.541 469.56 106.303C468.096 108.602 464.806 108.456 464.392 105.734L461.809 109.266C461.311 107.928 461.077 106.507 461.12 105.08C461.309 100.774 464.969 99.2063 467.863 100.197C468.311 97.0877 475.614 96.4676 476.148 100.912C477.716 98.0178 482.909 98.6121 483.038 103.082C483.713 102.715 484.488 102.574 485.249 102.679C486.01 102.784 486.717 103.13 487.268 103.666C487.818 104.202 488.183 104.9 488.308 105.658C488.433 106.416 488.313 107.194 487.964 107.879C490.333 107.362 491.848 110.463 489.807 112.685C489.833 112.728 492.124 113.735 491.116 116.569Z" fill="#BF8228"/>
<path d="M466.011 120.143C466.011 120.372 466.079 120.595 466.206 120.784C466.333 120.974 466.513 121.122 466.724 121.21C466.935 121.297 467.167 121.32 467.391 121.275C467.615 121.231 467.82 121.121 467.982 120.959C468.143 120.798 468.253 120.592 468.297 120.368C468.342 120.145 468.319 119.913 468.232 119.702C468.144 119.491 467.996 119.311 467.807 119.184C467.617 119.057 467.394 118.989 467.166 118.989C466.859 118.989 466.566 119.111 466.349 119.327C466.133 119.544 466.011 119.837 466.011 120.143Z" fill="#683F1D"/>
<path d="M458.631 117.671C458.629 117.9 458.695 118.125 458.822 118.316C458.948 118.507 459.128 118.656 459.339 118.744C459.55 118.833 459.783 118.856 460.008 118.812C460.232 118.768 460.439 118.658 460.601 118.496C460.763 118.334 460.873 118.128 460.917 117.903C460.961 117.678 460.938 117.446 460.849 117.234C460.761 117.023 460.612 116.843 460.42 116.717C460.229 116.591 460.005 116.524 459.776 116.526C459.473 116.528 459.183 116.65 458.969 116.864C458.754 117.078 458.633 117.368 458.631 117.671Z" fill="#683F1D"/>
<path d="M468.337 114.063C467.743 116.121 473.78 118.154 474.038 116.896C474.228 115.992 469.215 111.014 468.337 114.063Z" fill="#BF8228"/>
<path d="M459.776 111.333C459.423 112.435 464.496 114.338 465.09 112.487C465.796 110.282 460.086 110.385 459.776 111.333Z" fill="#BF8228"/>
<path d="M481.961 129.143L478.267 127.808C478.035 130.818 477.495 133.796 476.656 136.696C475.459 136.877 474.072 136.248 472.72 134.112C473.403 133.451 473.966 132.675 474.382 131.821C476.966 126.559 478.473 118.506 478.62 115.337C475.735 115.518 473.246 113.322 474.882 110.592C471.497 112.013 468.983 109.584 469.56 106.346C468.095 108.645 464.806 108.499 464.392 105.777L461.808 109.308C461.311 107.971 461.077 106.549 461.119 105.123C462.515 103.702 464.427 102.72 466.029 103.211C466.029 103.211 470.24 104.227 471.721 102.212C470.903 105.45 474.21 108.533 478.112 107.207C478.112 107.207 479.472 113.089 484.235 113.081C484.235 113.081 483.718 118.343 486.44 118.825C488.498 119.178 484.338 125.112 481.961 129.143Z" fill="#B57724"/>
<path d="M478.163 128.919C477.888 131.542 477.384 134.136 476.656 136.67C475.794 139.825 474.387 142.804 472.497 145.472C467.329 152.362 453.911 151.656 447.719 146.333C443.413 142.596 444.274 135.757 448.02 128.644C448.554 140.951 460.25 148.004 472.72 134.112L473.392 133.372C474.855 131.757 476.451 130.267 478.163 128.919Z" fill="#B57724"/>
<path d="M486.681 128.213C486.139 129.599 485.768 130.53 485.768 130.53L481.962 129.143L479.231 128.153C483.451 125.354 485.596 126.559 486.681 128.213Z" fill="#B57724"/>
<path d="M476.811 136.119C477.562 133.402 478.05 130.619 478.267 127.808C480.644 125.655 484.812 125.724 486.715 128.118C487.238 128.783 487.568 129.578 487.671 130.418C488.404 135.645 484.037 141.149 476.811 136.119Z" fill="#FEBD9D"/>
<path d="M482.28 138.099C480.293 138.035 478.379 137.341 476.811 136.119" stroke="#EF8A66" stroke-width="0.75" stroke-linecap="round" stroke-linejoin="round"/>
<path d="M456.701 122.891C457.08 120.703 458.295 120.703 460.586 120.307C462.876 119.911 464.651 117.87 464.401 115.803" stroke="#EF8A66" stroke-width="0.75" stroke-linecap="round" stroke-linejoin="round"/>
<path d="M479.834 131.339C480.204 130.928 480.667 130.61 481.183 130.412C481.7 130.214 482.256 130.141 482.806 130.198C483.356 130.256 483.885 130.444 484.349 130.745C484.813 131.047 485.199 131.454 485.475 131.933" stroke="#EF8A66" stroke-width="0.75" stroke-linecap="round" stroke-linejoin="round"/>
<path d="M480.928 130.564C484.838 130.193 484.244 136.067 480.463 134.982" stroke="#EF8A66" stroke-width="0.75" stroke-linecap="round" stroke-linejoin="round"/>
<path d="M445.661 143.586C449.347 141.114 454.273 142.363 458.243 145.911C463.523 150.631 472.152 145.911 472.152 145.911" stroke="#9B621F" stroke-width="0.75" stroke-linecap="round" stroke-linejoin="round"/>
<path d="M476.062 138.539C473.909 140.261 465.727 145.006 459.836 140.623C453.946 136.239 445.058 141.734 445.058 141.734" stroke="#9B621F" stroke-width="0.75" stroke-linecap="round" stroke-linejoin="round"/>
<path d="M445.221 135.938C447.125 134.215 454.058 130.538 458.571 135.447C463.083 140.356 468.966 135.869 468.966 135.869" stroke="#9B621F" stroke-width="0.75" stroke-linecap="round" stroke-linejoin="round"/>
<path d="M453.093 128.644C454.187 129.841 462.007 132.588 466.554 130.926" stroke="#9B621F" stroke-width="0.75" stroke-linecap="round" stroke-linejoin="round"/>
<path d="M464.375 105.777C463.893 103.306 466.097 100.403 467.88 100.24" stroke="#9B621F" stroke-width="0.75" stroke-linecap="round" stroke-linejoin="round"/>
<path d="M469.56 106.363C469.913 104.4 472.255 99.6889 475.588 99.4736" stroke="#9B621F" stroke-width="0.75" stroke-linecap="round" stroke-linejoin="round"/>
<path d="M474.882 110.592C475.743 106.768 478.267 102.651 482.28 100.955" stroke="#9B621F" stroke-width="0.75" stroke-linecap="round" stroke-linejoin="round"/>
<path d="M478.62 115.337C479.154 111.16 484.933 107.707 487.99 107.922" stroke="#9B621F" stroke-width="0.75" stroke-linecap="round" stroke-linejoin="round"/>
<path d="M477.707 121.486C481.453 118.265 487.947 115.414 491.375 115.182" stroke="#9B621F" stroke-width="0.75" stroke-linecap="round" stroke-linejoin="round"/>
<path d="M457.132 129.703C460.517 130.435 464.306 130.039 464.185 130.194C464.065 130.349 463.479 135.361 459.776 134.836C456.073 134.31 457.132 129.703 457.132 129.703Z" fill="white" stroke="#EF8A66" stroke-width="0.75" stroke-linecap="round" stroke-linejoin="round"/>
<path d="M360.2 145.92C362.526 139.435 365.591 132.855 367.021 133.725C369.441 135.198 364.644 147.806 364.644 147.806L360.2 145.92Z" fill="#B25E47" stroke="#934735" stroke-width="0.75" stroke-miterlimit="10"/>
<path d="M357.203 147.401C357.203 146.996 358.633 128.454 361.337 128.876C365.006 129.427 362.086 147.823 362.086 147.823L357.203 147.401Z" fill="#B25E47" stroke="#934735" stroke-width="0.75" stroke-miterlimit="10"/>
<path d="M352.776 150.02C352.673 131.443 353.035 126.663 355.291 126.654C358.409 126.654 358.814 148.056 358.814 148.056L352.776 150.02Z" fill="#B25E47" stroke="#934735" stroke-width="0.75" stroke-miterlimit="10"/>
<path d="M363.189 148.892C362.646 157.668 362.388 162.327 362.388 162.327C362.388 162.327 354.534 166.633 354.025 156.092C353.517 145.55 363.189 148.892 363.189 148.892Z" fill="#B25E47" stroke="#934735" stroke-width="0.75" stroke-miterlimit="10"/>
<path d="M318.284 203.485C307.906 218.875 295.229 240.268 305.469 247.132C315.709 253.996 329.351 251.197 337.507 232.319C345.663 213.441 355.722 180.576 357.737 177.338C359.752 174.1 364.437 170.293 367.46 164.041C370.483 157.788 371.93 157.444 370.905 155.661C369.88 153.878 367.331 154.541 365.988 156.522C364.644 158.503 361.07 162.335 359.055 161.216C357.039 160.096 356.187 157.84 356.152 155.075C356.118 152.311 357.763 149.339 360.924 150.304C364.084 151.269 365.54 155.411 368.218 153.956C370.897 152.5 365.204 146.919 363.189 145.128C361.173 143.337 359.615 144.568 356.299 145.688C352.983 146.807 351.941 146.919 350.27 150.855C348.599 154.791 342.226 167.675 341.219 170.018C340.211 172.36 328.007 189.042 318.284 203.485Z" fill="#B25E47"/>
<path d="M367.46 164.067C370.475 157.805 371.93 157.469 370.905 155.687C369.881 153.904 367.331 154.567 365.988 156.548C364.644 158.529 361.07 162.361 359.055 161.242C357.04 160.122 356.187 157.866 356.152 155.101C356.118 152.337 357.763 149.365 360.924 150.33C364.084 151.294 365.54 155.437 368.218 153.981C370.897 152.526 365.204 146.945 363.189 145.154C361.173 143.362 359.615 144.594 356.299 145.714C352.983 146.833 351.941 146.945 350.27 150.881" stroke="#934735" stroke-width="0.75" stroke-linecap="round" stroke-linejoin="round"/>
<path d="M315.718 207.352C313.935 210.09 312.144 212.95 310.464 215.835" stroke="#934735" stroke-width="0.75" stroke-linecap="round" stroke-linejoin="round"/>
<path d="M158.904 218.116C156.062 222.535 161.918 225.868 167.206 229.312C172.494 232.757 173.881 217.083 173.881 217.083C173.881 217.083 160.472 215.679 158.904 218.116Z" fill="#F7AD2B"/>
<path d="M317.104 198.972C318.896 200.315 316.243 204.785 311.153 209.754L306.976 204.363C306.976 204.363 312.927 197.43 317.104 198.972Z" fill="#F7AD2B"/>
<path d="M308.664 200.315C320.583 212.932 334.415 229.537 327.069 242.145C319.722 254.753 302.188 248.062 291.577 238.39C291.577 238.39 282.939 221.768 308.664 200.315Z" fill="#B25E47"/>
<path d="M167.103 217.763C162.522 227.934 149.267 250.654 163.314 260.024C177.361 269.394 194.447 236.521 194.447 236.521C194.447 236.521 189.228 216.867 167.103 217.763Z" fill="#B25E47"/>
<path d="M317.104 198.972C307.491 206.091 299.958 215.655 295.289 226.669C293.616 230.424 292.37 234.356 291.577 238.39C288.821 236.392 282.31 231.5 282.31 231.5C281.828 234.541 281.199 238.037 280.588 241.568C278.702 251.705 276.531 262.04 276.531 262.04H212.103L211.017 257.734L202.595 224.352L194.447 236.504C194.284 236.306 194.12 236.117 193.939 235.936C184.466 225.696 158.904 218.1 158.904 218.1C165.849 206.384 174.139 195.519 183.604 185.726C186.375 182.897 189.287 180.209 192.329 177.673C196.588 174.299 201.259 171.48 206.229 169.285C211.88 166.718 217.737 164.629 223.738 163.041C223.738 163.041 223.876 149.33 225.374 133.122C226.037 125.81 240.876 124.38 244.321 136.816C247.766 149.253 250.35 157.245 250.35 157.245C254.055 156.698 257.804 156.499 261.546 156.651C266.291 156.84 271.691 157.71 275.92 160.147C278.194 161.465 282.732 165.401 287.977 170.284C300.508 181.936 317.104 198.972 317.104 198.972Z" fill="#FFB63F"/>
<path d="M295.289 226.669C293.616 230.424 292.37 234.356 291.577 238.39C288.821 236.392 282.31 231.5 282.31 231.5C284.238 222.063 285.191 212.453 285.152 202.821C285.13 198.581 284.115 194.404 282.19 190.626C288.167 193.993 293.127 197.662 290.225 205.654C287.478 213.061 287.9 225.428 295.289 226.669Z" fill="#FF9400"/>
<path d="M232.79 260.282L211.018 257.699L202.595 224.352C204.91 220.553 206.926 216.579 208.623 212.467C217.322 222.802 198.995 234.859 227.51 241.146C241.738 244.298 232.79 260.282 232.79 260.282Z" fill="#FF9400"/>
<path d="M288.003 170.301C280.45 170.99 273.112 176.743 268.505 192.116C260.202 219.821 229.853 216.566 219.414 197.395C211.241 182.375 201.174 180.687 183.587 185.742C186.358 182.914 189.27 180.226 192.311 177.69C196.571 174.316 201.241 171.497 206.212 169.302C211.863 166.734 217.72 164.646 223.721 163.058C223.721 163.058 223.858 149.347 225.357 133.138C226.02 125.827 240.859 124.397 244.304 136.833C247.749 149.269 250.333 157.262 250.333 157.262C254.038 156.714 257.786 156.515 261.529 156.667C266.274 156.857 271.674 157.727 275.903 160.164C278.211 161.482 282.749 165.417 288.003 170.301Z" fill="#FFCB66"/>
<path d="M261.563 156.668C261.701 165.96 253.648 172.17 244.407 173.625C235.166 175.081 219.836 173.996 206.229 169.319C211.88 166.752 217.737 164.663 223.738 163.075C223.738 163.075 223.875 149.364 225.374 133.156C226.037 125.844 240.876 124.414 244.321 136.851C245.105 139.65 245.845 142.225 246.509 144.533C247.93 149.399 249.041 153.094 249.695 155.212C250.109 156.556 250.341 157.279 250.341 157.279C254.054 156.725 257.811 156.52 261.563 156.668Z" fill="#B25E47"/>
<path d="M249.713 155.195C241.548 155.849 236.794 151.009 236.855 144.542C236.855 144.542 242.573 144.542 246.526 144.542C247.947 149.425 249.058 153.076 249.713 155.195Z" fill="#914839"/>
<path d="M283.783 364.802H195.584C195.584 364.802 192.01 321 197.375 297.703C199.544 288.343 202.423 279.161 205.988 270.239C207.542 266.241 209.295 262.323 211.241 258.5L276.54 262.048C277.194 264.684 277.789 267.422 278.34 270.239C286.013 309.907 283.783 364.802 283.783 364.802Z" fill="#A7CAF0"/>
<mask id="mask0_89_2910" style="mask-type:luminance" maskUnits="userSpaceOnUse" x="194" y="258" width="91" height="107">
<path d="M283.783 364.802H195.584C195.584 364.802 192.01 321 197.375 297.703C199.544 288.343 202.423 279.161 205.988 270.239C207.542 266.241 209.295 262.323 211.241 258.5L276.54 262.048C277.194 264.684 277.789 267.422 278.34 270.239C286.013 309.907 283.783 364.802 283.783 364.802Z" fill="white"/>
</mask>
<g mask="url(#mask0_89_2910)">
<path d="M216.925 310.403C219.98 307.067 219.753 301.887 216.417 298.831C213.082 295.776 207.901 296.003 204.846 299.338C201.79 302.674 202.017 307.855 205.353 310.91C208.689 313.966 213.869 313.738 216.925 310.403Z" stroke="white" stroke-miterlimit="10"/>
<path d="M224.872 366.227C228.07 363.028 228.07 357.843 224.872 354.644C221.673 351.446 216.488 351.446 213.289 354.644C210.09 357.843 210.09 363.028 213.289 366.227C216.488 369.426 221.673 369.425 224.872 366.227Z" stroke="white" stroke-miterlimit="10"/>
<path d="M258.65 312.214C261.848 309.016 261.848 303.83 258.65 300.631C255.451 297.433 250.265 297.433 247.067 300.631C243.868 303.83 243.868 309.016 247.067 312.214C250.265 315.413 255.451 315.413 258.65 312.214Z" stroke="white" stroke-miterlimit="10"/>
<path d="M261.582 370.766C265.986 369.731 268.716 365.322 267.681 360.918C266.645 356.515 262.237 353.785 257.833 354.82C253.43 355.855 250.7 360.264 251.735 364.667C252.77 369.071 257.179 371.801 261.582 370.766Z" stroke="white" stroke-miterlimit="10"/>
<path d="M250.446 282.131C254.847 281.087 257.569 276.673 256.526 272.272C255.482 267.871 251.068 265.149 246.667 266.192C242.265 267.236 239.543 271.65 240.587 276.051C241.631 280.453 246.045 283.175 250.446 282.131Z" stroke="white" stroke-miterlimit="10"/>
<path d="M236.828 337.923C239.587 337.923 241.824 335.687 241.824 332.928C241.824 330.169 239.587 327.933 236.828 327.933C234.07 327.933 231.833 330.169 231.833 332.928C231.833 335.687 234.07 337.923 236.828 337.923Z" stroke="white" stroke-miterlimit="10"/>
<path d="M283.292 325.375C286.051 325.375 288.287 323.139 288.287 320.38C288.287 317.621 286.051 315.385 283.292 315.385C280.533 315.385 278.297 317.621 278.297 320.38C278.297 323.139 280.533 325.375 283.292 325.375Z" stroke="white" stroke-miterlimit="10"/>
<path d="M284.549 285.086C284.549 286.074 284.256 287.04 283.708 287.861C283.159 288.683 282.379 289.323 281.466 289.701C280.553 290.079 279.549 290.178 278.58 289.985C277.611 289.792 276.721 289.317 276.022 288.618C275.324 287.919 274.848 287.029 274.655 286.06C274.462 285.092 274.561 284.087 274.939 283.174C275.317 282.262 275.958 281.482 276.779 280.933C277.601 280.384 278.566 280.091 279.554 280.091C280.879 280.091 282.15 280.617 283.086 281.554C284.023 282.491 284.549 283.761 284.549 285.086Z" stroke="white" stroke-miterlimit="10"/>
<path d="M201.613 335.546C201.613 336.534 201.32 337.5 200.771 338.321C200.222 339.143 199.442 339.783 198.529 340.161C197.616 340.539 196.612 340.638 195.643 340.445C194.674 340.252 193.784 339.777 193.085 339.078C192.387 338.379 191.911 337.489 191.718 336.52C191.526 335.551 191.624 334.547 192.003 333.634C192.381 332.722 193.021 331.941 193.842 331.393C194.664 330.844 195.63 330.551 196.617 330.551C197.942 330.553 199.211 331.08 200.147 332.016C201.083 332.953 201.61 334.222 201.613 335.546Z" stroke="white" stroke-miterlimit="10"/>
<path d="M219.079 285.086C221.837 285.086 224.074 282.85 224.074 280.091C224.074 277.332 221.837 275.096 219.079 275.096C216.32 275.096 214.083 277.332 214.083 280.091C214.083 282.85 216.32 285.086 219.079 285.086Z" stroke="white" stroke-miterlimit="10"/>
</g>
<path d="M222.282 163.437C222.282 163.437 233.065 182.057 246.208 190.023C246.208 190.023 253.511 179.344 252.314 157.003" stroke="#683F1D" stroke-miterlimit="10"/>
<path d="M242.642 190.592C242.642 191.34 242.864 192.071 243.279 192.692C243.695 193.314 244.285 193.799 244.976 194.085C245.667 194.371 246.427 194.446 247.16 194.3C247.894 194.154 248.568 193.794 249.096 193.265C249.625 192.737 249.985 192.063 250.131 191.329C250.277 190.596 250.202 189.836 249.916 189.145C249.63 188.454 249.145 187.864 248.523 187.448C247.902 187.033 247.171 186.811 246.423 186.811C245.42 186.811 244.459 187.209 243.749 187.918C243.04 188.627 242.642 189.589 242.642 190.592Z" fill="white"/>
<path d="M282.31 231.509C284.239 222.069 285.191 212.456 285.152 202.822C285.13 198.581 284.115 194.405 282.19 190.626C280.588 187.182 278.857 184.021 278.495 179.775" stroke="#F7AD2B" stroke-width="0.75" stroke-linecap="round" stroke-linejoin="round"/>
<path d="M209.725 209.823C209.725 209.823 209.321 210.874 208.632 212.484C206.934 216.597 204.918 220.57 202.603 224.369" stroke="#F7AD2B" stroke-width="0.75" stroke-linecap="round" stroke-linejoin="round"/>
<path d="M278.262 270.239H205.919C207.473 266.241 209.226 262.323 211.172 258.5L276.54 262.048C277.152 264.684 277.746 267.414 278.262 270.239Z" fill="#83ADDF"/>
<path d="M249.523 270.238V289.935" stroke="#83ADDF" stroke-width="0.75" stroke-linecap="round" stroke-linejoin="round"/>
<path d="M251.039 291.261C253.089 290.133 254.269 289.599 254.484 288.359C254.699 287.119 255.724 273.442 255.724 273.442" stroke="#83ADDF" stroke-width="0.75" stroke-linecap="round" stroke-linejoin="round"/>
<path d="M248.55 364.802C248.55 364.802 249.067 309.881 249.497 307.384C249.495 307.358 249.495 307.332 249.497 307.306C249.937 306.488 250.824 305.274 255.698 302.423" stroke="#83ADDF" stroke-width="0.75" stroke-linecap="round" stroke-linejoin="round"/>
<path d="M141.757 165.659C146.115 163.989 150.86 164.325 156.923 167.218C164.02 170.612 170.169 179.336 167.172 191.333C166.681 193.271 159.137 197.301 157.888 196.414C156.639 195.527 166.526 170.956 141.757 165.659Z" fill="white"/>
<path d="M220 133.388C216.142 133.018 213.713 134.603 211.913 137.884C210.113 141.165 207.84 144.438 207.84 144.438C207.84 144.438 212.525 146.35 217.098 141.157C221.352 136.316 220 133.388 220 133.388Z" fill="#FFB63F"/>
<path d="M222.816 134.887C218.458 136.05 216.417 137.807 215.634 143.086C214.85 148.366 215.125 150.786 214.566 152.775C214.566 152.775 220.146 151.483 222.816 146.471C225.357 141.674 224.711 138.599 222.816 134.887Z" fill="#FFB63F"/>
<path d="M228.311 106.708C228.311 106.708 224.108 115.837 224.005 123.493C223.94 125.225 224.197 126.954 224.763 128.592L220.104 129.134C216.116 132.967 208.908 131.649 211.491 126.757C207.185 129.444 201.544 125.767 204.343 121.883C200.993 122.675 199.288 117.258 203.602 115.854C200.011 115.466 199.296 109.059 204.162 108.689C203.738 108.248 203.446 107.697 203.322 107.098C203.197 106.499 203.244 105.877 203.457 105.304C203.67 104.73 204.041 104.229 204.527 103.857C205.013 103.485 205.594 103.258 206.203 103.202C206.711 103.187 207.215 103.288 207.677 103.497C208.14 103.706 208.549 104.018 208.873 104.408C206.789 96.8982 215.599 94.504 218.304 98.4484C218.777 95.2705 224.737 94.9432 225.624 99.0427C230.12 96.5624 233.048 102.591 228.311 106.708Z" fill="#604730"/>
<path d="M224.797 128.592L220.138 129.134C216.15 132.967 208.942 131.649 211.526 126.757C207.219 129.444 201.578 125.767 204.377 121.883C201.027 122.675 199.322 117.258 203.637 115.854C200.045 115.467 199.331 109.059 204.197 108.689C203.772 108.248 203.481 107.697 203.356 107.098C203.231 106.499 203.278 105.877 203.492 105.304C203.705 104.73 204.076 104.229 204.562 103.857C205.048 103.486 205.628 103.259 206.238 103.203C205.928 105.855 207.099 109.61 209.683 109.869C206.152 111.169 206.177 115.355 209.683 116.827C207.486 119.265 210.776 122.692 213.524 120.763C213.42 123.45 217.46 127.825 223.988 123.45C223.934 125.2 224.208 126.944 224.797 128.592Z" fill="#473526"/>
<path d="M250.539 148.865C238.026 150.587 227.105 136.498 227.105 136.498C221.395 138.496 216.968 134.06 218.751 129.608C219.074 128.781 219.619 128.059 220.327 127.524C220.9 127.095 221.563 126.8 222.265 126.662C222.804 126.56 223.356 126.54 223.901 126.602C224.948 126.722 225.946 127.104 226.805 127.714C227.663 128.324 228.353 129.141 228.81 130.09C229.207 130.779 231.868 130.658 230.679 127.627C229.637 124.992 228.5 125.19 228.5 125.19C230.223 124.647 228.853 120.789 226.778 121.34C228.5 120.599 229.103 117.335 227.174 116.173C229.25 116.061 231.523 115.234 230.679 112.073C231.061 112.535 231.569 112.875 232.14 113.054C232.712 113.232 233.323 113.241 233.9 113.078C234.476 112.916 234.993 112.59 235.388 112.139C235.782 111.688 236.037 111.133 236.122 110.54C236.505 110.914 236.989 111.169 237.514 111.273C238.039 111.378 238.583 111.327 239.08 111.129C239.577 110.93 240.006 110.591 240.314 110.153C240.622 109.715 240.796 109.198 240.816 108.663C241.074 109.825 242.435 110.17 243.512 109.524C245.941 112.177 248.104 115.061 249.971 118.136L250.04 118.248C251.09 119.884 252.081 121.538 252.977 123.183C259.772 135.645 261.554 147.341 250.539 148.865Z" fill="#B25E47"/>
<path d="M235.416 125.353C234.96 126.895 232.161 127.42 229.172 126.533C226.184 125.646 224.117 123.674 224.573 122.132C225.03 120.591 227.829 120.074 230.817 120.961C233.806 121.848 235.873 123.82 235.416 125.353Z" fill="#A0503D"/>
<path d="M253.028 123.243C251.797 124.105 250.583 124.38 249.79 123.829C248.593 123.02 248.765 120.66 250.092 118.309C251.142 119.945 252.133 121.599 253.028 123.243Z" fill="#A0503D"/>
<path d="M223.91 126.654C223.365 126.592 222.813 126.613 222.274 126.715C221.571 126.852 220.909 127.147 220.336 127.576C216.357 115.88 226.847 109.929 226.847 109.929C222.851 115.743 223.471 123.588 223.91 126.654Z" fill="white"/>
<path d="M244.364 118.016C244.363 118.244 244.428 118.467 244.553 118.658C244.678 118.848 244.857 118.997 245.067 119.086C245.277 119.176 245.508 119.201 245.732 119.158C245.956 119.116 246.162 119.009 246.325 118.849C246.488 118.69 246.6 118.486 246.647 118.263C246.695 118.04 246.675 117.808 246.59 117.597C246.506 117.385 246.361 117.203 246.173 117.074C245.985 116.945 245.763 116.874 245.536 116.87C245.383 116.867 245.231 116.894 245.089 116.95C244.947 117.006 244.818 117.09 244.709 117.197C244.6 117.303 244.513 117.431 244.454 117.571C244.395 117.712 244.364 117.863 244.364 118.016Z" fill="#683F1D"/>
<path d="M236.854 120.453C236.854 120.682 236.922 120.905 237.049 121.095C237.176 121.284 237.356 121.432 237.567 121.52C237.778 121.607 238.01 121.63 238.233 121.585C238.457 121.541 238.663 121.431 238.824 121.269C238.986 121.108 239.096 120.902 239.14 120.679C239.185 120.455 239.162 120.223 239.074 120.012C238.987 119.801 238.839 119.621 238.649 119.494C238.46 119.367 238.237 119.299 238.008 119.299C237.857 119.299 237.707 119.329 237.567 119.387C237.427 119.445 237.299 119.53 237.192 119.637C237.085 119.744 237 119.872 236.942 120.012C236.884 120.152 236.854 120.302 236.854 120.453Z" fill="#683F1D"/>
<path d="M244.537 108.43C244.325 108.89 243.988 109.281 243.564 109.558C242.487 110.239 241.126 109.894 240.868 108.697C240.848 109.232 240.674 109.75 240.366 110.188C240.058 110.625 239.629 110.964 239.132 111.163C238.635 111.362 238.091 111.412 237.566 111.308C237.041 111.203 236.557 110.949 236.174 110.575C236.089 111.168 235.834 111.723 235.44 112.174C235.045 112.624 234.528 112.951 233.952 113.113C233.375 113.275 232.764 113.267 232.192 113.088C231.621 112.91 231.113 112.569 230.731 112.108C231.592 115.268 229.302 116.095 227.226 116.207C229.155 117.353 228.509 120.617 226.83 121.374C228.862 120.823 230.275 124.682 228.552 125.224C228.552 125.224 229.689 125.026 230.731 127.661C231.92 130.693 229.258 130.814 228.862 130.125C228.293 128.918 227.346 127.929 226.165 127.308C224.985 126.687 223.634 126.466 222.317 126.68C221.749 124.305 221.635 121.845 221.981 119.428C222.519 115.792 224.241 112.435 226.881 109.877C225.021 106.932 228.526 103.082 231.455 105.304C231.076 102.625 235.692 100.929 237.44 104.133C238.448 101.256 242.728 103.013 242.246 105.14C243.641 104.382 245.536 106.363 244.537 108.43Z" fill="#604730"/>
<path d="M240.256 116.87C243.09 122.942 247.387 119.617 248.472 124.199" stroke="#934735" stroke-width="0.75" stroke-linecap="round" stroke-linejoin="round"/>
<path d="M237.862 127.033C242.771 128.419 246.199 127.515 247.008 127.033C247.008 127.033 247.49 131.391 243.098 131.037C241.914 131.01 240.769 130.607 239.828 129.888C238.887 129.168 238.199 128.168 237.862 127.033Z" fill="white" stroke="#934735" stroke-width="0.75" stroke-linecap="round" stroke-linejoin="round"/>
<path d="M221.326 132.02C221.938 128.928 226.761 128.962 227.656 133.389" stroke="#934735" stroke-width="0.75" stroke-linecap="round" stroke-linejoin="round"/>
<path d="M225.211 134.887C222.515 134.19 223.79 130.107 226.735 131.279" stroke="#934735" stroke-width="0.75" stroke-linecap="round" stroke-linejoin="round"/>
<path d="M232.824 117.715C232.609 119.153 237.991 116.044 236.88 114.27C235.769 112.496 233.022 116.32 232.824 117.715Z" fill="#604730"/>
<path d="M246.526 112.435C247.646 113.365 241.557 114.666 241.229 112.625C240.902 110.583 245.441 111.531 246.526 112.435Z" fill="#604730"/>
<path d="M194.017 237.382C189.633 236.511 185.206 235.878 180.754 235.487" stroke="#934735" stroke-width="0.75" stroke-linecap="round" stroke-linejoin="round"/>
<path d="M180.754 235.488C164.941 234.093 153.315 247.304 160.368 257.432C169.291 270.238 226.408 266.966 232.273 266.819C235.993 266.733 235.717 269.472 241.41 270.006C244.855 270.342 250.126 270.359 251.237 269.799C252.072 269.239 252.746 268.47 253.192 267.569C253.192 267.569 256.447 268.869 257.748 265.149C257.748 265.149 261.064 265.898 261.606 261.239C261.606 261.239 263.613 263.736 265.464 262.823C267.583 261.781 267.884 260.24 266.395 258.267C264.905 256.295 258.773 249.328 256.732 248.596C254.69 247.864 239.36 250.577 236.742 249.991C223.591 247.054 205.592 237.675 180.754 235.488Z" fill="#B25E47"/>
<path d="M247.663 270.23C248.869 270.274 250.075 270.129 251.237 269.799C252.072 269.239 252.746 268.47 253.192 267.569C253.192 267.569 256.447 268.869 257.748 265.149C257.748 265.149 261.064 265.898 261.606 261.239C261.606 261.239 263.613 263.736 265.465 262.823C267.583 261.781 267.885 260.24 266.395 258.267C264.905 256.295 258.773 249.328 256.732 248.596" stroke="#934735" stroke-width="0.75" stroke-linecap="round" stroke-linejoin="round"/>
<path d="M262.028 261.704L257.36 256.588" stroke="#934735" stroke-width="0.75" stroke-linecap="round" stroke-linejoin="round"/>
<path d="M257.748 265.148L252.856 262.048" stroke="#934735" stroke-width="0.75" stroke-linecap="round" stroke-linejoin="round"/>
<path d="M253.192 267.569L249.85 266.544" stroke="#934735" stroke-width="0.75" stroke-linecap="round" stroke-linejoin="round"/>
<path d="M166.38 85.1769L162.866 85.5386L158.715 85.9864L161.531 83.041L164.132 80.3281L166.38 85.1769Z" fill="white"/>
<path d="M152.643 190.023C163.547 196.913 173.477 189.3 176.215 175.434C180.254 154.963 183.725 103.246 183.725 103.246C183.725 103.246 189.263 91.2572 191.028 86.9252C192.794 82.5932 192.51 78.7435 189.943 77.6325C189.943 77.6325 187.36 69.623 183.381 69.3733C182.616 68.9648 181.818 68.622 180.995 68.3484C179.006 67.9436 175.345 69.778 174.381 70.7943C173.416 71.8105 176.62 72.8785 178.446 72.577C180.272 72.2756 181.607 76.8832 180.788 78.8296C179.97 80.776 176.482 84.686 175.242 83.6697C174.002 82.6535 173.614 79.1396 174.122 76.3923C174.631 73.645 174.277 72.267 172.443 73.3349C170.609 74.4029 167.052 83.308 167.456 84.9357C167.861 86.5635 170.204 93.2811 170.359 94.4093C170.514 95.5375 152.617 154.437 149.086 164.66C145.555 174.883 144.935 185.157 152.643 190.023Z" fill="#FEBD9D"/>
<path d="M189.943 77.6328C190.152 79.0045 190.273 80.3882 190.305 81.7753" stroke="#EF8A66" stroke-width="0.75" stroke-linecap="round" stroke-linejoin="round"/>
<path d="M185.25 75.3594C185.765 77.2534 186.054 79.2019 186.111 81.1641" stroke="#EF8A66" stroke-width="0.75" stroke-linecap="round" stroke-linejoin="round"/>
<path d="M164.132 80.3278L169.98 77.0034C168.636 79.7594 167.396 83.2646 167.396 84.6253L166.354 85.1765C165.889 85.0049 165.463 84.7432 165.099 84.4063C164.736 84.0695 164.442 83.6642 164.236 83.2137C164.03 82.7632 163.914 82.2763 163.896 81.7811C163.878 81.2858 163.959 80.792 164.132 80.3278Z" fill="#683F1D"/>
<path d="M162.866 85.5391L158.715 85.9869L161.531 83.0415L162.866 85.5391Z" fill="#683F1D"/>
<path d="M167.457 84.9442C167.052 83.3165 170.617 74.4028 172.443 73.3434C173.795 72.5511 174.346 73.0851 174.338 74.5319C174.322 75.1573 174.25 75.7799 174.122 76.3922C173.952 77.3528 173.877 78.3278 173.899 79.3032C173.899 79.4324 173.899 79.5615 173.899 79.6821V80.0524C173.899 80.2333 173.899 80.4142 173.959 80.5864L174.036 81.1031C174.117 82.0719 174.528 82.9837 175.199 83.6868C176.474 84.7117 179.936 80.8362 180.745 78.8639C180.915 78.4156 181 77.9395 180.995 77.4601" stroke="#EF8A66" stroke-width="0.75" stroke-linecap="round" stroke-linejoin="round"/>
<path d="M177.671 72.6287C175.845 72.6287 173.537 71.6814 174.372 70.7943C175.345 69.778 179.006 67.9436 180.995 68.3484C181.817 68.6199 182.615 68.9599 183.381 69.3646" stroke="#EF8A66" stroke-width="0.75" stroke-linecap="round" stroke-linejoin="round"/>
<path d="M188.187 73.6367C188.869 74.9135 189.445 76.2443 189.909 77.6156C191.58 78.339 192.286 80.1993 192.079 82.6538" stroke="#EF8A66" stroke-width="0.75" stroke-linecap="round" stroke-linejoin="round"/>
<path d="M191.89 71.7073L188.186 73.6537L181.038 77.4345L174.053 81.1034C173.797 79.5422 173.812 77.9486 174.097 76.3924C174.224 75.7802 174.296 75.1575 174.312 74.5322L177.645 72.6289L183.381 69.3648L189.004 66.1782L191.89 71.7073Z" fill="#683F1D"/>
<path d="M187.962 66.1788C187.644 67.6342 188.677 71.8887 191.356 72.7414L193.078 71.6734L189.762 65.2056L187.962 66.1788Z" fill="white"/>
<path d="M192.777 67.6079C193.776 69.4337 193.991 71.225 193.268 71.6212C192.544 72.0174 191.149 70.8633 190.159 69.0375C189.168 67.2117 188.944 65.4203 189.668 65.0242C190.391 64.628 191.778 65.782 192.777 67.6079Z" fill="#683F1D"/>
<path d="M167.457 84.9442C167.052 83.3165 170.617 74.4028 172.443 73.3434C173.795 72.5511 174.346 73.0851 174.338 74.5319C174.322 75.1573 174.25 75.7799 174.122 76.3922C173.952 77.3528 173.877 78.3278 173.899 79.3032C173.899 79.4324 173.899 79.5615 173.899 79.6821V80.0524C173.899 80.2333 173.899 80.4142 173.959 80.5864L174.036 81.1031C174.117 82.0719 174.528 82.9837 175.199 83.6868C176.474 84.7117 179.936 80.8362 180.745 78.8639C180.915 78.4156 181 77.9395 180.995 77.4601" stroke="#EF8A66" stroke-width="0.75" stroke-linecap="round" stroke-linejoin="round"/>
<path d="M70.2059 174.082C67.6825 185.278 50.2253 181.695 49.2435 175.96C48.2617 170.224 49.8464 168.803 51.1899 158.296C52.2923 149.683 66.916 149.52 69.5083 155.299C69.926 156.231 70.0229 157.276 69.7839 158.27C69.2393 161.203 69.2247 164.211 69.7409 167.149C70.1112 169.905 70.6107 172.248 70.2059 174.082Z" fill="#FEBD9D"/>
<path d="M69.7837 158.27C69.2391 161.204 69.2246 164.211 69.7407 167.149C62.2824 164.996 60.9819 156.625 60.9819 156.625L69.5081 155.299C69.9258 156.232 70.0227 157.276 69.7837 158.27Z" fill="#F4A789"/>
<path d="M25.4046 253.333L42.1987 259.775C42.1987 259.775 39.8647 279.187 39.6839 278.903C39.503 278.619 11.4182 275.691 11.4182 275.691L25.4046 253.333Z" fill="#FEBD9D"/>
<path d="M0.945557 264.632C3.28811 273.098 9.16172 276.181 14.7856 275.992C20.4094 275.802 28.195 272.848 31.0887 263.969C33.3021 257.174 28.505 249.026 28.505 249.026L0.945557 264.632Z" fill="white"/>
<path d="M32.9146 364.802C32.9146 364.802 35.0677 353.055 30.5117 333.617C28.564 326.025 27.6942 318.198 27.9281 310.364C28.4534 298.375 32.1653 284.983 41.303 266.768L99.8668 264.365C102.485 272.512 104.862 279.999 106.998 286.826C113.483 307.496 117.901 322.395 120.993 332.472C125.11 345.872 132.068 364.811 132.068 364.811L32.9146 364.802Z" fill="#FFB63F"/>
<path d="M107.032 286.834C100.857 304.782 92.0726 312.912 69.3532 304.55C48.9248 297.04 41.4321 291.631 27.9624 310.371C28.4878 298.383 32.1997 284.991 41.3373 266.776L99.9012 264.373C102.519 272.52 104.896 280.007 107.032 286.834Z" fill="#FFCB66"/>
<path d="M101.581 234.076C98.351 246.607 101.339 260.214 102.649 263.194C103.958 266.174 102.89 268.215 100.986 268.568C99.083 268.921 42.9737 270.601 40.4589 270.239C37.9441 269.877 37.126 267.974 37.126 265.829C37.126 263.685 32.7078 248.605 30.5548 242.576C30.5548 242.576 30.3222 259.404 25.6629 264.417C21.0037 269.429 10.1608 271.462 3.34841 267.767C2.07804 266.963 1.17478 265.692 0.833614 264.227C-1.75008 256.183 2.24604 237.813 5.01921 224.68C6.12158 219.409 7.71486 212.82 9.74737 206.241C13.8382 192.986 19.7204 179.74 26.972 177.372C43.146 172.093 54.919 174.151 63.4969 173.35C66.1667 173.092 68.7504 172.782 71.248 172.489H71.3427C84.9416 170.766 95.3539 169.19 100.521 177.932C101.321 179.318 101.951 180.796 102.399 182.333C105.594 192.874 104.268 199.824 103.57 209.556C103.57 209.944 103.527 210.331 103.501 210.728C104.166 218.563 103.517 226.454 101.581 234.076Z" fill="#C3DCF8"/>
<path d="M30.5549 242.541C30.5549 242.541 30.3223 259.369 25.6631 264.382C21.0038 269.394 10.1609 271.426 3.34854 267.732C2.07816 266.928 1.17491 265.656 0.83374 264.192C22.7693 270.712 30.0726 247.372 24.2248 243.066C18.5321 238.872 18.6182 227.624 22.0976 221.776C24.4143 228.485 28.7721 237.029 30.5549 242.541Z" fill="#A7CAF0"/>
<path d="M100.513 177.846C94.3031 182.583 89.1013 188.646 87.0085 196.509C85.5961 201.797 83.3052 205.922 80.2134 208.85C71.8336 216.825 57.5543 215.981 39.0809 205.586C26.2916 198.403 17.5501 199.928 9.74731 206.18C13.8382 192.926 19.7204 179.68 26.972 177.312C43.1459 172.033 54.919 174.091 63.4969 173.29C66.1667 173.032 68.7504 172.722 71.2479 172.429H71.3427C84.9329 170.741 95.3452 169.139 100.513 177.846Z" fill="#D0E5F7"/>
<path d="M20.6162 215.8C20.8701 217.847 21.3674 219.856 22.0975 221.785C24.4142 228.486 28.7721 237.029 30.5548 242.541" stroke="#83ADDF" stroke-width="0.75" stroke-linecap="round" stroke-linejoin="round"/>
<path d="M162.461 193.089C158.904 195.457 138.795 201.073 122.956 205.62C116.615 207.468 110.126 208.768 103.561 209.504C97.7693 210.175 91.9257 210.282 86.1129 209.823C84.1123 209.656 82.1281 209.331 80.179 208.85C55.4702 202.873 59.4061 174.564 71.205 172.411H71.2997C88.1341 169.445 105.112 167.36 122.164 166.167C129.553 165.71 137.098 165.504 144.375 165.693C172.675 166.46 166.018 190.764 162.461 193.089Z" fill="#C3DCF8"/>
<path d="M162.461 193.088C158.904 195.457 138.795 201.072 122.957 205.619C116.615 207.468 110.126 208.767 103.562 209.503C97.7695 210.175 91.9258 210.281 86.113 209.822" stroke="#83ADDF" stroke-width="0.75" stroke-linecap="round" stroke-linejoin="round"/>
<path d="M122.199 166.193C115.696 168.889 107.471 172.557 100.513 177.88C94.3032 182.617 89.1013 188.68 87.0086 196.543C85.5961 201.831 83.3053 205.956 80.2134 208.884C55.5047 202.907 59.4405 174.599 71.2394 172.445H71.3341C88.1684 169.476 105.146 167.389 122.199 166.193Z" fill="#D0E5F7"/>
<path d="M141.757 165.659C146.115 163.988 150.86 164.324 156.923 167.217C164.02 170.611 170.169 179.335 167.172 191.332C166.681 193.27 159.137 197.3 157.888 196.413C156.639 195.526 166.526 170.955 141.757 165.659Z" fill="white"/>
<path d="M53.4808 159.277C68.4405 162.816 75.9935 161.292 77.9226 153.412C79.8518 145.531 71.8165 133.552 71.8165 133.552L72.4538 129.246C70.6696 128.423 68.9277 127.512 67.2347 126.515C66.4252 125.869 63.7898 119.195 61.3611 118.549C58.9324 117.903 41.9059 126.67 46.9699 141.139C52.034 155.608 53.4808 159.277 53.4808 159.277Z" fill="#FEBD9D"/>
<path d="M68.001 137.661C67.4843 139.297 64.7886 139.917 61.9724 139.039C59.1562 138.16 57.3045 136.11 57.8127 134.465C58.3208 132.82 61.025 132.2 63.8413 133.087C66.6575 133.975 68.5178 136.016 68.001 137.661Z" fill="#F4AF90"/>
<path d="M71.7907 133.552L72.4281 129.246C70.6439 128.424 68.902 127.513 67.209 126.516" stroke="#EF8A66" stroke-width="0.75" stroke-linecap="round" stroke-linejoin="round"/>
<path d="M59.5526 189.541C52.5164 191.263 50.7767 184.141 50.7767 184.141C45.1012 190.023 38.3922 188.335 36.8419 185.226C36.8419 185.226 31.0631 187.612 26.4382 184.141C20.0823 179.378 24.2249 172.29 24.2249 172.29C17.5589 170.568 18.7819 163.91 22.6058 161.094L23.1742 160.698C27.1531 158.114 34.3013 156.392 31.6745 151.224C28.9358 145.721 26.688 138.142 33.7587 133.905C33.7587 133.905 34.1204 125.732 39.2017 123.054C44.283 120.375 44.6189 119.316 44.7308 117.8C45.1184 112.219 50.3891 106.948 56.3661 111.057C56.5556 111.186 56.7536 111.324 56.9431 111.47C63.3421 110.833 65.0301 116.853 63.9535 119.755C66.2444 127.265 60.7842 132.897 62.3344 135.524C64.1086 138.521 62.7564 142.104 62.7564 142.104C60.1124 137.91 56.857 136.583 54.6178 140.175C52.8006 143.103 54.2819 146.936 60.1641 150.587C66.4597 154.497 63.4799 159.518 62.1019 163.299C61.2978 165.512 61.0278 167.885 61.3136 170.222C61.5994 172.56 62.4331 174.797 63.7468 176.751C66.787 181.083 66.5889 187.853 59.5526 189.541Z" fill="#7F542D"/>
<path d="M59.5526 189.541C52.5164 191.263 50.7767 184.141 50.7767 184.141C45.1012 190.023 38.3922 188.335 36.8419 185.226C36.8419 185.226 31.0631 187.611 26.4382 184.141C20.0823 179.378 24.2249 172.29 24.2249 172.29C17.5589 170.568 18.7819 163.91 22.6058 161.094L23.1742 160.698C25.8526 168.217 30.7272 172.282 35.6965 171.11C42.3021 169.577 46.0313 165.943 52.2149 169.75C58.3986 173.556 60.2502 155.798 51.1901 153.119C42.1299 150.441 40.3902 135.205 48.2274 133.311C54.0924 131.933 59.3632 120.074 56.3661 110.979C56.5556 111.108 56.7536 111.246 56.9431 111.392C63.3421 110.755 65.0301 116.775 63.9535 119.677C66.2444 127.187 60.7842 132.82 62.3344 135.447C64.1086 138.444 62.7564 142.026 62.7564 142.026C60.1124 137.832 56.857 136.506 54.6178 140.097C52.8006 143.025 54.2819 146.858 60.1641 150.51C66.4597 154.42 63.4799 159.441 62.1019 163.221C61.2978 165.435 61.0278 167.807 61.3136 170.145C61.5994 172.482 62.4331 174.719 63.7468 176.674C66.787 181.083 66.5889 187.853 59.5526 189.541Z" fill="#704725"/>
<path d="M65.2713 130.71C65.2713 130.937 65.3384 131.158 65.4643 131.347C65.5902 131.535 65.7691 131.682 65.9784 131.769C66.1877 131.855 66.418 131.878 66.6402 131.834C66.8624 131.79 67.0665 131.681 67.2267 131.52C67.3868 131.36 67.4959 131.156 67.5401 130.934C67.5843 130.712 67.5617 130.481 67.475 130.272C67.3883 130.063 67.2415 129.884 67.0531 129.758C66.8647 129.632 66.6433 129.565 66.4167 129.565C66.266 129.564 66.1165 129.593 65.977 129.65C65.8375 129.707 65.7108 129.791 65.6042 129.898C65.4976 130.005 65.4133 130.131 65.3561 130.271C65.299 130.41 65.2701 130.56 65.2713 130.71Z" fill="#683F1D"/>
<path d="M24.199 172.299C27.463 165.831 30.4343 166.02 33.2075 163.884C35.9806 161.748 37.195 157.304 36.6524 155.272" stroke="#A56F42" stroke-width="0.75" stroke-linecap="round" stroke-linejoin="round"/>
<path d="M36.8419 185.226C35.9607 183.795 35.5683 182.117 35.7236 180.444C35.879 178.771 36.5737 177.194 37.7031 175.95" stroke="#A56F42" stroke-width="0.75" stroke-linecap="round" stroke-linejoin="round"/>
<path d="M50.7766 184.141C50.3554 183.047 50.1692 181.876 50.23 180.706C50.2908 179.535 50.5974 178.39 51.1297 177.346" stroke="#A56F42" stroke-width="0.75" stroke-linecap="round" stroke-linejoin="round"/>
<path d="M45.4456 123.45C49.2694 122.588 49.6398 119.858 50.7852 117.611C51.9306 115.363 53.7048 111.883 56.943 111.41" stroke="#A56F42" stroke-width="0.75" stroke-linecap="round" stroke-linejoin="round"/>
<path d="M63.9534 119.694C62.7907 117.111 59.1046 114.019 55.6855 117.111" stroke="#A56F42" stroke-width="0.75" stroke-linecap="round" stroke-linejoin="round"/>
<path d="M57.3134 144.963C57.2359 141.725 60.4311 140.967 62.9114 143.439" stroke="#EF8A66" stroke-width="0.75" stroke-linecap="round" stroke-linejoin="round"/>
<path d="M61.6109 146.367C59.1133 146.367 59.0272 142.621 62.2051 142.836" stroke="#EF8A66" stroke-width="0.75" stroke-linecap="round" stroke-linejoin="round"/>
<path d="M69.3535 138.393C69.8137 138.976 70.4309 139.417 71.1325 139.663C71.8342 139.908 72.5913 139.949 73.3152 139.779" stroke="#EF8A66" stroke-width="0.75" stroke-linecap="round" stroke-linejoin="round"/>
<path d="M56.9258 148.09C58.8205 149.614 62.2396 149.399 62.2396 149.399" stroke="#EF8A66" stroke-width="0.75" stroke-linecap="round" stroke-linejoin="round"/>
<path d="M64.2807 151.225C65.622 151.225 66.7094 150.137 66.7094 148.796C66.7094 147.455 65.622 146.367 64.2807 146.367C62.9394 146.367 61.8521 147.455 61.8521 148.796C61.8521 150.137 62.9394 151.225 64.2807 151.225Z" fill="white"/>
<path d="M62.4376 129.616C63.6261 130.391 66.4854 124.897 64.2462 123.389C62.007 121.882 60.8357 128.574 62.4376 129.616Z" fill="#7F542D"/>
<path d="M544.737 360.436H10.626C5.92185 360.436 2.1084 364.249 2.1084 368.953V370.288C2.1084 374.992 5.92185 378.806 10.626 378.806H544.737C549.441 378.806 553.254 374.992 553.254 370.288V368.953C553.254 364.249 549.441 360.436 544.737 360.436Z" fill="#EDEDED"/>
<path d="M18.6267 378.806C32.7509 372.053 53.7047 370.564 69.672 378.806" stroke="#DDDDDD" stroke-width="0.75" stroke-linecap="round" stroke-linejoin="round"/>
<path d="M13.7522 360.427C27.6783 368.178 36.9366 367.549 54.1182 367.317C66.9161 367.153 82.3235 373.673 92.5808 378.797" stroke="#DDDDDD" stroke-width="0.75" stroke-linecap="round" stroke-linejoin="round"/>
<path d="M79.8518 360.427C89.9541 371.786 96.9645 373.207 100.358 370.279C103.958 367.17 107.661 366.326 111.485 369.608C115.912 373.414 122.069 365.706 125.532 360.427" stroke="#DDDDDD" stroke-width="0.75" stroke-linecap="round" stroke-linejoin="round"/>
<path d="M119.245 378.806C123.327 375.042 130.604 370.392 141.938 369.616C155.373 368.755 172.443 374.939 181.555 378.806" stroke="#DDDDDD" stroke-width="0.75" stroke-linecap="round" stroke-linejoin="round"/>
<path d="M163.917 360.427C179.677 368.695 196.902 373.535 210.819 369.608C224.401 365.792 256.835 370.546 268.634 360.427" stroke="#DDDDDD" stroke-width="0.75" stroke-linecap="round" stroke-linejoin="round"/>
<path d="M223.695 378.806C233.788 373.061 249.532 369.547 261.779 378.806" stroke="#DDDDDD" stroke-width="0.75" stroke-linecap="round" stroke-linejoin="round"/>
<path d="M279.124 378.806C297.89 364.216 335.354 361.581 366.642 369.539C403.675 378.969 420.28 368.083 427.006 360.436" stroke="#DDDDDD" stroke-width="0.75" stroke-linecap="round" stroke-linejoin="round"/>
<path d="M312.867 378.805C326.457 372.699 344.733 371.442 364.033 378.805" stroke="#DDDDDD" stroke-width="0.75" stroke-linecap="round" stroke-linejoin="round"/>
<path d="M431.329 378.806C454.083 368.212 472.29 369.444 489.17 378.806" stroke="#DDDDDD" stroke-width="0.75" stroke-linecap="round" stroke-linejoin="round"/>
<path d="M463.427 360.427C500.917 373.018 531.939 382.767 552.376 365.68" stroke="#DDDDDD" stroke-width="0.75" stroke-linecap="round" stroke-linejoin="round"/>
<path d="M493.33 360.427C512.354 371.623 534.574 370.762 548.251 361.434" stroke="#DDDDDD" stroke-width="0.75" stroke-linecap="round" stroke-linejoin="round"/>
</svg>
