<svg width="562" height="401" viewBox="0 0 562 401" fill="none" xmlns="http://www.w3.org/2000/svg">
<path d="M203.826 354.537V356.836L247.058 362.655L301.07 373.181C301.07 373.181 303.98 370.81 298.517 366.693C293.054 362.575 262.814 357.287 247.45 360.211C247.45 360.167 231.832 349.074 203.826 354.537Z" fill="#EDEDED" stroke="#DDDDDD" stroke-linecap="round" stroke-linejoin="round"/>
<path d="M198.886 355.192C198.886 355.192 232.814 353.555 243.115 361.826C247.479 365.318 250.782 362.67 255.736 362.553C260.69 362.437 287.438 359.447 302.292 374.28L329.79 352.202C329.79 352.202 313.328 334.219 284.157 344.978C284.157 344.978 275.428 334.409 243.857 339.741C243.58 340.134 198.886 355.192 198.886 355.192Z" fill="#F9F9F9" stroke="#EDEDED" stroke-linecap="round" stroke-linejoin="round"/>
<path d="M284.164 345L246.294 360.168" stroke="#EDEDED" stroke-linecap="round" stroke-linejoin="round"/>
<path d="M518.917 141.302V357.185C481.651 346.339 431.624 339.254 377.066 335.063V141.302H518.917Z" fill="#F9F9F9" stroke="#DDDDDD" stroke-linecap="round" stroke-linejoin="round"/>
<path d="M518.917 200.305H508.551V237.099" stroke="#EDEDED" stroke-linecap="round" stroke-linejoin="round"/>
<path d="M450.261 234.713V198.013L441.008 198.559V236.313" stroke="#EDEDED" stroke-linecap="round" stroke-linejoin="round"/>
<path d="M430.962 238.823V201.25L441.008 200.879" stroke="#EDEDED" stroke-linecap="round" stroke-linejoin="round"/>
<path d="M423.171 238.823L422.64 205.062H430.962V238.823" fill="#EDEDED"/>
<path d="M423.171 238.823L422.64 205.062H430.962V238.823" stroke="#DDDDDD" stroke-linecap="round" stroke-linejoin="round"/>
<path d="M386.821 238.823L377.044 205.928L384.617 204.167" stroke="#DDDDDD" stroke-width="0.75" stroke-linecap="round" stroke-linejoin="round"/>
<path d="M394.634 238.678C394.546 238.823 383.54 200.414 383.54 200.414L392.451 199.774L404.287 238.823" fill="#EDEDED"/>
<path d="M394.634 238.678C394.546 238.823 383.54 200.414 383.54 200.414L392.451 199.774L404.287 238.823" stroke="#DDDDDD" stroke-linecap="round" stroke-linejoin="round"/>
<path d="M395.529 209.914L406.869 208.626L419.796 238.823" stroke="#DDDDDD" stroke-width="0.75" stroke-linecap="round" stroke-linejoin="round"/>
<path d="M429.005 184.046C429.107 184.046 438.789 147.456 438.789 147.456L445.336 148.373L436.178 184.017" fill="#DDDDDD"/>
<path d="M429.005 184.046C429.107 184.046 438.789 147.456 438.789 147.456L445.336 148.373L436.178 184.017" stroke="#DDDDDD" stroke-miterlimit="10"/>
<path d="M446.777 183.159L446.508 144.881H458.009L457.492 181.791" fill="#F9F9F9"/>
<path d="M446.777 183.159L446.508 144.881H458.009L457.492 181.791" stroke="#DDDDDD" stroke-width="0.75" stroke-linecap="round" stroke-linejoin="round"/>
<path d="M457.972 147.456H471.263L470.331 182.17" fill="#F9F9F9"/>
<path d="M457.972 147.456H471.263L470.331 182.17" stroke="#DDDDDD" stroke-width="0.75" stroke-linecap="round" stroke-linejoin="round"/>
<path d="M500.717 144.074L510.217 144.881L499.742 184.047L491.929 181.355L500.717 144.074Z" stroke="#EDEDED" stroke-linecap="round" stroke-linejoin="round"/>
<path d="M509.526 183.675L518.918 149.318L509.526 147.456L499.742 184.046" fill="#EDEDED"/>
<path d="M509.526 183.675L518.918 149.318L509.526 147.456L499.742 184.046" stroke="#DDDDDD" stroke-linecap="round" stroke-linejoin="round"/>
<path d="M418.472 174.161H423.877V184.047" stroke="#EDEDED" stroke-linecap="round" stroke-linejoin="round"/>
<path d="M385.788 174.844L386.028 184.046" stroke="#EDEDED" stroke-linecap="round" stroke-linejoin="round"/>
<path d="M425.339 161.714H386.028V167.992H425.339V161.714Z" stroke="#EDEDED" stroke-linecap="round" stroke-linejoin="round"/>
<path d="M386.028 167.992H381.045V174.939L418.472 174.16V167.992" fill="#EDEDED"/>
<path d="M386.028 167.992H381.045V174.939L418.472 174.16V167.992" stroke="#DDDDDD" stroke-linecap="round" stroke-linejoin="round"/>
<path d="M518.917 184.046H377.044V193.663H518.917V184.046Z" stroke="#DDDDDD" stroke-linecap="round" stroke-linejoin="round"/>
<path d="M518.917 238.823H377.044V248.44H518.917V238.823Z" stroke="#DDDDDD" stroke-linecap="round" stroke-linejoin="round"/>
<path d="M529.349 128.637V360.43C525.993 359.309 522.516 358.228 518.918 357.185C481.651 346.339 431.625 339.254 377.066 335.064C373.613 334.792 370.136 334.537 366.635 334.3V128.637H529.349Z" stroke="#DDDDDD" stroke-width="2" stroke-linecap="round" stroke-linejoin="round"/>
<path d="M1 346.681C13.6939 343.706 31.96 340.949 54.2415 338.577C62.9709 337.646 72.3621 336.773 82.2699 335.966C86.1496 335.655 90.102 335.35 94.1272 335.049C96.974 334.846 99.8595 334.647 102.784 334.453C111.067 333.895 119.622 333.383 128.448 332.918C168.974 330.801 214.577 329.768 260.886 330.263C263.767 330.292 266.652 330.331 269.543 330.379C275.362 330.457 281.162 330.566 286.943 330.706C292.933 330.852 298.917 331.019 304.897 331.208C325.745 331.885 346.455 332.896 366.613 334.3C370.109 334.538 373.587 334.792 377.044 335.064L379.459 335.253C398.315 336.708 416.559 338.556 433.974 340.774C462.621 344.411 488.816 349.111 511.083 355.003C513.76 355.716 516.381 356.443 518.947 357.185C522.545 358.233 526.022 359.314 529.378 360.43C541.745 364.554 552.423 369.159 561 374.302" stroke="#DDDDDD" stroke-width="2" stroke-linecap="round" stroke-linejoin="round"/>
<path d="M260.886 87.042V330.262C204.517 329.666 149.173 331.332 102.784 334.453V87.042H260.886Z" fill="#F9F9F9" stroke="#DDDDDD" stroke-linecap="round" stroke-linejoin="round"/>
<path d="M210.387 315.393L222.412 278.737L229.359 279.421L218.796 315.328" stroke="#EDEDED" stroke-linecap="round" stroke-linejoin="round"/>
<path d="M228.29 315.328L240.496 270.678H232L229.359 279.422" stroke="#EDEDED" stroke-linecap="round" stroke-linejoin="round"/>
<path d="M236.655 315.328L245.603 277.755L238.677 277.326L228.29 315.328" fill="#EDEDED"/>
<path d="M236.655 315.328L245.603 277.755L238.677 277.326L228.29 315.328" stroke="#DDDDDD" stroke-linecap="round" stroke-linejoin="round"/>
<path d="M260.886 269.514C260.886 269.688 247.225 269.514 247.225 269.514L247.727 314.964" stroke="#EDEDED" stroke-linecap="round" stroke-linejoin="round"/>
<path d="M205.593 219.015H215.974L224.289 254.114H214.963" fill="#EDEDED"/>
<path d="M205.593 219.015H215.974L224.289 254.114H214.963" stroke="#DDDDDD" stroke-linecap="round" stroke-linejoin="round"/>
<path d="M232.603 215.37H224.289C224.289 215.37 224.972 254.15 225.7 254.15H233.702" fill="#F9F9F9"/>
<path d="M232.603 215.37H224.289C224.289 215.37 224.972 254.15 225.7 254.15H233.702" stroke="#DDDDDD" stroke-linecap="round" stroke-linejoin="round"/>
<path d="M233.702 254.15C233.2 253.539 232.589 208.86 232.589 208.86H242.591V254.15" fill="#F9F9F9"/>
<path d="M233.702 254.15C233.2 253.539 232.589 208.86 232.589 208.86H242.591V254.15" stroke="#DDDDDD" stroke-linecap="round" stroke-linejoin="round"/>
<path d="M249.706 254.15L259.89 216.185L252.615 213.683C252.615 213.683 242.569 248.163 242.569 248.447V254.15" fill="#EDEDED"/>
<path d="M249.706 254.15L259.89 216.185L252.615 213.683C252.615 213.683 242.569 248.163 242.569 248.447V254.15" stroke="#DDDDDD" stroke-linecap="round" stroke-linejoin="round"/>
<path d="M207.077 254.114L196.217 214.272L204.277 212.962L214.963 254.114" fill="#F9F9F9"/>
<path d="M207.077 254.114L196.217 214.272L204.277 212.962L214.963 254.114" stroke="#DDDDDD" stroke-linecap="round" stroke-linejoin="round"/>
<path d="M161.336 235.12L158.033 234.873V238.612" stroke="#EDEDED" stroke-linecap="round" stroke-linejoin="round"/>
<path d="M195.162 236.742L194.864 242.664" stroke="#EDEDED" stroke-linecap="round" stroke-linejoin="round"/>
<path d="M163.212 227.562L162.369 220.761H195.533V227.562" stroke="#EDEDED" stroke-linecap="round" stroke-linejoin="round"/>
<path d="M161.336 235.12L160.79 227.562H198.021L198.45 236.815L161.336 235.12Z" fill="#DDDDDD" stroke="#DDDDDD" stroke-miterlimit="10"/>
<path d="M160.79 241.74L196.908 242.664V254.114" stroke="#EDEDED" stroke-linecap="round" stroke-linejoin="round"/>
<path d="M170.509 169.708H126.506V176.757H170.509V169.708Z" stroke="#DDDDDD" stroke-width="0.75" stroke-linecap="round" stroke-linejoin="round"/>
<path d="M168.472 192.746C168.836 193.416 168.472 182.94 168.472 182.94L132.667 182.453V192.892" stroke="#DDDDDD" stroke-width="0.75" stroke-linecap="round" stroke-linejoin="round"/>
<path d="M166.319 176.757V182.912" stroke="#DDDDDD" stroke-width="0.75" stroke-linecap="round" stroke-linejoin="round"/>
<path d="M174.553 192.95L176.074 144.532L187.4 145.186L186.425 192.899" fill="#EDEDED"/>
<path d="M174.553 192.95L176.074 144.532L187.4 145.186L186.425 192.899" stroke="#DDDDDD" stroke-linecap="round" stroke-linejoin="round"/>
<path d="M187.342 147.987H196.784L195.926 192.9" stroke="#DDDDDD" stroke-width="0.75" stroke-linecap="round" stroke-linejoin="round"/>
<path d="M135.155 177.238L135.519 182.49" stroke="#DDDDDD" stroke-width="0.75" stroke-linecap="round" stroke-linejoin="round"/>
<path d="M102.784 152.606H112.982L114.779 192.95" stroke="#EDEDED" stroke-linecap="round" stroke-linejoin="round"/>
<path d="M123.269 192.747L122.083 155.836L113.106 155.356" stroke="#EDEDED" stroke-linecap="round" stroke-linejoin="round"/>
<path d="M196.784 192.899L206.83 151.392L217.378 153.807" stroke="#EDEDED" stroke-linecap="round" stroke-linejoin="round"/>
<path d="M206.634 192.9L218.818 147.987L229.25 152.076L218.534 192.9" stroke="#EDEDED" stroke-linecap="round" stroke-linejoin="round"/>
<path d="M243.981 192.951L243.355 144.532L229.308 144.001V192.951" stroke="#EDEDED" stroke-linecap="round" stroke-linejoin="round"/>
<path d="M256.012 192.95L255.278 148.467H243.355L244.38 192.95" fill="#EDEDED"/>
<path d="M256.012 192.95L255.278 148.467H243.355L244.38 192.95" stroke="#DDDDDD" stroke-linecap="round" stroke-linejoin="round"/>
<path d="M260.886 192.892H102.776V202.516H260.886V192.892Z" stroke="#DDDDDD" stroke-linecap="round" stroke-linejoin="round"/>
<path d="M260.886 254.114H102.776V263.731H260.886V254.114Z" stroke="#DDDDDD" stroke-linecap="round" stroke-linejoin="round"/>
<path d="M260.886 315.328H102.776V324.952H260.886V315.328Z" stroke="#DDDDDD" stroke-width="2" stroke-linecap="round" stroke-linejoin="round"/>
<path d="M269.543 74.7773V330.379C266.633 330.33 263.747 330.292 260.886 330.263C204.517 329.666 149.173 331.332 102.784 334.453C99.874 334.642 96.9885 334.841 94.1272 335.049V74.7773H269.543Z" stroke="#DDDDDD" stroke-width="2" stroke-linecap="round" stroke-linejoin="round"/>
<path d="M200.836 92.032L199.221 97.095L188.186 131.685H181.435L194.609 90.3589L200.836 92.032Z" stroke="#DDDDDD" stroke-width="0.75" stroke-linecap="round" stroke-linejoin="round"/>
<path d="M199.228 97.0952L208.656 99.5976L198.886 131.685" stroke="#DDDDDD" stroke-width="0.75" stroke-linecap="round" stroke-linejoin="round"/>
<path d="M208.881 87.0493L208.081 131.678" stroke="#DDDDDD" stroke-width="0.75" stroke-linecap="round" stroke-linejoin="round"/>
<path d="M212.359 90.6284H221.91" stroke="#DDDDDD" stroke-width="0.75" stroke-linecap="round" stroke-linejoin="round"/>
<path d="M224.74 87.0493V131.678" stroke="#DDDDDD" stroke-width="0.75" stroke-linecap="round" stroke-linejoin="round"/>
<path d="M224.74 110.677L231.141 131.678" stroke="#DDDDDD" stroke-width="0.75" stroke-linecap="round" stroke-linejoin="round"/>
<path d="M236.946 131.678L243.355 128.994L230.341 95.4438L224.74 97.0951" stroke="#DDDDDD" stroke-width="0.75" stroke-linecap="round" stroke-linejoin="round"/>
<path d="M242.169 129.488L242.962 131.678H245.719L250.44 129.292L242.053 100.383L233.142 102.667" stroke="#DDDDDD" stroke-width="0.75" stroke-linecap="round" stroke-linejoin="round"/>
<path d="M260.886 131.678H102.776V141.295H260.886V131.678Z" stroke="#DDDDDD" stroke-linecap="round" stroke-linejoin="round"/>
<path d="M120.082 131.685H112.735L102.784 99.6122L110.706 97.0952L120.155 127.444" stroke="#EDEDED" stroke-linecap="round" stroke-linejoin="round"/>
<path d="M130.208 131.685H120.082L120.155 127.444L120.788 91.312H129.474L129.685 102.507L130.237 131.685" stroke="#EDEDED" stroke-linecap="round" stroke-linejoin="round"/>
<path d="M150.933 131.685H139.396L138.88 100.005L138.727 90.679L148.875 90.3589C148.875 90.3589 148.969 92.243 149.115 95.2546C149.551 104.297 150.49 123.392 150.933 131.685Z" stroke="#EDEDED" stroke-linecap="round" stroke-linejoin="round"/>
<path d="M130.209 131.685L129.685 102.507L129.605 97.8228L138.88 100.005H138.887L139.396 131.685H130.238" fill="#EDEDED"/>
<path d="M130.209 131.685L129.685 102.507L129.605 97.8228L138.88 100.005H138.887L139.396 131.685H130.238" stroke="#DDDDDD" stroke-linecap="round" stroke-linejoin="round"/>
<path d="M150.933 131.685H161.008L160.121 97.0948L160.077 95.2544H149.115L150.933 131.685Z" fill="#EDEDED" stroke="#DDDDDD" stroke-linecap="round" stroke-linejoin="round"/>
<path d="M160.121 97.0952H171.2L171.542 131.685H161.008" stroke="#EDEDED" stroke-linecap="round" stroke-linejoin="round"/>
<path d="M376.084 382.558L428.591 362.539L480.698 368.359C480.698 368.359 484.269 369.61 482.582 374.011L431.035 399.639L376.084 382.558Z" fill="#F9F9F9" stroke="#EDEDED" stroke-linecap="round" stroke-linejoin="round"/>
<path d="M431.653 392.837C431.653 392.837 465.705 376.972 480.697 368.388Z" fill="#F9F9F9"/>
<path d="M431.653 392.837C431.653 392.837 465.705 376.972 480.697 368.388" stroke="#EDEDED" stroke-linecap="round" stroke-linejoin="round"/>
<path d="M376.084 382.558C376.084 382.558 428.591 390.284 431.653 392.837C433.05 394.001 433.174 399.995 430.118 399.602C427.063 399.209 376.084 391.535 376.084 391.535C376.084 391.535 383.555 388.13 376.084 382.558Z" fill="#EDEDED" stroke="#DDDDDD" stroke-linecap="round" stroke-linejoin="round"/>
<path d="M445.507 109.751C459.422 106.913 468.402 93.3307 465.563 79.4153C462.724 65.4998 449.142 56.5203 435.227 59.3591C421.311 62.1978 412.332 75.7797 415.17 89.6952C418.009 103.611 431.591 112.59 445.507 109.751Z" stroke="#EDEDED" stroke-width="2" stroke-linecap="round" stroke-linejoin="round"/>
<path d="M452.815 91.7633L443.402 84.998C443.427 84.8465 443.442 84.6934 443.445 84.5398C443.444 83.9826 443.291 83.4364 443.002 82.9597C442.714 82.483 442.301 82.0937 441.809 81.8337C441.641 78.3201 441.336 71.8968 441.045 65.8736C440.987 64.6297 439.794 64.6369 439.743 65.8736L439.015 81.7609C438.398 82.0674 437.901 82.5729 437.606 83.1959C437.31 83.8189 437.233 84.5233 437.387 85.1954C437.541 85.8675 437.916 86.4683 438.453 86.901C438.99 87.3337 439.657 87.573 440.346 87.5805C440.993 87.5805 441.622 87.3741 442.143 86.9912L452.08 92.8108C453.178 93.5019 453.833 92.4907 452.815 91.7633Z" fill="#DDDDDD" stroke="#DDDDDD" stroke-miterlimit="10"/>
<path d="M181.515 358.306L252.615 371.705C252.615 371.705 247.741 379.642 254.07 381.977L202.749 396.002C202.749 396.002 137.199 380.951 134.835 379.918C132.471 378.885 129.918 373.946 135.824 372.025C141.731 370.105 181.515 358.306 181.515 358.306Z" fill="#F9F9F9" stroke="#DDDDDD" stroke-linecap="round" stroke-linejoin="round"/>
<path d="M202.749 396.001C200.094 395.689 198.333 389.956 203.665 387.999C208.801 386.108 252.586 371.734 252.586 371.734" fill="#F9F9F9"/>
<path d="M202.749 396.001C200.094 395.689 198.333 389.956 203.665 387.999C208.801 386.108 252.586 371.734 252.586 371.734" stroke="#EDEDED" stroke-linecap="round" stroke-linejoin="round"/>
<path d="M144.532 375.866L192.347 387.265" stroke="#DDDDDD" stroke-linecap="round" stroke-linejoin="round"/>
<path d="M43.0609 379.023C50.6263 377.27 49.266 374.869 47.2874 370.228C45.3087 365.587 39.2855 361.033 29.8942 363.012C20.5029 364.991 20.5029 373.982 27.8355 376.55C35.1682 379.118 39.2273 379.91 43.0609 379.023Z" fill="#F9F9F9" stroke="#EDEDED" stroke-linecap="round" stroke-linejoin="round"/>
<path d="M44.7773 372.337C45.6721 374.044 46.4028 375.832 46.9597 377.677Z" fill="#F9F9F9"/>
<path d="M44.7773 372.337C45.6721 374.044 46.4028 375.832 46.9597 377.677" stroke="#DDDDDD" stroke-linecap="round" stroke-linejoin="round"/>
<path d="M41.424 369.719C42.0894 370.737 42.8467 371.691 43.6863 372.571C44.6465 373.524 45.6722 373.145 45.4831 372.134C45.128 370.541 44.3775 369.062 43.3008 367.835C43.0431 367.631 42.7195 367.53 42.3916 367.549C42.0638 367.569 41.7546 367.708 41.5228 367.941C41.291 368.173 41.1528 368.483 41.1346 368.811C41.1164 369.139 41.2194 369.462 41.424 369.719Z" fill="#F9F9F9" stroke="#DDDDDD" stroke-linecap="round" stroke-linejoin="round"/>
<path d="M372.047 1V89.8135C371.674 90.0821 371.371 90.435 371.161 90.8434C370.951 91.2517 370.841 91.704 370.839 92.1631V94.5855C370.841 95.0447 370.951 95.4969 371.161 95.9053C371.371 96.3137 371.674 96.6666 372.047 96.9352V100.383H375.458V96.9352C375.829 96.6658 376.132 96.3125 376.34 95.9042C376.549 95.4959 376.658 95.044 376.659 94.5855V92.1631C376.658 91.7046 376.549 91.2528 376.34 90.8444C376.132 90.4361 375.829 90.0829 375.458 89.8135V1" fill="#EDEDED"/>
<path d="M372.047 1V89.8135C371.674 90.0821 371.371 90.435 371.161 90.8434C370.951 91.2517 370.841 91.704 370.839 92.1631V94.5855C370.841 95.0447 370.951 95.4969 371.161 95.9053C371.371 96.3137 371.674 96.6666 372.047 96.9352V100.383H375.458V96.9352C375.829 96.6658 376.132 96.3125 376.34 95.9042C376.549 95.4959 376.658 95.044 376.659 94.5855V92.1631C376.658 91.7046 376.549 91.2528 376.34 90.8444C376.132 90.4361 375.829 90.0829 375.458 89.8135V1" stroke="#DDDDDD" stroke-width="2" stroke-linecap="round" stroke-linejoin="round"/>
<path d="M224.536 1V89.8135C224.165 90.0829 223.863 90.4361 223.654 90.8444C223.445 91.2528 223.336 91.7046 223.335 92.1631V94.5855C223.336 95.044 223.445 95.4959 223.654 95.9042C223.863 96.3125 224.165 96.6658 224.536 96.9352V100.383H227.947V96.9352C228.32 96.6666 228.623 96.3137 228.833 95.9053C229.043 95.4969 229.153 95.0447 229.155 94.5855V92.1631C229.153 91.704 229.043 91.2517 228.833 90.8434C228.623 90.435 228.32 90.0821 227.947 89.8135V1" fill="#EDEDED"/>
<path d="M224.536 1V89.8135C224.165 90.0829 223.863 90.4361 223.654 90.8444C223.445 91.2528 223.336 91.7046 223.335 92.1631V94.5855C223.336 95.044 223.445 95.4959 223.654 95.9042C223.863 96.3125 224.165 96.6658 224.536 96.9352V100.383H227.947V96.9352C228.32 96.6666 228.623 96.3137 228.833 95.9053C229.043 95.4969 229.153 95.0447 229.155 94.5855V92.1631C229.153 91.704 229.043 91.2517 228.833 90.8434C228.623 90.435 228.32 90.0821 227.947 89.8135V1" stroke="#DDDDDD" stroke-width="2" stroke-linecap="round" stroke-linejoin="round"/>
<path d="M382.617 93.0654H217.378V103.366H382.617V93.0654Z" fill="#EDEDED" stroke="#DDDDDD" stroke-width="2" stroke-linecap="round" stroke-linejoin="round"/>
<path d="M384.857 95.7202H382.616V100.718H384.857V95.7202Z" fill="#F9F9F9" stroke="#DDDDDD" stroke-linecap="round" stroke-linejoin="round"/>
<path d="M375.524 103.366H224.463C223.157 103.366 222.099 104.424 222.099 105.73V105.875C222.099 107.181 223.157 108.24 224.463 108.24H375.524C376.83 108.24 377.888 107.181 377.888 105.875V105.73C377.888 104.424 376.83 103.366 375.524 103.366Z" fill="#F9F9F9" stroke="#DDDDDD" stroke-linecap="round" stroke-linejoin="round"/>
<path d="M364.089 373.72L415.788 353.191L467.095 358.48C467.095 358.48 470.572 362.524 468.208 367.122L418.196 390.226L364.089 373.72Z" fill="#F9F9F9" stroke="#DDDDDD" stroke-linecap="round" stroke-linejoin="round"/>
<path d="M418.807 383.431C418.807 383.431 460.518 364.365 467.095 358.48Z" fill="#F9F9F9"/>
<path d="M418.807 383.431C418.807 383.431 460.518 364.365 467.095 358.48" stroke="#DDDDDD" stroke-linecap="round" stroke-linejoin="round"/>
<path d="M364.089 373.72C364.089 373.72 415.788 380.907 418.807 383.431C420.174 384.58 420.305 390.575 417.287 390.211C414.268 389.847 364.089 382.696 364.089 382.696C364.089 382.696 371.414 379.219 364.089 373.72Z" fill="#F9F9F9" stroke="#EDEDED" stroke-linecap="round" stroke-linejoin="round"/>
<path d="M182.308 289.795C188.527 297.615 203.855 329.077 191.903 338.294C175.375 351.038 156.258 315.816 152.752 305.559L182.308 289.795Z" fill="#FEBD9D"/>
<path d="M184.039 288.492C184.039 288.492 181.711 290.289 178.016 292.77C171.309 297.273 160.099 304.009 150.162 306.22C150.162 306.22 149.136 304.169 147.572 301.077L144.081 294.159C141.978 289.976 139.643 285.335 137.65 281.356L135.329 276.701C134.9 275.842 134.515 275.064 134.187 274.387C128.368 262.596 121.857 234.814 140.974 232.967C142.608 232.797 144.253 232.763 145.892 232.865H145.972C146.423 232.901 146.859 232.945 147.289 233.003L147.652 233.054L148.292 233.17C148.547 233.214 148.802 233.272 149.02 233.33C149.238 233.389 149.413 233.425 149.602 233.483L149.871 233.549L150.424 233.731C150.599 233.784 150.772 233.847 150.94 233.92C151.117 233.972 151.29 234.038 151.457 234.116C151.658 234.193 151.854 234.28 152.046 234.378C152.222 234.452 152.395 234.534 152.563 234.625C152.79 234.732 153.009 234.848 153.217 234.975C153.406 235.076 153.588 235.185 153.763 235.295L154.214 235.593C154.744 235.945 155.254 236.326 155.741 236.735C155.952 236.909 156.156 237.077 156.352 237.266C157.015 237.867 157.644 238.503 158.237 239.172C158.433 239.397 158.637 239.63 158.833 239.899C159.029 240.168 159.139 240.27 159.291 240.459C159.539 240.765 159.786 241.085 160.019 241.42C160.186 241.631 160.346 241.856 160.506 242.082C160.754 242.424 161.001 242.809 161.234 243.144C161.466 243.478 161.619 243.704 161.808 244.009L162.405 244.955C162.608 245.275 162.805 245.602 163.009 245.944C163.474 246.708 163.932 247.516 164.398 248.352C164.543 248.629 164.704 248.912 164.856 249.196C165.009 249.48 165.271 249.967 165.482 250.367C165.693 250.767 165.889 251.095 166.086 251.517C166.282 251.938 166.544 252.397 166.777 252.855C167.257 253.801 167.737 254.754 168.232 255.714C173.717 266.676 179.318 278.534 182.118 284.535C183.355 287.008 184.039 288.492 184.039 288.492Z" fill="#FFB63F"/>
<path d="M168.304 255.707C162.95 255.895 157.882 258.172 154.185 262.05C153.671 262.587 153.186 263.151 152.73 263.738C148.106 269.447 142.123 273.904 135.329 276.701C134.9 275.842 134.515 275.064 134.187 274.387C128.368 262.596 121.857 234.814 140.974 232.967C142.608 232.797 144.253 232.763 145.892 232.865H145.972C146.423 232.901 146.859 232.945 147.289 233.003L147.652 233.054L148.292 233.17C148.547 233.214 148.802 233.272 149.02 233.33C149.238 233.389 149.413 233.425 149.602 233.483L149.871 233.549L150.424 233.731C150.599 233.784 150.772 233.847 150.94 233.92C151.117 233.972 151.29 234.038 151.457 234.116C151.658 234.193 151.854 234.28 152.046 234.378C152.222 234.452 152.395 234.534 152.563 234.625C152.79 234.732 153.009 234.848 153.217 234.975C153.406 235.076 153.588 235.185 153.763 235.295L154.214 235.593C154.744 235.945 155.254 236.326 155.741 236.735C155.952 236.909 156.156 237.077 156.352 237.266C157.015 237.867 157.644 238.503 158.237 239.172C158.433 239.397 158.637 239.63 158.833 239.899C159.029 240.168 159.139 240.27 159.291 240.459C159.539 240.765 159.786 241.085 160.019 241.42C160.186 241.631 160.346 241.856 160.506 242.082C160.754 242.424 161.001 242.809 161.234 243.144C161.466 243.478 161.619 243.704 161.808 244.009L162.405 244.955C162.608 245.275 162.805 245.602 163.009 245.944C163.474 246.708 163.932 247.516 164.398 248.352C164.543 248.629 164.704 248.912 164.856 249.196C165.009 249.48 165.271 249.967 165.482 250.367C165.693 250.767 165.889 251.095 166.086 251.517C166.282 251.938 166.544 252.397 166.777 252.855C167.351 253.793 167.832 254.746 168.304 255.707Z" fill="#FFCB66"/>
<path d="M178.016 292.77C171.309 297.273 160.099 304.009 150.162 306.22C150.162 306.22 149.136 304.169 147.572 301.077L144.08 294.159C141.978 289.977 139.643 285.336 137.65 281.356L149.013 270.307C149.456 270.139 158.149 270.583 155.465 277.872C152.781 285.161 148.045 290.042 151.908 293.003C155.77 295.963 166.929 272.089 176.772 289.773C177.308 290.717 177.726 291.724 178.016 292.77Z" fill="#FF9400"/>
<path d="M155.414 250.826C155.414 251.211 155.414 251.604 155.356 252.011C155.232 254.041 155.007 256.318 154.701 258.879C154.592 259.846 154.418 260.901 154.185 262.05C153.916 263.44 153.566 264.96 153.166 266.553C151.893 271.558 150.009 277.53 147.791 283.903C147.529 284.63 147.26 285.43 146.983 286.194C146.496 287.583 145.987 288.98 145.477 290.384C145.021 291.635 144.556 292.894 144.081 294.16C138.639 308.708 132.376 323.723 128.448 332.918C119.631 333.378 111.077 333.89 102.784 334.453C99.8739 334.642 96.9884 334.841 94.1271 335.049C90.0971 335.35 86.1447 335.655 82.2698 335.966C72.3621 336.773 62.9926 337.646 54.2415 338.577C55.8346 330.743 60.1483 309.989 65.2186 288.311C68.0119 276.381 71.0381 264.167 73.9479 253.677C76.0065 246.294 78.0216 239.769 79.862 234.764C81.7824 229.606 83.4992 226.093 84.9541 224.98C90.0025 221.124 94.3526 219.888 99.8012 220.557C100.398 220.637 101.001 220.731 101.627 220.848C102.253 220.964 102.886 221.11 103.54 221.27C103.78 221.321 104.02 221.386 104.268 221.452C104.515 221.517 104.784 221.597 105.046 221.67L105.868 221.903C107.163 222.291 108.538 222.744 109.993 223.263L110.895 223.583C111.622 223.845 112.35 224.121 113.135 224.42C114.59 224.965 116.132 225.576 117.776 226.224C121.886 227.86 127.299 230.057 138.77 232.472C139.534 232.625 140.269 232.792 140.953 232.952L141.564 233.091L142.153 233.236C142.444 233.302 142.742 233.382 143.019 233.454C143.295 233.527 143.579 233.6 143.848 233.673C144.393 233.818 144.917 233.964 145.419 234.124C146.227 234.378 146.983 234.64 147.689 234.924L148.351 235.2C148.773 235.397 149.173 235.593 149.544 235.797L150.038 236.073C150.804 236.522 151.512 237.062 152.148 237.681L152.272 237.805L152.446 237.994L152.679 238.256C152.909 238.528 153.125 238.812 153.326 239.107C153.436 239.274 153.537 239.434 153.639 239.616C153.741 239.798 153.799 239.892 153.872 240.045L153.974 240.249C154.564 241.515 154.957 242.864 155.138 244.25C155.138 244.432 155.189 244.613 155.218 244.81C155.247 245.006 155.218 245.05 155.261 245.181C155.305 245.312 155.305 245.595 155.32 245.806C155.334 246.017 155.356 246.272 155.363 246.534V246.847C155.363 247.101 155.363 247.363 155.363 247.632C155.48 248.614 155.465 249.676 155.414 250.826Z" fill="#FFB63F"/>
<path d="M128.448 332.917C132.376 323.722 138.632 308.73 144.081 294.159C144.566 292.893 145.031 291.635 145.477 290.384C145.987 288.98 146.496 287.583 146.983 286.194C147.26 285.43 147.529 284.659 147.791 283.902C149.973 277.53 151.893 271.536 153.166 266.553" stroke="#F7AD2B" stroke-width="0.75" stroke-linecap="round" stroke-linejoin="round"/>
<path d="M154.701 258.878C154.592 259.846 154.418 260.9 154.185 262.05C153.671 262.587 153.186 263.15 152.73 263.737C148.106 269.447 142.123 273.904 135.329 276.7C124.796 280.869 112.48 279.836 104.522 263.534C103.118 260.624 101.743 258.02 100.412 255.626C93.2541 242.845 86.889 236.713 79.8765 234.778C81.7969 229.62 83.5137 226.107 84.9686 224.994C90.017 221.138 94.3671 219.902 99.8157 220.571C100.412 220.651 101.016 220.746 101.642 220.862C102.267 220.978 102.9 221.124 103.555 221.284C103.795 221.335 104.035 221.4 104.282 221.466C104.529 221.531 104.799 221.611 105.061 221.684L105.883 221.917C107.177 222.305 108.552 222.758 110.007 223.277L110.909 223.597C111.637 223.859 112.364 224.135 113.15 224.434C113.753 224.667 114.386 224.899 115.026 225.161C115.456 225.321 115.878 225.489 116.321 225.67L117.776 226.245C121.886 227.882 127.298 230.079 138.77 232.494C139.534 232.647 140.269 232.814 140.953 232.974C154.41 236.029 157.051 239.39 154.701 258.878Z" fill="#FFCB66"/>
<path d="M145.914 232.865C143.579 240.067 137.745 247.523 128.834 246.17C119.108 244.715 113.114 234.669 113.157 224.434C114.612 224.98 116.154 225.591 117.798 226.238C121.908 227.875 127.321 230.072 138.792 232.487C139.556 232.64 140.291 232.807 140.975 232.967C142.615 232.796 144.268 232.762 145.914 232.865Z" fill="white"/>
<path d="M108.778 325.956C104.944 329.011 94.5418 333.23 82.2698 335.966C72.3621 336.773 62.9926 337.646 54.2415 338.577C55.8346 330.743 60.1483 309.989 65.2186 288.311C68.0119 276.381 71.0381 264.167 73.9479 253.677C95.3638 256.689 101.074 279.363 91.3483 287.031C80.4367 295.658 79.2364 302.823 93.0505 302.634C106.865 302.445 119.573 317.365 108.778 325.956Z" fill="#FF9400"/>
<path d="M142.924 205.266C142.822 206.299 142.713 207.281 142.619 208.219C141.76 216.614 141.375 221.772 141.316 226.507C141.316 229.01 141.316 231.396 141.491 234.08C141.491 234.08 138.087 245.253 125.96 240.627C117.405 237.353 117.798 226.26 117.798 226.26C120.301 218.325 121.966 210.15 122.767 201.869C123.058 197.715 144.495 190.237 142.924 205.266Z" fill="#FEBD9D"/>
<path d="M142.618 208.219C141.76 216.614 141.375 221.772 141.316 226.507C134.362 228.617 127.117 220.491 131.132 211.573C134.042 205.251 139.25 206.503 142.618 208.219Z" fill="#F4A789"/>
<path d="M184.039 288.493C184.039 288.493 165.562 302.787 150.162 306.221C150.162 306.221 149.137 304.169 147.573 301.078C160.23 296.713 173.484 290.348 182.192 284.528C183.355 287.009 184.039 288.493 184.039 288.493Z" fill="white"/>
<path d="M147.674 216.418C143.6 221.721 136.362 220.484 125.08 209.034C120.81 204.669 115.885 197.635 116.016 192.07C116.147 186.505 122.883 174.786 135.657 181.515C140.589 184.119 144.117 189.138 146.357 194.609C147.204 196.701 147.878 198.859 148.372 201.061C149.864 207.732 149.565 213.952 147.674 216.418Z" fill="#FEBD9D"/>
<path d="M133.707 200.676C133.016 202.4 130.172 202.894 127.349 201.774C124.527 200.654 122.788 198.341 123.479 196.617C124.17 194.893 127.008 194.391 129.837 195.511C132.667 196.631 134.391 198.944 133.707 200.676Z" fill="#F4AF90"/>
<path d="M148.351 201.047C146.576 201.701 144.881 201.519 144.095 200.465C143.011 199.01 144.015 196.413 146.336 194.594C147.183 196.686 147.857 198.844 148.351 201.047Z" fill="#F4AF90"/>
<path d="M145.47 196.159C148.29 196.159 150.577 193.872 150.577 191.052C150.577 188.232 148.29 185.945 145.47 185.945C142.65 185.945 140.363 188.232 140.363 191.052C140.363 193.872 142.65 196.159 145.47 196.159Z" stroke="#683F1D" stroke-miterlimit="10"/>
<path d="M134.093 193.772C134.091 193.982 134.152 194.188 134.268 194.364C134.384 194.54 134.549 194.677 134.743 194.758C134.937 194.84 135.151 194.862 135.358 194.822C135.564 194.782 135.754 194.681 135.903 194.533C136.053 194.385 136.154 194.195 136.196 193.989C136.238 193.783 136.217 193.569 136.137 193.375C136.057 193.18 135.92 193.014 135.746 192.897C135.571 192.78 135.365 192.717 135.155 192.717C134.874 192.717 134.605 192.828 134.406 193.026C134.207 193.223 134.095 193.492 134.093 193.772Z" fill="#683F1D"/>
<path d="M141.491 192.114C141.491 192.324 141.553 192.529 141.67 192.704C141.787 192.879 141.953 193.015 142.147 193.095C142.341 193.175 142.554 193.196 142.76 193.155C142.966 193.114 143.155 193.013 143.304 192.865C143.453 192.716 143.554 192.527 143.595 192.321C143.636 192.115 143.615 191.901 143.534 191.707C143.454 191.513 143.318 191.347 143.143 191.231C142.968 191.114 142.763 191.052 142.553 191.052C142.271 191.052 142.001 191.164 141.802 191.363C141.603 191.562 141.491 191.832 141.491 192.114Z" fill="#683F1D"/>
<path d="M126.142 208.277C123.538 209.776 119.493 209.776 118.096 205.63C116.7 201.483 120.679 199.403 122.934 199.81C125.713 200.319 127.255 204.393 126.142 208.277Z" fill="#FEBD9D"/>
<path d="M124.753 204.48C123.487 202.08 120.628 201.571 119.413 204.822" stroke="#EF8A66" stroke-width="0.75" stroke-linecap="round" stroke-linejoin="round"/>
<path d="M124.047 203.491C120.955 202.102 120.337 207.376 123.901 206.045" stroke="#EF8A66" stroke-width="0.75" stroke-linecap="round" stroke-linejoin="round"/>
<path d="M144.735 191.204C143.469 188.79 141.843 186.582 139.912 184.657C136.777 186.418 134.675 184.81 134.675 184.81C134.675 184.81 131.619 188.076 128.768 187.283C125.916 186.491 126.127 184.505 124.33 184.054C122.534 183.603 120.802 185.509 120.802 186.054C120.802 186.6 121.733 186.942 123.443 190.993C125.152 195.045 124.643 200.727 121.151 201.367C120.038 201.57 114.474 200.807 111.695 196.609C111.639 196.54 111.588 196.467 111.542 196.391C108.829 191.99 110.414 188.826 111.338 187.662C112.262 186.498 113.71 187.014 113.913 185.909C115.092 179.616 120.89 174.204 127.102 173.622C133.314 173.04 133.118 175.302 133.118 175.302C133.118 175.302 139.323 174.83 142.691 179.114C142.895 179.369 143.084 179.623 143.251 179.878C144.377 181.514 145.099 183.394 145.357 185.363C145.615 187.332 145.402 189.334 144.735 191.204Z" fill="#7F542D"/>
<path d="M144.735 191.204C143.469 188.79 141.843 186.582 139.912 184.657C136.777 186.418 134.675 184.81 134.675 184.81C134.675 184.81 131.619 188.076 128.768 187.283C125.916 186.49 126.127 184.505 124.331 184.053C122.534 183.602 120.802 185.508 120.802 186.054C120.802 186.6 121.734 186.941 123.443 190.993C125.153 195.045 124.643 200.726 121.152 201.367C120.039 201.57 114.474 200.806 111.695 196.609C118.969 195.256 119.209 191.386 117.653 185.159C116.634 181.056 124.2 177.216 128.426 179.827C131.059 181.464 138.29 180.947 143.251 179.878C144.377 181.514 145.099 183.393 145.357 185.362C145.615 187.331 145.402 189.334 144.735 191.204Z" fill="#704725"/>
<path d="M133.133 175.31C130.621 175.303 128.133 175.798 125.814 176.765" stroke="#A56F42" stroke-width="0.75" stroke-linecap="round" stroke-linejoin="round"/>
<path d="M133.918 179.733C135.068 179.937 138.69 183.057 139.912 184.665C139.912 184.665 141.942 186.12 142.924 184.054" stroke="#A56F42" stroke-width="0.75" stroke-linecap="round" stroke-linejoin="round"/>
<path d="M127.277 181.58C128.288 180.693 130.259 180.94 131.641 182.453C132.525 183.381 133.537 184.177 134.646 184.817" stroke="#A56F42" stroke-width="0.75" stroke-linecap="round" stroke-linejoin="round"/>
<path d="M137.301 188.68C136.974 192.317 138.116 194.027 139.68 194.121C141.244 194.216 143.317 194.74 142.924 197.191" stroke="#EF8A66" stroke-width="0.75" stroke-linecap="round" stroke-linejoin="round"/>
<path d="M135.497 201.847C137.658 202.221 139.851 202.389 142.044 202.349C142.044 202.349 141.316 205.142 138.618 204.822C137.848 204.724 137.13 204.382 136.569 203.847C136.007 203.312 135.632 202.611 135.497 201.847Z" fill="white" stroke="#EF8A66" stroke-width="0.75" stroke-linecap="round" stroke-linejoin="round"/>
<path d="M128.332 194.864C128.332 195.871 128.63 196.855 129.19 197.693C129.749 198.53 130.545 199.183 131.475 199.568C132.405 199.953 133.429 200.054 134.417 199.858C135.405 199.661 136.312 199.176 137.024 198.464C137.736 197.752 138.221 196.845 138.418 195.857C138.614 194.869 138.514 193.845 138.128 192.915C137.743 191.984 137.09 191.189 136.253 190.63C135.415 190.07 134.431 189.771 133.424 189.771C132.073 189.771 130.778 190.308 129.823 191.263C128.868 192.218 128.332 193.513 128.332 194.864Z" stroke="#683F1D" stroke-miterlimit="10"/>
<path d="M138.087 186.556C137.992 188.375 143.091 188.011 143.135 187.225C143.179 186.44 138.181 184.825 138.087 186.556Z" fill="#7F542D"/>
<path d="M129.561 190.819C130.085 191.866 135.089 189.16 133.925 187.269C132.762 185.377 128.841 189.407 129.561 190.819Z" fill="#7F542D"/>
<path d="M126.142 208.277C124.847 209.04 123.328 209.33 121.843 209.099" stroke="#EF8A66" stroke-width="0.75" stroke-linecap="round" stroke-linejoin="round"/>
<path d="M95.2256 264.982C88.8022 274.315 83.5428 283.735 78.8072 292.406C67.1172 313.8 60.432 329.368 46.0213 329.179C32.8764 328.997 31.4725 309.683 46.7997 278.258L42.9297 274.657C42.9297 274.657 54.1978 258.231 65.0367 241.733C74.8281 226.842 83.3973 216.047 99.823 220.557C109.52 223.241 106.632 248.331 95.2256 264.982Z" fill="#FEBD9D"/>
<path d="M100.412 255.605C98.9638 258.87 97.228 262.001 95.2254 264.959C90.1333 272.336 85.8051 279.763 81.8696 286.834C80.8148 288.711 79.7964 290.565 78.8071 292.384C74.2086 291.279 69.6725 289.929 65.2184 288.34C58.3877 285.801 51.528 282.52 46.7487 278.264L42.8787 274.664C42.8787 274.664 44.1153 272.867 46.1522 269.877C50.2768 263.803 57.7258 252.789 64.9856 241.74C66.6588 239.186 68.3028 236.757 69.9541 234.501C77.956 223.59 86.1615 216.825 99.7792 220.564C107.854 222.819 107.25 240.263 100.412 255.605Z" fill="#FFB63F"/>
<path d="M81.8697 286.885C80.8149 288.762 79.7965 290.617 78.8072 292.436C68.7394 289.948 54.8016 285.452 46.7997 278.294L42.9297 274.693C42.9297 274.693 44.1663 272.897 46.2032 269.907C52.1755 276.388 60.1774 280.513 81.8697 286.885Z" fill="white"/>
<path d="M100.412 255.605C93.2543 242.824 86.8892 236.691 79.8766 234.756C76.6411 233.925 73.2603 233.831 69.9834 234.48C77.9853 223.568 86.1908 216.803 99.8086 220.542C107.854 222.819 107.25 240.263 100.412 255.605Z" fill="#FFCB66"/>
<path d="M100.456 255.518C99.0028 258.822 97.2521 261.987 95.2255 264.974C88.8022 274.307 83.5428 283.728 78.8071 292.399" stroke="#F7AD2B" stroke-width="0.75" stroke-linecap="round" stroke-linejoin="round"/>
<path d="M99.5685 242.686C101.023 247.887 103.329 250.302 98.5864 259.417" stroke="#F7AD2B" stroke-width="0.75" stroke-linecap="round" stroke-linejoin="round"/>
<path d="M37.3284 314.95C42.9079 301.499 63.3418 301.056 88.0167 310.054C112.692 319.053 139.818 328.066 143.928 329.179C148.038 330.292 147.267 344.295 136.923 343.517C126.578 342.738 87.4565 346.128 64.5639 341.873C41.6713 337.617 33.6549 323.745 37.3284 314.95Z" fill="#FEBD9D"/>
<path d="M48.8364 305.253C55.3834 303.318 63.9818 303.602 73.8095 305.821" stroke="#EF8A66" stroke-width="0.75" stroke-linecap="round" stroke-linejoin="round"/>
<path d="M202.807 329.593C213.719 313.909 219.349 251.989 219.349 251.989C219.349 251.989 230.297 246.897 232.116 245.668C233.934 244.439 237.47 238.284 238.081 236.444C238.081 236.444 241.151 234.567 241.056 233.534C240.962 232.501 239.834 232.501 239.834 232.501C239.834 232.501 240.561 230.152 236.597 230.814C236.41 230.568 236.157 230.38 235.867 230.271C235.577 230.163 235.263 230.139 234.96 230.203C233.782 230.341 219.757 234.516 219.757 234.516C219.757 234.516 225.482 230.53 225.576 228.937C225.671 227.344 223.736 227.962 222.419 228.755C219.752 230.326 216.884 231.528 213.893 232.327C212.489 232.734 208.074 236.269 204.087 243.915C200.101 251.56 176.707 301.899 174.153 308.708C165.802 331.099 184.643 355.614 202.807 329.593Z" fill="#FEBD9D"/>
<path d="M182.548 289.744C178.416 298.881 175.033 306.388 174.153 308.709" stroke="#EF8A66" stroke-width="0.75" stroke-linecap="round" stroke-linejoin="round"/>
<path d="M232.116 245.668C233.942 244.446 237.47 238.284 238.081 236.444C238.081 236.444 241.151 234.567 241.056 233.534C240.961 232.501 239.834 232.501 239.834 232.501C239.834 232.501 240.561 230.152 236.597 230.814C236.41 230.568 236.156 230.38 235.867 230.271C235.577 230.163 235.263 230.139 234.96 230.203C233.782 230.341 219.756 234.516 219.756 234.516C219.756 234.516 225.481 230.53 225.576 228.937C225.671 227.344 223.736 227.962 222.419 228.755C219.752 230.326 216.884 231.528 213.893 232.327" stroke="#EF8A66" stroke-width="0.75" stroke-linecap="round" stroke-linejoin="round"/>
<path d="M219.756 234.509L217.574 236.008C217.574 236.008 219.364 239.987 214.963 243.282" stroke="#EF8A66" stroke-width="0.75" stroke-linecap="round" stroke-linejoin="round"/>
<path d="M223.568 236.815L236.597 230.813" stroke="#EF8A66" stroke-width="0.75" stroke-linecap="round" stroke-linejoin="round"/>
<path d="M228.537 241.216C228.646 241.144 232.487 239.332 232.487 239.332C232.487 239.332 236.437 233.178 237.484 232.865C238.532 232.552 239.732 233.062 238.081 236.444" stroke="#EF8A66" stroke-width="0.75" stroke-linecap="round" stroke-linejoin="round"/>
<path d="M225.7 238.903L237.026 233.178" stroke="#EF8A66" stroke-width="0.75" stroke-linecap="round" stroke-linejoin="round"/>
<path d="M239.834 232.501L238.372 232.858" stroke="#EF8A66" stroke-width="0.75" stroke-linecap="round" stroke-linejoin="round"/>
<path d="M195.453 309.916C189.022 329.237 177.798 356.873 177.798 356.873L102.806 373.887L50.8516 361.579V357.789L110.247 345.263C114.525 334.424 119.98 313.786 122.679 313.255C127.095 312.382 188.84 302.765 193.503 302.642C197.911 302.518 196.849 305.719 195.453 309.916Z" fill="#F9F9F9" stroke="#DDDDDD" stroke-linecap="round" stroke-linejoin="round"/>
<path d="M110.247 345.262L102.129 366.693" stroke="#DDDDDD" stroke-linecap="round" stroke-linejoin="round"/>
<path d="M102.922 369.719L102.806 373.887L50.8516 361.579V357.789L102.922 369.719Z" fill="#EDEDED" stroke="#DDDDDD" stroke-linecap="round" stroke-linejoin="round"/>
<path d="M384.777 296.393C384.719 297.055 384.668 297.71 384.617 298.35C382.74 319.446 380.667 330.277 379.459 335.253L377.044 335.064C373.591 334.792 370.114 334.538 366.613 334.3C346.455 332.896 325.745 331.885 304.896 331.208C298.927 331.014 292.942 330.847 286.943 330.706C291.308 321.628 296.749 304.897 301.245 289.97C301.848 287.918 302.452 285.91 303.02 283.954C303.505 282.324 303.965 280.743 304.402 279.211C304.46 278.992 304.525 278.774 304.591 278.556C304.656 278.338 304.744 278.003 304.831 277.727C305.027 277.043 305.216 276.352 305.413 275.661C305.515 275.341 305.602 275.021 305.689 274.7C305.835 274.199 305.973 273.697 306.111 273.202C306.249 272.707 306.359 272.344 306.475 271.929C306.657 271.282 306.831 270.641 307.006 270.03C307.108 269.637 307.224 269.252 307.319 268.881L308.046 266.357C308.134 266.066 308.199 265.797 308.264 265.549C308.41 265.047 308.519 264.633 308.614 264.327C308.614 264.254 308.65 264.182 308.665 264.123C308.679 264.065 308.701 263.993 308.715 263.934C308.717 263.903 308.717 263.871 308.715 263.84V263.745C308.781 263.491 308.846 263.258 308.905 263.018L309.166 262.05C309.559 260.595 309.77 259.817 309.77 259.817C308.483 260.331 307.087 260.511 305.711 260.341C299.411 259.868 290.166 255.06 289.06 248.702C289.036 248.577 289.019 248.45 289.009 248.323C288.974 248.082 288.955 247.839 288.951 247.596C288.952 245.603 289.643 243.673 290.908 242.133C298.4 232.174 303.318 228.668 308.228 226.937C308.817 226.74 309.392 226.558 309.981 226.391C315.517 224.871 332.488 223.699 332.488 223.699C334.532 220.79 338.541 211.057 340.585 201.476C342.934 190.441 351.729 188.768 356.399 194.929C358.152 197.235 359.309 200.632 359.375 205.041C359.426 210.525 359.513 217.211 359.564 221.219C359.6 223.401 359.622 224.762 359.622 224.762C359.622 224.762 367.878 221.655 381.096 221.466C383.897 221.43 386.639 222.092 388.669 223.954C391.666 226.704 394.488 232.225 397.034 238.918C403.101 254.878 407.56 277.472 409.015 285.648C410.943 296.946 384.777 296.393 384.777 296.393Z" fill="#C3DCF8"/>
<path d="M390.247 281.415C383.745 282.889 376.968 282.616 370.606 280.622C363.812 283.67 338.846 288.362 322.137 286.761C305.427 285.161 304.714 279.283 304.714 279.283L304.373 279.203C306.373 272.256 308.737 263.738 308.737 263.738C308.737 263.738 309.77 263.949 311.647 264.247C327.793 266.59 344.228 266.024 360.175 262.574C360.175 262.574 373.269 266.269 386.319 263.534L390.247 281.415Z" fill="#83ADDF"/>
<path d="M391.658 287.852C391.658 287.852 369.042 291.053 349.467 294.152C329.891 297.251 309.457 295.607 301.259 289.962L303.041 283.938C310.374 290.304 320.74 291.889 339.581 291.089C358.421 290.289 370.337 284.637 370.337 284.637C380.099 287.234 387.454 286.092 391.084 285.102L391.658 287.852Z" fill="#83ADDF"/>
<path d="M397.071 238.939C386.836 238.161 374.469 243.042 364.183 252.215C355.279 260.144 338.09 270.197 325.127 257.307C322.5 254.729 319.439 252.636 316.085 251.124C308.337 247.603 298.808 246.555 288.987 247.603C288.988 245.61 289.68 243.68 290.944 242.14C298.437 232.181 303.354 228.675 308.265 226.943C308.854 226.747 309.428 226.565 310.018 226.398C315.554 224.877 332.525 223.706 332.525 223.706C334.569 220.797 338.577 211.063 340.621 201.483C342.971 190.448 351.766 188.775 356.436 194.936C358.189 197.242 359.346 200.639 359.411 205.047C359.462 210.532 359.549 217.218 359.6 221.226C359.637 223.408 359.658 224.768 359.658 224.768C359.658 224.768 367.915 221.662 381.132 221.473C383.933 221.437 386.676 222.099 388.705 223.961C391.702 226.725 394.525 232.246 397.071 238.939Z" fill="#D0E5F7"/>
<path d="M384.617 298.35C382.74 319.445 380.667 330.277 379.459 335.253L377.044 335.064C373.591 334.792 370.114 334.537 366.613 334.3C346.455 332.896 325.745 331.885 304.896 331.208C312.44 323.279 326.174 320.1 335.034 324.581C344.978 329.608 361.222 324.887 356.945 312.826C354.406 305.675 355.999 297.135 370.308 291.126L384.617 298.35Z" fill="#A7CAF0"/>
<path d="M388.705 223.976C384.449 224.652 378.812 226.995 371.908 229.577C369.479 230.486 366.904 231.425 364.183 232.327C355.371 235.37 346.187 237.205 336.882 237.783C333.392 237.99 329.893 237.963 326.407 237.703C323.733 237.523 321.09 237.035 318.529 236.248C313.051 234.473 309.996 231.337 308.257 226.973C308.846 226.776 309.428 226.594 310.018 226.427C312.513 225.743 317.35 225.132 321.889 224.659C324.763 224.354 327.534 224.121 329.52 223.968C331.353 223.816 332.525 223.736 332.525 223.736C334.569 220.826 338.577 211.093 340.621 201.512C342.971 190.477 351.765 188.804 356.436 194.965C358.189 197.271 359.345 200.668 359.411 205.077C359.462 210.562 359.549 217.247 359.6 221.255C359.636 223.437 359.658 224.798 359.658 224.798C361.629 224.119 363.644 223.575 365.689 223.168C367.667 222.746 370.097 222.332 372.912 222.012C375.642 221.705 378.385 221.535 381.132 221.502C383.858 221.484 386.516 222.352 388.705 223.976Z" fill="#B25E47"/>
<path d="M359.6 221.24C352.609 220.826 346.652 215.159 348.128 207.943C349.78 199.875 352.922 196.042 356.436 194.951C358.189 197.257 359.345 200.654 359.411 205.062C359.462 210.547 359.549 217.232 359.6 221.24Z" fill="#914839"/>
<path d="M372.912 221.997C372.354 224.489 372.021 227.026 371.916 229.577C369.486 230.486 366.911 231.425 364.19 232.327C364.309 229.218 364.814 226.137 365.696 223.154C367.667 222.732 370.097 222.317 372.912 221.997Z" fill="#FFB63F"/>
<path d="M329.52 223.961C328.012 228.423 326.969 233.027 326.407 237.703C323.733 237.524 321.09 237.035 318.529 236.248C319.281 232.288 320.406 228.408 321.889 224.66C324.763 224.325 327.542 224.114 329.52 223.961Z" fill="#FFB63F"/>
<path d="M395.267 311.669C394.496 319.132 393.084 326.552 390.633 331.739C389.12 334.932 387.207 337.268 384.777 338.242C379.896 340.214 375.698 339.697 372.352 337.842C366.358 334.532 363.114 327.003 363.623 322.122C363.623 321.889 363.667 321.628 363.696 321.395C363.754 320.667 363.805 319.889 363.856 319.016C363.856 318.732 363.856 318.434 363.914 318.129C363.914 318.07 363.914 318.012 363.914 317.947C363.914 317.728 363.914 317.503 363.914 317.277C363.914 316.877 363.958 316.455 363.972 316.041C363.987 315.626 363.972 315.386 364.016 315.044C364.016 314.928 364.016 314.811 364.016 314.695C364.016 314.356 364.03 314.006 364.059 313.647C364.059 313.284 364.059 312.92 364.11 312.534C364.11 311.705 364.169 310.869 364.198 309.996C364.227 309.123 364.249 308.446 364.278 307.653C364.278 307.311 364.278 306.97 364.278 306.635C364.343 304.794 364.394 302.881 364.452 300.939C364.489 299.717 364.525 298.48 364.569 297.236L364.612 295.701L364.678 293.599L364.721 292.144C364.721 291.3 364.787 290.471 364.809 289.642C364.852 288.442 364.896 287.249 364.94 286.077C364.94 285.306 365.005 284.542 365.034 283.786C365.092 282.367 365.158 281.007 365.223 279.69L395.994 283.975C396.368 293.212 396.125 302.464 395.267 311.669Z" fill="#C3DCF8"/>
<path d="M365.274 279.61C364.547 293.592 364.321 314.528 363.579 322.108" stroke="#83ADDF" stroke-width="0.75" stroke-linecap="round" stroke-linejoin="round"/>
<path d="M395.267 311.669C394.496 319.133 393.084 326.552 390.633 331.739C389.12 334.933 387.207 337.268 384.777 338.242C379.896 340.214 375.699 339.697 372.352 337.842C374.08 337.071 375.903 336.53 377.772 336.235C385.941 334.845 383.366 324.799 386.916 317.823C388.349 315.037 390.771 312.731 395.267 311.669Z" fill="#A7CAF0"/>
<path d="M319.613 353.191C317.532 355.01 316.157 362.648 321.169 368.744C326.181 374.84 331.084 370.927 331.084 370.927C331.084 370.927 338.271 364.736 333.267 355.527C328.262 346.317 319.613 353.191 319.613 353.191Z" fill="#83ADDF"/>
<path d="M330.51 351.722C325.243 354.261 321.497 355.97 320.551 355.905C319.605 355.839 310.781 356.923 308.243 357.687C305.704 358.451 299.935 364.532 300.503 365.42C301.07 366.307 303.296 366.147 303.296 366.147C303.296 366.147 294.567 372.556 293.716 374.876C292.864 377.197 295.498 376.651 295.498 376.651C294.137 377.379 292.268 381.263 297.018 379.823C295.876 380.55 295.185 382.696 298.415 381.918C303.107 380.776 310.781 377.604 310.781 377.604C310.781 377.604 305.449 381.598 303.296 382.616C301.143 383.635 301.012 385.977 305.646 384.646C310.279 383.315 319.278 377.037 322.377 374.811C325.476 372.585 328.465 370.694 329.164 370.25C329.862 369.806 336.526 366.758 336.526 366.758C336.526 366.758 343 350.456 330.51 351.722Z" fill="#B25E47"/>
<path d="M303.296 366.176C306.533 363.892 311.036 360.56 311.989 360.451" stroke="#934735" stroke-width="0.75" stroke-linecap="round" stroke-linejoin="round"/>
<path d="M295.534 376.709C295.665 376.353 308.585 368.06 308.585 368.06" stroke="#934735" stroke-width="0.75" stroke-linecap="round" stroke-linejoin="round"/>
<path d="M296.989 379.882C297.054 379.474 310.228 372.84 310.228 372.84" stroke="#934735" stroke-width="0.75" stroke-linecap="round" stroke-linejoin="round"/>
<path d="M308.243 357.687C305.704 358.414 299.935 364.532 300.503 365.42C301.07 366.307 303.296 366.147 303.296 366.147C303.296 366.147 294.567 372.556 293.716 374.876C292.864 377.197 295.498 376.651 295.498 376.651C294.137 377.379 292.268 381.263 297.018 379.823C295.876 380.551 295.185 382.696 298.415 381.918C303.107 380.776 310.781 377.604 310.781 377.604C310.781 377.604 305.449 381.598 303.296 382.616C301.143 383.635 301.012 385.977 305.646 384.646C306.774 384.291 307.869 383.838 308.919 383.293" stroke="#934735" stroke-width="0.75" stroke-linecap="round" stroke-linejoin="round"/>
<path d="M390.633 331.739C389.433 337.253 375.902 346.39 362.044 354.457C346.986 363.187 331.543 370.716 331.084 370.934C334.372 365.689 333.681 351.504 319.62 353.17C319.62 353.17 356.581 326.982 363.528 321.308C363.571 321.27 363.618 321.236 363.667 321.206C371.581 314.833 381.423 313.67 386.945 317.823C390.327 320.413 392.066 325.039 390.633 331.739Z" fill="#C3DCF8"/>
<path d="M390.633 331.739C389.432 337.253 375.902 346.389 362.044 354.457C363.768 346.455 366.045 340.723 372.338 337.842C374.066 337.07 375.888 336.53 377.757 336.234C385.926 334.845 383.351 324.799 386.901 317.823C390.327 320.412 392.066 325.039 390.633 331.739Z" fill="#A7CAF0"/>
<path d="M351.344 330.437C356.865 326.414 361.491 322.98 363.535 321.322C366.471 318.901 369.884 317.126 373.552 316.113" stroke="#83ADDF" stroke-width="0.75" stroke-linecap="round" stroke-linejoin="round"/>
<path d="M316.084 251.117C314.862 255.574 313.386 259.958 311.662 264.247C309.613 269.373 307.307 274.391 304.751 279.283C304.145 280.462 303.517 281.638 302.867 282.811C302.772 282.993 302.67 283.182 302.561 283.364C301.739 284.863 300.874 286.361 299.993 287.845C297.607 291.861 295.321 295.554 293.134 298.924C289.819 304.151 286.141 309.139 282.127 313.851C274.751 322.297 268.306 325.956 261.999 324.763C260.786 324.529 259.608 324.143 258.493 323.614C257.271 323.051 256.178 322.245 255.279 321.244C254.381 320.243 253.697 319.069 253.27 317.794C252.856 316.619 252.592 315.397 252.484 314.157C252.011 309.247 253.35 302.918 256.238 295.68C257.886 291.627 259.776 287.678 261.897 283.852C262.508 282.746 263.141 281.669 263.788 280.52C265.884 276.941 268.248 273.245 270.845 269.492C271.114 269.114 271.368 268.764 271.623 268.364C272.481 267.128 273.316 265.915 274.125 264.727L276.606 261.09C276.795 260.813 276.977 260.537 277.166 260.268C280.134 255.903 282.826 251.88 285.343 248.272L285.459 248.098L286.914 246.054C295.301 234.269 301.812 227.3 310.032 226.413C318.95 225.482 320.078 236.219 316.084 251.117Z" fill="#C3DCF8"/>
<path d="M316.084 251.117C307.413 247.145 296.509 246.352 285.445 248.098L286.899 246.054C295.287 234.269 301.797 227.3 310.018 226.413C318.951 225.482 320.078 236.219 316.084 251.117Z" fill="#D0E5F7"/>
<path d="M309.799 259.831C312.127 250.687 312.549 247.254 312.549 247.254" stroke="#83ADDF" stroke-width="0.75" stroke-linecap="round" stroke-linejoin="round"/>
<path d="M311.662 264.247C309.613 269.373 307.307 274.391 304.751 279.283C304.751 279.283 286.805 277.036 277.159 260.268C280.127 255.903 282.818 251.881 285.335 248.272C288.187 252.848 295.36 260.879 311.662 264.247Z" fill="#83ADDF"/>
<path d="M304.402 279.203C306.402 272.256 308.039 266.422 308.934 263.032L309.195 262.065C309.588 260.61 309.799 259.832 309.799 259.832" stroke="#83ADDF" stroke-width="0.75" stroke-linecap="round" stroke-linejoin="round"/>
<path d="M302.859 282.811L302.554 283.35L299.986 287.831C299.986 287.831 278.41 283.568 271.616 268.364C272.474 267.128 273.308 265.915 274.118 264.727C283.931 280.287 302.859 282.811 302.859 282.811Z" fill="#83ADDF"/>
<path d="M288.653 288.449C288.653 288.449 287.54 297.462 282.979 311.48C282.717 312.295 282.433 313.08 282.12 313.859C278.483 323.09 271.994 329.971 265.578 332.321C263.334 333.212 260.877 333.422 258.515 332.925C249.844 330.932 245.952 323.817 248.294 311.48C249.342 305.951 252.222 300.626 256.223 295.702C258.508 292.92 261.014 290.326 263.716 287.947C267.148 284.918 270.794 282.142 274.628 279.64L288.653 288.449Z" fill="#C3DCF8"/>
<path d="M265.578 332.321C263.334 333.212 260.877 333.422 258.515 332.925C249.844 330.932 245.952 323.817 248.294 311.48C249.342 305.951 252.222 300.627 256.223 295.702C258.508 292.92 261.014 290.327 263.716 287.947C264.428 290.162 264.542 292.526 264.045 294.799C263.548 297.072 262.458 299.173 260.886 300.888C256.994 305.253 252.957 310.134 252.47 314.179C252.275 315.447 252.554 316.742 253.255 317.816C253.954 318.811 254.899 319.608 255.998 320.129C258.262 321.304 260.291 322.884 261.985 324.792C264.05 327.135 265.382 329.804 265.578 332.321Z" fill="#A7CAF0"/>
<path d="M282.979 311.487C284.055 308.17 284.943 305.144 285.663 302.438" stroke="#83ADDF" stroke-width="0.75" stroke-linecap="round" stroke-linejoin="round"/>
<path d="M267.222 285.001C257.816 292.494 250.149 301.652 248.309 311.487" stroke="#83ADDF" stroke-width="0.75" stroke-linecap="round" stroke-linejoin="round"/>
<path d="M271.798 287.031C269.615 290.821 266.509 297.215 269.128 301.369C271.747 305.522 277.435 306.461 281.778 302.445C286.121 298.43 288.325 294.443 288.653 290.137L271.798 287.031Z" fill="#83ADDF"/>
<path d="M278.388 278.643C277.45 277.501 279.843 275.966 281.582 277.043C283.326 278.166 285.219 279.04 287.205 279.64C288.66 279.96 289.576 283.684 288.907 284.368C288.907 284.368 279.53 279.996 278.388 278.643Z" fill="#B25E47"/>
<path d="M287.205 279.61C288.66 279.93 289.577 283.655 288.907 284.339" stroke="#934735" stroke-width="0.75" stroke-linecap="round" stroke-linejoin="round"/>
<path d="M258.587 270.154C256.623 268.924 258.667 265.36 260.639 266.182C262.61 267.004 292.028 286.157 292.028 286.157L294.21 289.795L289.846 289.213C289.846 289.213 260.224 271.208 258.587 270.154Z" fill="#683F1D"/>
<path d="M271.703 281.64C271.238 278.847 274.904 278.105 276.715 279.407C278.527 280.709 284.921 283.677 287.009 284.368C289.096 285.059 290.406 287.663 289.104 288.573C289.104 288.573 290.406 290.428 288.878 291.279C288.203 291.706 287.467 292.03 286.696 292.239C286.696 292.239 287.321 294.24 282.571 296.327C282.571 296.327 281.844 299.237 279.29 299.965C276.737 300.692 272.016 300.132 270.918 299.237C269.819 298.342 269.274 295.6 270.35 294.596C270.35 294.596 267.622 293.316 268.11 291.308C268.764 288.602 270.627 289.388 270.066 288.318C269.506 287.249 268.612 285.234 270.008 284.397C271.405 283.561 271.958 283.139 271.703 281.64Z" fill="#B25E47"/>
<path d="M287.008 284.368C289.103 285.059 290.406 287.663 289.103 288.573C289.103 288.573 290.406 290.428 288.878 291.279C288.203 291.706 287.467 292.03 286.696 292.239C286.696 292.239 287.321 294.24 282.571 296.327C282.571 296.327 281.844 299.237 279.29 299.965" stroke="#934735" stroke-width="0.75" stroke-linecap="round" stroke-linejoin="round"/>
<path d="M272.511 289.744C276.121 291.093 279.875 292.021 283.699 292.508C284.713 292.504 285.726 292.414 286.725 292.239" stroke="#934735" stroke-width="0.75" stroke-linecap="round" stroke-linejoin="round"/>
<path d="M289.104 288.573C289.104 288.573 283.793 288.725 282.666 288.573C281.669 288.435 274.067 285.43 274.067 285.43" stroke="#934735" stroke-width="0.75" stroke-linecap="round" stroke-linejoin="round"/>
<path d="M273.922 295.702C273.922 295.702 279.53 296.829 282.6 296.327" stroke="#934735" stroke-width="0.75" stroke-linecap="round" stroke-linejoin="round"/>
<path d="M341.865 180.235C340.159 183.283 337.7 185.843 334.722 187.669C329.666 190.826 325.396 188.455 323.577 186.04C322.908 185.138 322.923 182.686 323.439 179.922C324.319 175.244 326.632 169.643 329.477 169.01C331.124 168.617 332.839 168.597 334.496 168.952C336.152 169.307 337.708 170.028 339.05 171.062C339.511 171.417 339.924 171.83 340.279 172.291C342.193 174.735 342.251 174.859 341.865 180.235Z" fill="#FFEACC"/>
<path d="M341.865 180.235C340.159 183.283 337.7 185.843 334.722 187.669C329.666 190.826 325.396 188.455 323.577 186.04C322.908 185.138 322.923 182.686 323.439 179.922C325.905 184.287 330.248 186.025 331.957 184.629C334.387 182.628 330.692 172.888 339.05 171.033C339.511 171.388 339.924 171.801 340.279 172.262C342.193 174.735 342.251 174.859 341.865 180.235Z" fill="#EDD6B7"/>
<path d="M335.544 181.406C336.94 181.042 337.253 177.885 335.907 177.682C334.562 177.478 333.514 179.697 333.841 181.406C334.045 182.49 334.867 183.239 337.406 182.628" stroke="#C6AB8B" stroke-width="0.75" stroke-linecap="round" stroke-linejoin="round"/>
<path d="M334.089 184.818C328.393 184.687 326.276 183.61 325.847 181.064C325.417 178.518 325.163 174.226 325.163 174.226" stroke="#C6AB8B" stroke-width="0.75" stroke-linecap="round" stroke-linejoin="round"/>
<path d="M331.099 184.621C329.612 183.364 328.587 181.646 328.189 179.74C327.723 176.83 330.044 172.946 331.615 172.764C334.329 172.458 340.345 174.786 339.864 179.493" stroke="#C6AB8B" stroke-width="0.75" stroke-linecap="round" stroke-linejoin="round"/>
<path d="M363.477 211.704C358.036 214.265 348.143 211.704 342.491 205.564C335.42 197.875 341.487 180.831 349.561 178.416C357.636 176.001 361.819 184.549 364.183 191.408L364.227 191.554C364.839 193.357 365.349 195.193 365.754 197.053C367.027 202.858 367.449 209.835 363.477 211.704Z" fill="#B25E47"/>
<path d="M342.258 194.136C341.829 195.635 344.004 197.577 347.124 198.501C350.245 199.425 353.111 198.894 353.54 197.388C353.97 195.882 351.795 193.94 348.681 193.023C345.568 192.107 342.687 192.63 342.258 194.136Z" fill="#A0503D"/>
<path d="M365.754 197.053C364.19 197.715 362.801 197.737 362.153 196.973C361.23 195.867 362.153 193.547 364.227 191.554C364.839 193.357 365.349 195.193 365.754 197.053Z" fill="#A0503D"/>
<path d="M358.924 189.917C358.922 190.128 358.983 190.334 359.1 190.51C359.216 190.686 359.381 190.823 359.576 190.904C359.77 190.985 359.984 191.007 360.191 190.966C360.398 190.926 360.588 190.824 360.737 190.675C360.886 190.526 360.987 190.336 361.028 190.13C361.068 189.923 361.047 189.709 360.965 189.515C360.884 189.32 360.747 189.154 360.571 189.038C360.395 188.922 360.189 188.861 359.978 188.862C359.699 188.864 359.432 188.976 359.235 189.173C359.037 189.371 358.926 189.638 358.924 189.917Z" fill="#683F1D"/>
<path d="M353.002 191.415C353.002 191.626 353.065 191.831 353.182 192.006C353.299 192.181 353.465 192.317 353.66 192.397C353.854 192.477 354.068 192.498 354.274 192.456C354.48 192.415 354.67 192.313 354.818 192.164C354.966 192.014 355.067 191.824 355.107 191.618C355.147 191.411 355.125 191.198 355.043 191.004C354.962 190.81 354.825 190.644 354.649 190.528C354.473 190.413 354.267 190.352 354.057 190.353C353.918 190.353 353.78 190.381 353.652 190.434C353.523 190.487 353.407 190.566 353.309 190.665C353.211 190.763 353.133 190.88 353.08 191.009C353.028 191.138 353.001 191.276 353.002 191.415Z" fill="#683F1D"/>
<path d="M350.34 195.955C350.34 196.054 350.369 196.151 350.424 196.233C350.479 196.316 350.558 196.38 350.649 196.418C350.741 196.456 350.842 196.466 350.939 196.447C351.037 196.427 351.126 196.38 351.196 196.31C351.267 196.239 351.314 196.15 351.334 196.052C351.353 195.955 351.343 195.854 351.305 195.763C351.267 195.671 351.203 195.592 351.12 195.537C351.038 195.482 350.941 195.453 350.842 195.453C350.708 195.453 350.581 195.506 350.487 195.6C350.392 195.694 350.34 195.821 350.34 195.955Z" fill="#914839"/>
<path d="M352.508 194.427C352.785 194.427 353.009 194.202 353.009 193.925C353.009 193.648 352.785 193.423 352.508 193.423C352.23 193.423 352.006 193.648 352.006 193.925C352.006 194.202 352.23 194.427 352.508 194.427Z" fill="#914839"/>
<path d="M353.01 196.246C353.287 196.246 353.511 196.021 353.511 195.744C353.511 195.466 353.287 195.242 353.01 195.242C352.732 195.242 352.508 195.466 352.508 195.744C352.508 196.021 352.732 196.246 353.01 196.246Z" fill="#914839"/>
<path d="M354.355 194.427C354.355 194.527 354.385 194.624 354.44 194.706C354.495 194.789 354.573 194.853 354.665 194.891C354.757 194.929 354.858 194.939 354.955 194.92C355.052 194.9 355.142 194.852 355.212 194.782C355.282 194.712 355.33 194.623 355.349 194.525C355.369 194.428 355.359 194.327 355.321 194.235C355.283 194.143 355.219 194.065 355.136 194.01C355.053 193.955 354.956 193.925 354.857 193.925C354.724 193.925 354.596 193.978 354.502 194.072C354.408 194.166 354.355 194.294 354.355 194.427Z" fill="#914839"/>
<path d="M362.575 192.55C362.575 192.65 362.605 192.747 362.66 192.829C362.715 192.912 362.793 192.976 362.885 193.014C362.977 193.052 363.078 193.062 363.175 193.043C363.272 193.023 363.362 192.975 363.432 192.905C363.502 192.835 363.55 192.746 363.569 192.648C363.589 192.551 363.579 192.45 363.541 192.358C363.503 192.266 363.439 192.188 363.356 192.133C363.273 192.078 363.176 192.048 363.077 192.048C362.944 192.048 362.816 192.101 362.722 192.195C362.628 192.289 362.575 192.417 362.575 192.55Z" fill="#914839"/>
<path d="M361.273 192.303C361.55 192.303 361.775 192.078 361.775 191.801C361.775 191.524 361.55 191.299 361.273 191.299C360.996 191.299 360.771 191.524 360.771 191.801C360.771 192.078 360.996 192.303 361.273 192.303Z" fill="#914839"/>
<path d="M368.962 191.124C368.351 191.852 367.609 192.216 367.282 191.852C366.642 191.168 368.482 190.091 367.282 188.855C366.082 187.618 363.034 188.353 363.034 188.353C358.603 176.772 351.889 177.136 347.903 179.129C343.916 181.122 343.538 184.607 343.48 186.694C343.422 188.782 343.407 189.495 346.39 191.168C349.372 192.841 346.593 195.46 346.113 197.533C345.633 199.606 347.83 198.988 349.023 201.054C350.216 203.12 347.823 204.131 347.925 203.236C348.026 202.342 347.197 201.192 346.346 201.389C345.495 201.585 343.785 200.952 343.705 199.934C343.625 198.915 342.978 196.537 341.901 196.187C338.141 194.951 336.184 198.581 336.7 201.418C336.869 202.263 337.229 203.058 337.754 203.742C338.279 204.425 338.954 204.979 339.726 205.36C339.726 205.36 337.544 206.437 333.87 201.941C333.082 200.97 332.527 199.83 332.248 198.61C331.179 194.143 333.361 188.68 335.442 185.421C338.082 181.26 339.123 181.057 339.123 181.057C340.35 178.247 342.189 175.747 344.506 173.739C348.485 170.181 352.006 173.178 352.006 173.178C355.839 170.501 360.408 171.578 361.717 174.066C363.026 176.554 362.524 180.46 362.728 181.74C362.932 183.021 363.928 185.181 366.365 185.181C368.802 185.181 369.733 186.105 369.886 188.338C369.942 189.351 369.612 190.346 368.962 191.124Z" fill="#FFEACC"/>
<path d="M368.962 191.125C368.351 191.852 367.609 192.216 367.282 191.852C366.642 191.168 368.482 190.092 367.282 188.855C366.082 187.618 363.034 188.353 363.034 188.353C358.604 176.772 351.889 177.136 347.903 179.129C343.916 181.122 343.538 184.607 343.48 186.695C343.422 188.782 343.407 189.495 346.39 191.168C349.372 192.841 346.593 195.46 346.113 197.533C345.633 199.607 347.83 198.988 349.023 201.054C350.216 203.12 347.823 204.131 347.925 203.237C348.027 202.342 347.197 201.192 346.346 201.389C345.495 201.585 343.786 200.952 343.706 199.934C343.625 198.916 343.131 196.93 341.887 196.42C338.053 194.842 336.366 198.603 336.882 201.418C337.074 202.278 337.468 203.08 338.032 203.757C338.597 204.434 339.315 204.967 340.126 205.31C340.126 205.31 338.221 207.347 333.87 201.942C333.086 200.967 332.532 199.828 332.248 198.61C336.002 195.184 335.813 191.728 338.322 190.979C341.392 190.063 340.992 183.959 344.528 177.994C348.063 172.029 354.035 176.256 355.512 177.667C355.512 177.667 359.782 175.485 361.055 181.057C362.328 186.629 365.194 187.48 367.129 187.291C368.279 187.175 369.231 189.168 368.962 191.125Z" fill="#EDD6B7"/>
<path d="M341.865 192.434C343.269 192.652 343.967 194.74 343.203 197.897" stroke="#C6AB8B" stroke-width="0.75" stroke-linecap="round" stroke-linejoin="round"/>
<path d="M343.829 182.904C345.844 177.165 346.783 176.728 347.386 176.357C348.485 175.695 350.943 176.423 350.943 176.423" stroke="#C6AB8B" stroke-width="0.75" stroke-linecap="round" stroke-linejoin="round"/>
<path d="M352.006 173.178C353.239 174.235 354.403 175.369 355.49 176.575" stroke="#C6AB8B" stroke-width="0.75" stroke-linecap="round" stroke-linejoin="round"/>
<path d="M336.751 198.865C334.736 195.897 332.721 189.343 336.351 184.025" stroke="#C6AB8B" stroke-width="0.75" stroke-linecap="round" stroke-linejoin="round"/>
<path d="M338.759 196.362C337.304 193.358 336.169 187.582 339.123 181.086" stroke="#C6AB8B" stroke-width="0.75" stroke-linecap="round" stroke-linejoin="round"/>
<path d="M357.243 187.291C356.334 190.68 357.672 192.055 359.265 192.47C360.858 192.885 362.132 193.699 361.95 195.111" stroke="#934735" stroke-width="0.75" stroke-linecap="round" stroke-linejoin="round"/>
<path d="M348.172 188.68C348.9 189.408 353.264 186.556 352.144 184.876C351.024 183.195 347.11 187.662 348.172 188.68Z" fill="#FFEACC"/>
<path d="M356.123 183.85C356.123 185.56 360.488 184.636 360.408 184.076C360.277 183.065 356.116 182.286 356.123 183.85Z" fill="#FFEACC"/>
<path d="M355.999 197.664C356.654 198.298 357.473 198.736 358.364 198.929C359.255 199.121 360.182 199.061 361.04 198.755" stroke="#934735" stroke-width="0.75" stroke-linecap="round" stroke-linejoin="round"/>
<path d="M344.506 201.047V205.266C343.093 205.74 341.566 205.761 340.141 205.324H340.068C339.077 204.981 338.213 204.344 337.592 203.498C336.971 202.652 336.622 201.637 336.591 200.588C336.543 199.907 336.654 199.224 336.916 198.592C337.177 197.961 337.581 197.399 338.097 196.951C338.44 196.658 338.832 196.427 339.254 196.267C340.128 196.038 341.055 196.123 341.872 196.507C343.109 197.017 343.604 198.966 343.691 200.021C343.737 200.244 343.835 200.453 343.976 200.631C344.118 200.809 344.299 200.951 344.506 201.047Z" fill="#B25E47"/>
<path d="M338.301 200.094C338.73 198.995 341.581 197.773 342.927 200.77" stroke="#934735" stroke-width="0.75" stroke-linecap="round" stroke-linejoin="round"/>
<path d="M342.709 200.32C339.588 198.508 338.301 203.149 342.345 202.866" stroke="#934735" stroke-width="0.75" stroke-linecap="round" stroke-linejoin="round"/>
<path d="M344.506 205.251C342.904 205.808 341.154 205.756 339.588 205.106" stroke="#934735" stroke-width="0.75" stroke-linecap="round" stroke-linejoin="round"/>
<path d="M498.702 223.845C498.171 227.228 495.843 230.21 492.737 232.312C486.794 236.364 477.97 237.237 473.365 231.774C467.611 224.958 453.157 192.892 448.115 181.53C447.017 179.034 446.362 177.529 446.362 177.529C446.784 162.507 457.921 156.004 469.08 156.52C480.239 157.037 487.848 164.973 488.438 176.932C489.027 188.891 484.211 206.488 487.528 210.133C490.845 213.777 500.259 213.966 498.702 223.845Z" fill="#D39933"/>
<path d="M494.686 227.315C494.321 229.078 493.662 230.768 492.737 232.313C486.793 236.364 477.97 237.237 473.365 231.774C467.611 224.958 453.156 192.892 448.115 181.53C451.622 165.199 460.22 160.121 469.815 161.707C479.541 163.322 483.709 176.438 480.617 182.17C477.526 187.902 469.648 199.192 473.663 206.306C477.679 213.421 476.98 214.767 481.665 215.887C486.35 217.007 496.126 219.335 494.686 227.315Z" fill="#C4892A"/>
<path d="M450.051 174.939C451.949 164.573 461.69 162.682 465.967 163.693" stroke="#EDB65F" stroke-width="0.75" stroke-linecap="round" stroke-linejoin="round"/>
<path d="M457.187 173.615C462.628 169.025 470.521 170.574 470.47 174.517C470.419 178.46 470.12 181.406 472.39 183.006C474.66 184.606 478.042 188.004 476.122 192.783" stroke="#EDB65F" stroke-width="0.75" stroke-linecap="round" stroke-linejoin="round"/>
<path d="M480.829 198.013C479.374 206.575 478.472 210.773 482.334 211.951C486.197 213.129 487.485 214.417 486.648 216.265C485.812 218.112 484.742 218.891 487.266 219.844C489.791 220.797 490.009 223.99 490.009 223.99" stroke="#EDB65F" stroke-width="0.75" stroke-linecap="round" stroke-linejoin="round"/>
<path d="M454.299 277.697C449.825 299.935 442.085 323.111 434.323 334.081C432.09 337.231 429.871 339.377 427.718 340.206C408.95 347.481 401.297 338.708 403.443 312.258C404.68 296.982 412.82 268.99 423.811 248.643C431.69 234.094 441.023 223.474 450.356 224.274C460.336 225.147 459.718 250.738 454.299 277.697Z" fill="#A7CAF0"/>
<path d="M454.299 277.697C452.121 276.956 450.131 275.749 448.467 274.161C446.803 272.573 445.504 270.643 444.66 268.503C443.581 265.694 442.2 263.011 440.543 260.501C436.505 254.448 430.89 249.902 423.812 248.607C431.69 234.058 441.023 223.438 450.356 224.238C460.336 225.147 459.718 250.738 454.299 277.697Z" fill="#C3DCF8"/>
<path d="M440.557 262.574C431.501 263.621 429.558 266.415 430.635 272.722C431.712 279.028 418.676 272.191 415.162 279.64C411.649 287.089 428.911 314.906 429.224 315.066L434.498 317.758L444.493 306.118L451.142 289.795L451.251 274.86L440.557 262.574Z" fill="#93BEE5"/>
<path d="M520.51 267.666C520.365 270.925 519.208 282.171 517.753 295.614C515.244 318.696 511.832 348.245 511.054 355.003L508.384 354.312C497.552 351.518 485.833 349.016 473.35 346.761C460.867 344.506 447.723 342.52 433.974 340.774C434.083 338.817 434.199 336.547 434.323 334.081C434.949 321.322 435.676 303.282 435.094 295.927C434.156 284.106 433.596 275.661 437.531 268.153C438.776 265.715 439.789 263.165 440.557 260.537C442.587 253.866 443.671 246.257 443.54 241.267C443.38 235.382 440.004 226.318 450.378 224.274C453.072 223.822 455.813 223.727 458.532 223.99C478.566 225.445 482.662 223.99 482.662 223.99C495.596 221.684 506.325 224.529 509.322 225.576L509.599 225.678C513.963 227.293 518.066 233.331 519.783 246.105C520.657 253.256 520.9 260.471 520.51 267.666Z" fill="#A7CAF0"/>
<path d="M493.704 278.788C479.381 272.067 469.488 287.518 470.23 299.753C471.183 315.313 453.011 296.298 445.3 313.189C439.175 326.61 469.517 338.65 485.477 325.556C501.437 312.462 513.04 287.852 493.704 278.788Z" fill="#93BEE5"/>
<path d="M519.812 246.105C510.035 244.526 497.698 249.175 490.22 255.925C487.092 258.762 484.815 261.97 483.935 265.244C480.952 276.403 465.261 281.742 454.299 277.698C452.121 276.956 450.131 275.749 448.467 274.161C446.803 272.574 445.504 270.643 444.66 268.503C443.581 265.695 442.2 263.012 440.543 260.501C442.572 253.83 443.656 246.221 443.525 241.231C443.365 235.346 439.99 226.282 450.363 224.238C453.057 223.786 455.799 223.691 458.518 223.954C478.552 225.409 482.647 223.954 482.647 223.954C495.581 221.648 506.311 224.492 509.308 225.54L509.584 225.642C513.964 227.293 518.074 233.331 519.812 246.105Z" fill="#C3DCF8"/>
<path d="M433.974 340.774C434.083 338.817 434.199 336.548 434.323 334.082C434.949 321.322 435.676 303.282 435.094 295.927C434.156 284.106 433.596 275.661 437.531 268.153C438.776 265.715 439.789 263.165 440.557 260.537C441.918 256.002 442.841 251.347 443.314 246.636" stroke="#83ADDF" stroke-width="0.75" stroke-linecap="round" stroke-linejoin="round"/>
<path d="M479.104 223.99C479.417 226.289 465.167 242.678 459.209 241.172C453.251 239.667 456.299 224.201 456.299 224.201C456.299 224.201 455.935 223.154 455.375 221.612C454 217.785 451.483 210.86 450.567 208.969C449.515 206.83 448.675 204.593 448.057 202.291C443.518 184.999 458.081 178.329 465.952 195.853C473.911 213.522 478.784 221.684 479.104 223.99Z" fill="#FEBD9D"/>
<path d="M455.39 221.612C454.015 217.785 451.498 210.86 450.581 208.969C449.53 206.83 448.689 204.593 448.072 202.291C453.258 198.915 460.518 201.942 463.348 207.87C466.083 213.632 462.482 220.411 455.39 221.612Z" fill="#F4A789"/>
<path d="M455.797 222.732C457.077 225.343 456.874 225.853 456.874 227.278C456.874 228.704 457.201 235.906 456.554 238.677C456.554 238.677 453.375 235.288 451.658 235.848C449.941 236.408 447.206 238.677 447.206 238.677L452.087 226.311C453.113 223.648 454.517 222.681 455.797 222.732Z" fill="#683F1D"/>
<path d="M482.669 223.99C482.727 222.535 478.668 219.807 478.064 221.168C474.747 228.675 466.141 238.335 463.159 240.409C464.454 240.727 465.684 241.266 466.796 242.002C468.462 243.202 471.546 248.629 471.546 248.629C471.546 248.629 482.065 238.677 482.669 223.99Z" fill="#683F1D"/>
<path d="M455.79 247.676C455.79 248.148 455.93 248.609 456.192 249.002C456.454 249.394 456.827 249.7 457.263 249.88C457.699 250.061 458.178 250.108 458.641 250.016C459.104 249.924 459.529 249.697 459.863 249.363C460.197 249.03 460.424 248.604 460.516 248.142C460.608 247.679 460.561 247.199 460.38 246.763C460.2 246.327 459.894 245.954 459.501 245.692C459.109 245.43 458.648 245.29 458.176 245.29C457.543 245.29 456.936 245.541 456.489 245.989C456.041 246.436 455.79 247.043 455.79 247.676Z" fill="white"/>
<path d="M454.568 256.471C454.566 256.945 454.706 257.408 454.968 257.803C455.23 258.197 455.603 258.505 456.04 258.687C456.477 258.87 456.959 258.918 457.424 258.826C457.888 258.735 458.315 258.508 458.651 258.173C458.986 257.839 459.215 257.412 459.308 256.948C459.401 256.483 459.354 256.002 459.173 255.564C458.992 255.126 458.685 254.752 458.292 254.489C457.898 254.226 457.435 254.085 456.961 254.085C456.647 254.084 456.336 254.145 456.046 254.265C455.756 254.384 455.492 254.56 455.269 254.781C455.047 255.003 454.871 255.266 454.75 255.556C454.63 255.846 454.568 256.157 454.568 256.471Z" fill="white"/>
<path d="M508.384 354.312C497.552 351.518 485.833 349.016 473.35 346.761C473.637 345.896 474.057 345.081 474.594 344.346C481.701 334.089 487.048 322.733 503.801 327.702C510.61 329.724 507.133 341.159 503.801 345.16C500.331 349.278 509.875 349.387 508.384 354.312Z" fill="#93BEE5"/>
<path d="M413.467 342.294C398.191 339.864 393.739 316.979 391.397 305.26C389.658 296.531 386.159 274.336 384.486 263.527C383.904 259.802 383.54 257.431 383.54 257.431C383.54 257.431 391.266 258.805 399.122 251.502C399.602 252.702 400.381 254.368 401.37 256.398C408.535 271.165 427.201 305.042 430.635 316.564C434.534 329.673 428.554 344.702 413.467 342.294Z" fill="#A7CAF0"/>
<path d="M391.397 305.26C390.589 301.194 389.396 294.196 388.181 286.79C386.792 278.308 385.381 269.295 384.486 263.512C383.904 259.787 383.54 257.416 383.54 257.416" stroke="#83ADDF" stroke-width="0.75" stroke-linecap="round" stroke-linejoin="round"/>
<path d="M399.122 251.502C397.311 247.865 392.822 240.947 388.56 237.754C386.275 236.051 383.468 236.066 382.5 236.75C382.5 236.75 374.716 235.593 368.802 237.034C362.888 238.474 361.95 241.726 364.401 242.009C366.853 242.293 371.036 240.86 374.069 240.787C374.069 240.787 371.006 241.515 371.072 244.337C370.345 243.908 368.635 245.028 368.999 247.334C368.999 247.334 367.777 246.054 367.289 248.425C366.802 250.797 368.868 254.288 371.239 254.419C373.611 254.55 373.349 252.841 373.349 252.841C373.349 252.841 375.284 256.391 383.533 257.431C383.533 257.431 384.988 259.955 384.988 259.824C384.988 259.693 399.369 261.163 399.122 251.502Z" fill="#FEBD9D"/>
<path d="M388.56 237.754C386.275 236.051 383.468 236.066 382.5 236.75C382.5 236.75 374.716 235.593 368.802 237.034C362.888 238.474 361.95 241.726 364.401 242.009C366.853 242.293 371.036 240.86 374.069 240.787C374.069 240.787 371.006 241.515 371.072 244.337C370.345 243.908 368.635 245.028 368.999 247.334C368.999 247.334 367.777 246.054 367.289 248.425C366.802 250.797 368.868 254.288 371.239 254.419C373.611 254.55 373.349 252.841 373.349 252.841" stroke="#EF8A66" stroke-width="0.75" stroke-linecap="round" stroke-linejoin="round"/>
<path d="M374.098 240.787C375.549 240.63 377.012 240.63 378.463 240.787" stroke="#EF8A66" stroke-width="0.75" stroke-linecap="round" stroke-linejoin="round"/>
<path d="M369.006 247.334C370.039 250.003 371.406 251.829 373.371 252.84C375.335 253.852 377.91 250.905 377.779 250.083C378.768 249.4 379.408 247.857 377.422 246.65" stroke="#EF8A66" stroke-width="0.75" stroke-linecap="round" stroke-linejoin="round"/>
<path d="M371.072 244.337C371.618 247.196 373.48 250.789 377.757 250.084" stroke="#EF8A66" stroke-width="0.75" stroke-linecap="round" stroke-linejoin="round"/>
<path d="M389.505 250.513C384.631 248.33 383.78 245.341 383.54 243.078C383.54 243.078 376.702 248.069 375.124 246.796C373.16 245.202 380.943 237.659 382.5 236.75" stroke="#EF8A66" stroke-width="0.75" stroke-linecap="round" stroke-linejoin="round"/>
<path d="M401.37 256.398C397.071 260.377 391.797 263.752 384.486 263.527C383.904 259.802 383.54 257.431 383.54 257.431C383.54 257.431 391.266 258.805 399.122 251.502C399.602 252.695 400.381 254.368 401.37 256.398Z" fill="#683F1D"/>
<path d="M397.071 255.416C397.071 255.683 397.15 255.943 397.298 256.165C397.446 256.386 397.657 256.558 397.903 256.66C398.15 256.762 398.421 256.788 398.682 256.735C398.943 256.683 399.183 256.554 399.371 256.365C399.559 256.176 399.686 255.936 399.737 255.674C399.788 255.413 399.761 255.142 399.658 254.896C399.555 254.65 399.381 254.441 399.159 254.294C398.937 254.147 398.676 254.069 398.409 254.07C398.233 254.07 398.058 254.105 397.895 254.173C397.733 254.241 397.585 254.34 397.46 254.465C397.336 254.59 397.237 254.738 397.171 254.902C397.104 255.065 397.07 255.24 397.071 255.416Z" fill="white"/>
<path d="M517.754 295.615C513.775 309.385 509.17 322.879 506.667 330.248C500.499 348.478 477.679 359.346 475.06 342.658C471.947 322.814 485.244 287.009 490.009 257.446C490.089 256.973 490.154 256.464 490.22 255.925C491.515 245.486 491.362 224.027 505.103 224.805C506.539 224.884 507.959 225.143 509.33 225.576L509.606 225.678C517.506 228.399 521.784 237.004 523.755 247.145C524.431 250.714 524.854 254.326 525.021 257.955C525.443 266.27 521.951 281.102 517.754 295.615Z" fill="#A7CAF0"/>
<path d="M523.755 247.145C522.479 246.666 521.158 246.317 519.812 246.105C510.035 244.526 497.698 249.175 490.22 255.925C491.515 245.486 491.362 224.027 505.103 224.805C506.539 224.884 507.959 225.143 509.33 225.576L509.606 225.678C517.506 228.399 521.769 237.004 523.755 247.145Z" fill="#C3DCF8"/>
<path d="M476.398 318.893C479.308 302.511 485.055 283.131 488.605 265.244" stroke="#83ADDF" stroke-width="0.75" stroke-linecap="round" stroke-linejoin="round"/>
<path d="M514.64 305.988C511.563 315.859 508.53 324.756 506.638 330.248C504.77 335.645 501.587 340.492 497.378 344.353" stroke="#83ADDF" stroke-width="0.75" stroke-linecap="round" stroke-linejoin="round"/>
<path d="M488.598 265.244C490.053 259.512 493.297 255.787 495.305 255.489" stroke="#83ADDF" stroke-width="0.75" stroke-linecap="round" stroke-linejoin="round"/>
<path d="M353.308 259.417C356.69 257.052 362.765 258.013 370.039 265.964C374.527 270.962 378.173 276.657 380.834 282.826C386.008 279.086 391.988 276.614 398.293 275.609C408.579 274.075 421.346 278.672 421.346 278.672L423.331 284.237L381.133 289.795L353.308 259.417Z" fill="#F9F9F9" stroke="#EDEDED" stroke-linecap="round" stroke-linejoin="round"/>
<path d="M383.54 284.768L425.87 281.386L442.652 327.309L402.119 330.583L383.54 284.768Z" fill="#F9F9F9" stroke="#DDDDDD" stroke-linecap="round" stroke-linejoin="round"/>
<path d="M351.453 256.471L378.696 284.266L397.18 327.782L370.796 302.831L351.453 256.471Z" fill="#F9F9F9" stroke="#DDDDDD" stroke-linecap="round" stroke-linejoin="round"/>
<path d="M378.696 284.266L383.54 284.768L402.119 330.582L397.18 327.782L378.696 284.266Z" fill="#F9F9F9" stroke="#DDDDDD" stroke-linecap="round" stroke-linejoin="round"/>
<path d="M370.308 270.481C374.287 274.504 378.31 281.444 378.31 281.444" stroke="#EDEDED" stroke-linecap="round" stroke-linejoin="round"/>
<path d="M383.555 282.811C387.069 280.785 390.874 279.313 394.837 278.447" stroke="#EDEDED" stroke-linecap="round" stroke-linejoin="round"/>
<path d="M384.05 283.612C387.687 282.019 395.092 280.622 395.092 280.622" stroke="#EDEDED" stroke-linecap="round" stroke-linejoin="round"/>
<path d="M376.368 282.935C377.452 280.796 383.577 279.297 384.777 285.844C383.405 286.616 381.82 286.923 380.259 286.717C378.957 286.47 376.368 282.935 376.368 282.935Z" fill="#F9F9F9" stroke="#DDDDDD" stroke-linecap="round" stroke-linejoin="round"/>
<path d="M423.921 307.028C420.002 304.848 416.407 302.13 413.242 298.953C410.259 296.044 402.498 292.181 401.77 292.632C401.043 293.083 400.475 295.076 404.571 298.684C405.825 299.689 406.877 300.923 407.67 302.321C406.207 302.854 404.632 303.004 403.094 302.758C400.475 302.358 389.425 301.63 388.094 301.492C386.763 301.354 386.494 303.158 388.487 303.958C385.286 303.478 384.406 305.377 387.294 307.137C387.294 307.137 384.792 307.806 387.716 309.981C390.2 311.695 392.812 313.215 395.529 314.528C395.529 314.528 389.578 312.804 388.807 312.913C388.036 313.022 387.607 314.251 389.651 315.343C391.695 316.434 405.997 321.962 408.47 322.69C411.503 323.57 417.614 324.618 417.614 324.618C417.614 324.618 424.976 313.997 423.921 307.028Z" fill="#FEBD9D"/>
<path d="M483.338 350.9C469.466 351.845 434.694 335.383 421.105 328.902C418.327 327.585 416.435 326.72 415.788 326.429C415.788 326.429 416.064 309.894 424.888 306.584C426.034 307.221 427.256 307.71 428.525 308.039C430.173 308.518 431.86 308.847 433.567 309.021C439.386 309.668 457.529 312.36 467.407 313.16C477.286 313.96 489.776 320.718 494.243 328.749C497.305 334.256 497.036 349.983 483.338 350.9Z" fill="#A7CAF0"/>
<path d="M483.338 350.9C469.466 351.846 434.694 335.384 421.105 328.902C418.327 327.585 416.435 326.72 415.788 326.429" stroke="#83ADDF" stroke-width="0.75" stroke-linecap="round" stroke-linejoin="round"/>
<path d="M424.888 306.599C426.034 307.235 427.256 307.724 428.525 308.054C430.173 308.533 431.86 308.861 433.567 309.036C439.386 309.683 457.529 312.375 467.407 313.175C473.954 313.706 481.585 316.812 487.325 321.177" stroke="#83ADDF" stroke-width="0.75" stroke-linecap="round" stroke-linejoin="round"/>
<path d="M409.088 295.92C405.851 293.949 402.25 292.334 401.77 292.632C401.043 293.083 400.475 295.076 404.571 298.684C405.825 299.689 406.877 300.923 407.67 302.321C406.207 302.854 404.632 303.004 403.094 302.758C400.475 302.358 389.425 301.63 388.094 301.492C386.763 301.354 386.494 303.158 388.487 303.958C385.286 303.478 384.406 305.377 387.294 307.137C387.294 307.137 384.792 307.806 387.716 309.981C390.2 311.695 392.812 313.215 395.529 314.528C395.529 314.528 389.578 312.804 388.807 312.913C388.036 313.022 387.607 314.251 389.651 315.343C390.255 315.663 391.957 316.383 394.11 317.256" stroke="#EF8A66" stroke-width="0.75" stroke-linecap="round" stroke-linejoin="round"/>
<path d="M428.554 308.09C424.299 311.305 421.331 320.704 421.105 328.917C418.327 327.6 416.435 326.734 415.788 326.443C415.788 326.443 416.064 309.908 424.888 306.599C426.042 307.25 427.274 307.751 428.554 308.09Z" fill="#683F1D"/>
<path d="M417.286 323.65C417.285 323.951 417.373 324.245 417.539 324.496C417.705 324.747 417.942 324.943 418.22 325.06C418.498 325.176 418.803 325.207 419.099 325.149C419.394 325.091 419.666 324.947 419.879 324.735C420.093 324.522 420.238 324.251 420.297 323.956C420.357 323.661 420.327 323.355 420.212 323.077C420.097 322.799 419.902 322.561 419.652 322.393C419.402 322.226 419.108 322.137 418.807 322.137C418.405 322.137 418.019 322.296 417.734 322.579C417.449 322.863 417.288 323.248 417.286 323.65Z" fill="white"/>
<path d="M395.529 314.528C397.413 315.11 398.824 315.67 398.824 315.67" stroke="#EF8A66" stroke-width="0.75" stroke-linecap="round" stroke-linejoin="round"/>
<path d="M387.294 307.108L399.871 311.487" stroke="#EF8A66" stroke-width="0.75" stroke-linecap="round" stroke-linejoin="round"/>
<path d="M388.487 303.929L400.286 307.108" stroke="#EF8A66" stroke-width="0.75" stroke-linecap="round" stroke-linejoin="round"/>
<path d="M466.753 199.592C463.639 207.187 455.645 220.288 446.064 213.872C444.064 212.507 442.337 210.78 440.972 208.78C439.182 206.173 437.876 203.265 437.117 200.196C436.006 195.866 435.844 191.347 436.644 186.949C436.922 185.434 437.348 183.951 437.917 182.519C441.852 172.837 454.59 173.608 459.282 178.307C459.413 178.438 459.558 178.584 459.704 178.744C462.063 181.555 463.917 184.755 465.181 188.2C465.37 188.685 465.545 189.17 465.705 189.655C467.08 193.533 467.647 197.41 466.753 199.592Z" fill="#FEBD9D"/>
<path d="M439.466 197.708C439.466 197.918 439.529 198.124 439.646 198.299C439.763 198.474 439.929 198.61 440.123 198.69C440.318 198.77 440.532 198.791 440.738 198.749C440.944 198.708 441.133 198.606 441.282 198.456C441.43 198.307 441.531 198.117 441.571 197.911C441.611 197.704 441.589 197.491 441.507 197.297C441.426 197.103 441.289 196.937 441.113 196.821C440.937 196.706 440.731 196.645 440.521 196.646C440.382 196.646 440.244 196.674 440.116 196.727C439.987 196.78 439.87 196.859 439.772 196.958C439.674 197.056 439.597 197.173 439.544 197.302C439.492 197.431 439.465 197.569 439.466 197.708Z" fill="#683F1D"/>
<path d="M445.3 195.853C445.3 196.063 445.363 196.268 445.479 196.443C445.596 196.617 445.762 196.753 445.956 196.834C446.15 196.914 446.364 196.935 446.57 196.894C446.776 196.853 446.965 196.752 447.113 196.604C447.262 196.455 447.363 196.266 447.404 196.06C447.445 195.854 447.424 195.64 447.344 195.446C447.263 195.252 447.127 195.086 446.952 194.97C446.778 194.853 446.572 194.791 446.362 194.791C446.223 194.79 446.084 194.816 445.955 194.869C445.826 194.922 445.708 195.001 445.609 195.099C445.51 195.198 445.432 195.316 445.379 195.445C445.326 195.574 445.299 195.713 445.3 195.853Z" fill="#683F1D"/>
<path d="M464.454 199.192C468.906 200.378 474.034 194.827 471.445 190.23C468.855 185.632 463.777 188.542 463.159 191.808L464.454 199.192Z" fill="#FEBD9D"/>
<path d="M464.454 199.192C465.251 199.392 466.086 199.392 466.883 199.192" stroke="#EF8A66" stroke-width="0.75" stroke-linecap="round" stroke-linejoin="round"/>
<path d="M465.181 194.449C465.589 190.717 468.957 190.535 469.822 192.216" stroke="#EF8A66" stroke-width="0.75" stroke-linecap="round" stroke-linejoin="round"/>
<path d="M465.29 193.772C468.156 190.659 471.757 195.867 466.098 196.326" stroke="#EF8A66" stroke-width="0.75" stroke-linecap="round" stroke-linejoin="round"/>
<path d="M465.705 189.604C465.685 189.739 465.655 189.873 465.618 190.004C464.97 192.296 462.555 191.154 461.573 188.979C460.438 186.404 453.797 177.136 447.81 183.487C443.373 188.186 439.721 188.819 436.644 186.949C436.905 185.515 437.304 184.109 437.837 182.752C437.859 182.673 437.886 182.595 437.917 182.519C441.852 172.837 454.59 173.608 459.282 178.307C459.413 178.438 459.558 178.584 459.704 178.744C462.063 181.555 463.917 184.755 465.181 188.2C465.371 188.656 465.545 189.124 465.705 189.604Z" fill="#D39933"/>
<path d="M465.618 190.004C464.97 192.296 462.555 191.154 461.573 188.979C460.438 186.404 453.797 177.136 447.81 183.487C443.373 188.186 439.721 188.819 436.644 186.949C436.905 185.515 437.304 184.109 437.837 182.752C441.612 184.323 445.111 182.09 447.417 180.199C450.327 177.863 453.862 178.053 457.507 180.599C460.722 182.861 463.45 190.397 465.618 190.004Z" fill="#C4892A"/>
<path d="M440.448 187.858C439.859 181.311 442.587 177.092 444.813 175.826" stroke="#EDB65F" stroke-width="0.75" stroke-linecap="round" stroke-linejoin="round"/>
<path d="M442.194 187.531C442.471 184.868 447.243 175.164 452.64 175.164" stroke="#EDB65F" stroke-width="0.75" stroke-linecap="round" stroke-linejoin="round"/>
<path d="M448.297 183.036C449.992 178.918 452.08 176.285 454.568 175.623" stroke="#EDB65F" stroke-width="0.75" stroke-linecap="round" stroke-linejoin="round"/>
<path d="M458.394 177.536C458.794 180.904 458.474 183.13 457.492 183.676" stroke="#EDB65F" stroke-width="0.75" stroke-linecap="round" stroke-linejoin="round"/>
<path d="M460.446 179.616C461.559 183.944 460.627 185.894 459.98 186.396" stroke="#EDB65F" stroke-width="0.75" stroke-linecap="round" stroke-linejoin="round"/>
<path d="M441.023 194.042C443.009 194.842 443.933 196.224 443.438 197.49C442.827 199.061 441.823 201.854 443.744 203.076" stroke="#EF8A66" stroke-width="0.75" stroke-linecap="round" stroke-linejoin="round"/>
<path d="M443.46 190.368C443.664 191.961 449.345 190.368 449.563 189.43C449.854 188.157 443.103 187.56 443.46 190.368Z" fill="#D39933"/>
<path d="M440.296 191.801C441.023 193.103 435.931 194.951 435.203 194.34C434.36 193.54 439.103 189.503 440.296 191.801Z" fill="#D39933"/>
<path d="M446.784 204.997C447.714 204.625 448.559 204.068 449.268 203.36C449.977 202.653 450.535 201.809 450.909 200.879C450.909 200.879 452.8 204.182 450.567 205.891C448.857 207.194 446.784 204.997 446.784 204.997Z" fill="white" stroke="#EF8A66" stroke-width="0.75" stroke-linecap="round" stroke-linejoin="round"/>
<path d="M456.044 200.967C458.76 200.967 460.962 198.765 460.962 196.049C460.962 193.333 458.76 191.132 456.044 191.132C453.329 191.132 451.127 193.333 451.127 196.049C451.127 198.765 453.329 200.967 456.044 200.967Z" fill="#F4AF90"/>
<path d="M442.681 205.063C442.685 205.769 442.534 206.468 442.238 207.11C441.943 207.753 441.511 208.322 440.972 208.78C439.182 206.173 437.876 203.265 437.116 200.196C437.331 200.164 437.547 200.147 437.764 200.145C439.068 200.145 440.319 200.663 441.241 201.585C442.163 202.508 442.681 203.758 442.681 205.063Z" fill="#F4AF90"/>
</svg>
